<?xml version="1.0" encoding="utf-8"?>
<!-- Generator: Adobe Illustrator 19.2.1, SVG Export Plug-In . SVG Version: 6.00 Build 0)  -->
<svg version="1.1" id="Layer_1" xmlns="http://www.w3.org/2000/svg" xmlns:xlink="http://www.w3.org/1999/xlink" x="0px" y="0px"
	 viewBox="0 0 240 240" style="enable-background:new 0 0 240 240;" xml:space="preserve">
<style type="text/css">
	.st0{fill:#DCE3EA;}
	.st1{opacity:0.15;fill:#180621;enable-background:new    ;}
	.st2{fill:#2E4159;}
	.st3{opacity:0.5;fill:#FFFFFF;enable-background:new    ;}
	.st4{fill:none;stroke:#1D132D;stroke-width:2;stroke-linecap:round;stroke-linejoin:round;}
	.st5{fill:#1D132D;}
	.st6{fill:url(#SVGID_1_);}
	.st7{fill:url(#SVGID_2_);}
	.st8{opacity:0.3;fill:#180621;enable-background:new    ;}
	.st9{fill:url(#SVGID_3_);}
	.st10{fill:url(#SVGID_4_);}
	.st11{fill:url(#SVGID_5_);}
	.st12{opacity:0.6;fill:#FFFFFF;enable-background:new    ;}
	.st13{fill:#D8EB2D;}
	.st14{opacity:0.5;fill:#B1B523;enable-background:new    ;}
	.st15{fill:#F8FF66;}
	.st16{fill:#FFFFAE;}
	.st17{fill:url(#SVGID_6_);}
	.st18{fill:url(#SVGID_7_);}
	.st19{fill:#375772;}
	.st20{fill:#607F93;}
	.st21{fill:#D8EB2D;stroke:#1D132D;stroke-width:2;stroke-linecap:round;stroke-linejoin:round;}
</style>
<title>fancy01</title>
<g>
	<path class="st0" d="M41.8,140.4l24.6-8.7c2.2-0.8,4.7,0.4,5.5,2.6c0,0,0,0,0,0l0,0c0.8,2.2-0.4,4.7-2.6,5.5c0,0,0,0,0,0l-26.5,9.4
		c-0.7,0.3-1.5,0.3-2.2,0.2"/>
	<path class="st1" d="M41.8,140.4l24.6-8.7c2.2-0.8,4.7,0.4,5.5,2.6c0,0,0,0,0,0l0,0c0.8,2.2-0.4,4.7-2.6,5.5c0,0,0,0,0,0l-26.5,9.4
		c-0.7,0.3-1.5,0.3-2.2,0.2"/>
	<path class="st2" d="M12.7,109.4c-16.5,20.7-13,50.9,7.7,67.4c0,0-0.7-27.5,17.1-55c-3.4-3.2-7.2-5.9-11.3-8.1
		C22,111.5,17.4,110,12.7,109.4z"/>
	<path class="st3" d="M2.9,146.6c-3-24.6,8.1-32.6,8.5-32.4c8.3,5.1,10.9,15.9,5.8,24.2c-3.1,5-8.4,8.1-14.2,8.4"/>
	<path class="st3" d="M2.9,146.6c-0.1-0.8-0.2-1.7-0.3-2.5C2.7,144.9,2.8,145.7,2.9,146.6z"/>
	<path class="st3" d="M7.2,118.7c3.3,2.1,5.7,5.3,6.8,9c0.9,3.2,5.6,2.4,5.5-0.6l0,0c-0.6-5.3-3.6-10.1-8.2-12.9
		c-0.2-0.1-2.5,1.4-4.7,5.3L7.2,118.7z"/>
	<path class="st3" d="M5.1,122.9l0.4-1L5.1,122.9z"/>
	<path class="st3" d="M5.7,121.6l0.4-0.8L5.7,121.6z"/>
	<path class="st3" d="M6.2,120.5l0.4-0.8L6.2,120.5z"/>
	<path class="st3" d="M18.2,136.4l-0.2,0.5L18.2,136.4z"/>
	<path class="st3" d="M18.8,134.8l-0.2,0.7L18.8,134.8z"/>
	<path class="st3" d="M19.6,127.1c0.1,1.3,0.1,2.6,0,3.9C19.7,129.7,19.7,128.4,19.6,127.1z"/>
	<path class="st3" d="M19.3,133.2l-0.2,0.8L19.3,133.2z"/>
	<path class="st3" d="M19.6,131.6l-0.2,0.9L19.6,131.6z"/>
	<path class="st3" d="M2.4,136.5c0-0.5,0-1,0.1-1.5S2.5,136,2.4,136.5z"/>
	<path class="st3" d="M2.4,138.6c0-0.5,0-0.9,0-1.4S2.4,138.2,2.4,138.6z"/>
	<path class="st3" d="M2.6,134.6c0.1-0.7,0.1-1.3,0.2-1.9C2.7,133.3,2.6,133.9,2.6,134.6z"/>
	<path class="st3" d="M2.5,140.9c0-0.5,0-0.9,0-1.4S2.4,140.4,2.5,140.9z"/>
	<path class="st3" d="M2.6,143.3c0-0.5-0.1-1.1-0.1-1.6S2.6,142.8,2.6,143.3z"/>
	<path class="st3" d="M3.4,128.6l0.2-1L3.4,128.6z"/>
	<path class="st3" d="M3.7,127.1l0.3-1L3.7,127.1z"/>
	<path class="st3" d="M2.8,132.3l0.2-1.4L2.8,132.3z"/>
	<path class="st3" d="M4.1,125.7c0.3-0.9,0.6-1.8,0.9-2.6C4.7,123.8,4.4,124.7,4.1,125.7z"/>
	<path class="st3" d="M3.1,130.3l0.2-1.1L3.1,130.3z"/>
	<path class="st0" d="M2.7,140c-1.8-15.3,4.8-21,5.1-20.8c5.2,3.4,6.9,10.4,3.8,15.8c-1.9,3.1-5.2,5-8.8,5.2"/>
	<path class="st3" d="M12.8,132.2c1.3-5-0.7-10.2-5-13c-0.2-0.1-3.1,2.3-4.6,8.4C5.5,130.6,9.1,132.3,12.8,132.2z"/>
	<path class="st0" d="M35.4,126.1l9.9,16.8c1.2,2,0.5,4.6-1.5,5.8l0,0c-2,1.2-4.6,0.5-5.8-1.5l-7.1-12.1"/>
	<path class="st4" d="M12.7,109.4c-16.5,20.7-13,50.9,7.7,67.4c0,0-0.7-27.5,17.1-55c-3.4-3.2-7.2-5.9-11.3-8.1
		C22,111.5,17.4,110,12.7,109.4z"/>
	<path class="st4" d="M7.1,118.7l1.2,0.6c5.5,3.3,7.2,10.5,3.9,15.9c-2.1,3.4-5.8,5.5-9.9,5.6"/>
	<path class="st4" d="M10.3,113.6l1.1,0.7c8.2,5.2,10.7,16,5.6,24.3c-3,4.9-8.3,7.9-14,8.2"/>
	<path class="st4" d="M35.4,126.1l9.9,16.8c1.2,2,0.5,4.6-1.5,5.8l0,0c-2,1.2-4.6,0.5-5.8-1.5l-7.1-12.1"/>
	<path class="st4" d="M43.6,139.8l22.8-8.1c2.2-0.8,4.7,0.4,5.5,2.6c0,0,0,0,0,0l0,0c0.8,2.2-0.4,4.7-2.6,5.5c0,0,0,0,0,0l-26.5,9.4
		c-0.7,0.3-1.5,0.3-2.2,0.2"/>
	
		<ellipse transform="matrix(0.5255 -0.8508 0.8508 0.5255 -103.6939 103.8856)" class="st5" cx="41.3" cy="144.9" rx="1.3" ry="1.3"/>
	<path class="st0" d="M198.2,140.4l-24.6-8.7c-2.2-0.8-4.7,0.4-5.5,2.6c0,0,0,0,0,0l0,0c-0.8,2.2,0.4,4.7,2.6,5.5c0,0,0,0,0,0
		l26.5,9.4c0.7,0.3,1.5,0.3,2.2,0.2"/>
	<path class="st1" d="M198.2,140.4l-24.6-8.7c-2.2-0.8-4.7,0.4-5.5,2.6c0,0,0,0,0,0l0,0c-0.8,2.2,0.4,4.7,2.6,5.5c0,0,0,0,0,0
		l26.5,9.4c0.7,0.3,1.5,0.3,2.2,0.2"/>
	<path class="st2" d="M227.3,109.4c16.5,20.7,13,50.9-7.7,67.4c0,0,0.7-27.5-17.1-55c3.4-3.2,7.2-5.9,11.3-8.1
		C218,111.5,222.6,110,227.3,109.4z"/>
	<path class="st3" d="M237.1,146.6c3-24.6-8.1-32.6-8.5-32.4c-8.2,5.2-10.7,16-5.6,24.3c3,4.9,8.3,7.9,14,8.2"/>
	<path class="st3" d="M237.1,146.6c0.1-0.8,0.2-1.7,0.3-2.5C237.3,144.9,237.2,145.7,237.1,146.6z"/>
	<path class="st3" d="M232.8,118.7c-3.3,2.1-5.7,5.3-6.8,9c-0.9,3.2-5.6,2.4-5.5-0.6l0,0c0.6-5.3,3.6-10.1,8.2-12.9
		c0.2-0.1,2.5,1.4,4.7,5.3L232.8,118.7z"/>
	<path class="st3" d="M234.9,122.9l-0.4-1L234.9,122.9z"/>
	<path class="st3" d="M234.3,121.6l-0.4-0.8L234.3,121.6z"/>
	<path class="st3" d="M233.8,120.5l-0.4-0.8L233.8,120.5z"/>
	<path class="st3" d="M221.8,136.4l0.2,0.5L221.8,136.4z"/>
	<path class="st3" d="M221.2,134.8l0.2,0.7L221.2,134.8z"/>
	<path class="st3" d="M220.4,127.1c-0.1,1.3-0.1,2.6,0,3.9C220.3,129.7,220.3,128.4,220.4,127.1z"/>
	<path class="st3" d="M220.7,133.2l0.2,0.8L220.7,133.2z"/>
	<path class="st3" d="M220.4,131.6l0.2,0.9L220.4,131.6z"/>
	<path class="st3" d="M237.6,136.5c0-0.5,0-1-0.1-1.5S237.5,136,237.6,136.5z"/>
	<path class="st3" d="M237.6,138.6c0-0.5,0-0.9,0-1.4S237.6,138.2,237.6,138.6z"/>
	<path class="st3" d="M237.4,134.6c-0.1-0.7-0.1-1.3-0.2-1.9C237.3,133.3,237.4,133.9,237.4,134.6z"/>
	<path class="st3" d="M237.5,140.9c0-0.5,0-0.9,0-1.4S237.6,140.4,237.5,140.9z"/>
	<path class="st3" d="M237.4,143.3c0-0.5,0.1-1.1,0.1-1.6S237.4,142.8,237.4,143.3z"/>
	<path class="st3" d="M236.6,128.6l-0.2-1L236.6,128.6z"/>
	<path class="st3" d="M236.3,127.1l-0.3-1L236.3,127.1z"/>
	<path class="st3" d="M237.2,132.3l-0.2-1.4L237.2,132.3z"/>
	<path class="st3" d="M235.9,125.7c-0.3-0.9-0.6-1.8-0.9-2.6C235.3,123.8,235.6,124.7,235.9,125.7z"/>
	<path class="st3" d="M236.9,130.3l-0.2-1.1L236.9,130.3z"/>
	<path class="st0" d="M237.3,140c1.8-15.3-4.8-21-5.1-20.8c-5.2,3.4-6.9,10.4-3.8,15.8c1.9,3.1,5.2,5,8.8,5.2"/>
	<path class="st3" d="M227.2,132.2c-1.3-5,0.7-10.2,5-13c0.2-0.1,3.1,2.3,4.6,8.4C234.5,130.6,230.9,132.3,227.2,132.2z"/>
	<path class="st0" d="M204.6,126.1l-9.9,16.8c-1.2,2-0.5,4.6,1.5,5.8l0,0c2,1.2,4.6,0.5,5.8-1.5l7.1-12.1"/>
	<path class="st4" d="M227.3,109.4c16.5,20.7,13,50.9-7.7,67.4c0,0,0.7-27.5-17.1-55c3.4-3.2,7.2-5.9,11.3-8.1
		C218,111.5,222.6,110,227.3,109.4z"/>
	<path class="st4" d="M232.9,118.7l-1.2,0.6c-5.5,3.3-7.2,10.5-3.9,15.9c2.1,3.4,5.8,5.5,9.9,5.6"/>
	<path class="st4" d="M229.7,113.6l-1.1,0.7c-8.2,5.2-10.7,16-5.6,24.3c3,4.9,8.3,7.9,14,8.2"/>
	<path class="st4" d="M204.6,126.1l-9.9,16.8c-1.2,2-0.5,4.6,1.5,5.8l0,0c2,1.2,4.6,0.5,5.8-1.5l7.1-12.1"/>
	<path class="st4" d="M196.4,139.8l-22.8-8.1c-2.2-0.8-4.7,0.4-5.5,2.6c0,0,0,0,0,0l0,0c-0.8,2.2,0.4,4.7,2.6,5.5c0,0,0,0,0,0
		l26.5,9.4c0.7,0.3,1.5,0.3,2.2,0.2"/>
	<ellipse transform="matrix(0.8508 -0.5255 0.5255 0.8508 -46.5349 126.0378)" class="st5" cx="198.7" cy="145" rx="1.3" ry="1.3"/>
	<path class="st0" d="M114.9,170h8.9c4,0,7.2,3.2,7.2,7.2v0.1c0,4-3.2,7.2-7.2,7.2h-8.9c-4,0-7.2-3.2-7.2-7.2v-0.1
		C107.7,173.2,110.9,170,114.9,170z"/>
	<path class="st1" d="M114.9,170h8.9c4,0,7.2,3.2,7.2,7.2v0.1c0,4-3.2,7.2-7.2,7.2h-8.9c-4,0-7.2-3.2-7.2-7.2v-0.1
		C107.7,173.2,110.9,170,114.9,170z"/>
	<path class="st1" d="M114.9,170h8.9c4,0,7.2,3.2,7.2,7.2v0.1c0,4-3.2,7.2-7.2,7.2h-8.9c-4,0-7.2-3.2-7.2-7.2v-0.1
		C107.7,173.2,110.9,170,114.9,170z"/>
	
		<linearGradient id="SVGID_1_" gradientUnits="userSpaceOnUse" x1="119.8" y1="83" x2="119.8" y2="191.8" gradientTransform="matrix(1 0 0 -1 0 242)">
		<stop  offset="0.44" style="stop-color:#D8EB2D"/>
		<stop  offset="0.76" style="stop-color:#EAF64D"/>
		<stop  offset="0.98" style="stop-color:#F8FF66"/>
	</linearGradient>
	<path class="st6" d="M156.8,159l22.8-1.4l0.4-47.2c-0.1-33.2-27-60.1-60.2-60.2l0,0c-33.2,0.1-60.1,27-60.2,60.2l0.4,47.2l23.9,1"
		/>
	
		<linearGradient id="SVGID_2_" gradientUnits="userSpaceOnUse" x1="119.8" y1="191.8" x2="119.8" y2="82.46" gradientTransform="matrix(1 0 0 -1 0 242)">
		<stop  offset="0" style="stop-color:#FFFCEB"/>
		<stop  offset="1" style="stop-color:#FBFEA5"/>
	</linearGradient>
	<path class="st7" d="M119.8,50.2L119.8,50.2c-33.2,0.1-60.1,27-60.2,60.2l0.4,42.2l23.9,6l66.4,0.8l29.3-1.9l0.4-47.2
		C179.8,77.1,153,50.3,119.8,50.2z M170.8,150.2l-20.6,5.2h-61l-20.4-5.1L68.4,110c0.1-28.4,23-51.3,51.4-51.4l0,0
		c28.4,0.1,51.3,23,51.4,51.4L170.8,150.2z"/>
	<circle class="st3" cx="161.9" cy="93.6" r="4.4"/>
	<polygon class="st0" points="182.9,159.7 151,176.3 88.7,176.3 56.3,159.7 56.3,132.6 182.9,132.6 	"/>
	<polygon class="st8" points="182.9,159.7 151,176.3 88.7,176.3 56.3,159.7 56.3,132.6 182.9,132.6 	"/>
	<polygon class="st4" points="182.9,159.7 151,176.3 88.7,176.3 56.3,159.7 56.3,132.6 182.9,132.6 	"/>
	<polygon class="st0" points="182.7,159.3 149.6,159.3 88.6,159.3 56.1,159.3 56.1,132.3 182.7,132.3 	"/>
	<polygon class="st1" points="88.7,159.3 80.1,159.3 64.5,159.3 56.1,159.3 56.1,132.3 88.7,132.3 	"/>
	<polygon class="st1" points="183,159.3 174.5,159.3 158.8,159.3 150.5,159.3 150.5,132.3 183,132.3 	"/>
	
		<linearGradient id="SVGID_3_" gradientUnits="userSpaceOnUse" x1="119.4" y1="109.75" x2="119.4" y2="82.65" gradientTransform="matrix(1 0 0 -1 0 242)">
		<stop  offset="2.000000e-02" style="stop-color:#DCE3EA"/>
		<stop  offset="0.13" style="stop-color:#DCE3EA;stop-opacity:0.98"/>
		<stop  offset="0.25" style="stop-color:#DCE3EA;stop-opacity:0.92"/>
		<stop  offset="0.39" style="stop-color:#DCE3EA;stop-opacity:0.82"/>
		<stop  offset="0.54" style="stop-color:#DCE3EA;stop-opacity:0.67"/>
		<stop  offset="0.69" style="stop-color:#DCE3EA;stop-opacity:0.49"/>
		<stop  offset="0.84" style="stop-color:#DCE3EA;stop-opacity:0.26"/>
		<stop  offset="1" style="stop-color:#DCE3EA;stop-opacity:0"/>
		<stop  offset="1" style="stop-color:#DCE3EA;stop-opacity:0"/>
	</linearGradient>
	<rect x="88.3" y="132.3" class="st9" width="62.2" height="27.1"/>
	
		<linearGradient id="SVGID_4_" gradientUnits="userSpaceOnUse" x1="-610.04" y1="216.55" x2="-594.54" y2="216.55" gradientTransform="matrix(-1 0 0 -1 -402.82 242)">
		<stop  offset="2.000000e-02" style="stop-color:#BDBAD9"/>
		<stop  offset="1" style="stop-color:#9AB3D1"/>
	</linearGradient>
	<path class="st10" d="M202.1,33.1l5.2-5.2c0,0-1.1-2.5-4.9-6s-6.2-4.1-6.2-4.1l-4.4,5.3"/>
	<path class="st0" d="M202.1,33.1l5.2-5.2c0,0-1.1-2.5-4.9-6s-6.2-4.1-6.2-4.1l-4.4,5.3"/>
	<path class="st1" d="M197.8,26.4c2.5,0.6,5.2-0.1,7-2c1,1,1.8,2.2,2.4,3.5l-5.2,5.2l-10.3-10l0.3-0.3
		C193.6,24.5,195.6,25.7,197.8,26.4z"/>
	
		<linearGradient id="SVGID_5_" gradientUnits="userSpaceOnUse" x1="-582.23" y1="175.024" x2="-545.59" y2="175.024" gradientTransform="matrix(-1 0 0 -1 -402.82 242)">
		<stop  offset="2.000000e-02" style="stop-color:#BDBAD9"/>
		<stop  offset="1" style="stop-color:#9AB3D1"/>
	</linearGradient>
	<path class="st11" d="M174.6,84.4c-0.2-0.6-0.5-1.2-0.9-1.7c-5.2-5.7-8.2-12.7-14.3-17.6c-4-3.2-16.6-11-16.6-11
		c0.9-3.4,4.4-5.3,7.7-4.4c0.6,0.2,1.1,0.4,1.7,0.7h0.1c10.7,5.7,19.7,14.2,26.1,24.5v0.2c1.8,3,0.9,6.8-2,8.7
		c-0.5,0.3-1.1,0.6-1.7,0.7h-0.1V84.4z"/>
	<path class="st0" d="M174.6,84.4c-0.2-0.6-0.5-1.2-0.9-1.7c-5.2-5.7-8.2-12.7-14.3-17.6c-4-3.2-16.6-11-16.6-11
		c0.9-3.4,4.4-5.3,7.7-4.4c0.6,0.2,1.1,0.4,1.7,0.7h0.1c10.7,5.7,19.7,14.2,26.1,24.5v0.2c1.8,3,0.9,6.8-2,8.7
		c-0.5,0.3-1.1,0.6-1.7,0.7h-0.1V84.4z"/>
	<path class="st12" d="M143.2,54.3l-0.4-0.3c0.9-3.4,4.4-5.3,7.7-4.4c0.6,0.2,1.1,0.4,1.7,0.7h0.1c1.9,1.1,3.8,2.2,5.6,3.4
		c-1,0.2-2,0.5-2.9,1C151.3,56.6,146.8,56.5,143.2,54.3z"/>
	<path class="st1" d="M174.4,73.5c0.8-0.4,1.5-1.1,1.8-1.9l2.2,3.4v0.2c1.8,3,0.9,6.8-2,8.7c-0.5,0.3-1.1,0.6-1.7,0.7h-0.1
		c-0.2-0.6-0.5-1.2-0.9-1.7c-2.9-3.3-5.2-6.9-7.7-10.4C168.7,74,171.5,74.9,174.4,73.5z"/>
	<path class="st13" d="M151.3,50.5l-1-0.9l28.3-33.8c0,0,6.6,1.6,17.7,11.8s13.9,17.1,13.9,17.1L179,76l-1.3-1.2
		C172.8,63.5,162.6,55,151.3,50.5z"/>
	<path class="st13" d="M151.3,50.5l-1-0.9l28.3-33.8c0,0,6.6,1.6,17.7,11.8s13.9,17.1,13.9,17.1L179,76l-1.3-1.2
		C172.8,63.5,162.6,55,151.3,50.5z"/>
	<path class="st14" d="M203.9,36.4c-0.4-0.9-0.9-1.7-1.4-2.5c5.9,6.6,7.7,10.9,7.7,10.9L179,76l-1.3-1.2c-1.2-2.7-10.6-15.9-23.4-23
		c-1.8-1-0.9-1.1,2.4-0.1c2.7,0.8,5.3,1.8,7.8,3.1c8.4,4.2,18.6,2.5,25.2-4.2L203.9,36.4z"/>
	<path class="st4" d="M142.8,54.1c0.9-3.4,4.4-5.3,7.7-4.4c0.6,0.2,1.1,0.4,1.7,0.7h0.1c10.7,5.7,19.7,14.2,26.1,24.5v0.2
		c1.8,3,0.9,6.8-2,8.7c-0.5,0.3-1.1,0.6-1.7,0.7"/>
	<path class="st15" d="M168.2,43.8L168.2,43.8c4.1,3.6,10.2,3.1,13.8-0.9l9.4-9.8c0.9-0.9-3.3-3.8-7.4-7.4l0,0
		c-4.1-3.6-7.3-4.7-8.2-4.7l-8.6,9C163.7,34.1,164.1,40.3,168.2,43.8z"/>
	<path class="st4" d="M179,76l31.2-31.3c0,0-3-7.2-13.9-17.1s-17.7-11.8-17.7-11.8l-28.3,33.8"/>
	<path class="st0" d="M205.6,49.4c0,0-3-7.2-13.9-17.1c-9.2-8.4-15.3-10.9-17.1-11.6l4.1-4.9c0,0,6.6,1.6,17.7,11.8
		s13.9,17.1,13.9,17.1L205.6,49.4z"/>
	<path class="st1" d="M195.9,35.9c2.6,1.7,7,2.7,9.3,1.1c2,2.4,3.7,4.9,5.1,7.7l-4.7,4.7c0,0-2.6-6.1-11.4-14.8L195.9,35.9z"/>
	<path class="st4" d="M205.6,49.4c0,0-3-7.2-13.9-17.1c-9.2-8.4-15.3-10.9-17.1-11.6l4.1-4.9c0,0,6.6,1.6,17.7,11.8
		s13.9,17.1,13.9,17.1L205.6,49.4z"/>
	<path class="st4" d="M202.1,33.1l5.2-5.2c0,0-1.1-2.5-4.9-6s-6.2-4.1-6.2-4.1l-4.4,5.3"/>
	<circle class="st15" cx="178.8" cy="50.9" r="4.1"/>
	<circle class="st16" cx="182.7" cy="37.7" r="7.4"/>
	<circle class="st15" cx="167.2" cy="50.2" r="2.3"/>
	
		<linearGradient id="SVGID_6_" gradientUnits="userSpaceOnUse" x1="32.63" y1="216.55" x2="48.13" y2="216.55" gradientTransform="matrix(1 0 0 -1 0 242)">
		<stop  offset="2.000000e-02" style="stop-color:#BDBAD9"/>
		<stop  offset="1" style="stop-color:#9AB3D1"/>
	</linearGradient>
	<path class="st17" d="M37.8,33.1l-5.2-5.2c0,0,1.1-2.5,4.9-6s6.2-4.1,6.2-4.1l4.4,5.3"/>
	<path class="st0" d="M37.8,33.1l-5.2-5.2c0,0,1.1-2.5,4.9-6s6.2-4.1,6.2-4.1l4.4,5.3"/>
	<path class="st1" d="M42.1,26.4c-2.5,0.6-5.2-0.1-7-2c-1,1-1.8,2.2-2.4,3.5l5.2,5.2l10.3-10l-0.3-0.3
		C46.3,24.5,44.3,25.7,42.1,26.4z"/>
	
		<linearGradient id="SVGID_7_" gradientUnits="userSpaceOnUse" x1="60.44" y1="175.024" x2="97.07" y2="175.024" gradientTransform="matrix(1 0 0 -1 0 242)">
		<stop  offset="2.000000e-02" style="stop-color:#BDBAD9"/>
		<stop  offset="1" style="stop-color:#9AB3D1"/>
	</linearGradient>
	<path class="st18" d="M65.2,84.4c0.2-0.6,0.5-1.2,0.9-1.7C71.3,77,74.3,70,80.4,65.1c4-3.2,16.6-11,16.6-11
		c-0.9-3.4-4.4-5.3-7.7-4.4c-0.6,0.2-1.1,0.4-1.7,0.7h-0.1c-10.7,5.8-19.6,14.2-26,24.5v0.2c-1.8,3-0.9,6.8,2,8.7
		C64.1,84.1,64.6,84.3,65.2,84.4L65.2,84.4L65.2,84.4z"/>
	<path class="st0" d="M65.2,84.4c0.2-0.6,0.5-1.2,0.9-1.7C71.3,77,74.3,70,80.4,65.1c4-3.2,16.6-11,16.6-11
		c-0.9-3.4-4.4-5.3-7.7-4.4c-0.6,0.2-1.1,0.4-1.7,0.7h-0.1c-10.7,5.8-19.6,14.2-26,24.5v0.2c-1.8,3-0.9,6.8,2,8.7
		C64.1,84.1,64.6,84.3,65.2,84.4L65.2,84.4L65.2,84.4z"/>
	<path class="st12" d="M96.6,54.3L97,54c-0.9-3.4-4.4-5.3-7.7-4.4c-0.6,0.2-1.1,0.4-1.7,0.7h-0.1c-1.9,1.1-3.8,2.2-5.6,3.4
		c1,0.2,2,0.5,2.9,1C88.5,56.6,93,56.5,96.6,54.3z"/>
	<path class="st1" d="M65.5,73.5c-0.8-0.4-1.5-1.1-1.8-1.9L61.5,75v0.2c-1.8,3-0.9,6.8,2,8.7c0.5,0.3,1.1,0.6,1.7,0.7h0.1
		c0.2-0.6,0.5-1.2,0.9-1.7c2.9-3.3,5.2-6.9,7.7-10.4C71.2,74,68.3,74.9,65.5,73.5z"/>
	<path class="st13" d="M88.6,50.5l1-0.9L61.3,15.8c0,0-6.6,1.6-17.7,11.8s-14,17.1-14,17.1L60.8,76l1.3-1.2
		C67.1,63.5,77.2,55,88.6,50.5z"/>
	<path class="st13" d="M88.6,50.5l1-0.9L61.3,15.8c0,0-6.6,1.6-17.7,11.8s-14,17.1-14,17.1L60.8,76l1.3-1.2
		C67.1,63.5,77.2,55,88.6,50.5z"/>
	<path class="st14" d="M35.9,36.4c0.4-0.9,0.9-1.7,1.4-2.5c-5.9,6.6-7.7,10.9-7.7,10.9L60.8,76l1.3-1.2c1.2-2.7,10.6-15.9,23.4-23
		c1.8-1,0.9-1.1-2.4-0.1c-2.7,0.8-5.3,1.8-7.8,3.1c-8.4,4.2-18.6,2.5-25.2-4.2L35.9,36.4z"/>
	<path class="st2" d="M106.3,133c0-9.9-7.3-17.8-16.8-19.5c-3-0.6-17.2-0.3-29.5-0.3l0.2,19.1l28.8,1L106.3,133z"/>
	<path class="st19" d="M89.5,113.5c-3.5-0.3-7.1-0.5-10.6-0.4l0,0l3.1,0.2c9.5,1.7,16.8,9.6,16.8,19.5h-0.3l7.8-0.2
		C106.3,123.1,98.9,115.2,89.5,113.5z"/>
	<path class="st20" d="M90.6,117.3c9.3,0,13.5,9.6,14,9.7c-1.6-10.7-11.7-12.8-15.2-13.5s-17.2-0.3-29.5-0.3v4
		C77.6,117.1,86.2,117.3,90.6,117.3z"/>
	<path class="st0" d="M144.7,91.4c-1.9-3.9-9.5-11.4-24.5-12.1l-11.1,1.5c-4.3,0-12.5,6.8-14.4,10.6l-10.4,21.2l0.6,0.7l1.3-0.2
		c5.6,0.4,10.8,2.7,14.7,6.7c0.6,0.6,1.1,1.3,1.6,2c2.5,2.8,4.1,6.3,4.3,10.1c9,0.5,18,0.7,27,0.6c0.1-5.1,2.2-9.9,5.9-13.3
		c0.3-0.9,1-1.6,1.8-2c4.2-2.3,8.6-4.1,13.3-4.2l0,0l0.4-0.4L144.7,91.4z"/>
	<path class="st1" d="M98.1,117.4c1,0.7,1.9,1.5,2.8,2.4c0.6,0.6,1.1,1.3,1.6,2c2.5,2.8,4.1,6.3,4.3,10.1l9.2,0.6
		c0.5,0,0.9,0.2,1.3,0.5h7.4l0.9-0.3l6.1-0.3l2-0.2c0.1-4.9,2.3-9.6,5.9-13c0.3-0.8,0.8-1.5,1.5-1.9
		C127,121.1,112.2,121.1,98.1,117.4z"/>
	<line class="st4" x1="114.7" y1="131.9" x2="114.7" y2="124.2"/>
	<line class="st4" x1="125.1" y1="131.9" x2="125.1" y2="124.2"/>
	<polygon class="st3" points="182.7,131.8 56.1,131.8 56.1,136.6 89.5,136.6 89.5,150.6 92.8,136.6 146.4,136.6 149.6,150.6 
		149.6,136.6 182.7,136.6 	"/>
	<line class="st4" x1="88.7" y1="133.3" x2="88.7" y2="158.3"/>
	<line class="st4" x1="150.6" y1="133.3" x2="150.6" y2="158.3"/>
	<path class="st4" d="M154.8,113l0.4-0.4l-10.5-21.2c-10.1-16.7-40.9-16.7-50,0l-10.4,21.2"/>
	<ellipse transform="matrix(0.4289 -0.9033 0.9033 0.4289 9.7585 165.5165)" class="st12" cx="135.8" cy="75" rx="13.4" ry="21.4"/>
	<path class="st4" d="M94.2,101.1c-0.6,5.8,3.6,11,9.4,11.7c4.4,0.5,8.6-1.8,10.6-5.8L94.2,101.1z"/>
	<path class="st4" d="M144.7,101.1c0.6,5.8-3.6,11-9.4,11.7c-4.4,0.5-8.6-1.8-10.6-5.8L144.7,101.1z"/>
	<path class="st21" d="M94.2,101.1c-0.6,5.8,3.6,11,9.4,11.7c4.4,0.5,8.6-1.8,10.6-5.8L94.2,101.1z"/>
	<path class="st21" d="M144.7,101.1c0.6,5.8-3.6,11-9.4,11.7c-4.4,0.5-8.6-1.8-10.6-5.8L144.7,101.1z"/>
	<path class="st4" d="M97.1,54.1c-0.9-3.4-4.4-5.3-7.7-4.4c-0.6,0.2-1.1,0.4-1.7,0.7h-0.2c-10.7,5.8-19.6,14.2-26,24.5v0.2
		c-1.8,3-0.9,6.8,2,8.7c0.5,0.3,1.1,0.6,1.7,0.7"/>
	<path class="st15" d="M71.7,43.8L71.7,43.8c-4.1,3.6-10.2,3.1-13.8-0.9L48.4,33c-0.9-0.9,3.3-3.8,7.4-7.4l0,0
		c4.1-3.6,7.3-4.7,8.2-4.7l8.6,9C76.2,33.9,75.8,40.1,71.7,43.8C71.7,43.8,71.7,43.8,71.7,43.8z"/>
	<path class="st4" d="M60.8,76L29.6,44.7c0,0,3-7.2,13.9-17.1s17.8-11.8,17.8-11.8l28,33.5"/>
	<path class="st0" d="M34.3,49.4c0,0,3-7.2,13.9-17.1c9.2-8.4,15.3-10.9,17.1-11.6l-4.1-4.9c0,0-6.6,1.6-17.7,11.8
		S29.6,44.7,29.6,44.7L34.3,49.4z"/>
	<path class="st1" d="M44,35.9c-2.6,1.7-7,2.7-9.3,1.1c-2,2.4-3.7,4.9-5.1,7.7l4.7,4.7c0,0,2.6-6.1,11.4-14.8L44,35.9z"/>
	<path class="st4" d="M34.3,49.4c0,0,3-7.2,13.9-17.1c9.2-8.4,15.3-10.9,17.1-11.6l-4.1-4.9c0,0-6.6,1.6-17.7,11.8
		S29.6,44.7,29.6,44.7L34.3,49.4z"/>
	<path class="st4" d="M37.8,33.1l-5.2-5.2c0,0,1.1-2.5,4.9-6s6.2-4.1,6.2-4.1l4.4,5.3"/>
	<circle class="st15" cx="61" cy="50.9" r="4.1"/>
	<circle class="st16" cx="57.1" cy="37.7" r="7.4"/>
	<circle class="st15" cx="72.7" cy="50.2" r="2.3"/>
	<path class="st4" d="M98.1,132.3c-0.1-10.5-8.7-19-19.2-19.1"/>
	<path class="st0" d="M123,181l-6.7-0.7l-21,13.8c1.6,18.4,25,17.2,25,17.2c15.9,0,24.8-15.3,24.8-15.3L123,181z"/>
	<path class="st1" d="M136,190.8h-34.2l-6.5,4c1.6,17.6,25,16.4,25,16.4c15.9,0,24.8-14.6,24.8-14.6L136,190.8z"/>
	<path class="st0" d="M69.8,188.6l15-5.3c1.7-0.6,3.5,0.3,4.1,2l0.8,2.2c0.6,1.7-0.3,3.5-2,4.1l-15,5.3c-1.7,0.6-3.5-0.3-4.1-2
		l-0.8-2.2C67.2,191,68.1,189.2,69.8,188.6z"/>
	<path class="st1" d="M69.8,188.6l15-5.3c1.7-0.6,3.5,0.3,4.1,2l0.8,2.2c0.6,1.7-0.3,3.5-2,4.1l-15,5.3c-1.7,0.6-3.5-0.3-4.1-2
		l-0.8-2.2C67.2,191,68.1,189.2,69.8,188.6z"/>
	<path class="st0" d="M60.6,183.6l12.6,6.6c1.6,0.8,2.2,2.8,1.3,4.3l-0.8,1.5c-0.8,1.6-2.8,2.2-4.3,1.3l-12.6-6.6
		c-1.6-0.8-2.2-2.8-1.3-4.3l0.8-1.5C57.1,183.4,59,182.8,60.6,183.6z"/>
	<path class="st0" d="M166.6,196.6l-14.7-6c-1.6-0.7-2.4-2.5-1.8-4.2l0.9-2.2c0.7-1.6,2.5-2.4,4.2-1.8l14.7,6
		c1.6,0.7,2.4,2.5,1.8,4.2l-0.9,2.2C170.1,196.5,168.3,197.3,166.6,196.6z"/>
	<path class="st1" d="M166.6,196.6l-14.7-6c-1.6-0.7-2.4-2.5-1.8-4.2l0.9-2.2c0.7-1.6,2.5-2.4,4.2-1.8l14.7,6
		c1.6,0.7,2.4,2.5,1.8,4.2l-0.9,2.2C170.1,196.5,168.3,197.3,166.6,196.6z"/>
	<path class="st0" d="M182.9,191.4l-12.9,6c-1.6,0.7-3.5,0-4.2-1.6l-0.7-1.5c-0.7-1.6,0-3.5,1.6-4.2l12.9-6c1.6-0.7,3.5,0,4.2,1.6
		l0.7,1.5C185.2,188.7,184.5,190.6,182.9,191.4z"/>
	<path class="st2" d="M2.6,213.6c23.8-0.7,46.2-11,62.2-28.6h0.1c0,0-1.8-4-9.4-9.5s-12.6-6.6-12.6-6.6s-4.5,3.8-17.2,17
		C9,203.2,2.6,213.6,2.6,213.6z"/>
	<path class="st2" d="M78.8,226.1c21.8-9.6,28.3-28.8,36.6-49.2c0.3-0.8-17.7-6.6-29.1-1.3c-0.4,0.2-3.4,8-5.9,14.2
		C71.5,212.3,78.8,226.1,78.8,226.1z"/>
	<path class="st2" d="M236.9,213.6c-23.8-0.7-46.2-11-62.2-28.6h-0.1c0,0,1.8-4,9.4-9.5s12.6-6.6,12.6-6.6s4.5,3.8,17.2,17
		C230.5,203.2,236.9,213.6,236.9,213.6z"/>
	<path class="st2" d="M160.7,226.1c-21.8-9.6-28.3-28.8-36.6-49.2c-0.3-0.8,17.7-6.6,29.1-1.3c0.4,0.2,3.4,8,5.9,14.2
		C168,212.3,160.7,226.1,160.7,226.1z"/>
	<path class="st20" d="M31.1,203c-5.1,0.8-11.3,1.3-15.7-1.9c-0.7-0.5-1.3-1.1-1.9-1.8c-4,4.5-7.6,9.3-10.9,14.3
		c16.9-0.5,33.4-5.9,47.3-15.6C43.8,200.3,37.5,202,31.1,203z"/>
	<path class="st20" d="M76.9,201.9c-2.8,15.2,1.9,24.2,1.9,24.2c12.7-5.6,20.2-14.4,25.9-24.9C94.4,208.8,82.5,213.8,76.9,201.9z"/>
	<path class="st20" d="M208.6,203c5.1,0.8,11.3,1.3,15.7-1.9c0.7-0.5,1.3-1.1,1.9-1.8c4,4.5,7.6,9.3,10.9,14.3
		c-16.9-0.5-33.4-5.9-47.3-15.6C195.9,200.3,202.2,202,208.6,203z"/>
	<path class="st20" d="M162.8,201.9c2.8,15.2-1.9,24.2-1.9,24.2c-12.7-5.6-20.2-14.4-25.9-24.9C145.3,208.8,157.2,213.8,162.8,201.9
		z"/>
	<ellipse transform="matrix(0.4787 -0.878 0.878 0.4787 -118.3392 182.7686)" class="st0" cx="94.7" cy="191" rx="10.6" ry="9.2"/>
	<path class="st0" d="M202.8,175.6c-4.7,4.2-5.1,11.4-0.9,16.1s11.4,5.1,16.1,0.9c0.3-0.3,0.6-0.5,0.8-0.8"/>
	<ellipse transform="matrix(0.878 -0.4787 0.4787 0.878 -73.5906 92.9029)" class="st0" cx="145.4" cy="190.8" rx="9.2" ry="10.6"/>
	<path class="st0" d="M36.6,174.7c4.7,4,5.2,11,1.3,15.6c-4,4.7-11,5.2-15.6,1.3c-0.4-0.4-0.9-0.8-1.2-1.2"/>
	<path class="st3" d="M39.6,185.1c0.9-3.8-0.2-7.7-3-10.4l-7.8,7.9C31.7,185.3,35.8,186.3,39.6,185.1z"/>
	<path class="st3" d="M91.8,189.8c3.9,2.1,8.9,0.7,12-3.2c-0.6-2.2-2-4-4-5.1c-3.9-2.1-8.9-0.7-12,3.2
		C88.4,186.9,89.8,188.7,91.8,189.8z"/>
	<path class="st3" d="M199.9,186.1c-0.9-3.9,0.3-7.9,3.1-10.7l8,8.1C208.1,186.3,203.8,187.3,199.9,186.1z"/>
	<path class="st3" d="M147.5,189.8c-3.9,2.1-8.9,0.7-12-3.2c0.6-2.2,2-4,4-5.1c3.9-2.1,8.9-0.7,12,3.2
		C150.9,186.9,149.5,188.7,147.5,189.8z"/>
	<path class="st4" d="M64.9,184.8l7.8,4.1c2.4,1.3,3.3,4.2,2,6.6l0,0c-1.3,2.4-4.2,3.3-6.6,2l-10.2-5.4"/>
	<path class="st4" d="M77.6,195.7l-5.4,2c-0.8,0.3-1.7,0.4-2.5,0.3"/>
	<line class="st4" x1="70.8" y1="187.8" x2="82.2" y2="183.5"/>
	<path class="st4" d="M2.6,213.6c23.8-0.7,46.2-11,62.2-28.6h0.1c0,0-1.8-4-9.4-9.5s-12.6-6.6-12.6-6.6s-4.5,3.8-17.2,17
		C9,203.2,2.6,213.6,2.6,213.6z"/>
	<path class="st4" d="M78.5,226.1c21.8-9.6,28.3-28.8,36.6-49.2c0.3-0.8-17.7-6.6-29.1-1.3c-0.4,0.2-3.4,8-5.9,14.2
		C71.2,212.3,78.5,226.1,78.5,226.1z"/>
	<path class="st4" d="M36.3,175.3c4.9,3.9,5.7,11.1,1.8,16s-11.1,5.7-16,1.8c-0.6-0.4-1.1-0.9-1.5-1.5"/>
	
		<ellipse transform="matrix(0.4787 -0.878 0.878 0.4787 -118.6546 182.3154)" class="st4" cx="94.2" cy="191.1" rx="10.6" ry="9.2"/>
	<path class="st4" d="M174.4,184.9l-7.5,4c-2.4,1.3-3.3,4.2-2,6.6l0,0c1.3,2.4,4.2,3.3,6.6,2l10.1-5.3"/>
	<path class="st4" d="M161.9,195.7l5.5,2.1c0.8,0.3,1.7,0.4,2.5,0.3"/>
	<line class="st4" x1="168.7" y1="187.8" x2="156.8" y2="183.3"/>
	<path class="st4" d="M236.9,213.6c-23.8-0.7-46.2-11-62.2-28.6h-0.1c0,0,1.8-4,9.4-9.5s12.6-6.6,12.6-6.6s4.5,3.8,17.2,17
		C230.5,203.2,236.9,213.6,236.9,213.6z"/>
	<path class="st4" d="M161,226.1c-21.8-9.6-28.3-28.8-36.6-49.2c-0.3-0.8,17.7-6.6,29.1-1.3c0.4,0.2,3.4,8,5.9,14.2
		C168.3,212.3,161,226.1,161,226.1z"/>
	<path class="st4" d="M202.8,175.6c-4.7,4.2-5.1,11.4-0.9,16.1s11.4,5.1,16.1,0.9c0.3-0.3,0.6-0.5,0.8-0.8"/>
	<ellipse transform="matrix(0.878 -0.4787 0.4787 0.878 -73.5763 92.8545)" class="st4" cx="145.4" cy="190.8" rx="9.2" ry="10.6"/>
	<line class="st4" x1="114.4" y1="180.2" x2="125.3" y2="180.2"/>
	<path class="st4" d="M137.7,207.2c-11.3,5.5-24.6,5.5-35.9,0"/>
	<line class="st4" x1="109.5" y1="190.9" x2="129.8" y2="190.8"/>
	<circle class="st5" cx="169.4" cy="193.1" r="1.5"/>
	<circle class="st5" cx="70.2" cy="193.1" r="1.5"/>
	<path class="st4" d="M59.7,113.2h26.9c10.7,0,19.5,8.3,19.5,19"/>
	<path class="st2" d="M133.4,133c0-9.9,7.3-17.8,16.8-19.5c3-0.6,17.2-0.3,29.5-0.3l-0.2,19.1l-28.8,1.1L133.4,133z"/>
	<path class="st19" d="M150.1,113.5c3.5-0.3,7.1-0.5,10.6-0.4l0,0l-3.1,0.2c-9.5,1.7-16.8,9.6-16.8,19.5h0.3l-7.8-0.2
		C133.4,123.1,140.7,115.2,150.1,113.5z"/>
	<path class="st20" d="M149,117.3c-9.2,0-13.5,9.6-14,9.7c1.6-10.7,11.7-12.8,15.2-13.5s17.2-0.3,29.5-0.3v4
		C162,117.1,153.4,117.3,149,117.3z"/>
	<path class="st4" d="M141.5,132.3c0.1-10.5,8.7-19,19.2-19.1"/>
	<path class="st4" d="M179.9,113.2H153c-10.7,0-19.5,8.3-19.5,19"/>
	<rect x="56.1" y="132.2" class="st4" width="126.6" height="27.1"/>
	<path class="st4" d="M179.6,131.7l0.4-21.3c-0.1-33.2-27-60.1-60.2-60.2l0,0c-33.2,0.1-60.1,27-60.2,60.2l0.4,21.4"/>
</g>
</svg>
