<svg xmlns="http://www.w3.org/2000/svg" viewBox="0 0 240 240"><title>01</title><path d="M87.6,143.7l21.9-8.2a3.9,3.9,0,0,1,5,2.3h0a3.9,3.9,0,0,1-2.3,5l-23.6,8.8a3.8,3.8,0,0,1-1.9.2" style="fill:#dce3ea"/><path d="M87.6,143.7l21.9-8.2a3.9,3.9,0,0,1,5,2.3h0a3.9,3.9,0,0,1-2.3,5l-23.6,8.8a3.8,3.8,0,0,1-1.9.2" style="fill:#180621;opacity:0.15"/><path d="M48.4,134.4a43,43,0,0,0,37.7,47.7s-13.5-20.6-12.9-50a47.3,47.3,0,0,0-12.4-.9A35.1,35.1,0,0,0,48.4,134.4Z" style="fill:#2e4159"/><path d="M58.5,167.3c-13.8-17.3-9.1-28.7-8.7-28.7a15.8,15.8,0,0,1,8.9,28.8" style="fill:#fff;opacity:0.5"/><path d="M58.5,167.3l-1.4-1.8Z" style="fill:#fff;opacity:0.5"/><path d="M48.7,144a14.3,14.3,0,0,1,9.4,3.6c2.2,2,5.4-.8,3.9-3h0a15.7,15.7,0,0,0-12.3-6c-.2,0-1.2,2.3-1.1,6.3C48.7,144.6,48.7,144.3,48.7,144Z" style="fill:#fff;opacity:0.5"/><path d="M49,148.2v0Z" style="fill:#fff;opacity:0.5"/><path d="M48.8,147v0Z" style="fill:#fff;opacity:0.5"/><path d="M48.7,145.9v0Z" style="fill:#fff;opacity:0.5"/><path d="M65.4,152.4v0Z" style="fill:#fff;opacity:0.5"/><path d="M65.1,150.8v0Z" style="fill:#fff;opacity:0.5"/><path d="M62.1,144.6a15.9,15.9,0,0,1,1.9,3A15.8,15.8,0,0,0,62.1,144.6Z" style="fill:#fff;opacity:0.5"/><path d="M64.7,149.4l.2.7Z" style="fill:#fff;opacity:0.5"/><path d="M64.2,148l.3.8Z" style="fill:#fff;opacity:0.5"/><path d="M53.4,159.9l-.6-1.1Z" style="fill:#fff;opacity:0.5"/><path d="M54.4,161.5l-.6-1Z" style="fill:#fff;opacity:0.5"/><path d="M52.6,158.3l-.7-1.5Z" style="fill:#fff;opacity:0.5"/><path d="M55.5,163.2l-.7-1.1Z" style="fill:#fff;opacity:0.5"/><path d="M56.7,165l-.8-1.2Z" style="fill:#fff;opacity:0.5"/><path d="M50.4,153.4l-.3-.9Z" style="fill:#fff;opacity:0.5"/><path d="M50,152.1l-.3-.9Z" style="fill:#fff;opacity:0.5"/><path d="M51.7,156.5l-.5-1.2Z" style="fill:#fff;opacity:0.5"/><path d="M49.6,150.8q-.3-1.3-.5-2.4C49.2,149.1,49.4,149.9,49.6,150.8Z" style="fill:#fff;opacity:0.5"/><path d="M51,154.9l-.4-.9Z" style="fill:#fff;opacity:0.5"/><path d="M55.3,162.4c-8.6-10.8-6.2-18.3-6-18.3a10.6,10.6,0,0,1,10.3,10.2,9.8,9.8,0,0,1-4.3,8.1" style="fill:#dce3ea"/><path d="M59.3,151.7a10.7,10.7,0,0,0-9.9-7.6c-.2,0-1.3,3.2.5,8.5a10.6,10.6,0,0,0,9.5-1Z" style="fill:#fff;opacity:0.5"/><path d="M73.6,136.4l15.5,8.2a3.8,3.8,0,0,1,1.6,5.2h0a3.8,3.8,0,0,1-5.2,1.6l-11.2-5.9" style="fill:#dce3ea"/><path d="M48.4,134.4a43,43,0,0,0,37.7,47.7s-13.5-20.6-12.9-50a47.3,47.3,0,0,0-12.4-.9A35.1,35.1,0,0,0,48.4,134.4Z" style="fill:none;stroke:#1d132d;stroke-linecap:round;stroke-linejoin:round;stroke-width:2px"/><path d="M48.6,144.1h1.2a10.4,10.4,0,0,1,5.5,19.2" style="fill:none;stroke:#1d132d;stroke-linecap:round;stroke-linejoin:round;stroke-width:2px"/><path d="M48.6,138.7h1.2a15.8,15.8,0,0,1,8.9,28.8" style="fill:none;stroke:#1d132d;stroke-linecap:round;stroke-linejoin:round;stroke-width:2px"/><path d="M73.6,136.4l15.5,8.2a3.8,3.8,0,0,1,1.6,5.2h0a3.8,3.8,0,0,1-5.2,1.6l-11.2-5.9" style="fill:none;stroke:#1d132d;stroke-linecap:round;stroke-linejoin:round;stroke-width:2px"/><path d="M87.6,143.7l21.9-8.2a3.9,3.9,0,0,1,5,2.3h0a3.9,3.9,0,0,1-2.3,5l-23.6,8.8a3.8,3.8,0,0,1-1.9.2" style="fill:none;stroke:#1d132d;stroke-linecap:round;stroke-linejoin:round;stroke-width:2px"/><path d="M152.3,143.7l-21.9-8.2a3.9,3.9,0,0,0-5,2.3h0a3.9,3.9,0,0,0,2.3,5l23.6,8.8a3.8,3.8,0,0,0,1.9.2" style="fill:#dce3ea"/><path d="M152.3,143.7l-21.9-8.2a3.9,3.9,0,0,0-5,2.3h0a3.9,3.9,0,0,0,2.3,5l23.6,8.8a3.8,3.8,0,0,0,1.9.2" style="fill:#180621;opacity:0.15"/><path d="M191.6,134.4a43,43,0,0,1-37.7,47.7s13.5-20.6,12.9-50a47.3,47.3,0,0,1,12.4-.9A35.1,35.1,0,0,1,191.6,134.4Z" style="fill:#2e4159"/><path d="M181.5,167.3c13.8-17.3,9.1-28.7,8.8-28.7a15.8,15.8,0,0,0-8.9,28.8" style="fill:#fff;opacity:0.5"/><path d="M181.5,167.3l1.4-1.8Z" style="fill:#fff;opacity:0.5"/><path d="M191.3,144a14.3,14.3,0,0,0-9.4,3.6c-2.2,2-5.4-.8-3.9-3h0a15.7,15.7,0,0,1,12.3-6c.2,0,1.2,2.3,1.1,6.3C191.3,144.6,191.3,144.3,191.3,144Z" style="fill:#fff;opacity:0.5"/><path d="M191,148.2v0Z" style="fill:#fff;opacity:0.5"/><path d="M191.1,147v0Z" style="fill:#fff;opacity:0.5"/><path d="M191.2,145.9v0Z" style="fill:#fff;opacity:0.5"/><path d="M174.6,152.4v0Z" style="fill:#fff;opacity:0.5"/><path d="M174.9,150.8v0Z" style="fill:#fff;opacity:0.5"/><path d="M177.9,144.6a15.9,15.9,0,0,0-1.9,3A15.8,15.8,0,0,1,177.9,144.6Z" style="fill:#fff;opacity:0.5"/><path d="M175.3,149.4l-.2.7Z" style="fill:#fff;opacity:0.5"/><path d="M175.8,148l-.3.8Z" style="fill:#fff;opacity:0.5"/><path d="M186.6,159.9l.6-1.1Z" style="fill:#fff;opacity:0.5"/><path d="M185.6,161.5l.6-1Z" style="fill:#fff;opacity:0.5"/><path d="M187.4,158.3l.7-1.5Z" style="fill:#fff;opacity:0.5"/><path d="M184.5,163.2l.7-1.1Z" style="fill:#fff;opacity:0.5"/><path d="M183.3,165l.8-1.2Z" style="fill:#fff;opacity:0.5"/><path d="M189.6,153.4l.3-.9Z" style="fill:#fff;opacity:0.5"/><path d="M190,152.1l.3-.9Z" style="fill:#fff;opacity:0.5"/><path d="M188.3,156.5l.5-1.2Z" style="fill:#fff;opacity:0.5"/><path d="M190.4,150.8q.3-1.3.5-2.4C190.8,149.1,190.6,149.9,190.4,150.8Z" style="fill:#fff;opacity:0.5"/><path d="M189,154.9l.4-.9Z" style="fill:#fff;opacity:0.5"/><path d="M184.7,162.4c8.6-10.8,6.2-18.3,6-18.3a10.6,10.6,0,0,0-10.3,10.2,9.8,9.8,0,0,0,4.3,8.1" style="fill:#dce3ea"/><path d="M180.3,151.7a10.7,10.7,0,0,1,9.9-7.6c.2,0,1.3,3.2-.5,8.5a10.6,10.6,0,0,1-9.5-1Z" style="fill:#fff;opacity:0.5"/><path d="M166.4,136.4l-15.5,8.2a3.8,3.8,0,0,0-1.6,5.2h0a3.8,3.8,0,0,0,5.2,1.6l11.2-5.9" style="fill:#dce3ea"/><path d="M191.6,134.4a43,43,0,0,1-37.7,47.7s13.5-20.6,12.9-50a47.3,47.3,0,0,1,12.4-.9A35.1,35.1,0,0,1,191.6,134.4Z" style="fill:none;stroke:#1d132d;stroke-linecap:round;stroke-linejoin:round;stroke-width:2px"/><path d="M191.4,144.1h-1.2a10.4,10.4,0,0,0-5.5,19.2" style="fill:none;stroke:#1d132d;stroke-linecap:round;stroke-linejoin:round;stroke-width:2px"/><path d="M191.4,138.7h-1.2a15.8,15.8,0,0,0-8.9,28.8" style="fill:none;stroke:#1d132d;stroke-linecap:round;stroke-linejoin:round;stroke-width:2px"/><path d="M166.4,136.4l-15.5,8.2a3.8,3.8,0,0,0-1.6,5.2h0a3.8,3.8,0,0,0,5.2,1.6l11.2-5.9" style="fill:none;stroke:#1d132d;stroke-linecap:round;stroke-linejoin:round;stroke-width:2px"/><path d="M152.3,143.7l-21.9-8.2a3.9,3.9,0,0,0-5,2.3h0a3.9,3.9,0,0,0,2.3,5l23.6,8.8a3.8,3.8,0,0,0,1.9.2" style="fill:none;stroke:#1d132d;stroke-linecap:round;stroke-linejoin:round;stroke-width:2px"/><circle cx="87" cy="148" r="1.2" style="fill:#1d132d"/><circle cx="152.8" cy="148" r="1.2" style="fill:#1d132d"/></svg>