<svg xmlns="http://www.w3.org/2000/svg" viewBox="0 0 240 240"><title>atribute</title><path d="M75.1,142.8a13.3,13.3,0,0,0,.2-3.2l-2.3.6H72.9l-0.2.3a16.5,16.5,0,0,1-1,2.6,2.6,2.6,0,0,1-1.4,1.5,0.6,0.6,0,0,0-.5.3,0.7,0.7,0,0,0,.1.5c0.3,0.7.6,2.4,1.2,2.8s1.2-.4,1.6-0.7A8.9,8.9,0,0,0,75.1,142.8Z" style="fill:#d9e3ea"/><polyline points="80.7 160.3 94.4 147.1 98.6 154.2 80.7 171.5" style="fill:#d9e3ea"/><line x1="98.6" y1="154.2" x2="80.7" y2="171.5" style="fill:none;stroke:#1a0b2a;stroke-linecap:round;stroke-linejoin:round;stroke-width:2px"/><line x1="94.4" y1="147.1" x2="80.7" y2="160.3" style="fill:none;stroke:#1a0b2a;stroke-linecap:round;stroke-linejoin:round;stroke-width:2px"/><path d="M83.6,157.5l-2.9,2.8v11.2l3.9-3.7Q84.1,162.6,83.6,157.5Z" style="fill:#15011c;opacity:0.150000005960464;isolation:isolate"/><path d="M77.7,179.3a13.2,13.2,0,0,0,3.3-4.9V156.2c-4.7,0-8.6-4.6-9.9-10.9l-0.2-1c-0.9-4.6-3.6-7.4-8-7.5H52.6l11.7,45.3,11.1-2.1Z" style="fill:#1d3f59"/><path d="M77.3,179.4h0.4a13.2,13.2,0,0,0,3.3-4.9V156.2c-4.7,0-8.6-4.6-9.9-10.9l-0.2-1c-0.9-4.6-3.6-7.4-8-7.5H52.6l0.8,3.3h5.7c4.4,0.1,7,2.9,8,7.5l0.2,1c1.3,6.3,5.4,10.4,9.9,10.9v19.9Z" style="fill:#fff;opacity:0.200000002980232;isolation:isolate"/><path d="M65.2,164.4l0.3-.2a0.6,0.6,0,0,0,.1-0.4l0.7-8.6a43.8,43.8,0,0,1-8,1.1c0.3,1.7-.4,3.3-1.2,4.9l-1.6,3.2a28.9,28.9,0,0,1-1.9,2.5C57.4,166.9,61.6,165.5,65.2,164.4Z" style="fill:#d9e3ea"/><path d="M60.1,152.4l4.1-.8a43.7,43.7,0,0,1,8.5-1.5,18.9,18.9,0,0,1-1.6-4.7l-0.2-1c-0.9-4.6-3.6-7.4-8-7.5H52.6l4,15.7Z" style="fill:#d9e3ea"/><path d="M47.8,136.9h7.8a2.4,2.4,0,0,1,2.4,2.4v18.2a10.8,10.8,0,0,1-10.8,10.8H41.6" style="fill:#d9e3ea"/><path d="M58.5,146.7h6.2a4,4,0,0,1,3.7,4.3,4.2,4.2,0,0,1-3.9,4.1l-6.2,1.1" style="fill:#d9e3ea"/><path d="M58.5,152.9v3.3l6.2-1.1a4.2,4.2,0,0,0,3.9-4.1,5.1,5.1,0,0,0-.2-1.6C67.4,152.6,64.6,152.2,58.5,152.9Z" style="fill:#15011c;opacity:0.150000005960464;isolation:isolate"/><path d="M80.7,156.4v16.9c0,2.6-.6,4.3-2.8,5.4l-13.2,3.4" style="fill:none;stroke:#1a0b2a;stroke-linecap:round;stroke-linejoin:round;stroke-width:2px"/><polygon points="52.2 136.4 37.4 136.4 38.4 131.1 51.2 131.1 52.2 136.4" style="fill:#d9e3ea"/><path d="M46.3,131.1H38.4l-1,5.3h9.8A31.5,31.5,0,0,1,46.3,131.1Z" style="fill:#15011c;opacity:0.150000005960464;isolation:isolate"/><path d="M93.9,156l1.4,1.4,3.3-3.2-4.2-7.1-2.9,2.8A12.8,12.8,0,0,0,93.9,156Z" style="fill:#15011c;opacity:0.150000005960464;isolation:isolate"/><path d="M109.8,136.7l-16.9,3.6a23,23,0,0,0,6.5,14.5" style="fill:#1d3f59"/><path d="M92.9,140.4c0.7,4.6,2.9,11,6.5,14.5l3.9-6.8C102.3,147.9,93.6,141.3,92.9,140.4Z" style="fill:#15011c;opacity:0.2;isolation:isolate"/><path d="M109.8,136.7l-16.9,3.6a23,23,0,0,0,6.5,14.5" style="fill:none;stroke:#1d132d;stroke-linecap:round;stroke-linejoin:round;stroke-width:2px"/><path d="M33.2,136.9H50a2.4,2.4,0,0,1,2.4,2.4v18.2a10.8,10.8,0,0,1-10.8,10.8h0a10.8,10.8,0,0,1-10.8-10.8V139.3a2.4,2.4,0,0,1,2.4-2.4Z" style="fill:#d9e3ea"/><path d="M33.2,136.9H50a2.4,2.4,0,0,1,2.4,2.4v18.2a10.8,10.8,0,0,1-10.8,10.8h0a10.8,10.8,0,0,1-10.8-10.8V139.3a2.4,2.4,0,0,1,2.4-2.4Z" style="fill:#15011c;opacity:0.150000005960464;isolation:isolate"/><path d="M66.2,164.7v15.2a2.4,2.4,0,0,1-2.4,2.4H54a2.4,2.4,0,0,1-2.4-2.4V167.5" style="fill:#1d3f59"/><path d="M66.2,164.7v15.2a2.4,2.4,0,0,1-2.4,2.4H54a2.4,2.4,0,0,1-2.4-2.4V167.5" style="fill:#15011c;opacity:0.2;isolation:isolate"/><path d="M33.2,136.9H50a2.4,2.4,0,0,1,2.4,2.4v18.2a10.8,10.8,0,0,1-10.8,10.8h0a10.8,10.8,0,0,1-10.8-10.8V139.3a2.4,2.4,0,0,1,2.4-2.4Z" style="fill:none;stroke:#1a0b2a;stroke-linecap:round;stroke-linejoin:round;stroke-width:2px"/><path d="M47.8,136.9h7.8a2.4,2.4,0,0,1,2.4,2.4v18.2a10.8,10.8,0,0,1-10.8,10.8H41.6" style="fill:none;stroke:#1a0b2a;stroke-linecap:round;stroke-linejoin:round;stroke-width:2px"/><path d="M66.2,164.7v15.2a2.4,2.4,0,0,1-2.4,2.4H54a2.4,2.4,0,0,1-2.4-2.4V167.5" style="fill:none;stroke:#1a0b2a;stroke-linecap:round;stroke-linejoin:round;stroke-width:2px"/><path d="M49.5,152.1a10.3,10.3,0,0,1-10.8,9.7H38.5a10.7,10.7,0,0,1-9.3-11.6A10.3,10.3,0,0,1,40,140.4h0.2C45.8,140.9,50,146.1,49.5,152.1Z" style="fill:#d9e3ea"/><path d="M49.5,152.1a10.3,10.3,0,0,1-10.8,9.7H38.5a10.7,10.7,0,0,1-9.3-11.6A10.3,10.3,0,0,1,40,140.4h0.2C45.8,140.9,50,146.1,49.5,152.1Z" style="fill:none;stroke:#1a0b2a;stroke-linecap:round;stroke-linejoin:round;stroke-width:2px"/><path d="M45.3,151.6a5,5,0,0,1-5.2,4.7H40a5.2,5.2,0,0,1-4.5-5.6,5,5,0,0,1,5.2-4.7h0.1A5.1,5.1,0,0,1,45.3,151.6Z" style="fill:#d9e3ea"/><path d="M44.6,151.6a5.3,5.3,0,0,1-5.5,5H38.9a5.5,5.5,0,0,1-4.8-6,5.3,5.3,0,0,1,5.5-5h0.1A5.5,5.5,0,0,1,44.6,151.6Z" style="fill:#15011c;opacity:0.150000005960464;isolation:isolate"/><path d="M44.9,151.6a5.5,5.5,0,0,1-5.8,5.3H38.9a5.8,5.8,0,0,1-5-6.3,5.5,5.5,0,0,1,5.8-5.3h0.1A5.7,5.7,0,0,1,44.9,151.6Z" style="fill:none;stroke:#1a0b2a;stroke-linecap:round;stroke-linejoin:round;stroke-width:2px"/><path d="M44.5,151.4a3.1,3.1,0,0,1-3.2,2.9H41.2a3.2,3.2,0,0,1-2.8-3.5,3.1,3.1,0,0,1,3.2-2.9h0.1A3.2,3.2,0,0,1,44.5,151.4Z" style="fill:#ff3721"/><path d="M44.8,151.4a3.2,3.2,0,0,1-3.4,3.1H41.3a3.4,3.4,0,0,1-2.9-3.7,3.2,3.2,0,0,1,3.4-3.1h0.1A3.3,3.3,0,0,1,44.8,151.4Z" style="fill:none;stroke:#1a0b2a;stroke-linecap:round;stroke-linejoin:round;stroke-width:2px"/><polygon points="47.2 136.4 37.4 136.4 38.4 131.1 46.2 131.1 47.2 136.4" style="fill:none;stroke:#1a0b2a;stroke-linecap:round;stroke-linejoin:round;stroke-width:2px"/><polyline points="46.2 131.1 52 131.1 53 136.4 47.2 136.4" style="fill:none;stroke:#1a0b2a;stroke-linecap:round;stroke-linejoin:round;stroke-width:2px"/><line x1="50.7" y1="167.7" x2="65.4" y2="163.9" style="fill:none;stroke:#1a0b2a;stroke-linecap:round;stroke-linejoin:round;stroke-width:2px"/><line x1="68.5" y1="150.4" x2="72.1" y2="149.9" style="fill:none;stroke:#1a0b2a;stroke-linecap:round;stroke-linejoin:round;stroke-width:2px"/><line x1="66.2" y1="155.7" x2="66.2" y2="164.7" style="fill:none;stroke:#1a0b2a;stroke-linecap:round;stroke-linejoin:round;stroke-width:2px"/><path d="M58.5,146.7h0.1a4.7,4.7,0,0,1,4.2,5.2,4.6,4.6,0,0,1-4.4,4.3" style="fill:#ff3721"/><path d="M58.5,146.7h6.2a4,4,0,0,1,3.7,4.3,4.2,4.2,0,0,1-3.9,4.1l-6.2,1.1" style="fill:none;stroke:#1a0b2a;stroke-linecap:round;stroke-linejoin:round;stroke-width:2px"/><path d="M58.5,146.7h0.1a4.7,4.7,0,0,1,4.2,5.2,4.6,4.6,0,0,1-4.4,4.3" style="fill:none;stroke:#1a0b2a;stroke-linecap:round;stroke-linejoin:round;stroke-width:2px"/><path d="M76.7,153.7c2.4-3.6,2.6-8.8-.6-13.4H76a11.2,11.2,0,0,1-4.6,9.5" style="fill:#d9e3ea"/><path d="M75.3,153.3c2.4-3.6,4-8.3.8-12.9H76a11.2,11.2,0,0,1-3.7,8.7" style="fill:#15011c;opacity:0.150000005960464;isolation:isolate"/><path d="M75.8,153.3c2.1-2.4,3.6-8.8.6-13.6h0a11.2,11.2,0,0,1-4.1,8.7" style="fill:none;stroke:#1a0b2a;stroke-linecap:round;stroke-linejoin:round;stroke-width:2px"/><path d="M72.6,139.7a11.1,11.1,0,0,1-2,3.6" style="fill:none;stroke:#1a0b2a;stroke-linecap:round;stroke-linejoin:round;stroke-width:2px"/><path d="M52.6,136.9H62.9c4.4,0.1,7,2.9,8,7.5l0.2,1c1.3,6.1,5,10.6,9.6,10.8" style="fill:none;stroke:#1a0b2a;stroke-linecap:round;stroke-linejoin:round;stroke-width:2px"/><line x1="72.7" y1="139.6" x2="76.3" y2="139.6" style="fill:none;stroke:#1a0b2a;stroke-linecap:round;stroke-linejoin:round;stroke-width:2px"/><path d="M164.3,142.8a13.3,13.3,0,0,1-.2-3.2l2.3,0.6h0.2l0.2,0.3a16.5,16.5,0,0,0,1,2.6,2.6,2.6,0,0,0,1.4,1.5,0.6,0.6,0,0,1,.5.3,0.7,0.7,0,0,1-.1.5c-0.3.7-.6,2.4-1.2,2.8s-1.2-.4-1.6-0.7A8.9,8.9,0,0,1,164.3,142.8Z" style="fill:#d9e3ea"/><polyline points="158.8 160.3 145 147.1 140.9 154.2 158.8 171.5" style="fill:#d9e3ea"/><line x1="140.9" y1="154.2" x2="158.8" y2="171.5" style="fill:none;stroke:#1a0b2a;stroke-linecap:round;stroke-linejoin:round;stroke-width:2px"/><line x1="145" y1="147.1" x2="158.8" y2="160.3" style="fill:none;stroke:#1a0b2a;stroke-linecap:round;stroke-linejoin:round;stroke-width:2px"/><path d="M155.9,157.5l2.9,2.8v11.2l-3.9-3.7Q155.4,162.6,155.9,157.5Z" style="fill:#15011c;opacity:0.150000005960464;isolation:isolate"/><path d="M161.8,179.3a13.2,13.2,0,0,1-3.3-4.9V156.2c4.7,0,8.6-4.6,9.9-10.9l0.2-1c0.9-4.6,3.6-7.4,8-7.5h10.3l-11.7,45.3L164,180.1Z" style="fill:#1d3f59"/><path d="M162.2,179.4h-0.4a13.2,13.2,0,0,1-3.3-4.9V156.2c4.7,0,8.6-4.6,9.9-10.9l0.2-1c0.9-4.6,3.6-7.4,8-7.5h10.3l-0.8,3.3h-5.7c-4.4.1-7,2.9-8,7.5l-0.2,1c-1.3,6.3-5.4,10.4-9.9,10.9v19.9Z" style="fill:#fff;opacity:0.200000002980232;isolation:isolate"/><path d="M174.2,164.4l-0.3-.2a0.6,0.6,0,0,1-.1-0.4l-0.7-8.6a43.8,43.8,0,0,0,8,1.1c-0.3,1.7.4,3.3,1.2,4.9l1.6,3.2a28.9,28.9,0,0,0,1.9,2.5C182,166.9,177.9,165.5,174.2,164.4Z" style="fill:#d9e3ea"/><path d="M179.3,152.4l-4.1-.8a43.7,43.7,0,0,0-8.5-1.5,18.9,18.9,0,0,0,1.6-4.7l0.2-1c0.9-4.6,3.6-7.4,8-7.5h10.3l-4,15.7Z" style="fill:#d9e3ea"/><path d="M191.7,136.9h-7.8a2.4,2.4,0,0,0-2.4,2.4v18.2a10.8,10.8,0,0,0,10.8,10.8h5.6" style="fill:#d9e3ea"/><path d="M180.9,146.7h-6.2A4,4,0,0,0,171,151a4.2,4.2,0,0,0,3.9,4.1l6.2,1.1" style="fill:#d9e3ea"/><path d="M181,152.9v3.3l-6.2-1.1A4.2,4.2,0,0,1,171,151a5.1,5.1,0,0,1,.2-1.6C172,152.6,174.9,152.2,181,152.9Z" style="fill:#15011c;opacity:0.150000005960464;isolation:isolate"/><path d="M158.7,156.4v16.9c0,2.6.6,4.3,2.8,5.4l13.2,3.4" style="fill:none;stroke:#1a0b2a;stroke-linecap:round;stroke-linejoin:round;stroke-width:2px"/><polygon points="187.3 136.4 202 136.4 201 131.1 188.3 131.1 187.3 136.4" style="fill:#d9e3ea"/><path d="M193.1,131.1H201l1,5.3h-9.8A31.5,31.5,0,0,0,193.1,131.1Z" style="fill:#15011c;opacity:0.150000005960464;isolation:isolate"/><path d="M145.6,156l-1.4,1.4-3.3-3.2,4.2-7.1,2.9,2.8A12.8,12.8,0,0,1,145.6,156Z" style="fill:#15011c;opacity:0.150000005960464;isolation:isolate"/><path d="M129.7,136.7l16.9,3.6a23,23,0,0,1-6.5,14.5" style="fill:#1d3f59"/><path d="M146.5,140.4c-0.7,4.6-2.9,11-6.5,14.5l-3.9-6.8C137.1,147.9,145.8,141.3,146.5,140.4Z" style="fill:#15011c;opacity:0.2;isolation:isolate"/><path d="M129.7,136.7l16.9,3.6a23,23,0,0,1-6.5,14.5" style="fill:none;stroke:#1d132d;stroke-linecap:round;stroke-linejoin:round;stroke-width:2px"/><path d="M197.9,136.9h0a10.8,10.8,0,0,1,10.8,10.8v18.2a2.4,2.4,0,0,1-2.4,2.4H189.5a2.4,2.4,0,0,1-2.4-2.4V147.7A10.8,10.8,0,0,1,197.9,136.9Z" transform="translate(395.8 305.1) rotate(-180)" style="fill:#d9e3ea"/><path d="M197.9,136.9h0a10.8,10.8,0,0,1,10.8,10.8v18.2a2.4,2.4,0,0,1-2.4,2.4H189.5a2.4,2.4,0,0,1-2.4-2.4V147.7A10.8,10.8,0,0,1,197.9,136.9Z" transform="translate(395.8 305.1) rotate(-180)" style="fill:#15011c;opacity:0.150000005960464;isolation:isolate"/><path d="M173.2,164.7v15.2a2.4,2.4,0,0,0,2.4,2.4h9.8a2.4,2.4,0,0,0,2.4-2.4V167.5" style="fill:#1d3f59"/><path d="M173.2,164.7v15.2a2.4,2.4,0,0,0,2.4,2.4h9.8a2.4,2.4,0,0,0,2.4-2.4V167.5" style="fill:#15011c;opacity:0.2;isolation:isolate"/><path d="M197.9,136.9h0a10.8,10.8,0,0,1,10.8,10.8v18.2a2.4,2.4,0,0,1-2.4,2.4H189.5a2.4,2.4,0,0,1-2.4-2.4V147.7A10.8,10.8,0,0,1,197.9,136.9Z" transform="translate(395.8 305.1) rotate(-180)" style="fill:none;stroke:#1a0b2a;stroke-linecap:round;stroke-linejoin:round;stroke-width:2px"/><path d="M191.7,136.9h-7.8a2.4,2.4,0,0,0-2.4,2.4v18.2a10.8,10.8,0,0,0,10.8,10.8h5.6" style="fill:none;stroke:#1a0b2a;stroke-linecap:round;stroke-linejoin:round;stroke-width:2px"/><path d="M173.2,164.7v15.2a2.4,2.4,0,0,0,2.4,2.4h9.8a2.4,2.4,0,0,0,2.4-2.4V167.5" style="fill:none;stroke:#1a0b2a;stroke-linecap:round;stroke-linejoin:round;stroke-width:2px"/><path d="M189.9,152.1a10.3,10.3,0,0,0,10.8,9.7h0.2a10.7,10.7,0,0,0,9.3-11.6,10.3,10.3,0,0,0-10.8-9.7h-0.2C193.6,140.9,189.5,146.1,189.9,152.1Z" style="fill:#d9e3ea"/><path d="M189.9,152.1a10.3,10.3,0,0,0,10.8,9.7h0.2a10.7,10.7,0,0,0,9.3-11.6,10.3,10.3,0,0,0-10.8-9.7h-0.2C193.6,140.9,189.5,146.1,189.9,152.1Z" style="fill:none;stroke:#1a0b2a;stroke-linecap:round;stroke-linejoin:round;stroke-width:2px"/><path d="M194.2,151.6a5,5,0,0,0,5.2,4.7h0.1a5.2,5.2,0,0,0,4.5-5.6,5,5,0,0,0-5.2-4.7h-0.1A5.1,5.1,0,0,0,194.2,151.6Z" style="fill:#d9e3ea"/><path d="M194.9,151.6a5.3,5.3,0,0,0,5.5,5h0.1a5.5,5.5,0,0,0,4.8-6,5.3,5.3,0,0,0-5.5-5h-0.1A5.5,5.5,0,0,0,194.9,151.6Z" style="fill:#15011c;opacity:0.150000005960464;isolation:isolate"/><path d="M194.6,151.6a5.5,5.5,0,0,0,5.8,5.3h0.1a5.8,5.8,0,0,0,5-6.3,5.5,5.5,0,0,0-5.8-5.3h-0.1A5.7,5.7,0,0,0,194.6,151.6Z" style="fill:none;stroke:#1a0b2a;stroke-linecap:round;stroke-linejoin:round;stroke-width:2px"/><path d="M194.9,151.4a3.1,3.1,0,0,0,3.2,2.9h0.1a3.2,3.2,0,0,0,2.8-3.5,3.1,3.1,0,0,0-3.2-2.9h-0.1A3.2,3.2,0,0,0,194.9,151.4Z" style="fill:#ff3721"/><path d="M194.7,151.4a3.2,3.2,0,0,0,3.4,3.1h0.1a3.4,3.4,0,0,0,2.9-3.7,3.2,3.2,0,0,0-3.4-3.1h-0.1A3.3,3.3,0,0,0,194.7,151.4Z" style="fill:none;stroke:#1a0b2a;stroke-linecap:round;stroke-linejoin:round;stroke-width:2px"/><polygon points="192.3 136.4 202 136.4 201 131.1 193.3 131.1 192.3 136.4" style="fill:none;stroke:#1a0b2a;stroke-linecap:round;stroke-linejoin:round;stroke-width:2px"/><polyline points="193.3 131.1 187.4 131.1 186.4 136.4 192.3 136.4" style="fill:none;stroke:#1a0b2a;stroke-linecap:round;stroke-linejoin:round;stroke-width:2px"/><line x1="188.7" y1="167.7" x2="174.1" y2="163.9" style="fill:none;stroke:#1a0b2a;stroke-linecap:round;stroke-linejoin:round;stroke-width:2px"/><line x1="171" y1="150.4" x2="167.3" y2="149.9" style="fill:none;stroke:#1a0b2a;stroke-linecap:round;stroke-linejoin:round;stroke-width:2px"/><line x1="173.2" y1="155.7" x2="173.2" y2="164.7" style="fill:none;stroke:#1a0b2a;stroke-linecap:round;stroke-linejoin:round;stroke-width:2px"/><path d="M180.9,146.7h-0.1a4.7,4.7,0,0,0-4.2,5.2,4.6,4.6,0,0,0,4.4,4.3" style="fill:#ff3721"/><path d="M180.9,146.7h-6.2A4,4,0,0,0,171,151a4.2,4.2,0,0,0,3.9,4.1l6.2,1.1" style="fill:none;stroke:#1a0b2a;stroke-linecap:round;stroke-linejoin:round;stroke-width:2px"/><path d="M180.9,146.7h-0.1a4.7,4.7,0,0,0-4.2,5.2,4.6,4.6,0,0,0,4.4,4.3" style="fill:none;stroke:#1a0b2a;stroke-linecap:round;stroke-linejoin:round;stroke-width:2px"/><path d="M162.8,153.7c-2.4-3.6-2.6-8.8.6-13.4h0.1a11.2,11.2,0,0,0,4.6,9.5" style="fill:#d9e3ea"/><path d="M164.1,153.3c-2.4-3.6-4-8.3-.8-12.9h0.1a11.2,11.2,0,0,0,3.7,8.7" style="fill:#15011c;opacity:0.150000005960464;isolation:isolate"/><path d="M163.6,153.3c-2.1-2.4-3.6-8.8-.6-13.6h0a11.2,11.2,0,0,0,4.1,8.7" style="fill:none;stroke:#1a0b2a;stroke-linecap:round;stroke-linejoin:round;stroke-width:2px"/><path d="M166.8,139.7a11.1,11.1,0,0,0,2,3.6" style="fill:none;stroke:#1a0b2a;stroke-linecap:round;stroke-linejoin:round;stroke-width:2px"/><path d="M186.8,136.9H176.5c-4.4.1-7,2.9-8,7.5l-0.2,1c-1.3,6.1-5,10.6-9.6,10.8" style="fill:none;stroke:#1a0b2a;stroke-linecap:round;stroke-linejoin:round;stroke-width:2px"/><line x1="166.8" y1="139.6" x2="163.2" y2="139.6" style="fill:none;stroke:#1a0b2a;stroke-linecap:round;stroke-linejoin:round;stroke-width:2px"/></svg>