<svg xmlns="http://www.w3.org/2000/svg" viewBox="0 0 240 240"><title>02</title><path d="M126.4,33.7a6.5,6.5,0,0,0-11.8-1l-.4,1" style="fill:#2e4159"/><path d="M125.9,18a11.3,11.3,0,0,0-7.2-10.6h0q0,.4,0,.8a11.3,11.3,0,0,1-3.2,7.9h0a5.8,5.8,0,1,0,9.5,6.2h0A11.3,11.3,0,0,0,125.9,18Z" style="fill:#dce3ea"/><circle cx="119.5" cy="21.8" r="4.8" style="fill:#fff;opacity:0.5"/><path d="M126.4,33.7a6.5,6.5,0,0,0-11.8-1l-.4,1Z" style="fill:none;stroke:#1d132d;stroke-linecap:round;stroke-linejoin:round;stroke-width:2px"/><path d="M125.9,18a11.3,11.3,0,0,0-7.2-10.6h0q0,.4,0,.8a11.3,11.3,0,0,1-3.2,7.9h0a5.8,5.8,0,1,0,9.5,6.2h0A11.3,11.3,0,0,0,125.9,18Z" style="fill:none;stroke:#1d132d;stroke-linecap:round;stroke-linejoin:round;stroke-width:2px"/></svg>