<svg xmlns="http://www.w3.org/2000/svg" xmlns:xlink="http://www.w3.org/1999/xlink" viewBox="0 0 240 240">
  <ellipse cx="120.5" cy="233.4" rx="43.7" ry="4.9" style="fill:#180621;opacity:0.15"/>
  <g>
    <title>03</title>
    <path d="M129.9,192.6c3.9,1.1,6.4,2.9,6.4,4.8s-7.3,6.1-16.3,6.1-16.3-2.7-16.3-6.1,2.5-3.7,6.5-4.8" style="fill:#36c8e3"/>
    <ellipse cx="120" cy="229.8" rx="4.1" ry="2.6" style="fill:#36c8e3"/>
    <ellipse cx="120" cy="221.2" rx="7.2" ry="3.2" style="fill:#36c8e3"/>
    <path d="M118.9,206.3H120c6.2,0,11.3,2,11.3,4.5s-5.1,4.5-11.3,4.5-11.3-2-11.3-4.5,4.5-4.3,10.2-4.5" style="fill:#36c8e3"/>
    <path d="M125.8,192.5c2.3.7,3.7,1.7,3.7,2.8s-4.3,3.6-9.6,3.6-9.6-1.6-9.6-3.6,1.5-2.2,3.8-2.8" style="fill:#180621;opacity:0.25"/>
    <path d="M124.5,206.2c1.8.5,2.9,1.4,2.9,2.3s-3.3,2.9-7.4,2.9-7.4-1.3-7.4-2.9,1.1-1.8,2.9-2.3" style="fill:#180621;opacity:0.25"/>
    <path d="M122.9,217.8c1.1.4,1.8.9,1.8,1.5s-2.1,1.9-4.7,1.9-4.7-.9-4.7-1.9.7-1.2,1.9-1.5" style="fill:#180621;opacity:0.25"/>
    <path d="M121.3,227.1a1.3,1.3,0,0,1,.8,1.1c0,.7-1,1.3-2.2,1.3s-2.2-.6-2.2-1.3a1.3,1.3,0,0,1,.9-1.1" style="fill:#180621;opacity:0.25"/>
    <path d="M137.2,180.3H102.8v7.4c0,3.2,7.7,5.8,17.2,5.8s17.2-2.6,17.2-5.8Z" style="fill:#2e4159"/>
    <path d="M129.9,192.6c3.9,1.1,6.4,2.9,6.4,4.8s-7.3,6.1-16.3,6.1-16.3-2.7-16.3-6.1,2.5-3.7,6.5-4.8" style="fill:none;stroke:#1d132d;stroke-linecap:round;stroke-linejoin:round;stroke-width:2px"/>
    <path d="M118.9,206.3H120c6.2,0,11.3,2,11.3,4.5s-5.1,4.5-11.3,4.5-11.3-2-11.3-4.5,4.5-4.3,10.2-4.5" style="fill:none;stroke:#1d132d;stroke-linecap:round;stroke-linejoin:round;stroke-width:2px"/>
    <ellipse cx="120" cy="221.2" rx="7.2" ry="3.2" style="fill:none;stroke:#1d132d;stroke-linecap:round;stroke-linejoin:round;stroke-width:2px"/>
    <ellipse cx="120" cy="229.8" rx="4.1" ry="2.6" style="fill:none;stroke:#1d132d;stroke-linecap:round;stroke-linejoin:round;stroke-width:2px"/>
    <path d="M137.2,180.3H102.8v7.4c0,3.2,7.7,5.8,17.2,5.8s17.2-2.6,17.2-5.8Z" style="fill:none;stroke:#1d132d;stroke-miterlimit:10;stroke-width:2px"/>
  </g>
  <g>
    <title>05</title>
    <path d="M162.8,187.8l23.1-9.5.2-.4a13.2,13.2,0,0,0-.8-8.2c-2.7-6.3-9.6-9.5-15.4-7l-9,3.7Z" style="fill:#dce3ea"/>
    <g style="opacity:0.15">
      <path d="M171.4,178.2c-.5-1.1-.8-3.5-1.8-4.3a4.8,4.8,0,0,0-5.4-.3c-4.2,3.1-.2,8.3.6,12.1a2.8,2.8,0,0,1,0,1.3l11.1-4.5A7.8,7.8,0,0,1,171.4,178.2Z" style="fill:#180621"/>
    </g>
    <path d="M170,162.8l-7.3,2.9c5.8-2.3,12.5.9,15.1,7.2a13.2,13.2,0,0,1,.7,8.3l-.2.4,7.4-2.9.2-.4a13.2,13.2,0,0,0-.7-8.3C182.6,163.5,175.8,160.3,170,162.8Z" style="fill:#fff;opacity:0.5"/>
    <path d="M163.2,187.5a3.7,3.7,0,0,1-3.8-.7,13.3,13.3,0,0,1-3.4-4.9c-2.5-6.4.3-13.5,6.2-15.9s12.9.9,15.4,7.3a13.3,13.3,0,0,1,.9,5.7,3.7,3.7,0,1,1-7.4-.5,5.9,5.9,0,0,0-.4-2.5c-1-2.6-3.6-4-5.8-3.2s-3.1,3.7-2.1,6.3a5.8,5.8,0,0,0,1.5,2.2,3.7,3.7,0,0,1-1.1,6.2Z" style="fill:#dce3ea"/>
    <path d="M103.4,153.3c-6.9.7-17.1,7.3-20.7,13.3a8.3,8.3,0,0,1-2.6,2.7l-12.9-7a8.3,8.3,0,0,1,1.2-4.2c5.8-9.8,19-18.7,30.6-20.9a70.2,70.2,0,0,1,11.7-1Z" style="fill:#dce3ea"/>
    <path d="M109.2,136.2l-5.8,12.8c-11,1.8-21.2,9.9-25.6,17.4l-.9,1.2,3.3,1.8a8.3,8.3,0,0,0,2.6-2.7c3.6-6,13.8-12.6,20.7-13.3l7.2-17.1Z" style="fill:#180621;opacity:0.15"/>
    <path d="M88.9,140.8a7.4,7.4,0,0,1-12.1,8.5" style="fill:#2e4159"/>
    <path d="M86.1,146.6a4.2,4.2,0,0,0,3.9-2.7,6.4,6.4,0,0,0-1-3.1l-6.1,4.3A4.2,4.2,0,0,0,86.1,146.6Z" style="fill:#fff;opacity:0.5"/>
    <path d="M67.2,162.3a8.3,8.3,0,0,1,1.2-4.2c5.8-9.8,19-18.7,30.6-20.9a70.2,70.2,0,0,1,11.7-1" style="fill:none;stroke:#1d132d;stroke-miterlimit:10;stroke-width:2px"/>
    <path d="M103.4,153.3c-6.9.7-15.9,7.5-20.7,13.3a12.7,12.7,0,0,1-2.6,2.7" style="fill:none;stroke:#1d132d;stroke-miterlimit:10;stroke-width:2px"/>
    <path d="M88.9,140.8a7.4,7.4,0,0,1-12.1,8.5" style="fill:none;stroke:#1d132d;stroke-linecap:round;stroke-linejoin:round;stroke-width:2px"/>
    <line x1="87" y1="151.6" x2="90.9" y2="157.8" style="fill:none;stroke:#1d132d;stroke-linecap:round;stroke-linejoin:round;stroke-width:2px"/>
    <path d="M135.7,153.3c6.9.7,17.1,7.3,20.7,13.3a8.3,8.3,0,0,0,2.6,2.7l12.9-7a8.3,8.3,0,0,0-1.2-4.2c-5.8-9.8-19-18.7-30.6-20.9a70.2,70.2,0,0,0-11.7-1Z" style="fill:#dce3ea"/>
    <path d="M158,168.5a15.1,15.1,0,0,1,3.3-2.5c-4.6-7.4-14.6-15.2-25.4-17L130,136.2h-1.5l7.2,17.1c6.9.7,17.1,7.3,20.7,13.3A8.3,8.3,0,0,0,158,168.5Z" style="fill:#180621;opacity:0.15"/>
    <path d="M150.2,140.8a7.4,7.4,0,0,0,12.1,8.5" style="fill:#2e4159"/>
    <path d="M153,146.6a4.2,4.2,0,0,1-3.9-2.7,6.4,6.4,0,0,1,1-3.1l6.1,4.3A4.2,4.2,0,0,1,153,146.6Z" style="fill:#fff;opacity:0.5"/>
    <path d="M171.9,162.3a8.3,8.3,0,0,0-1.2-4.2c-5.8-9.8-19-18.7-30.6-20.9a70.2,70.2,0,0,0-11.7-1" style="fill:none;stroke:#1d132d;stroke-miterlimit:10;stroke-width:2px"/>
    <path d="M135.7,153.3c6.9.7,15.9,7.5,20.7,13.3a7.1,7.1,0,0,0,2,2" style="fill:none;stroke:#1d132d;stroke-miterlimit:10;stroke-width:2px"/>
    <path d="M150.2,140.8a7.4,7.4,0,0,0,12.1,8.5" style="fill:none;stroke:#1d132d;stroke-linecap:round;stroke-linejoin:round;stroke-width:2px"/>
    <line x1="152.2" y1="151.6" x2="148.3" y2="157.8" style="fill:none;stroke:#1d132d;stroke-linecap:round;stroke-linejoin:round;stroke-width:2px"/>
    <line x1="170.4" y1="162.6" x2="162.4" y2="165.9" style="fill:none;stroke:#1d132d;stroke-linecap:round;stroke-linejoin:round;stroke-width:2px"/>
    <line x1="163.1" y1="187.5" x2="183.6" y2="179.4" style="fill:none;stroke:#1d132d;stroke-linecap:round;stroke-linejoin:round;stroke-width:2px"/>
    <line x1="165.8" y1="182.5" x2="168" y2="181.6" style="fill:none;stroke:#1d132d;stroke-linecap:round;stroke-linejoin:round;stroke-width:2px"/>
    <path d="M163.2,187.5a3.7,3.7,0,0,1-3.8-.7,13.3,13.3,0,0,1-3.4-4.9c-2.5-6.4.3-13.5,6.2-15.9s12.9.9,15.4,7.3a13.3,13.3,0,0,1,.9,5.7,3.7,3.7,0,1,1-7.4-.5,5.9,5.9,0,0,0-.4-2.5c-1-2.6-3.6-4-5.8-3.2s-3.1,3.7-2.1,6.3a5.8,5.8,0,0,0,1.5,2.2,3.7,3.7,0,0,1-1.1,6.2Z" style="fill:none;stroke:#1d132d;stroke-linecap:round;stroke-linejoin:round;stroke-width:2px"/>
    <path d="M170.4,162.7c6-2.3,12.8,1.1,15.4,7.5a13.4,13.4,0,0,1,.9,5.7,4.1,4.1,0,0,1-2.8,3.5" style="fill:none;stroke:#1d132d;stroke-linecap:round;stroke-linejoin:round;stroke-width:2px"/>
    <path d="M75.1,187.8l-23.1-9.5-.2-.4a13.2,13.2,0,0,1,.8-8.2c2.7-6.3,9.6-9.5,15.4-7l9,3.7Z" style="fill:#dce3ea"/>
    <g style="opacity:0.15">
      <path d="M66.5,178.2c.5-1.1.8-3.5,1.8-4.3a4.8,4.8,0,0,1,5.4-.3c4.2,3.1.2,8.3-.6,12.1a2.8,2.8,0,0,0,0,1.3l-11.1-4.5A7.8,7.8,0,0,0,66.5,178.2Z" style="fill:#180621"/>
    </g>
    <path d="M67.9,162.8l7.3,2.9c-5.8-2.3-12.5.9-15.1,7.2a13.2,13.2,0,0,0-.7,8.3l.2.4L52,178.5l-.2-.4a13.2,13.2,0,0,1,.7-8.3C55.2,163.5,62.1,160.3,67.9,162.8Z" style="fill:#fff;opacity:0.5"/>
    <path d="M74.7,187.5a3.7,3.7,0,0,0,3.8-.7,13.3,13.3,0,0,0,3.4-4.9c2.5-6.4-.3-13.5-6.2-15.9s-12.9.9-15.4,7.3a13.3,13.3,0,0,0-.9,5.7,3.7,3.7,0,1,0,7.4-.5,5.9,5.9,0,0,1,.4-2.5c1-2.6,3.6-4,5.8-3.2s3.1,3.7,2.1,6.3a5.8,5.8,0,0,1-1.5,2.2,3.7,3.7,0,0,0,1.1,6.2Z" style="fill:#dce3ea"/>
    <line x1="67.5" y1="162.6" x2="75.4" y2="165.9" style="fill:none;stroke:#1d132d;stroke-linecap:round;stroke-linejoin:round;stroke-width:2px"/>
    <line x1="74.8" y1="187.5" x2="54.3" y2="179.4" style="fill:none;stroke:#1d132d;stroke-linecap:round;stroke-linejoin:round;stroke-width:2px"/>
    <line x1="72.1" y1="182.5" x2="69.8" y2="181.6" style="fill:none;stroke:#1d132d;stroke-linecap:round;stroke-linejoin:round;stroke-width:2px"/>
    <path d="M74.7,187.5a3.7,3.7,0,0,0,3.8-.7,13.3,13.3,0,0,0,3.4-4.9c2.5-6.4-.3-13.5-6.2-15.9s-12.9.9-15.4,7.3a13.3,13.3,0,0,0-.9,5.7,3.7,3.7,0,1,0,7.4-.5,5.9,5.9,0,0,1,.4-2.5c1-2.6,3.6-4,5.8-3.2s3.1,3.7,2.1,6.3a5.8,5.8,0,0,1-1.5,2.2,3.7,3.7,0,0,0,1.1,6.2Z" style="fill:none;stroke:#1d132d;stroke-linecap:round;stroke-linejoin:round;stroke-width:2px"/>
    <path d="M67.5,162.7c-6-2.3-12.8,1.1-15.4,7.5a13.4,13.4,0,0,0-.9,5.7,4.1,4.1,0,0,0,2.8,3.5" style="fill:none;stroke:#1d132d;stroke-linecap:round;stroke-linejoin:round;stroke-width:2px"/>
  </g>
  <g>
    <title>atribute04</title>
    <g style="isolation:isolate">
      <path d="M71.8,98.1V69.5H63.1c-2.7,0-4.8,6.4-4.8,14.3s2.2,14.3,4.8,14.3h8.7Z" style="fill:#2e4159"/>
      <g style="opacity:0.15;mix-blend-mode:multiply">
        <path d="M59.6,92.9H59.4c0.9,3.2,2.2,5.2,3.7,5.2h8.7V86.8A16,16,0,0,1,59.6,92.9Z" style="fill:#180621"/>
      </g>
      <path d="M71.8,98.1V69.4H63.2c-2.7,0-4.8,6.4-4.8,14.3s2.2,14.3,4.8,14.3h8.7Z" style="fill:none;stroke:#1d132d;stroke-miterlimit:10;stroke-width:2px"/>
      <path d="M48.5,83.4c0-5-1.6-9-3.6-9.1h0L36.4,73,15.9,78.2h0c-1.1.1-2,2.4-2,5.2s0.9,5.1,2,5.2h0l20.5,5.2,8.6-1.3h0C46.9,92.4,48.5,88.4,48.5,83.4Z" style="fill:#dce3ea"/>
      <path d="M36.4,73L15.9,78.2h0c-1.1.1-3.2,5-2,5.2C30.6,85.9,36.4,73,36.4,73Z" style="fill:#fff;opacity:0.5"/>
      <path d="M48.5,83.4c0-5-1.6-9-3.6-9.1h0L36.4,73,15.9,78.2h0c-1.1.1-2,2.4-2,5.2s0.9,5.1,2,5.2h0l20.5,5.2,8.6-1.3h0C46.9,92.4,48.5,88.4,48.5,83.4Z" style="fill:none;stroke:#1d132d;stroke-linecap:round;stroke-linejoin:round;stroke-width:2px"/>
      <path d="M41.9,77.5c0.6-1.9,1.6-3.1,2.6-3.3" style="fill:none;stroke:#1d132d;stroke-linecap:round;stroke-linejoin:round;stroke-width:2px"/>
      <ellipse cx="45" cy="83.2" rx="3.2" ry="8.9" style="fill:#180621;opacity:0.15"/>
      <path d="M41.2,82q0-.6.1-1.3" style="fill:none;stroke:#1d132d;stroke-linecap:round;stroke-linejoin:round;stroke-width:2px"/>
      <path d="M45.1,92.5H44.8c-1.8,0-3.3-3.1-3.6-7.2" style="fill:none;stroke:#1d132d;stroke-linecap:round;stroke-linejoin:round;stroke-width:2px"/>
      <path d="M37.3,93.6H37c-2.1,0-3.8-3.5-4.2-8.3" style="fill:none;stroke:#1d132d;stroke-linecap:round;stroke-linejoin:round;stroke-width:2px"/>
      <path d="M168.4,98.1V69.5H177c2.7,0,4.8,6.4,4.8,14.3s-2.2,14.3-4.8,14.3h-8.7Z" style="fill:#2e4159"/>
      <g style="opacity:0.15;mix-blend-mode:multiply">
        <path d="M180.6,92.9h0.1c-0.9,3.2-2.2,5.2-3.7,5.2h-8.7V86.8A16,16,0,0,0,180.6,92.9Z" style="fill:#180621"/>
      </g>
      <path d="M168.4,98.1V69.4H177c2.7,0,4.8,6.4,4.8,14.3s-2.2,14.3-4.8,14.3h-8.7Z" style="fill:none;stroke:#1d132d;stroke-miterlimit:10;stroke-width:2px"/>
      <path d="M191.7,83.4c0-5,1.6-9,3.6-9.1h0l8.6-1.3,20.5,5.2h0c1.1,0.1,2,2.4,2,5.2s-0.9,5.1-2,5.2h0l-20.5,5.2-8.6-1.3h0C193.3,92.4,191.7,88.4,191.7,83.4Z" style="fill:#dce3ea"/>
      <path d="M203.8,73l20.5,5.2h0c1.1,0.1,3.2,5,2,5.2C209.5,85.9,203.8,73,203.8,73Z" style="fill:#fff;opacity:0.5"/>
      <path d="M191.7,83.4c0-5,1.6-9,3.6-9.1h0l8.6-1.3,20.5,5.2h0c1.1,0.1,2,2.4,2,5.2s-0.9,5.1-2,5.2h0l-20.5,5.2-8.6-1.3h0C193.3,92.4,191.7,88.4,191.7,83.4Z" style="fill:none;stroke:#1d132d;stroke-linecap:round;stroke-linejoin:round;stroke-width:2px"/>
      <path d="M198.3,77.5c-0.6-1.9-1.6-3.1-2.6-3.3" style="fill:none;stroke:#1d132d;stroke-linecap:round;stroke-linejoin:round;stroke-width:2px"/>
      <ellipse cx="195.1" cy="83.2" rx="3.2" ry="8.9" style="fill:#180621;opacity:0.15"/>
      <path d="M199,82q0-.6-0.1-1.3" style="fill:none;stroke:#1d132d;stroke-linecap:round;stroke-linejoin:round;stroke-width:2px"/>
      <path d="M195.1,92.5h0.3c1.8,0,3.3-3.1,3.6-7.2" style="fill:none;stroke:#1d132d;stroke-linecap:round;stroke-linejoin:round;stroke-width:2px"/>
      <path d="M202.8,93.6h0.3c2.1,0,3.8-3.5,4.2-8.3" style="fill:none;stroke:#1d132d;stroke-linecap:round;stroke-linejoin:round;stroke-width:2px"/>
    </g>
  </g>
  <g>
    <title>02</title>
    <path d="M131.3,34.4a76.8,76.8,0,0,0-11.1-.9,84.7,84.7,0,0,0-11.6.9C82.9,39,65.3,60.5,65.3,88.1c0,15.4,3.2,29.6,12.1,37.2s18.2,10.8,39.5,11.1h-7.7c-7,6.6-11.8,18.9-11.8,29.9,0,16,10.1,19.5,22.6,19.5s22.6-3.4,22.6-19.5c0-11.1-4.9-23.5-12-30.1h-5.2c19.6-.5,28.4-3.6,37.2-11.1s12.1-21.8,12.1-37.2C174.7,60.5,157.1,39,131.3,34.4Z" style="fill:#f557c7"/>
    <path d="M131.3,34.4a76.8,76.8,0,0,0-11.1-.9,84.7,84.7,0,0,0-11.6.9C82.9,39,65.3,60.5,65.3,88.1c0,15.4,3.2,29.6,12.1,37.2s18.2,10.8,39.5,11.1h-7.7c-7,6.6-11.8,18.9-11.8,29.9,0,16,10.1,19.5,22.6,19.5s22.6-3.4,22.6-19.5c0-11.1-4.9-23.5-12-30.1h-5.2c19.6-.5,28.4-3.6,37.2-11.1s12.1-21.8,12.1-37.2C174.7,60.5,157.1,39,131.3,34.4Z" style="fill:#f557c7"/>
    <path d="M131.3,34.4a76.8,76.8,0,0,0-11.1-.9,84.7,84.7,0,0,0-11.6.9C82.9,39,65.3,60.5,65.3,88.1c0,15.4,3.2,29.6,12.1,37.2s18.2,10.8,39.5,11.1h-7.7c-7,6.6-11.8,18.9-11.8,29.9,0,16,10.1,19.5,22.6,19.5s22.6-3.4,22.6-19.5c0-11.1-4.9-23.5-12-30.1h-5.2c19.6-.5,28.4-3.6,37.2-11.1s12.1-21.8,12.1-37.2C174.7,60.5,157.1,39,131.3,34.4Z" style="fill:#f557c7"/>
    <path d="M131.3,34.4a76.8,76.8,0,0,0-11.1-.9,84.7,84.7,0,0,0-11.6.9C82.9,39,65.3,60.5,65.3,88.1c0,15.4,3.2,29.6,12.1,37.2s18.2,10.8,39.5,11.1h-7.7c-7,6.6-11.8,18.9-11.8,29.9,0,16,10.1,19.5,22.6,19.5s22.6-3.4,22.6-19.5c0-11.1-4.9-23.5-12-30.1h-5.2c19.6-.5,28.4-3.6,37.2-11.1s12.1-21.8,12.1-37.2C174.7,60.5,157.1,39,131.3,34.4Z" style="fill:#f557c7"/>
    <path d="M131.3,34.4a76.8,76.8,0,0,0-11.1-.9,84.7,84.7,0,0,0-11.6.9C82.9,39,65.3,60.5,65.3,88.1c0,15.4,3.2,29.6,12.1,37.2s18.2,10.8,39.5,11.1h-7.7c-7,6.6-11.8,18.9-11.8,29.9,0,16,10.1,19.5,22.6,19.5s22.6-3.4,22.6-19.5c0-11.1-4.9-23.5-12-30.1h-5.2c19.6-.5,28.4-3.6,37.2-11.1s12.1-21.8,12.1-37.2C174.7,60.5,157.1,39,131.3,34.4Z" style="fill:#f557c7"/>
    <path d="M131.3,34.4a76.8,76.8,0,0,0-11.1-.9,84.7,84.7,0,0,0-11.6.9C82.9,39,65.3,60.5,65.3,88.1c0,15.4,3.2,29.6,12.1,37.2s18.2,10.8,39.5,11.1h-7.7c-7,6.6-11.8,18.9-11.8,29.9,0,16,10.1,19.5,22.6,19.5s22.6-3.4,22.6-19.5c0-11.1-4.9-23.5-12-30.1h-5.2c19.6-.5,28.4-3.6,37.2-11.1s12.1-21.8,12.1-37.2C174.7,60.5,157.1,39,131.3,34.4Z" style="fill:#f557c7"/>
    <path d="M131.3,34.4a76.8,76.8,0,0,0-11.1-.9,84.7,84.7,0,0,0-11.6.9C82.9,39,65.3,60.5,65.3,88.1c0,15.4,3.2,29.6,12.1,37.2s18.2,10.8,39.5,11.1h-7.7c-7,6.6-11.8,18.9-11.8,29.9,0,16,10.1,19.5,22.6,19.5s22.6-3.4,22.6-19.5c0-11.1-4.9-23.5-12-30.1h-5.2c19.6-.5,28.4-3.6,37.2-11.1s12.1-21.8,12.1-37.2C174.7,60.5,157.1,39,131.3,34.4Z" style="fill:#f557c7"/>
    <path d="M131.3,34.4a76.8,76.8,0,0,0-11.1-.9,84.7,84.7,0,0,0-11.6.9C82.9,39,65.3,60.5,65.3,88.1c0,15.4,3.2,29.6,12.1,37.2s18.2,10.8,39.5,11.1h-7.7c-7,6.6-11.8,18.9-11.8,29.9,0,16,10.1,19.5,22.6,19.5s22.6-3.4,22.6-19.5c0-11.1-4.9-23.5-12-30.1h-5.2c19.6-.5,28.4-3.6,37.2-11.1s12.1-21.8,12.1-37.2C174.7,60.5,157.1,39,131.3,34.4Z" style="fill:#f557c7"/>
    <path d="M125.4,136.4c19.6-.5,28.4-3.6,37.2-11.1s12.1-21.8,12.1-37.2c0-27.7-17.6-49.2-43.4-53.7a76.8,76.8,0,0,0-11.1-.9,84.7,84.7,0,0,0-11.6.9C82.9,39,65.3,60.5,65.3,88.1c0,15.4,3.2,29.6,12.1,37.2s18.2,10.8,39.5,11.1Z" style="fill:none;stroke:#1d132d;stroke-miterlimit:10;stroke-width:2px"/>
    <path d="M109.2,136.5c-7,6.6-11.8,18.9-11.8,29.9,0,16,10.1,19.5,22.6,19.5s22.6-3.4,22.6-19.5c0-11.1-4.9-23.5-12-30.1" style="fill:none;stroke:#1d132d;stroke-miterlimit:10;stroke-width:2px"/>
    <path d="M130.9,136.7c-3.4.7-18,.5-21.3-.1h-.4c-7,6.6-11.8,18.9-11.8,29.9,0,16,10.1,19.5,22.6,19.5s22.6-3.4,22.6-19.5C142.6,155.5,137.8,143.3,130.9,136.7Z" style="fill:#f557c7"/>
    <path d="M130.5,136.2c-3.1.3-6.1.6-9.4.6a111.1,111.1,0,0,1-12.3-.4L102,146a41,41,0,0,0,17.6,3.6,40.7,40.7,0,0,0,17.8-3.7C137.2,145.6,130.9,136.7,130.5,136.2Z" style="fill:#180621;opacity:0.15"/>
    <path d="M109.5,136.3l-.6.5c-6.9,6.7-11.5,18.8-11.5,29.6,0,16,10.1,19.5,22.6,19.5s22.6-3.4,22.6-19.5c0-11-4.8-23.3-11.8-29.9l-.2-.2" style="fill:none;stroke:#1d132d;stroke-linecap:round;stroke-linejoin:round;stroke-width:2px"/>
    <path d="M141.4,157H129.3a10.9,10.9,0,0,0-18.6,0H98.5a43.9,43.9,0,0,0-1.1,9.6q0,.9,0,1.8h13.2a10.9,10.9,0,0,0,18.7,0h13.2q0-.8,0-1.6A40.7,40.7,0,0,0,141.4,157ZM120,168.2a5.6,5.6,0,1,1,5.6-5.6A5.6,5.6,0,0,1,120,168.2Z" style="fill:#dce3ea"/>
    <path d="M141.4,157H129.3a10.9,10.9,0,0,0-18.6,0H98.5a43.9,43.9,0,0,0-1.1,9.6q0,.9,0,1.8h13.2a10.9,10.9,0,0,0,18.7,0h13.2q0-.8,0-1.6A40.7,40.7,0,0,0,141.4,157Z" style="fill:none;stroke:#1d132d;stroke-linecap:round;stroke-linejoin:round;stroke-width:2px"/>
    <circle cx="120" cy="162.6" r="5.6" style="fill:#36c8e3"/>
    <g style="opacity:0.5">
      <path d="M121.1,161.5a3.9,3.9,0,0,0,2.7-3.1,5.6,5.6,0,0,0-7.7,0v.4A3.9,3.9,0,0,0,121.1,161.5Z" style="fill:#fff"/>
    </g>
    <circle cx="120" cy="162.6" r="5.6" style="fill:none;stroke:#1d132d;stroke-linecap:round;stroke-linejoin:round;stroke-width:2px"/>
    <path d="M124.8,159.7a4.9,4.9,0,1,1-9.7,0,5.6,5.6,0,1,0,9.7,0Z" style="fill:#180621;opacity:0.15"/>
    <g style="opacity:0.30000000000000004">
      <path d="M108.7,44.1a84.7,84.7,0,0,1,11.6-.9,76.8,76.8,0,0,1,11.1.9c24.4,4.3,41.5,23.9,43.2,49.5q.1-2.7.1-5.5c0-27.7-17.6-49.2-43.4-53.7a76.8,76.8,0,0,0-11.1-.9,84.7,84.7,0,0,0-11.6.9C82.9,39,65.3,60.5,65.3,88.1q0,2.8.1,5.5C67.1,68,84.3,48.4,108.7,44.1Z" style="fill:#fff"/>
    </g>
    <path d="M125.4,136.4c19.6-.5,28.4-3.6,37.2-11.1s12.1-21.8,12.1-37.2c0-27.7-17.6-49.2-43.4-53.7a76.8,76.8,0,0,0-11.1-.9,84.7,84.7,0,0,0-11.6.9C82.9,39,65.3,60.5,65.3,88.1c0,15.4,3.2,29.6,12.1,37.2s18.2,10.8,39.5,11.1Z" style="fill:none;stroke:#1d132d;stroke-miterlimit:10;stroke-width:2px"/>
    <path d="M109.2,136.5c-7,6.6-11.8,18.9-11.8,29.9,0,16,10.1,19.5,22.6,19.5s22.6-3.4,22.6-19.5c0-11.1-4.9-23.5-12-30.1" style="fill:none;stroke:#1d132d;stroke-miterlimit:10;stroke-width:2px"/>
    <g style="opacity:0.30000000000000004">
      <path d="M108.7,44.1a84.7,84.7,0,0,1,11.6-.9,76.8,76.8,0,0,1,11.1.9c24.4,4.3,41.5,23.9,43.2,49.5q.1-2.7.1-5.5c0-27.7-17.6-49.2-43.4-53.7a76.8,76.8,0,0,0-11.1-.9,84.7,84.7,0,0,0-11.6.9C82.9,39,65.3,60.5,65.3,88.1q0,2.8.1,5.5C67.1,68,84.3,48.4,108.7,44.1Z" style="fill:#fff"/>
    </g>
    <path d="M125.4,136.4c19.6-.5,28.4-3.6,37.2-11.1s12.1-21.8,12.1-37.2c0-27.7-17.6-49.2-43.4-53.7a76.8,76.8,0,0,0-11.1-.9,84.7,84.7,0,0,0-11.6.9C82.9,39,65.3,60.5,65.3,88.1c0,15.4,3.2,29.6,12.1,37.2s18.2,10.8,39.5,11.1Z" style="fill:none;stroke:#1d132d;stroke-miterlimit:10;stroke-width:2px"/>
  </g>
  <g>
    <title>03</title>
    <path d="M105.1,136.2c-13.7-1.1-21.1-4.3-28.4-10.6a15.7,15.7,0,0,1-3.7-4c-2.4-4.2-7.2-18.1-7.2-18.1,14.5,13.8,41.2,11.8,53.6-.4h0c12.4,11.9,37.1,12.9,54,.8,0,0-4.2,13.6-7.6,17.7a31.5,31.5,0,0,1-3.7,4c-7.3,6.3-14.7,9.5-28.4,10.6h.2a20.3,20.3,0,0,0-14.4,7.2h-.1a20.3,20.3,0,0,0-14.4-7.2" style="fill:#2e4159"/>
    <path d="M173.3,103.4c-13.5,13-40.8,11.3-53.1-.5H120v40.2h.2a20.3,20.3,0,0,1,14.4-7.2h-.2c13.7-1.1,21.1-4.3,28.4-10.6,1.4-1.2,2.6-3.2,3.9-4.5C170.3,117.3,173.3,103.4,173.3,103.4Z" style="fill:#fff;opacity:0.2"/>
    <path d="M120.1,107.9h0c12,10.3,34.7,11.6,51.5,1.8,1-3.3,1.7-5.9,1.7-5.9-16.9,12.1-40.8,11-53.1-.9h0C107.7,115,81,117,66.5,103.3c0,0,1.1,3.1,2.5,6.8C83.9,120.3,108.4,118.2,120.1,107.9Z" style="fill:#fff;opacity:0.1"/>
    <g style="opacity:0.2">
      <path d="M106.9,128a1,1,0,0,1-.1-2l7.6-1a1,1,0,1,1,.3,2l-7.6,1Z" style="fill:#fff"/>
      <path d="M107.3,121.9a1,1,0,0,1-.1-2l7.6-1a1,1,0,1,1,.3,2l-7.6,1Z" style="fill:#fff"/>
    </g>
    <line x1="114.6" y1="125.4" x2="106.9" y2="126.5" style="fill:none;stroke:#1d132d;stroke-linecap:round;stroke-linejoin:round;stroke-width:2px"/>
    <line x1="114.9" y1="119.4" x2="107.3" y2="120.4" style="fill:none;stroke:#1d132d;stroke-linecap:round;stroke-linejoin:round;stroke-width:2px"/>
    <g style="opacity:0.2">
      <path d="M133.1,128a1,1,0,0,0,.1-2l-7.6-1a1,1,0,1,0-.3,2l7.6,1Z" style="fill:#fff"/>
      <path d="M132.7,121.9a1,1,0,0,0,.1-2l-7.6-1a1,1,0,0,0-.3,2l7.6,1Z" style="fill:#fff"/>
    </g>
    <line x1="125.4" y1="125.4" x2="133.1" y2="126.5" style="fill:none;stroke:#1d132d;stroke-linecap:round;stroke-linejoin:round;stroke-width:2px"/>
    <line x1="125.1" y1="119.4" x2="132.7" y2="120.4" style="fill:none;stroke:#1d132d;stroke-linecap:round;stroke-linejoin:round;stroke-width:2px"/>
    <path d="M120,143.1h0a20.3,20.3,0,0,1,14.4-7.2h-.2c13.7-1.1,21.1-4.3,28.4-10.6,1.4-1.2,5.2-4.1,8.3-11.7,1.9-4.6,3-13.6,3-13.6-6,16.7-40.7,15.6-54,2.8h.1c-13.4,12.8-48,13.8-54-2.8,0,0,1.2,9,3,13.6,3.1,7.6,7,10.5,8.3,11.7,7.3,6.3,14.7,9.5,28.4,10.6h-.2a20.3,20.3,0,0,1,14.4,7.2h0" style="fill:none;stroke:#1d132d;stroke-linecap:round;stroke-linejoin:round;stroke-width:2px"/>
  </g>
  <g>
    <title>03</title>
    <rect x="85" y="67.4" width="15.5" height="33.25" rx="7.7" ry="7.7" style="fill:#c6db45"/>
    <path d="M85.4,75l.3.9c4.3-2.3,6.5,2.3,7.5,3.8s6.3,2.5,6.4-.7C103.3,70.7,90.4,59.4,85.4,75Z" style="fill:#fff;opacity:0.5"/>
    <circle cx="90.2" cy="85.1" r="2.1" style="fill:#fff;opacity:0.5"/>
    <rect x="85" y="67.4" width="15.5" height="33.25" rx="7.7" ry="7.7" style="fill:none;stroke:#1d132d;stroke-linecap:round;stroke-linejoin:round;stroke-width:2px"/>
    <rect x="139.5" y="67.4" width="15.5" height="33.25" rx="7.7" ry="7.7" style="fill:#c6db45"/>
    <path d="M140.1,75l.3.9c4.3-2.3,6.5,2.3,7.5,3.8s6.3,2.5,6.4-.7C158,70.7,145,59.4,140.1,75Z" style="fill:#fff;opacity:0.5"/>
    <circle cx="144.9" cy="85.1" r="2.1" style="fill:#fff;opacity:0.5"/>
    <rect x="139.5" y="67.4" width="15.5" height="33.25" rx="7.7" ry="7.7" style="fill:none;stroke:#1d132d;stroke-linecap:round;stroke-linejoin:round;stroke-width:2px"/>
  </g>
  <g>
    <title>05</title>
    <path d="M120.1,58.2h0l13.5-13.1,3.6-9A52.4,52.4,0,0,0,120,33.5a58.2,58.2,0,0,0-16.7,2.3l3.4,9.3Z" style="fill:#dce3ea"/>
    <path d="M80.9,48.9a50.6,50.6,0,0,1,20-12l1.4-.8V14.8h-12L79.5,49.8l1.1-.7Z" style="fill:#2e4159"/>
    <polygon points="102.3 20.3 102.3 14.8 90.3 14.8 88.6 20.3 102.3 20.3" style="fill:#dce3ea"/>
    <path d="M159.3,48.9a50.6,50.6,0,0,0-20-12l-1.4-.8V14.8h12l10.8,35.1-1.1-.7Z" style="fill:#2e4159"/>
    <polygon points="137.9 20.3 137.9 14.8 149.9 14.8 151.6 20.3 137.9 20.3" style="fill:#dce3ea"/>
    <line x1="89.2" y1="20" x2="101.8" y2="20" style="fill:none;stroke:#1d132d;stroke-linecap:round;stroke-linejoin:round;stroke-width:2px"/>
    <polyline points="106.6 45.1 120.1 58.2 120.1 58.2 133.6 45.1" style="fill:none;stroke:#1d132d;stroke-linecap:round;stroke-linejoin:round;stroke-width:2px"/>
    <line x1="113.5" y1="51.4" x2="126.6" y2="51.4" style="fill:none;stroke:#1d132d;stroke-linecap:round;stroke-linejoin:round;stroke-width:2px"/>
    <line x1="107.6" y1="45.5" x2="132.5" y2="45.6" style="fill:none;stroke:#1d132d;stroke-linecap:round;stroke-linejoin:round;stroke-width:2px"/>
    <line x1="135.2" y1="39.6" x2="104.8" y2="39.6" style="fill:none;stroke:#1d132d;stroke-linecap:round;stroke-linejoin:round;stroke-width:2px"/>
    <line x1="106.4" y1="44.9" x2="102.3" y2="35.5" style="fill:none;stroke:#1d132d;stroke-linecap:round;stroke-linejoin:round;stroke-width:2px"/>
    <line x1="150.9" y1="20.1" x2="138.3" y2="20.1" style="fill:none;stroke:#1d132d;stroke-linecap:round;stroke-linejoin:round;stroke-width:2px"/>
    <line x1="133.7" y1="45" x2="137.8" y2="35.6" style="fill:none;stroke:#1d132d;stroke-linecap:round;stroke-linejoin:round;stroke-width:2px"/>
    <polyline points="79.5 49.8 90.3 14.8 102.3 14.8 102.3 36" style="fill:none;stroke:#1d132d;stroke-linecap:round;stroke-linejoin:round;stroke-width:2px"/>
    <polyline points="160.6 50 149.9 14.9 137.9 14.9 137.9 36.1" style="fill:none;stroke:#1d132d;stroke-linecap:round;stroke-linejoin:round;stroke-width:2px"/>
    <path d="M160.7,50.3a51.5,51.5,0,0,0-29.4-15.9,76.8,76.8,0,0,0-11.1-.9,84.7,84.7,0,0,0-11.6.9A51.5,51.5,0,0,0,79.6,50" style="fill:none;stroke:#1d132d;stroke-linecap:round;stroke-linejoin:round;stroke-width:2px"/>
  </g>
</svg>