<svg xmlns="http://www.w3.org/2000/svg" xmlns:xlink="http://www.w3.org/1999/xlink" viewBox="0 0 240 240">
  <ellipse cx="120.5" cy="233.4" rx="43.7" ry="4.9" style="fill:#180621;opacity:0.15"/>
  <g>
    <title>06</title>
    <path d="M161.8,221.3c.5-4.1-.9-12.6-.9-12.6s-8.1,3.9-10.4,9.4a6,6,0,0,0-.4,1.3v.2a14.1,14.1,0,0,1-3.7-2.6h-.1c.3-1.2.2-2.1-.4-2.5l-3.4-2.6-.3.2c.5-1.2.6-2.2.1-2.8l-2.4-3.2-1.2.6c.9-1.2,1.3-2.3.9-3.2l-2.1-4.6h-.2a2.9,2.9,0,0,0,1-2.4l-1-5.8h-.2a3.1,3.1,0,0,0,1.3-2.3v-8H101.5v8c0,1.3,1.1,2.4,3,3.4h-.2l1.7,10.2c.2,1.1,1.3,2,3.2,2.5h-.1l4.6,10.5c.5,1.2,2.5,1.7,5.2,1.4l-.8.4,5.4,7.1c1,1.3,4.3.6,8-1.5l-1.9,1.8L135,229c.8.6,2.2.1,3.9-1.2l-.4.6a26.9,26.9,0,0,0,14-.8v.4a5.9,5.9,0,0,0,3.3,3.4c5.5,2.3,14-.6,14-.6S165,223.9,161.8,221.3Z" style="fill:#dce3ea"/>
    <path d="M161.8,221.3c.5-4.1-.9-12.6-.9-12.6s-8.1,3.9-10.4,9.4a6,6,0,0,0-.4,1.3v.2a14.1,14.1,0,0,1-3.7-2.6h-.1c.3-1.2.2-2.1-.4-2.5l-3.4-2.6-.3.2c.5-1.2.6-2.2.1-2.8l-2.4-3.2-1.2.6c.9-1.2,1.3-2.3.9-3.2l-2.1-4.6h-.2a2.9,2.9,0,0,0,1-2.4l-1-5.8h-.2a3.1,3.1,0,0,0,1.3-2.3v-8H101.5v8c0,1.3,1.1,2.4,3,3.4h-.2l1.7,10.2c.2,1.1,1.3,2,3.2,2.5h-.1l4.6,10.5c.5,1.2,2.5,1.7,5.2,1.4l-.8.4,5.4,7.1c1,1.3,4.3.6,8-1.5l-1.9,1.8L135,229c.8.6,2.2.1,3.9-1.2l-.4.6a26.9,26.9,0,0,0,14-.8v.4a5.9,5.9,0,0,0,3.3,3.4c5.5,2.3,14-.6,14-.6S165,223.9,161.8,221.3Z" style="fill:#dce3ea"/>
    <path d="M152.6,228v.2a35.4,35.4,0,0,1,4.6-3.7l1.7-1.1a8.3,8.3,0,0,1,1.2-1.2l.3-.8a11.1,11.1,0,0,1-2.7.3,9.7,9.7,0,0,1-7.5-3.2l-.2.8v.2a14.1,14.1,0,0,1-3.7-2.6h-.1c.3-1.2.2-2.1-.4-2.5l-3.4-2.6-.3.2c.5-1.2.6-2.2.1-2.8l-2.4-3.2-1.2.6c.9-1.2,1.3-2.3.9-3.2l-2.1-4.6h-.2a2.9,2.9,0,0,0,1-2.4l-1-5.8h-.2a3.1,3.1,0,0,0,1.3-2.3v-8H101.5v8c0,1.3,1.1,2.4,3,3.4h-.2l1.7,10.2c.2,1.1,1.3,2,3.2,2.5h-.1l4.6,10.5c.5,1.2,2.5,1.7,5.2,1.4l-.8.4,5.4,7.1c1,1.3,4.3.6,8-1.5l-1.9,1.8L135,229c.8.6,2.2.1,3.9-1.2l-.4.6a26.9,26.9,0,0,0,14-.8Z" style="fill:#dce3ea"/>
    <path d="M101.5,179.8v3.5c0,3.5,8.3,6.2,18.5,6.2s18.4-2.8,18.5-6.2v-3.6Z" style="fill:#180621;opacity:0.15"/>
    <path d="M138.6,180.8H101.5v8c0,3.5,8.3,6.2,18.5,6.2s18.5-2.8,18.5-6.2Z" style="fill:none;stroke:#1d132d;stroke-miterlimit:10;stroke-width:2px"/>
    <path d="M104.3,192.2l1.7,10.2c.5,3,8.2,4.2,17.2,2.7s15.8-5.2,15.3-8.3l-1-5.8" style="fill:none;stroke:#1d132d;stroke-linecap:round;stroke-linejoin:round;stroke-width:2px"/>
    <path d="M109.1,205l4.6,10.5c1.1,2.4,7.8,1.8,15.1-1.4s12.2-7.8,11.1-10.2l-2.1-4.6" style="fill:none;stroke:#1d132d;stroke-linecap:round;stroke-linejoin:round;stroke-width:2px"/>
    <path d="M118,217.3l5.4,7.1c1.4,1.8,6.8-.1,12.1-4.2s8.5-8.8,7.1-10.6l-2.4-3.2" style="fill:none;stroke:#1d132d;stroke-linecap:round;stroke-linejoin:round;stroke-width:2px"/>
    <path d="M129.5,224.7,135,229c1.3,1,4.9-1.3,7.9-5.3s4.4-8,3.1-9l-3.4-2.6" style="fill:none;stroke:#1d132d;stroke-linecap:round;stroke-linejoin:round;stroke-width:2px"/>
    <path d="M146.5,217.1c3.8,3.7,9.4,4.6,14,4.9h.2c-4.4,5-11.3,8.4-22.3,6.5" style="fill:none;stroke:#1d132d;stroke-linecap:round;stroke-linejoin:round;stroke-width:2px"/>
    <path d="M152.6,228a5.9,5.9,0,0,0,3.3,3.4c5.5,2.3,14-.6,14-.6s-4.9-7-8.2-9.6c.5-4.1-.9-12.6-.9-12.6s-8.1,3.9-10.4,9.4a6,6,0,0,0-.4,1.3" style="fill:none;stroke:#1d132d;stroke-linecap:round;stroke-linejoin:round;stroke-width:2px"/>
    <path d="M122.8,194.9l-4-.5a53.1,53.1,0,0,1-10.9-1.2l-2.9-.9h-.7l.7,4.2a43.6,43.6,0,0,0,14.6,2.3c7.7,0,14.5-1.7,18.5-4.2l-.5-2.6A33.6,33.6,0,0,1,122.8,194.9Z" style="fill:#180621;opacity:0.15"/>
    <path d="M137.7,199.8a33.6,33.6,0,0,1-14.3,5.1h-4a53.1,53.1,0,0,1-9.7.5v1a24.9,24.9,0,0,1,1.3,3.3,48.1,48.1,0,0,0,9.8-.6c7.6-1.2,14-3.9,17.6-7Z" style="fill:#180621;opacity:0.15"/>
    <path d="M139.9,206.1a33.6,33.6,0,0,1-12.4,8.8l-3.9,1.2-4.8,1.8a26,26,0,0,1,1.7,3c11.5-3,18.4-9.1,20.8-12.6Z" style="fill:#180621;opacity:0.15"/>
    <path d="M142.9,212.3A33.6,33.6,0,0,1,132,222.9l-2.1,1.1a25,25,0,0,1,2.4,2.6c7-4.3,11-9.3,12.4-12.4Z" style="fill:#180621;opacity:0.15"/>
    <path d="M139.7,228.6a24.5,24.5,0,0,1,3.8.3,27.1,27.1,0,0,0,5.5-9.2l-2.1-1.6a35.6,35.6,0,0,1-7.4,10.6Z" style="fill:#180621;opacity:0.15"/>
    <path d="M152.7,215.2l-2.6,4.5,11,1.7a15.4,15.4,0,0,0,.7-2.2A16.6,16.6,0,0,1,152.7,215.2Z" style="fill:#180621;opacity:0.15"/>
    <path d="M156.5,231.3l-3.8-3.5,8.7-5.8s2,1.3,2.2,1.7A23.7,23.7,0,0,0,156.5,231.3Z" style="fill:#180621;opacity:0.15"/>
  </g>
  <g>
    <title>03</title>
    <path d="M160.8,182.9l1,1.9h0c1.3,2.2,6.4,1.5,11.4-1.5s8.1-7.1,6.8-9.3h0l-1.1-1.8" style="fill:#2e4159"/>
    <path d="M161.7,149a9.2,9.2,0,0,0-13.5,7.4h0c-.8,6,4.5,19.3,7.7,24.8h.1c1.6,2.8,8.2,1.9,14.7-1.9s10.4-9.2,8.7-11.9h-.1c-3.2-5.5-12.7-16.4-18.3-18.6" style="fill:#dce3ea"/>
    <path d="M156.8,170.8c6.6-2.3,15.4-6.3,15.2-13a65.7,65.7,0,0,1,7.4,9.5h.1c1.6,2.8-2.3,8.1-8.7,11.9s-13,4.7-14.7,1.9H156a70.3,70.3,0,0,1-4.9-10.8C152.8,171.7,154.9,171.4,156.8,170.8Z" style="fill:#dce3ea"/>
    <path d="M78.2,182.9l-1,1.9h0c-1.3,2.2-6.4,1.5-11.4-1.5s-8.1-7.1-6.8-9.3h0l1.1-1.8" style="fill:#2e4159"/>
    <path d="M77.2,149a9.2,9.2,0,0,1,13.5,7.4h0c.8,6-4.5,19.3-7.7,24.8h-.1c-1.6,2.8-8.2,1.9-14.7-1.9s-10.4-9.2-8.7-11.9h.1c3.2-5.5,12.7-16.4,18.3-18.6" style="fill:#dce3ea"/>
    <path d="M82.2,170.8c-6.6-2.3-15.4-6.3-15.2-13a65.7,65.7,0,0,0-7.4,9.5h-.1c-1.6,2.8,2.3,8.1,8.7,11.9s13,4.7,14.7,1.9H83a70.3,70.3,0,0,0,4.9-10.8C86.2,171.7,84.1,171.4,82.2,170.8Z" style="fill:#dce3ea"/>
    <path d="M90.8,156.3h0a9.2,9.2,0,0,0-2.9-6,22.4,22.4,0,0,1-3.6,16.9c-4.7,7.1-12.1,10.9-18.7,10.2l2.6,1.8c6.5,3.8,13,4.7,14.7,1.9H83C86.3,175.6,91.6,162.2,90.8,156.3Z" style="fill:#180621;opacity:0.15"/>
    <path d="M148.2,156.3h0a9.2,9.2,0,0,1,2.9-6,22.4,22.4,0,0,0,3.6,16.9c4.7,7.1,12.1,10.9,18.7,10.2l-2.6,1.8c-6.5,3.8-13,4.7-14.7,1.9H156C152.7,175.6,147.4,162.2,148.2,156.3Z" style="fill:#180621;opacity:0.15"/>
    <path d="M86.6,152.4a2.5,2.5,0,0,1-1.9-4.1c4.1-4.9,12.6-10.3,22.4-11.1a2.5,2.5,0,0,1,.4,5c-8.3.7-15.6,5.3-19,9.3A2.5,2.5,0,0,1,86.6,152.4Z" style="fill:#2e4159"/>
    <path d="M86.6,152.4a2.5,2.5,0,0,1-1.9-4.1c4.1-4.9,12.6-10.3,22.4-11.1a2.5,2.5,0,0,1,.4,5c-8.3.7-15.6,5.3-19,9.3A2.5,2.5,0,0,1,86.6,152.4Z" style="fill:none;stroke:#1d132d;stroke-miterlimit:10;stroke-width:2px"/>
    <path d="M83,181.1c-1.6,2.8-8.2,1.9-14.7-1.9S58,170,59.6,167.3h0" style="fill:none;stroke:#1d132d;stroke-linecap:round;stroke-linejoin:round;stroke-width:2px"/>
    <path d="M87.5,171.2c-2.7.9-7.6-.2-12.4-3.1s-8.5-6.9-8.8-9.7" style="fill:none;stroke:#1d132d;stroke-linecap:round;stroke-linejoin:round;stroke-width:2px"/>
    <path d="M59.7,167.1c3.2-5.5,12.7-16.4,18.3-18.6" style="fill:none;stroke:#1d132d;stroke-linecap:round;stroke-linejoin:round;stroke-width:2px"/>
    <path d="M83.1,181c3.2-5.5,8.6-18.9,7.7-24.8" style="fill:none;stroke:#1d132d;stroke-linecap:round;stroke-linejoin:round;stroke-width:2px"/>
    <path d="M88.8,151.2a9.2,9.2,0,0,1,2,5.1" style="fill:none;stroke:#1d132d;stroke-linecap:round;stroke-linejoin:round;stroke-width:2px"/>
    <path d="M84.3,148.2h.3" style="fill:none;stroke:#1d132d;stroke-linecap:round;stroke-linejoin:round;stroke-width:2px"/>
    <path d="M77.3,148.9a9.2,9.2,0,0,1,7-.7" style="fill:none;stroke:#1d132d;stroke-linecap:round;stroke-linejoin:round;stroke-width:2px"/>
    <path d="M77.2,184.7c-1.3,2.2-6.4,1.5-11.4-1.5s-8.1-7.1-6.8-9.3h0" style="fill:none;stroke:#1d132d;stroke-linecap:round;stroke-linejoin:round;stroke-width:2px"/>
    <path d="M59.1,173.8l1.1-1.8" style="fill:none;stroke:#1d132d;stroke-linecap:round;stroke-linejoin:round;stroke-width:2px"/>
    <path d="M77.3,184.6l1-1.9" style="fill:none;stroke:#1d132d;stroke-linecap:round;stroke-linejoin:round;stroke-width:2px"/>
    <path d="M152.4,152.4a2.5,2.5,0,0,0,1.9-4.1c-4.1-4.9-12.6-10.3-22.4-11.1a2.5,2.5,0,0,0-.4,5c8.3.7,15.6,5.3,19,9.3A2.5,2.5,0,0,0,152.4,152.4Z" style="fill:#2e4159"/>
    <path d="M152.4,152.4a2.5,2.5,0,0,0,1.9-4.1c-4.1-4.9-12.6-10.3-22.4-11.1a2.5,2.5,0,0,0-.4,5c8.3.7,15.6,5.3,19,9.3A2.5,2.5,0,0,0,152.4,152.4Z" style="fill:none;stroke:#1d132d;stroke-miterlimit:10;stroke-width:2px"/>
    <path d="M155.9,181.1c1.6,2.8,8.2,1.9,14.7-1.9s10.4-9.2,8.7-11.9h0" style="fill:none;stroke:#1d132d;stroke-linecap:round;stroke-linejoin:round;stroke-width:2px"/>
    <path d="M151.4,171.2c2.7.9,7.6-.2,12.4-3.1s8.5-6.9,8.8-9.7" style="fill:none;stroke:#1d132d;stroke-linecap:round;stroke-linejoin:round;stroke-width:2px"/>
    <path d="M179.3,167.1c-3.2-5.5-12.7-16.4-18.3-18.6" style="fill:none;stroke:#1d132d;stroke-linecap:round;stroke-linejoin:round;stroke-width:2px"/>
    <path d="M155.9,181c-3.2-5.5-8.6-18.9-7.7-24.8" style="fill:none;stroke:#1d132d;stroke-linecap:round;stroke-linejoin:round;stroke-width:2px"/>
    <path d="M150.2,151.2a9.2,9.2,0,0,0-2,5.1" style="fill:none;stroke:#1d132d;stroke-linecap:round;stroke-linejoin:round;stroke-width:2px"/>
    <path d="M154.7,148.2h-.3" style="fill:none;stroke:#1d132d;stroke-linecap:round;stroke-linejoin:round;stroke-width:2px"/>
    <path d="M161.6,148.9a9.2,9.2,0,0,0-7-.7" style="fill:none;stroke:#1d132d;stroke-linecap:round;stroke-linejoin:round;stroke-width:2px"/>
    <path d="M161.7,184.7c1.3,2.2,6.4,1.5,11.4-1.5s8.1-7.1,6.8-9.3h0" style="fill:none;stroke:#1d132d;stroke-linecap:round;stroke-linejoin:round;stroke-width:2px"/>
    <path d="M179.9,173.8l-1.1-1.8" style="fill:none;stroke:#1d132d;stroke-linecap:round;stroke-linejoin:round;stroke-width:2px"/>
    <path d="M161.7,184.6l-1-1.9" style="fill:none;stroke:#1d132d;stroke-linecap:round;stroke-linejoin:round;stroke-width:2px"/>
  </g>
  <g>
    <title>06</title>
    <path d="M49.3,45.6c0,.3,0,.6,0,.9,0,10.6,9.2,19.3,20.9,20C69.4,63.9,65.1,52.5,49.3,45.6Z" style="fill:#fff;opacity:0.5"/>
    <path d="M169.9,67s3.2-14,21.7-21.6h0c1.7,5.6.2,15.1.2,15.1,1.5,5.3.1,14.2.1,14.2a25.3,25.3,0,0,1-17.1,30.7Z" style="fill:#dce3ea"/>
    <path d="M192.5,67h0a59.2,59.2,0,0,1-.6,7.7,25.3,25.3,0,0,1-17.1,30.7L172.9,91C184.1,88.7,191.9,78.6,192.5,67Z" style="fill:#180621;opacity:0.15"/>
    <path d="M190.9,45.6c0,.3,0,.6,0,.9,0,10.6-9.2,19.3-20.9,20C170.8,63.9,175.2,52.5,190.9,45.6Z" style="fill:#fff;opacity:0.5"/>
    <path d="M70.3,67S67.1,53,48.6,45.4h0c-1.7,5.6-.2,15.1-.2,15.1-1.5,5.3-.1,14.2-.1,14.2a25.3,25.3,0,0,0,17.1,30.7Z" style="fill:#dce3ea"/>
    <path d="M47.8,67h0a59.2,59.2,0,0,0,.6,7.7,25.3,25.3,0,0,0,17.1,30.7L67.3,91C56.1,88.7,48.3,78.6,47.8,67Z" style="fill:#180621;opacity:0.15"/>
    <path d="M48.3,74.6a25.3,25.3,0,0,0,17.1,30.7" style="fill:none;stroke:#1d132d;stroke-linecap:round;stroke-linejoin:round;stroke-width:2px"/>
    <path d="M48.4,60.4a25.3,25.3,0,0,0,17,31" style="fill:none;stroke:#1d132d;stroke-linecap:round;stroke-linejoin:round;stroke-width:2px"/>
    <path d="M70.3,67S67.1,53,48.6,45.4h0A25.3,25.3,0,0,0,65.4,77" style="fill:none;stroke:#1d132d;stroke-linecap:round;stroke-linejoin:round;stroke-width:2px"/>
    <path d="M191.9,74.6a25.3,25.3,0,0,1-17.1,30.7" style="fill:none;stroke:#1d132d;stroke-linecap:round;stroke-linejoin:round;stroke-width:2px"/>
    <path d="M191.8,60.4a25.3,25.3,0,0,1-17,31" style="fill:none;stroke:#1d132d;stroke-linecap:round;stroke-linejoin:round;stroke-width:2px"/>
    <path d="M169.9,67s3.2-14,21.7-21.6h0A25.3,25.3,0,0,1,174.8,77" style="fill:none;stroke:#1d132d;stroke-linecap:round;stroke-linejoin:round;stroke-width:2px"/>
  </g>
  <g>
    <title>atribute</title>
    <path d="M131.3,34.4a76.8,76.8,0,0,0-11.1-.9,84.7,84.7,0,0,0-11.6.9C82.9,39,65.3,60.5,65.3,88.1c0,15.4,3.2,29.6,12.1,37.2s18.2,10.8,39.5,11.1h-7.7c-7,6.6-11.8,18.9-11.8,29.9,0,16,10.1,19.5,22.6,19.5s22.6-3.4,22.6-19.5c0-11.1-4.9-23.5-12-30.1h-5.2c19.6-.5,28.4-3.6,37.2-11.1s12.1-21.8,12.1-37.2C174.7,60.5,157.1,39,131.3,34.4Z" style="fill:#f28e04"/>
    <rect x="103.7" y="171.6" width="32.2" height="2.42" style="fill:#fff;opacity:0.3"/>
    <polygon points="132 181 109.4 181 107.2 178.6 132 178.6 132 181" style="fill:#fff;opacity:0.3"/>
    <path d="M112.2,164.7l0.3-.4,0.3-.3,0.3-.4,0.3-.3,0.3-.3,0.3-.4h-3l-0.4-1.1-1-2.8v0.1l-1.4,3.8c-0.1.2-.1,0.2-0.2,0.2h-2.7c-0.2,0-.2,0-0.2-0.2l-1.2-3.4-1.1-3v-0.2h2.1c0.2,0,.2,0,0.2.2l1.6,4.3h0l0.2-.5,1.4-3.8c0.1-.2.1-0.2,0.2-0.2h2.5c0.2,0,.2,0,0.2.2l1,2.6,0.6,1.6h0.1l1-2.8,0.5-1.4c0.1-.1.1-0.1,0.2-0.1h2.1l-1.3,3.7-0.9,2.6h0.1l2.3-2.7,2.9-3.5c0.2-.3.1-0.2,0.5-0.2h2.6l4.1,4.8h0.1l2-1.7-6.5-5.5h3.5l2.8,2.3,2.9,2.4,3.1,2.6,1.5,1.2h-3.3l-2.1-1.8h-0.1l-0.5.4-1.7,1.4h-3l-1.1-1.3h-4.6l1-1.2h2.3l-1.7-2h0l-4.7,5.5-1.2,1.4h-2.9Z" style="fill:#fff"/>
    <path d="M131.2,157.1h0.1l1.4-1.2H136l-1.3,1.1-1.7,1.4h-0.3l-1.2-1-0.3-.2h-0.1Z" style="fill:#fff"/>
    <g style="opacity:0.30000000000000004">
      <path d="M108.7,44.1a84.7,84.7,0,0,1,11.6-.9,76.8,76.8,0,0,1,11.1.9c24.4,4.3,41.5,23.9,43.2,49.5q0.1-2.7.1-5.5c0-27.7-17.6-49.2-43.4-53.7a76.8,76.8,0,0,0-11.1-.9,84.7,84.7,0,0,0-11.6.9C82.9,39,65.3,60.5,65.3,88.1q0,2.8.1,5.5C67.1,68,84.3,48.4,108.7,44.1Z" style="fill:#fff"/>
    </g>
    <path d="M97,171.3a20.1,20.1,0,0,0,2.4,6,13.5,13.5,0,0,0,3.1,4.1,12.1,12.1,0,0,0,3.2,1.8,30.4,30.4,0,0,0,6,1.7,1.2,1.2,0,0,0-.8-1,12.7,12.7,0,0,1-5.1-6c-0.4-1.1-.7-2.3-1.3-3.4s-3.4-4.1-5-6.3-1.2-2.9-2.1-1.5S96.8,170,97,171.3Z" style="fill:#2e4159"/>
    <path d="M142.7,171.3a20.1,20.1,0,0,1-2.4,6,13.5,13.5,0,0,1-3.1,4.1,12.1,12.1,0,0,1-3.2,1.8,30.4,30.4,0,0,1-6,1.7,1.2,1.2,0,0,1,.8-1,12.7,12.7,0,0,0,5.1-6c0.4-1.1.7-2.3,1.3-3.4s3.4-4.1,5-6.3,1.2-2.9,2.1-1.5S142.9,170,142.7,171.3Z" style="fill:#2e4159"/>
    <line x1="97.7" y1="164" x2="111.4" y2="185" style="fill:none;stroke:#1d132d;stroke-linecap:round;stroke-linejoin:round;stroke-width:2px"/>
    <g style="opacity:0.30000000000000004">
      <path d="M108.7,44.1a84.7,84.7,0,0,1,11.6-.9,76.8,76.8,0,0,1,11.1.9c24.4,4.3,41.5,23.9,43.2,49.5q0.1-2.7.1-5.5c0-27.7-17.6-49.2-43.4-53.7a76.8,76.8,0,0,0-11.1-.9,84.7,84.7,0,0,0-11.6.9C82.9,39,65.3,60.5,65.3,88.1q0,2.8.1,5.5C67.1,68,84.3,48.4,108.7,44.1Z" style="fill:#fff"/>
    </g>
    <path d="M132,136.8c-7.4,0-14.8-.3-22.2-0.2-3.5.6-2,1.6-2,1.6l4.5,6.6h15.6l4.5-6.7h0.1a7.5,7.5,0,0,1,.1-1Z" style="fill:#d9e0e7"/>
    <path d="M130.5,136.2c-3.1.3-6.1,0.6-9.4,0.6a111.1,111.1,0,0,1-12.3-.4L102,146a41,41,0,0,0,17.6,3.6,40.7,40.7,0,0,0,17.8-3.7C137.2,145.6,130.9,136.7,130.5,136.2Z" style="fill:#180621;opacity:0.15"/>
    <path d="M125.4,136.4c19.6-.5,28.4-3.6,37.2-11.1s12.1-21.8,12.1-37.2c0-27.7-17.6-49.2-43.4-53.7a76.8,76.8,0,0,0-11.1-.9,84.7,84.7,0,0,0-11.6.9C82.9,39,65.3,60.5,65.3,88.1c0,15.4,3.2,29.6,12.1,37.2s18.2,10.8,39.5,11.1h8.5Z" style="fill:none;stroke:#1d132d;stroke-miterlimit:10;stroke-width:2px"/>
    <path d="M125.4,136.4c19.6-.5,28.4-3.6,37.2-11.1s12.1-21.8,12.1-37.2c0-27.7-17.6-49.2-43.4-53.7a76.8,76.8,0,0,0-11.1-.9,84.7,84.7,0,0,0-11.6.9C82.9,39,65.3,60.5,65.3,88.1c0,15.4,3.2,29.6,12.1,37.2s18.2,10.8,39.5,11.1h8.5Z" style="fill:none;stroke:#1d132d;stroke-miterlimit:10;stroke-width:2px"/>
    <path d="M109.2,136.5c-7,6.6-11.8,18.9-11.8,29.9,0,16,10.1,19.5,22.6,19.5s22.6-3.4,22.6-19.5c0-11.1-4.9-23.5-12-30.1" style="fill:none;stroke:#1d132d;stroke-miterlimit:10;stroke-width:2px"/>
    <polyline points="132.3 138.2 127.8 144.9 112.2 144.9 107.7 138.3" style="fill:none;stroke:#1d132d;stroke-linecap:round;stroke-linejoin:round;stroke-width:2px"/>
    <line x1="103" y1="171.3" x2="137.2" y2="171.4" style="fill:none;stroke:#1d132d;stroke-linecap:round;stroke-linejoin:round;stroke-width:2px"/>
    <line x1="142.2" y1="164" x2="128.5" y2="184.9" style="fill:none;stroke:#1d132d;stroke-linecap:round;stroke-linejoin:round;stroke-width:2px"/>
    <line x1="107.4" y1="178.2" x2="132.2" y2="178.2" style="fill:none;stroke:#1d132d;stroke-linecap:round;stroke-linejoin:round;stroke-width:2px"/>
  </g>
  <g>
    <title>05</title>
    <path d="M120.2,136.6c26.6,0,36.1-4,44.2-10.3l1.7-1.4c11-10.7,8.2-26,8.2-26s-18.9,9.4-54.2,9.4-54.2-9.4-54.2-9.4-2.8,15.4,8.2,26l1.7,1.4c8.1,6.3,17.6,10.3,44.2,10.3" style="fill:#dce3ea"/>
    <path d="M148.4,133.9a18.5,18.5,0,0,1-18.5-18.5v-.2h-20v.3a18.5,18.5,0,0,1-18.5,18.5,167.7,167.7,0,0,0,28.4,3A167.4,167.4,0,0,0,148.4,133.9Z" style="fill:#2e4159"/>
    <path d="M166.1,119.1l-1.7,1.5c-8.1,6.3-17.6,9.4-44.2,9.4h-.4c-26.6,0-36.1-3.1-44.2-9.4L74,119.1a29.2,29.2,0,0,1-8.4-18.7c-.4,4.2-.5,15.9,8.4,24.6l1.7,1.5c8.1,6.3,17.6,9.4,44.2,9.4h.4c26.6,0,36.1-3.1,44.2-9.4l1.7-1.5c8.9-8.7,8.7-20.4,8.4-24.6A29.2,29.2,0,0,1,166.1,119.1Z" style="fill:#180621;opacity:0.15"/>
    <path d="M120.2,136.6c26.6,0,36.1-4,44.2-10.3l1.7-1.4c11-10.7,8.2-26,8.2-26s-18.9,9.4-54.2,9.4-54.2-9.4-54.2-9.4-2.8,15.4,8.2,26l1.7,1.4c8.1,6.3,17.6,10.3,44.2,10.3" style="fill:none;stroke:#1d132d;stroke-linecap:round;stroke-linejoin:round;stroke-width:2px"/>
    <path d="M148.4,133.9a18.5,18.5,0,0,1-18.5-18.5v-.2h-20v.3a18.5,18.5,0,0,1-18.5,18.5" style="fill:none;stroke:#1d132d;stroke-linecap:round;stroke-linejoin:round;stroke-width:2px"/>
  </g>
  <g>
    <title>06</title>
    <path d="M78.4,76.9a16.2,16.2,0,1,0,30.5,6.3Z" style="fill:#1d132d"/>
    <path d="M78.4,76.9a16.2,16.2,0,1,0,30.5,6.3Z" style="fill:none;stroke:#1d132d;stroke-linecap:round;stroke-linejoin:round;stroke-width:2px"/>
    <path d="M88.2,83a6.1,6.1,0,1,0,10.4,2Z" style="fill:#ff9a00"/>
    <path d="M162.9,76.9a16.2,16.2,0,1,1-30.5,6.3Z" style="fill:#1d132d"/>
    <path d="M162.9,76.9a16.2,16.2,0,1,1-30.5,6.3Z" style="fill:none;stroke:#1d132d;stroke-linecap:round;stroke-linejoin:round;stroke-width:2px"/>
    <path d="M153.1,82.9a6.1,6.1,0,1,1-10.4,2Z" style="fill:#ff9a00"/>
  </g>
  <g/>
</svg>