<svg xmlns="http://www.w3.org/2000/svg" xmlns:xlink="http://www.w3.org/1999/xlink" viewBox="0 0 240 240">
  <ellipse cx="120.5" cy="233.4" rx="43.7" ry="4.9" style="fill:#180621;opacity:0.15"/>
  <g>
    <title>06</title>
    <path d="M161.8,221.3c.5-4.1-.9-12.6-.9-12.6s-8.1,3.9-10.4,9.4a6,6,0,0,0-.4,1.3v.2a14.1,14.1,0,0,1-3.7-2.6h-.1c.3-1.2.2-2.1-.4-2.5l-3.4-2.6-.3.2c.5-1.2.6-2.2.1-2.8l-2.4-3.2-1.2.6c.9-1.2,1.3-2.3.9-3.2l-2.1-4.6h-.2a2.9,2.9,0,0,0,1-2.4l-1-5.8h-.2a3.1,3.1,0,0,0,1.3-2.3v-8H101.5v8c0,1.3,1.1,2.4,3,3.4h-.2l1.7,10.2c.2,1.1,1.3,2,3.2,2.5h-.1l4.6,10.5c.5,1.2,2.5,1.7,5.2,1.4l-.8.4,5.4,7.1c1,1.3,4.3.6,8-1.5l-1.9,1.8L135,229c.8.6,2.2.1,3.9-1.2l-.4.6a26.9,26.9,0,0,0,14-.8v.4a5.9,5.9,0,0,0,3.3,3.4c5.5,2.3,14-.6,14-.6S165,223.9,161.8,221.3Z" style="fill:#dce3ea"/>
    <path d="M161.8,221.3c.5-4.1-.9-12.6-.9-12.6s-8.1,3.9-10.4,9.4a6,6,0,0,0-.4,1.3v.2a14.1,14.1,0,0,1-3.7-2.6h-.1c.3-1.2.2-2.1-.4-2.5l-3.4-2.6-.3.2c.5-1.2.6-2.2.1-2.8l-2.4-3.2-1.2.6c.9-1.2,1.3-2.3.9-3.2l-2.1-4.6h-.2a2.9,2.9,0,0,0,1-2.4l-1-5.8h-.2a3.1,3.1,0,0,0,1.3-2.3v-8H101.5v8c0,1.3,1.1,2.4,3,3.4h-.2l1.7,10.2c.2,1.1,1.3,2,3.2,2.5h-.1l4.6,10.5c.5,1.2,2.5,1.7,5.2,1.4l-.8.4,5.4,7.1c1,1.3,4.3.6,8-1.5l-1.9,1.8L135,229c.8.6,2.2.1,3.9-1.2l-.4.6a26.9,26.9,0,0,0,14-.8v.4a5.9,5.9,0,0,0,3.3,3.4c5.5,2.3,14-.6,14-.6S165,223.9,161.8,221.3Z" style="fill:#dce3ea"/>
    <path d="M152.6,228v.2a35.4,35.4,0,0,1,4.6-3.7l1.7-1.1a8.3,8.3,0,0,1,1.2-1.2l.3-.8a11.1,11.1,0,0,1-2.7.3,9.7,9.7,0,0,1-7.5-3.2l-.2.8v.2a14.1,14.1,0,0,1-3.7-2.6h-.1c.3-1.2.2-2.1-.4-2.5l-3.4-2.6-.3.2c.5-1.2.6-2.2.1-2.8l-2.4-3.2-1.2.6c.9-1.2,1.3-2.3.9-3.2l-2.1-4.6h-.2a2.9,2.9,0,0,0,1-2.4l-1-5.8h-.2a3.1,3.1,0,0,0,1.3-2.3v-8H101.5v8c0,1.3,1.1,2.4,3,3.4h-.2l1.7,10.2c.2,1.1,1.3,2,3.2,2.5h-.1l4.6,10.5c.5,1.2,2.5,1.7,5.2,1.4l-.8.4,5.4,7.1c1,1.3,4.3.6,8-1.5l-1.9,1.8L135,229c.8.6,2.2.1,3.9-1.2l-.4.6a26.9,26.9,0,0,0,14-.8Z" style="fill:#dce3ea"/>
    <path d="M101.5,179.8v3.5c0,3.5,8.3,6.2,18.5,6.2s18.4-2.8,18.5-6.2v-3.6Z" style="fill:#180621;opacity:0.15"/>
    <path d="M138.6,180.8H101.5v8c0,3.5,8.3,6.2,18.5,6.2s18.5-2.8,18.5-6.2Z" style="fill:none;stroke:#1d132d;stroke-miterlimit:10;stroke-width:2px"/>
    <path d="M104.3,192.2l1.7,10.2c.5,3,8.2,4.2,17.2,2.7s15.8-5.2,15.3-8.3l-1-5.8" style="fill:none;stroke:#1d132d;stroke-linecap:round;stroke-linejoin:round;stroke-width:2px"/>
    <path d="M109.1,205l4.6,10.5c1.1,2.4,7.8,1.8,15.1-1.4s12.2-7.8,11.1-10.2l-2.1-4.6" style="fill:none;stroke:#1d132d;stroke-linecap:round;stroke-linejoin:round;stroke-width:2px"/>
    <path d="M118,217.3l5.4,7.1c1.4,1.8,6.8-.1,12.1-4.2s8.5-8.8,7.1-10.6l-2.4-3.2" style="fill:none;stroke:#1d132d;stroke-linecap:round;stroke-linejoin:round;stroke-width:2px"/>
    <path d="M129.5,224.7,135,229c1.3,1,4.9-1.3,7.9-5.3s4.4-8,3.1-9l-3.4-2.6" style="fill:none;stroke:#1d132d;stroke-linecap:round;stroke-linejoin:round;stroke-width:2px"/>
    <path d="M146.5,217.1c3.8,3.7,9.4,4.6,14,4.9h.2c-4.4,5-11.3,8.4-22.3,6.5" style="fill:none;stroke:#1d132d;stroke-linecap:round;stroke-linejoin:round;stroke-width:2px"/>
    <path d="M152.6,228a5.9,5.9,0,0,0,3.3,3.4c5.5,2.3,14-.6,14-.6s-4.9-7-8.2-9.6c.5-4.1-.9-12.6-.9-12.6s-8.1,3.9-10.4,9.4a6,6,0,0,0-.4,1.3" style="fill:none;stroke:#1d132d;stroke-linecap:round;stroke-linejoin:round;stroke-width:2px"/>
    <path d="M122.8,194.9l-4-.5a53.1,53.1,0,0,1-10.9-1.2l-2.9-.9h-.7l.7,4.2a43.6,43.6,0,0,0,14.6,2.3c7.7,0,14.5-1.7,18.5-4.2l-.5-2.6A33.6,33.6,0,0,1,122.8,194.9Z" style="fill:#180621;opacity:0.15"/>
    <path d="M137.7,199.8a33.6,33.6,0,0,1-14.3,5.1h-4a53.1,53.1,0,0,1-9.7.5v1a24.9,24.9,0,0,1,1.3,3.3,48.1,48.1,0,0,0,9.8-.6c7.6-1.2,14-3.9,17.6-7Z" style="fill:#180621;opacity:0.15"/>
    <path d="M139.9,206.1a33.6,33.6,0,0,1-12.4,8.8l-3.9,1.2-4.8,1.8a26,26,0,0,1,1.7,3c11.5-3,18.4-9.1,20.8-12.6Z" style="fill:#180621;opacity:0.15"/>
    <path d="M142.9,212.3A33.6,33.6,0,0,1,132,222.9l-2.1,1.1a25,25,0,0,1,2.4,2.6c7-4.3,11-9.3,12.4-12.4Z" style="fill:#180621;opacity:0.15"/>
    <path d="M139.7,228.6a24.5,24.5,0,0,1,3.8.3,27.1,27.1,0,0,0,5.5-9.2l-2.1-1.6a35.6,35.6,0,0,1-7.4,10.6Z" style="fill:#180621;opacity:0.15"/>
    <path d="M152.7,215.2l-2.6,4.5,11,1.7a15.4,15.4,0,0,0,.7-2.2A16.6,16.6,0,0,1,152.7,215.2Z" style="fill:#180621;opacity:0.15"/>
    <path d="M156.5,231.3l-3.8-3.5,8.7-5.8s2,1.3,2.2,1.7A23.7,23.7,0,0,0,156.5,231.3Z" style="fill:#180621;opacity:0.15"/>
  </g>
  <g>
    <title>04</title>
    <g style="isolation:isolate">
      <path d="M109.1,137.6a38.2,38.2,0,0,0-20.3,8.2l.6,1.6,2.9,2.5a32.9,32.9,0,0,1,17.3-7,2.7,2.7,0,1,0-.4-5.4Z" style="fill:#dce3ea"/>
      <path d="M88.3,145.7a41.7,41.7,0,0,1,19.3-8.2,3.3,3.3,0,0,1,1,6.4,39.1,39.1,0,0,0-15.8,6.4" style="fill:none;stroke:#1d132d;stroke-miterlimit:10;stroke-width:2px"/>
      <path d="M92.3,150a31.3,31.3,0,0,1,3.6-2.5,22,22,0,0,0-2.2-5,37.1,37.1,0,0,0-4.8,3.3l.6,1.6Z" style="fill:#180621;opacity:0.15;mix-blend-mode:multiply"/>
      <path d="M67,174a15.6,15.6,0,0,1-2.8-2.5l-.9-1.2-3.4-2.1-4.7,6.3,4.6,5,7.7-5.1Z" style="fill:#2e4159"/>
      <path d="M58.3,161.4a12.8,12.8,0,0,1,0-6.1l-9,.8-.3,5.7,9.9,1.7Z" style="fill:#2e4159"/>
      <path d="M79.1,178.9a18.3,18.3,0,0,1-7.9-1.9l1.3,9.2h5.7Z" style="fill:#2e4159"/>
      <path d="M61.3,153.2a32.1,32.1,0,0,0-2.9,2.5h-.1c-2.7,2.5-.1,9.6,5.8,15.9s12.8,9.3,15.5,6.8h.1a45.6,45.6,0,0,0,5.3-6.1l6-9.2a30.8,30.8,0,0,0,2.6-7.5h0c.3-1.9-1.2-5.1-3.9-8s-5.9-4.6-7.8-4.4h0c-3,.2-6.8,1.7-10.5,3.6" style="fill:#2e4159"/>
      <path d="M81.8,155.8c-4-.4-20.5-2.6-20.5-2.6a32.1,32.1,0,0,0-2.9,2.5h-.1c-2.7,2.5-.1,9.6,5.8,15.9s12.8,9.3,15.5,6.8h.1a14.8,14.8,0,0,0,2.5-2.5C82,174.7,81.6,158.1,81.8,155.8Z" style="fill:#dce3ea"/>
      <polyline points="66.3 175.2 59.8 179.6 55.2 174.6 60.3 167.7" style="fill:none;stroke:#1d132d;stroke-linecap:round;stroke-linejoin:round;stroke-width:2px"/>
      <polyline points="57.9 163.4 49.1 161.9 49.4 156.2 59.1 155.3" style="fill:none;stroke:#1d132d;stroke-linecap:round;stroke-linejoin:round;stroke-width:2px"/>
      <polyline points="71.4 178.4 72.5 186.1 78.2 186 79.1 179" style="fill:none;stroke:#1d132d;stroke-linecap:round;stroke-linejoin:round;stroke-width:2px"/>
      <path d="M79.3,178.8c-2.7,2.5-9.6-.6-15.4-7s-8.3-13.4-5.6-15.9h.1" style="fill:none;stroke:#1d132d;stroke-linecap:round;stroke-linejoin:round;stroke-width:2px"/>
      <path d="M58.4,155.8c5.4-4.9,17.6-12.4,24.5-12.9h0c2.1-.1,4.8,1.3,7.7,4.5s4.2,6.4,3.8,8.2" style="fill:none;stroke:#1d132d;stroke-linecap:round;stroke-linejoin:round;stroke-width:2px"/>
      <path d="M79.4,178.7c5.4-4.9,13.9-16.4,15-23.2" style="fill:none;stroke:#1d132d;stroke-linecap:round;stroke-linejoin:round;stroke-width:2px"/>
      <path d="M91.2,158.5a24.5,24.5,0,0,1-10.8,6.3l-6.5.9a18.5,18.5,0,0,1-8.2-1.5l-3-1.3a18.3,18.3,0,0,1-5.3-3.6c.3,3.3,2.8,8.1,6.9,12.4,5.9,6.3,12.8,9.3,15.5,6.8h.1a45.6,45.6,0,0,0,5.3-6.1l6-9.2a30.8,30.8,0,0,0,2.6-7.5h0a3.4,3.4,0,0,0,0-.4Z" style="fill:#180621;opacity:0.15"/>
      <path d="M131,137.6a38.2,38.2,0,0,1,20.3,8.2l-.6,1.6-2.9,2.5a32.9,32.9,0,0,0-17.3-7,2.7,2.7,0,1,1,.4-5.4Z" style="fill:#dce3ea"/>
      <path d="M151.9,145.7a41.7,41.7,0,0,0-19.3-8.2,3.3,3.3,0,0,0-1,6.4,39.1,39.1,0,0,1,15.8,6.4" style="fill:none;stroke:#1d132d;stroke-miterlimit:10;stroke-width:2px"/>
      <path d="M147.9,150a31.3,31.3,0,0,0-3.6-2.5,22,22,0,0,1,2.2-5,37.1,37.1,0,0,1,4.8,3.3l-.6,1.6Z" style="fill:#180621;opacity:0.15;mix-blend-mode:multiply"/>
      <path d="M173.1,174a15.6,15.6,0,0,0,2.8-2.5l.9-1.2,3.4-2.1,4.7,6.3-4.6,5-7.7-5.1Z" style="fill:#2e4159"/>
      <path d="M181.8,161.4a12.8,12.8,0,0,0,0-6.1l9,.8.3,5.7-9.9,1.7Z" style="fill:#2e4159"/>
      <path d="M161,178.9a18.3,18.3,0,0,0,7.9-1.9l-1.3,9.2h-5.7Z" style="fill:#2e4159"/>
      <path d="M178.8,153.2a32.1,32.1,0,0,1,2.9,2.5h.1c2.7,2.5.1,9.6-5.8,15.9s-12.8,9.3-15.5,6.8h-.1a45.6,45.6,0,0,1-5.3-6.1l-6-9.2a30.8,30.8,0,0,1-2.6-7.5h0c-.3-1.9,1.2-5.1,3.9-8s5.9-4.6,7.8-4.4h0c3,.2,6.8,1.7,10.5,3.6" style="fill:#2e4159"/>
      <path d="M158.3,155.8c4-.4,20.5-2.6,20.5-2.6a32.1,32.1,0,0,1,2.9,2.5h.1c2.7,2.5.1,9.6-5.8,15.9s-12.8,9.3-15.5,6.8h-.1a14.8,14.8,0,0,1-2.5-2.5C158.1,174.7,158.5,158.1,158.3,155.8Z" style="fill:#dce3ea"/>
      <polyline points="173.8 175.2 180.3 179.6 184.9 174.6 179.8 167.7" style="fill:none;stroke:#1d132d;stroke-linecap:round;stroke-linejoin:round;stroke-width:2px"/>
      <polyline points="182.2 163.4 191 161.9 190.7 156.2 181 155.3" style="fill:none;stroke:#1d132d;stroke-linecap:round;stroke-linejoin:round;stroke-width:2px"/>
      <polyline points="168.7 178.4 167.6 186.1 161.9 186 161 179" style="fill:none;stroke:#1d132d;stroke-linecap:round;stroke-linejoin:round;stroke-width:2px"/>
      <path d="M160.8,178.8c2.7,2.5,9.6-.6,15.4-7s8.3-13.4,5.6-15.9h-.1" style="fill:none;stroke:#1d132d;stroke-linecap:round;stroke-linejoin:round;stroke-width:2px"/>
      <path d="M181.7,155.8c-5.4-4.9-17.6-12.4-24.5-12.9h0c-2.1-.1-4.8,1.3-7.7,4.5s-4.2,6.4-3.8,8.2" style="fill:none;stroke:#1d132d;stroke-linecap:round;stroke-linejoin:round;stroke-width:2px"/>
      <path d="M160.7,178.7c-5.4-4.9-13.9-16.4-15-23.2" style="fill:none;stroke:#1d132d;stroke-linecap:round;stroke-linejoin:round;stroke-width:2px"/>
      <path d="M149,158.5a24.5,24.5,0,0,0,10.8,6.3l6.5.9a18.5,18.5,0,0,0,8.2-1.5l3-1.3a18.3,18.3,0,0,0,5.3-3.6c-.3,3.3-2.8,8.1-6.9,12.4-5.9,6.3-12.8,9.3-15.5,6.8h-.1a45.6,45.6,0,0,1-5.3-6.1l-6-9.2a30.8,30.8,0,0,1-2.6-7.5h0a3.4,3.4,0,0,1,0-.4Z" style="fill:#180621;opacity:0.15"/>
      <polyline points="62 153.4 81.7 155.9 82 175.9" style="fill:none;stroke:#1d132d;stroke-linecap:round;stroke-linejoin:round;stroke-width:2px"/>
      <polyline points="178.2 153.4 158.4 155.9 158.1 175.9" style="fill:none;stroke:#1d132d;stroke-linecap:round;stroke-linejoin:round;stroke-width:2px"/>
    </g>
  </g>
  <g>
    <title>05</title>
    <path d="M72.5,107.4V66.4H69.6c-10.7,0-19.4,9.2-19.4,20.5s8.7,20.5,19.4,20.5Z" style="fill:#dce3ea"/>
    <g style="opacity:0.15">
      <path d="M71,95.5h-.2a24.4,24.4,0,0,1-12.4-3.3l-5-3.8a25.1,25.1,0,0,1-3-3.7,21.7,21.7,0,0,0-.1,2.3c0,11.3,8.7,20.5,19.4,20.5h2.9V95.5Z" style="fill:#180621"/>
    </g>
    <path d="M166.5,107.4V66.4h2.9c10.7,0,19.4,9.2,19.4,20.5s-8.7,20.5-19.4,20.5Z" style="fill:#dce3ea"/>
    <g style="opacity:0.15">
      <path d="M168,95.5h.3a24.4,24.4,0,0,0,12.4-3.3l5-3.8a25.1,25.1,0,0,0,3-3.7,21.7,21.7,0,0,1,.1,2.3c0,11.3-8.7,20.5-19.4,20.5h-2.9V95.5Z" style="fill:#180621"/>
    </g>
    <path d="M72.5,107.4V66.4H69.6c-10.7,0-19.4,9.2-19.4,20.5s8.7,20.5,19.4,20.5Z" style="fill:none;stroke:#1d132d;stroke-miterlimit:10;stroke-width:2px"/>
    <path d="M166.5,107.4V66.4h2.9c10.7,0,19.4,9.2,19.4,20.5s-8.7,20.5-19.4,20.5Z" style="fill:none;stroke:#1d132d;stroke-miterlimit:10;stroke-width:2px"/>
  </g>
  <g>
    <title>ops</title>
    <path d="M131.3,34.4a76.8,76.8,0,0,0-11.1-.9,84.7,84.7,0,0,0-11.6.9C82.9,39,65.3,60.5,65.3,88.1c0,15.4,3.2,29.6,12.1,37.2s18.2,10.8,39.5,11.1h-7.7c-7,6.6-11.8,18.9-11.8,29.9,0,16,10.1,19.5,22.6,19.5s22.6-3.4,22.6-19.5c0-11.1-4.9-23.5-12-30.1h-5.2c19.6-.5,28.4-3.6,37.2-11.1s12.1-21.8,12.1-37.2C174.7,60.5,157.1,39,131.3,34.4Z" style="fill:#00baac"/>
    <path d="M122.2,176.6a7,7,0,0,1-4.2-.6,37,37,0,0,1-11.3-5.5c-2.2-1.6-4.2-2.5-5.7-4.6s-2-3.2-3.1-4.3a41.4,41.4,0,0,0-.3,5c0,16,10.1,19.5,22.6,19.5s22.6-3.4,22.6-19.5a41.7,41.7,0,0,0-.4-5.4C138.5,169,130.2,175.5,122.2,176.6Z" style="fill:#d9e0e7"/>
    <path d="M120.7,181.7c-10.4,0-19.1-2.4-21.7-12.4l-0.7-.2c1.1,13.8,10.7,16.9,22.5,16.9s21.8-3.2,22.5-17.8l-0.5.2C140.3,179.1,131.4,181.7,120.7,181.7Z" style="fill:#180621;opacity:0.15"/>
    <path d="M128.3,160a4.9,4.9,0,0,1-1.3,3,15.4,15.4,0,0,1-3.1,2.8,30.7,30.7,0,0,1-4.2,2.4,30.8,30.8,0,0,1-4.2-2.4,15.4,15.4,0,0,1-3.1-2.8,4.9,4.9,0,0,1-1.3-3v-12s7.7-7.4,17.1,0v12h0Zm-18-12.7v13.3a5.4,5.4,0,0,0,1.4,3.3,17.1,17.1,0,0,0,3.5,3.1,34.2,34.2,0,0,0,4.6,2.7,34.1,34.1,0,0,0,4.6-2.7,17.1,17.1,0,0,0,3.5-3.1,5.4,5.4,0,0,0,1.4-3.3V147.3c-10.3-8.3-18.9,0-18.9,0h0Z" style="fill:#fff"/>
    <path d="M120.3,156.4v1.7a0.9,0.9,0,0,0,.9-0.8,0.6,0.6,0,0,0-.2-0.5l-0.7-.4h0Z" style="fill:#fff"/>
    <path d="M122.4,158.9a3.8,3.8,0,0,1-2.1.8V161h-0.9v-1.3a7.4,7.4,0,0,1-2.8-.6v-1.8l1.4,0.5,1.5,0.3v-2.1l-0.4-.2a5,5,0,0,1-1.9-1.1,2.2,2.2,0,0,1-.5-1.5,2,2,0,0,1,.8-1.6,3.8,3.8,0,0,1,2.1-.8v-1h0.9v1a7.5,7.5,0,0,1,2.8.6l-0.6,1.6a7.2,7.2,0,0,0-2.1-.5v2l1.8,0.9a2.5,2.5,0,0,1,.8.8,2,2,0,0,1,.3,1,2.1,2.1,0,0,1-.8,1.7h0Zm-9.5-9.4v9.9a4.1,4.1,0,0,0,1,2.5,12.6,12.6,0,0,0,2.5,2.3,24.8,24.8,0,0,0,3.4,2,24.7,24.7,0,0,0,3.4-2,12.6,12.6,0,0,0,2.5-2.3,4.1,4.1,0,0,0,1-2.5v-9.9c-7.6-6.2-13.8,0-13.8,0h0Z" style="fill:#fff"/>
    <path d="M118.5,153.3a0.6,0.6,0,0,0,.2.5l0.7,0.4v-1.6a0.8,0.8,0,0,0-.9.7h0Z" style="fill:#fff"/>
    <path d="M142,160.9c-1.8,6.8-11.5,13.6-21.9,16.1h-0.3c-10.3-2.6-20.3-9.4-22.1-16.1" style="fill:none;stroke:#1d132d;stroke-linecap:round;stroke-linejoin:round;stroke-width:2px"/>
    <path d="M130.5,136.2c-3.1.3-6.1,0.6-9.4,0.6a111.1,111.1,0,0,1-12.3-.4L102,146a41,41,0,0,0,17.6,3.6,40.7,40.7,0,0,0,17.8-3.7C137.2,145.6,130.9,136.7,130.5,136.2Z" style="fill:#180621;opacity:0.15"/>
    <g style="opacity:0.30000000000000004">
      <path d="M108.7,44.1a84.7,84.7,0,0,1,11.6-.9,76.8,76.8,0,0,1,11.1.9c24.4,4.3,41.5,23.9,43.2,49.5q0.1-2.7.1-5.5c0-27.7-17.6-49.2-43.4-53.7a76.8,76.8,0,0,0-11.1-.9,84.7,84.7,0,0,0-11.6.9C82.9,39,65.3,60.5,65.3,88.1q0,2.8.1,5.5C67.1,68,84.3,48.4,108.7,44.1Z" style="fill:#fff"/>
    </g>
    <g style="opacity:0.30000000000000004">
      <path d="M108.7,44.1a84.7,84.7,0,0,1,11.6-.9,76.8,76.8,0,0,1,11.1.9c24.4,4.3,41.5,23.9,43.2,49.5q0.1-2.7.1-5.5c0-27.7-17.6-49.2-43.4-53.7a76.8,76.8,0,0,0-11.1-.9,84.7,84.7,0,0,0-11.6.9C82.9,39,65.3,60.5,65.3,88.1q0,2.8.1,5.5C67.1,68,84.3,48.4,108.7,44.1Z" style="fill:#fff"/>
    </g>
    <path d="M125.4,136.4c19.6-.5,28.4-3.6,37.2-11.1s12.1-21.8,12.1-37.2c0-27.7-17.6-49.2-43.4-53.7a76.8,76.8,0,0,0-11.1-.9,84.7,84.7,0,0,0-11.6.9C82.9,39,65.3,60.5,65.3,88.1c0,15.4,3.2,29.6,12.1,37.2s18.2,10.8,39.5,11.1h8.5Z" style="fill:none;stroke:#1d132d;stroke-miterlimit:10;stroke-width:2px"/>
    <path d="M125.4,136.4c19.6-.5,28.4-3.6,37.2-11.1s12.1-21.8,12.1-37.2c0-27.7-17.6-49.2-43.4-53.7a76.8,76.8,0,0,0-11.1-.9,84.7,84.7,0,0,0-11.6.9C82.9,39,65.3,60.5,65.3,88.1c0,15.4,3.2,29.6,12.1,37.2s18.2,10.8,39.5,11.1h8.5Z" style="fill:none;stroke:#1d132d;stroke-miterlimit:10;stroke-width:2px"/>
    <path d="M109.2,136.5c-7,6.6-11.8,18.9-11.8,29.9,0,16,10.1,19.5,22.6,19.5s22.6-3.4,22.6-19.5c0-11.1-4.9-23.5-12-30.1" style="fill:none;stroke:#1d132d;stroke-miterlimit:10;stroke-width:2px"/>
  </g>
  <g>
    <title>06</title>
    <path d="M120.2,136.6c26.6,0,36.1-4,44.2-10.3l1.7-1.4c11-10.7,8.2-26,8.2-26s-18.9,9.4-54.2,9.4-54.2-9.4-54.2-9.4-2.8,15.4,8.2,26l1.7,1.4c8.1,6.3,17.6,10.3,44.2,10.3" style="fill:#dce3ea"/>
    <path d="M65.8,102.8s18.2,9.4,54.2,9.4,54.2-9.4,54.2-9.4a23.1,23.1,0,0,1,.3,2.5,30.5,30.5,0,0,0-.3-6.5s-18.9,9.4-54.2,9.4-54.2-9.4-54.2-9.4a30.5,30.5,0,0,0-.3,6.5A23.1,23.1,0,0,1,65.8,102.8Z" style="fill:#fff;opacity:0.5"/>
    <path d="M166.1,119.1l-1.7,1.5c-8.1,6.3-17.6,9.4-44.2,9.4h-.4c-26.6,0-36.1-3.1-44.2-9.4L74,119.1a29.2,29.2,0,0,1-8.4-18.7c-.4,4.2-.5,15.9,8.4,24.6l1.7,1.5c8.1,6.3,17.6,9.4,44.2,9.4h.4c26.6,0,36.1-3.1,44.2-9.4l1.7-1.5c8.9-8.7,8.7-20.4,8.4-24.6A29.2,29.2,0,0,1,166.1,119.1Z" style="fill:#180621;opacity:0.15"/>
    <path d="M120.2,136.6c26.6,0,36.1-4,44.2-10.3l1.7-1.4c11-10.7,8.2-26,8.2-26s-18.9,9.4-54.2,9.4-54.2-9.4-54.2-9.4-2.8,15.4,8.2,26l1.7,1.4c8.1,6.3,17.6,10.3,44.2,10.3" style="fill:none;stroke:#1d132d;stroke-linecap:round;stroke-linejoin:round;stroke-width:2px"/>
    <path d="M120.1,119.1a3,3,0,0,1-2.9-2.2,3,3,0,1,0,5.7,0A3,3,0,0,1,120.1,119.1Z" style="fill:#fff"/>
    <path d="M109.6,119.1a3,3,0,0,1-2.9-2.2,3,3,0,1,0,5.7,0A3,3,0,0,1,109.6,119.1Z" style="fill:#fff"/>
    <path d="M130,119.1a3,3,0,0,1-2.9-2.2,3,3,0,1,0,5.7,0A3,3,0,0,1,130,119.1Z" style="fill:#fff"/>
    <circle cx="109.6" cy="116.8" r="2" style="fill:none;stroke:#1d132d;stroke-linecap:round;stroke-linejoin:round;stroke-width:2px"/>
    <circle cx="129.9" cy="116.8" r="2" style="fill:none;stroke:#1d132d;stroke-linecap:round;stroke-linejoin:round;stroke-width:2px"/>
    <circle cx="120.1" cy="116.8" r="2" style="fill:none;stroke:#1d132d;stroke-linecap:round;stroke-linejoin:round;stroke-width:2px"/>
  </g>
  <g>
    <title>06</title>
    <path d="M78.4,76.9a16.2,16.2,0,1,0,30.5,6.3Z" style="fill:#1d132d"/>
    <path d="M78.4,76.9a16.2,16.2,0,1,0,30.5,6.3Z" style="fill:none;stroke:#1d132d;stroke-linecap:round;stroke-linejoin:round;stroke-width:2px"/>
    <path d="M88.2,83a6.1,6.1,0,1,0,10.4,2Z" style="fill:#ff9a00"/>
    <path d="M162.9,76.9a16.2,16.2,0,1,1-30.5,6.3Z" style="fill:#1d132d"/>
    <path d="M162.9,76.9a16.2,16.2,0,1,1-30.5,6.3Z" style="fill:none;stroke:#1d132d;stroke-linecap:round;stroke-linejoin:round;stroke-width:2px"/>
    <path d="M153.1,82.9a6.1,6.1,0,1,1-10.4,2Z" style="fill:#ff9a00"/>
  </g>
  <g/>
</svg>