<svg xmlns="http://www.w3.org/2000/svg" xmlns:xlink="http://www.w3.org/1999/xlink" viewBox="0 0 240 240">
  <ellipse cx="120.5" cy="233.4" rx="43.7" ry="4.9" style="fill:#180621;opacity:0.15"/>
  <g>
    <title>05</title>
    <path d="M98.8,221.4c-.9-12.3-.7-49.2-.7-49.2l18,8.2.2,52.7s-11.9,1.5-17.4-11.7Z" style="fill:#dce3ea"/>
    <path d="M97.7,196.8c4.1,0,7.9,3.4,7.9,7.5s-4,7.2-7.8,7.5" style="fill:#2e4159"/>
    <g style="opacity:0.5">
      <path d="M97.3,196.8l.3,6.9h.7a5.6,5.6,0,0,0,5.2-3.5A7.4,7.4,0,0,0,97.3,196.8Z" style="fill:#fff"/>
    </g>
    <path d="M115.9,232.6c.1.5-7.1,2.5-14.2,2.4a53.2,53.2,0,0,1-13.7-2.4,16.5,16.5,0,0,1,3.9-8.8c3.3-3.9,12.4-3.6,12.4-3.6S113,222.3,115.9,232.6Z" style="fill:#2e4159"/>
    <polyline points="98.2 219.8 98 172.2 116 180.4 116 232.5" style="fill:none;stroke:#1d132d;stroke-linecap:round;stroke-linejoin:round;stroke-width:2px"/>
    <path d="M98.4,196.8a7.4,7.4,0,0,1,.6,14.8" style="fill:none;stroke:#1d132d;stroke-linecap:round;stroke-linejoin:round;stroke-width:2px"/>
    <path d="M98,172.2s-.6,4.9-.8,12.9c3.6,3.9,12.5,7,18.8,6.7V180.4Z" style="fill:#180621;opacity:0.15"/>
    <ellipse cx="99" cy="222.7" rx="4.7" ry="3" style="fill:#fff;opacity:0.5"/>
    <line x1="106" y1="204.3" x2="115.6" y2="204.2" style="fill:none;stroke:#1d132d;stroke-linecap:round;stroke-linejoin:round;stroke-width:2px"/>
    <path d="M116,232.9a14.4,14.4,0,0,0-28.4-1.6,1.9,1.9,0,0,0,1.3,2.2,44.7,44.7,0,0,0,12.6,1.4C111,234.9,116,232.9,116,232.9Z" style="fill:none;stroke:#1d132d;stroke-linecap:round;stroke-linejoin:round;stroke-width:2px"/>
    <path d="M141.3,221.4c.9-12.3.8-49.2.8-49.2l-18,8.2-.2,52.7s11.9,1.5,17.4-11.7Z" style="fill:#dce3ea"/>
    <path d="M142.4,196.8c-4.1,0-7.9,3.4-7.9,7.5s4,7.2,7.8,7.5" style="fill:#2e4159"/>
    <g style="opacity:0.5">
      <path d="M142.8,196.8l-.3,6.9h-.7a5.6,5.6,0,0,1-5.2-3.5A7.4,7.4,0,0,1,142.8,196.8Z" style="fill:#fff"/>
    </g>
    <path d="M124.1,232.6c-.1.5,7.1,2.5,14.2,2.4a53.2,53.2,0,0,0,13.7-2.4,16.5,16.5,0,0,0-3.9-8.8c-3.3-3.9-12.4-3.6-12.4-3.6S127.1,222.3,124.1,232.6Z" style="fill:#2e4159"/>
    <polyline points="141.9 219.8 142.1 172.2 124.1 180.4 124.1 232.5" style="fill:none;stroke:#1d132d;stroke-linecap:round;stroke-linejoin:round;stroke-width:2px"/>
    <path d="M141.7,196.8a7.4,7.4,0,0,0-.6,14.8" style="fill:none;stroke:#1d132d;stroke-linecap:round;stroke-linejoin:round;stroke-width:2px"/>
    <path d="M142.1,172.2s.6,4.9.8,12.9c-3.6,3.9-12.5,7-18.8,6.7V180.4Z" style="fill:#180621;opacity:0.15"/>
    <ellipse cx="141" cy="222.7" rx="4.7" ry="3" style="fill:#fff;opacity:0.5"/>
    <line x1="134.1" y1="204.3" x2="124.5" y2="204.2" style="fill:none;stroke:#1d132d;stroke-linecap:round;stroke-linejoin:round;stroke-width:2px"/>
    <path d="M124.1,232.9a14.4,14.4,0,0,1,28.4-1.6,1.9,1.9,0,0,1-1.3,2.2,44.7,44.7,0,0,1-12.6,1.4C129.1,234.9,124.1,232.9,124.1,232.9Z" style="fill:none;stroke:#1d132d;stroke-linecap:round;stroke-linejoin:round;stroke-width:2px"/>
    <path d="M101.5,230.2a44.7,44.7,0,0,1-12.6-1.4l-.4-.2a14.3,14.3,0,0,0-.9,2.7,1.9,1.9,0,0,0,1.3,2.2,44.7,44.7,0,0,0,12.6,1.4c9.5,0,14.5-2,14.5-2a14.3,14.3,0,0,0-1.2-4.4A48.8,48.8,0,0,1,101.5,230.2Z" style="fill:#180621;opacity:0.15"/>
    <path d="M138.1,230.2a44.7,44.7,0,0,1-12.6-1.4l-.4-.2a14.3,14.3,0,0,0-.9,2.7,1.9,1.9,0,0,0,1.3,2.2,44.7,44.7,0,0,0,12.6,1.4c9.5,0,14.5-2,14.5-2a14.3,14.3,0,0,0-1.2-4.4A48.8,48.8,0,0,1,138.1,230.2Z" style="fill:#180621;opacity:0.15"/>
  </g>
  <g>
    <title>01</title>
    <path d="M87.6,143.7l21.9-8.2a3.9,3.9,0,0,1,5,2.3h0a3.9,3.9,0,0,1-2.3,5l-23.6,8.8a3.8,3.8,0,0,1-1.9.2" style="fill:#dce3ea"/>
    <path d="M87.6,143.7l21.9-8.2a3.9,3.9,0,0,1,5,2.3h0a3.9,3.9,0,0,1-2.3,5l-23.6,8.8a3.8,3.8,0,0,1-1.9.2" style="fill:#180621;opacity:0.15"/>
    <path d="M48.4,134.4a43,43,0,0,0,37.7,47.7s-13.5-20.6-12.9-50a47.3,47.3,0,0,0-12.4-.9A35.1,35.1,0,0,0,48.4,134.4Z" style="fill:#2e4159"/>
    <path d="M58.5,167.3c-13.8-17.3-9.1-28.7-8.7-28.7a15.8,15.8,0,0,1,8.9,28.8" style="fill:#fff;opacity:0.5"/>
    <path d="M58.5,167.3l-1.4-1.8Z" style="fill:#fff;opacity:0.5"/>
    <path d="M48.7,144a14.3,14.3,0,0,1,9.4,3.6c2.2,2,5.4-.8,3.9-3h0a15.7,15.7,0,0,0-12.3-6c-.2,0-1.2,2.3-1.1,6.3C48.7,144.6,48.7,144.3,48.7,144Z" style="fill:#fff;opacity:0.5"/>
    <path d="M49,148.2v0Z" style="fill:#fff;opacity:0.5"/>
    <path d="M48.8,147v0Z" style="fill:#fff;opacity:0.5"/>
    <path d="M48.7,145.9v0Z" style="fill:#fff;opacity:0.5"/>
    <path d="M65.4,152.4v0Z" style="fill:#fff;opacity:0.5"/>
    <path d="M65.1,150.8v0Z" style="fill:#fff;opacity:0.5"/>
    <path d="M62.1,144.6a15.9,15.9,0,0,1,1.9,3A15.8,15.8,0,0,0,62.1,144.6Z" style="fill:#fff;opacity:0.5"/>
    <path d="M64.7,149.4l.2.7Z" style="fill:#fff;opacity:0.5"/>
    <path d="M64.2,148l.3.8Z" style="fill:#fff;opacity:0.5"/>
    <path d="M53.4,159.9l-.6-1.1Z" style="fill:#fff;opacity:0.5"/>
    <path d="M54.4,161.5l-.6-1Z" style="fill:#fff;opacity:0.5"/>
    <path d="M52.6,158.3l-.7-1.5Z" style="fill:#fff;opacity:0.5"/>
    <path d="M55.5,163.2l-.7-1.1Z" style="fill:#fff;opacity:0.5"/>
    <path d="M56.7,165l-.8-1.2Z" style="fill:#fff;opacity:0.5"/>
    <path d="M50.4,153.4l-.3-.9Z" style="fill:#fff;opacity:0.5"/>
    <path d="M50,152.1l-.3-.9Z" style="fill:#fff;opacity:0.5"/>
    <path d="M51.7,156.5l-.5-1.2Z" style="fill:#fff;opacity:0.5"/>
    <path d="M49.6,150.8q-.3-1.3-.5-2.4C49.2,149.1,49.4,149.9,49.6,150.8Z" style="fill:#fff;opacity:0.5"/>
    <path d="M51,154.9l-.4-.9Z" style="fill:#fff;opacity:0.5"/>
    <path d="M55.3,162.4c-8.6-10.8-6.2-18.3-6-18.3a10.6,10.6,0,0,1,10.3,10.2,9.8,9.8,0,0,1-4.3,8.1" style="fill:#dce3ea"/>
    <path d="M59.3,151.7a10.7,10.7,0,0,0-9.9-7.6c-.2,0-1.3,3.2.5,8.5a10.6,10.6,0,0,0,9.5-1Z" style="fill:#fff;opacity:0.5"/>
    <path d="M73.6,136.4l15.5,8.2a3.8,3.8,0,0,1,1.6,5.2h0a3.8,3.8,0,0,1-5.2,1.6l-11.2-5.9" style="fill:#dce3ea"/>
    <path d="M48.4,134.4a43,43,0,0,0,37.7,47.7s-13.5-20.6-12.9-50a47.3,47.3,0,0,0-12.4-.9A35.1,35.1,0,0,0,48.4,134.4Z" style="fill:none;stroke:#1d132d;stroke-linecap:round;stroke-linejoin:round;stroke-width:2px"/>
    <path d="M48.6,144.1h1.2a10.4,10.4,0,0,1,5.5,19.2" style="fill:none;stroke:#1d132d;stroke-linecap:round;stroke-linejoin:round;stroke-width:2px"/>
    <path d="M48.6,138.7h1.2a15.8,15.8,0,0,1,8.9,28.8" style="fill:none;stroke:#1d132d;stroke-linecap:round;stroke-linejoin:round;stroke-width:2px"/>
    <path d="M73.6,136.4l15.5,8.2a3.8,3.8,0,0,1,1.6,5.2h0a3.8,3.8,0,0,1-5.2,1.6l-11.2-5.9" style="fill:none;stroke:#1d132d;stroke-linecap:round;stroke-linejoin:round;stroke-width:2px"/>
    <path d="M87.6,143.7l21.9-8.2a3.9,3.9,0,0,1,5,2.3h0a3.9,3.9,0,0,1-2.3,5l-23.6,8.8a3.8,3.8,0,0,1-1.9.2" style="fill:none;stroke:#1d132d;stroke-linecap:round;stroke-linejoin:round;stroke-width:2px"/>
    <path d="M152.3,143.7l-21.9-8.2a3.9,3.9,0,0,0-5,2.3h0a3.9,3.9,0,0,0,2.3,5l23.6,8.8a3.8,3.8,0,0,0,1.9.2" style="fill:#dce3ea"/>
    <path d="M152.3,143.7l-21.9-8.2a3.9,3.9,0,0,0-5,2.3h0a3.9,3.9,0,0,0,2.3,5l23.6,8.8a3.8,3.8,0,0,0,1.9.2" style="fill:#180621;opacity:0.15"/>
    <path d="M191.6,134.4a43,43,0,0,1-37.7,47.7s13.5-20.6,12.9-50a47.3,47.3,0,0,1,12.4-.9A35.1,35.1,0,0,1,191.6,134.4Z" style="fill:#2e4159"/>
    <path d="M181.5,167.3c13.8-17.3,9.1-28.7,8.8-28.7a15.8,15.8,0,0,0-8.9,28.8" style="fill:#fff;opacity:0.5"/>
    <path d="M181.5,167.3l1.4-1.8Z" style="fill:#fff;opacity:0.5"/>
    <path d="M191.3,144a14.3,14.3,0,0,0-9.4,3.6c-2.2,2-5.4-.8-3.9-3h0a15.7,15.7,0,0,1,12.3-6c.2,0,1.2,2.3,1.1,6.3C191.3,144.6,191.3,144.3,191.3,144Z" style="fill:#fff;opacity:0.5"/>
    <path d="M191,148.2v0Z" style="fill:#fff;opacity:0.5"/>
    <path d="M191.1,147v0Z" style="fill:#fff;opacity:0.5"/>
    <path d="M191.2,145.9v0Z" style="fill:#fff;opacity:0.5"/>
    <path d="M174.6,152.4v0Z" style="fill:#fff;opacity:0.5"/>
    <path d="M174.9,150.8v0Z" style="fill:#fff;opacity:0.5"/>
    <path d="M177.9,144.6a15.9,15.9,0,0,0-1.9,3A15.8,15.8,0,0,1,177.9,144.6Z" style="fill:#fff;opacity:0.5"/>
    <path d="M175.3,149.4l-.2.7Z" style="fill:#fff;opacity:0.5"/>
    <path d="M175.8,148l-.3.8Z" style="fill:#fff;opacity:0.5"/>
    <path d="M186.6,159.9l.6-1.1Z" style="fill:#fff;opacity:0.5"/>
    <path d="M185.6,161.5l.6-1Z" style="fill:#fff;opacity:0.5"/>
    <path d="M187.4,158.3l.7-1.5Z" style="fill:#fff;opacity:0.5"/>
    <path d="M184.5,163.2l.7-1.1Z" style="fill:#fff;opacity:0.5"/>
    <path d="M183.3,165l.8-1.2Z" style="fill:#fff;opacity:0.5"/>
    <path d="M189.6,153.4l.3-.9Z" style="fill:#fff;opacity:0.5"/>
    <path d="M190,152.1l.3-.9Z" style="fill:#fff;opacity:0.5"/>
    <path d="M188.3,156.5l.5-1.2Z" style="fill:#fff;opacity:0.5"/>
    <path d="M190.4,150.8q.3-1.3.5-2.4C190.8,149.1,190.6,149.9,190.4,150.8Z" style="fill:#fff;opacity:0.5"/>
    <path d="M189,154.9l.4-.9Z" style="fill:#fff;opacity:0.5"/>
    <path d="M184.7,162.4c8.6-10.8,6.2-18.3,6-18.3a10.6,10.6,0,0,0-10.3,10.2,9.8,9.8,0,0,0,4.3,8.1" style="fill:#dce3ea"/>
    <path d="M180.3,151.7a10.7,10.7,0,0,1,9.9-7.6c.2,0,1.3,3.2-.5,8.5a10.6,10.6,0,0,1-9.5-1Z" style="fill:#fff;opacity:0.5"/>
    <path d="M166.4,136.4l-15.5,8.2a3.8,3.8,0,0,0-1.6,5.2h0a3.8,3.8,0,0,0,5.2,1.6l11.2-5.9" style="fill:#dce3ea"/>
    <path d="M191.6,134.4a43,43,0,0,1-37.7,47.7s13.5-20.6,12.9-50a47.3,47.3,0,0,1,12.4-.9A35.1,35.1,0,0,1,191.6,134.4Z" style="fill:none;stroke:#1d132d;stroke-linecap:round;stroke-linejoin:round;stroke-width:2px"/>
    <path d="M191.4,144.1h-1.2a10.4,10.4,0,0,0-5.5,19.2" style="fill:none;stroke:#1d132d;stroke-linecap:round;stroke-linejoin:round;stroke-width:2px"/>
    <path d="M191.4,138.7h-1.2a15.8,15.8,0,0,0-8.9,28.8" style="fill:none;stroke:#1d132d;stroke-linecap:round;stroke-linejoin:round;stroke-width:2px"/>
    <path d="M166.4,136.4l-15.5,8.2a3.8,3.8,0,0,0-1.6,5.2h0a3.8,3.8,0,0,0,5.2,1.6l11.2-5.9" style="fill:none;stroke:#1d132d;stroke-linecap:round;stroke-linejoin:round;stroke-width:2px"/>
    <path d="M152.3,143.7l-21.9-8.2a3.9,3.9,0,0,0-5,2.3h0a3.9,3.9,0,0,0,2.3,5l23.6,8.8a3.8,3.8,0,0,0,1.9.2" style="fill:none;stroke:#1d132d;stroke-linecap:round;stroke-linejoin:round;stroke-width:2px"/>
    <circle cx="87" cy="148" r="1.2" style="fill:#1d132d"/>
    <circle cx="152.8" cy="148" r="1.2" style="fill:#1d132d"/>
  </g>
  <g>
    <title>03</title>
    <g style="isolation:isolate">
      <path d="M54.5,76.2H49c-2,0-3.6,4.8-3.6,10.8S47,97.8,49,97.8h5.3" style="fill:#2e4159"/>
      <path d="M72.5,107.4V66.6H60.1c-3.8,0-6.9,9.1-6.9,20.4s3.1,20.4,6.9,20.4Z" style="fill:#dce3ea"/>
      <g style="opacity:0.15;mix-blend-mode:multiply">
        <path d="M55,100h-.2c1.3,4.6,3.2,7.5,5.3,7.5H72.5V91.3A22.9,22.9,0,0,1,55,100Z" style="fill:#180621"/>
      </g>
      <path d="M72.5,107.4V66.4H60.1c-3.8,0-6.9,9.2-6.9,20.5s3.1,20.5,6.9,20.5Z" style="fill:none;stroke:#1d132d;stroke-miterlimit:10;stroke-width:2px"/>
      <path d="M54.5,76.1H49c-2,0-3.6,4.8-3.6,10.8S47,97.7,49,97.7h5.3" style="fill:none;stroke:#1d132d;stroke-miterlimit:10;stroke-width:2px"/>
      <path d="M185.2,76.2h5.5c2,0,3.6,4.8,3.6,10.8s-1.6,10.8-3.6,10.8h-5.3" style="fill:#2e4159"/>
      <path d="M167.2,107.4V66.6h12.4c3.8,0,6.9,9.1,6.9,20.4s-3.1,20.4-6.9,20.4Z" style="fill:#dce3ea"/>
      <g style="opacity:0.15;mix-blend-mode:multiply">
        <path d="M184.7,100h.2c-1.3,4.6-3.2,7.5-5.3,7.5H167.2V91.3A22.9,22.9,0,0,0,184.7,100Z" style="fill:#180621"/>
      </g>
      <path d="M167.2,107.4V66.4h12.4c3.8,0,6.9,9.2,6.9,20.5s-3.1,20.5-6.9,20.5Z" style="fill:none;stroke:#1d132d;stroke-miterlimit:10;stroke-width:2px"/>
      <path d="M185.2,76.1h5.5c2,0,3.6,4.8,3.6,10.8s-1.6,10.8-3.6,10.8h-5.3" style="fill:none;stroke:#1d132d;stroke-miterlimit:10;stroke-width:2px"/>
    </g>
  </g>
  <g>
    <title>ops</title>
    <path d="M131.3,34.4a76.8,76.8,0,0,0-11.1-.9,84.7,84.7,0,0,0-11.6.9C82.9,39,65.3,60.5,65.3,88.1c0,15.4,3.2,29.6,12.1,37.2s18.2,10.8,39.5,11.1h-7.7c-7,6.6-11.8,18.9-11.8,29.9,0,16,10.1,19.5,22.6,19.5s22.6-3.4,22.6-19.5c0-11.1-4.9-23.5-12-30.1h-5.2c19.6-.5,28.4-3.6,37.2-11.1s12.1-21.8,12.1-37.2C174.7,60.5,157.1,39,131.3,34.4Z" style="fill:#00baac"/>
    <path d="M122.2,176.6a7,7,0,0,1-4.2-.6,37,37,0,0,1-11.3-5.5c-2.2-1.6-4.2-2.5-5.7-4.6s-2-3.2-3.1-4.3a41.4,41.4,0,0,0-.3,5c0,16,10.1,19.5,22.6,19.5s22.6-3.4,22.6-19.5a41.7,41.7,0,0,0-.4-5.4C138.5,169,130.2,175.5,122.2,176.6Z" style="fill:#d9e0e7"/>
    <path d="M120.7,181.7c-10.4,0-19.1-2.4-21.7-12.4l-0.7-.2c1.1,13.8,10.7,16.9,22.5,16.9s21.8-3.2,22.5-17.8l-0.5.2C140.3,179.1,131.4,181.7,120.7,181.7Z" style="fill:#180621;opacity:0.15"/>
    <path d="M128.3,160a4.9,4.9,0,0,1-1.3,3,15.4,15.4,0,0,1-3.1,2.8,30.7,30.7,0,0,1-4.2,2.4,30.8,30.8,0,0,1-4.2-2.4,15.4,15.4,0,0,1-3.1-2.8,4.9,4.9,0,0,1-1.3-3v-12s7.7-7.4,17.1,0v12h0Zm-18-12.7v13.3a5.4,5.4,0,0,0,1.4,3.3,17.1,17.1,0,0,0,3.5,3.1,34.2,34.2,0,0,0,4.6,2.7,34.1,34.1,0,0,0,4.6-2.7,17.1,17.1,0,0,0,3.5-3.1,5.4,5.4,0,0,0,1.4-3.3V147.3c-10.3-8.3-18.9,0-18.9,0h0Z" style="fill:#fff"/>
    <path d="M120.3,156.4v1.7a0.9,0.9,0,0,0,.9-0.8,0.6,0.6,0,0,0-.2-0.5l-0.7-.4h0Z" style="fill:#fff"/>
    <path d="M122.4,158.9a3.8,3.8,0,0,1-2.1.8V161h-0.9v-1.3a7.4,7.4,0,0,1-2.8-.6v-1.8l1.4,0.5,1.5,0.3v-2.1l-0.4-.2a5,5,0,0,1-1.9-1.1,2.2,2.2,0,0,1-.5-1.5,2,2,0,0,1,.8-1.6,3.8,3.8,0,0,1,2.1-.8v-1h0.9v1a7.5,7.5,0,0,1,2.8.6l-0.6,1.6a7.2,7.2,0,0,0-2.1-.5v2l1.8,0.9a2.5,2.5,0,0,1,.8.8,2,2,0,0,1,.3,1,2.1,2.1,0,0,1-.8,1.7h0Zm-9.5-9.4v9.9a4.1,4.1,0,0,0,1,2.5,12.6,12.6,0,0,0,2.5,2.3,24.8,24.8,0,0,0,3.4,2,24.7,24.7,0,0,0,3.4-2,12.6,12.6,0,0,0,2.5-2.3,4.1,4.1,0,0,0,1-2.5v-9.9c-7.6-6.2-13.8,0-13.8,0h0Z" style="fill:#fff"/>
    <path d="M118.5,153.3a0.6,0.6,0,0,0,.2.5l0.7,0.4v-1.6a0.8,0.8,0,0,0-.9.7h0Z" style="fill:#fff"/>
    <path d="M142,160.9c-1.8,6.8-11.5,13.6-21.9,16.1h-0.3c-10.3-2.6-20.3-9.4-22.1-16.1" style="fill:none;stroke:#1d132d;stroke-linecap:round;stroke-linejoin:round;stroke-width:2px"/>
    <path d="M130.5,136.2c-3.1.3-6.1,0.6-9.4,0.6a111.1,111.1,0,0,1-12.3-.4L102,146a41,41,0,0,0,17.6,3.6,40.7,40.7,0,0,0,17.8-3.7C137.2,145.6,130.9,136.7,130.5,136.2Z" style="fill:#180621;opacity:0.15"/>
    <g style="opacity:0.30000000000000004">
      <path d="M108.7,44.1a84.7,84.7,0,0,1,11.6-.9,76.8,76.8,0,0,1,11.1.9c24.4,4.3,41.5,23.9,43.2,49.5q0.1-2.7.1-5.5c0-27.7-17.6-49.2-43.4-53.7a76.8,76.8,0,0,0-11.1-.9,84.7,84.7,0,0,0-11.6.9C82.9,39,65.3,60.5,65.3,88.1q0,2.8.1,5.5C67.1,68,84.3,48.4,108.7,44.1Z" style="fill:#fff"/>
    </g>
    <g style="opacity:0.30000000000000004">
      <path d="M108.7,44.1a84.7,84.7,0,0,1,11.6-.9,76.8,76.8,0,0,1,11.1.9c24.4,4.3,41.5,23.9,43.2,49.5q0.1-2.7.1-5.5c0-27.7-17.6-49.2-43.4-53.7a76.8,76.8,0,0,0-11.1-.9,84.7,84.7,0,0,0-11.6.9C82.9,39,65.3,60.5,65.3,88.1q0,2.8.1,5.5C67.1,68,84.3,48.4,108.7,44.1Z" style="fill:#fff"/>
    </g>
    <path d="M125.4,136.4c19.6-.5,28.4-3.6,37.2-11.1s12.1-21.8,12.1-37.2c0-27.7-17.6-49.2-43.4-53.7a76.8,76.8,0,0,0-11.1-.9,84.7,84.7,0,0,0-11.6.9C82.9,39,65.3,60.5,65.3,88.1c0,15.4,3.2,29.6,12.1,37.2s18.2,10.8,39.5,11.1h8.5Z" style="fill:none;stroke:#1d132d;stroke-miterlimit:10;stroke-width:2px"/>
    <path d="M125.4,136.4c19.6-.5,28.4-3.6,37.2-11.1s12.1-21.8,12.1-37.2c0-27.7-17.6-49.2-43.4-53.7a76.8,76.8,0,0,0-11.1-.9,84.7,84.7,0,0,0-11.6.9C82.9,39,65.3,60.5,65.3,88.1c0,15.4,3.2,29.6,12.1,37.2s18.2,10.8,39.5,11.1h8.5Z" style="fill:none;stroke:#1d132d;stroke-miterlimit:10;stroke-width:2px"/>
    <path d="M109.2,136.5c-7,6.6-11.8,18.9-11.8,29.9,0,16,10.1,19.5,22.6,19.5s22.6-3.4,22.6-19.5c0-11.1-4.9-23.5-12-30.1" style="fill:none;stroke:#1d132d;stroke-miterlimit:10;stroke-width:2px"/>
  </g>
  <g>
    <title>03</title>
    <path d="M105.1,136.2c-13.7-1.1-21.1-4.3-28.4-10.6a15.7,15.7,0,0,1-3.7-4c-2.4-4.2-7.2-18.1-7.2-18.1,14.5,13.8,41.2,11.8,53.6-.4h0c12.4,11.9,37.1,12.9,54,.8,0,0-4.2,13.6-7.6,17.7a31.5,31.5,0,0,1-3.7,4c-7.3,6.3-14.7,9.5-28.4,10.6h.2a20.3,20.3,0,0,0-14.4,7.2h-.1a20.3,20.3,0,0,0-14.4-7.2" style="fill:#2e4159"/>
    <path d="M173.3,103.4c-13.5,13-40.8,11.3-53.1-.5H120v40.2h.2a20.3,20.3,0,0,1,14.4-7.2h-.2c13.7-1.1,21.1-4.3,28.4-10.6,1.4-1.2,2.6-3.2,3.9-4.5C170.3,117.3,173.3,103.4,173.3,103.4Z" style="fill:#fff;opacity:0.2"/>
    <path d="M120.1,107.9h0c12,10.3,34.7,11.6,51.5,1.8,1-3.3,1.7-5.9,1.7-5.9-16.9,12.1-40.8,11-53.1-.9h0C107.7,115,81,117,66.5,103.3c0,0,1.1,3.1,2.5,6.8C83.9,120.3,108.4,118.2,120.1,107.9Z" style="fill:#fff;opacity:0.1"/>
    <g style="opacity:0.2">
      <path d="M106.9,128a1,1,0,0,1-.1-2l7.6-1a1,1,0,1,1,.3,2l-7.6,1Z" style="fill:#fff"/>
      <path d="M107.3,121.9a1,1,0,0,1-.1-2l7.6-1a1,1,0,1,1,.3,2l-7.6,1Z" style="fill:#fff"/>
    </g>
    <line x1="114.6" y1="125.4" x2="106.9" y2="126.5" style="fill:none;stroke:#1d132d;stroke-linecap:round;stroke-linejoin:round;stroke-width:2px"/>
    <line x1="114.9" y1="119.4" x2="107.3" y2="120.4" style="fill:none;stroke:#1d132d;stroke-linecap:round;stroke-linejoin:round;stroke-width:2px"/>
    <g style="opacity:0.2">
      <path d="M133.1,128a1,1,0,0,0,.1-2l-7.6-1a1,1,0,1,0-.3,2l7.6,1Z" style="fill:#fff"/>
      <path d="M132.7,121.9a1,1,0,0,0,.1-2l-7.6-1a1,1,0,0,0-.3,2l7.6,1Z" style="fill:#fff"/>
    </g>
    <line x1="125.4" y1="125.4" x2="133.1" y2="126.5" style="fill:none;stroke:#1d132d;stroke-linecap:round;stroke-linejoin:round;stroke-width:2px"/>
    <line x1="125.1" y1="119.4" x2="132.7" y2="120.4" style="fill:none;stroke:#1d132d;stroke-linecap:round;stroke-linejoin:round;stroke-width:2px"/>
    <path d="M120,143.1h0a20.3,20.3,0,0,1,14.4-7.2h-.2c13.7-1.1,21.1-4.3,28.4-10.6,1.4-1.2,5.2-4.1,8.3-11.7,1.9-4.6,3-13.6,3-13.6-6,16.7-40.7,15.6-54,2.8h.1c-13.4,12.8-48,13.8-54-2.8,0,0,1.2,9,3,13.6,3.1,7.6,7,10.5,8.3,11.7,7.3,6.3,14.7,9.5,28.4,10.6h-.2a20.3,20.3,0,0,1,14.4,7.2h0" style="fill:none;stroke:#1d132d;stroke-linecap:round;stroke-linejoin:round;stroke-width:2px"/>
  </g>
  <g>
    <title>!0_gen_02</title>
    <circle cx="120" cy="81.9" r="16.7" style="fill:none;stroke:#1d132d;stroke-miterlimit:10;stroke-width:2px"/>
    <circle cx="120" cy="81.9" r="16.7" style="fill:#ffde00;stroke:#1d132d;stroke-miterlimit:10;stroke-width:2px"/>
    <circle cx="120" cy="81.9" r="7.5" style="fill:#1d132d"/>
    <ellipse cx="127.2" cy="76.1" rx="6.1" ry="4.5" transform="matrix(0.78, -0.62, 0.62, 0.78, -19.64, 96.14)" style="fill:#fff;opacity:0.5"/>
  </g>
  <g/>
</svg>