<svg xmlns="http://www.w3.org/2000/svg" xmlns:xlink="http://www.w3.org/1999/xlink" viewBox="0 0 240 240">
  <ellipse cx="120.5" cy="233.4" rx="43.7" ry="4.9" style="fill:#180621;opacity:0.15"/>
  <g>
    <title>05</title>
    <path d="M98.8,221.4c-.9-12.3-.7-49.2-.7-49.2l18,8.2.2,52.7s-11.9,1.5-17.4-11.7Z" style="fill:#dce3ea"/>
    <path d="M97.7,196.8c4.1,0,7.9,3.4,7.9,7.5s-4,7.2-7.8,7.5" style="fill:#2e4159"/>
    <g style="opacity:0.5">
      <path d="M97.3,196.8l.3,6.9h.7a5.6,5.6,0,0,0,5.2-3.5A7.4,7.4,0,0,0,97.3,196.8Z" style="fill:#fff"/>
    </g>
    <path d="M115.9,232.6c.1.5-7.1,2.5-14.2,2.4a53.2,53.2,0,0,1-13.7-2.4,16.5,16.5,0,0,1,3.9-8.8c3.3-3.9,12.4-3.6,12.4-3.6S113,222.3,115.9,232.6Z" style="fill:#2e4159"/>
    <polyline points="98.2 219.8 98 172.2 116 180.4 116 232.5" style="fill:none;stroke:#1d132d;stroke-linecap:round;stroke-linejoin:round;stroke-width:2px"/>
    <path d="M98.4,196.8a7.4,7.4,0,0,1,.6,14.8" style="fill:none;stroke:#1d132d;stroke-linecap:round;stroke-linejoin:round;stroke-width:2px"/>
    <path d="M98,172.2s-.6,4.9-.8,12.9c3.6,3.9,12.5,7,18.8,6.7V180.4Z" style="fill:#180621;opacity:0.15"/>
    <ellipse cx="99" cy="222.7" rx="4.7" ry="3" style="fill:#fff;opacity:0.5"/>
    <line x1="106" y1="204.3" x2="115.6" y2="204.2" style="fill:none;stroke:#1d132d;stroke-linecap:round;stroke-linejoin:round;stroke-width:2px"/>
    <path d="M116,232.9a14.4,14.4,0,0,0-28.4-1.6,1.9,1.9,0,0,0,1.3,2.2,44.7,44.7,0,0,0,12.6,1.4C111,234.9,116,232.9,116,232.9Z" style="fill:none;stroke:#1d132d;stroke-linecap:round;stroke-linejoin:round;stroke-width:2px"/>
    <path d="M141.3,221.4c.9-12.3.8-49.2.8-49.2l-18,8.2-.2,52.7s11.9,1.5,17.4-11.7Z" style="fill:#dce3ea"/>
    <path d="M142.4,196.8c-4.1,0-7.9,3.4-7.9,7.5s4,7.2,7.8,7.5" style="fill:#2e4159"/>
    <g style="opacity:0.5">
      <path d="M142.8,196.8l-.3,6.9h-.7a5.6,5.6,0,0,1-5.2-3.5A7.4,7.4,0,0,1,142.8,196.8Z" style="fill:#fff"/>
    </g>
    <path d="M124.1,232.6c-.1.5,7.1,2.5,14.2,2.4a53.2,53.2,0,0,0,13.7-2.4,16.5,16.5,0,0,0-3.9-8.8c-3.3-3.9-12.4-3.6-12.4-3.6S127.1,222.3,124.1,232.6Z" style="fill:#2e4159"/>
    <polyline points="141.9 219.8 142.1 172.2 124.1 180.4 124.1 232.5" style="fill:none;stroke:#1d132d;stroke-linecap:round;stroke-linejoin:round;stroke-width:2px"/>
    <path d="M141.7,196.8a7.4,7.4,0,0,0-.6,14.8" style="fill:none;stroke:#1d132d;stroke-linecap:round;stroke-linejoin:round;stroke-width:2px"/>
    <path d="M142.1,172.2s.6,4.9.8,12.9c-3.6,3.9-12.5,7-18.8,6.7V180.4Z" style="fill:#180621;opacity:0.15"/>
    <ellipse cx="141" cy="222.7" rx="4.7" ry="3" style="fill:#fff;opacity:0.5"/>
    <line x1="134.1" y1="204.3" x2="124.5" y2="204.2" style="fill:none;stroke:#1d132d;stroke-linecap:round;stroke-linejoin:round;stroke-width:2px"/>
    <path d="M124.1,232.9a14.4,14.4,0,0,1,28.4-1.6,1.9,1.9,0,0,1-1.3,2.2,44.7,44.7,0,0,1-12.6,1.4C129.1,234.9,124.1,232.9,124.1,232.9Z" style="fill:none;stroke:#1d132d;stroke-linecap:round;stroke-linejoin:round;stroke-width:2px"/>
    <path d="M101.5,230.2a44.7,44.7,0,0,1-12.6-1.4l-.4-.2a14.3,14.3,0,0,0-.9,2.7,1.9,1.9,0,0,0,1.3,2.2,44.7,44.7,0,0,0,12.6,1.4c9.5,0,14.5-2,14.5-2a14.3,14.3,0,0,0-1.2-4.4A48.8,48.8,0,0,1,101.5,230.2Z" style="fill:#180621;opacity:0.15"/>
    <path d="M138.1,230.2a44.7,44.7,0,0,1-12.6-1.4l-.4-.2a14.3,14.3,0,0,0-.9,2.7,1.9,1.9,0,0,0,1.3,2.2,44.7,44.7,0,0,0,12.6,1.4c9.5,0,14.5-2,14.5-2a14.3,14.3,0,0,0-1.2-4.4A48.8,48.8,0,0,1,138.1,230.2Z" style="fill:#180621;opacity:0.15"/>
  </g>
  <g>
    <title>04</title>
    <g style="isolation:isolate">
      <path d="M109.1,137.6a38.2,38.2,0,0,0-20.3,8.2l.6,1.6,2.9,2.5a32.9,32.9,0,0,1,17.3-7,2.7,2.7,0,1,0-.4-5.4Z" style="fill:#dce3ea"/>
      <path d="M88.3,145.7a41.7,41.7,0,0,1,19.3-8.2,3.3,3.3,0,0,1,1,6.4,39.1,39.1,0,0,0-15.8,6.4" style="fill:none;stroke:#1d132d;stroke-miterlimit:10;stroke-width:2px"/>
      <path d="M92.3,150a31.3,31.3,0,0,1,3.6-2.5,22,22,0,0,0-2.2-5,37.1,37.1,0,0,0-4.8,3.3l.6,1.6Z" style="fill:#180621;opacity:0.15;mix-blend-mode:multiply"/>
      <path d="M67,174a15.6,15.6,0,0,1-2.8-2.5l-.9-1.2-3.4-2.1-4.7,6.3,4.6,5,7.7-5.1Z" style="fill:#2e4159"/>
      <path d="M58.3,161.4a12.8,12.8,0,0,1,0-6.1l-9,.8-.3,5.7,9.9,1.7Z" style="fill:#2e4159"/>
      <path d="M79.1,178.9a18.3,18.3,0,0,1-7.9-1.9l1.3,9.2h5.7Z" style="fill:#2e4159"/>
      <path d="M61.3,153.2a32.1,32.1,0,0,0-2.9,2.5h-.1c-2.7,2.5-.1,9.6,5.8,15.9s12.8,9.3,15.5,6.8h.1a45.6,45.6,0,0,0,5.3-6.1l6-9.2a30.8,30.8,0,0,0,2.6-7.5h0c.3-1.9-1.2-5.1-3.9-8s-5.9-4.6-7.8-4.4h0c-3,.2-6.8,1.7-10.5,3.6" style="fill:#2e4159"/>
      <path d="M81.8,155.8c-4-.4-20.5-2.6-20.5-2.6a32.1,32.1,0,0,0-2.9,2.5h-.1c-2.7,2.5-.1,9.6,5.8,15.9s12.8,9.3,15.5,6.8h.1a14.8,14.8,0,0,0,2.5-2.5C82,174.7,81.6,158.1,81.8,155.8Z" style="fill:#dce3ea"/>
      <polyline points="66.3 175.2 59.8 179.6 55.2 174.6 60.3 167.7" style="fill:none;stroke:#1d132d;stroke-linecap:round;stroke-linejoin:round;stroke-width:2px"/>
      <polyline points="57.9 163.4 49.1 161.9 49.4 156.2 59.1 155.3" style="fill:none;stroke:#1d132d;stroke-linecap:round;stroke-linejoin:round;stroke-width:2px"/>
      <polyline points="71.4 178.4 72.5 186.1 78.2 186 79.1 179" style="fill:none;stroke:#1d132d;stroke-linecap:round;stroke-linejoin:round;stroke-width:2px"/>
      <path d="M79.3,178.8c-2.7,2.5-9.6-.6-15.4-7s-8.3-13.4-5.6-15.9h.1" style="fill:none;stroke:#1d132d;stroke-linecap:round;stroke-linejoin:round;stroke-width:2px"/>
      <path d="M58.4,155.8c5.4-4.9,17.6-12.4,24.5-12.9h0c2.1-.1,4.8,1.3,7.7,4.5s4.2,6.4,3.8,8.2" style="fill:none;stroke:#1d132d;stroke-linecap:round;stroke-linejoin:round;stroke-width:2px"/>
      <path d="M79.4,178.7c5.4-4.9,13.9-16.4,15-23.2" style="fill:none;stroke:#1d132d;stroke-linecap:round;stroke-linejoin:round;stroke-width:2px"/>
      <path d="M91.2,158.5a24.5,24.5,0,0,1-10.8,6.3l-6.5.9a18.5,18.5,0,0,1-8.2-1.5l-3-1.3a18.3,18.3,0,0,1-5.3-3.6c.3,3.3,2.8,8.1,6.9,12.4,5.9,6.3,12.8,9.3,15.5,6.8h.1a45.6,45.6,0,0,0,5.3-6.1l6-9.2a30.8,30.8,0,0,0,2.6-7.5h0a3.4,3.4,0,0,0,0-.4Z" style="fill:#180621;opacity:0.15"/>
      <path d="M131,137.6a38.2,38.2,0,0,1,20.3,8.2l-.6,1.6-2.9,2.5a32.9,32.9,0,0,0-17.3-7,2.7,2.7,0,1,1,.4-5.4Z" style="fill:#dce3ea"/>
      <path d="M151.9,145.7a41.7,41.7,0,0,0-19.3-8.2,3.3,3.3,0,0,0-1,6.4,39.1,39.1,0,0,1,15.8,6.4" style="fill:none;stroke:#1d132d;stroke-miterlimit:10;stroke-width:2px"/>
      <path d="M147.9,150a31.3,31.3,0,0,0-3.6-2.5,22,22,0,0,1,2.2-5,37.1,37.1,0,0,1,4.8,3.3l-.6,1.6Z" style="fill:#180621;opacity:0.15;mix-blend-mode:multiply"/>
      <path d="M173.1,174a15.6,15.6,0,0,0,2.8-2.5l.9-1.2,3.4-2.1,4.7,6.3-4.6,5-7.7-5.1Z" style="fill:#2e4159"/>
      <path d="M181.8,161.4a12.8,12.8,0,0,0,0-6.1l9,.8.3,5.7-9.9,1.7Z" style="fill:#2e4159"/>
      <path d="M161,178.9a18.3,18.3,0,0,0,7.9-1.9l-1.3,9.2h-5.7Z" style="fill:#2e4159"/>
      <path d="M178.8,153.2a32.1,32.1,0,0,1,2.9,2.5h.1c2.7,2.5.1,9.6-5.8,15.9s-12.8,9.3-15.5,6.8h-.1a45.6,45.6,0,0,1-5.3-6.1l-6-9.2a30.8,30.8,0,0,1-2.6-7.5h0c-.3-1.9,1.2-5.1,3.9-8s5.9-4.6,7.8-4.4h0c3,.2,6.8,1.7,10.5,3.6" style="fill:#2e4159"/>
      <path d="M158.3,155.8c4-.4,20.5-2.6,20.5-2.6a32.1,32.1,0,0,1,2.9,2.5h.1c2.7,2.5.1,9.6-5.8,15.9s-12.8,9.3-15.5,6.8h-.1a14.8,14.8,0,0,1-2.5-2.5C158.1,174.7,158.5,158.1,158.3,155.8Z" style="fill:#dce3ea"/>
      <polyline points="173.8 175.2 180.3 179.6 184.9 174.6 179.8 167.7" style="fill:none;stroke:#1d132d;stroke-linecap:round;stroke-linejoin:round;stroke-width:2px"/>
      <polyline points="182.2 163.4 191 161.9 190.7 156.2 181 155.3" style="fill:none;stroke:#1d132d;stroke-linecap:round;stroke-linejoin:round;stroke-width:2px"/>
      <polyline points="168.7 178.4 167.6 186.1 161.9 186 161 179" style="fill:none;stroke:#1d132d;stroke-linecap:round;stroke-linejoin:round;stroke-width:2px"/>
      <path d="M160.8,178.8c2.7,2.5,9.6-.6,15.4-7s8.3-13.4,5.6-15.9h-.1" style="fill:none;stroke:#1d132d;stroke-linecap:round;stroke-linejoin:round;stroke-width:2px"/>
      <path d="M181.7,155.8c-5.4-4.9-17.6-12.4-24.5-12.9h0c-2.1-.1-4.8,1.3-7.7,4.5s-4.2,6.4-3.8,8.2" style="fill:none;stroke:#1d132d;stroke-linecap:round;stroke-linejoin:round;stroke-width:2px"/>
      <path d="M160.7,178.7c-5.4-4.9-13.9-16.4-15-23.2" style="fill:none;stroke:#1d132d;stroke-linecap:round;stroke-linejoin:round;stroke-width:2px"/>
      <path d="M149,158.5a24.5,24.5,0,0,0,10.8,6.3l6.5.9a18.5,18.5,0,0,0,8.2-1.5l3-1.3a18.3,18.3,0,0,0,5.3-3.6c-.3,3.3-2.8,8.1-6.9,12.4-5.9,6.3-12.8,9.3-15.5,6.8h-.1a45.6,45.6,0,0,1-5.3-6.1l-6-9.2a30.8,30.8,0,0,1-2.6-7.5h0a3.4,3.4,0,0,1,0-.4Z" style="fill:#180621;opacity:0.15"/>
      <polyline points="62 153.4 81.7 155.9 82 175.9" style="fill:none;stroke:#1d132d;stroke-linecap:round;stroke-linejoin:round;stroke-width:2px"/>
      <polyline points="178.2 153.4 158.4 155.9 158.1 175.9" style="fill:none;stroke:#1d132d;stroke-linecap:round;stroke-linejoin:round;stroke-width:2px"/>
    </g>
  </g>
  <g>
    <title>01</title>
    <path d="M174.4,95.5l-1.6-19.7,22.3-33.5C199.2,87.8,174.4,95.5,174.4,95.5Z" style="fill:#2e4159"/>
    <path d="M193.7,83.6c-3.7,21.9-20.7,21-20.7,21l1.4-9.1,9.6-6.7Z" style="fill:#2e4159"/>
    <g style="opacity:0.5">
      <path d="M176.4,70.3c2.6,1.2,11.6,4.4,8,18.1-.7,2.7-7.3,5.6-9.7,7.4l-1.9-20Z" style="fill:#fff"/>
    </g>
    <g style="opacity:0.5">
      <path d="M179.6,88.3a18.9,18.9,0,0,0-5.7-14.1l2.6-3.9c2.6,1.2,11.6,4.4,8,18.1-.5,1.7-3.1,3.4-5.7,4.9A22.7,22.7,0,0,0,179.6,88.3Z" style="fill:#fff"/>
    </g>
    <path d="M172.8,75.8l22.3-33.5c4.2,45.6-20.7,53.3-20.7,53.3" style="fill:none;stroke:#1d132d;stroke-linecap:round;stroke-linejoin:round;stroke-width:2px"/>
    <path d="M184,88.8l9.7-5.2c-3.7,21.9-20.7,21-20.7,21" style="fill:none;stroke:#1d132d;stroke-linecap:round;stroke-linejoin:round;stroke-width:2px"/>
    <path d="M184.3,88.3c3.8-10.7-3.2-17.3-7.9-17.2" style="fill:none;stroke:#1d132d;stroke-linecap:round;stroke-linejoin:round;stroke-width:2px"/>
    <path d="M65.7,95.5l1.6-19.7L45,42.3C40.8,87.8,65.7,95.5,65.7,95.5Z" style="fill:#2e4159"/>
    <path d="M46.4,83.6c3.7,21.9,20.7,21,20.7,21l-1.4-9.1-9.6-6.7Z" style="fill:#2e4159"/>
    <g style="opacity:0.5">
      <path d="M63.6,70.3c-2.6,1.2-11.6,4.4-8,18.1.7,2.7,7.3,5.6,9.8,7.4l1.9-20Z" style="fill:#fff"/>
    </g>
    <g style="opacity:0.5">
      <path d="M60.5,88.3a18.9,18.9,0,0,1,5.7-14.1l-2.6-3.9c-2.6,1.2-11.6,4.4-8,18.1.5,1.7,3.1,3.4,5.7,4.9A22.7,22.7,0,0,1,60.5,88.3Z" style="fill:#fff"/>
    </g>
    <path d="M67.3,75.8,45,42.3C40.8,87.8,65.7,95.5,65.7,95.5" style="fill:none;stroke:#1d132d;stroke-linecap:round;stroke-linejoin:round;stroke-width:2px"/>
    <path d="M56.1,88.8l-9.7-5.2c3.7,21.9,20.7,21,20.7,21" style="fill:none;stroke:#1d132d;stroke-linecap:round;stroke-linejoin:round;stroke-width:2px"/>
    <path d="M55.8,88.3C51.9,77.6,58.9,70.9,63.7,71" style="fill:none;stroke:#1d132d;stroke-linecap:round;stroke-linejoin:round;stroke-width:2px"/>
  </g>
  <g>
    <title>02</title>
    <path d="M125.4,136.4c19.6-.5,28.4-3.6,37.2-11.1s12.1-21.8,12.1-37.2c0-27.7-17.6-49.2-43.4-53.7a76.8,76.8,0,0,0-11.1-.9,84.7,84.7,0,0,0-11.6.9C82.9,39,65.3,60.5,65.3,88.1c0,15.4,3.2,29.6,12.1,37.2s18.2,10.8,39.5,11.1Z" style="fill:#ff81a2;stroke:#1d132d;stroke-miterlimit:10;stroke-width:2px"/>
    <path d="M109.2,136.5c-7,6.6-11.8,18.9-11.8,29.9,0,16,10.1,19.5,22.6,19.5s22.6-3.4,22.6-19.5c0-11.1-4.9-23.5-12-30.1" style="fill:#ff81a2;stroke:#1d132d;stroke-miterlimit:10;stroke-width:2px"/>
    <path d="M130.9,136.7c-3.4.7-18,.5-21.3-.1h-.4c-7,6.6-11.8,18.9-11.8,29.9,0,16,10.1,19.5,22.6,19.5s22.6-3.4,22.6-19.5C142.6,155.5,137.8,143.3,130.9,136.7Z" style="fill:#ff81a2"/>
    <path d="M130.5,136.2c-3.1.3-6.1.6-9.4.6a111.1,111.1,0,0,1-12.3-.4L102,146a41,41,0,0,0,17.6,3.6,40.7,40.7,0,0,0,17.8-3.7C137.2,145.6,130.9,136.7,130.5,136.2Z" style="fill:#180621;opacity:0.15"/>
    <polyline points="136.4 144.4 108.9 184.4 101.7 179.9 131 137.6" style="fill:#36c8e3"/>
    <polyline points="103.2 145.2 130.4 184.2 138 180.4 108.3 137.7" style="fill:#36c8e3"/>
    <line x1="108.5" y1="137.7" x2="137.8" y2="180.2" style="fill:none;stroke:#1d132d;stroke-linecap:round;stroke-linejoin:round;stroke-width:2px"/>
    <line x1="103.1" y1="144.7" x2="130.5" y2="184.3" style="fill:none;stroke:#1d132d;stroke-linecap:round;stroke-linejoin:round;stroke-width:2px"/>
    <line x1="114.5" y1="161.4" x2="101.7" y2="179.9" style="fill:none;stroke:#1d132d;stroke-linecap:round;stroke-linejoin:round;stroke-width:2px"/>
    <line x1="130.7" y1="138" x2="119.9" y2="153.7" style="fill:none;stroke:#1d132d;stroke-linecap:round;stroke-linejoin:round;stroke-width:2px"/>
    <line x1="119.5" y1="168.9" x2="108.9" y2="184.4" style="fill:none;stroke:#1d132d;stroke-linecap:round;stroke-linejoin:round;stroke-width:2px"/>
    <line x1="136.4" y1="144.4" x2="124.9" y2="161.1" style="fill:none;stroke:#1d132d;stroke-linecap:round;stroke-linejoin:round;stroke-width:2px"/>
    <path d="M109.5,136.3l-.6.5c-6.9,6.7-11.5,18.8-11.5,29.6,0,16,10.1,19.5,22.6,19.5s22.6-3.4,22.6-19.5c0-11-4.8-23.3-11.8-29.9l-.2-.2" style="fill:none;stroke:#1d132d;stroke-linecap:round;stroke-linejoin:round;stroke-width:2px"/>
    <g style="opacity:0.30000000000000004">
      <path d="M108.7,44.1a84.7,84.7,0,0,1,11.6-.9,76.8,76.8,0,0,1,11.1.9c24.4,4.3,41.5,23.9,43.2,49.5q.1-2.7.1-5.5c0-27.7-17.6-49.2-43.4-53.7a76.8,76.8,0,0,0-11.1-.9,84.7,84.7,0,0,0-11.6.9C82.9,39,65.3,60.5,65.3,88.1q0,2.8.1,5.5C67.1,68,84.3,48.4,108.7,44.1Z" style="fill:#fff"/>
    </g>
    <path d="M125.4,136.4c19.6-.5,28.4-3.6,37.2-11.1s12.1-21.8,12.1-37.2c0-27.7-17.6-49.2-43.4-53.7a76.8,76.8,0,0,0-11.1-.9,84.7,84.7,0,0,0-11.6.9C82.9,39,65.3,60.5,65.3,88.1c0,15.4,3.2,29.6,12.1,37.2s18.2,10.8,39.5,11.1Z" style="fill:none;stroke:#1d132d;stroke-miterlimit:10;stroke-width:2px"/>
    <path d="M109.2,136.5c-7,6.6-11.8,18.9-11.8,29.9,0,16,10.1,19.5,22.6,19.5s22.6-3.4,22.6-19.5c0-11.1-4.9-23.5-12-30.1" style="fill:none;stroke:#1d132d;stroke-miterlimit:10;stroke-width:2px"/>
    <g style="opacity:0.30000000000000004">
      <path d="M108.7,44.1a84.7,84.7,0,0,1,11.6-.9,76.8,76.8,0,0,1,11.1.9c24.4,4.3,41.5,23.9,43.2,49.5q.1-2.7.1-5.5c0-27.7-17.6-49.2-43.4-53.7a76.8,76.8,0,0,0-11.1-.9,84.7,84.7,0,0,0-11.6.9C82.9,39,65.3,60.5,65.3,88.1q0,2.8.1,5.5C67.1,68,84.3,48.4,108.7,44.1Z" style="fill:#fff"/>
    </g>
    <path d="M125.4,136.4c19.6-.5,28.4-3.6,37.2-11.1s12.1-21.8,12.1-37.2c0-27.7-17.6-49.2-43.4-53.7a76.8,76.8,0,0,0-11.1-.9,84.7,84.7,0,0,0-11.6.9C82.9,39,65.3,60.5,65.3,88.1c0,15.4,3.2,29.6,12.1,37.2s18.2,10.8,39.5,11.1Z" style="fill:none;stroke:#1d132d;stroke-miterlimit:10;stroke-width:2px"/>
  </g>
  <g>
    <title>02</title>
    <rect x="109.4" y="128.1" width="21.3" height="7.53" style="fill:#2e4159"/>
    <path d="M109.4,134.3a36.8,36.8,0,0,0-.1-3.7s-.2-.9-.3-1.5l-.3-.2c-2-8.2-8.1-12.7-18.4-14.5l-3.9-.7-.4-.3a25.4,25.4,0,0,1-6.7-1.2c-5.9-2-9.8-6-13.2-10.9l.3,1.8c1.6,9.3,5,17.3,10.9,22.3,8,6.8,15.9,10,32,10.9C109.4,135.6,109.4,134.9,109.4,134.3Z" style="fill:#dce3ea"/>
    <path d="M109.3,130.6s-.2-.9-.3-1.5l-.3-.2c-2-8.2-8.1-12.7-18.4-14.5l-3.9-.7-.4-.3H84.5c5.6,2.8,11,6.2,12.7,12.8a28,28,0,0,1,.7,9.1,92,92,0,0,0,11.5,1.3c0-.7.1-1.4.1-2A36.8,36.8,0,0,0,109.3,130.6Z" style="fill:#2e4159"/>
    <path d="M97.9,133.8c0-12-6.4-18.7-17.5-21.6" style="fill:none;stroke:#1d132d;stroke-linecap:round;stroke-linejoin:round;stroke-width:2px"/>
    <line x1="108.6" y1="128.1" x2="120" y2="128.1" style="fill:none;stroke:#1d132d;stroke-linecap:round;stroke-linejoin:round;stroke-width:2px"/>
    <line x1="78.8" y1="112.3" x2="78.8" y2="126.5" style="fill:none;stroke:#1d132d;stroke-linecap:round;stroke-linejoin:round;stroke-width:2px"/>
    <path d="M109.5,135.6c0-12.6-6.4-18.9-19.1-21.2-9.8-1.8-22.8-4.5-24.5-14.9" style="fill:none;stroke:#1d132d;stroke-linecap:round;stroke-linejoin:round;stroke-width:2px"/>
    <path d="M65.9,99.5l.5,3.6c1.6,9.3,5,17.3,10.9,22.3,9.1,7.8,18.2,10.8,39.5,11.1h3.1" style="fill:none;stroke:#1d132d;stroke-miterlimit:10;stroke-width:2px"/>
    <path d="M130.6,134.3a36.8,36.8,0,0,1,.1-3.7s.2-.9.3-1.5l.3-.2c2-8.2,8.1-12.7,18.4-14.5l3.9-.7.4-.3a25.4,25.4,0,0,0,6.7-1.2c5.9-2,9.8-6,13.2-10.9l-.3,1.8c-1.6,9.3-5,17.3-10.9,22.3-8,6.8-15.9,10-32,10.9C130.6,135.6,130.6,134.9,130.6,134.3Z" style="fill:#dce3ea"/>
    <path d="M130.7,130.6s.2-.9.3-1.5l.3-.2c2-8.2,8.1-12.7,18.4-14.5l3.9-.7.4-.3h1.5c-5.6,2.8-11,6.2-12.7,12.8a28,28,0,0,0-.7,9.1,92,92,0,0,1-11.5,1.3c0-.7-.1-1.4-.1-2A36.8,36.8,0,0,1,130.7,130.6Z" style="fill:#2e4159"/>
    <path d="M142.1,133.8c0-12,6.4-18.7,17.5-21.6" style="fill:none;stroke:#1d132d;stroke-linecap:round;stroke-linejoin:round;stroke-width:2px"/>
    <line x1="131.3" y1="128.1" x2="120" y2="128.1" style="fill:none;stroke:#1d132d;stroke-linecap:round;stroke-linejoin:round;stroke-width:2px"/>
    <line x1="161.2" y1="112.3" x2="161.2" y2="126.5" style="fill:none;stroke:#1d132d;stroke-linecap:round;stroke-linejoin:round;stroke-width:2px"/>
    <path d="M130.5,135.6c0-12.6,6.4-18.9,19.1-21.2,9.8-1.8,22.8-4.5,24.5-14.9" style="fill:none;stroke:#1d132d;stroke-linecap:round;stroke-linejoin:round;stroke-width:2px"/>
    <path d="M174.1,99.5l-.5,3.6c-1.6,9.3-5,17.3-10.9,22.3-9.1,7.8-18.2,10.8-39.5,11.1h-3.1" style="fill:none;stroke:#1d132d;stroke-miterlimit:10;stroke-width:2px"/>
    <line x1="120" y1="128.1" x2="120" y2="136.5" style="fill:none;stroke:#1d132d;stroke-miterlimit:10;stroke-width:2px"/>
    <line x1="114.7" y1="128.4" x2="114.7" y2="136.4" style="fill:none;stroke:#1d132d;stroke-miterlimit:10;stroke-width:2px"/>
    <line x1="125.2" y1="128.4" x2="125.2" y2="136.4" style="fill:none;stroke:#1d132d;stroke-miterlimit:10;stroke-width:2px"/>
  </g>
  <g>
    <title>06</title>
    <path d="M78.4,76.9a16.2,16.2,0,1,0,30.5,6.3Z" style="fill:#1d132d"/>
    <path d="M78.4,76.9a16.2,16.2,0,1,0,30.5,6.3Z" style="fill:none;stroke:#1d132d;stroke-linecap:round;stroke-linejoin:round;stroke-width:2px"/>
    <path d="M88.2,83a6.1,6.1,0,1,0,10.4,2Z" style="fill:#ff9a00"/>
    <path d="M162.9,76.9a16.2,16.2,0,1,1-30.5,6.3Z" style="fill:#1d132d"/>
    <path d="M162.9,76.9a16.2,16.2,0,1,1-30.5,6.3Z" style="fill:none;stroke:#1d132d;stroke-linecap:round;stroke-linejoin:round;stroke-width:2px"/>
    <path d="M153.1,82.9a6.1,6.1,0,1,1-10.4,2Z" style="fill:#ff9a00"/>
  </g>
  <g/>
</svg>