<svg xmlns="http://www.w3.org/2000/svg" xmlns:xlink="http://www.w3.org/1999/xlink" viewBox="0 0 240 240">
  <ellipse cx="120.5" cy="233.4" rx="43.7" ry="4.9" style="fill:#180621;opacity:0.15"/>
  <g>
    <title>03</title>
    <path d="M129.9,192.6c3.9,1.1,6.4,2.9,6.4,4.8s-7.3,6.1-16.3,6.1-16.3-2.7-16.3-6.1,2.5-3.7,6.5-4.8" style="fill:#36c8e3"/>
    <ellipse cx="120" cy="229.8" rx="4.1" ry="2.6" style="fill:#36c8e3"/>
    <ellipse cx="120" cy="221.2" rx="7.2" ry="3.2" style="fill:#36c8e3"/>
    <path d="M118.9,206.3H120c6.2,0,11.3,2,11.3,4.5s-5.1,4.5-11.3,4.5-11.3-2-11.3-4.5,4.5-4.3,10.2-4.5" style="fill:#36c8e3"/>
    <path d="M125.8,192.5c2.3.7,3.7,1.7,3.7,2.8s-4.3,3.6-9.6,3.6-9.6-1.6-9.6-3.6,1.5-2.2,3.8-2.8" style="fill:#180621;opacity:0.25"/>
    <path d="M124.5,206.2c1.8.5,2.9,1.4,2.9,2.3s-3.3,2.9-7.4,2.9-7.4-1.3-7.4-2.9,1.1-1.8,2.9-2.3" style="fill:#180621;opacity:0.25"/>
    <path d="M122.9,217.8c1.1.4,1.8.9,1.8,1.5s-2.1,1.9-4.7,1.9-4.7-.9-4.7-1.9.7-1.2,1.9-1.5" style="fill:#180621;opacity:0.25"/>
    <path d="M121.3,227.1a1.3,1.3,0,0,1,.8,1.1c0,.7-1,1.3-2.2,1.3s-2.2-.6-2.2-1.3a1.3,1.3,0,0,1,.9-1.1" style="fill:#180621;opacity:0.25"/>
    <path d="M137.2,180.3H102.8v7.4c0,3.2,7.7,5.8,17.2,5.8s17.2-2.6,17.2-5.8Z" style="fill:#2e4159"/>
    <path d="M129.9,192.6c3.9,1.1,6.4,2.9,6.4,4.8s-7.3,6.1-16.3,6.1-16.3-2.7-16.3-6.1,2.5-3.7,6.5-4.8" style="fill:none;stroke:#1d132d;stroke-linecap:round;stroke-linejoin:round;stroke-width:2px"/>
    <path d="M118.9,206.3H120c6.2,0,11.3,2,11.3,4.5s-5.1,4.5-11.3,4.5-11.3-2-11.3-4.5,4.5-4.3,10.2-4.5" style="fill:none;stroke:#1d132d;stroke-linecap:round;stroke-linejoin:round;stroke-width:2px"/>
    <ellipse cx="120" cy="221.2" rx="7.2" ry="3.2" style="fill:none;stroke:#1d132d;stroke-linecap:round;stroke-linejoin:round;stroke-width:2px"/>
    <ellipse cx="120" cy="229.8" rx="4.1" ry="2.6" style="fill:none;stroke:#1d132d;stroke-linecap:round;stroke-linejoin:round;stroke-width:2px"/>
    <path d="M137.2,180.3H102.8v7.4c0,3.2,7.7,5.8,17.2,5.8s17.2-2.6,17.2-5.8Z" style="fill:none;stroke:#1d132d;stroke-miterlimit:10;stroke-width:2px"/>
  </g>
  <g>
    <title>06</title>
    <path d="M94,160.1a144.8,144.8,0,0,1,13.8-23c-44.1,15.3-44.4,43-24.4,52.6A140.2,140.2,0,0,1,94,160.1Z" style="fill:#2e4159"/>
    <path d="M86.8,158.2a12.1,12.1,0,0,0-3.4-8.4l-2.3,1.9a9.2,9.2,0,0,1-9.9,15,20.2,20.2,0,0,0-.5,3,12.1,12.1,0,0,0,16.1-11.5Z" style="fill:#dce3ea"/>
    <path d="M94,160.1a144.8,144.8,0,0,1,13.8-23c-44.1,15.3-44.4,43-24.4,52.6A140.2,140.2,0,0,1,94,160.1Z" style="fill:none;stroke:#1d132d;stroke-linecap:round;stroke-linejoin:round;stroke-width:2px"/>
    <path d="M145.7,160.1a144.8,144.8,0,0,0-13.8-23c44.1,15.3,44.4,43,24.4,52.6A140.2,140.2,0,0,0,145.7,160.1Z" style="fill:#2e4159"/>
    <path d="M152.9,158.2a12.1,12.1,0,0,1,3.4-8.4l2.3,1.9a9.2,9.2,0,0,0,9.9,15,20.2,20.2,0,0,1,.5,3,12.1,12.1,0,0,1-16.1-11.5Z" style="fill:#dce3ea"/>
    <path d="M145.7,160.1a144.8,144.8,0,0,0-13.8-23c44.1,15.3,44.4,43,24.4,52.6A140.2,140.2,0,0,0,145.7,160.1Z" style="fill:none;stroke:#1d132d;stroke-linecap:round;stroke-linejoin:round;stroke-width:2px"/>
  </g>
  <g>
    <title>atribute05</title>
    <path d="M70.1,66.9s0.6-2.1.2-1.9c-21.7,13.2-46,35.4-46,35.4S46,111,66,105.1l0.2-1.5C64.3,91.5,65.3,78.1,70.1,66.9Z" style="fill:#dce3ea"/>
    <path d="M65.4,87.4l-0.9,1.5c-1.8,2.7-6.1,7.4-9.7,4.7a4.9,4.9,0,0,1-1.6-4.7c-4.9,2.5-10.2,3.9-15.4,5.9s-7.7,4.1-11.7,5.2l-1.3.7c3.3,1.5,22.9,9.8,41.2,4.4l0.2-1.5A75.5,75.5,0,0,1,65.4,87.4Z" style="fill:#180621;opacity:0.15"/>
    <path d="M65.4,87.4l-0.9,1.5c-1.8,2.7-6.1,7.4-9.7,4.7a4.9,4.9,0,0,1-1.6-4.7c-4.9,2.5-10.2,3.9-15.4,5.9a44.7,44.7,0,0,0-4.2,2,41.3,41.3,0,0,1,19.8,1.8,24.9,24.9,0,0,1,10.2,7.1l2.4-.6,0.2-1.5A75.5,75.5,0,0,1,65.4,87.4Z" style="fill:#180621;opacity:0.15"/>
    <path d="M70.3,65c-19.5,11.8-46,35.4-46,35.4s19,10.4,41.7,4.7" style="fill:none;stroke:#1d132d;stroke-linecap:round;stroke-linejoin:round;stroke-width:2px"/>
    <path d="M65.3,89c-1.7,2.5-5.2,6.6-8.6,6.4s-5-4.9-3.6-7.9,5.6-6,7.3-3.4-1,5.9-3.4,6.4" style="fill:none;stroke:#1d132d;stroke-linecap:round;stroke-linejoin:round;stroke-width:2px"/>
    <line x1="25.1" y1="100.5" x2="51.9" y2="90.1" style="fill:none;stroke:#1d132d;stroke-linecap:round;stroke-linejoin:round;stroke-width:2px"/>
    <path d="M170,66.9s-0.6-2.1-.2-1.9c21.7,13.2,46,35.4,46,35.4s-21.7,10.5-41.7,4.7l-0.2-1.5C175.9,91.5,174.9,78.1,170,66.9Z" style="fill:#dce3ea"/>
    <path d="M174.7,87.4l0.9,1.5c1.8,2.7,6.1,7.4,9.7,4.7a4.9,4.9,0,0,0,1.6-4.7c4.9,2.5,10.2,3.9,15.4,5.9s7.7,4.1,11.7,5.2l1.3,0.7c-3.3,1.5-22.9,9.8-41.2,4.4l-0.2-1.5A75.5,75.5,0,0,0,174.7,87.4Z" style="fill:#180621;opacity:0.15"/>
    <path d="M174.7,87.4l0.9,1.5c1.8,2.7,6.1,7.4,9.7,4.7a4.9,4.9,0,0,0,1.6-4.7c4.9,2.5,10.2,3.9,15.4,5.9a44.7,44.7,0,0,1,4.2,2,41.3,41.3,0,0,0-19.8,1.8,24.9,24.9,0,0,0-10.2,7.1l-2.4-.6-0.2-1.5A75.5,75.5,0,0,0,174.7,87.4Z" style="fill:#180621;opacity:0.15"/>
    <path d="M169.8,65c19.5,11.8,46,35.4,46,35.4s-19,10.4-41.7,4.7" style="fill:none;stroke:#1d132d;stroke-linecap:round;stroke-linejoin:round;stroke-width:2px"/>
    <path d="M174.8,89c1.7,2.5,5.2,6.6,8.6,6.4s5-4.9,3.6-7.9-5.6-6-7.3-3.4,1,5.9,3.4,6.4" style="fill:none;stroke:#1d132d;stroke-linecap:round;stroke-linejoin:round;stroke-width:2px"/>
    <line x1="215.1" y1="100.5" x2="188.2" y2="90.1" style="fill:none;stroke:#1d132d;stroke-linecap:round;stroke-linejoin:round;stroke-width:2px"/>
  </g>
  <g>
    <title>atribute14</title>
    <path d="M131.3,34.3a76.8,76.8,0,0,0-11.1-.9,84.7,84.7,0,0,0-11.6.9C82.9,38.8,65.3,60.4,65.3,88c0,15.4,3.2,29.6,12.1,37.2s18.2,10.8,39.5,11.1h-7.7c-7,6.6-11.8,18.9-11.8,29.9,0,16,10.1,19.5,22.6,19.5s22.6-3.4,22.6-19.5c0-11.1-4.9-23.5-12-30.1h-5.2c19.6-.5,28.4-3.6,37.2-11.1s12.1-21.8,12.1-37.2C174.7,60.4,157.1,38.8,131.3,34.3Z" style="fill:#5858f4"/>
    <path d="M111.2,185a36.3,36.3,0,0,0,5.7.7" style="fill:none;stroke:#1d132d;stroke-linecap:round;stroke-linejoin:round;stroke-width:2px"/>
    <path d="M108.9,136.7a30.2,30.2,0,0,0-3.8,4.5" style="fill:none;stroke:#1d132d;stroke-miterlimit:10;stroke-width:2px"/>
    <path d="M129,185a36.3,36.3,0,0,1-5.7.7" style="fill:none;stroke:#1d132d;stroke-linecap:round;stroke-linejoin:round;stroke-width:2px"/>
    <path d="M131.3,136.7a30.2,30.2,0,0,1,3.8,4.5" style="fill:none;stroke:#1d132d;stroke-miterlimit:10;stroke-width:2px"/>
    <path d="M135.8,144L119.6,153l-15.8-8.7a38.6,38.6,0,0,0-5.8,25,23.3,23.3,0,0,0,2.4,8.4c0.7,1.3,4.7,7.1,6.5,5.4s0.3-4.9.4-6,0.5-4.3.8-6.5l3.6,2.1,0.9-11.8A43.6,43.6,0,0,0,119,164v-0.3c2.2-.9,6-1.8,8.1-3.1l0.9,11.8,3.6-2.1q0.5,3.2.8,6.5c0.1,1.1-.2,5.3.4,6s6.4-3.7,7.1-5a22.2,22.2,0,0,0,2.1-8.2A40.1,40.1,0,0,0,135.8,144Z" style="fill:#dce3ea"/>
    <path d="M130.5,136.1c-3.1.3-6.1,0.6-9.4,0.6a111.1,111.1,0,0,1-12.3-.4l-6.8,9.6a41,41,0,0,0,17.6,3.6,40.7,40.7,0,0,0,17.8-3.7C137.2,145.4,130.9,136.5,130.5,136.1Z" style="fill:#180621;opacity:0.15"/>
    <polyline points="136.6 144.7 119.4 152.7 103.3 145.2" style="fill:none;stroke:#1d132d;stroke-miterlimit:10;stroke-width:2px"/>
    <polyline points="139.9 154 119.3 163.7 100 154.7" style="fill:none;stroke:#1d132d;stroke-miterlimit:10;stroke-width:2px"/>
    <polyline points="112.1 160.6 111.9 172.1 97.4 165.4" style="fill:none;stroke:#1d132d;stroke-miterlimit:10;stroke-width:2px"/>
    <line x1="107.2" y1="170.2" x2="107.2" y2="184.5" style="fill:none;stroke:#1d132d;stroke-miterlimit:10;stroke-width:2px"/>
    <polyline points="127.6 160.4 127.8 171.9 142.3 165.1" style="fill:none;stroke:#1d132d;stroke-miterlimit:10;stroke-width:2px"/>
    <line x1="132.4" y1="170" x2="132.4" y2="184.2" style="fill:none;stroke:#1d132d;stroke-miterlimit:10;stroke-width:2px"/>
    <g style="opacity:0.30000000000000004">
      <path d="M108.7,44.1a84.7,84.7,0,0,1,11.6-.9,76.8,76.8,0,0,1,11.1.9c24.4,4.3,41.5,23.9,43.2,49.5q0.1-2.7.1-5.5c0-27.7-17.6-49.2-43.4-53.7a76.8,76.8,0,0,0-11.1-.9,84.7,84.7,0,0,0-11.6.9C82.9,39,65.3,60.5,65.3,88.1q0,2.8.1,5.5C67.1,68,84.3,48.4,108.7,44.1Z" style="fill:#fff"/>
    </g>
    <path d="M125.4,136.4c19.6-.5,28.4-3.6,37.2-11.1s12.1-21.8,12.1-37.2c0-27.7-17.6-49.2-43.4-53.7a76.8,76.8,0,0,0-11.1-.9,84.7,84.7,0,0,0-11.6.9C82.9,39,65.3,60.5,65.3,88.1c0,15.4,3.2,29.6,12.1,37.2s18.2,10.8,39.5,11.1h8.5Z" style="fill:none;stroke:#1d132d;stroke-miterlimit:10;stroke-width:2px"/>
    <path d="M109.2,136.5c-7,6.6-11.8,18.9-11.8,29.9,0,16,10.1,19.5,22.6,19.5s22.6-3.4,22.6-19.5c0-11.1-4.9-23.5-12-30.1" style="fill:none;stroke:#1d132d;stroke-miterlimit:10;stroke-width:2px"/>
    <g style="opacity:0.30000000000000004">
      <path d="M108.7,44.1a84.7,84.7,0,0,1,11.6-.9,76.8,76.8,0,0,1,11.1.9c24.4,4.3,41.5,23.9,43.2,49.5q0.1-2.7.1-5.5c0-27.7-17.6-49.2-43.4-53.7a76.8,76.8,0,0,0-11.1-.9,84.7,84.7,0,0,0-11.6.9C82.9,39,65.3,60.5,65.3,88.1q0,2.8.1,5.5C67.1,68,84.3,48.4,108.7,44.1Z" style="fill:#fff"/>
    </g>
    <path d="M125.4,136.4c19.6-.5,28.4-3.6,37.2-11.1s12.1-21.8,12.1-37.2c0-27.7-17.6-49.2-43.4-53.7a76.8,76.8,0,0,0-11.1-.9,84.7,84.7,0,0,0-11.6.9C82.9,39,65.3,60.5,65.3,88.1c0,15.4,3.2,29.6,12.1,37.2s18.2,10.8,39.5,11.1h8.5Z" style="fill:none;stroke:#1d132d;stroke-miterlimit:10;stroke-width:2px"/>
  </g>
  <g>
    <title>atribute08</title>
    <path d="M95.1,133.3a51.5,51.5,0,0,0,9.2,1.5c4.2-7.1,3.2-17-3.1-24.3a23.7,23.7,0,0,0-18.4-7.9s-3.6,18.9-.7,24.2c1.9,3.6,6.8,5.7,11.4,7A1.4,1.4,0,0,1,95.1,133.3Z" style="fill:#dce3ea"/>
    <path d="M85.6,122.3a20.6,20.6,0,0,1-4.5-4.2c-0.1,3.6.1,6.9,1.1,8.7,1.9,3.6,6.8,5.7,11.4,7a1.4,1.4,0,0,1,1.5-.5,51.5,51.5,0,0,0,9.2,1.5,18.2,18.2,0,0,0,2-5.1A45.3,45.3,0,0,1,85.6,122.3Z" style="fill:#180621;opacity:0.15"/>
    <path d="M82.8,102.6a23.7,23.7,0,0,1,18.4,7.9c6.5,7.5,7.3,17.7,2.7,24.9l-0.2.3a48,48,0,0,1-8.9-1.4" style="fill:none;stroke:#1d132d;stroke-linecap:round;stroke-linejoin:round;stroke-width:2px"/>
    <ellipse cx="85.7" cy="118.9" rx="14.2" ry="17.7" transform="translate(-56.8 84.6) rotate(-40.7)" style="fill:#2e4159"/>
    <path d="M77.2,103.6A11.9,11.9,0,0,0,84.5,115c5.8,2.7,10.3.4,13.3-3.6l-1.4-1.8C91.1,103.3,83.1,101.1,77.2,103.6Z" style="fill:#fff;opacity:0.2"/>
    <ellipse cx="85.7" cy="118.9" rx="14.2" ry="17.7" transform="translate(-56.8 84.6) rotate(-40.7)" style="fill:none;stroke:#1d132d;stroke-miterlimit:10;stroke-width:2px"/>
    <ellipse cx="84" cy="121.4" rx="11" ry="14.3" transform="translate(-58.8 84.1) rotate(-40.7)" style="fill:#2e4159"/>
    <ellipse cx="84" cy="121.4" rx="11" ry="14.3" transform="translate(-58.8 84.1) rotate(-40.7)" style="fill:#180621;opacity:0.15"/>
    <ellipse cx="84" cy="121.4" rx="11" ry="14.3" transform="translate(-58.8 84.1) rotate(-40.7)" style="fill:none;stroke:#1d132d;stroke-miterlimit:10;stroke-width:2px"/>
    <ellipse cx="78.1" cy="114.4" rx="1.4" ry="1.7" transform="translate(-53.2 70.4) rotate(-37.2)" style="fill:#fff;opacity:0.2"/>
    <ellipse cx="83.8" cy="127.9" rx="1.4" ry="1.7" transform="translate(-60.2 76.6) rotate(-37.2)" style="fill:#fff;opacity:0.2"/>
    <ellipse cx="77.9" cy="114.6" rx="0.3" ry="0.5" transform="translate(-53.4 70.3) rotate(-37.2)" style="fill:none;stroke:#1d132d;stroke-miterlimit:10;stroke-width:2px"/>
    <ellipse cx="91.1" cy="128.1" rx="1.4" ry="1.7" transform="translate(-58.9 81) rotate(-37.2)" style="fill:#fff;opacity:0.2"/>
    <ellipse cx="90.9" cy="128.3" rx="0.3" ry="0.5" transform="translate(-59.1 81) rotate(-37.2)" style="fill:none;stroke:#1d132d;stroke-miterlimit:10;stroke-width:2px"/>
    <ellipse cx="77.6" cy="121.7" rx="1.4" ry="1.7" transform="translate(-57.7 71.6) rotate(-37.2)" style="fill:#fff;opacity:0.2"/>
    <ellipse cx="91.1" cy="120.4" rx="1.4" ry="1.7" transform="translate(-54.2 79.5) rotate(-37.2)" style="fill:#fff;opacity:0.2"/>
    <ellipse cx="91" cy="120.7" rx="0.3" ry="0.5" transform="translate(-54.4 79.5) rotate(-37.2)" style="fill:none;stroke:#1d132d;stroke-miterlimit:10;stroke-width:2px"/>
    <ellipse cx="83.6" cy="128.2" rx="0.3" ry="0.5" transform="translate(-60.5 76.5) rotate(-37.2)" style="fill:none;stroke:#1d132d;stroke-miterlimit:10;stroke-width:2px"/>
    <ellipse cx="77.5" cy="121.9" rx="0.3" ry="0.5" transform="translate(-57.9 71.5) rotate(-37.2)" style="fill:none;stroke:#1d132d;stroke-miterlimit:10;stroke-width:2px"/>
    <ellipse cx="85.4" cy="114.4" rx="1.4" ry="1.7" transform="translate(-51.7 74.8) rotate(-37.2)" style="fill:#fff;opacity:0.2"/>
    <ellipse cx="85.3" cy="114.7" rx="0.3" ry="0.5" transform="translate(-51.9 74.8) rotate(-37.2)" style="fill:none;stroke:#1d132d;stroke-miterlimit:10;stroke-width:2px"/>
    <path d="M144.9,133.3a51.5,51.5,0,0,1-9.2,1.5c-4.2-7.1-3.2-17,3.1-24.3a23.7,23.7,0,0,1,18.4-7.9s3.6,18.9.7,24.2c-1.9,3.6-6.8,5.7-11.4,7A1.4,1.4,0,0,0,144.9,133.3Z" style="fill:#dce3ea"/>
    <path d="M154.4,122.3a20.6,20.6,0,0,0,4.5-4.2c0.1,3.6-.1,6.9-1.1,8.7-1.9,3.6-6.8,5.7-11.4,7a1.4,1.4,0,0,0-1.5-.5,51.5,51.5,0,0,1-9.2,1.5,18.2,18.2,0,0,1-2-5.1A45.3,45.3,0,0,0,154.4,122.3Z" style="fill:#180621;opacity:0.15"/>
    <path d="M157.2,102.6a23.7,23.7,0,0,0-18.4,7.9c-6.4,7.5-7.3,17.7-2.8,24.8l0.3,0.4a78.4,78.4,0,0,0,9.2-1.5" style="fill:none;stroke:#1d132d;stroke-linecap:round;stroke-linejoin:round;stroke-width:2px"/>
    <ellipse cx="154.3" cy="118.9" rx="17.7" ry="14.2" transform="translate(-36.4 158.4) rotate(-49.3)" style="fill:#2e4159"/>
    <path d="M162.8,103.6a11.9,11.9,0,0,1-7.4,11.4c-5.8,2.7-10.3.4-13.3-3.6l1.4-1.8C148.9,103.3,156.9,101.1,162.8,103.6Z" style="fill:#fff;opacity:0.2"/>
    <ellipse cx="154.3" cy="118.9" rx="17.7" ry="14.2" transform="translate(-36.4 158.4) rotate(-49.3)" style="fill:none;stroke:#1d132d;stroke-miterlimit:10;stroke-width:2px"/>
    <ellipse cx="156" cy="121.4" rx="14.3" ry="11" transform="translate(-37.8 160.6) rotate(-49.3)" style="fill:#2e4159"/>
    <ellipse cx="156" cy="121.4" rx="14.3" ry="11" transform="translate(-37.8 160.6) rotate(-49.3)" style="fill:#180621;opacity:0.15"/>
    <ellipse cx="156" cy="121.4" rx="14.3" ry="11" transform="translate(-37.8 160.6) rotate(-49.3)" style="fill:none;stroke:#1d132d;stroke-miterlimit:10;stroke-width:2px"/>
    <ellipse cx="161.9" cy="114.4" rx="1.7" ry="1.4" transform="translate(-27 174.3) rotate(-52.8)" style="fill:#fff;opacity:0.2"/>
    <ellipse cx="156.2" cy="127.9" rx="1.7" ry="1.4" transform="translate(-40.1 175.1) rotate(-52.8)" style="fill:#fff;opacity:0.2"/>
    <ellipse cx="162.1" cy="114.6" rx="0.5" ry="0.3" transform="translate(-27.1 174.6) rotate(-52.8)" style="fill:none;stroke:#1d132d;stroke-miterlimit:10;stroke-width:2px"/>
    <ellipse cx="148.9" cy="128.1" rx="1.7" ry="1.4" transform="translate(-43.1 169.4) rotate(-52.8)" style="fill:#fff;opacity:0.2"/>
    <ellipse cx="149.1" cy="128.3" rx="0.5" ry="0.3" transform="translate(-43.3 169.6) rotate(-52.8)" style="fill:none;stroke:#1d132d;stroke-miterlimit:10;stroke-width:2px"/>
    <ellipse cx="162.4" cy="121.7" rx="1.7" ry="1.4" transform="translate(-32.7 177.6) rotate(-52.8)" style="fill:#fff;opacity:0.2"/>
    <ellipse cx="148.9" cy="120.4" rx="1.7" ry="1.4" transform="translate(-37 166.3) rotate(-52.8)" style="fill:#fff;opacity:0.2"/>
    <ellipse cx="149" cy="120.7" rx="0.5" ry="0.3" transform="translate(-37.2 166.5) rotate(-52.8)" style="fill:none;stroke:#1d132d;stroke-miterlimit:10;stroke-width:2px"/>
    <ellipse cx="156.4" cy="128.2" rx="0.5" ry="0.3" transform="translate(-40.2 175.4) rotate(-52.8)" style="fill:none;stroke:#1d132d;stroke-miterlimit:10;stroke-width:2px"/>
    <ellipse cx="162.5" cy="121.9" rx="0.5" ry="0.3" transform="translate(-32.8 177.8) rotate(-52.8)" style="fill:none;stroke:#1d132d;stroke-miterlimit:10;stroke-width:2px"/>
    <ellipse cx="154.6" cy="114.4" rx="1.7" ry="1.4" transform="translate(-29.9 168.5) rotate(-52.8)" style="fill:#fff;opacity:0.2"/>
    <ellipse cx="154.7" cy="114.7" rx="0.5" ry="0.3" transform="translate(-30.1 168.7) rotate(-52.8)" style="fill:none;stroke:#1d132d;stroke-miterlimit:10;stroke-width:2px"/>
  </g>
  <g>
    <title>atribute11-01</title>
    <polygon points="130.6 97.1 163.6 81.9 167.9 75.8 137.5 75.8 129.7 81.3 110.5 81.3 102.7 75.8 72.4 75.8 76.6 81.9 109.6 97.1 130.6 97.1" style="fill:#2e4159"/>
    <line x1="172.1" y1="75.8" x2="160.9" y2="75.8" style="fill:none;stroke:#1d132d;stroke-linecap:round;stroke-linejoin:round;stroke-width:2px"/>
    <polygon points="130.6 97.1 163.6 81.9 167.9 75.8 137.5 75.8 129.7 81.3 110.5 81.3 102.7 75.8 72.4 75.8 76.6 81.9 109.6 97.1 130.6 97.1" style="fill:none;stroke:#1d132d;stroke-linecap:round;stroke-linejoin:round;stroke-width:2px"/>
    <line x1="67.9" y1="75.8" x2="79.1" y2="75.8" style="fill:none;stroke:#1d132d;stroke-linecap:round;stroke-linejoin:round;stroke-width:2px"/>
    <path d="M112.9,82.4a7.3,7.3,0,1,0,14.4,0H112.9Z" style="fill:#e83a27"/>
  </g>
  <g/>
</svg>