<svg xmlns="http://www.w3.org/2000/svg" xmlns:xlink="http://www.w3.org/1999/xlink" viewBox="0 0 240 240">
  <ellipse cx="120.5" cy="233.4" rx="43.7" ry="4.9" style="fill:#180621;opacity:0.15"/>
  <g>
    <title>02</title>
    <path d="M105.8,191.7a19.1,19.1,0,0,0-4,15.7h0a19.1,19.1,0,0,0,8.3,12.4,22.1,22.1,0,0,1,1.3-3.7,9,9,0,0,1,2.5-3.2,19.2,19.2,0,0,0,8.6,19.2l.3.2a50.8,50.8,0,0,1,9.7-15.2l.4-.4a17.3,17.3,0,0,0,0-24.5" style="fill:#e83a27"/>
    <path d="M128.8,199.2c0,8.3-8.9,14.4-8.9,14.4s-8.9-5.3-8.9-14.4a8.9,8.9,0,1,1,17.8,0Z" style="fill:#fff;opacity:0.5"/>
    <path d="M137.2,180.3H102.8v7.4c0,3.2,7.7,5.8,17.2,5.8s17.2-2.6,17.2-5.8Z" style="fill:#2e4159"/>
    <path d="M137.2,180.3H102.8v7.4c0,3.2,7.7,5.8,17.2,5.8s17.2-2.6,17.2-5.8Z" style="fill:none;stroke:#1d132d;stroke-miterlimit:10;stroke-width:2px"/>
    <path d="M105.8,191.7a19.1,19.1,0,0,0-4,15.7h0a19.1,19.1,0,0,0,8.3,12.4,22.1,22.1,0,0,1,1.3-3.7,9,9,0,0,1,2.5-3.2,19.2,19.2,0,0,0,8.6,19.2l.3.2a50.8,50.8,0,0,1,9.7-15.2l.4-.4a17.3,17.3,0,0,0,0-24.5" style="fill:none;stroke:#1d132d;stroke-linecap:round;stroke-linejoin:round;stroke-width:2px"/>
    <path d="M129,208.3a12.7,12.7,0,0,0-2.6-14.4" style="fill:none;stroke:#1d132d;stroke-linecap:round;stroke-linejoin:round;stroke-width:2px"/>
    <line x1="126.7" y1="212.3" x2="126.1" y2="213.3" style="fill:none;stroke:#1d132d;stroke-linecap:round;stroke-linejoin:round;stroke-width:2px"/>
    <path d="M105.8,191.7a19.1,19.1,0,0,0-4,15.7h0a19.1,19.1,0,0,0,8.3,12.4,22.1,22.1,0,0,1,1.3-3.7,9,9,0,0,1,2.5-3.2,19.2,19.2,0,0,0,8.6,19.2l.3.2a50.8,50.8,0,0,1,9.7-15.2l.4-.4a17.3,17.3,0,0,0,0-24.5" style="fill:#ff81a2"/>
    <path d="M128.8,199.2c0,8.3-8.9,14.4-8.9,14.4s-8.9-5.3-8.9-14.4a8.9,8.9,0,1,1,17.8,0Z" style="fill:#fff;opacity:0.5"/>
    <path d="M137.2,180.3H102.8v7.4c0,3.2,7.7,5.8,17.2,5.8s17.2-2.6,17.2-5.8Z" style="fill:#2e4159"/>
    <path d="M137.2,180.3H102.8v7.4c0,3.2,7.7,5.8,17.2,5.8s17.2-2.6,17.2-5.8Z" style="fill:none;stroke:#1d132d;stroke-miterlimit:10;stroke-width:2px"/>
    <path d="M105.8,191.7a19.1,19.1,0,0,0-4,15.7h0a19.1,19.1,0,0,0,8.3,12.4,22.1,22.1,0,0,1,1.3-3.7,9,9,0,0,1,2.5-3.2,19.2,19.2,0,0,0,8.6,19.2l.3.2a50.8,50.8,0,0,1,9.7-15.2l.4-.4a17.3,17.3,0,0,0,0-24.5" style="fill:none;stroke:#1d132d;stroke-linecap:round;stroke-linejoin:round;stroke-width:2px"/>
    <path d="M129,208.3a12.7,12.7,0,0,0-2.6-14.4" style="fill:none;stroke:#1d132d;stroke-linecap:round;stroke-linejoin:round;stroke-width:2px"/>
    <line x1="126.7" y1="212.3" x2="126.1" y2="213.3" style="fill:none;stroke:#1d132d;stroke-linecap:round;stroke-linejoin:round;stroke-width:2px"/>
  </g>
  <g>
    <title>05</title>
    <path d="M162.8,187.8l23.1-9.5.2-.4a13.2,13.2,0,0,0-.8-8.2c-2.7-6.3-9.6-9.5-15.4-7l-9,3.7Z" style="fill:#dce3ea"/>
    <g style="opacity:0.15">
      <path d="M171.4,178.2c-.5-1.1-.8-3.5-1.8-4.3a4.8,4.8,0,0,0-5.4-.3c-4.2,3.1-.2,8.3.6,12.1a2.8,2.8,0,0,1,0,1.3l11.1-4.5A7.8,7.8,0,0,1,171.4,178.2Z" style="fill:#180621"/>
    </g>
    <path d="M170,162.8l-7.3,2.9c5.8-2.3,12.5.9,15.1,7.2a13.2,13.2,0,0,1,.7,8.3l-.2.4,7.4-2.9.2-.4a13.2,13.2,0,0,0-.7-8.3C182.6,163.5,175.8,160.3,170,162.8Z" style="fill:#fff;opacity:0.5"/>
    <path d="M163.2,187.5a3.7,3.7,0,0,1-3.8-.7,13.3,13.3,0,0,1-3.4-4.9c-2.5-6.4.3-13.5,6.2-15.9s12.9.9,15.4,7.3a13.3,13.3,0,0,1,.9,5.7,3.7,3.7,0,1,1-7.4-.5,5.9,5.9,0,0,0-.4-2.5c-1-2.6-3.6-4-5.8-3.2s-3.1,3.7-2.1,6.3a5.8,5.8,0,0,0,1.5,2.2,3.7,3.7,0,0,1-1.1,6.2Z" style="fill:#dce3ea"/>
    <path d="M103.4,153.3c-6.9.7-17.1,7.3-20.7,13.3a8.3,8.3,0,0,1-2.6,2.7l-12.9-7a8.3,8.3,0,0,1,1.2-4.2c5.8-9.8,19-18.7,30.6-20.9a70.2,70.2,0,0,1,11.7-1Z" style="fill:#dce3ea"/>
    <path d="M109.2,136.2l-5.8,12.8c-11,1.8-21.2,9.9-25.6,17.4l-.9,1.2,3.3,1.8a8.3,8.3,0,0,0,2.6-2.7c3.6-6,13.8-12.6,20.7-13.3l7.2-17.1Z" style="fill:#180621;opacity:0.15"/>
    <path d="M88.9,140.8a7.4,7.4,0,0,1-12.1,8.5" style="fill:#2e4159"/>
    <path d="M86.1,146.6a4.2,4.2,0,0,0,3.9-2.7,6.4,6.4,0,0,0-1-3.1l-6.1,4.3A4.2,4.2,0,0,0,86.1,146.6Z" style="fill:#fff;opacity:0.5"/>
    <path d="M67.2,162.3a8.3,8.3,0,0,1,1.2-4.2c5.8-9.8,19-18.7,30.6-20.9a70.2,70.2,0,0,1,11.7-1" style="fill:none;stroke:#1d132d;stroke-miterlimit:10;stroke-width:2px"/>
    <path d="M103.4,153.3c-6.9.7-15.9,7.5-20.7,13.3a12.7,12.7,0,0,1-2.6,2.7" style="fill:none;stroke:#1d132d;stroke-miterlimit:10;stroke-width:2px"/>
    <path d="M88.9,140.8a7.4,7.4,0,0,1-12.1,8.5" style="fill:none;stroke:#1d132d;stroke-linecap:round;stroke-linejoin:round;stroke-width:2px"/>
    <line x1="87" y1="151.6" x2="90.9" y2="157.8" style="fill:none;stroke:#1d132d;stroke-linecap:round;stroke-linejoin:round;stroke-width:2px"/>
    <path d="M135.7,153.3c6.9.7,17.1,7.3,20.7,13.3a8.3,8.3,0,0,0,2.6,2.7l12.9-7a8.3,8.3,0,0,0-1.2-4.2c-5.8-9.8-19-18.7-30.6-20.9a70.2,70.2,0,0,0-11.7-1Z" style="fill:#dce3ea"/>
    <path d="M158,168.5a15.1,15.1,0,0,1,3.3-2.5c-4.6-7.4-14.6-15.2-25.4-17L130,136.2h-1.5l7.2,17.1c6.9.7,17.1,7.3,20.7,13.3A8.3,8.3,0,0,0,158,168.5Z" style="fill:#180621;opacity:0.15"/>
    <path d="M150.2,140.8a7.4,7.4,0,0,0,12.1,8.5" style="fill:#2e4159"/>
    <path d="M153,146.6a4.2,4.2,0,0,1-3.9-2.7,6.4,6.4,0,0,1,1-3.1l6.1,4.3A4.2,4.2,0,0,1,153,146.6Z" style="fill:#fff;opacity:0.5"/>
    <path d="M171.9,162.3a8.3,8.3,0,0,0-1.2-4.2c-5.8-9.8-19-18.7-30.6-20.9a70.2,70.2,0,0,0-11.7-1" style="fill:none;stroke:#1d132d;stroke-miterlimit:10;stroke-width:2px"/>
    <path d="M135.7,153.3c6.9.7,15.9,7.5,20.7,13.3a7.1,7.1,0,0,0,2,2" style="fill:none;stroke:#1d132d;stroke-miterlimit:10;stroke-width:2px"/>
    <path d="M150.2,140.8a7.4,7.4,0,0,0,12.1,8.5" style="fill:none;stroke:#1d132d;stroke-linecap:round;stroke-linejoin:round;stroke-width:2px"/>
    <line x1="152.2" y1="151.6" x2="148.3" y2="157.8" style="fill:none;stroke:#1d132d;stroke-linecap:round;stroke-linejoin:round;stroke-width:2px"/>
    <line x1="170.4" y1="162.6" x2="162.4" y2="165.9" style="fill:none;stroke:#1d132d;stroke-linecap:round;stroke-linejoin:round;stroke-width:2px"/>
    <line x1="163.1" y1="187.5" x2="183.6" y2="179.4" style="fill:none;stroke:#1d132d;stroke-linecap:round;stroke-linejoin:round;stroke-width:2px"/>
    <line x1="165.8" y1="182.5" x2="168" y2="181.6" style="fill:none;stroke:#1d132d;stroke-linecap:round;stroke-linejoin:round;stroke-width:2px"/>
    <path d="M163.2,187.5a3.7,3.7,0,0,1-3.8-.7,13.3,13.3,0,0,1-3.4-4.9c-2.5-6.4.3-13.5,6.2-15.9s12.9.9,15.4,7.3a13.3,13.3,0,0,1,.9,5.7,3.7,3.7,0,1,1-7.4-.5,5.9,5.9,0,0,0-.4-2.5c-1-2.6-3.6-4-5.8-3.2s-3.1,3.7-2.1,6.3a5.8,5.8,0,0,0,1.5,2.2,3.7,3.7,0,0,1-1.1,6.2Z" style="fill:none;stroke:#1d132d;stroke-linecap:round;stroke-linejoin:round;stroke-width:2px"/>
    <path d="M170.4,162.7c6-2.3,12.8,1.1,15.4,7.5a13.4,13.4,0,0,1,.9,5.7,4.1,4.1,0,0,1-2.8,3.5" style="fill:none;stroke:#1d132d;stroke-linecap:round;stroke-linejoin:round;stroke-width:2px"/>
    <path d="M75.1,187.8l-23.1-9.5-.2-.4a13.2,13.2,0,0,1,.8-8.2c2.7-6.3,9.6-9.5,15.4-7l9,3.7Z" style="fill:#dce3ea"/>
    <g style="opacity:0.15">
      <path d="M66.5,178.2c.5-1.1.8-3.5,1.8-4.3a4.8,4.8,0,0,1,5.4-.3c4.2,3.1.2,8.3-.6,12.1a2.8,2.8,0,0,0,0,1.3l-11.1-4.5A7.8,7.8,0,0,0,66.5,178.2Z" style="fill:#180621"/>
    </g>
    <path d="M67.9,162.8l7.3,2.9c-5.8-2.3-12.5.9-15.1,7.2a13.2,13.2,0,0,0-.7,8.3l.2.4L52,178.5l-.2-.4a13.2,13.2,0,0,1,.7-8.3C55.2,163.5,62.1,160.3,67.9,162.8Z" style="fill:#fff;opacity:0.5"/>
    <path d="M74.7,187.5a3.7,3.7,0,0,0,3.8-.7,13.3,13.3,0,0,0,3.4-4.9c2.5-6.4-.3-13.5-6.2-15.9s-12.9.9-15.4,7.3a13.3,13.3,0,0,0-.9,5.7,3.7,3.7,0,1,0,7.4-.5,5.9,5.9,0,0,1,.4-2.5c1-2.6,3.6-4,5.8-3.2s3.1,3.7,2.1,6.3a5.8,5.8,0,0,1-1.5,2.2,3.7,3.7,0,0,0,1.1,6.2Z" style="fill:#dce3ea"/>
    <line x1="67.5" y1="162.6" x2="75.4" y2="165.9" style="fill:none;stroke:#1d132d;stroke-linecap:round;stroke-linejoin:round;stroke-width:2px"/>
    <line x1="74.8" y1="187.5" x2="54.3" y2="179.4" style="fill:none;stroke:#1d132d;stroke-linecap:round;stroke-linejoin:round;stroke-width:2px"/>
    <line x1="72.1" y1="182.5" x2="69.8" y2="181.6" style="fill:none;stroke:#1d132d;stroke-linecap:round;stroke-linejoin:round;stroke-width:2px"/>
    <path d="M74.7,187.5a3.7,3.7,0,0,0,3.8-.7,13.3,13.3,0,0,0,3.4-4.9c2.5-6.4-.3-13.5-6.2-15.9s-12.9.9-15.4,7.3a13.3,13.3,0,0,0-.9,5.7,3.7,3.7,0,1,0,7.4-.5,5.9,5.9,0,0,1,.4-2.5c1-2.6,3.6-4,5.8-3.2s3.1,3.7,2.1,6.3a5.8,5.8,0,0,1-1.5,2.2,3.7,3.7,0,0,0,1.1,6.2Z" style="fill:none;stroke:#1d132d;stroke-linecap:round;stroke-linejoin:round;stroke-width:2px"/>
    <path d="M67.5,162.7c-6-2.3-12.8,1.1-15.4,7.5a13.4,13.4,0,0,0-.9,5.7,4.1,4.1,0,0,0,2.8,3.5" style="fill:none;stroke:#1d132d;stroke-linecap:round;stroke-linejoin:round;stroke-width:2px"/>
  </g>
  <g>
    <title>03</title>
    <g style="isolation:isolate">
      <path d="M54.5,76.2H49c-2,0-3.6,4.8-3.6,10.8S47,97.8,49,97.8h5.3" style="fill:#2e4159"/>
      <path d="M72.5,107.4V66.6H60.1c-3.8,0-6.9,9.1-6.9,20.4s3.1,20.4,6.9,20.4Z" style="fill:#dce3ea"/>
      <g style="opacity:0.15;mix-blend-mode:multiply">
        <path d="M55,100h-.2c1.3,4.6,3.2,7.5,5.3,7.5H72.5V91.3A22.9,22.9,0,0,1,55,100Z" style="fill:#180621"/>
      </g>
      <path d="M72.5,107.4V66.4H60.1c-3.8,0-6.9,9.2-6.9,20.5s3.1,20.5,6.9,20.5Z" style="fill:none;stroke:#1d132d;stroke-miterlimit:10;stroke-width:2px"/>
      <path d="M54.5,76.1H49c-2,0-3.6,4.8-3.6,10.8S47,97.7,49,97.7h5.3" style="fill:none;stroke:#1d132d;stroke-miterlimit:10;stroke-width:2px"/>
      <path d="M185.2,76.2h5.5c2,0,3.6,4.8,3.6,10.8s-1.6,10.8-3.6,10.8h-5.3" style="fill:#2e4159"/>
      <path d="M167.2,107.4V66.6h12.4c3.8,0,6.9,9.1,6.9,20.4s-3.1,20.4-6.9,20.4Z" style="fill:#dce3ea"/>
      <g style="opacity:0.15;mix-blend-mode:multiply">
        <path d="M184.7,100h.2c-1.3,4.6-3.2,7.5-5.3,7.5H167.2V91.3A22.9,22.9,0,0,0,184.7,100Z" style="fill:#180621"/>
      </g>
      <path d="M167.2,107.4V66.4h12.4c3.8,0,6.9,9.2,6.9,20.5s-3.1,20.5-6.9,20.5Z" style="fill:none;stroke:#1d132d;stroke-miterlimit:10;stroke-width:2px"/>
      <path d="M185.2,76.1h5.5c2,0,3.6,4.8,3.6,10.8s-1.6,10.8-3.6,10.8h-5.3" style="fill:none;stroke:#1d132d;stroke-miterlimit:10;stroke-width:2px"/>
    </g>
  </g>
  <g>
    <title>atribute14</title>
    <path d="M131.3,34.3a76.8,76.8,0,0,0-11.1-.9,84.7,84.7,0,0,0-11.6.9C82.9,38.8,65.3,60.4,65.3,88c0,15.4,3.2,29.6,12.1,37.2s18.2,10.8,39.5,11.1h-7.7c-7,6.6-11.8,18.9-11.8,29.9,0,16,10.1,19.5,22.6,19.5s22.6-3.4,22.6-19.5c0-11.1-4.9-23.5-12-30.1h-5.2c19.6-.5,28.4-3.6,37.2-11.1s12.1-21.8,12.1-37.2C174.7,60.4,157.1,38.8,131.3,34.3Z" style="fill:#5858f4"/>
    <path d="M111.2,185a36.3,36.3,0,0,0,5.7.7" style="fill:none;stroke:#1d132d;stroke-linecap:round;stroke-linejoin:round;stroke-width:2px"/>
    <path d="M108.9,136.7a30.2,30.2,0,0,0-3.8,4.5" style="fill:none;stroke:#1d132d;stroke-miterlimit:10;stroke-width:2px"/>
    <path d="M129,185a36.3,36.3,0,0,1-5.7.7" style="fill:none;stroke:#1d132d;stroke-linecap:round;stroke-linejoin:round;stroke-width:2px"/>
    <path d="M131.3,136.7a30.2,30.2,0,0,1,3.8,4.5" style="fill:none;stroke:#1d132d;stroke-miterlimit:10;stroke-width:2px"/>
    <path d="M135.8,144L119.6,153l-15.8-8.7a38.6,38.6,0,0,0-5.8,25,23.3,23.3,0,0,0,2.4,8.4c0.7,1.3,4.7,7.1,6.5,5.4s0.3-4.9.4-6,0.5-4.3.8-6.5l3.6,2.1,0.9-11.8A43.6,43.6,0,0,0,119,164v-0.3c2.2-.9,6-1.8,8.1-3.1l0.9,11.8,3.6-2.1q0.5,3.2.8,6.5c0.1,1.1-.2,5.3.4,6s6.4-3.7,7.1-5a22.2,22.2,0,0,0,2.1-8.2A40.1,40.1,0,0,0,135.8,144Z" style="fill:#dce3ea"/>
    <path d="M130.5,136.1c-3.1.3-6.1,0.6-9.4,0.6a111.1,111.1,0,0,1-12.3-.4l-6.8,9.6a41,41,0,0,0,17.6,3.6,40.7,40.7,0,0,0,17.8-3.7C137.2,145.4,130.9,136.5,130.5,136.1Z" style="fill:#180621;opacity:0.15"/>
    <polyline points="136.6 144.7 119.4 152.7 103.3 145.2" style="fill:none;stroke:#1d132d;stroke-miterlimit:10;stroke-width:2px"/>
    <polyline points="139.9 154 119.3 163.7 100 154.7" style="fill:none;stroke:#1d132d;stroke-miterlimit:10;stroke-width:2px"/>
    <polyline points="112.1 160.6 111.9 172.1 97.4 165.4" style="fill:none;stroke:#1d132d;stroke-miterlimit:10;stroke-width:2px"/>
    <line x1="107.2" y1="170.2" x2="107.2" y2="184.5" style="fill:none;stroke:#1d132d;stroke-miterlimit:10;stroke-width:2px"/>
    <polyline points="127.6 160.4 127.8 171.9 142.3 165.1" style="fill:none;stroke:#1d132d;stroke-miterlimit:10;stroke-width:2px"/>
    <line x1="132.4" y1="170" x2="132.4" y2="184.2" style="fill:none;stroke:#1d132d;stroke-miterlimit:10;stroke-width:2px"/>
    <g style="opacity:0.30000000000000004">
      <path d="M108.7,44.1a84.7,84.7,0,0,1,11.6-.9,76.8,76.8,0,0,1,11.1.9c24.4,4.3,41.5,23.9,43.2,49.5q0.1-2.7.1-5.5c0-27.7-17.6-49.2-43.4-53.7a76.8,76.8,0,0,0-11.1-.9,84.7,84.7,0,0,0-11.6.9C82.9,39,65.3,60.5,65.3,88.1q0,2.8.1,5.5C67.1,68,84.3,48.4,108.7,44.1Z" style="fill:#fff"/>
    </g>
    <path d="M125.4,136.4c19.6-.5,28.4-3.6,37.2-11.1s12.1-21.8,12.1-37.2c0-27.7-17.6-49.2-43.4-53.7a76.8,76.8,0,0,0-11.1-.9,84.7,84.7,0,0,0-11.6.9C82.9,39,65.3,60.5,65.3,88.1c0,15.4,3.2,29.6,12.1,37.2s18.2,10.8,39.5,11.1h8.5Z" style="fill:none;stroke:#1d132d;stroke-miterlimit:10;stroke-width:2px"/>
    <path d="M109.2,136.5c-7,6.6-11.8,18.9-11.8,29.9,0,16,10.1,19.5,22.6,19.5s22.6-3.4,22.6-19.5c0-11.1-4.9-23.5-12-30.1" style="fill:none;stroke:#1d132d;stroke-miterlimit:10;stroke-width:2px"/>
    <g style="opacity:0.30000000000000004">
      <path d="M108.7,44.1a84.7,84.7,0,0,1,11.6-.9,76.8,76.8,0,0,1,11.1.9c24.4,4.3,41.5,23.9,43.2,49.5q0.1-2.7.1-5.5c0-27.7-17.6-49.2-43.4-53.7a76.8,76.8,0,0,0-11.1-.9,84.7,84.7,0,0,0-11.6.9C82.9,39,65.3,60.5,65.3,88.1q0,2.8.1,5.5C67.1,68,84.3,48.4,108.7,44.1Z" style="fill:#fff"/>
    </g>
    <path d="M125.4,136.4c19.6-.5,28.4-3.6,37.2-11.1s12.1-21.8,12.1-37.2c0-27.7-17.6-49.2-43.4-53.7a76.8,76.8,0,0,0-11.1-.9,84.7,84.7,0,0,0-11.6.9C82.9,39,65.3,60.5,65.3,88.1c0,15.4,3.2,29.6,12.1,37.2s18.2,10.8,39.5,11.1h8.5Z" style="fill:none;stroke:#1d132d;stroke-miterlimit:10;stroke-width:2px"/>
  </g>
  <g>
    <title>03</title>
    <path d="M105.1,136.2c-13.7-1.1-21.1-4.3-28.4-10.6a15.7,15.7,0,0,1-3.7-4c-2.4-4.2-7.2-18.1-7.2-18.1,14.5,13.8,41.2,11.8,53.6-.4h0c12.4,11.9,37.1,12.9,54,.8,0,0-4.2,13.6-7.6,17.7a31.5,31.5,0,0,1-3.7,4c-7.3,6.3-14.7,9.5-28.4,10.6h.2a20.3,20.3,0,0,0-14.4,7.2h-.1a20.3,20.3,0,0,0-14.4-7.2" style="fill:#2e4159"/>
    <path d="M173.3,103.4c-13.5,13-40.8,11.3-53.1-.5H120v40.2h.2a20.3,20.3,0,0,1,14.4-7.2h-.2c13.7-1.1,21.1-4.3,28.4-10.6,1.4-1.2,2.6-3.2,3.9-4.5C170.3,117.3,173.3,103.4,173.3,103.4Z" style="fill:#fff;opacity:0.2"/>
    <path d="M120.1,107.9h0c12,10.3,34.7,11.6,51.5,1.8,1-3.3,1.7-5.9,1.7-5.9-16.9,12.1-40.8,11-53.1-.9h0C107.7,115,81,117,66.5,103.3c0,0,1.1,3.1,2.5,6.8C83.9,120.3,108.4,118.2,120.1,107.9Z" style="fill:#fff;opacity:0.1"/>
    <g style="opacity:0.2">
      <path d="M106.9,128a1,1,0,0,1-.1-2l7.6-1a1,1,0,1,1,.3,2l-7.6,1Z" style="fill:#fff"/>
      <path d="M107.3,121.9a1,1,0,0,1-.1-2l7.6-1a1,1,0,1,1,.3,2l-7.6,1Z" style="fill:#fff"/>
    </g>
    <line x1="114.6" y1="125.4" x2="106.9" y2="126.5" style="fill:none;stroke:#1d132d;stroke-linecap:round;stroke-linejoin:round;stroke-width:2px"/>
    <line x1="114.9" y1="119.4" x2="107.3" y2="120.4" style="fill:none;stroke:#1d132d;stroke-linecap:round;stroke-linejoin:round;stroke-width:2px"/>
    <g style="opacity:0.2">
      <path d="M133.1,128a1,1,0,0,0,.1-2l-7.6-1a1,1,0,1,0-.3,2l7.6,1Z" style="fill:#fff"/>
      <path d="M132.7,121.9a1,1,0,0,0,.1-2l-7.6-1a1,1,0,0,0-.3,2l7.6,1Z" style="fill:#fff"/>
    </g>
    <line x1="125.4" y1="125.4" x2="133.1" y2="126.5" style="fill:none;stroke:#1d132d;stroke-linecap:round;stroke-linejoin:round;stroke-width:2px"/>
    <line x1="125.1" y1="119.4" x2="132.7" y2="120.4" style="fill:none;stroke:#1d132d;stroke-linecap:round;stroke-linejoin:round;stroke-width:2px"/>
    <path d="M120,143.1h0a20.3,20.3,0,0,1,14.4-7.2h-.2c13.7-1.1,21.1-4.3,28.4-10.6,1.4-1.2,5.2-4.1,8.3-11.7,1.9-4.6,3-13.6,3-13.6-6,16.7-40.7,15.6-54,2.8h.1c-13.4,12.8-48,13.8-54-2.8,0,0,1.2,9,3,13.6,3.1,7.6,7,10.5,8.3,11.7,7.3,6.3,14.7,9.5,28.4,10.6h-.2a20.3,20.3,0,0,1,14.4,7.2h0" style="fill:none;stroke:#1d132d;stroke-linecap:round;stroke-linejoin:round;stroke-width:2px"/>
  </g>
  <g>
    <title>atribute11-01</title>
    <polygon points="130.6 97.1 163.6 81.9 167.9 75.8 137.5 75.8 129.7 81.3 110.5 81.3 102.7 75.8 72.4 75.8 76.6 81.9 109.6 97.1 130.6 97.1" style="fill:#2e4159"/>
    <line x1="172.1" y1="75.8" x2="160.9" y2="75.8" style="fill:none;stroke:#1d132d;stroke-linecap:round;stroke-linejoin:round;stroke-width:2px"/>
    <polygon points="130.6 97.1 163.6 81.9 167.9 75.8 137.5 75.8 129.7 81.3 110.5 81.3 102.7 75.8 72.4 75.8 76.6 81.9 109.6 97.1 130.6 97.1" style="fill:none;stroke:#1d132d;stroke-linecap:round;stroke-linejoin:round;stroke-width:2px"/>
    <line x1="67.9" y1="75.8" x2="79.1" y2="75.8" style="fill:none;stroke:#1d132d;stroke-linecap:round;stroke-linejoin:round;stroke-width:2px"/>
    <path d="M112.9,82.4a7.3,7.3,0,1,0,14.4,0H112.9Z" style="fill:#e83a27"/>
  </g>
  <g>
    <title>01</title>
    <path d="M93.2,39.5l14.6,18.4.4-33.5C94.7,28.8,93.2,39.5,93.2,39.5Z" style="fill:#dce3ea"/>
    <path d="M131.7,24.3l.4,33.5,14.6-18.4S145.2,28.8,131.7,24.3Z" style="fill:#dce3ea"/>
    <g style="opacity:0.15">
      <path d="M97.3,31.4a17.7,17.7,0,0,0-4.1,8.1l14.6,18.4V46.3A24.5,24.5,0,0,1,97.3,31.4Z" style="fill:#180621"/>
      <path d="M143,31.8a23.8,23.8,0,0,1-11.1,14.5V57.9l14.6-18.4A17.4,17.4,0,0,0,143,31.8Z" style="fill:#180621"/>
    </g>
    <path d="M93.2,39.5l14.6,18.4.4-33.5C94.7,28.8,93.2,39.5,93.2,39.5Z" style="fill:none;stroke:#1d132d;stroke-linecap:round;stroke-linejoin:round;stroke-width:2px"/>
    <path d="M131.7,24.3l.4,33.5,14.6-18.4S145.2,28.8,131.7,24.3Z" style="fill:none;stroke:#1d132d;stroke-linecap:round;stroke-linejoin:round;stroke-width:2px"/>
  </g>
</svg>