<svg xmlns="http://www.w3.org/2000/svg" xmlns:xlink="http://www.w3.org/1999/xlink" viewBox="0 0 240 240">
  <ellipse cx="120.5" cy="233.4" rx="43.7" ry="4.9" style="fill:#180621;opacity:0.15"/>
  <g>
    <title>03</title>
    <path d="M129.9,192.6c3.9,1.1,6.4,2.9,6.4,4.8s-7.3,6.1-16.3,6.1-16.3-2.7-16.3-6.1,2.5-3.7,6.5-4.8" style="fill:#36c8e3"/>
    <ellipse cx="120" cy="229.8" rx="4.1" ry="2.6" style="fill:#36c8e3"/>
    <ellipse cx="120" cy="221.2" rx="7.2" ry="3.2" style="fill:#36c8e3"/>
    <path d="M118.9,206.3H120c6.2,0,11.3,2,11.3,4.5s-5.1,4.5-11.3,4.5-11.3-2-11.3-4.5,4.5-4.3,10.2-4.5" style="fill:#36c8e3"/>
    <path d="M125.8,192.5c2.3.7,3.7,1.7,3.7,2.8s-4.3,3.6-9.6,3.6-9.6-1.6-9.6-3.6,1.5-2.2,3.8-2.8" style="fill:#180621;opacity:0.25"/>
    <path d="M124.5,206.2c1.8.5,2.9,1.4,2.9,2.3s-3.3,2.9-7.4,2.9-7.4-1.3-7.4-2.9,1.1-1.8,2.9-2.3" style="fill:#180621;opacity:0.25"/>
    <path d="M122.9,217.8c1.1.4,1.8.9,1.8,1.5s-2.1,1.9-4.7,1.9-4.7-.9-4.7-1.9.7-1.2,1.9-1.5" style="fill:#180621;opacity:0.25"/>
    <path d="M121.3,227.1a1.3,1.3,0,0,1,.8,1.1c0,.7-1,1.3-2.2,1.3s-2.2-.6-2.2-1.3a1.3,1.3,0,0,1,.9-1.1" style="fill:#180621;opacity:0.25"/>
    <path d="M137.2,180.3H102.8v7.4c0,3.2,7.7,5.8,17.2,5.8s17.2-2.6,17.2-5.8Z" style="fill:#2e4159"/>
    <path d="M129.9,192.6c3.9,1.1,6.4,2.9,6.4,4.8s-7.3,6.1-16.3,6.1-16.3-2.7-16.3-6.1,2.5-3.7,6.5-4.8" style="fill:none;stroke:#1d132d;stroke-linecap:round;stroke-linejoin:round;stroke-width:2px"/>
    <path d="M118.9,206.3H120c6.2,0,11.3,2,11.3,4.5s-5.1,4.5-11.3,4.5-11.3-2-11.3-4.5,4.5-4.3,10.2-4.5" style="fill:none;stroke:#1d132d;stroke-linecap:round;stroke-linejoin:round;stroke-width:2px"/>
    <ellipse cx="120" cy="221.2" rx="7.2" ry="3.2" style="fill:none;stroke:#1d132d;stroke-linecap:round;stroke-linejoin:round;stroke-width:2px"/>
    <ellipse cx="120" cy="229.8" rx="4.1" ry="2.6" style="fill:none;stroke:#1d132d;stroke-linecap:round;stroke-linejoin:round;stroke-width:2px"/>
    <path d="M137.2,180.3H102.8v7.4c0,3.2,7.7,5.8,17.2,5.8s17.2-2.6,17.2-5.8Z" style="fill:none;stroke:#1d132d;stroke-miterlimit:10;stroke-width:2px"/>
  </g>
  <g>
    <title>02</title>
    <path d="M74.3,169.3c-5.7-2.6-9.8-6.4-10.6-9.4a32.3,32.3,0,0,0-3,5.1h0c-1.4,3.1,3.3,8.3,10.5,11.7s14.3,3.6,15.7.5h0a32.6,32.6,0,0,0,2.1-6.2C86.5,172.7,80.5,172.1,74.3,169.3Z" style="fill:#dce3ea"/>
    <ellipse cx="81.7" cy="154" rx="3.5" ry="8.3" transform="translate(-92.4 163) rotate(-65)" style="fill:#dce3ea"/>
    <path d="M165.8,169.5c5.7-2.6,9.8-6.4,10.6-9.4a32.3,32.3,0,0,1,3,5.1h0c1.4,3.1-3.3,8.3-10.5,11.7s-14.3,3.6-15.7.5h0a32.6,32.6,0,0,1-2.1-6.2C153.7,173,159.7,172.4,165.8,169.5Z" style="fill:#dce3ea"/>
    <ellipse cx="158.4" cy="154.3" rx="8.3" ry="3.5" transform="translate(-50.4 81.4) rotate(-25)" style="fill:#dce3ea"/>
    <g style="opacity:0.15">
      <path d="M74.3,169.3c-5.7-2.6-9.8-6.4-10.6-9.4a32.3,32.3,0,0,0-3,5.1h0c-1.4,3.1,3.3,8.3,10.5,11.7s14.3,3.6,15.7.5h0a32.6,32.6,0,0,0,2.1-6.2C86.5,172.7,80.5,172.1,74.3,169.3Z" style="fill:#180621"/>
      <ellipse cx="81.7" cy="154" rx="3.5" ry="8.3" transform="translate(-92.4 163) rotate(-65)" style="fill:#180621"/>
      <path d="M165.8,169.5c5.7-2.6,9.8-6.4,10.6-9.4a32.3,32.3,0,0,1,3,5.1h0c1.4,3.1-3.3,8.3-10.5,11.7s-14.3,3.6-15.7.5h0a32.6,32.6,0,0,1-2.1-6.2C153.7,173,159.7,172.4,165.8,169.5Z" style="fill:#180621"/>
      <ellipse cx="158.4" cy="154.3" rx="8.3" ry="3.5" transform="translate(-50.4 81.4) rotate(-25)" style="fill:#180621"/>
    </g>
    <path d="M74.3,152.5a7.1,7.1,0,0,1-1.1-1.7A35.3,35.3,0,0,0,62.3,162a34.1,34.1,0,0,0,26.4,10.2,34.9,34.9,0,0,0,1-13.8C84,159.7,78.1,157,74.3,152.5Z" style="fill:#dce3ea"/>
    <path d="M88.7,172.2a33.4,33.4,0,0,0,.7-15.8l-.3-.2a15.6,15.6,0,0,1-14,9.5,14.6,14.6,0,0,1-11.5-5.6L62.3,162C69.4,169,78.8,173,88.7,172.2Z" style="fill:#180621;opacity:0.15"/>
    <path d="M100.2,155.3a11,11,0,0,1,8.1-18.3h1.8" style="fill:#2e4159"/>
    <path d="M75.7,178.9c-1.2,2.5-5.6,6.8-8.1,5.6s-2.1-7.2-1-9.8" style="fill:#2e4159"/>
    <path d="M63.1,172.4c-2.7.7-8.8.5-9.3-1.6s4.3-5.1,6.6-5.9" style="fill:#2e4159"/>
    <path d="M79.6,180.1c1.2,2.5,5.3,7,7.2,6.1s1.2-6.6.2-8.8" style="fill:#2e4159"/>
    <path d="M164.7,179c1.2,2.5,5.6,6.8,8.1,5.6s2.1-7.2,1-9.8" style="fill:#2e4159"/>
    <path d="M177.2,172.5c2.7.7,8.8.5,9.3-1.6s-4.3-5.1-6.6-5.9" style="fill:#2e4159"/>
    <path d="M160.7,180.1c-1.2,2.5-5.3,7-7.2,6.1s-1.2-6.6-.2-8.8" style="fill:#2e4159"/>
    <path d="M160.6,171.9l2.5-.8,4.4-2.1a24.1,24.1,0,0,0,9.3-8.2,35,35,0,0,0-10.2-10.2c-3.1,5.7-10,8.9-16.2,6.7a33.9,33.9,0,0,0,.9,14.7C154.7,173.1,157.6,172.4,160.6,171.9Z" style="fill:#dce3ea"/>
    <path d="M160.6,171.9l2.5-.8,4.4-2.1a24.1,24.1,0,0,0,9.3-8.2l-.4-.7a14.6,14.6,0,0,1-11.5,5.6,15.7,15.7,0,0,1-13.3-8l-1.3-.4a33.9,33.9,0,0,0,.9,14.7C154.7,173.2,156.2,172.8,160.6,171.9Z" style="fill:#180621;opacity:0.15"/>
    <path d="M139.8,155.3a11,11,0,0,0-8.1-18.3h-1.8" style="fill:#2e4159"/>
    <path d="M86.4,177.3c-1.4,3.1-8.5,2.8-15.7-.5s-11.9-8.6-10.5-11.7h0" style="fill:none;stroke:#1d132d;stroke-linecap:round;stroke-linejoin:round;stroke-width:2px"/>
    <path d="M88.5,171.1c-2.3,2-8.3,1.5-14.5-1.4s-10.3-7-10.4-10" style="fill:none;stroke:#1d132d;stroke-linecap:round;stroke-linejoin:round;stroke-width:2px"/>
    <ellipse cx="81.3" cy="154" rx="3.5" ry="8.3" transform="translate(-92.7 162.6) rotate(-65)" style="fill:none;stroke:#1d132d;stroke-linecap:round;stroke-linejoin:round;stroke-width:2px"/>
    <path d="M60.3,165c2.9-6.1,8.6-12.4,14.3-15.2" style="fill:none;stroke:#1d132d;stroke-linecap:round;stroke-linejoin:round;stroke-width:2px"/>
    <path d="M86.5,177.2c2.9-6.1,3.9-14.6,2.5-20.8" style="fill:none;stroke:#1d132d;stroke-linecap:round;stroke-linejoin:round;stroke-width:2px"/>
    <path d="M75.2,178.9c-1.2,2.5-5.6,6.8-8.1,5.6s-2.1-7.2-1-9.8" style="fill:none;stroke:#1d132d;stroke-linecap:round;stroke-linejoin:round;stroke-width:2px"/>
    <path d="M62.7,172.4c-2.7.7-8.8.5-9.3-1.6s4.3-5.1,6.6-5.9" style="fill:none;stroke:#1d132d;stroke-linecap:round;stroke-linejoin:round;stroke-width:2px"/>
    <path d="M79.2,180.1c1.2,2.5,5.3,7,7.2,6.1s1.2-6.6.2-8.8" style="fill:none;stroke:#1d132d;stroke-linecap:round;stroke-linejoin:round;stroke-width:2px"/>
    <line x1="67.6" y1="166.8" x2="65" y2="172.6" style="fill:none;stroke:#1d132d;stroke-linecap:round;stroke-linejoin:round;stroke-width:2px"/>
    <line x1="80" y1="172.6" x2="77.3" y2="178.3" style="fill:none;stroke:#1d132d;stroke-linecap:round;stroke-linejoin:round;stroke-width:2px"/>
    <path d="M100.2,155.3a11,11,0,0,1,8.1-18.3h1.8" style="fill:none;stroke:#1d132d;stroke-linecap:round;stroke-linejoin:round;stroke-width:2px"/>
    <path d="M153.6,177.3c1.4,3.1,8.5,2.8,15.7-.5s11.9-8.6,10.5-11.7h0" style="fill:none;stroke:#1d132d;stroke-linecap:round;stroke-linejoin:round;stroke-width:2px"/>
    <path d="M151.5,171.1c2.3,2,8.3,1.5,14.5-1.4s10.3-7,10.4-10" style="fill:none;stroke:#1d132d;stroke-linecap:round;stroke-linejoin:round;stroke-width:2px"/>
    <ellipse cx="158.7" cy="154" rx="8.3" ry="3.5" transform="translate(-50.2 81.5) rotate(-25)" style="fill:none;stroke:#1d132d;stroke-linecap:round;stroke-linejoin:round;stroke-width:2px"/>
    <path d="M179.7,165c-2.9-6.1-8.6-12.4-14.3-15.2" style="fill:none;stroke:#1d132d;stroke-linecap:round;stroke-linejoin:round;stroke-width:2px"/>
    <path d="M153.5,177.2c-2.9-6.1-3.9-14.6-2.5-20.8" style="fill:none;stroke:#1d132d;stroke-linecap:round;stroke-linejoin:round;stroke-width:2px"/>
    <path d="M164.7,178.9c1.2,2.5,5.6,6.8,8.1,5.6s2.1-7.2,1-9.8" style="fill:none;stroke:#1d132d;stroke-linecap:round;stroke-linejoin:round;stroke-width:2px"/>
    <path d="M177.3,172.4c2.7.7,8.8.5,9.3-1.6s-4.3-5.1-6.6-5.9" style="fill:none;stroke:#1d132d;stroke-linecap:round;stroke-linejoin:round;stroke-width:2px"/>
    <path d="M160.8,180.1c-1.2,2.5-5.3,7-7.2,6.1s-1.2-6.6-.2-8.8" style="fill:none;stroke:#1d132d;stroke-linecap:round;stroke-linejoin:round;stroke-width:2px"/>
    <line x1="172.3" y1="166.8" x2="175" y2="172.6" style="fill:none;stroke:#1d132d;stroke-linecap:round;stroke-linejoin:round;stroke-width:2px"/>
    <line x1="160" y1="172.6" x2="162.6" y2="178.3" style="fill:none;stroke:#1d132d;stroke-linecap:round;stroke-linejoin:round;stroke-width:2px"/>
    <path d="M139.8,155.3a11,11,0,0,0-8.1-18.3h-1.8" style="fill:none;stroke:#1d132d;stroke-linecap:round;stroke-linejoin:round;stroke-width:2px"/>
  </g>
  <g>
    <title>05</title>
    <path d="M72.5,107.4V66.4H69.6c-10.7,0-19.4,9.2-19.4,20.5s8.7,20.5,19.4,20.5Z" style="fill:#dce3ea"/>
    <g style="opacity:0.15">
      <path d="M71,95.5h-.2a24.4,24.4,0,0,1-12.4-3.3l-5-3.8a25.1,25.1,0,0,1-3-3.7,21.7,21.7,0,0,0-.1,2.3c0,11.3,8.7,20.5,19.4,20.5h2.9V95.5Z" style="fill:#180621"/>
    </g>
    <path d="M166.5,107.4V66.4h2.9c10.7,0,19.4,9.2,19.4,20.5s-8.7,20.5-19.4,20.5Z" style="fill:#dce3ea"/>
    <g style="opacity:0.15">
      <path d="M168,95.5h.3a24.4,24.4,0,0,0,12.4-3.3l5-3.8a25.1,25.1,0,0,0,3-3.7,21.7,21.7,0,0,1,.1,2.3c0,11.3-8.7,20.5-19.4,20.5h-2.9V95.5Z" style="fill:#180621"/>
    </g>
    <path d="M72.5,107.4V66.4H69.6c-10.7,0-19.4,9.2-19.4,20.5s8.7,20.5,19.4,20.5Z" style="fill:none;stroke:#1d132d;stroke-miterlimit:10;stroke-width:2px"/>
    <path d="M166.5,107.4V66.4h2.9c10.7,0,19.4,9.2,19.4,20.5s-8.7,20.5-19.4,20.5Z" style="fill:none;stroke:#1d132d;stroke-miterlimit:10;stroke-width:2px"/>
  </g>
  <g>
    <title>02</title>
    <path d="M125.4,136.4c19.6-.5,28.4-3.6,37.2-11.1s12.1-21.8,12.1-37.2c0-27.7-17.6-49.2-43.4-53.7a76.8,76.8,0,0,0-11.1-.9,84.7,84.7,0,0,0-11.6.9C82.9,39,65.3,60.5,65.3,88.1c0,15.4,3.2,29.6,12.1,37.2s18.2,10.8,39.5,11.1Z" style="fill:#ff81a2;stroke:#1d132d;stroke-miterlimit:10;stroke-width:2px"/>
    <path d="M109.2,136.5c-7,6.6-11.8,18.9-11.8,29.9,0,16,10.1,19.5,22.6,19.5s22.6-3.4,22.6-19.5c0-11.1-4.9-23.5-12-30.1" style="fill:#ff81a2;stroke:#1d132d;stroke-miterlimit:10;stroke-width:2px"/>
    <path d="M130.9,136.7c-3.4.7-18,.5-21.3-.1h-.4c-7,6.6-11.8,18.9-11.8,29.9,0,16,10.1,19.5,22.6,19.5s22.6-3.4,22.6-19.5C142.6,155.5,137.8,143.3,130.9,136.7Z" style="fill:#ff81a2"/>
    <path d="M130.5,136.2c-3.1.3-6.1.6-9.4.6a111.1,111.1,0,0,1-12.3-.4L102,146a41,41,0,0,0,17.6,3.6,40.7,40.7,0,0,0,17.8-3.7C137.2,145.6,130.9,136.7,130.5,136.2Z" style="fill:#180621;opacity:0.15"/>
    <polyline points="136.4 144.4 108.9 184.4 101.7 179.9 131 137.6" style="fill:#36c8e3"/>
    <polyline points="103.2 145.2 130.4 184.2 138 180.4 108.3 137.7" style="fill:#36c8e3"/>
    <line x1="108.5" y1="137.7" x2="137.8" y2="180.2" style="fill:none;stroke:#1d132d;stroke-linecap:round;stroke-linejoin:round;stroke-width:2px"/>
    <line x1="103.1" y1="144.7" x2="130.5" y2="184.3" style="fill:none;stroke:#1d132d;stroke-linecap:round;stroke-linejoin:round;stroke-width:2px"/>
    <line x1="114.5" y1="161.4" x2="101.7" y2="179.9" style="fill:none;stroke:#1d132d;stroke-linecap:round;stroke-linejoin:round;stroke-width:2px"/>
    <line x1="130.7" y1="138" x2="119.9" y2="153.7" style="fill:none;stroke:#1d132d;stroke-linecap:round;stroke-linejoin:round;stroke-width:2px"/>
    <line x1="119.5" y1="168.9" x2="108.9" y2="184.4" style="fill:none;stroke:#1d132d;stroke-linecap:round;stroke-linejoin:round;stroke-width:2px"/>
    <line x1="136.4" y1="144.4" x2="124.9" y2="161.1" style="fill:none;stroke:#1d132d;stroke-linecap:round;stroke-linejoin:round;stroke-width:2px"/>
    <path d="M109.5,136.3l-.6.5c-6.9,6.7-11.5,18.8-11.5,29.6,0,16,10.1,19.5,22.6,19.5s22.6-3.4,22.6-19.5c0-11-4.8-23.3-11.8-29.9l-.2-.2" style="fill:none;stroke:#1d132d;stroke-linecap:round;stroke-linejoin:round;stroke-width:2px"/>
    <g style="opacity:0.30000000000000004">
      <path d="M108.7,44.1a84.7,84.7,0,0,1,11.6-.9,76.8,76.8,0,0,1,11.1.9c24.4,4.3,41.5,23.9,43.2,49.5q.1-2.7.1-5.5c0-27.7-17.6-49.2-43.4-53.7a76.8,76.8,0,0,0-11.1-.9,84.7,84.7,0,0,0-11.6.9C82.9,39,65.3,60.5,65.3,88.1q0,2.8.1,5.5C67.1,68,84.3,48.4,108.7,44.1Z" style="fill:#fff"/>
    </g>
    <path d="M125.4,136.4c19.6-.5,28.4-3.6,37.2-11.1s12.1-21.8,12.1-37.2c0-27.7-17.6-49.2-43.4-53.7a76.8,76.8,0,0,0-11.1-.9,84.7,84.7,0,0,0-11.6.9C82.9,39,65.3,60.5,65.3,88.1c0,15.4,3.2,29.6,12.1,37.2s18.2,10.8,39.5,11.1Z" style="fill:none;stroke:#1d132d;stroke-miterlimit:10;stroke-width:2px"/>
    <path d="M109.2,136.5c-7,6.6-11.8,18.9-11.8,29.9,0,16,10.1,19.5,22.6,19.5s22.6-3.4,22.6-19.5c0-11.1-4.9-23.5-12-30.1" style="fill:none;stroke:#1d132d;stroke-miterlimit:10;stroke-width:2px"/>
    <g style="opacity:0.30000000000000004">
      <path d="M108.7,44.1a84.7,84.7,0,0,1,11.6-.9,76.8,76.8,0,0,1,11.1.9c24.4,4.3,41.5,23.9,43.2,49.5q.1-2.7.1-5.5c0-27.7-17.6-49.2-43.4-53.7a76.8,76.8,0,0,0-11.1-.9,84.7,84.7,0,0,0-11.6.9C82.9,39,65.3,60.5,65.3,88.1q0,2.8.1,5.5C67.1,68,84.3,48.4,108.7,44.1Z" style="fill:#fff"/>
    </g>
    <path d="M125.4,136.4c19.6-.5,28.4-3.6,37.2-11.1s12.1-21.8,12.1-37.2c0-27.7-17.6-49.2-43.4-53.7a76.8,76.8,0,0,0-11.1-.9,84.7,84.7,0,0,0-11.6.9C82.9,39,65.3,60.5,65.3,88.1c0,15.4,3.2,29.6,12.1,37.2s18.2,10.8,39.5,11.1Z" style="fill:none;stroke:#1d132d;stroke-miterlimit:10;stroke-width:2px"/>
  </g>
  <g>
    <title>04</title>
    <g style="isolation:isolate">
      <path d="M120.2,136.4c26.6,0,36.1-3.6,44.2-9.9l1.7-1.5c11-10.8,8.2-26.2,8.2-26.2l-12.7,15-12.4-9.3-14.6,13.3-14.5-11.3h-.2l-14.5,11.3L90.8,104.5l-12.4,9.3-12.7-15S63,114.3,74,125l1.7,1.5c8.1,6.3,17.6,10.1,44.2,10.1" style="fill:#dce3ea"/>
      <path d="M65.8,103.5l12.7,15,12.4-9.3,14.6,13.3,14.5-11.3h.2l14.5,11.3,14.6-13.3,12.4,9.3,12.7-15s.1.8.2,2.2a31.3,31.3,0,0,0-.2-6.9l-12.7,15-12.4-9.3-14.6,13.3-14.5-11.3h-.2l-14.5,11.3L90.8,104.5l-12.4,9.3-12.7-15a31.3,31.3,0,0,0-.2,6.9C65.7,104.3,65.8,103.5,65.8,103.5Z" style="fill:#fff;opacity:0.5"/>
      <path d="M166.1,119.1l-1.7,1.5c-8.1,6.3-17.6,9.4-44.2,9.4h-.4c-26.6,0-36.1-3.1-44.2-9.4L74,119.1a29.2,29.2,0,0,1-8.4-18.7c-.4,4.2-.5,15.9,8.4,24.6l1.7,1.5c8.1,6.3,17.6,9.4,44.2,9.4h.4c26.6,0,36.1-3.1,44.2-9.4l1.7-1.5c8.9-8.7,8.7-20.4,8.4-24.6A29.2,29.2,0,0,1,166.1,119.1Z" style="fill:#180621;opacity:0.15;mix-blend-mode:multiply"/>
      <path d="M120.2,136.6c26.6,0,36.1-4,44.2-10.3l1.7-1.4c11-10.7,8.2-26,8.2-26l-12.7,14.9-12.4-9.3-14.6,13.2-14.5-11.2h-.2l-14.5,11.2L90.8,104.4l-12.4,9.3L65.8,98.8s-2.8,15.4,8.2,26l1.7,1.4c8.1,6.3,17.6,10.3,44.2,10.3" style="fill:none;stroke:#1d132d;stroke-linecap:round;stroke-linejoin:round;stroke-width:2px"/>
    </g>
  </g>
  <g>
    <title>!0_gen_02</title>
    <circle cx="120" cy="81.9" r="16.7" style="fill:none;stroke:#1d132d;stroke-miterlimit:10;stroke-width:2px"/>
    <circle cx="120" cy="81.9" r="16.7" style="fill:#ffde00;stroke:#1d132d;stroke-miterlimit:10;stroke-width:2px"/>
    <circle cx="120" cy="81.9" r="7.5" style="fill:#1d132d"/>
    <ellipse cx="127.2" cy="76.1" rx="6.1" ry="4.5" transform="matrix(0.78, -0.62, 0.62, 0.78, -19.64, 96.14)" style="fill:#fff;opacity:0.5"/>
  </g>
  <g>
    <title>02</title>
    <path d="M131,40.3H109.9V22.4s3.7-1.9,10.7-1.9S131,22.4,131,22.4V40.3Z" style="fill:#dce3ea"/>
    <polygon points="101.5 31.5 109.8 40.3 109.9 22.3 101.5 31.5" style="fill:#dce3ea"/>
    <polygon points="138.8 31.5 131 40.3 131 22.3 138.8 31.5" style="fill:#dce3ea"/>
    <path d="M119.7,59c3.7-2,33.1-16.8,33-17-1.9-2.6,2.4-3.9-2.2-4.8l-47,1.9L90.3,37.9c-2.5.3-.7,3.8-1,4.1S113.1,55.5,119,58.9l0.4,0.4h0.1l0.8,0.5Z" style="fill:#dce3ea"/>
    <path d="M119.7,59c3.7-2,33.1-16.8,33-17-1.9-2.6,2.4-3.9-2.2-4.8l-47,1.9L90.3,37.9c-2.5.3-.7,3.8-1,4.1S113.1,55.5,119,58.9l0.4,0.4h0.1l0.8,0.5Z" style="fill:#180621;opacity:0.15"/>
    <path d="M119.7,53.9c3.7-2,33.2-16.8,33-17a46.1,46.1,0,0,0-14.1-5.7l-35.1,2.9-2-2.5A46.5,46.5,0,0,0,89.3,37c-0.2.1,23.8,13.4,29.7,16.8l0.4,0.4h0.1l0.8,0.5Z" style="fill:#dce3ea"/>
    <polygon points="101.5 31.5 109.8 40.3 109.9 22.3 101.5 31.5" style="fill:#180621;opacity:0.15"/>
    <path d="M131,40.3H109.9V22.4s3.7-1.9,10.7-1.9S131,22.4,131,22.4V40.3Z" style="fill:none;stroke:#1d132d;stroke-linecap:round;stroke-linejoin:round;stroke-width:2px"/>
    <polygon points="138.8 31.5 131 40.3 131 22.3 138.8 31.5" style="fill:#180621;opacity:0.15"/>
    <polygon points="101.5 31.5 109.8 40.3 109.9 22.3 101.5 31.5" style="fill:none;stroke:#1d132d;stroke-linecap:round;stroke-linejoin:round;stroke-width:2px"/>
    <path d="M101.5,31.6A46.5,46.5,0,0,0,89.3,37c-0.2.1,31.1,17.5,30.9,17.6" style="fill:none;stroke:#1d132d;stroke-linecap:round;stroke-linejoin:round;stroke-width:2px"/>
    <path d="M138.7,31.3A46.1,46.1,0,0,1,152.7,37c0.2,0.1-32.6,17.4-32.4,17.5" style="fill:none;stroke:#1d132d;stroke-linecap:round;stroke-linejoin:round;stroke-width:2px"/>
    <path d="M89.3,37s0.1,2.8.1,5c0,0.2,31,17.4,30.8,17.5" style="fill:none;stroke:#1d132d;stroke-linecap:round;stroke-linejoin:round;stroke-width:2px"/>
    <path d="M152.8,37s-0.1,2.8-.1,5c0,0.2-32.7,17.4-32.5,17.5" style="fill:none;stroke:#1d132d;stroke-linecap:round;stroke-linejoin:round;stroke-width:2px"/>
    <polygon points="138.8 31.5 131 40.3 131 22.3 138.8 31.5" style="fill:none;stroke:#1d132d;stroke-linecap:round;stroke-linejoin:round;stroke-width:2px"/>
    <path d="M110.6,28.4H118a2.9,2.9,0,0,1,2.9,3h0a2.9,2.9,0,0,1-2.9,3H111" style="fill:none;stroke:#1d132d;stroke-linecap:round;stroke-linejoin:round;stroke-width:2px"/>
    <path d="M110.6,28.4H118a2.9,2.9,0,0,1,2.9,3h0a2.9,2.9,0,0,1-2.9,3H111" style="fill:#180621;opacity:0.35000000000000003"/>
  </g>
</svg>