<svg xmlns="http://www.w3.org/2000/svg" xmlns:xlink="http://www.w3.org/1999/xlink" viewBox="0 0 240 240">
  <ellipse cx="120.5" cy="233.4" rx="43.7" ry="4.9" style="fill:#180621;opacity:0.15"/>
  <g>
    <title>05</title>
    <path d="M98.8,221.4c-.9-12.3-.7-49.2-.7-49.2l18,8.2.2,52.7s-11.9,1.5-17.4-11.7Z" style="fill:#dce3ea"/>
    <path d="M97.7,196.8c4.1,0,7.9,3.4,7.9,7.5s-4,7.2-7.8,7.5" style="fill:#2e4159"/>
    <g style="opacity:0.5">
      <path d="M97.3,196.8l.3,6.9h.7a5.6,5.6,0,0,0,5.2-3.5A7.4,7.4,0,0,0,97.3,196.8Z" style="fill:#fff"/>
    </g>
    <path d="M115.9,232.6c.1.5-7.1,2.5-14.2,2.4a53.2,53.2,0,0,1-13.7-2.4,16.5,16.5,0,0,1,3.9-8.8c3.3-3.9,12.4-3.6,12.4-3.6S113,222.3,115.9,232.6Z" style="fill:#2e4159"/>
    <polyline points="98.2 219.8 98 172.2 116 180.4 116 232.5" style="fill:none;stroke:#1d132d;stroke-linecap:round;stroke-linejoin:round;stroke-width:2px"/>
    <path d="M98.4,196.8a7.4,7.4,0,0,1,.6,14.8" style="fill:none;stroke:#1d132d;stroke-linecap:round;stroke-linejoin:round;stroke-width:2px"/>
    <path d="M98,172.2s-.6,4.9-.8,12.9c3.6,3.9,12.5,7,18.8,6.7V180.4Z" style="fill:#180621;opacity:0.15"/>
    <ellipse cx="99" cy="222.7" rx="4.7" ry="3" style="fill:#fff;opacity:0.5"/>
    <line x1="106" y1="204.3" x2="115.6" y2="204.2" style="fill:none;stroke:#1d132d;stroke-linecap:round;stroke-linejoin:round;stroke-width:2px"/>
    <path d="M116,232.9a14.4,14.4,0,0,0-28.4-1.6,1.9,1.9,0,0,0,1.3,2.2,44.7,44.7,0,0,0,12.6,1.4C111,234.9,116,232.9,116,232.9Z" style="fill:none;stroke:#1d132d;stroke-linecap:round;stroke-linejoin:round;stroke-width:2px"/>
    <path d="M141.3,221.4c.9-12.3.8-49.2.8-49.2l-18,8.2-.2,52.7s11.9,1.5,17.4-11.7Z" style="fill:#dce3ea"/>
    <path d="M142.4,196.8c-4.1,0-7.9,3.4-7.9,7.5s4,7.2,7.8,7.5" style="fill:#2e4159"/>
    <g style="opacity:0.5">
      <path d="M142.8,196.8l-.3,6.9h-.7a5.6,5.6,0,0,1-5.2-3.5A7.4,7.4,0,0,1,142.8,196.8Z" style="fill:#fff"/>
    </g>
    <path d="M124.1,232.6c-.1.5,7.1,2.5,14.2,2.4a53.2,53.2,0,0,0,13.7-2.4,16.5,16.5,0,0,0-3.9-8.8c-3.3-3.9-12.4-3.6-12.4-3.6S127.1,222.3,124.1,232.6Z" style="fill:#2e4159"/>
    <polyline points="141.9 219.8 142.1 172.2 124.1 180.4 124.1 232.5" style="fill:none;stroke:#1d132d;stroke-linecap:round;stroke-linejoin:round;stroke-width:2px"/>
    <path d="M141.7,196.8a7.4,7.4,0,0,0-.6,14.8" style="fill:none;stroke:#1d132d;stroke-linecap:round;stroke-linejoin:round;stroke-width:2px"/>
    <path d="M142.1,172.2s.6,4.9.8,12.9c-3.6,3.9-12.5,7-18.8,6.7V180.4Z" style="fill:#180621;opacity:0.15"/>
    <ellipse cx="141" cy="222.7" rx="4.7" ry="3" style="fill:#fff;opacity:0.5"/>
    <line x1="134.1" y1="204.3" x2="124.5" y2="204.2" style="fill:none;stroke:#1d132d;stroke-linecap:round;stroke-linejoin:round;stroke-width:2px"/>
    <path d="M124.1,232.9a14.4,14.4,0,0,1,28.4-1.6,1.9,1.9,0,0,1-1.3,2.2,44.7,44.7,0,0,1-12.6,1.4C129.1,234.9,124.1,232.9,124.1,232.9Z" style="fill:none;stroke:#1d132d;stroke-linecap:round;stroke-linejoin:round;stroke-width:2px"/>
    <path d="M101.5,230.2a44.7,44.7,0,0,1-12.6-1.4l-.4-.2a14.3,14.3,0,0,0-.9,2.7,1.9,1.9,0,0,0,1.3,2.2,44.7,44.7,0,0,0,12.6,1.4c9.5,0,14.5-2,14.5-2a14.3,14.3,0,0,0-1.2-4.4A48.8,48.8,0,0,1,101.5,230.2Z" style="fill:#180621;opacity:0.15"/>
    <path d="M138.1,230.2a44.7,44.7,0,0,1-12.6-1.4l-.4-.2a14.3,14.3,0,0,0-.9,2.7,1.9,1.9,0,0,0,1.3,2.2,44.7,44.7,0,0,0,12.6,1.4c9.5,0,14.5-2,14.5-2a14.3,14.3,0,0,0-1.2-4.4A48.8,48.8,0,0,1,138.1,230.2Z" style="fill:#180621;opacity:0.15"/>
  </g>
  <g>
    <title>06</title>
    <path d="M94,160.1a144.8,144.8,0,0,1,13.8-23c-44.1,15.3-44.4,43-24.4,52.6A140.2,140.2,0,0,1,94,160.1Z" style="fill:#2e4159"/>
    <path d="M86.8,158.2a12.1,12.1,0,0,0-3.4-8.4l-2.3,1.9a9.2,9.2,0,0,1-9.9,15,20.2,20.2,0,0,0-.5,3,12.1,12.1,0,0,0,16.1-11.5Z" style="fill:#dce3ea"/>
    <path d="M94,160.1a144.8,144.8,0,0,1,13.8-23c-44.1,15.3-44.4,43-24.4,52.6A140.2,140.2,0,0,1,94,160.1Z" style="fill:none;stroke:#1d132d;stroke-linecap:round;stroke-linejoin:round;stroke-width:2px"/>
    <path d="M145.7,160.1a144.8,144.8,0,0,0-13.8-23c44.1,15.3,44.4,43,24.4,52.6A140.2,140.2,0,0,0,145.7,160.1Z" style="fill:#2e4159"/>
    <path d="M152.9,158.2a12.1,12.1,0,0,1,3.4-8.4l2.3,1.9a9.2,9.2,0,0,0,9.9,15,20.2,20.2,0,0,1,.5,3,12.1,12.1,0,0,1-16.1-11.5Z" style="fill:#dce3ea"/>
    <path d="M145.7,160.1a144.8,144.8,0,0,0-13.8-23c44.1,15.3,44.4,43,24.4,52.6A140.2,140.2,0,0,0,145.7,160.1Z" style="fill:none;stroke:#1d132d;stroke-linecap:round;stroke-linejoin:round;stroke-width:2px"/>
  </g>
  <g>
    <title>02</title>
    <path d="M66.3,79.8C62.2,67,42.2,62.8,42.2,62.8c3.1,6.6,3.9,12.4,4.7,17.7s2,20.5,19.1,22.6" style="fill:#2e4159"/>
    <path d="M49.2,65.4a1.7,1.7,0,0,1,.7.5,1.9,1.9,0,0,1,.3.8C50.7,69,53,76,53.1,77.4a26.8,26.8,0,0,0,3.1,11.8,14.5,14.5,0,0,0,9.4,7.3,16.7,16.7,0,0,0-.1,6.6,29.1,29.1,0,0,1-6.9-2.1,29,29,0,0,1-4-2.6c-1-.7-6-2.4-8.7-22.1-.5-3.3-1.6-6.4-2.3-9.6-.3-1.2-1.1-3.3.9-2.9A32.3,32.3,0,0,1,49.2,65.4Z" style="fill:#dce3ea"/>
    <path d="M66.3,79.8C62.2,67,42.2,62.8,42.2,62.8c3.1,6.6,3.9,12.4,4.7,17.7s2,20.5,19.1,22.6" style="fill:none;stroke:#1d132d;stroke-linecap:round;stroke-linejoin:round;stroke-width:2px"/>
    <path d="M50,65.6a60.8,60.8,0,0,1,2.5,11.8c.7,5.2,1.6,15.8,12.6,19.4" style="fill:none;stroke:#1d132d;stroke-linecap:round;stroke-linejoin:round;stroke-width:2px"/>
    <line x1="59.9" y1="94.5" x2="57.2" y2="99.1" style="fill:none;stroke:#1d132d;stroke-linecap:round;stroke-linejoin:round;stroke-width:2px"/>
    <line x1="55.3" y1="90.2" x2="50.7" y2="92.9" style="fill:none;stroke:#1d132d;stroke-linecap:round;stroke-linejoin:round;stroke-width:2px"/>
    <path d="M173.6,79.8c4.1-12.7,24.1-16.9,24.1-16.9-3.1,6.6-3.9,12.4-4.7,17.7s-2,20.5-19.1,22.6" style="fill:#2e4159"/>
    <path d="M190.7,65.4a1.7,1.7,0,0,0-.7.5,1.9,1.9,0,0,0-.3.8c-.5,2.3-2.8,9.3-2.9,10.7a26.8,26.8,0,0,1-3.1,11.8,14.5,14.5,0,0,1-9.4,7.3,16.7,16.7,0,0,1,.1,6.6,29.1,29.1,0,0,0,6.9-2.1,29,29,0,0,0,4-2.6c1-.7,6-2.4,8.7-22.1.5-3.3,1.6-6.4,2.3-9.6.3-1.2,1.1-3.3-.9-2.9A32.3,32.3,0,0,0,190.7,65.4Z" style="fill:#dce3ea"/>
    <path d="M173.6,79.8c4.1-12.7,24.1-16.9,24.1-16.9-3.1,6.6-3.9,12.4-4.7,17.7s-2,20.5-19.1,22.6" style="fill:none;stroke:#1d132d;stroke-linecap:round;stroke-linejoin:round;stroke-width:2px"/>
    <path d="M189.9,65.6a60.8,60.8,0,0,0-2.5,11.8c-.7,5.2-1.6,15.8-12.6,19.4" style="fill:none;stroke:#1d132d;stroke-linecap:round;stroke-linejoin:round;stroke-width:2px"/>
    <line x1="180" y1="94.5" x2="182.7" y2="99.1" style="fill:none;stroke:#1d132d;stroke-linecap:round;stroke-linejoin:round;stroke-width:2px"/>
    <line x1="184.6" y1="90.2" x2="189.2" y2="92.9" style="fill:none;stroke:#1d132d;stroke-linecap:round;stroke-linejoin:round;stroke-width:2px"/>
  </g>
  <g>
    <title>06</title>
    <path d="M125.4,136.4c19.6-.5,28.4-3.6,37.2-11.1s12.1-21.8,12.1-37.2c0-27.7-17.6-49.2-43.4-53.7a76.8,76.8,0,0,0-11.1-.9,84.7,84.7,0,0,0-11.6.9C82.9,39,65.3,60.5,65.3,88.1c0,15.4,3.2,29.6,12.1,37.2s18.2,10.8,39.5,11.1Z" style="fill:#703c81;stroke:#1d132d;stroke-miterlimit:10;stroke-width:2px"/>
    <path d="M109.2,136.5c-7,6.6-11.8,18.9-11.8,29.9,0,16,10.1,19.5,22.6,19.5s22.6-3.4,22.6-19.5c0-11.1-4.9-23.5-12-30.1" style="fill:#703c81;stroke:#1d132d;stroke-miterlimit:10;stroke-width:2px"/>
    <path d="M130.9,136.7c-3.4.7-18,.5-21.3-.1h-.4c-7,6.6-11.8,18.9-11.8,29.9,0,16,10.1,19.5,22.6,19.5s22.6-3.4,22.6-19.5C142.6,155.5,137.8,143.3,130.9,136.7Z" style="fill:#703c81"/>
    <path d="M130.8,136.2c0,.2,5,7.1,5,7.4a15.7,15.7,0,1,1-31.4,0c0-.2,5.4-6.9,5.4-7.1" style="fill:#ff9a00"/>
    <path d="M97.8,162.5a45.3,45.3,0,0,0,14.7,8.6h.2a33.3,33.3,0,0,1-15-2.2" style="fill:#ff9a00"/>
    <path d="M142.2,162.5a45.3,45.3,0,0,1-14.7,8.6h-.2a33.3,33.3,0,0,0,15-2.2" style="fill:#ff9a00"/>
    <path d="M135.7,142.8q0,.4,0,.7a15.7,15.7,0,1,1-31.4,0q0-.4,0-.7" style="fill:none;stroke:#1d132d;stroke-linecap:round;stroke-linejoin:round;stroke-width:2px"/>
    <line x1="120" y1="159.3" x2="120" y2="185.6" style="fill:none;stroke:#1d132d;stroke-linecap:round;stroke-linejoin:round;stroke-width:2px"/>
    <path d="M97.8,162.5a45.3,45.3,0,0,0,14.7,8.6h.2a33.3,33.3,0,0,1-15-2.2" style="fill:none;stroke:#1d132d;stroke-linecap:round;stroke-linejoin:round;stroke-width:2px"/>
    <path d="M142.2,162.5a45.3,45.3,0,0,1-14.7,8.6h-.2a33.3,33.3,0,0,0,15-2.2" style="fill:none;stroke:#1d132d;stroke-linecap:round;stroke-linejoin:round;stroke-width:2px"/>
    <path d="M130.5,136.2c-3.1.3-6.1.6-9.4.6a111.1,111.1,0,0,1-12.3-.4L102,146a41,41,0,0,0,17.6,3.6,40.7,40.7,0,0,0,17.8-3.7C137.2,145.6,130.9,136.7,130.5,136.2Z" style="fill:#180621;opacity:0.15"/>
    <path d="M109.5,136.3l-.6.5c-6.9,6.7-11.5,18.8-11.5,29.6,0,16,10.1,19.5,22.6,19.5s22.6-3.4,22.6-19.5c0-11-4.8-23.3-11.8-29.9l-.2-.2" style="fill:none;stroke:#1d132d;stroke-linecap:round;stroke-linejoin:round;stroke-width:2px"/>
    <g style="opacity:0.30000000000000004">
      <path d="M108.7,44.1a84.7,84.7,0,0,1,11.6-.9,76.8,76.8,0,0,1,11.1.9c24.4,4.3,41.5,23.9,43.2,49.5q.1-2.7.1-5.5c0-27.7-17.6-49.2-43.4-53.7a76.8,76.8,0,0,0-11.1-.9,84.7,84.7,0,0,0-11.6.9C82.9,39,65.3,60.5,65.3,88.1q0,2.8.1,5.5C67.1,68,84.3,48.4,108.7,44.1Z" style="fill:#fff"/>
    </g>
    <path d="M125.4,136.4c19.6-.5,28.4-3.6,37.2-11.1s12.1-21.8,12.1-37.2c0-27.7-17.6-49.2-43.4-53.7a76.8,76.8,0,0,0-11.1-.9,84.7,84.7,0,0,0-11.6.9C82.9,39,65.3,60.5,65.3,88.1c0,15.4,3.2,29.6,12.1,37.2s18.2,10.8,39.5,11.1Z" style="fill:none;stroke:#1d132d;stroke-miterlimit:10;stroke-width:2px"/>
    <path d="M109.2,136.5c-7,6.6-11.8,18.9-11.8,29.9,0,16,10.1,19.5,22.6,19.5s22.6-3.4,22.6-19.5c0-11.1-4.9-23.5-12-30.1" style="fill:none;stroke:#1d132d;stroke-miterlimit:10;stroke-width:2px"/>
    <g style="opacity:0.30000000000000004">
      <path d="M108.7,44.1a84.7,84.7,0,0,1,11.6-.9,76.8,76.8,0,0,1,11.1.9c24.4,4.3,41.5,23.9,43.2,49.5q.1-2.7.1-5.5c0-27.7-17.6-49.2-43.4-53.7a76.8,76.8,0,0,0-11.1-.9,84.7,84.7,0,0,0-11.6.9C82.9,39,65.3,60.5,65.3,88.1q0,2.8.1,5.5C67.1,68,84.3,48.4,108.7,44.1Z" style="fill:#fff"/>
    </g>
    <path d="M125.4,136.4c19.6-.5,28.4-3.6,37.2-11.1s12.1-21.8,12.1-37.2c0-27.7-17.6-49.2-43.4-53.7a76.8,76.8,0,0,0-11.1-.9,84.7,84.7,0,0,0-11.6.9C82.9,39,65.3,60.5,65.3,88.1c0,15.4,3.2,29.6,12.1,37.2s18.2,10.8,39.5,11.1Z" style="fill:none;stroke:#1d132d;stroke-miterlimit:10;stroke-width:2px"/>
  </g>
  <g>
    <title>02</title>
    <rect x="109.4" y="128.1" width="21.3" height="7.53" style="fill:#2e4159"/>
    <path d="M109.4,134.3a36.8,36.8,0,0,0-.1-3.7s-.2-.9-.3-1.5l-.3-.2c-2-8.2-8.1-12.7-18.4-14.5l-3.9-.7-.4-.3a25.4,25.4,0,0,1-6.7-1.2c-5.9-2-9.8-6-13.2-10.9l.3,1.8c1.6,9.3,5,17.3,10.9,22.3,8,6.8,15.9,10,32,10.9C109.4,135.6,109.4,134.9,109.4,134.3Z" style="fill:#dce3ea"/>
    <path d="M109.3,130.6s-.2-.9-.3-1.5l-.3-.2c-2-8.2-8.1-12.7-18.4-14.5l-3.9-.7-.4-.3H84.5c5.6,2.8,11,6.2,12.7,12.8a28,28,0,0,1,.7,9.1,92,92,0,0,0,11.5,1.3c0-.7.1-1.4.1-2A36.8,36.8,0,0,0,109.3,130.6Z" style="fill:#2e4159"/>
    <path d="M97.9,133.8c0-12-6.4-18.7-17.5-21.6" style="fill:none;stroke:#1d132d;stroke-linecap:round;stroke-linejoin:round;stroke-width:2px"/>
    <line x1="108.6" y1="128.1" x2="120" y2="128.1" style="fill:none;stroke:#1d132d;stroke-linecap:round;stroke-linejoin:round;stroke-width:2px"/>
    <line x1="78.8" y1="112.3" x2="78.8" y2="126.5" style="fill:none;stroke:#1d132d;stroke-linecap:round;stroke-linejoin:round;stroke-width:2px"/>
    <path d="M109.5,135.6c0-12.6-6.4-18.9-19.1-21.2-9.8-1.8-22.8-4.5-24.5-14.9" style="fill:none;stroke:#1d132d;stroke-linecap:round;stroke-linejoin:round;stroke-width:2px"/>
    <path d="M65.9,99.5l.5,3.6c1.6,9.3,5,17.3,10.9,22.3,9.1,7.8,18.2,10.8,39.5,11.1h3.1" style="fill:none;stroke:#1d132d;stroke-miterlimit:10;stroke-width:2px"/>
    <path d="M130.6,134.3a36.8,36.8,0,0,1,.1-3.7s.2-.9.3-1.5l.3-.2c2-8.2,8.1-12.7,18.4-14.5l3.9-.7.4-.3a25.4,25.4,0,0,0,6.7-1.2c5.9-2,9.8-6,13.2-10.9l-.3,1.8c-1.6,9.3-5,17.3-10.9,22.3-8,6.8-15.9,10-32,10.9C130.6,135.6,130.6,134.9,130.6,134.3Z" style="fill:#dce3ea"/>
    <path d="M130.7,130.6s.2-.9.3-1.5l.3-.2c2-8.2,8.1-12.7,18.4-14.5l3.9-.7.4-.3h1.5c-5.6,2.8-11,6.2-12.7,12.8a28,28,0,0,0-.7,9.1,92,92,0,0,1-11.5,1.3c0-.7-.1-1.4-.1-2A36.8,36.8,0,0,1,130.7,130.6Z" style="fill:#2e4159"/>
    <path d="M142.1,133.8c0-12,6.4-18.7,17.5-21.6" style="fill:none;stroke:#1d132d;stroke-linecap:round;stroke-linejoin:round;stroke-width:2px"/>
    <line x1="131.3" y1="128.1" x2="120" y2="128.1" style="fill:none;stroke:#1d132d;stroke-linecap:round;stroke-linejoin:round;stroke-width:2px"/>
    <line x1="161.2" y1="112.3" x2="161.2" y2="126.5" style="fill:none;stroke:#1d132d;stroke-linecap:round;stroke-linejoin:round;stroke-width:2px"/>
    <path d="M130.5,135.6c0-12.6,6.4-18.9,19.1-21.2,9.8-1.8,22.8-4.5,24.5-14.9" style="fill:none;stroke:#1d132d;stroke-linecap:round;stroke-linejoin:round;stroke-width:2px"/>
    <path d="M174.1,99.5l-.5,3.6c-1.6,9.3-5,17.3-10.9,22.3-9.1,7.8-18.2,10.8-39.5,11.1h-3.1" style="fill:none;stroke:#1d132d;stroke-miterlimit:10;stroke-width:2px"/>
    <line x1="120" y1="128.1" x2="120" y2="136.5" style="fill:none;stroke:#1d132d;stroke-miterlimit:10;stroke-width:2px"/>
    <line x1="114.7" y1="128.4" x2="114.7" y2="136.4" style="fill:none;stroke:#1d132d;stroke-miterlimit:10;stroke-width:2px"/>
    <line x1="125.2" y1="128.4" x2="125.2" y2="136.4" style="fill:none;stroke:#1d132d;stroke-miterlimit:10;stroke-width:2px"/>
  </g>
  <g>
    <title>06</title>
    <path d="M78.4,76.9a16.2,16.2,0,1,0,30.5,6.3Z" style="fill:#1d132d"/>
    <path d="M78.4,76.9a16.2,16.2,0,1,0,30.5,6.3Z" style="fill:none;stroke:#1d132d;stroke-linecap:round;stroke-linejoin:round;stroke-width:2px"/>
    <path d="M88.2,83a6.1,6.1,0,1,0,10.4,2Z" style="fill:#ff9a00"/>
    <path d="M162.9,76.9a16.2,16.2,0,1,1-30.5,6.3Z" style="fill:#1d132d"/>
    <path d="M162.9,76.9a16.2,16.2,0,1,1-30.5,6.3Z" style="fill:none;stroke:#1d132d;stroke-linecap:round;stroke-linejoin:round;stroke-width:2px"/>
    <path d="M153.1,82.9a6.1,6.1,0,1,1-10.4,2Z" style="fill:#ff9a00"/>
  </g>
  <g/>
</svg>