<svg xmlns="http://www.w3.org/2000/svg" xmlns:xlink="http://www.w3.org/1999/xlink" viewBox="0 0 240 240">
  <ellipse cx="120.5" cy="233.4" rx="43.7" ry="4.9" style="fill:#180621;opacity:0.15"/>
  <g>
    <title>06</title>
    <path d="M161.8,221.3c.5-4.1-.9-12.6-.9-12.6s-8.1,3.9-10.4,9.4a6,6,0,0,0-.4,1.3v.2a14.1,14.1,0,0,1-3.7-2.6h-.1c.3-1.2.2-2.1-.4-2.5l-3.4-2.6-.3.2c.5-1.2.6-2.2.1-2.8l-2.4-3.2-1.2.6c.9-1.2,1.3-2.3.9-3.2l-2.1-4.6h-.2a2.9,2.9,0,0,0,1-2.4l-1-5.8h-.2a3.1,3.1,0,0,0,1.3-2.3v-8H101.5v8c0,1.3,1.1,2.4,3,3.4h-.2l1.7,10.2c.2,1.1,1.3,2,3.2,2.5h-.1l4.6,10.5c.5,1.2,2.5,1.7,5.2,1.4l-.8.4,5.4,7.1c1,1.3,4.3.6,8-1.5l-1.9,1.8L135,229c.8.6,2.2.1,3.9-1.2l-.4.6a26.9,26.9,0,0,0,14-.8v.4a5.9,5.9,0,0,0,3.3,3.4c5.5,2.3,14-.6,14-.6S165,223.9,161.8,221.3Z" style="fill:#dce3ea"/>
    <path d="M161.8,221.3c.5-4.1-.9-12.6-.9-12.6s-8.1,3.9-10.4,9.4a6,6,0,0,0-.4,1.3v.2a14.1,14.1,0,0,1-3.7-2.6h-.1c.3-1.2.2-2.1-.4-2.5l-3.4-2.6-.3.2c.5-1.2.6-2.2.1-2.8l-2.4-3.2-1.2.6c.9-1.2,1.3-2.3.9-3.2l-2.1-4.6h-.2a2.9,2.9,0,0,0,1-2.4l-1-5.8h-.2a3.1,3.1,0,0,0,1.3-2.3v-8H101.5v8c0,1.3,1.1,2.4,3,3.4h-.2l1.7,10.2c.2,1.1,1.3,2,3.2,2.5h-.1l4.6,10.5c.5,1.2,2.5,1.7,5.2,1.4l-.8.4,5.4,7.1c1,1.3,4.3.6,8-1.5l-1.9,1.8L135,229c.8.6,2.2.1,3.9-1.2l-.4.6a26.9,26.9,0,0,0,14-.8v.4a5.9,5.9,0,0,0,3.3,3.4c5.5,2.3,14-.6,14-.6S165,223.9,161.8,221.3Z" style="fill:#dce3ea"/>
    <path d="M152.6,228v.2a35.4,35.4,0,0,1,4.6-3.7l1.7-1.1a8.3,8.3,0,0,1,1.2-1.2l.3-.8a11.1,11.1,0,0,1-2.7.3,9.7,9.7,0,0,1-7.5-3.2l-.2.8v.2a14.1,14.1,0,0,1-3.7-2.6h-.1c.3-1.2.2-2.1-.4-2.5l-3.4-2.6-.3.2c.5-1.2.6-2.2.1-2.8l-2.4-3.2-1.2.6c.9-1.2,1.3-2.3.9-3.2l-2.1-4.6h-.2a2.9,2.9,0,0,0,1-2.4l-1-5.8h-.2a3.1,3.1,0,0,0,1.3-2.3v-8H101.5v8c0,1.3,1.1,2.4,3,3.4h-.2l1.7,10.2c.2,1.1,1.3,2,3.2,2.5h-.1l4.6,10.5c.5,1.2,2.5,1.7,5.2,1.4l-.8.4,5.4,7.1c1,1.3,4.3.6,8-1.5l-1.9,1.8L135,229c.8.6,2.2.1,3.9-1.2l-.4.6a26.9,26.9,0,0,0,14-.8Z" style="fill:#dce3ea"/>
    <path d="M101.5,179.8v3.5c0,3.5,8.3,6.2,18.5,6.2s18.4-2.8,18.5-6.2v-3.6Z" style="fill:#180621;opacity:0.15"/>
    <path d="M138.6,180.8H101.5v8c0,3.5,8.3,6.2,18.5,6.2s18.5-2.8,18.5-6.2Z" style="fill:none;stroke:#1d132d;stroke-miterlimit:10;stroke-width:2px"/>
    <path d="M104.3,192.2l1.7,10.2c.5,3,8.2,4.2,17.2,2.7s15.8-5.2,15.3-8.3l-1-5.8" style="fill:none;stroke:#1d132d;stroke-linecap:round;stroke-linejoin:round;stroke-width:2px"/>
    <path d="M109.1,205l4.6,10.5c1.1,2.4,7.8,1.8,15.1-1.4s12.2-7.8,11.1-10.2l-2.1-4.6" style="fill:none;stroke:#1d132d;stroke-linecap:round;stroke-linejoin:round;stroke-width:2px"/>
    <path d="M118,217.3l5.4,7.1c1.4,1.8,6.8-.1,12.1-4.2s8.5-8.8,7.1-10.6l-2.4-3.2" style="fill:none;stroke:#1d132d;stroke-linecap:round;stroke-linejoin:round;stroke-width:2px"/>
    <path d="M129.5,224.7,135,229c1.3,1,4.9-1.3,7.9-5.3s4.4-8,3.1-9l-3.4-2.6" style="fill:none;stroke:#1d132d;stroke-linecap:round;stroke-linejoin:round;stroke-width:2px"/>
    <path d="M146.5,217.1c3.8,3.7,9.4,4.6,14,4.9h.2c-4.4,5-11.3,8.4-22.3,6.5" style="fill:none;stroke:#1d132d;stroke-linecap:round;stroke-linejoin:round;stroke-width:2px"/>
    <path d="M152.6,228a5.9,5.9,0,0,0,3.3,3.4c5.5,2.3,14-.6,14-.6s-4.9-7-8.2-9.6c.5-4.1-.9-12.6-.9-12.6s-8.1,3.9-10.4,9.4a6,6,0,0,0-.4,1.3" style="fill:none;stroke:#1d132d;stroke-linecap:round;stroke-linejoin:round;stroke-width:2px"/>
    <path d="M122.8,194.9l-4-.5a53.1,53.1,0,0,1-10.9-1.2l-2.9-.9h-.7l.7,4.2a43.6,43.6,0,0,0,14.6,2.3c7.7,0,14.5-1.7,18.5-4.2l-.5-2.6A33.6,33.6,0,0,1,122.8,194.9Z" style="fill:#180621;opacity:0.15"/>
    <path d="M137.7,199.8a33.6,33.6,0,0,1-14.3,5.1h-4a53.1,53.1,0,0,1-9.7.5v1a24.9,24.9,0,0,1,1.3,3.3,48.1,48.1,0,0,0,9.8-.6c7.6-1.2,14-3.9,17.6-7Z" style="fill:#180621;opacity:0.15"/>
    <path d="M139.9,206.1a33.6,33.6,0,0,1-12.4,8.8l-3.9,1.2-4.8,1.8a26,26,0,0,1,1.7,3c11.5-3,18.4-9.1,20.8-12.6Z" style="fill:#180621;opacity:0.15"/>
    <path d="M142.9,212.3A33.6,33.6,0,0,1,132,222.9l-2.1,1.1a25,25,0,0,1,2.4,2.6c7-4.3,11-9.3,12.4-12.4Z" style="fill:#180621;opacity:0.15"/>
    <path d="M139.7,228.6a24.5,24.5,0,0,1,3.8.3,27.1,27.1,0,0,0,5.5-9.2l-2.1-1.6a35.6,35.6,0,0,1-7.4,10.6Z" style="fill:#180621;opacity:0.15"/>
    <path d="M152.7,215.2l-2.6,4.5,11,1.7a15.4,15.4,0,0,0,.7-2.2A16.6,16.6,0,0,1,152.7,215.2Z" style="fill:#180621;opacity:0.15"/>
    <path d="M156.5,231.3l-3.8-3.5,8.7-5.8s2,1.3,2.2,1.7A23.7,23.7,0,0,0,156.5,231.3Z" style="fill:#180621;opacity:0.15"/>
  </g>
  <g>
    <title>06</title>
    <path d="M94,160.1a144.8,144.8,0,0,1,13.8-23c-44.1,15.3-44.4,43-24.4,52.6A140.2,140.2,0,0,1,94,160.1Z" style="fill:#2e4159"/>
    <path d="M86.8,158.2a12.1,12.1,0,0,0-3.4-8.4l-2.3,1.9a9.2,9.2,0,0,1-9.9,15,20.2,20.2,0,0,0-.5,3,12.1,12.1,0,0,0,16.1-11.5Z" style="fill:#dce3ea"/>
    <path d="M94,160.1a144.8,144.8,0,0,1,13.8-23c-44.1,15.3-44.4,43-24.4,52.6A140.2,140.2,0,0,1,94,160.1Z" style="fill:none;stroke:#1d132d;stroke-linecap:round;stroke-linejoin:round;stroke-width:2px"/>
    <path d="M145.7,160.1a144.8,144.8,0,0,0-13.8-23c44.1,15.3,44.4,43,24.4,52.6A140.2,140.2,0,0,0,145.7,160.1Z" style="fill:#2e4159"/>
    <path d="M152.9,158.2a12.1,12.1,0,0,1,3.4-8.4l2.3,1.9a9.2,9.2,0,0,0,9.9,15,20.2,20.2,0,0,1,.5,3,12.1,12.1,0,0,1-16.1-11.5Z" style="fill:#dce3ea"/>
    <path d="M145.7,160.1a144.8,144.8,0,0,0-13.8-23c44.1,15.3,44.4,43,24.4,52.6A140.2,140.2,0,0,0,145.7,160.1Z" style="fill:none;stroke:#1d132d;stroke-linecap:round;stroke-linejoin:round;stroke-width:2px"/>
  </g>
  <g>
    <title>04</title>
    <g style="isolation:isolate">
      <polygon points="68.3 100.3 32.3 66.3 71 66.1 68.3 100.3" style="fill:#dce3ea"/>
      <path d="M65.5,78A47.7,47.7,0,0,1,34,66.3H32.3l36,33.9L70,77.8Z" style="fill:#180621;opacity:0.15;mix-blend-mode:multiply"/>
      <polygon points="68.3 100.3 32.3 66.3 71 66.1 68.3 100.3" style="fill:none;stroke:#1d132d;stroke-linecap:round;stroke-linejoin:round;stroke-width:2px"/>
      <path d="M52.4,85.3A27.5,27.5,0,0,1,68.2,67" style="fill:none;stroke:#1d132d;stroke-linecap:round;stroke-linejoin:round;stroke-width:2px"/>
      <path d="M43.9,77.1A27.5,27.5,0,0,1,53,66.4" style="fill:none;stroke:#1d132d;stroke-linecap:round;stroke-linejoin:round;stroke-width:2px"/>
      <polygon points="171.3 100.3 207.2 66.3 168.5 66.1 171.3 100.3" style="fill:#dce3ea"/>
      <path d="M174,78a47.7,47.7,0,0,0,31.5-11.7h1.7l-36,33.9-1.8-22.5Z" style="fill:#180621;opacity:0.15;mix-blend-mode:multiply"/>
      <polygon points="171.3 100.3 207.2 66.3 168.5 66.1 171.3 100.3" style="fill:none;stroke:#1d132d;stroke-linecap:round;stroke-linejoin:round;stroke-width:2px"/>
      <path d="M187.1,85.3A27.5,27.5,0,0,0,171.3,67" style="fill:none;stroke:#1d132d;stroke-linecap:round;stroke-linejoin:round;stroke-width:2px"/>
      <path d="M195.6,77.1a27.5,27.5,0,0,0-9.1-10.6" style="fill:none;stroke:#1d132d;stroke-linecap:round;stroke-linejoin:round;stroke-width:2px"/>
    </g>
  </g>
  <g>
    <title>02</title>
    <path d="M131.3,34.4a76.8,76.8,0,0,0-11.1-.9,84.7,84.7,0,0,0-11.6.9C82.9,39,65.3,60.5,65.3,88.1c0,15.4,3.2,29.6,12.1,37.2s18.2,10.8,39.5,11.1h-7.7c-7,6.6-11.8,18.9-11.8,29.9,0,16,10.1,19.5,22.6,19.5s22.6-3.4,22.6-19.5c0-11.1-4.9-23.5-12-30.1h-5.2c19.6-.5,28.4-3.6,37.2-11.1s12.1-21.8,12.1-37.2C174.7,60.5,157.1,39,131.3,34.4Z" style="fill:#f557c7"/>
    <path d="M131.3,34.4a76.8,76.8,0,0,0-11.1-.9,84.7,84.7,0,0,0-11.6.9C82.9,39,65.3,60.5,65.3,88.1c0,15.4,3.2,29.6,12.1,37.2s18.2,10.8,39.5,11.1h-7.7c-7,6.6-11.8,18.9-11.8,29.9,0,16,10.1,19.5,22.6,19.5s22.6-3.4,22.6-19.5c0-11.1-4.9-23.5-12-30.1h-5.2c19.6-.5,28.4-3.6,37.2-11.1s12.1-21.8,12.1-37.2C174.7,60.5,157.1,39,131.3,34.4Z" style="fill:#f557c7"/>
    <path d="M131.3,34.4a76.8,76.8,0,0,0-11.1-.9,84.7,84.7,0,0,0-11.6.9C82.9,39,65.3,60.5,65.3,88.1c0,15.4,3.2,29.6,12.1,37.2s18.2,10.8,39.5,11.1h-7.7c-7,6.6-11.8,18.9-11.8,29.9,0,16,10.1,19.5,22.6,19.5s22.6-3.4,22.6-19.5c0-11.1-4.9-23.5-12-30.1h-5.2c19.6-.5,28.4-3.6,37.2-11.1s12.1-21.8,12.1-37.2C174.7,60.5,157.1,39,131.3,34.4Z" style="fill:#f557c7"/>
    <path d="M131.3,34.4a76.8,76.8,0,0,0-11.1-.9,84.7,84.7,0,0,0-11.6.9C82.9,39,65.3,60.5,65.3,88.1c0,15.4,3.2,29.6,12.1,37.2s18.2,10.8,39.5,11.1h-7.7c-7,6.6-11.8,18.9-11.8,29.9,0,16,10.1,19.5,22.6,19.5s22.6-3.4,22.6-19.5c0-11.1-4.9-23.5-12-30.1h-5.2c19.6-.5,28.4-3.6,37.2-11.1s12.1-21.8,12.1-37.2C174.7,60.5,157.1,39,131.3,34.4Z" style="fill:#f557c7"/>
    <path d="M131.3,34.4a76.8,76.8,0,0,0-11.1-.9,84.7,84.7,0,0,0-11.6.9C82.9,39,65.3,60.5,65.3,88.1c0,15.4,3.2,29.6,12.1,37.2s18.2,10.8,39.5,11.1h-7.7c-7,6.6-11.8,18.9-11.8,29.9,0,16,10.1,19.5,22.6,19.5s22.6-3.4,22.6-19.5c0-11.1-4.9-23.5-12-30.1h-5.2c19.6-.5,28.4-3.6,37.2-11.1s12.1-21.8,12.1-37.2C174.7,60.5,157.1,39,131.3,34.4Z" style="fill:#f557c7"/>
    <path d="M131.3,34.4a76.8,76.8,0,0,0-11.1-.9,84.7,84.7,0,0,0-11.6.9C82.9,39,65.3,60.5,65.3,88.1c0,15.4,3.2,29.6,12.1,37.2s18.2,10.8,39.5,11.1h-7.7c-7,6.6-11.8,18.9-11.8,29.9,0,16,10.1,19.5,22.6,19.5s22.6-3.4,22.6-19.5c0-11.1-4.9-23.5-12-30.1h-5.2c19.6-.5,28.4-3.6,37.2-11.1s12.1-21.8,12.1-37.2C174.7,60.5,157.1,39,131.3,34.4Z" style="fill:#f557c7"/>
    <path d="M131.3,34.4a76.8,76.8,0,0,0-11.1-.9,84.7,84.7,0,0,0-11.6.9C82.9,39,65.3,60.5,65.3,88.1c0,15.4,3.2,29.6,12.1,37.2s18.2,10.8,39.5,11.1h-7.7c-7,6.6-11.8,18.9-11.8,29.9,0,16,10.1,19.5,22.6,19.5s22.6-3.4,22.6-19.5c0-11.1-4.9-23.5-12-30.1h-5.2c19.6-.5,28.4-3.6,37.2-11.1s12.1-21.8,12.1-37.2C174.7,60.5,157.1,39,131.3,34.4Z" style="fill:#f557c7"/>
    <path d="M131.3,34.4a76.8,76.8,0,0,0-11.1-.9,84.7,84.7,0,0,0-11.6.9C82.9,39,65.3,60.5,65.3,88.1c0,15.4,3.2,29.6,12.1,37.2s18.2,10.8,39.5,11.1h-7.7c-7,6.6-11.8,18.9-11.8,29.9,0,16,10.1,19.5,22.6,19.5s22.6-3.4,22.6-19.5c0-11.1-4.9-23.5-12-30.1h-5.2c19.6-.5,28.4-3.6,37.2-11.1s12.1-21.8,12.1-37.2C174.7,60.5,157.1,39,131.3,34.4Z" style="fill:#f557c7"/>
    <path d="M125.4,136.4c19.6-.5,28.4-3.6,37.2-11.1s12.1-21.8,12.1-37.2c0-27.7-17.6-49.2-43.4-53.7a76.8,76.8,0,0,0-11.1-.9,84.7,84.7,0,0,0-11.6.9C82.9,39,65.3,60.5,65.3,88.1c0,15.4,3.2,29.6,12.1,37.2s18.2,10.8,39.5,11.1Z" style="fill:none;stroke:#1d132d;stroke-miterlimit:10;stroke-width:2px"/>
    <path d="M109.2,136.5c-7,6.6-11.8,18.9-11.8,29.9,0,16,10.1,19.5,22.6,19.5s22.6-3.4,22.6-19.5c0-11.1-4.9-23.5-12-30.1" style="fill:none;stroke:#1d132d;stroke-miterlimit:10;stroke-width:2px"/>
    <path d="M130.9,136.7c-3.4.7-18,.5-21.3-.1h-.4c-7,6.6-11.8,18.9-11.8,29.9,0,16,10.1,19.5,22.6,19.5s22.6-3.4,22.6-19.5C142.6,155.5,137.8,143.3,130.9,136.7Z" style="fill:#f557c7"/>
    <path d="M130.5,136.2c-3.1.3-6.1.6-9.4.6a111.1,111.1,0,0,1-12.3-.4L102,146a41,41,0,0,0,17.6,3.6,40.7,40.7,0,0,0,17.8-3.7C137.2,145.6,130.9,136.7,130.5,136.2Z" style="fill:#180621;opacity:0.15"/>
    <path d="M109.5,136.3l-.6.5c-6.9,6.7-11.5,18.8-11.5,29.6,0,16,10.1,19.5,22.6,19.5s22.6-3.4,22.6-19.5c0-11-4.8-23.3-11.8-29.9l-.2-.2" style="fill:none;stroke:#1d132d;stroke-linecap:round;stroke-linejoin:round;stroke-width:2px"/>
    <path d="M141.4,157H129.3a10.9,10.9,0,0,0-18.6,0H98.5a43.9,43.9,0,0,0-1.1,9.6q0,.9,0,1.8h13.2a10.9,10.9,0,0,0,18.7,0h13.2q0-.8,0-1.6A40.7,40.7,0,0,0,141.4,157ZM120,168.2a5.6,5.6,0,1,1,5.6-5.6A5.6,5.6,0,0,1,120,168.2Z" style="fill:#dce3ea"/>
    <path d="M141.4,157H129.3a10.9,10.9,0,0,0-18.6,0H98.5a43.9,43.9,0,0,0-1.1,9.6q0,.9,0,1.8h13.2a10.9,10.9,0,0,0,18.7,0h13.2q0-.8,0-1.6A40.7,40.7,0,0,0,141.4,157Z" style="fill:none;stroke:#1d132d;stroke-linecap:round;stroke-linejoin:round;stroke-width:2px"/>
    <circle cx="120" cy="162.6" r="5.6" style="fill:#36c8e3"/>
    <g style="opacity:0.5">
      <path d="M121.1,161.5a3.9,3.9,0,0,0,2.7-3.1,5.6,5.6,0,0,0-7.7,0v.4A3.9,3.9,0,0,0,121.1,161.5Z" style="fill:#fff"/>
    </g>
    <circle cx="120" cy="162.6" r="5.6" style="fill:none;stroke:#1d132d;stroke-linecap:round;stroke-linejoin:round;stroke-width:2px"/>
    <path d="M124.8,159.7a4.9,4.9,0,1,1-9.7,0,5.6,5.6,0,1,0,9.7,0Z" style="fill:#180621;opacity:0.15"/>
    <g style="opacity:0.30000000000000004">
      <path d="M108.7,44.1a84.7,84.7,0,0,1,11.6-.9,76.8,76.8,0,0,1,11.1.9c24.4,4.3,41.5,23.9,43.2,49.5q.1-2.7.1-5.5c0-27.7-17.6-49.2-43.4-53.7a76.8,76.8,0,0,0-11.1-.9,84.7,84.7,0,0,0-11.6.9C82.9,39,65.3,60.5,65.3,88.1q0,2.8.1,5.5C67.1,68,84.3,48.4,108.7,44.1Z" style="fill:#fff"/>
    </g>
    <path d="M125.4,136.4c19.6-.5,28.4-3.6,37.2-11.1s12.1-21.8,12.1-37.2c0-27.7-17.6-49.2-43.4-53.7a76.8,76.8,0,0,0-11.1-.9,84.7,84.7,0,0,0-11.6.9C82.9,39,65.3,60.5,65.3,88.1c0,15.4,3.2,29.6,12.1,37.2s18.2,10.8,39.5,11.1Z" style="fill:none;stroke:#1d132d;stroke-miterlimit:10;stroke-width:2px"/>
    <path d="M109.2,136.5c-7,6.6-11.8,18.9-11.8,29.9,0,16,10.1,19.5,22.6,19.5s22.6-3.4,22.6-19.5c0-11.1-4.9-23.5-12-30.1" style="fill:none;stroke:#1d132d;stroke-miterlimit:10;stroke-width:2px"/>
    <g style="opacity:0.30000000000000004">
      <path d="M108.7,44.1a84.7,84.7,0,0,1,11.6-.9,76.8,76.8,0,0,1,11.1.9c24.4,4.3,41.5,23.9,43.2,49.5q.1-2.7.1-5.5c0-27.7-17.6-49.2-43.4-53.7a76.8,76.8,0,0,0-11.1-.9,84.7,84.7,0,0,0-11.6.9C82.9,39,65.3,60.5,65.3,88.1q0,2.8.1,5.5C67.1,68,84.3,48.4,108.7,44.1Z" style="fill:#fff"/>
    </g>
    <path d="M125.4,136.4c19.6-.5,28.4-3.6,37.2-11.1s12.1-21.8,12.1-37.2c0-27.7-17.6-49.2-43.4-53.7a76.8,76.8,0,0,0-11.1-.9,84.7,84.7,0,0,0-11.6.9C82.9,39,65.3,60.5,65.3,88.1c0,15.4,3.2,29.6,12.1,37.2s18.2,10.8,39.5,11.1Z" style="fill:none;stroke:#1d132d;stroke-miterlimit:10;stroke-width:2px"/>
  </g>
  <g>
    <title>02</title>
    <rect x="109.4" y="128.1" width="21.3" height="7.53" style="fill:#2e4159"/>
    <path d="M109.4,134.3a36.8,36.8,0,0,0-.1-3.7s-.2-.9-.3-1.5l-.3-.2c-2-8.2-8.1-12.7-18.4-14.5l-3.9-.7-.4-.3a25.4,25.4,0,0,1-6.7-1.2c-5.9-2-9.8-6-13.2-10.9l.3,1.8c1.6,9.3,5,17.3,10.9,22.3,8,6.8,15.9,10,32,10.9C109.4,135.6,109.4,134.9,109.4,134.3Z" style="fill:#dce3ea"/>
    <path d="M109.3,130.6s-.2-.9-.3-1.5l-.3-.2c-2-8.2-8.1-12.7-18.4-14.5l-3.9-.7-.4-.3H84.5c5.6,2.8,11,6.2,12.7,12.8a28,28,0,0,1,.7,9.1,92,92,0,0,0,11.5,1.3c0-.7.1-1.4.1-2A36.8,36.8,0,0,0,109.3,130.6Z" style="fill:#2e4159"/>
    <path d="M97.9,133.8c0-12-6.4-18.7-17.5-21.6" style="fill:none;stroke:#1d132d;stroke-linecap:round;stroke-linejoin:round;stroke-width:2px"/>
    <line x1="108.6" y1="128.1" x2="120" y2="128.1" style="fill:none;stroke:#1d132d;stroke-linecap:round;stroke-linejoin:round;stroke-width:2px"/>
    <line x1="78.8" y1="112.3" x2="78.8" y2="126.5" style="fill:none;stroke:#1d132d;stroke-linecap:round;stroke-linejoin:round;stroke-width:2px"/>
    <path d="M109.5,135.6c0-12.6-6.4-18.9-19.1-21.2-9.8-1.8-22.8-4.5-24.5-14.9" style="fill:none;stroke:#1d132d;stroke-linecap:round;stroke-linejoin:round;stroke-width:2px"/>
    <path d="M65.9,99.5l.5,3.6c1.6,9.3,5,17.3,10.9,22.3,9.1,7.8,18.2,10.8,39.5,11.1h3.1" style="fill:none;stroke:#1d132d;stroke-miterlimit:10;stroke-width:2px"/>
    <path d="M130.6,134.3a36.8,36.8,0,0,1,.1-3.7s.2-.9.3-1.5l.3-.2c2-8.2,8.1-12.7,18.4-14.5l3.9-.7.4-.3a25.4,25.4,0,0,0,6.7-1.2c5.9-2,9.8-6,13.2-10.9l-.3,1.8c-1.6,9.3-5,17.3-10.9,22.3-8,6.8-15.9,10-32,10.9C130.6,135.6,130.6,134.9,130.6,134.3Z" style="fill:#dce3ea"/>
    <path d="M130.7,130.6s.2-.9.3-1.5l.3-.2c2-8.2,8.1-12.7,18.4-14.5l3.9-.7.4-.3h1.5c-5.6,2.8-11,6.2-12.7,12.8a28,28,0,0,0-.7,9.1,92,92,0,0,1-11.5,1.3c0-.7-.1-1.4-.1-2A36.8,36.8,0,0,1,130.7,130.6Z" style="fill:#2e4159"/>
    <path d="M142.1,133.8c0-12,6.4-18.7,17.5-21.6" style="fill:none;stroke:#1d132d;stroke-linecap:round;stroke-linejoin:round;stroke-width:2px"/>
    <line x1="131.3" y1="128.1" x2="120" y2="128.1" style="fill:none;stroke:#1d132d;stroke-linecap:round;stroke-linejoin:round;stroke-width:2px"/>
    <line x1="161.2" y1="112.3" x2="161.2" y2="126.5" style="fill:none;stroke:#1d132d;stroke-linecap:round;stroke-linejoin:round;stroke-width:2px"/>
    <path d="M130.5,135.6c0-12.6,6.4-18.9,19.1-21.2,9.8-1.8,22.8-4.5,24.5-14.9" style="fill:none;stroke:#1d132d;stroke-linecap:round;stroke-linejoin:round;stroke-width:2px"/>
    <path d="M174.1,99.5l-.5,3.6c-1.6,9.3-5,17.3-10.9,22.3-9.1,7.8-18.2,10.8-39.5,11.1h-3.1" style="fill:none;stroke:#1d132d;stroke-miterlimit:10;stroke-width:2px"/>
    <line x1="120" y1="128.1" x2="120" y2="136.5" style="fill:none;stroke:#1d132d;stroke-miterlimit:10;stroke-width:2px"/>
    <line x1="114.7" y1="128.4" x2="114.7" y2="136.4" style="fill:none;stroke:#1d132d;stroke-miterlimit:10;stroke-width:2px"/>
    <line x1="125.2" y1="128.4" x2="125.2" y2="136.4" style="fill:none;stroke:#1d132d;stroke-miterlimit:10;stroke-width:2px"/>
  </g>
  <g>
    <title>03</title>
    <rect x="85" y="67.4" width="15.5" height="33.25" rx="7.7" ry="7.7" style="fill:#c6db45"/>
    <path d="M85.4,75l.3.9c4.3-2.3,6.5,2.3,7.5,3.8s6.3,2.5,6.4-.7C103.3,70.7,90.4,59.4,85.4,75Z" style="fill:#fff;opacity:0.5"/>
    <circle cx="90.2" cy="85.1" r="2.1" style="fill:#fff;opacity:0.5"/>
    <rect x="85" y="67.4" width="15.5" height="33.25" rx="7.7" ry="7.7" style="fill:none;stroke:#1d132d;stroke-linecap:round;stroke-linejoin:round;stroke-width:2px"/>
    <rect x="139.5" y="67.4" width="15.5" height="33.25" rx="7.7" ry="7.7" style="fill:#c6db45"/>
    <path d="M140.1,75l.3.9c4.3-2.3,6.5,2.3,7.5,3.8s6.3,2.5,6.4-.7C158,70.7,145,59.4,140.1,75Z" style="fill:#fff;opacity:0.5"/>
    <circle cx="144.9" cy="85.1" r="2.1" style="fill:#fff;opacity:0.5"/>
    <rect x="139.5" y="67.4" width="15.5" height="33.25" rx="7.7" ry="7.7" style="fill:none;stroke:#1d132d;stroke-linecap:round;stroke-linejoin:round;stroke-width:2px"/>
  </g>
  <g>
    <title>02</title>
    <path d="M126.4,33.7a6.5,6.5,0,0,0-11.8-1l-.4,1" style="fill:#2e4159"/>
    <path d="M125.9,18a11.3,11.3,0,0,0-7.2-10.6h0q0,.4,0,.8a11.3,11.3,0,0,1-3.2,7.9h0a5.8,5.8,0,1,0,9.5,6.2h0A11.3,11.3,0,0,0,125.9,18Z" style="fill:#dce3ea"/>
    <circle cx="119.5" cy="21.8" r="4.8" style="fill:#fff;opacity:0.5"/>
    <path d="M126.4,33.7a6.5,6.5,0,0,0-11.8-1l-.4,1Z" style="fill:none;stroke:#1d132d;stroke-linecap:round;stroke-linejoin:round;stroke-width:2px"/>
    <path d="M125.9,18a11.3,11.3,0,0,0-7.2-10.6h0q0,.4,0,.8a11.3,11.3,0,0,1-3.2,7.9h0a5.8,5.8,0,1,0,9.5,6.2h0A11.3,11.3,0,0,0,125.9,18Z" style="fill:none;stroke:#1d132d;stroke-linecap:round;stroke-linejoin:round;stroke-width:2px"/>
  </g>
</svg>