<svg xmlns="http://www.w3.org/2000/svg" xmlns:xlink="http://www.w3.org/1999/xlink" viewBox="0 0 240 240">
  <ellipse cx="120.5" cy="233.4" rx="43.7" ry="4.9" style="fill:#180621;opacity:0.15"/>
  <g>
    <title>05</title>
    <path d="M98.8,221.4c-.9-12.3-.7-49.2-.7-49.2l18,8.2.2,52.7s-11.9,1.5-17.4-11.7Z" style="fill:#dce3ea"/>
    <path d="M97.7,196.8c4.1,0,7.9,3.4,7.9,7.5s-4,7.2-7.8,7.5" style="fill:#2e4159"/>
    <g style="opacity:0.5">
      <path d="M97.3,196.8l.3,6.9h.7a5.6,5.6,0,0,0,5.2-3.5A7.4,7.4,0,0,0,97.3,196.8Z" style="fill:#fff"/>
    </g>
    <path d="M115.9,232.6c.1.5-7.1,2.5-14.2,2.4a53.2,53.2,0,0,1-13.7-2.4,16.5,16.5,0,0,1,3.9-8.8c3.3-3.9,12.4-3.6,12.4-3.6S113,222.3,115.9,232.6Z" style="fill:#2e4159"/>
    <polyline points="98.2 219.8 98 172.2 116 180.4 116 232.5" style="fill:none;stroke:#1d132d;stroke-linecap:round;stroke-linejoin:round;stroke-width:2px"/>
    <path d="M98.4,196.8a7.4,7.4,0,0,1,.6,14.8" style="fill:none;stroke:#1d132d;stroke-linecap:round;stroke-linejoin:round;stroke-width:2px"/>
    <path d="M98,172.2s-.6,4.9-.8,12.9c3.6,3.9,12.5,7,18.8,6.7V180.4Z" style="fill:#180621;opacity:0.15"/>
    <ellipse cx="99" cy="222.7" rx="4.7" ry="3" style="fill:#fff;opacity:0.5"/>
    <line x1="106" y1="204.3" x2="115.6" y2="204.2" style="fill:none;stroke:#1d132d;stroke-linecap:round;stroke-linejoin:round;stroke-width:2px"/>
    <path d="M116,232.9a14.4,14.4,0,0,0-28.4-1.6,1.9,1.9,0,0,0,1.3,2.2,44.7,44.7,0,0,0,12.6,1.4C111,234.9,116,232.9,116,232.9Z" style="fill:none;stroke:#1d132d;stroke-linecap:round;stroke-linejoin:round;stroke-width:2px"/>
    <path d="M141.3,221.4c.9-12.3.8-49.2.8-49.2l-18,8.2-.2,52.7s11.9,1.5,17.4-11.7Z" style="fill:#dce3ea"/>
    <path d="M142.4,196.8c-4.1,0-7.9,3.4-7.9,7.5s4,7.2,7.8,7.5" style="fill:#2e4159"/>
    <g style="opacity:0.5">
      <path d="M142.8,196.8l-.3,6.9h-.7a5.6,5.6,0,0,1-5.2-3.5A7.4,7.4,0,0,1,142.8,196.8Z" style="fill:#fff"/>
    </g>
    <path d="M124.1,232.6c-.1.5,7.1,2.5,14.2,2.4a53.2,53.2,0,0,0,13.7-2.4,16.5,16.5,0,0,0-3.9-8.8c-3.3-3.9-12.4-3.6-12.4-3.6S127.1,222.3,124.1,232.6Z" style="fill:#2e4159"/>
    <polyline points="141.9 219.8 142.1 172.2 124.1 180.4 124.1 232.5" style="fill:none;stroke:#1d132d;stroke-linecap:round;stroke-linejoin:round;stroke-width:2px"/>
    <path d="M141.7,196.8a7.4,7.4,0,0,0-.6,14.8" style="fill:none;stroke:#1d132d;stroke-linecap:round;stroke-linejoin:round;stroke-width:2px"/>
    <path d="M142.1,172.2s.6,4.9.8,12.9c-3.6,3.9-12.5,7-18.8,6.7V180.4Z" style="fill:#180621;opacity:0.15"/>
    <ellipse cx="141" cy="222.7" rx="4.7" ry="3" style="fill:#fff;opacity:0.5"/>
    <line x1="134.1" y1="204.3" x2="124.5" y2="204.2" style="fill:none;stroke:#1d132d;stroke-linecap:round;stroke-linejoin:round;stroke-width:2px"/>
    <path d="M124.1,232.9a14.4,14.4,0,0,1,28.4-1.6,1.9,1.9,0,0,1-1.3,2.2,44.7,44.7,0,0,1-12.6,1.4C129.1,234.9,124.1,232.9,124.1,232.9Z" style="fill:none;stroke:#1d132d;stroke-linecap:round;stroke-linejoin:round;stroke-width:2px"/>
    <path d="M101.5,230.2a44.7,44.7,0,0,1-12.6-1.4l-.4-.2a14.3,14.3,0,0,0-.9,2.7,1.9,1.9,0,0,0,1.3,2.2,44.7,44.7,0,0,0,12.6,1.4c9.5,0,14.5-2,14.5-2a14.3,14.3,0,0,0-1.2-4.4A48.8,48.8,0,0,1,101.5,230.2Z" style="fill:#180621;opacity:0.15"/>
    <path d="M138.1,230.2a44.7,44.7,0,0,1-12.6-1.4l-.4-.2a14.3,14.3,0,0,0-.9,2.7,1.9,1.9,0,0,0,1.3,2.2,44.7,44.7,0,0,0,12.6,1.4c9.5,0,14.5-2,14.5-2a14.3,14.3,0,0,0-1.2-4.4A48.8,48.8,0,0,1,138.1,230.2Z" style="fill:#180621;opacity:0.15"/>
  </g>
  <g>
    <title>03</title>
    <path d="M160.8,182.9l1,1.9h0c1.3,2.2,6.4,1.5,11.4-1.5s8.1-7.1,6.8-9.3h0l-1.1-1.8" style="fill:#2e4159"/>
    <path d="M161.7,149a9.2,9.2,0,0,0-13.5,7.4h0c-.8,6,4.5,19.3,7.7,24.8h.1c1.6,2.8,8.2,1.9,14.7-1.9s10.4-9.2,8.7-11.9h-.1c-3.2-5.5-12.7-16.4-18.3-18.6" style="fill:#dce3ea"/>
    <path d="M156.8,170.8c6.6-2.3,15.4-6.3,15.2-13a65.7,65.7,0,0,1,7.4,9.5h.1c1.6,2.8-2.3,8.1-8.7,11.9s-13,4.7-14.7,1.9H156a70.3,70.3,0,0,1-4.9-10.8C152.8,171.7,154.9,171.4,156.8,170.8Z" style="fill:#dce3ea"/>
    <path d="M78.2,182.9l-1,1.9h0c-1.3,2.2-6.4,1.5-11.4-1.5s-8.1-7.1-6.8-9.3h0l1.1-1.8" style="fill:#2e4159"/>
    <path d="M77.2,149a9.2,9.2,0,0,1,13.5,7.4h0c.8,6-4.5,19.3-7.7,24.8h-.1c-1.6,2.8-8.2,1.9-14.7-1.9s-10.4-9.2-8.7-11.9h.1c3.2-5.5,12.7-16.4,18.3-18.6" style="fill:#dce3ea"/>
    <path d="M82.2,170.8c-6.6-2.3-15.4-6.3-15.2-13a65.7,65.7,0,0,0-7.4,9.5h-.1c-1.6,2.8,2.3,8.1,8.7,11.9s13,4.7,14.7,1.9H83a70.3,70.3,0,0,0,4.9-10.8C86.2,171.7,84.1,171.4,82.2,170.8Z" style="fill:#dce3ea"/>
    <path d="M90.8,156.3h0a9.2,9.2,0,0,0-2.9-6,22.4,22.4,0,0,1-3.6,16.9c-4.7,7.1-12.1,10.9-18.7,10.2l2.6,1.8c6.5,3.8,13,4.7,14.7,1.9H83C86.3,175.6,91.6,162.2,90.8,156.3Z" style="fill:#180621;opacity:0.15"/>
    <path d="M148.2,156.3h0a9.2,9.2,0,0,1,2.9-6,22.4,22.4,0,0,0,3.6,16.9c4.7,7.1,12.1,10.9,18.7,10.2l-2.6,1.8c-6.5,3.8-13,4.7-14.7,1.9H156C152.7,175.6,147.4,162.2,148.2,156.3Z" style="fill:#180621;opacity:0.15"/>
    <path d="M86.6,152.4a2.5,2.5,0,0,1-1.9-4.1c4.1-4.9,12.6-10.3,22.4-11.1a2.5,2.5,0,0,1,.4,5c-8.3.7-15.6,5.3-19,9.3A2.5,2.5,0,0,1,86.6,152.4Z" style="fill:#2e4159"/>
    <path d="M86.6,152.4a2.5,2.5,0,0,1-1.9-4.1c4.1-4.9,12.6-10.3,22.4-11.1a2.5,2.5,0,0,1,.4,5c-8.3.7-15.6,5.3-19,9.3A2.5,2.5,0,0,1,86.6,152.4Z" style="fill:none;stroke:#1d132d;stroke-miterlimit:10;stroke-width:2px"/>
    <path d="M83,181.1c-1.6,2.8-8.2,1.9-14.7-1.9S58,170,59.6,167.3h0" style="fill:none;stroke:#1d132d;stroke-linecap:round;stroke-linejoin:round;stroke-width:2px"/>
    <path d="M87.5,171.2c-2.7.9-7.6-.2-12.4-3.1s-8.5-6.9-8.8-9.7" style="fill:none;stroke:#1d132d;stroke-linecap:round;stroke-linejoin:round;stroke-width:2px"/>
    <path d="M59.7,167.1c3.2-5.5,12.7-16.4,18.3-18.6" style="fill:none;stroke:#1d132d;stroke-linecap:round;stroke-linejoin:round;stroke-width:2px"/>
    <path d="M83.1,181c3.2-5.5,8.6-18.9,7.7-24.8" style="fill:none;stroke:#1d132d;stroke-linecap:round;stroke-linejoin:round;stroke-width:2px"/>
    <path d="M88.8,151.2a9.2,9.2,0,0,1,2,5.1" style="fill:none;stroke:#1d132d;stroke-linecap:round;stroke-linejoin:round;stroke-width:2px"/>
    <path d="M84.3,148.2h.3" style="fill:none;stroke:#1d132d;stroke-linecap:round;stroke-linejoin:round;stroke-width:2px"/>
    <path d="M77.3,148.9a9.2,9.2,0,0,1,7-.7" style="fill:none;stroke:#1d132d;stroke-linecap:round;stroke-linejoin:round;stroke-width:2px"/>
    <path d="M77.2,184.7c-1.3,2.2-6.4,1.5-11.4-1.5s-8.1-7.1-6.8-9.3h0" style="fill:none;stroke:#1d132d;stroke-linecap:round;stroke-linejoin:round;stroke-width:2px"/>
    <path d="M59.1,173.8l1.1-1.8" style="fill:none;stroke:#1d132d;stroke-linecap:round;stroke-linejoin:round;stroke-width:2px"/>
    <path d="M77.3,184.6l1-1.9" style="fill:none;stroke:#1d132d;stroke-linecap:round;stroke-linejoin:round;stroke-width:2px"/>
    <path d="M152.4,152.4a2.5,2.5,0,0,0,1.9-4.1c-4.1-4.9-12.6-10.3-22.4-11.1a2.5,2.5,0,0,0-.4,5c8.3.7,15.6,5.3,19,9.3A2.5,2.5,0,0,0,152.4,152.4Z" style="fill:#2e4159"/>
    <path d="M152.4,152.4a2.5,2.5,0,0,0,1.9-4.1c-4.1-4.9-12.6-10.3-22.4-11.1a2.5,2.5,0,0,0-.4,5c8.3.7,15.6,5.3,19,9.3A2.5,2.5,0,0,0,152.4,152.4Z" style="fill:none;stroke:#1d132d;stroke-miterlimit:10;stroke-width:2px"/>
    <path d="M155.9,181.1c1.6,2.8,8.2,1.9,14.7-1.9s10.4-9.2,8.7-11.9h0" style="fill:none;stroke:#1d132d;stroke-linecap:round;stroke-linejoin:round;stroke-width:2px"/>
    <path d="M151.4,171.2c2.7.9,7.6-.2,12.4-3.1s8.5-6.9,8.8-9.7" style="fill:none;stroke:#1d132d;stroke-linecap:round;stroke-linejoin:round;stroke-width:2px"/>
    <path d="M179.3,167.1c-3.2-5.5-12.7-16.4-18.3-18.6" style="fill:none;stroke:#1d132d;stroke-linecap:round;stroke-linejoin:round;stroke-width:2px"/>
    <path d="M155.9,181c-3.2-5.5-8.6-18.9-7.7-24.8" style="fill:none;stroke:#1d132d;stroke-linecap:round;stroke-linejoin:round;stroke-width:2px"/>
    <path d="M150.2,151.2a9.2,9.2,0,0,0-2,5.1" style="fill:none;stroke:#1d132d;stroke-linecap:round;stroke-linejoin:round;stroke-width:2px"/>
    <path d="M154.7,148.2h-.3" style="fill:none;stroke:#1d132d;stroke-linecap:round;stroke-linejoin:round;stroke-width:2px"/>
    <path d="M161.6,148.9a9.2,9.2,0,0,0-7-.7" style="fill:none;stroke:#1d132d;stroke-linecap:round;stroke-linejoin:round;stroke-width:2px"/>
    <path d="M161.7,184.7c1.3,2.2,6.4,1.5,11.4-1.5s8.1-7.1,6.8-9.3h0" style="fill:none;stroke:#1d132d;stroke-linecap:round;stroke-linejoin:round;stroke-width:2px"/>
    <path d="M179.9,173.8l-1.1-1.8" style="fill:none;stroke:#1d132d;stroke-linecap:round;stroke-linejoin:round;stroke-width:2px"/>
    <path d="M161.7,184.6l-1-1.9" style="fill:none;stroke:#1d132d;stroke-linecap:round;stroke-linejoin:round;stroke-width:2px"/>
  </g>
  <g>
    <title>05</title>
    <path d="M72.5,107.4V66.4H69.6c-10.7,0-19.4,9.2-19.4,20.5s8.7,20.5,19.4,20.5Z" style="fill:#dce3ea"/>
    <g style="opacity:0.15">
      <path d="M71,95.5h-.2a24.4,24.4,0,0,1-12.4-3.3l-5-3.8a25.1,25.1,0,0,1-3-3.7,21.7,21.7,0,0,0-.1,2.3c0,11.3,8.7,20.5,19.4,20.5h2.9V95.5Z" style="fill:#180621"/>
    </g>
    <path d="M166.5,107.4V66.4h2.9c10.7,0,19.4,9.2,19.4,20.5s-8.7,20.5-19.4,20.5Z" style="fill:#dce3ea"/>
    <g style="opacity:0.15">
      <path d="M168,95.5h.3a24.4,24.4,0,0,0,12.4-3.3l5-3.8a25.1,25.1,0,0,0,3-3.7,21.7,21.7,0,0,1,.1,2.3c0,11.3-8.7,20.5-19.4,20.5h-2.9V95.5Z" style="fill:#180621"/>
    </g>
    <path d="M72.5,107.4V66.4H69.6c-10.7,0-19.4,9.2-19.4,20.5s8.7,20.5,19.4,20.5Z" style="fill:none;stroke:#1d132d;stroke-miterlimit:10;stroke-width:2px"/>
    <path d="M166.5,107.4V66.4h2.9c10.7,0,19.4,9.2,19.4,20.5s-8.7,20.5-19.4,20.5Z" style="fill:none;stroke:#1d132d;stroke-miterlimit:10;stroke-width:2px"/>
  </g>
  <g>
    <title>06</title>
    <path d="M125.4,136.4c19.6-.5,28.4-3.6,37.2-11.1s12.1-21.8,12.1-37.2c0-27.7-17.6-49.2-43.4-53.7a76.8,76.8,0,0,0-11.1-.9,84.7,84.7,0,0,0-11.6.9C82.9,39,65.3,60.5,65.3,88.1c0,15.4,3.2,29.6,12.1,37.2s18.2,10.8,39.5,11.1Z" style="fill:#703c81;stroke:#1d132d;stroke-miterlimit:10;stroke-width:2px"/>
    <path d="M109.2,136.5c-7,6.6-11.8,18.9-11.8,29.9,0,16,10.1,19.5,22.6,19.5s22.6-3.4,22.6-19.5c0-11.1-4.9-23.5-12-30.1" style="fill:#703c81;stroke:#1d132d;stroke-miterlimit:10;stroke-width:2px"/>
    <path d="M130.9,136.7c-3.4.7-18,.5-21.3-.1h-.4c-7,6.6-11.8,18.9-11.8,29.9,0,16,10.1,19.5,22.6,19.5s22.6-3.4,22.6-19.5C142.6,155.5,137.8,143.3,130.9,136.7Z" style="fill:#703c81"/>
    <path d="M130.8,136.2c0,.2,5,7.1,5,7.4a15.7,15.7,0,1,1-31.4,0c0-.2,5.4-6.9,5.4-7.1" style="fill:#ff9a00"/>
    <path d="M97.8,162.5a45.3,45.3,0,0,0,14.7,8.6h.2a33.3,33.3,0,0,1-15-2.2" style="fill:#ff9a00"/>
    <path d="M142.2,162.5a45.3,45.3,0,0,1-14.7,8.6h-.2a33.3,33.3,0,0,0,15-2.2" style="fill:#ff9a00"/>
    <path d="M135.7,142.8q0,.4,0,.7a15.7,15.7,0,1,1-31.4,0q0-.4,0-.7" style="fill:none;stroke:#1d132d;stroke-linecap:round;stroke-linejoin:round;stroke-width:2px"/>
    <line x1="120" y1="159.3" x2="120" y2="185.6" style="fill:none;stroke:#1d132d;stroke-linecap:round;stroke-linejoin:round;stroke-width:2px"/>
    <path d="M97.8,162.5a45.3,45.3,0,0,0,14.7,8.6h.2a33.3,33.3,0,0,1-15-2.2" style="fill:none;stroke:#1d132d;stroke-linecap:round;stroke-linejoin:round;stroke-width:2px"/>
    <path d="M142.2,162.5a45.3,45.3,0,0,1-14.7,8.6h-.2a33.3,33.3,0,0,0,15-2.2" style="fill:none;stroke:#1d132d;stroke-linecap:round;stroke-linejoin:round;stroke-width:2px"/>
    <path d="M130.5,136.2c-3.1.3-6.1.6-9.4.6a111.1,111.1,0,0,1-12.3-.4L102,146a41,41,0,0,0,17.6,3.6,40.7,40.7,0,0,0,17.8-3.7C137.2,145.6,130.9,136.7,130.5,136.2Z" style="fill:#180621;opacity:0.15"/>
    <path d="M109.5,136.3l-.6.5c-6.9,6.7-11.5,18.8-11.5,29.6,0,16,10.1,19.5,22.6,19.5s22.6-3.4,22.6-19.5c0-11-4.8-23.3-11.8-29.9l-.2-.2" style="fill:none;stroke:#1d132d;stroke-linecap:round;stroke-linejoin:round;stroke-width:2px"/>
    <g style="opacity:0.30000000000000004">
      <path d="M108.7,44.1a84.7,84.7,0,0,1,11.6-.9,76.8,76.8,0,0,1,11.1.9c24.4,4.3,41.5,23.9,43.2,49.5q.1-2.7.1-5.5c0-27.7-17.6-49.2-43.4-53.7a76.8,76.8,0,0,0-11.1-.9,84.7,84.7,0,0,0-11.6.9C82.9,39,65.3,60.5,65.3,88.1q0,2.8.1,5.5C67.1,68,84.3,48.4,108.7,44.1Z" style="fill:#fff"/>
    </g>
    <path d="M125.4,136.4c19.6-.5,28.4-3.6,37.2-11.1s12.1-21.8,12.1-37.2c0-27.7-17.6-49.2-43.4-53.7a76.8,76.8,0,0,0-11.1-.9,84.7,84.7,0,0,0-11.6.9C82.9,39,65.3,60.5,65.3,88.1c0,15.4,3.2,29.6,12.1,37.2s18.2,10.8,39.5,11.1Z" style="fill:none;stroke:#1d132d;stroke-miterlimit:10;stroke-width:2px"/>
    <path d="M109.2,136.5c-7,6.6-11.8,18.9-11.8,29.9,0,16,10.1,19.5,22.6,19.5s22.6-3.4,22.6-19.5c0-11.1-4.9-23.5-12-30.1" style="fill:none;stroke:#1d132d;stroke-miterlimit:10;stroke-width:2px"/>
    <g style="opacity:0.30000000000000004">
      <path d="M108.7,44.1a84.7,84.7,0,0,1,11.6-.9,76.8,76.8,0,0,1,11.1.9c24.4,4.3,41.5,23.9,43.2,49.5q.1-2.7.1-5.5c0-27.7-17.6-49.2-43.4-53.7a76.8,76.8,0,0,0-11.1-.9,84.7,84.7,0,0,0-11.6.9C82.9,39,65.3,60.5,65.3,88.1q0,2.8.1,5.5C67.1,68,84.3,48.4,108.7,44.1Z" style="fill:#fff"/>
    </g>
    <path d="M125.4,136.4c19.6-.5,28.4-3.6,37.2-11.1s12.1-21.8,12.1-37.2c0-27.7-17.6-49.2-43.4-53.7a76.8,76.8,0,0,0-11.1-.9,84.7,84.7,0,0,0-11.6.9C82.9,39,65.3,60.5,65.3,88.1c0,15.4,3.2,29.6,12.1,37.2s18.2,10.8,39.5,11.1Z" style="fill:none;stroke:#1d132d;stroke-miterlimit:10;stroke-width:2px"/>
  </g>
  <g>
    <title>01</title>
    <path d="M106.1,135.8V115.4h.1a22,22,0,0,1,14.1-5.1s.8,19.5.8,26.5" style="fill:#dce3ea"/>
    <path d="M106.6,121.3l-.2-2c-.7-1.6-.8-3.1-.2-4.1H106a135.3,135.3,0,0,1-21.5-2.7c-6.9-1.5-14.1-5-17.9-11.2h-.4c1.5,10,4.9,18.6,11.2,23.9s14.9,9.6,29,10.7C106.4,130.9,106.5,126.1,106.6,121.3Z" style="fill:#2e4159"/>
    <path d="M133.7,136.1V115.7h-.1a22,22,0,0,0-14.1-5.1s-.8,19.5-.8,26.5" style="fill:#dce3ea"/>
    <path d="M133.2,121.6l.2-2c.7-1.6.8-3.1.2-4.1h.2a135.3,135.3,0,0,0,21.5-2.7c6.9-1.5,14.1-5,17.9-11.2h.4c-1.5,10-4.9,18.6-11.2,23.9s-14.9,9.6-29,10.7C133.4,131.2,133.3,126.4,133.2,121.6Z" style="fill:#2e4159"/>
    <circle cx="93.1" cy="123" r="2.5" style="fill:#1d132d"/>
    <circle cx="84.9" cy="120.5" r="2.5" style="fill:#1d132d"/>
    <path d="M66.2,101.4c6.9,8,17.3,13.1,40,14.1" style="fill:none;stroke:#1d132d;stroke-linecap:round;stroke-linejoin:round;stroke-width:2px"/>
    <path d="M66.2,101.4c1.5,10,4.9,18.6,11.2,23.9,9.1,7.8,18.2,10.8,39.5,11.1H120" style="fill:none;stroke:#1d132d;stroke-miterlimit:10;stroke-width:2px"/>
    <path d="M106.1,135.8V115.4h.1a22,22,0,0,1,14.1-5.1" style="fill:none;stroke:#1d132d;stroke-linecap:round;stroke-linejoin:round;stroke-width:2px"/>
    <circle cx="146.7" cy="123" r="2.5" style="fill:#1d132d"/>
    <circle cx="154.9" cy="120.5" r="2.5" style="fill:#1d132d"/>
    <path d="M173.5,101.4c-6.9,8-17.3,13.1-40,14.1" style="fill:none;stroke:#1d132d;stroke-linecap:round;stroke-linejoin:round;stroke-width:2px"/>
    <path d="M173.5,101.4c-1.5,10-4.9,18.6-11.2,23.9-9.1,7.8-18.2,10.8-39.5,11.1h-3.1" style="fill:none;stroke:#1d132d;stroke-miterlimit:10;stroke-width:2px"/>
    <path d="M133.7,135.8V115.4h-.1a22,22,0,0,0-14.1-5.1" style="fill:none;stroke:#1d132d;stroke-linecap:round;stroke-linejoin:round;stroke-width:2px"/>
    <line x1="113.6" y1="136" x2="113.6" y2="123" style="fill:none;stroke:#1d132d;stroke-linecap:round;stroke-linejoin:round;stroke-width:2px"/>
    <line x1="120" y1="136" x2="120" y2="120.5" style="fill:none;stroke:#1d132d;stroke-linecap:round;stroke-linejoin:round;stroke-width:2px"/>
    <line x1="126.6" y1="136" x2="126.6" y2="123" style="fill:none;stroke:#1d132d;stroke-linecap:round;stroke-linejoin:round;stroke-width:2px"/>
  </g>
  <g>
    <title>01</title>
    <path d="M120.4,68.1c6.1,0,10.2-1.3,17.9-3.4,6-1.6,12.1-1.1,14.6-.2A16.5,16.5,0,0,1,164,80.2V91.8l-14.5,8.8A82.6,82.6,0,0,0,120.4,95h0a82.6,82.6,0,0,0-29.1,5.6L76.7,91.8V80.2A16.5,16.5,0,0,1,87.8,64.6c2.6-.9,8.7-1.4,14.6.2,7.7,2.1,11.8,3.4,17.9,3.4" style="fill:#dce3ea"/>
    <path d="M120.4,68.1c6.1,0,10.2-1.3,17.9-3.4,6-1.6,12.1-1.1,14.6-.2A16.5,16.5,0,0,1,164,80.2V91.8l-14.5,8.8A82.6,82.6,0,0,0,120.4,95h0a82.6,82.6,0,0,0-29.1,5.6L76.7,91.8V80.2A16.5,16.5,0,0,1,87.8,64.6c2.6-.9,8.7-1.4,14.6.2,7.7,2.1,11.8,3.4,17.9,3.4" style="fill:#dce3ea"/>
    <path d="M120.4,68.1c6.1,0,10.2-1.3,17.9-3.4,6-1.6,12.1-1.1,14.6-.2A16.5,16.5,0,0,1,164,80.2V91.8l-14.5,8.8A82.6,82.6,0,0,0,120.4,95h0a82.6,82.6,0,0,0-29.1,5.6L76.7,91.8V80.2A16.5,16.5,0,0,1,87.8,64.6c2.6-.9,8.7-1.4,14.6.2,7.7,2.1,11.8,3.4,17.9,3.4" style="fill:#2e4159"/>
    <path d="M120.4,91.1h0a82.6,82.6,0,0,0-29.1,5.6L76.7,87.9v3.8l14.5,8.8A82.6,82.6,0,0,1,120.3,95h0a82.6,82.6,0,0,1,29.1,5.6L164,91.8V87.9l-14.5,8.8A82.6,82.6,0,0,0,120.4,91.1Z" style="fill:#180621;opacity:0.15"/>
    <path d="M76.9,91A16.5,16.5,0,0,1,88,75.4c2.6-.9,8.7-1.4,14.6.2,7.7,2.1,11.8,3.4,17.9,3.4h0c6.1,0,10.2-1.3,17.9-3.4,6-1.6,12.1-1.1,14.6-.2A16.5,16.5,0,0,1,164,88.7V80.2a16.5,16.5,0,0,0-11.1-15.6c-2.6-.9-8.7-1.4-14.6.2-7.7,2.1-11.8,3.4-17.9,3.4h0c-6.1,0-10.2-1.3-17.9-3.4-6-1.6-12.1-1.1-14.6-.2A16.5,16.5,0,0,0,76.7,80.2V91.8h0.2V91Z" style="fill:#fff;opacity:0.2"/>
    <circle cx="94.8" cy="81.4" r="10.7" style="fill:none;stroke:#1d132d;stroke-linecap:round;stroke-linejoin:round;stroke-width:2px"/>
    <circle cx="145.9" cy="81.4" r="10.7" style="fill:none;stroke:#1d132d;stroke-linecap:round;stroke-linejoin:round;stroke-width:2px"/>
    <circle cx="94.8" cy="81.4" r="10.7" style="fill:#e83a27;stroke:#1d132d;stroke-linecap:round;stroke-linejoin:round;stroke-width:2px"/>
    <circle cx="145.9" cy="81.4" r="10.7" style="fill:#e83a27;stroke:#1d132d;stroke-linecap:round;stroke-linejoin:round;stroke-width:2px"/>
    <path d="M95,76.1a10.7,10.7,0,0,1,10.4,8,10.7,10.7,0,1,0-20.7,0A10.7,10.7,0,0,1,95,76.1Z" style="fill:#fff;opacity:0.5"/>
    <path d="M145.9,76.1a10.7,10.7,0,0,1,10.4,8,10.7,10.7,0,1,0-20.7,0A10.7,10.7,0,0,1,145.9,76.1Z" style="fill:#fff;opacity:0.5"/>
    <circle cx="145.9" cy="81.4" r="10.7" style="fill:none;stroke:#1d132d;stroke-linecap:round;stroke-linejoin:round;stroke-width:2px"/>
    <polyline points="129.9 67.4 129.2 72.9 120.5 77.5 120.2 77.5 111.4 72.9 110.8 67.4" style="fill:#dce3ea"/>
    <path d="M111.1,70.1l0.3,2.8,8.7,4.6h0.3l8.7-4.6,0.3-2.9A21.9,21.9,0,0,1,111.1,70.1Z" style="fill:#180621;opacity:0.15"/>
    <path d="M120.4,68.1c6.1,0,10.2-1.3,17.9-3.4,6-1.6,12.1-1.1,14.6-.2A16.5,16.5,0,0,1,164,80.2V91.8l-14.5,8.8A82.6,82.6,0,0,0,120.4,95h0a82.6,82.6,0,0,0-29.1,5.6L76.7,91.8V80.2A16.5,16.5,0,0,1,87.8,64.6c2.6-.9,8.7-1.4,14.6.2,7.7,2.1,11.8,3.4,17.9,3.4" style="fill:none;stroke:#1d132d;stroke-linecap:round;stroke-linejoin:round;stroke-width:2px"/>
    <polyline points="129.9 67.4 129.2 72.9 120.5 77.5 120.2 77.5 111.4 72.9 110.8 67.4" style="fill:none;stroke:#1d132d;stroke-linecap:round;stroke-linejoin:round;stroke-width:2px"/>
    <circle cx="94.8" cy="81.4" r="10.7" style="fill:none;stroke:#1d132d;stroke-linecap:round;stroke-linejoin:round;stroke-width:2px"/>
  </g>
  <g>
    <title>02</title>
    <path d="M126.4,33.7a6.5,6.5,0,0,0-11.8-1l-.4,1" style="fill:#2e4159"/>
    <path d="M125.9,18a11.3,11.3,0,0,0-7.2-10.6h0q0,.4,0,.8a11.3,11.3,0,0,1-3.2,7.9h0a5.8,5.8,0,1,0,9.5,6.2h0A11.3,11.3,0,0,0,125.9,18Z" style="fill:#dce3ea"/>
    <circle cx="119.5" cy="21.8" r="4.8" style="fill:#fff;opacity:0.5"/>
    <path d="M126.4,33.7a6.5,6.5,0,0,0-11.8-1l-.4,1Z" style="fill:none;stroke:#1d132d;stroke-linecap:round;stroke-linejoin:round;stroke-width:2px"/>
    <path d="M125.9,18a11.3,11.3,0,0,0-7.2-10.6h0q0,.4,0,.8a11.3,11.3,0,0,1-3.2,7.9h0a5.8,5.8,0,1,0,9.5,6.2h0A11.3,11.3,0,0,0,125.9,18Z" style="fill:none;stroke:#1d132d;stroke-linecap:round;stroke-linejoin:round;stroke-width:2px"/>
  </g>
</svg>