<svg xmlns="http://www.w3.org/2000/svg" xmlns:xlink="http://www.w3.org/1999/xlink" viewBox="0 0 240 240">
  <ellipse cx="120.5" cy="233.4" rx="43.7" ry="4.9" style="fill:#180621;opacity:0.15"/>
  <g>
    <title>03</title>
    <path d="M129.9,192.6c3.9,1.1,6.4,2.9,6.4,4.8s-7.3,6.1-16.3,6.1-16.3-2.7-16.3-6.1,2.5-3.7,6.5-4.8" style="fill:#36c8e3"/>
    <ellipse cx="120" cy="229.8" rx="4.1" ry="2.6" style="fill:#36c8e3"/>
    <ellipse cx="120" cy="221.2" rx="7.2" ry="3.2" style="fill:#36c8e3"/>
    <path d="M118.9,206.3H120c6.2,0,11.3,2,11.3,4.5s-5.1,4.5-11.3,4.5-11.3-2-11.3-4.5,4.5-4.3,10.2-4.5" style="fill:#36c8e3"/>
    <path d="M125.8,192.5c2.3.7,3.7,1.7,3.7,2.8s-4.3,3.6-9.6,3.6-9.6-1.6-9.6-3.6,1.5-2.2,3.8-2.8" style="fill:#180621;opacity:0.25"/>
    <path d="M124.5,206.2c1.8.5,2.9,1.4,2.9,2.3s-3.3,2.9-7.4,2.9-7.4-1.3-7.4-2.9,1.1-1.8,2.9-2.3" style="fill:#180621;opacity:0.25"/>
    <path d="M122.9,217.8c1.1.4,1.8.9,1.8,1.5s-2.1,1.9-4.7,1.9-4.7-.9-4.7-1.9.7-1.2,1.9-1.5" style="fill:#180621;opacity:0.25"/>
    <path d="M121.3,227.1a1.3,1.3,0,0,1,.8,1.1c0,.7-1,1.3-2.2,1.3s-2.2-.6-2.2-1.3a1.3,1.3,0,0,1,.9-1.1" style="fill:#180621;opacity:0.25"/>
    <path d="M137.2,180.3H102.8v7.4c0,3.2,7.7,5.8,17.2,5.8s17.2-2.6,17.2-5.8Z" style="fill:#2e4159"/>
    <path d="M129.9,192.6c3.9,1.1,6.4,2.9,6.4,4.8s-7.3,6.1-16.3,6.1-16.3-2.7-16.3-6.1,2.5-3.7,6.5-4.8" style="fill:none;stroke:#1d132d;stroke-linecap:round;stroke-linejoin:round;stroke-width:2px"/>
    <path d="M118.9,206.3H120c6.2,0,11.3,2,11.3,4.5s-5.1,4.5-11.3,4.5-11.3-2-11.3-4.5,4.5-4.3,10.2-4.5" style="fill:none;stroke:#1d132d;stroke-linecap:round;stroke-linejoin:round;stroke-width:2px"/>
    <ellipse cx="120" cy="221.2" rx="7.2" ry="3.2" style="fill:none;stroke:#1d132d;stroke-linecap:round;stroke-linejoin:round;stroke-width:2px"/>
    <ellipse cx="120" cy="229.8" rx="4.1" ry="2.6" style="fill:none;stroke:#1d132d;stroke-linecap:round;stroke-linejoin:round;stroke-width:2px"/>
    <path d="M137.2,180.3H102.8v7.4c0,3.2,7.7,5.8,17.2,5.8s17.2-2.6,17.2-5.8Z" style="fill:none;stroke:#1d132d;stroke-miterlimit:10;stroke-width:2px"/>
  </g>
  <g>
    <title>06</title>
    <path d="M94,160.1a144.8,144.8,0,0,1,13.8-23c-44.1,15.3-44.4,43-24.4,52.6A140.2,140.2,0,0,1,94,160.1Z" style="fill:#2e4159"/>
    <path d="M86.8,158.2a12.1,12.1,0,0,0-3.4-8.4l-2.3,1.9a9.2,9.2,0,0,1-9.9,15,20.2,20.2,0,0,0-.5,3,12.1,12.1,0,0,0,16.1-11.5Z" style="fill:#dce3ea"/>
    <path d="M94,160.1a144.8,144.8,0,0,1,13.8-23c-44.1,15.3-44.4,43-24.4,52.6A140.2,140.2,0,0,1,94,160.1Z" style="fill:none;stroke:#1d132d;stroke-linecap:round;stroke-linejoin:round;stroke-width:2px"/>
    <path d="M145.7,160.1a144.8,144.8,0,0,0-13.8-23c44.1,15.3,44.4,43,24.4,52.6A140.2,140.2,0,0,0,145.7,160.1Z" style="fill:#2e4159"/>
    <path d="M152.9,158.2a12.1,12.1,0,0,1,3.4-8.4l2.3,1.9a9.2,9.2,0,0,0,9.9,15,20.2,20.2,0,0,1,.5,3,12.1,12.1,0,0,1-16.1-11.5Z" style="fill:#dce3ea"/>
    <path d="M145.7,160.1a144.8,144.8,0,0,0-13.8-23c44.1,15.3,44.4,43,24.4,52.6A140.2,140.2,0,0,0,145.7,160.1Z" style="fill:none;stroke:#1d132d;stroke-linecap:round;stroke-linejoin:round;stroke-width:2px"/>
  </g>
  <g>
    <title>06</title>
    <path d="M49.3,45.6c0,.3,0,.6,0,.9,0,10.6,9.2,19.3,20.9,20C69.4,63.9,65.1,52.5,49.3,45.6Z" style="fill:#fff;opacity:0.5"/>
    <path d="M169.9,67s3.2-14,21.7-21.6h0c1.7,5.6.2,15.1.2,15.1,1.5,5.3.1,14.2.1,14.2a25.3,25.3,0,0,1-17.1,30.7Z" style="fill:#dce3ea"/>
    <path d="M192.5,67h0a59.2,59.2,0,0,1-.6,7.7,25.3,25.3,0,0,1-17.1,30.7L172.9,91C184.1,88.7,191.9,78.6,192.5,67Z" style="fill:#180621;opacity:0.15"/>
    <path d="M190.9,45.6c0,.3,0,.6,0,.9,0,10.6-9.2,19.3-20.9,20C170.8,63.9,175.2,52.5,190.9,45.6Z" style="fill:#fff;opacity:0.5"/>
    <path d="M70.3,67S67.1,53,48.6,45.4h0c-1.7,5.6-.2,15.1-.2,15.1-1.5,5.3-.1,14.2-.1,14.2a25.3,25.3,0,0,0,17.1,30.7Z" style="fill:#dce3ea"/>
    <path d="M47.8,67h0a59.2,59.2,0,0,0,.6,7.7,25.3,25.3,0,0,0,17.1,30.7L67.3,91C56.1,88.7,48.3,78.6,47.8,67Z" style="fill:#180621;opacity:0.15"/>
    <path d="M48.3,74.6a25.3,25.3,0,0,0,17.1,30.7" style="fill:none;stroke:#1d132d;stroke-linecap:round;stroke-linejoin:round;stroke-width:2px"/>
    <path d="M48.4,60.4a25.3,25.3,0,0,0,17,31" style="fill:none;stroke:#1d132d;stroke-linecap:round;stroke-linejoin:round;stroke-width:2px"/>
    <path d="M70.3,67S67.1,53,48.6,45.4h0A25.3,25.3,0,0,0,65.4,77" style="fill:none;stroke:#1d132d;stroke-linecap:round;stroke-linejoin:round;stroke-width:2px"/>
    <path d="M191.9,74.6a25.3,25.3,0,0,1-17.1,30.7" style="fill:none;stroke:#1d132d;stroke-linecap:round;stroke-linejoin:round;stroke-width:2px"/>
    <path d="M191.8,60.4a25.3,25.3,0,0,1-17,31" style="fill:none;stroke:#1d132d;stroke-linecap:round;stroke-linejoin:round;stroke-width:2px"/>
    <path d="M169.9,67s3.2-14,21.7-21.6h0A25.3,25.3,0,0,1,174.8,77" style="fill:none;stroke:#1d132d;stroke-linecap:round;stroke-linejoin:round;stroke-width:2px"/>
  </g>
  <g>
    <title>06</title>
    <path d="M125.4,136.4c19.6-.5,28.4-3.6,37.2-11.1s12.1-21.8,12.1-37.2c0-27.7-17.6-49.2-43.4-53.7a76.8,76.8,0,0,0-11.1-.9,84.7,84.7,0,0,0-11.6.9C82.9,39,65.3,60.5,65.3,88.1c0,15.4,3.2,29.6,12.1,37.2s18.2,10.8,39.5,11.1Z" style="fill:#703c81;stroke:#1d132d;stroke-miterlimit:10;stroke-width:2px"/>
    <path d="M109.2,136.5c-7,6.6-11.8,18.9-11.8,29.9,0,16,10.1,19.5,22.6,19.5s22.6-3.4,22.6-19.5c0-11.1-4.9-23.5-12-30.1" style="fill:#703c81;stroke:#1d132d;stroke-miterlimit:10;stroke-width:2px"/>
    <path d="M130.9,136.7c-3.4.7-18,.5-21.3-.1h-.4c-7,6.6-11.8,18.9-11.8,29.9,0,16,10.1,19.5,22.6,19.5s22.6-3.4,22.6-19.5C142.6,155.5,137.8,143.3,130.9,136.7Z" style="fill:#703c81"/>
    <path d="M130.8,136.2c0,.2,5,7.1,5,7.4a15.7,15.7,0,1,1-31.4,0c0-.2,5.4-6.9,5.4-7.1" style="fill:#ff9a00"/>
    <path d="M97.8,162.5a45.3,45.3,0,0,0,14.7,8.6h.2a33.3,33.3,0,0,1-15-2.2" style="fill:#ff9a00"/>
    <path d="M142.2,162.5a45.3,45.3,0,0,1-14.7,8.6h-.2a33.3,33.3,0,0,0,15-2.2" style="fill:#ff9a00"/>
    <path d="M135.7,142.8q0,.4,0,.7a15.7,15.7,0,1,1-31.4,0q0-.4,0-.7" style="fill:none;stroke:#1d132d;stroke-linecap:round;stroke-linejoin:round;stroke-width:2px"/>
    <line x1="120" y1="159.3" x2="120" y2="185.6" style="fill:none;stroke:#1d132d;stroke-linecap:round;stroke-linejoin:round;stroke-width:2px"/>
    <path d="M97.8,162.5a45.3,45.3,0,0,0,14.7,8.6h.2a33.3,33.3,0,0,1-15-2.2" style="fill:none;stroke:#1d132d;stroke-linecap:round;stroke-linejoin:round;stroke-width:2px"/>
    <path d="M142.2,162.5a45.3,45.3,0,0,1-14.7,8.6h-.2a33.3,33.3,0,0,0,15-2.2" style="fill:none;stroke:#1d132d;stroke-linecap:round;stroke-linejoin:round;stroke-width:2px"/>
    <path d="M130.5,136.2c-3.1.3-6.1.6-9.4.6a111.1,111.1,0,0,1-12.3-.4L102,146a41,41,0,0,0,17.6,3.6,40.7,40.7,0,0,0,17.8-3.7C137.2,145.6,130.9,136.7,130.5,136.2Z" style="fill:#180621;opacity:0.15"/>
    <path d="M109.5,136.3l-.6.5c-6.9,6.7-11.5,18.8-11.5,29.6,0,16,10.1,19.5,22.6,19.5s22.6-3.4,22.6-19.5c0-11-4.8-23.3-11.8-29.9l-.2-.2" style="fill:none;stroke:#1d132d;stroke-linecap:round;stroke-linejoin:round;stroke-width:2px"/>
    <g style="opacity:0.30000000000000004">
      <path d="M108.7,44.1a84.7,84.7,0,0,1,11.6-.9,76.8,76.8,0,0,1,11.1.9c24.4,4.3,41.5,23.9,43.2,49.5q.1-2.7.1-5.5c0-27.7-17.6-49.2-43.4-53.7a76.8,76.8,0,0,0-11.1-.9,84.7,84.7,0,0,0-11.6.9C82.9,39,65.3,60.5,65.3,88.1q0,2.8.1,5.5C67.1,68,84.3,48.4,108.7,44.1Z" style="fill:#fff"/>
    </g>
    <path d="M125.4,136.4c19.6-.5,28.4-3.6,37.2-11.1s12.1-21.8,12.1-37.2c0-27.7-17.6-49.2-43.4-53.7a76.8,76.8,0,0,0-11.1-.9,84.7,84.7,0,0,0-11.6.9C82.9,39,65.3,60.5,65.3,88.1c0,15.4,3.2,29.6,12.1,37.2s18.2,10.8,39.5,11.1Z" style="fill:none;stroke:#1d132d;stroke-miterlimit:10;stroke-width:2px"/>
    <path d="M109.2,136.5c-7,6.6-11.8,18.9-11.8,29.9,0,16,10.1,19.5,22.6,19.5s22.6-3.4,22.6-19.5c0-11.1-4.9-23.5-12-30.1" style="fill:none;stroke:#1d132d;stroke-miterlimit:10;stroke-width:2px"/>
    <g style="opacity:0.30000000000000004">
      <path d="M108.7,44.1a84.7,84.7,0,0,1,11.6-.9,76.8,76.8,0,0,1,11.1.9c24.4,4.3,41.5,23.9,43.2,49.5q.1-2.7.1-5.5c0-27.7-17.6-49.2-43.4-53.7a76.8,76.8,0,0,0-11.1-.9,84.7,84.7,0,0,0-11.6.9C82.9,39,65.3,60.5,65.3,88.1q0,2.8.1,5.5C67.1,68,84.3,48.4,108.7,44.1Z" style="fill:#fff"/>
    </g>
    <path d="M125.4,136.4c19.6-.5,28.4-3.6,37.2-11.1s12.1-21.8,12.1-37.2c0-27.7-17.6-49.2-43.4-53.7a76.8,76.8,0,0,0-11.1-.9,84.7,84.7,0,0,0-11.6.9C82.9,39,65.3,60.5,65.3,88.1c0,15.4,3.2,29.6,12.1,37.2s18.2,10.8,39.5,11.1Z" style="fill:none;stroke:#1d132d;stroke-miterlimit:10;stroke-width:2px"/>
  </g>
  <g>
    <title>03</title>
    <path d="M105.1,136.2c-13.7-1.1-21.1-4.3-28.4-10.6a15.7,15.7,0,0,1-3.7-4c-2.4-4.2-7.2-18.1-7.2-18.1,14.5,13.8,41.2,11.8,53.6-.4h0c12.4,11.9,37.1,12.9,54,.8,0,0-4.2,13.6-7.6,17.7a31.5,31.5,0,0,1-3.7,4c-7.3,6.3-14.7,9.5-28.4,10.6h.2a20.3,20.3,0,0,0-14.4,7.2h-.1a20.3,20.3,0,0,0-14.4-7.2" style="fill:#2e4159"/>
    <path d="M173.3,103.4c-13.5,13-40.8,11.3-53.1-.5H120v40.2h.2a20.3,20.3,0,0,1,14.4-7.2h-.2c13.7-1.1,21.1-4.3,28.4-10.6,1.4-1.2,2.6-3.2,3.9-4.5C170.3,117.3,173.3,103.4,173.3,103.4Z" style="fill:#fff;opacity:0.2"/>
    <path d="M120.1,107.9h0c12,10.3,34.7,11.6,51.5,1.8,1-3.3,1.7-5.9,1.7-5.9-16.9,12.1-40.8,11-53.1-.9h0C107.7,115,81,117,66.5,103.3c0,0,1.1,3.1,2.5,6.8C83.9,120.3,108.4,118.2,120.1,107.9Z" style="fill:#fff;opacity:0.1"/>
    <g style="opacity:0.2">
      <path d="M106.9,128a1,1,0,0,1-.1-2l7.6-1a1,1,0,1,1,.3,2l-7.6,1Z" style="fill:#fff"/>
      <path d="M107.3,121.9a1,1,0,0,1-.1-2l7.6-1a1,1,0,1,1,.3,2l-7.6,1Z" style="fill:#fff"/>
    </g>
    <line x1="114.6" y1="125.4" x2="106.9" y2="126.5" style="fill:none;stroke:#1d132d;stroke-linecap:round;stroke-linejoin:round;stroke-width:2px"/>
    <line x1="114.9" y1="119.4" x2="107.3" y2="120.4" style="fill:none;stroke:#1d132d;stroke-linecap:round;stroke-linejoin:round;stroke-width:2px"/>
    <g style="opacity:0.2">
      <path d="M133.1,128a1,1,0,0,0,.1-2l-7.6-1a1,1,0,1,0-.3,2l7.6,1Z" style="fill:#fff"/>
      <path d="M132.7,121.9a1,1,0,0,0,.1-2l-7.6-1a1,1,0,0,0-.3,2l7.6,1Z" style="fill:#fff"/>
    </g>
    <line x1="125.4" y1="125.4" x2="133.1" y2="126.5" style="fill:none;stroke:#1d132d;stroke-linecap:round;stroke-linejoin:round;stroke-width:2px"/>
    <line x1="125.1" y1="119.4" x2="132.7" y2="120.4" style="fill:none;stroke:#1d132d;stroke-linecap:round;stroke-linejoin:round;stroke-width:2px"/>
    <path d="M120,143.1h0a20.3,20.3,0,0,1,14.4-7.2h-.2c13.7-1.1,21.1-4.3,28.4-10.6,1.4-1.2,5.2-4.1,8.3-11.7,1.9-4.6,3-13.6,3-13.6-6,16.7-40.7,15.6-54,2.8h.1c-13.4,12.8-48,13.8-54-2.8,0,0,1.2,9,3,13.6,3.1,7.6,7,10.5,8.3,11.7,7.3,6.3,14.7,9.5,28.4,10.6h-.2a20.3,20.3,0,0,1,14.4,7.2h0" style="fill:none;stroke:#1d132d;stroke-linecap:round;stroke-linejoin:round;stroke-width:2px"/>
  </g>
  <g>
    <title>!0_gen_02</title>
    <circle cx="120" cy="81.9" r="16.7" style="fill:none;stroke:#1d132d;stroke-miterlimit:10;stroke-width:2px"/>
    <circle cx="120" cy="81.9" r="16.7" style="fill:#ffde00;stroke:#1d132d;stroke-miterlimit:10;stroke-width:2px"/>
    <circle cx="120" cy="81.9" r="7.5" style="fill:#1d132d"/>
    <ellipse cx="127.2" cy="76.1" rx="6.1" ry="4.5" transform="matrix(0.78, -0.62, 0.62, 0.78, -19.64, 96.14)" style="fill:#fff;opacity:0.5"/>
  </g>
  <g>
    <title>03</title>
    <path d="M120,28.1h0Z" style="fill:#ff81a2"/>
    <path d="M162.1,46.1h0c1.5-12.5-5.3-24.9-5.3-24.9a47.4,47.4,0,0,0-18.1,8.5l-.4.3a91.5,91.5,0,0,0-36.7,0l-.4-.3-2-1.4a29.8,29.8,0,0,0-7.4-4.1,42.9,42.9,0,0,0-8.7-2.9s-6.8,12.4-5.3,24.9h0A50.3,50.3,0,0,0,66.8,74.5h.1a62.9,62.9,0,0,1,35-27.2c3.9,4.1,9.3,7.8,18.1,10.8h0c8.8-3,14.2-6.7,18.1-10.7h.3a62.9,62.9,0,0,1,34.8,27.2h.1A50.3,50.3,0,0,0,162.1,46.1Z" style="fill:#dce3ea"/>
    <path d="M100.1,45.9A175.2,175.2,0,0,0,83.2,21.2s-6.9,13.2-5.5,25.7l.5.4c4.4-4.7,14.7-5.3,22.1-.1" style="fill:#180621;opacity:0.15"/>
    <path d="M140,46a175.2,175.2,0,0,1,16.9-24.7s6.9,13.2,5.5,25.7l-.5.4c-4.4-4.7-14.7-5.3-22.1-.1" style="fill:#180621;opacity:0.15"/>
    <path d="M120.3,57.9h0c-25.4-8.6-19.6-25.8-18.6-27.8.1-.2,10.7-2,18-2s18.1,1.5,18.8,2.1C141.1,33,145.7,49.3,120.3,57.9Z" style="fill:#fff;opacity:0.5"/>
    <path d="M156.6,21.4C142.3,35.5,145.4,49.6,120,58.2h0C94.6,49.6,97.7,35.4,83.4,21.4" style="fill:none;stroke:#1d132d;stroke-linecap:round;stroke-linejoin:round;stroke-width:2px"/>
    <path d="M138.2,47.4a62.9,62.9,0,0,1,35,27.2h.1a50.4,50.4,0,0,0-11.1-28.4h0c1.5-12.5-5.3-24.9-5.3-24.9a47.4,47.4,0,0,0-18.1,8.5l-.4.3A91.3,91.3,0,0,0,120,28.1h.1a91.3,91.3,0,0,0-18.4,1.9l-.4-.3a47.4,47.4,0,0,0-18.1-8.5s-6.8,12.4-5.3,24.9h0A50.4,50.4,0,0,0,66.8,74.5h.1a62.9,62.9,0,0,1,34.8-27.2" style="fill:none;stroke:#1d132d;stroke-linecap:round;stroke-linejoin:round;stroke-width:2px"/>
  </g>
</svg>