<svg xmlns="http://www.w3.org/2000/svg" xmlns:xlink="http://www.w3.org/1999/xlink" viewBox="0 0 240 240">
  <ellipse cx="120.5" cy="233.4" rx="43.7" ry="4.9" style="fill:#180621;opacity:0.15"/>
  <g>
    <title>atribute03</title>
    <path d="M103.1,189.7l-0.2-.2V219a4.2,4.2,0,1,0,8.3,0V193A23.8,23.8,0,0,1,103.1,189.7Z" style="fill:#ffde00"/>
    <path d="M128.4,192.9v19.6a4.2,4.2,0,0,0,8.3,0V190.1A34.4,34.4,0,0,1,128.4,192.9Z" style="fill:#f557c7"/>
    <path d="M111.3,193a3.9,3.9,0,0,0-.2,1.1v31.5a4.2,4.2,0,1,0,8.3,0V194a3.7,3.7,0,0,0,0-.5A32.2,32.2,0,0,1,111.3,193Z" style="fill:#c6db45"/>
    <path d="M127.5,192.7a1.5,1.5,0,0,1-1.2-.3l-2.9.4-3.3.4a3.9,3.9,0,0,0,0,.4v36.8a4.2,4.2,0,0,0,8.4,0V193.6a4,4,0,0,0-.1-1Z" style="fill:#36c8e3"/>
    <path d="M137.2,180.2H102.8v7.4c0,3.2,7.7,5.8,17.2,5.8s17.2-2.6,17.2-5.8v-7.4Z" style="fill:#2e4159"/>
    <path d="M137.2,180.2H102.8v7.4c0,3.2,7.7,5.8,17.2,5.8s17.2-2.6,17.2-5.8v-7.4Z" style="fill:none;stroke:#1d132d;stroke-miterlimit:10;stroke-width:2px"/>
    <path d="M137.2,180.2H102.8v7.4c0,3.2,7.7,5.8,17.2,5.8s17.2-2.6,17.2-5.8v-7.4Z" style="fill:#2e4159"/>
    <path d="M137.2,180.2H102.8v7.4c0,3.2,7.7,5.8,17.2,5.8s17.2-2.6,17.2-5.8v-7.4Z" style="fill:none;stroke:#1d132d;stroke-miterlimit:10;stroke-width:2px"/>
    <circle cx="124.7" cy="211.6" r="0.7" style="fill:#fff;opacity:0.8"/>
    <circle cx="115.5" cy="197.4" r="0.7" style="fill:#fff;opacity:0.8"/>
    <circle cx="116.8" cy="222.1" r="0.7" style="fill:#fff;opacity:0.8"/>
    <circle cx="122.9" cy="231" r="0.7" style="fill:#fff;opacity:0.8"/>
    <circle cx="116.8" cy="200.6" r="1.4" style="fill:#fff;opacity:0.8"/>
    <circle cx="106.8" cy="203.7" r="0.7" style="fill:#fff;opacity:0.8"/>
    <circle cx="124.1" cy="206.8" r="1.7" transform="translate(-109.9 148.3) rotate(-45)" style="fill:#fff;opacity:0.5"/>
    <circle cx="132.6" cy="201" r="1.2" style="fill:#fff;opacity:0.5"/>
    <circle cx="115.4" cy="218.3" r="2" style="fill:#fff;opacity:0.5"/>
    <line x1="102.8" y1="187.8" x2="102.8" y2="209.1" style="fill:none;stroke:#1d132d;stroke-linecap:round;stroke-linejoin:round;stroke-width:2px"/>
    <line x1="102.5" y1="215.7" x2="102.5" y2="224.3" style="fill:none;stroke:#1d132d;stroke-linecap:round;stroke-linejoin:round;stroke-width:2px"/>
    <line x1="102.6" y1="230.3" x2="102.6" y2="231.7" style="fill:none;stroke:#1d132d;stroke-linecap:round;stroke-linejoin:round;stroke-width:2px"/>
    <line x1="119.9" y1="232.3" x2="119.9" y2="233.6" style="fill:none;stroke:#1d132d;stroke-linecap:round;stroke-linejoin:round;stroke-width:2px"/>
    <line x1="136.9" y1="215.6" x2="136.9" y2="216.9" style="fill:none;stroke:#1d132d;stroke-linecap:round;stroke-linejoin:round;stroke-width:2px"/>
    <line x1="111.4" y1="196.9" x2="111.4" y2="192.8" style="fill:none;stroke:#1d132d;stroke-linecap:round;stroke-linejoin:round;stroke-width:2px"/>
    <line x1="137" y1="188.7" x2="137" y2="209.9" style="fill:none;stroke:#1d132d;stroke-linecap:round;stroke-linejoin:round;stroke-width:2px"/>
    <line x1="128.3" y1="205.9" x2="128.4" y2="193.6" style="fill:none;stroke:#1d132d;stroke-linecap:round;stroke-linejoin:round;stroke-width:2px"/>
    <line x1="128.2" y1="228.9" x2="128.3" y2="213.6" style="fill:none;stroke:#1d132d;stroke-linecap:round;stroke-linejoin:round;stroke-width:2px"/>
    <line x1="111.4" y1="229.3" x2="111.4" y2="203.3" style="fill:none;stroke:#1d132d;stroke-linecap:round;stroke-linejoin:round;stroke-width:2px"/>
    <line x1="120" y1="194.1" x2="120" y2="225.6" style="fill:none;stroke:#1d132d;stroke-linecap:round;stroke-linejoin:round;stroke-width:2px"/>
  </g>
  <g>
    <title>16</title>
    <path d="M59.5,160.1c-4,1.7-11.6,7.1-11.6,7.1s-5.6-11.4,9.9-14" style="fill:#dce3ea"/>
    <path d="M77.1,172.7c-1.9,3.9-4.3,14.2-4.3,14.2s-11-4.7-2.5-16.1" style="fill:#dce3ea"/>
    <path d="M66.7,168.8c-3.2,2.9-9.2,11.5-9.2,11.5s-8.8-9.1,5.1-16.4" style="fill:#dce3ea"/>
    <path d="M53.6,163.5a50.5,50.5,0,0,1,5.9-3.3l-1.7-6.9a16.6,16.6,0,0,0-7.8,3.1A11.9,11.9,0,0,1,53.6,163.5Z" style="fill:#180621;opacity:0.15"/>
    <path d="M70.4,179.4l1.8,1.9a12.2,12.2,0,0,1,1.4,2.2,79,79,0,0,1,3.4-10.8l-6.8-1.9c-2.2,3-3.1,5.5-3.2,7.6A3.6,3.6,0,0,1,70.4,179.4Z" style="fill:#180621;opacity:0.15"/>
    <path d="M62.6,163.9a16.8,16.8,0,0,0-6.4,5.2c2.5,0.6,4.3,2.9,5.6,5.3a47.2,47.2,0,0,1,4.9-5.6Z" style="fill:#180621;opacity:0.15"/>
    <path d="M87.3,153.9c-0.7,6-4.4,13.1-8.9,17.6H78.3c-2.3,2.3-8.4-.2-13.7-5.6s-7.8-11.5-5.5-13.8h0.1c4.5-4.5,11.6-8.2,17.6-8.8,0,0,6.3,2.3,7.6,3.6S87.3,153.9,87.3,153.9Z" style="fill:#2e4159"/>
    <path d="M87.3,153.9c-0.7,6-4.4,13.1-8.9,17.6H78.3c-2.3,2.3-8.4-.2-13.7-5.6s-7.8-11.5-5.5-13.8h0.1c4.5-4.5,11.6-8.2,17.6-8.8,0,0,6.3,2.3,7.6,3.6S87.3,153.9,87.3,153.9Z" style="fill:#2e4159"/>
    <path d="M86.2,150.2c1.2,2,1.5,3.8.6,4.7s-4.8-.1-7.9-3.2-4.4-6.6-3.1-7.9,3.1-.4,5.4,1.1" style="fill:#180621;opacity:0.15"/>
    <path d="M105.5,136.9c-10.7.2-18.2,3-26,9.8H79.4a13.3,13.3,0,0,0,2.9,3.4,9.9,9.9,0,0,0,2.3,1.1,29.7,29.7,0,0,1,18.9-7.6l2.4-3.7,2.3-3.2h-2.6Z" style="fill:#dce3ea"/>
    <path d="M105.5,136.9a50.1,50.1,0,0,0-6.4.5c-0.3,3.5-3,5.9-6.4,7.2s-7.4,2.7-10.8.1l-2.1,1.8,0.6,0.7a7,7,0,0,0,2.5,2.5,10.4,10.4,0,0,0,2.8.8,29.4,29.4,0,0,1,17.9-6.7l2.4-3.7,2.3-3.2h-2.6Z" style="fill:#180621;opacity:0.15"/>
    <path d="M86.2,154.5H84.9a29.9,29.9,0,0,1-1.7,3.7,10.2,10.2,0,0,1-16.6,1.8l-0.2-.2c-3-3.5-5.2-6.8-5.5-9.4l-1.8,1.6H59.1c-2.3,2.3.2,8.4,5.5,13.8s11.5,7.8,13.7,5.6h0.1c4.5-4.5,8.2-11.5,8.9-17.5Z" style="fill:#180621;opacity:0.15"/>
    <path d="M80.3,146.1c7.5-6.4,14.9-9,25.2-9.2h2.6l-2.2,3.2-2.4,3.7a29.5,29.5,0,0,0-18.4,7.1" style="fill:none;stroke:#1d132d;stroke-linecap:round;stroke-linejoin:round;stroke-width:2px"/>
    <path d="M78.3,171.6c-2.3,2.3-8.4-.2-13.7-5.6s-7.8-11.5-5.5-13.8h0.1" style="fill:none;stroke:#1d132d;stroke-linecap:round;stroke-linejoin:round;stroke-width:2px"/>
    <path d="M86.2,150.2c1.2,2,1.5,3.8.6,4.7s-4.8-.1-7.9-3.2-4.4-6.6-3.1-7.9,3.1-.4,5.4,1.1" style="fill:none;stroke:#1d132d;stroke-linecap:round;stroke-linejoin:round;stroke-width:2px"/>
    <path d="M85,151c-0.6.6-2.1-.1-3.4-1.4s-1.9-2.8-1.4-3.4" style="fill:none;stroke:#1d132d;stroke-linecap:round;stroke-linejoin:round;stroke-width:2px"/>
    <path d="M59.2,152.1c4.5-4.5,11.6-8.2,17.6-8.8" style="fill:none;stroke:#1d132d;stroke-linecap:round;stroke-linejoin:round;stroke-width:2px"/>
    <path d="M78.4,171.5c4.5-4.5,8.2-11.6,8.9-17.6" style="fill:none;stroke:#1d132d;stroke-linecap:round;stroke-linejoin:round;stroke-width:2px"/>
    <path d="M59.5,160.1c-4,1.7-11.6,7.1-11.6,7.1s-5.6-11.4,9.9-14" style="fill:none;stroke:#1d132d;stroke-linecap:round;stroke-linejoin:round;stroke-width:2px"/>
    <path d="M77.1,172.7c-1.9,3.9-4.3,14.2-4.3,14.2s-11-4.7-2.5-16.1" style="fill:none;stroke:#1d132d;stroke-linecap:round;stroke-linejoin:round;stroke-width:2px"/>
    <path d="M66.7,168.8c-3.2,2.9-9.2,11.5-9.2,11.5s-8.8-9.1,5.1-16.4" style="fill:none;stroke:#1d132d;stroke-linecap:round;stroke-linejoin:round;stroke-width:2px"/>
    <circle cx="71.8" cy="158.4" r="4.2" style="fill:#dce3ea"/>
    <path d="M70.2,154.9l-0.7.3a2.3,2.3,0,1,0,4.6.2C72.8,155,71.4,154.4,70.2,154.9Z" style="fill:#fff;opacity:0.6"/>
    <circle cx="71.8" cy="158.4" r="4.2" style="fill:none;stroke:#1d132d;stroke-linecap:round;stroke-linejoin:round;stroke-width:2px"/>
    <path d="M85.8,142.4a8.6,8.6,0,0,0,3.6,5.2" style="fill:none;stroke:#1d132d;stroke-linecap:round;stroke-linejoin:round;stroke-width:2px"/>
    <path d="M92.7,139a9.3,9.3,0,0,0,2,6.3" style="fill:none;stroke:#1d132d;stroke-linecap:round;stroke-linejoin:round;stroke-width:2px"/>
    <path d="M99.4,137.4a9.3,9.3,0,0,0,.9,6.5" style="fill:none;stroke:#1d132d;stroke-linecap:round;stroke-linejoin:round;stroke-width:2px"/>
    <circle cx="71.7" cy="159.4" r="0.7" style="fill:#fff"/>
    <path d="M180.4,160.1c4,1.7,11.6,7.1,11.6,7.1s5.6-11.4-9.9-14" style="fill:#dce3ea"/>
    <path d="M162.8,172.7c1.9,3.9,4.3,14.2,4.3,14.2s11-4.7,2.5-16.1" style="fill:#dce3ea"/>
    <path d="M173.2,168.8c3.2,2.9,9.2,11.5,9.2,11.5s8.8-9.1-5.1-16.4" style="fill:#dce3ea"/>
    <path d="M186.3,163.5a50.5,50.5,0,0,0-5.9-3.3l1.7-6.9a16.6,16.6,0,0,1,7.8,3.1A11.9,11.9,0,0,0,186.3,163.5Z" style="fill:#180621;opacity:0.15"/>
    <path d="M169.5,179.4l-1.8,1.9a12.2,12.2,0,0,0-1.4,2.2,79,79,0,0,0-3.4-10.8l6.8-1.9c2.2,3,3.1,5.5,3.2,7.6A3.6,3.6,0,0,0,169.5,179.4Z" style="fill:#180621;opacity:0.15"/>
    <path d="M177.3,163.9a16.8,16.8,0,0,1,6.4,5.2c-2.5.6-4.3,2.9-5.6,5.3a47.2,47.2,0,0,0-4.9-5.6Z" style="fill:#180621;opacity:0.15"/>
    <path d="M152.6,153.9c0.7,6,4.4,13.1,8.9,17.6h0.1c2.3,2.3,8.4-.2,13.7-5.6s7.8-11.5,5.5-13.8h-0.1c-4.5-4.5-11.6-8.2-17.6-8.8,0,0-6.3,2.3-7.6,3.6S152.6,153.9,152.6,153.9Z" style="fill:#2e4159"/>
    <path d="M152.6,153.9c0.7,6,4.4,13.1,8.9,17.6h0.1c2.3,2.3,8.4-.2,13.7-5.6s7.8-11.5,5.5-13.8h-0.1c-4.5-4.5-11.6-8.2-17.6-8.8,0,0-6.3,2.3-7.6,3.6S152.6,153.9,152.6,153.9Z" style="fill:#2e4159"/>
    <path d="M153.7,150.2c-1.2,2-1.5,3.8-.6,4.7s4.8-.1,7.9-3.2,4.4-6.6,3.1-7.9-3.1-.4-5.4,1.1" style="fill:#180621;opacity:0.15"/>
    <path d="M134.4,136.9c10.7,0.2,18.2,3,26,9.8h0.1a13.3,13.3,0,0,1-2.9,3.4,9.9,9.9,0,0,1-2.3,1.1,29.7,29.7,0,0,0-18.9-7.6l-2.4-3.7-2.2-3.2h2.6Z" style="fill:#dce3ea"/>
    <path d="M134.4,136.9a50.1,50.1,0,0,1,6.4.5c0.3,3.5,3,5.9,6.4,7.2s7.4,2.7,10.8.1l2.1,1.8-0.6.7a7,7,0,0,1-2.5,2.5,10.4,10.4,0,0,1-2.8.8,29.4,29.4,0,0,0-17.9-6.7l-2.4-3.7-2.2-3.2h2.6Z" style="fill:#180621;opacity:0.15"/>
    <path d="M153.8,154.5H155a29.9,29.9,0,0,0,1.7,3.7,10.2,10.2,0,0,0,16.6,1.8l0.2-.2c3-3.5,5.2-6.8,5.5-9.4l1.8,1.6h0.1c2.3,2.3-.2,8.4-5.5,13.8s-11.5,7.8-13.7,5.6h-0.1c-4.5-4.5-8.2-11.5-8.9-17.5Z" style="fill:#180621;opacity:0.15"/>
    <path d="M159.7,146.1c-7.5-6.4-14.9-9-25.2-9.2h-2.6l2.3,3.2,2.4,3.7a29.5,29.5,0,0,1,18.4,7.1" style="fill:none;stroke:#1d132d;stroke-linecap:round;stroke-linejoin:round;stroke-width:2px"/>
    <path d="M161.6,171.6c2.3,2.3,8.4-.2,13.7-5.6s7.8-11.5,5.5-13.8h-0.1" style="fill:none;stroke:#1d132d;stroke-linecap:round;stroke-linejoin:round;stroke-width:2px"/>
    <path d="M153.7,150.2c-1.2,2-1.5,3.8-.6,4.7s4.8-.1,7.9-3.2,4.4-6.6,3.1-7.9-3.1-.4-5.4,1.1" style="fill:none;stroke:#1d132d;stroke-linecap:round;stroke-linejoin:round;stroke-width:2px"/>
    <path d="M155,151c0.6,0.6,2.1-.1,3.4-1.4s1.9-2.8,1.4-3.4" style="fill:none;stroke:#1d132d;stroke-linecap:round;stroke-linejoin:round;stroke-width:2px"/>
    <path d="M180.8,152.1c-4.5-4.5-11.6-8.2-17.6-8.8" style="fill:none;stroke:#1d132d;stroke-linecap:round;stroke-linejoin:round;stroke-width:2px"/>
    <path d="M161.5,171.5c-4.5-4.5-8.2-11.6-8.9-17.6" style="fill:none;stroke:#1d132d;stroke-linecap:round;stroke-linejoin:round;stroke-width:2px"/>
    <path d="M180.4,160.1c4,1.7,11.6,7.1,11.6,7.1s5.6-11.4-9.9-14" style="fill:none;stroke:#1d132d;stroke-linecap:round;stroke-linejoin:round;stroke-width:2px"/>
    <path d="M162.8,172.7c1.9,3.9,4.3,14.2,4.3,14.2s11-4.7,2.5-16.1" style="fill:none;stroke:#1d132d;stroke-linecap:round;stroke-linejoin:round;stroke-width:2px"/>
    <path d="M173.2,168.8c3.2,2.9,9.2,11.5,9.2,11.5s8.8-9.1-5.1-16.4" style="fill:none;stroke:#1d132d;stroke-linecap:round;stroke-linejoin:round;stroke-width:2px"/>
    <circle cx="168.2" cy="158.4" r="4.2" style="fill:#dce3ea"/>
    <path d="M169.7,154.9l0.7,0.3a2.3,2.3,0,1,1-4.6.2C167.2,155,168.6,154.4,169.7,154.9Z" style="fill:#fff;opacity:0.6"/>
    <circle cx="168.2" cy="158.4" r="4.2" style="fill:none;stroke:#1d132d;stroke-linecap:round;stroke-linejoin:round;stroke-width:2px"/>
    <path d="M154.1,142.4a8.6,8.6,0,0,1-3.6,5.2" style="fill:none;stroke:#1d132d;stroke-linecap:round;stroke-linejoin:round;stroke-width:2px"/>
    <path d="M147.2,139a9.3,9.3,0,0,1-2,6.3" style="fill:none;stroke:#1d132d;stroke-linecap:round;stroke-linejoin:round;stroke-width:2px"/>
    <path d="M140.6,137.4a9.3,9.3,0,0,1-.9,6.5" style="fill:none;stroke:#1d132d;stroke-linecap:round;stroke-linejoin:round;stroke-width:2px"/>
    <circle cx="168.2" cy="159.4" r="0.7" style="fill:#fff"/>
  </g>
  <g>
    <title>atribute05</title>
    <path d="M70.1,66.9s0.6-2.1.2-1.9c-21.7,13.2-46,35.4-46,35.4S46,111,66,105.1l0.2-1.5C64.3,91.5,65.3,78.1,70.1,66.9Z" style="fill:#dce3ea"/>
    <path d="M65.4,87.4l-0.9,1.5c-1.8,2.7-6.1,7.4-9.7,4.7a4.9,4.9,0,0,1-1.6-4.7c-4.9,2.5-10.2,3.9-15.4,5.9s-7.7,4.1-11.7,5.2l-1.3.7c3.3,1.5,22.9,9.8,41.2,4.4l0.2-1.5A75.5,75.5,0,0,1,65.4,87.4Z" style="fill:#180621;opacity:0.15"/>
    <path d="M65.4,87.4l-0.9,1.5c-1.8,2.7-6.1,7.4-9.7,4.7a4.9,4.9,0,0,1-1.6-4.7c-4.9,2.5-10.2,3.9-15.4,5.9a44.7,44.7,0,0,0-4.2,2,41.3,41.3,0,0,1,19.8,1.8,24.9,24.9,0,0,1,10.2,7.1l2.4-.6,0.2-1.5A75.5,75.5,0,0,1,65.4,87.4Z" style="fill:#180621;opacity:0.15"/>
    <path d="M70.3,65c-19.5,11.8-46,35.4-46,35.4s19,10.4,41.7,4.7" style="fill:none;stroke:#1d132d;stroke-linecap:round;stroke-linejoin:round;stroke-width:2px"/>
    <path d="M65.3,89c-1.7,2.5-5.2,6.6-8.6,6.4s-5-4.9-3.6-7.9,5.6-6,7.3-3.4-1,5.9-3.4,6.4" style="fill:none;stroke:#1d132d;stroke-linecap:round;stroke-linejoin:round;stroke-width:2px"/>
    <line x1="25.1" y1="100.5" x2="51.9" y2="90.1" style="fill:none;stroke:#1d132d;stroke-linecap:round;stroke-linejoin:round;stroke-width:2px"/>
    <path d="M170,66.9s-0.6-2.1-.2-1.9c21.7,13.2,46,35.4,46,35.4s-21.7,10.5-41.7,4.7l-0.2-1.5C175.9,91.5,174.9,78.1,170,66.9Z" style="fill:#dce3ea"/>
    <path d="M174.7,87.4l0.9,1.5c1.8,2.7,6.1,7.4,9.7,4.7a4.9,4.9,0,0,0,1.6-4.7c4.9,2.5,10.2,3.9,15.4,5.9s7.7,4.1,11.7,5.2l1.3,0.7c-3.3,1.5-22.9,9.8-41.2,4.4l-0.2-1.5A75.5,75.5,0,0,0,174.7,87.4Z" style="fill:#180621;opacity:0.15"/>
    <path d="M174.7,87.4l0.9,1.5c1.8,2.7,6.1,7.4,9.7,4.7a4.9,4.9,0,0,0,1.6-4.7c4.9,2.5,10.2,3.9,15.4,5.9a44.7,44.7,0,0,1,4.2,2,41.3,41.3,0,0,0-19.8,1.8,24.9,24.9,0,0,0-10.2,7.1l-2.4-.6-0.2-1.5A75.5,75.5,0,0,0,174.7,87.4Z" style="fill:#180621;opacity:0.15"/>
    <path d="M169.8,65c19.5,11.8,46,35.4,46,35.4s-19,10.4-41.7,4.7" style="fill:none;stroke:#1d132d;stroke-linecap:round;stroke-linejoin:round;stroke-width:2px"/>
    <path d="M174.8,89c1.7,2.5,5.2,6.6,8.6,6.4s5-4.9,3.6-7.9-5.6-6-7.3-3.4,1,5.9,3.4,6.4" style="fill:none;stroke:#1d132d;stroke-linecap:round;stroke-linejoin:round;stroke-width:2px"/>
    <line x1="215.1" y1="100.5" x2="188.2" y2="90.1" style="fill:none;stroke:#1d132d;stroke-linecap:round;stroke-linejoin:round;stroke-width:2px"/>
  </g>
  <g>
    <title>09</title>
    <path d="M125.4,136.4c19.6-.5,28.4-3.6,37.2-11.1s12.1-21.8,12.1-37.2c0-27.7-17.6-49.2-43.4-53.7a76.8,76.8,0,0,0-11.1-.9,84.7,84.7,0,0,0-11.6.9C82.9,39,65.3,60.5,65.3,88.1c0,15.4,3.2,29.6,12.1,37.2s18.2,10.8,39.5,11.1h8.5Z" style="fill:#ff3a44"/>
    <path d="M109.2,136.5c-7,6.6-11.8,18.9-11.8,29.9,0,16,10.1,19.5,22.6,19.5s22.6-3.4,22.6-19.5c0-11.1-4.9-23.5-12-30.1" style="fill:#ff3a44"/>
    <polyline points="140.4 153.2 120.2 161.9 99.7 153.1 97.6 162.1 120.2 171.8 142 162.4" style="fill:#dce3ea"/>
    <g style="opacity:0.30000000000000004">
      <path d="M108.7,45a84.7,84.7,0,0,1,11.6-.9,76.8,76.8,0,0,1,11.1.9c24.4,4.3,41.5,23.9,43.2,49.5q0.1-2.7.1-5.5c0-27.7-17.6-49.2-43.4-53.7a76.8,76.8,0,0,0-11.1-.9,84.7,84.7,0,0,0-11.6.9c-25.7,4.5-43.4,26-43.4,53.7q0,2.8.1,5.5C67.1,68.9,84.3,49.3,108.7,45Z" style="fill:#fff"/>
    </g>
    <path d="M125.4,136.4c19.6-.5,28.4-3.6,37.2-11.1s12.1-21.8,12.1-37.2c0-27.7-17.6-49.2-43.4-53.7a76.8,76.8,0,0,0-11.1-.9,84.7,84.7,0,0,0-11.6.9C82.9,39,65.3,60.5,65.3,88.1c0,15.4,3.2,29.6,12.1,37.2s18.2,10.8,39.5,11.1h8.5Z" style="fill:none;stroke:#1d132d;stroke-miterlimit:10;stroke-width:2px"/>
    <path d="M109.2,136.5c-7,6.6-11.8,18.9-11.8,29.9,0,16,10.1,19.5,22.6,19.5s22.6-3.4,22.6-19.5c0-11.1-4.9-23.5-12-30.1" style="fill:none;stroke:#1d132d;stroke-miterlimit:10;stroke-width:2px"/>
    <polygon points="120 154.8 110 147.9 116.7 142.5 123.3 142.5 130 147.9 120 154.8" style="fill:#ffe315"/>
    <path d="M116.7,143a1.8,1.8,0,0,0-.2.8c0,1.3,1.6,2.4,3.6,2.4s3.6-1.1,3.6-2.4a1.8,1.8,0,0,0-.3-1h-6.6Z" style="fill:#fff;opacity:0.5"/>
    <polygon points="120 150.5 112.8 145.5 110 147.9 120 154.8 130 147.9 127.1 145.5 120 150.5" style="fill:#ffc817"/>
    <polygon points="120 154.8 110 147.9 116.7 142.5 123.3 142.5 130 147.9 120 154.8" style="fill:none;stroke:#1d132d;stroke-linecap:round;stroke-linejoin:round;stroke-width:2px"/>
    <polyline points="142 162.4 120.2 171.8 97.6 162.1" style="fill:none;stroke:#1d132d;stroke-linecap:round;stroke-linejoin:round;stroke-width:2px"/>
    <polyline points="140.4 153.2 120.2 161.9 99.7 153.1" style="fill:none;stroke:#1d132d;stroke-linecap:round;stroke-linejoin:round;stroke-width:2px"/>
  </g>
  <g>
    <title>01</title>
    <path d="M106.1,135.8V115.4h.1a22,22,0,0,1,14.1-5.1s.8,19.5.8,26.5" style="fill:#dce3ea"/>
    <path d="M106.6,121.3l-.2-2c-.7-1.6-.8-3.1-.2-4.1H106a135.3,135.3,0,0,1-21.5-2.7c-6.9-1.5-14.1-5-17.9-11.2h-.4c1.5,10,4.9,18.6,11.2,23.9s14.9,9.6,29,10.7C106.4,130.9,106.5,126.1,106.6,121.3Z" style="fill:#2e4159"/>
    <path d="M133.7,136.1V115.7h-.1a22,22,0,0,0-14.1-5.1s-.8,19.5-.8,26.5" style="fill:#dce3ea"/>
    <path d="M133.2,121.6l.2-2c.7-1.6.8-3.1.2-4.1h.2a135.3,135.3,0,0,0,21.5-2.7c6.9-1.5,14.1-5,17.9-11.2h.4c-1.5,10-4.9,18.6-11.2,23.9s-14.9,9.6-29,10.7C133.4,131.2,133.3,126.4,133.2,121.6Z" style="fill:#2e4159"/>
    <circle cx="93.1" cy="123" r="2.5" style="fill:#1d132d"/>
    <circle cx="84.9" cy="120.5" r="2.5" style="fill:#1d132d"/>
    <path d="M66.2,101.4c6.9,8,17.3,13.1,40,14.1" style="fill:none;stroke:#1d132d;stroke-linecap:round;stroke-linejoin:round;stroke-width:2px"/>
    <path d="M66.2,101.4c1.5,10,4.9,18.6,11.2,23.9,9.1,7.8,18.2,10.8,39.5,11.1H120" style="fill:none;stroke:#1d132d;stroke-miterlimit:10;stroke-width:2px"/>
    <path d="M106.1,135.8V115.4h.1a22,22,0,0,1,14.1-5.1" style="fill:none;stroke:#1d132d;stroke-linecap:round;stroke-linejoin:round;stroke-width:2px"/>
    <circle cx="146.7" cy="123" r="2.5" style="fill:#1d132d"/>
    <circle cx="154.9" cy="120.5" r="2.5" style="fill:#1d132d"/>
    <path d="M173.5,101.4c-6.9,8-17.3,13.1-40,14.1" style="fill:none;stroke:#1d132d;stroke-linecap:round;stroke-linejoin:round;stroke-width:2px"/>
    <path d="M173.5,101.4c-1.5,10-4.9,18.6-11.2,23.9-9.1,7.8-18.2,10.8-39.5,11.1h-3.1" style="fill:none;stroke:#1d132d;stroke-miterlimit:10;stroke-width:2px"/>
    <path d="M133.7,135.8V115.4h-.1a22,22,0,0,0-14.1-5.1" style="fill:none;stroke:#1d132d;stroke-linecap:round;stroke-linejoin:round;stroke-width:2px"/>
    <line x1="113.6" y1="136" x2="113.6" y2="123" style="fill:none;stroke:#1d132d;stroke-linecap:round;stroke-linejoin:round;stroke-width:2px"/>
    <line x1="120" y1="136" x2="120" y2="120.5" style="fill:none;stroke:#1d132d;stroke-linecap:round;stroke-linejoin:round;stroke-width:2px"/>
    <line x1="126.6" y1="136" x2="126.6" y2="123" style="fill:none;stroke:#1d132d;stroke-linecap:round;stroke-linejoin:round;stroke-width:2px"/>
  </g>
  <g>
    <title>03</title>
    <rect x="85" y="67.4" width="15.5" height="33.25" rx="7.7" ry="7.7" style="fill:#c6db45"/>
    <path d="M85.4,75l.3.9c4.3-2.3,6.5,2.3,7.5,3.8s6.3,2.5,6.4-.7C103.3,70.7,90.4,59.4,85.4,75Z" style="fill:#fff;opacity:0.5"/>
    <circle cx="90.2" cy="85.1" r="2.1" style="fill:#fff;opacity:0.5"/>
    <rect x="85" y="67.4" width="15.5" height="33.25" rx="7.7" ry="7.7" style="fill:none;stroke:#1d132d;stroke-linecap:round;stroke-linejoin:round;stroke-width:2px"/>
    <rect x="139.5" y="67.4" width="15.5" height="33.25" rx="7.7" ry="7.7" style="fill:#c6db45"/>
    <path d="M140.1,75l.3.9c4.3-2.3,6.5,2.3,7.5,3.8s6.3,2.5,6.4-.7C158,70.7,145,59.4,140.1,75Z" style="fill:#fff;opacity:0.5"/>
    <circle cx="144.9" cy="85.1" r="2.1" style="fill:#fff;opacity:0.5"/>
    <rect x="139.5" y="67.4" width="15.5" height="33.25" rx="7.7" ry="7.7" style="fill:none;stroke:#1d132d;stroke-linecap:round;stroke-linejoin:round;stroke-width:2px"/>
  </g>
  <g/>
</svg>