<svg xmlns="http://www.w3.org/2000/svg" xmlns:xlink="http://www.w3.org/1999/xlink" viewBox="0 0 240 240">
  <ellipse cx="120.5" cy="233.4" rx="43.7" ry="4.9" style="fill:#180621;opacity:0.15"/>
  <g>
    <title>03</title>
    <path d="M129.9,192.6c3.9,1.1,6.4,2.9,6.4,4.8s-7.3,6.1-16.3,6.1-16.3-2.7-16.3-6.1,2.5-3.7,6.5-4.8" style="fill:#36c8e3"/>
    <ellipse cx="120" cy="229.8" rx="4.1" ry="2.6" style="fill:#36c8e3"/>
    <ellipse cx="120" cy="221.2" rx="7.2" ry="3.2" style="fill:#36c8e3"/>
    <path d="M118.9,206.3H120c6.2,0,11.3,2,11.3,4.5s-5.1,4.5-11.3,4.5-11.3-2-11.3-4.5,4.5-4.3,10.2-4.5" style="fill:#36c8e3"/>
    <path d="M125.8,192.5c2.3.7,3.7,1.7,3.7,2.8s-4.3,3.6-9.6,3.6-9.6-1.6-9.6-3.6,1.5-2.2,3.8-2.8" style="fill:#180621;opacity:0.25"/>
    <path d="M124.5,206.2c1.8.5,2.9,1.4,2.9,2.3s-3.3,2.9-7.4,2.9-7.4-1.3-7.4-2.9,1.1-1.8,2.9-2.3" style="fill:#180621;opacity:0.25"/>
    <path d="M122.9,217.8c1.1.4,1.8.9,1.8,1.5s-2.1,1.9-4.7,1.9-4.7-.9-4.7-1.9.7-1.2,1.9-1.5" style="fill:#180621;opacity:0.25"/>
    <path d="M121.3,227.1a1.3,1.3,0,0,1,.8,1.1c0,.7-1,1.3-2.2,1.3s-2.2-.6-2.2-1.3a1.3,1.3,0,0,1,.9-1.1" style="fill:#180621;opacity:0.25"/>
    <path d="M137.2,180.3H102.8v7.4c0,3.2,7.7,5.8,17.2,5.8s17.2-2.6,17.2-5.8Z" style="fill:#2e4159"/>
    <path d="M129.9,192.6c3.9,1.1,6.4,2.9,6.4,4.8s-7.3,6.1-16.3,6.1-16.3-2.7-16.3-6.1,2.5-3.7,6.5-4.8" style="fill:none;stroke:#1d132d;stroke-linecap:round;stroke-linejoin:round;stroke-width:2px"/>
    <path d="M118.9,206.3H120c6.2,0,11.3,2,11.3,4.5s-5.1,4.5-11.3,4.5-11.3-2-11.3-4.5,4.5-4.3,10.2-4.5" style="fill:none;stroke:#1d132d;stroke-linecap:round;stroke-linejoin:round;stroke-width:2px"/>
    <ellipse cx="120" cy="221.2" rx="7.2" ry="3.2" style="fill:none;stroke:#1d132d;stroke-linecap:round;stroke-linejoin:round;stroke-width:2px"/>
    <ellipse cx="120" cy="229.8" rx="4.1" ry="2.6" style="fill:none;stroke:#1d132d;stroke-linecap:round;stroke-linejoin:round;stroke-width:2px"/>
    <path d="M137.2,180.3H102.8v7.4c0,3.2,7.7,5.8,17.2,5.8s17.2-2.6,17.2-5.8Z" style="fill:none;stroke:#1d132d;stroke-miterlimit:10;stroke-width:2px"/>
  </g>
  <g>
    <title>16</title>
    <path d="M59.5,160.1c-4,1.7-11.6,7.1-11.6,7.1s-5.6-11.4,9.9-14" style="fill:#dce3ea"/>
    <path d="M77.1,172.7c-1.9,3.9-4.3,14.2-4.3,14.2s-11-4.7-2.5-16.1" style="fill:#dce3ea"/>
    <path d="M66.7,168.8c-3.2,2.9-9.2,11.5-9.2,11.5s-8.8-9.1,5.1-16.4" style="fill:#dce3ea"/>
    <path d="M53.6,163.5a50.5,50.5,0,0,1,5.9-3.3l-1.7-6.9a16.6,16.6,0,0,0-7.8,3.1A11.9,11.9,0,0,1,53.6,163.5Z" style="fill:#180621;opacity:0.15"/>
    <path d="M70.4,179.4l1.8,1.9a12.2,12.2,0,0,1,1.4,2.2,79,79,0,0,1,3.4-10.8l-6.8-1.9c-2.2,3-3.1,5.5-3.2,7.6A3.6,3.6,0,0,1,70.4,179.4Z" style="fill:#180621;opacity:0.15"/>
    <path d="M62.6,163.9a16.8,16.8,0,0,0-6.4,5.2c2.5,0.6,4.3,2.9,5.6,5.3a47.2,47.2,0,0,1,4.9-5.6Z" style="fill:#180621;opacity:0.15"/>
    <path d="M87.3,153.9c-0.7,6-4.4,13.1-8.9,17.6H78.3c-2.3,2.3-8.4-.2-13.7-5.6s-7.8-11.5-5.5-13.8h0.1c4.5-4.5,11.6-8.2,17.6-8.8,0,0,6.3,2.3,7.6,3.6S87.3,153.9,87.3,153.9Z" style="fill:#2e4159"/>
    <path d="M87.3,153.9c-0.7,6-4.4,13.1-8.9,17.6H78.3c-2.3,2.3-8.4-.2-13.7-5.6s-7.8-11.5-5.5-13.8h0.1c4.5-4.5,11.6-8.2,17.6-8.8,0,0,6.3,2.3,7.6,3.6S87.3,153.9,87.3,153.9Z" style="fill:#2e4159"/>
    <path d="M86.2,150.2c1.2,2,1.5,3.8.6,4.7s-4.8-.1-7.9-3.2-4.4-6.6-3.1-7.9,3.1-.4,5.4,1.1" style="fill:#180621;opacity:0.15"/>
    <path d="M105.5,136.9c-10.7.2-18.2,3-26,9.8H79.4a13.3,13.3,0,0,0,2.9,3.4,9.9,9.9,0,0,0,2.3,1.1,29.7,29.7,0,0,1,18.9-7.6l2.4-3.7,2.3-3.2h-2.6Z" style="fill:#dce3ea"/>
    <path d="M105.5,136.9a50.1,50.1,0,0,0-6.4.5c-0.3,3.5-3,5.9-6.4,7.2s-7.4,2.7-10.8.1l-2.1,1.8,0.6,0.7a7,7,0,0,0,2.5,2.5,10.4,10.4,0,0,0,2.8.8,29.4,29.4,0,0,1,17.9-6.7l2.4-3.7,2.3-3.2h-2.6Z" style="fill:#180621;opacity:0.15"/>
    <path d="M86.2,154.5H84.9a29.9,29.9,0,0,1-1.7,3.7,10.2,10.2,0,0,1-16.6,1.8l-0.2-.2c-3-3.5-5.2-6.8-5.5-9.4l-1.8,1.6H59.1c-2.3,2.3.2,8.4,5.5,13.8s11.5,7.8,13.7,5.6h0.1c4.5-4.5,8.2-11.5,8.9-17.5Z" style="fill:#180621;opacity:0.15"/>
    <path d="M80.3,146.1c7.5-6.4,14.9-9,25.2-9.2h2.6l-2.2,3.2-2.4,3.7a29.5,29.5,0,0,0-18.4,7.1" style="fill:none;stroke:#1d132d;stroke-linecap:round;stroke-linejoin:round;stroke-width:2px"/>
    <path d="M78.3,171.6c-2.3,2.3-8.4-.2-13.7-5.6s-7.8-11.5-5.5-13.8h0.1" style="fill:none;stroke:#1d132d;stroke-linecap:round;stroke-linejoin:round;stroke-width:2px"/>
    <path d="M86.2,150.2c1.2,2,1.5,3.8.6,4.7s-4.8-.1-7.9-3.2-4.4-6.6-3.1-7.9,3.1-.4,5.4,1.1" style="fill:none;stroke:#1d132d;stroke-linecap:round;stroke-linejoin:round;stroke-width:2px"/>
    <path d="M85,151c-0.6.6-2.1-.1-3.4-1.4s-1.9-2.8-1.4-3.4" style="fill:none;stroke:#1d132d;stroke-linecap:round;stroke-linejoin:round;stroke-width:2px"/>
    <path d="M59.2,152.1c4.5-4.5,11.6-8.2,17.6-8.8" style="fill:none;stroke:#1d132d;stroke-linecap:round;stroke-linejoin:round;stroke-width:2px"/>
    <path d="M78.4,171.5c4.5-4.5,8.2-11.6,8.9-17.6" style="fill:none;stroke:#1d132d;stroke-linecap:round;stroke-linejoin:round;stroke-width:2px"/>
    <path d="M59.5,160.1c-4,1.7-11.6,7.1-11.6,7.1s-5.6-11.4,9.9-14" style="fill:none;stroke:#1d132d;stroke-linecap:round;stroke-linejoin:round;stroke-width:2px"/>
    <path d="M77.1,172.7c-1.9,3.9-4.3,14.2-4.3,14.2s-11-4.7-2.5-16.1" style="fill:none;stroke:#1d132d;stroke-linecap:round;stroke-linejoin:round;stroke-width:2px"/>
    <path d="M66.7,168.8c-3.2,2.9-9.2,11.5-9.2,11.5s-8.8-9.1,5.1-16.4" style="fill:none;stroke:#1d132d;stroke-linecap:round;stroke-linejoin:round;stroke-width:2px"/>
    <circle cx="71.8" cy="158.4" r="4.2" style="fill:#dce3ea"/>
    <path d="M70.2,154.9l-0.7.3a2.3,2.3,0,1,0,4.6.2C72.8,155,71.4,154.4,70.2,154.9Z" style="fill:#fff;opacity:0.6"/>
    <circle cx="71.8" cy="158.4" r="4.2" style="fill:none;stroke:#1d132d;stroke-linecap:round;stroke-linejoin:round;stroke-width:2px"/>
    <path d="M85.8,142.4a8.6,8.6,0,0,0,3.6,5.2" style="fill:none;stroke:#1d132d;stroke-linecap:round;stroke-linejoin:round;stroke-width:2px"/>
    <path d="M92.7,139a9.3,9.3,0,0,0,2,6.3" style="fill:none;stroke:#1d132d;stroke-linecap:round;stroke-linejoin:round;stroke-width:2px"/>
    <path d="M99.4,137.4a9.3,9.3,0,0,0,.9,6.5" style="fill:none;stroke:#1d132d;stroke-linecap:round;stroke-linejoin:round;stroke-width:2px"/>
    <circle cx="71.7" cy="159.4" r="0.7" style="fill:#fff"/>
    <path d="M180.4,160.1c4,1.7,11.6,7.1,11.6,7.1s5.6-11.4-9.9-14" style="fill:#dce3ea"/>
    <path d="M162.8,172.7c1.9,3.9,4.3,14.2,4.3,14.2s11-4.7,2.5-16.1" style="fill:#dce3ea"/>
    <path d="M173.2,168.8c3.2,2.9,9.2,11.5,9.2,11.5s8.8-9.1-5.1-16.4" style="fill:#dce3ea"/>
    <path d="M186.3,163.5a50.5,50.5,0,0,0-5.9-3.3l1.7-6.9a16.6,16.6,0,0,1,7.8,3.1A11.9,11.9,0,0,0,186.3,163.5Z" style="fill:#180621;opacity:0.15"/>
    <path d="M169.5,179.4l-1.8,1.9a12.2,12.2,0,0,0-1.4,2.2,79,79,0,0,0-3.4-10.8l6.8-1.9c2.2,3,3.1,5.5,3.2,7.6A3.6,3.6,0,0,0,169.5,179.4Z" style="fill:#180621;opacity:0.15"/>
    <path d="M177.3,163.9a16.8,16.8,0,0,1,6.4,5.2c-2.5.6-4.3,2.9-5.6,5.3a47.2,47.2,0,0,0-4.9-5.6Z" style="fill:#180621;opacity:0.15"/>
    <path d="M152.6,153.9c0.7,6,4.4,13.1,8.9,17.6h0.1c2.3,2.3,8.4-.2,13.7-5.6s7.8-11.5,5.5-13.8h-0.1c-4.5-4.5-11.6-8.2-17.6-8.8,0,0-6.3,2.3-7.6,3.6S152.6,153.9,152.6,153.9Z" style="fill:#2e4159"/>
    <path d="M152.6,153.9c0.7,6,4.4,13.1,8.9,17.6h0.1c2.3,2.3,8.4-.2,13.7-5.6s7.8-11.5,5.5-13.8h-0.1c-4.5-4.5-11.6-8.2-17.6-8.8,0,0-6.3,2.3-7.6,3.6S152.6,153.9,152.6,153.9Z" style="fill:#2e4159"/>
    <path d="M153.7,150.2c-1.2,2-1.5,3.8-.6,4.7s4.8-.1,7.9-3.2,4.4-6.6,3.1-7.9-3.1-.4-5.4,1.1" style="fill:#180621;opacity:0.15"/>
    <path d="M134.4,136.9c10.7,0.2,18.2,3,26,9.8h0.1a13.3,13.3,0,0,1-2.9,3.4,9.9,9.9,0,0,1-2.3,1.1,29.7,29.7,0,0,0-18.9-7.6l-2.4-3.7-2.2-3.2h2.6Z" style="fill:#dce3ea"/>
    <path d="M134.4,136.9a50.1,50.1,0,0,1,6.4.5c0.3,3.5,3,5.9,6.4,7.2s7.4,2.7,10.8.1l2.1,1.8-0.6.7a7,7,0,0,1-2.5,2.5,10.4,10.4,0,0,1-2.8.8,29.4,29.4,0,0,0-17.9-6.7l-2.4-3.7-2.2-3.2h2.6Z" style="fill:#180621;opacity:0.15"/>
    <path d="M153.8,154.5H155a29.9,29.9,0,0,0,1.7,3.7,10.2,10.2,0,0,0,16.6,1.8l0.2-.2c3-3.5,5.2-6.8,5.5-9.4l1.8,1.6h0.1c2.3,2.3-.2,8.4-5.5,13.8s-11.5,7.8-13.7,5.6h-0.1c-4.5-4.5-8.2-11.5-8.9-17.5Z" style="fill:#180621;opacity:0.15"/>
    <path d="M159.7,146.1c-7.5-6.4-14.9-9-25.2-9.2h-2.6l2.3,3.2,2.4,3.7a29.5,29.5,0,0,1,18.4,7.1" style="fill:none;stroke:#1d132d;stroke-linecap:round;stroke-linejoin:round;stroke-width:2px"/>
    <path d="M161.6,171.6c2.3,2.3,8.4-.2,13.7-5.6s7.8-11.5,5.5-13.8h-0.1" style="fill:none;stroke:#1d132d;stroke-linecap:round;stroke-linejoin:round;stroke-width:2px"/>
    <path d="M153.7,150.2c-1.2,2-1.5,3.8-.6,4.7s4.8-.1,7.9-3.2,4.4-6.6,3.1-7.9-3.1-.4-5.4,1.1" style="fill:none;stroke:#1d132d;stroke-linecap:round;stroke-linejoin:round;stroke-width:2px"/>
    <path d="M155,151c0.6,0.6,2.1-.1,3.4-1.4s1.9-2.8,1.4-3.4" style="fill:none;stroke:#1d132d;stroke-linecap:round;stroke-linejoin:round;stroke-width:2px"/>
    <path d="M180.8,152.1c-4.5-4.5-11.6-8.2-17.6-8.8" style="fill:none;stroke:#1d132d;stroke-linecap:round;stroke-linejoin:round;stroke-width:2px"/>
    <path d="M161.5,171.5c-4.5-4.5-8.2-11.6-8.9-17.6" style="fill:none;stroke:#1d132d;stroke-linecap:round;stroke-linejoin:round;stroke-width:2px"/>
    <path d="M180.4,160.1c4,1.7,11.6,7.1,11.6,7.1s5.6-11.4-9.9-14" style="fill:none;stroke:#1d132d;stroke-linecap:round;stroke-linejoin:round;stroke-width:2px"/>
    <path d="M162.8,172.7c1.9,3.9,4.3,14.2,4.3,14.2s11-4.7,2.5-16.1" style="fill:none;stroke:#1d132d;stroke-linecap:round;stroke-linejoin:round;stroke-width:2px"/>
    <path d="M173.2,168.8c3.2,2.9,9.2,11.5,9.2,11.5s8.8-9.1-5.1-16.4" style="fill:none;stroke:#1d132d;stroke-linecap:round;stroke-linejoin:round;stroke-width:2px"/>
    <circle cx="168.2" cy="158.4" r="4.2" style="fill:#dce3ea"/>
    <path d="M169.7,154.9l0.7,0.3a2.3,2.3,0,1,1-4.6.2C167.2,155,168.6,154.4,169.7,154.9Z" style="fill:#fff;opacity:0.6"/>
    <circle cx="168.2" cy="158.4" r="4.2" style="fill:none;stroke:#1d132d;stroke-linecap:round;stroke-linejoin:round;stroke-width:2px"/>
    <path d="M154.1,142.4a8.6,8.6,0,0,1-3.6,5.2" style="fill:none;stroke:#1d132d;stroke-linecap:round;stroke-linejoin:round;stroke-width:2px"/>
    <path d="M147.2,139a9.3,9.3,0,0,1-2,6.3" style="fill:none;stroke:#1d132d;stroke-linecap:round;stroke-linejoin:round;stroke-width:2px"/>
    <path d="M140.6,137.4a9.3,9.3,0,0,1-.9,6.5" style="fill:none;stroke:#1d132d;stroke-linecap:round;stroke-linejoin:round;stroke-width:2px"/>
    <circle cx="168.2" cy="159.4" r="0.7" style="fill:#fff"/>
  </g>
  <g>
    <title>atribute04</title>
    <g style="isolation:isolate">
      <path d="M71.8,98.1V69.5H63.1c-2.7,0-4.8,6.4-4.8,14.3s2.2,14.3,4.8,14.3h8.7Z" style="fill:#2e4159"/>
      <g style="opacity:0.15;mix-blend-mode:multiply">
        <path d="M59.6,92.9H59.4c0.9,3.2,2.2,5.2,3.7,5.2h8.7V86.8A16,16,0,0,1,59.6,92.9Z" style="fill:#180621"/>
      </g>
      <path d="M71.8,98.1V69.4H63.2c-2.7,0-4.8,6.4-4.8,14.3s2.2,14.3,4.8,14.3h8.7Z" style="fill:none;stroke:#1d132d;stroke-miterlimit:10;stroke-width:2px"/>
      <path d="M48.5,83.4c0-5-1.6-9-3.6-9.1h0L36.4,73,15.9,78.2h0c-1.1.1-2,2.4-2,5.2s0.9,5.1,2,5.2h0l20.5,5.2,8.6-1.3h0C46.9,92.4,48.5,88.4,48.5,83.4Z" style="fill:#dce3ea"/>
      <path d="M36.4,73L15.9,78.2h0c-1.1.1-3.2,5-2,5.2C30.6,85.9,36.4,73,36.4,73Z" style="fill:#fff;opacity:0.5"/>
      <path d="M48.5,83.4c0-5-1.6-9-3.6-9.1h0L36.4,73,15.9,78.2h0c-1.1.1-2,2.4-2,5.2s0.9,5.1,2,5.2h0l20.5,5.2,8.6-1.3h0C46.9,92.4,48.5,88.4,48.5,83.4Z" style="fill:none;stroke:#1d132d;stroke-linecap:round;stroke-linejoin:round;stroke-width:2px"/>
      <path d="M41.9,77.5c0.6-1.9,1.6-3.1,2.6-3.3" style="fill:none;stroke:#1d132d;stroke-linecap:round;stroke-linejoin:round;stroke-width:2px"/>
      <ellipse cx="45" cy="83.2" rx="3.2" ry="8.9" style="fill:#180621;opacity:0.15"/>
      <path d="M41.2,82q0-.6.1-1.3" style="fill:none;stroke:#1d132d;stroke-linecap:round;stroke-linejoin:round;stroke-width:2px"/>
      <path d="M45.1,92.5H44.8c-1.8,0-3.3-3.1-3.6-7.2" style="fill:none;stroke:#1d132d;stroke-linecap:round;stroke-linejoin:round;stroke-width:2px"/>
      <path d="M37.3,93.6H37c-2.1,0-3.8-3.5-4.2-8.3" style="fill:none;stroke:#1d132d;stroke-linecap:round;stroke-linejoin:round;stroke-width:2px"/>
      <path d="M168.4,98.1V69.5H177c2.7,0,4.8,6.4,4.8,14.3s-2.2,14.3-4.8,14.3h-8.7Z" style="fill:#2e4159"/>
      <g style="opacity:0.15;mix-blend-mode:multiply">
        <path d="M180.6,92.9h0.1c-0.9,3.2-2.2,5.2-3.7,5.2h-8.7V86.8A16,16,0,0,0,180.6,92.9Z" style="fill:#180621"/>
      </g>
      <path d="M168.4,98.1V69.4H177c2.7,0,4.8,6.4,4.8,14.3s-2.2,14.3-4.8,14.3h-8.7Z" style="fill:none;stroke:#1d132d;stroke-miterlimit:10;stroke-width:2px"/>
      <path d="M191.7,83.4c0-5,1.6-9,3.6-9.1h0l8.6-1.3,20.5,5.2h0c1.1,0.1,2,2.4,2,5.2s-0.9,5.1-2,5.2h0l-20.5,5.2-8.6-1.3h0C193.3,92.4,191.7,88.4,191.7,83.4Z" style="fill:#dce3ea"/>
      <path d="M203.8,73l20.5,5.2h0c1.1,0.1,3.2,5,2,5.2C209.5,85.9,203.8,73,203.8,73Z" style="fill:#fff;opacity:0.5"/>
      <path d="M191.7,83.4c0-5,1.6-9,3.6-9.1h0l8.6-1.3,20.5,5.2h0c1.1,0.1,2,2.4,2,5.2s-0.9,5.1-2,5.2h0l-20.5,5.2-8.6-1.3h0C193.3,92.4,191.7,88.4,191.7,83.4Z" style="fill:none;stroke:#1d132d;stroke-linecap:round;stroke-linejoin:round;stroke-width:2px"/>
      <path d="M198.3,77.5c-0.6-1.9-1.6-3.1-2.6-3.3" style="fill:none;stroke:#1d132d;stroke-linecap:round;stroke-linejoin:round;stroke-width:2px"/>
      <ellipse cx="195.1" cy="83.2" rx="3.2" ry="8.9" style="fill:#180621;opacity:0.15"/>
      <path d="M199,82q0-.6-0.1-1.3" style="fill:none;stroke:#1d132d;stroke-linecap:round;stroke-linejoin:round;stroke-width:2px"/>
      <path d="M195.1,92.5h0.3c1.8,0,3.3-3.1,3.6-7.2" style="fill:none;stroke:#1d132d;stroke-linecap:round;stroke-linejoin:round;stroke-width:2px"/>
      <path d="M202.8,93.6h0.3c2.1,0,3.8-3.5,4.2-8.3" style="fill:none;stroke:#1d132d;stroke-linecap:round;stroke-linejoin:round;stroke-width:2px"/>
    </g>
  </g>
  <g>
    <title>09</title>
    <path d="M125.4,136.4c19.6-.5,28.4-3.6,37.2-11.1s12.1-21.8,12.1-37.2c0-27.7-17.6-49.2-43.4-53.7a76.8,76.8,0,0,0-11.1-.9,84.7,84.7,0,0,0-11.6.9C82.9,39,65.3,60.5,65.3,88.1c0,15.4,3.2,29.6,12.1,37.2s18.2,10.8,39.5,11.1h8.5Z" style="fill:#ff3a44"/>
    <path d="M109.2,136.5c-7,6.6-11.8,18.9-11.8,29.9,0,16,10.1,19.5,22.6,19.5s22.6-3.4,22.6-19.5c0-11.1-4.9-23.5-12-30.1" style="fill:#ff3a44"/>
    <polyline points="140.4 153.2 120.2 161.9 99.7 153.1 97.6 162.1 120.2 171.8 142 162.4" style="fill:#dce3ea"/>
    <g style="opacity:0.30000000000000004">
      <path d="M108.7,45a84.7,84.7,0,0,1,11.6-.9,76.8,76.8,0,0,1,11.1.9c24.4,4.3,41.5,23.9,43.2,49.5q0.1-2.7.1-5.5c0-27.7-17.6-49.2-43.4-53.7a76.8,76.8,0,0,0-11.1-.9,84.7,84.7,0,0,0-11.6.9c-25.7,4.5-43.4,26-43.4,53.7q0,2.8.1,5.5C67.1,68.9,84.3,49.3,108.7,45Z" style="fill:#fff"/>
    </g>
    <path d="M125.4,136.4c19.6-.5,28.4-3.6,37.2-11.1s12.1-21.8,12.1-37.2c0-27.7-17.6-49.2-43.4-53.7a76.8,76.8,0,0,0-11.1-.9,84.7,84.7,0,0,0-11.6.9C82.9,39,65.3,60.5,65.3,88.1c0,15.4,3.2,29.6,12.1,37.2s18.2,10.8,39.5,11.1h8.5Z" style="fill:none;stroke:#1d132d;stroke-miterlimit:10;stroke-width:2px"/>
    <path d="M109.2,136.5c-7,6.6-11.8,18.9-11.8,29.9,0,16,10.1,19.5,22.6,19.5s22.6-3.4,22.6-19.5c0-11.1-4.9-23.5-12-30.1" style="fill:none;stroke:#1d132d;stroke-miterlimit:10;stroke-width:2px"/>
    <polygon points="120 154.8 110 147.9 116.7 142.5 123.3 142.5 130 147.9 120 154.8" style="fill:#ffe315"/>
    <path d="M116.7,143a1.8,1.8,0,0,0-.2.8c0,1.3,1.6,2.4,3.6,2.4s3.6-1.1,3.6-2.4a1.8,1.8,0,0,0-.3-1h-6.6Z" style="fill:#fff;opacity:0.5"/>
    <polygon points="120 150.5 112.8 145.5 110 147.9 120 154.8 130 147.9 127.1 145.5 120 150.5" style="fill:#ffc817"/>
    <polygon points="120 154.8 110 147.9 116.7 142.5 123.3 142.5 130 147.9 120 154.8" style="fill:none;stroke:#1d132d;stroke-linecap:round;stroke-linejoin:round;stroke-width:2px"/>
    <polyline points="142 162.4 120.2 171.8 97.6 162.1" style="fill:none;stroke:#1d132d;stroke-linecap:round;stroke-linejoin:round;stroke-width:2px"/>
    <polyline points="140.4 153.2 120.2 161.9 99.7 153.1" style="fill:none;stroke:#1d132d;stroke-linecap:round;stroke-linejoin:round;stroke-width:2px"/>
  </g>
  <g>
    <title>05</title>
    <path d="M120.2,136.6c26.6,0,36.1-4,44.2-10.3l1.7-1.4c11-10.7,8.2-26,8.2-26s-18.9,9.4-54.2,9.4-54.2-9.4-54.2-9.4-2.8,15.4,8.2,26l1.7,1.4c8.1,6.3,17.6,10.3,44.2,10.3" style="fill:#dce3ea"/>
    <path d="M148.4,133.9a18.5,18.5,0,0,1-18.5-18.5v-.2h-20v.3a18.5,18.5,0,0,1-18.5,18.5,167.7,167.7,0,0,0,28.4,3A167.4,167.4,0,0,0,148.4,133.9Z" style="fill:#2e4159"/>
    <path d="M166.1,119.1l-1.7,1.5c-8.1,6.3-17.6,9.4-44.2,9.4h-.4c-26.6,0-36.1-3.1-44.2-9.4L74,119.1a29.2,29.2,0,0,1-8.4-18.7c-.4,4.2-.5,15.9,8.4,24.6l1.7,1.5c8.1,6.3,17.6,9.4,44.2,9.4h.4c26.6,0,36.1-3.1,44.2-9.4l1.7-1.5c8.9-8.7,8.7-20.4,8.4-24.6A29.2,29.2,0,0,1,166.1,119.1Z" style="fill:#180621;opacity:0.15"/>
    <path d="M120.2,136.6c26.6,0,36.1-4,44.2-10.3l1.7-1.4c11-10.7,8.2-26,8.2-26s-18.9,9.4-54.2,9.4-54.2-9.4-54.2-9.4-2.8,15.4,8.2,26l1.7,1.4c8.1,6.3,17.6,10.3,44.2,10.3" style="fill:none;stroke:#1d132d;stroke-linecap:round;stroke-linejoin:round;stroke-width:2px"/>
    <path d="M148.4,133.9a18.5,18.5,0,0,1-18.5-18.5v-.2h-20v.3a18.5,18.5,0,0,1-18.5,18.5" style="fill:none;stroke:#1d132d;stroke-linecap:round;stroke-linejoin:round;stroke-width:2px"/>
  </g>
  <g>
    <title>05</title>
    <circle cx="148.2" cy="84.4" r="16.2" style="fill:#36c8e3"/>
    <circle cx="148.2" cy="84.4" r="16.2" style="fill:#dce3ea"/>
    <circle cx="92" cy="84.4" r="16.2" style="fill:#36c8e3"/>
    <circle cx="92" cy="84.4" r="16.2" style="fill:#dce3ea"/>
    <g style="opacity:0.5">
      <path d="M92,68.1a16.2,16.2,0,0,0-14.3,8.6,16.4,16.4,0,0,0,28.2-.7A16.2,16.2,0,0,0,92,68.1Z" style="fill:#fff"/>
    </g>
    <circle cx="92" cy="84.4" r="16.2" style="fill:none;stroke:#1d132d;stroke-linecap:round;stroke-linejoin:round;stroke-width:2px"/>
    <line x1="77" y1="78.1" x2="93.1" y2="78.1" style="fill:none;stroke:#1d132d;stroke-linecap:round;stroke-linejoin:round;stroke-width:2px"/>
    <line x1="77" y1="83.9" x2="107.8" y2="84" style="fill:none;stroke:#1d132d;stroke-linecap:round;stroke-linejoin:round;stroke-width:2px"/>
    <line x1="77" y1="89.7" x2="107" y2="90" style="fill:none;stroke:#1d132d;stroke-linecap:round;stroke-linejoin:round;stroke-width:2px"/>
    <line x1="89.6" y1="95.6" x2="103.2" y2="95.5" style="fill:none;stroke:#1d132d;stroke-linecap:round;stroke-linejoin:round;stroke-width:2px"/>
    <line x1="88" y1="72.6" x2="103.2" y2="72.6" style="fill:none;stroke:#1d132d;stroke-linecap:round;stroke-linejoin:round;stroke-width:2px"/>
    <line x1="80.8" y1="72.6" x2="84.3" y2="72.6" style="fill:none;stroke:#1d132d;stroke-linecap:round;stroke-linejoin:round;stroke-width:2px"/>
    <line x1="97.1" y1="78.1" x2="106.7" y2="78.1" style="fill:none;stroke:#1d132d;stroke-linecap:round;stroke-linejoin:round;stroke-width:2px"/>
    <g style="opacity:0.5">
      <path d="M148.2,68.1a16.2,16.2,0,0,0-14.3,8.6,16.4,16.4,0,0,0,28.2-.7A16.2,16.2,0,0,0,148.2,68.1Z" style="fill:#fff"/>
    </g>
    <circle cx="148.2" cy="84.4" r="16.2" style="fill:none;stroke:#1d132d;stroke-linecap:round;stroke-linejoin:round;stroke-width:2px"/>
    <line x1="133.3" y1="78.1" x2="149.3" y2="78.1" style="fill:none;stroke:#1d132d;stroke-linecap:round;stroke-linejoin:round;stroke-width:2px"/>
    <line x1="133.3" y1="83.9" x2="164.1" y2="84" style="fill:none;stroke:#1d132d;stroke-linecap:round;stroke-linejoin:round;stroke-width:2px"/>
    <line x1="133.3" y1="89.7" x2="163.2" y2="90" style="fill:none;stroke:#1d132d;stroke-linecap:round;stroke-linejoin:round;stroke-width:2px"/>
    <line x1="145.8" y1="95.6" x2="159.5" y2="95.5" style="fill:none;stroke:#1d132d;stroke-linecap:round;stroke-linejoin:round;stroke-width:2px"/>
    <line x1="144.2" y1="72.6" x2="159.5" y2="72.6" style="fill:none;stroke:#1d132d;stroke-linecap:round;stroke-linejoin:round;stroke-width:2px"/>
    <line x1="137" y1="72.6" x2="140.5" y2="72.6" style="fill:none;stroke:#1d132d;stroke-linecap:round;stroke-linejoin:round;stroke-width:2px"/>
    <line x1="153.3" y1="78.1" x2="162.9" y2="78.1" style="fill:none;stroke:#1d132d;stroke-linecap:round;stroke-linejoin:round;stroke-width:2px"/>
  </g>
  <g>
    <title>05</title>
    <path d="M120.1,58.2h0l13.5-13.1,3.6-9A52.4,52.4,0,0,0,120,33.5a58.2,58.2,0,0,0-16.7,2.3l3.4,9.3Z" style="fill:#dce3ea"/>
    <path d="M80.9,48.9a50.6,50.6,0,0,1,20-12l1.4-.8V14.8h-12L79.5,49.8l1.1-.7Z" style="fill:#2e4159"/>
    <polygon points="102.3 20.3 102.3 14.8 90.3 14.8 88.6 20.3 102.3 20.3" style="fill:#dce3ea"/>
    <path d="M159.3,48.9a50.6,50.6,0,0,0-20-12l-1.4-.8V14.8h12l10.8,35.1-1.1-.7Z" style="fill:#2e4159"/>
    <polygon points="137.9 20.3 137.9 14.8 149.9 14.8 151.6 20.3 137.9 20.3" style="fill:#dce3ea"/>
    <line x1="89.2" y1="20" x2="101.8" y2="20" style="fill:none;stroke:#1d132d;stroke-linecap:round;stroke-linejoin:round;stroke-width:2px"/>
    <polyline points="106.6 45.1 120.1 58.2 120.1 58.2 133.6 45.1" style="fill:none;stroke:#1d132d;stroke-linecap:round;stroke-linejoin:round;stroke-width:2px"/>
    <line x1="113.5" y1="51.4" x2="126.6" y2="51.4" style="fill:none;stroke:#1d132d;stroke-linecap:round;stroke-linejoin:round;stroke-width:2px"/>
    <line x1="107.6" y1="45.5" x2="132.5" y2="45.6" style="fill:none;stroke:#1d132d;stroke-linecap:round;stroke-linejoin:round;stroke-width:2px"/>
    <line x1="135.2" y1="39.6" x2="104.8" y2="39.6" style="fill:none;stroke:#1d132d;stroke-linecap:round;stroke-linejoin:round;stroke-width:2px"/>
    <line x1="106.4" y1="44.9" x2="102.3" y2="35.5" style="fill:none;stroke:#1d132d;stroke-linecap:round;stroke-linejoin:round;stroke-width:2px"/>
    <line x1="150.9" y1="20.1" x2="138.3" y2="20.1" style="fill:none;stroke:#1d132d;stroke-linecap:round;stroke-linejoin:round;stroke-width:2px"/>
    <line x1="133.7" y1="45" x2="137.8" y2="35.6" style="fill:none;stroke:#1d132d;stroke-linecap:round;stroke-linejoin:round;stroke-width:2px"/>
    <polyline points="79.5 49.8 90.3 14.8 102.3 14.8 102.3 36" style="fill:none;stroke:#1d132d;stroke-linecap:round;stroke-linejoin:round;stroke-width:2px"/>
    <polyline points="160.6 50 149.9 14.9 137.9 14.9 137.9 36.1" style="fill:none;stroke:#1d132d;stroke-linecap:round;stroke-linejoin:round;stroke-width:2px"/>
    <path d="M160.7,50.3a51.5,51.5,0,0,0-29.4-15.9,76.8,76.8,0,0,0-11.1-.9,84.7,84.7,0,0,0-11.6.9A51.5,51.5,0,0,0,79.6,50" style="fill:none;stroke:#1d132d;stroke-linecap:round;stroke-linejoin:round;stroke-width:2px"/>
  </g>
</svg>