<svg xmlns="http://www.w3.org/2000/svg" xmlns:xlink="http://www.w3.org/1999/xlink" viewBox="0 0 240 240">
  <ellipse cx="120.5" cy="233.4" rx="43.7" ry="4.9" style="fill:#180621;opacity:0.15"/>
  <g>
    <title>04</title>
    <g style="isolation:isolate">
      <path d="M91.7,195.2h0l.6,25.8h-.1c-.4.3-.7,1.8-.2,2.7a14.4,14.4,0,0,0-4.6,7.6,1.9,1.9,0,0,0,1.3,2.2,44.7,44.7,0,0,0,12.6,1.4c9.5,0,14.5-2,14.5-2v-.6l.2-.4V208.3h0A19.5,19.5,0,0,0,91.7,195.2Z" style="fill:#dce3ea"/>
      <path d="M115.2,204V182.2l-13.7-1.8v14.3l.7.5C106.4,196.8,112,201,115.2,204Z" style="fill:#dce3ea"/>
      <path d="M89,227.6c8.2-9.2,23.2-10.1,27,4.1V208.3h0a19.5,19.5,0,0,0-24.2-13.1h0l.6,25.8h-.1c-.4.3-.7,1.8-.2,2.7A14.6,14.6,0,0,0,89,227.6Z" style="fill:#2e4159"/>
      <polyline points="101.6 194.4 101.6 180.4 116 180.4 116 209.3" style="fill:none;stroke:#1d132d;stroke-linecap:round;stroke-linejoin:round;stroke-width:2px"/>
      <path d="M115.9,232.7V208.3h0a19.5,19.5,0,0,0-24.2-13.1h0l.7,27.7" style="fill:none;stroke:#1d132d;stroke-linecap:round;stroke-linejoin:round;stroke-width:2px"/>
      <ellipse cx="99" cy="222.7" rx="4.7" ry="3" style="fill:#fff;opacity:0.5"/>
      <path d="M115.5,205.2v-7.4a25.6,25.6,0,0,0-13.2-8.3v5.4C106.9,197,111.9,201.5,115.5,205.2Z" style="fill:#180621;opacity:0.15;mix-blend-mode:multiply"/>
      <path d="M115.9,232.9a14.4,14.4,0,0,0-28.4-1.6,1.9,1.9,0,0,0,1.3,2.2,44.7,44.7,0,0,0,12.6,1.4C110.8,234.9,115.9,232.9,115.9,232.9Z" style="fill:none;stroke:#1d132d;stroke-linecap:round;stroke-linejoin:round;stroke-width:2px"/>
      <path d="M103.6,213.3h-.8A15.2,15.2,0,0,0,92.4,217" style="fill:none;stroke:#1d132d;stroke-linecap:round;stroke-linejoin:round;stroke-width:2px"/>
      <path d="M103.6,206.4h-.8a15.2,15.2,0,0,0-10.4,3.7" style="fill:none;stroke:#1d132d;stroke-linecap:round;stroke-linejoin:round;stroke-width:2px"/>
      <path d="M101.5,230.2a44.7,44.7,0,0,1-12.6-1.4l-.4-.2a14.3,14.3,0,0,0-.9,2.7,1.9,1.9,0,0,0,1.3,2.2,44.7,44.7,0,0,0,12.6,1.4c9.5,0,14.5-2,14.5-2a14.3,14.3,0,0,0-1.2-4.4A48.8,48.8,0,0,1,101.5,230.2Z" style="fill:#180621;opacity:0.15"/>
      <path d="M152.8,231.3a14.4,14.4,0,0,0-4.6-7.6c.5-.9.2-2.4-.2-2.7h-.1l.6-25.8h0a19.5,19.5,0,0,0-24.2,13.1h0V232l.2.4v.6s5.1,2,14.5,2a44.7,44.7,0,0,0,12.6-1.4A1.9,1.9,0,0,0,152.8,231.3Z" style="fill:#dce3ea"/>
      <path d="M124.3,232h.1a3.2,3.2,0,0,1,.3-.9c2.7-5.5,6.4-10.6,13.1-11a18.1,18.1,0,0,1,10.7,2.7,2.3,2.3,0,0,0-.4-1.9h-.1l.6-25.8h0a19.5,19.5,0,0,0-24.2,13.1h0Z" style="fill:#2e4159"/>
      <ellipse cx="141" cy="222.7" rx="4.7" ry="3" style="fill:#fff;opacity:0.5"/>
      <path d="M125.1,204V182.2l13.7-1.8v14.3l-.7.5C133.8,196.8,128.3,201,125.1,204Z" style="fill:#dce3ea"/>
      <polyline points="138.7 194.4 138.7 180.4 124.3 180.4 124.3 209.3" style="fill:none;stroke:#1d132d;stroke-linecap:round;stroke-linejoin:round;stroke-width:2px"/>
      <path d="M124.3,232.7V208.3h0a19.5,19.5,0,0,1,24.2-13.1h0l-.7,27.7" style="fill:none;stroke:#1d132d;stroke-linecap:round;stroke-linejoin:round;stroke-width:2px"/>
      <path d="M124.8,205.2v-7.4a25.6,25.6,0,0,1,13.2-8.3v5.4C133.4,197,128.3,201.5,124.8,205.2Z" style="fill:#180621;opacity:0.15;mix-blend-mode:multiply"/>
      <path d="M124.4,232.9a14.4,14.4,0,0,1,28.4-1.6,1.9,1.9,0,0,1-1.3,2.2,44.7,44.7,0,0,1-12.6,1.4C129.5,234.9,124.4,232.9,124.4,232.9Z" style="fill:none;stroke:#1d132d;stroke-linecap:round;stroke-linejoin:round;stroke-width:2px"/>
      <path d="M136.7,213.3h.8a15.2,15.2,0,0,1,10.4,3.7" style="fill:none;stroke:#1d132d;stroke-linecap:round;stroke-linejoin:round;stroke-width:2px"/>
      <path d="M136.7,206.4h.8a15.2,15.2,0,0,1,10.4,3.7" style="fill:none;stroke:#1d132d;stroke-linecap:round;stroke-linejoin:round;stroke-width:2px"/>
      <path d="M138.8,230.2a44.7,44.7,0,0,0,12.6-1.4l.4-.2a14.3,14.3,0,0,1,.9,2.7,1.9,1.9,0,0,1-1.3,2.2,44.7,44.7,0,0,1-12.6,1.4c-9.5,0-14.5-2-14.5-2a14.3,14.3,0,0,1,1.2-4.4A48.8,48.8,0,0,0,138.8,230.2Z" style="fill:#180621;opacity:0.15"/>
    </g>
  </g>
  <g>
    <title>16</title>
    <path d="M59.5,160.1c-4,1.7-11.6,7.1-11.6,7.1s-5.6-11.4,9.9-14" style="fill:#dce3ea"/>
    <path d="M77.1,172.7c-1.9,3.9-4.3,14.2-4.3,14.2s-11-4.7-2.5-16.1" style="fill:#dce3ea"/>
    <path d="M66.7,168.8c-3.2,2.9-9.2,11.5-9.2,11.5s-8.8-9.1,5.1-16.4" style="fill:#dce3ea"/>
    <path d="M53.6,163.5a50.5,50.5,0,0,1,5.9-3.3l-1.7-6.9a16.6,16.6,0,0,0-7.8,3.1A11.9,11.9,0,0,1,53.6,163.5Z" style="fill:#180621;opacity:0.15"/>
    <path d="M70.4,179.4l1.8,1.9a12.2,12.2,0,0,1,1.4,2.2,79,79,0,0,1,3.4-10.8l-6.8-1.9c-2.2,3-3.1,5.5-3.2,7.6A3.6,3.6,0,0,1,70.4,179.4Z" style="fill:#180621;opacity:0.15"/>
    <path d="M62.6,163.9a16.8,16.8,0,0,0-6.4,5.2c2.5,0.6,4.3,2.9,5.6,5.3a47.2,47.2,0,0,1,4.9-5.6Z" style="fill:#180621;opacity:0.15"/>
    <path d="M87.3,153.9c-0.7,6-4.4,13.1-8.9,17.6H78.3c-2.3,2.3-8.4-.2-13.7-5.6s-7.8-11.5-5.5-13.8h0.1c4.5-4.5,11.6-8.2,17.6-8.8,0,0,6.3,2.3,7.6,3.6S87.3,153.9,87.3,153.9Z" style="fill:#2e4159"/>
    <path d="M87.3,153.9c-0.7,6-4.4,13.1-8.9,17.6H78.3c-2.3,2.3-8.4-.2-13.7-5.6s-7.8-11.5-5.5-13.8h0.1c4.5-4.5,11.6-8.2,17.6-8.8,0,0,6.3,2.3,7.6,3.6S87.3,153.9,87.3,153.9Z" style="fill:#2e4159"/>
    <path d="M86.2,150.2c1.2,2,1.5,3.8.6,4.7s-4.8-.1-7.9-3.2-4.4-6.6-3.1-7.9,3.1-.4,5.4,1.1" style="fill:#180621;opacity:0.15"/>
    <path d="M105.5,136.9c-10.7.2-18.2,3-26,9.8H79.4a13.3,13.3,0,0,0,2.9,3.4,9.9,9.9,0,0,0,2.3,1.1,29.7,29.7,0,0,1,18.9-7.6l2.4-3.7,2.3-3.2h-2.6Z" style="fill:#dce3ea"/>
    <path d="M105.5,136.9a50.1,50.1,0,0,0-6.4.5c-0.3,3.5-3,5.9-6.4,7.2s-7.4,2.7-10.8.1l-2.1,1.8,0.6,0.7a7,7,0,0,0,2.5,2.5,10.4,10.4,0,0,0,2.8.8,29.4,29.4,0,0,1,17.9-6.7l2.4-3.7,2.3-3.2h-2.6Z" style="fill:#180621;opacity:0.15"/>
    <path d="M86.2,154.5H84.9a29.9,29.9,0,0,1-1.7,3.7,10.2,10.2,0,0,1-16.6,1.8l-0.2-.2c-3-3.5-5.2-6.8-5.5-9.4l-1.8,1.6H59.1c-2.3,2.3.2,8.4,5.5,13.8s11.5,7.8,13.7,5.6h0.1c4.5-4.5,8.2-11.5,8.9-17.5Z" style="fill:#180621;opacity:0.15"/>
    <path d="M80.3,146.1c7.5-6.4,14.9-9,25.2-9.2h2.6l-2.2,3.2-2.4,3.7a29.5,29.5,0,0,0-18.4,7.1" style="fill:none;stroke:#1d132d;stroke-linecap:round;stroke-linejoin:round;stroke-width:2px"/>
    <path d="M78.3,171.6c-2.3,2.3-8.4-.2-13.7-5.6s-7.8-11.5-5.5-13.8h0.1" style="fill:none;stroke:#1d132d;stroke-linecap:round;stroke-linejoin:round;stroke-width:2px"/>
    <path d="M86.2,150.2c1.2,2,1.5,3.8.6,4.7s-4.8-.1-7.9-3.2-4.4-6.6-3.1-7.9,3.1-.4,5.4,1.1" style="fill:none;stroke:#1d132d;stroke-linecap:round;stroke-linejoin:round;stroke-width:2px"/>
    <path d="M85,151c-0.6.6-2.1-.1-3.4-1.4s-1.9-2.8-1.4-3.4" style="fill:none;stroke:#1d132d;stroke-linecap:round;stroke-linejoin:round;stroke-width:2px"/>
    <path d="M59.2,152.1c4.5-4.5,11.6-8.2,17.6-8.8" style="fill:none;stroke:#1d132d;stroke-linecap:round;stroke-linejoin:round;stroke-width:2px"/>
    <path d="M78.4,171.5c4.5-4.5,8.2-11.6,8.9-17.6" style="fill:none;stroke:#1d132d;stroke-linecap:round;stroke-linejoin:round;stroke-width:2px"/>
    <path d="M59.5,160.1c-4,1.7-11.6,7.1-11.6,7.1s-5.6-11.4,9.9-14" style="fill:none;stroke:#1d132d;stroke-linecap:round;stroke-linejoin:round;stroke-width:2px"/>
    <path d="M77.1,172.7c-1.9,3.9-4.3,14.2-4.3,14.2s-11-4.7-2.5-16.1" style="fill:none;stroke:#1d132d;stroke-linecap:round;stroke-linejoin:round;stroke-width:2px"/>
    <path d="M66.7,168.8c-3.2,2.9-9.2,11.5-9.2,11.5s-8.8-9.1,5.1-16.4" style="fill:none;stroke:#1d132d;stroke-linecap:round;stroke-linejoin:round;stroke-width:2px"/>
    <circle cx="71.8" cy="158.4" r="4.2" style="fill:#dce3ea"/>
    <path d="M70.2,154.9l-0.7.3a2.3,2.3,0,1,0,4.6.2C72.8,155,71.4,154.4,70.2,154.9Z" style="fill:#fff;opacity:0.6"/>
    <circle cx="71.8" cy="158.4" r="4.2" style="fill:none;stroke:#1d132d;stroke-linecap:round;stroke-linejoin:round;stroke-width:2px"/>
    <path d="M85.8,142.4a8.6,8.6,0,0,0,3.6,5.2" style="fill:none;stroke:#1d132d;stroke-linecap:round;stroke-linejoin:round;stroke-width:2px"/>
    <path d="M92.7,139a9.3,9.3,0,0,0,2,6.3" style="fill:none;stroke:#1d132d;stroke-linecap:round;stroke-linejoin:round;stroke-width:2px"/>
    <path d="M99.4,137.4a9.3,9.3,0,0,0,.9,6.5" style="fill:none;stroke:#1d132d;stroke-linecap:round;stroke-linejoin:round;stroke-width:2px"/>
    <circle cx="71.7" cy="159.4" r="0.7" style="fill:#fff"/>
    <path d="M180.4,160.1c4,1.7,11.6,7.1,11.6,7.1s5.6-11.4-9.9-14" style="fill:#dce3ea"/>
    <path d="M162.8,172.7c1.9,3.9,4.3,14.2,4.3,14.2s11-4.7,2.5-16.1" style="fill:#dce3ea"/>
    <path d="M173.2,168.8c3.2,2.9,9.2,11.5,9.2,11.5s8.8-9.1-5.1-16.4" style="fill:#dce3ea"/>
    <path d="M186.3,163.5a50.5,50.5,0,0,0-5.9-3.3l1.7-6.9a16.6,16.6,0,0,1,7.8,3.1A11.9,11.9,0,0,0,186.3,163.5Z" style="fill:#180621;opacity:0.15"/>
    <path d="M169.5,179.4l-1.8,1.9a12.2,12.2,0,0,0-1.4,2.2,79,79,0,0,0-3.4-10.8l6.8-1.9c2.2,3,3.1,5.5,3.2,7.6A3.6,3.6,0,0,0,169.5,179.4Z" style="fill:#180621;opacity:0.15"/>
    <path d="M177.3,163.9a16.8,16.8,0,0,1,6.4,5.2c-2.5.6-4.3,2.9-5.6,5.3a47.2,47.2,0,0,0-4.9-5.6Z" style="fill:#180621;opacity:0.15"/>
    <path d="M152.6,153.9c0.7,6,4.4,13.1,8.9,17.6h0.1c2.3,2.3,8.4-.2,13.7-5.6s7.8-11.5,5.5-13.8h-0.1c-4.5-4.5-11.6-8.2-17.6-8.8,0,0-6.3,2.3-7.6,3.6S152.6,153.9,152.6,153.9Z" style="fill:#2e4159"/>
    <path d="M152.6,153.9c0.7,6,4.4,13.1,8.9,17.6h0.1c2.3,2.3,8.4-.2,13.7-5.6s7.8-11.5,5.5-13.8h-0.1c-4.5-4.5-11.6-8.2-17.6-8.8,0,0-6.3,2.3-7.6,3.6S152.6,153.9,152.6,153.9Z" style="fill:#2e4159"/>
    <path d="M153.7,150.2c-1.2,2-1.5,3.8-.6,4.7s4.8-.1,7.9-3.2,4.4-6.6,3.1-7.9-3.1-.4-5.4,1.1" style="fill:#180621;opacity:0.15"/>
    <path d="M134.4,136.9c10.7,0.2,18.2,3,26,9.8h0.1a13.3,13.3,0,0,1-2.9,3.4,9.9,9.9,0,0,1-2.3,1.1,29.7,29.7,0,0,0-18.9-7.6l-2.4-3.7-2.2-3.2h2.6Z" style="fill:#dce3ea"/>
    <path d="M134.4,136.9a50.1,50.1,0,0,1,6.4.5c0.3,3.5,3,5.9,6.4,7.2s7.4,2.7,10.8.1l2.1,1.8-0.6.7a7,7,0,0,1-2.5,2.5,10.4,10.4,0,0,1-2.8.8,29.4,29.4,0,0,0-17.9-6.7l-2.4-3.7-2.2-3.2h2.6Z" style="fill:#180621;opacity:0.15"/>
    <path d="M153.8,154.5H155a29.9,29.9,0,0,0,1.7,3.7,10.2,10.2,0,0,0,16.6,1.8l0.2-.2c3-3.5,5.2-6.8,5.5-9.4l1.8,1.6h0.1c2.3,2.3-.2,8.4-5.5,13.8s-11.5,7.8-13.7,5.6h-0.1c-4.5-4.5-8.2-11.5-8.9-17.5Z" style="fill:#180621;opacity:0.15"/>
    <path d="M159.7,146.1c-7.5-6.4-14.9-9-25.2-9.2h-2.6l2.3,3.2,2.4,3.7a29.5,29.5,0,0,1,18.4,7.1" style="fill:none;stroke:#1d132d;stroke-linecap:round;stroke-linejoin:round;stroke-width:2px"/>
    <path d="M161.6,171.6c2.3,2.3,8.4-.2,13.7-5.6s7.8-11.5,5.5-13.8h-0.1" style="fill:none;stroke:#1d132d;stroke-linecap:round;stroke-linejoin:round;stroke-width:2px"/>
    <path d="M153.7,150.2c-1.2,2-1.5,3.8-.6,4.7s4.8-.1,7.9-3.2,4.4-6.6,3.1-7.9-3.1-.4-5.4,1.1" style="fill:none;stroke:#1d132d;stroke-linecap:round;stroke-linejoin:round;stroke-width:2px"/>
    <path d="M155,151c0.6,0.6,2.1-.1,3.4-1.4s1.9-2.8,1.4-3.4" style="fill:none;stroke:#1d132d;stroke-linecap:round;stroke-linejoin:round;stroke-width:2px"/>
    <path d="M180.8,152.1c-4.5-4.5-11.6-8.2-17.6-8.8" style="fill:none;stroke:#1d132d;stroke-linecap:round;stroke-linejoin:round;stroke-width:2px"/>
    <path d="M161.5,171.5c-4.5-4.5-8.2-11.6-8.9-17.6" style="fill:none;stroke:#1d132d;stroke-linecap:round;stroke-linejoin:round;stroke-width:2px"/>
    <path d="M180.4,160.1c4,1.7,11.6,7.1,11.6,7.1s5.6-11.4-9.9-14" style="fill:none;stroke:#1d132d;stroke-linecap:round;stroke-linejoin:round;stroke-width:2px"/>
    <path d="M162.8,172.7c1.9,3.9,4.3,14.2,4.3,14.2s11-4.7,2.5-16.1" style="fill:none;stroke:#1d132d;stroke-linecap:round;stroke-linejoin:round;stroke-width:2px"/>
    <path d="M173.2,168.8c3.2,2.9,9.2,11.5,9.2,11.5s8.8-9.1-5.1-16.4" style="fill:none;stroke:#1d132d;stroke-linecap:round;stroke-linejoin:round;stroke-width:2px"/>
    <circle cx="168.2" cy="158.4" r="4.2" style="fill:#dce3ea"/>
    <path d="M169.7,154.9l0.7,0.3a2.3,2.3,0,1,1-4.6.2C167.2,155,168.6,154.4,169.7,154.9Z" style="fill:#fff;opacity:0.6"/>
    <circle cx="168.2" cy="158.4" r="4.2" style="fill:none;stroke:#1d132d;stroke-linecap:round;stroke-linejoin:round;stroke-width:2px"/>
    <path d="M154.1,142.4a8.6,8.6,0,0,1-3.6,5.2" style="fill:none;stroke:#1d132d;stroke-linecap:round;stroke-linejoin:round;stroke-width:2px"/>
    <path d="M147.2,139a9.3,9.3,0,0,1-2,6.3" style="fill:none;stroke:#1d132d;stroke-linecap:round;stroke-linejoin:round;stroke-width:2px"/>
    <path d="M140.6,137.4a9.3,9.3,0,0,1-.9,6.5" style="fill:none;stroke:#1d132d;stroke-linecap:round;stroke-linejoin:round;stroke-width:2px"/>
    <circle cx="168.2" cy="159.4" r="0.7" style="fill:#fff"/>
  </g>
  <g>
    <title>atribute05</title>
    <path d="M70.1,66.9s0.6-2.1.2-1.9c-21.7,13.2-46,35.4-46,35.4S46,111,66,105.1l0.2-1.5C64.3,91.5,65.3,78.1,70.1,66.9Z" style="fill:#dce3ea"/>
    <path d="M65.4,87.4l-0.9,1.5c-1.8,2.7-6.1,7.4-9.7,4.7a4.9,4.9,0,0,1-1.6-4.7c-4.9,2.5-10.2,3.9-15.4,5.9s-7.7,4.1-11.7,5.2l-1.3.7c3.3,1.5,22.9,9.8,41.2,4.4l0.2-1.5A75.5,75.5,0,0,1,65.4,87.4Z" style="fill:#180621;opacity:0.15"/>
    <path d="M65.4,87.4l-0.9,1.5c-1.8,2.7-6.1,7.4-9.7,4.7a4.9,4.9,0,0,1-1.6-4.7c-4.9,2.5-10.2,3.9-15.4,5.9a44.7,44.7,0,0,0-4.2,2,41.3,41.3,0,0,1,19.8,1.8,24.9,24.9,0,0,1,10.2,7.1l2.4-.6,0.2-1.5A75.5,75.5,0,0,1,65.4,87.4Z" style="fill:#180621;opacity:0.15"/>
    <path d="M70.3,65c-19.5,11.8-46,35.4-46,35.4s19,10.4,41.7,4.7" style="fill:none;stroke:#1d132d;stroke-linecap:round;stroke-linejoin:round;stroke-width:2px"/>
    <path d="M65.3,89c-1.7,2.5-5.2,6.6-8.6,6.4s-5-4.9-3.6-7.9,5.6-6,7.3-3.4-1,5.9-3.4,6.4" style="fill:none;stroke:#1d132d;stroke-linecap:round;stroke-linejoin:round;stroke-width:2px"/>
    <line x1="25.1" y1="100.5" x2="51.9" y2="90.1" style="fill:none;stroke:#1d132d;stroke-linecap:round;stroke-linejoin:round;stroke-width:2px"/>
    <path d="M170,66.9s-0.6-2.1-.2-1.9c21.7,13.2,46,35.4,46,35.4s-21.7,10.5-41.7,4.7l-0.2-1.5C175.9,91.5,174.9,78.1,170,66.9Z" style="fill:#dce3ea"/>
    <path d="M174.7,87.4l0.9,1.5c1.8,2.7,6.1,7.4,9.7,4.7a4.9,4.9,0,0,0,1.6-4.7c4.9,2.5,10.2,3.9,15.4,5.9s7.7,4.1,11.7,5.2l1.3,0.7c-3.3,1.5-22.9,9.8-41.2,4.4l-0.2-1.5A75.5,75.5,0,0,0,174.7,87.4Z" style="fill:#180621;opacity:0.15"/>
    <path d="M174.7,87.4l0.9,1.5c1.8,2.7,6.1,7.4,9.7,4.7a4.9,4.9,0,0,0,1.6-4.7c4.9,2.5,10.2,3.9,15.4,5.9a44.7,44.7,0,0,1,4.2,2,41.3,41.3,0,0,0-19.8,1.8,24.9,24.9,0,0,0-10.2,7.1l-2.4-.6-0.2-1.5A75.5,75.5,0,0,0,174.7,87.4Z" style="fill:#180621;opacity:0.15"/>
    <path d="M169.8,65c19.5,11.8,46,35.4,46,35.4s-19,10.4-41.7,4.7" style="fill:none;stroke:#1d132d;stroke-linecap:round;stroke-linejoin:round;stroke-width:2px"/>
    <path d="M174.8,89c1.7,2.5,5.2,6.6,8.6,6.4s5-4.9,3.6-7.9-5.6-6-7.3-3.4,1,5.9,3.4,6.4" style="fill:none;stroke:#1d132d;stroke-linecap:round;stroke-linejoin:round;stroke-width:2px"/>
    <line x1="215.1" y1="100.5" x2="188.2" y2="90.1" style="fill:none;stroke:#1d132d;stroke-linecap:round;stroke-linejoin:round;stroke-width:2px"/>
  </g>
  <g>
    <title>02</title>
    <path d="M131.3,34.4a76.8,76.8,0,0,0-11.1-.9,84.7,84.7,0,0,0-11.6.9C82.9,39,65.3,60.5,65.3,88.1c0,15.4,3.2,29.6,12.1,37.2s18.2,10.8,39.5,11.1h-7.7c-7,6.6-11.8,18.9-11.8,29.9,0,16,10.1,19.5,22.6,19.5s22.6-3.4,22.6-19.5c0-11.1-4.9-23.5-12-30.1h-5.2c19.6-.5,28.4-3.6,37.2-11.1s12.1-21.8,12.1-37.2C174.7,60.5,157.1,39,131.3,34.4Z" style="fill:#f557c7"/>
    <path d="M131.3,34.4a76.8,76.8,0,0,0-11.1-.9,84.7,84.7,0,0,0-11.6.9C82.9,39,65.3,60.5,65.3,88.1c0,15.4,3.2,29.6,12.1,37.2s18.2,10.8,39.5,11.1h-7.7c-7,6.6-11.8,18.9-11.8,29.9,0,16,10.1,19.5,22.6,19.5s22.6-3.4,22.6-19.5c0-11.1-4.9-23.5-12-30.1h-5.2c19.6-.5,28.4-3.6,37.2-11.1s12.1-21.8,12.1-37.2C174.7,60.5,157.1,39,131.3,34.4Z" style="fill:#f557c7"/>
    <path d="M131.3,34.4a76.8,76.8,0,0,0-11.1-.9,84.7,84.7,0,0,0-11.6.9C82.9,39,65.3,60.5,65.3,88.1c0,15.4,3.2,29.6,12.1,37.2s18.2,10.8,39.5,11.1h-7.7c-7,6.6-11.8,18.9-11.8,29.9,0,16,10.1,19.5,22.6,19.5s22.6-3.4,22.6-19.5c0-11.1-4.9-23.5-12-30.1h-5.2c19.6-.5,28.4-3.6,37.2-11.1s12.1-21.8,12.1-37.2C174.7,60.5,157.1,39,131.3,34.4Z" style="fill:#f557c7"/>
    <path d="M131.3,34.4a76.8,76.8,0,0,0-11.1-.9,84.7,84.7,0,0,0-11.6.9C82.9,39,65.3,60.5,65.3,88.1c0,15.4,3.2,29.6,12.1,37.2s18.2,10.8,39.5,11.1h-7.7c-7,6.6-11.8,18.9-11.8,29.9,0,16,10.1,19.5,22.6,19.5s22.6-3.4,22.6-19.5c0-11.1-4.9-23.5-12-30.1h-5.2c19.6-.5,28.4-3.6,37.2-11.1s12.1-21.8,12.1-37.2C174.7,60.5,157.1,39,131.3,34.4Z" style="fill:#f557c7"/>
    <path d="M131.3,34.4a76.8,76.8,0,0,0-11.1-.9,84.7,84.7,0,0,0-11.6.9C82.9,39,65.3,60.5,65.3,88.1c0,15.4,3.2,29.6,12.1,37.2s18.2,10.8,39.5,11.1h-7.7c-7,6.6-11.8,18.9-11.8,29.9,0,16,10.1,19.5,22.6,19.5s22.6-3.4,22.6-19.5c0-11.1-4.9-23.5-12-30.1h-5.2c19.6-.5,28.4-3.6,37.2-11.1s12.1-21.8,12.1-37.2C174.7,60.5,157.1,39,131.3,34.4Z" style="fill:#f557c7"/>
    <path d="M131.3,34.4a76.8,76.8,0,0,0-11.1-.9,84.7,84.7,0,0,0-11.6.9C82.9,39,65.3,60.5,65.3,88.1c0,15.4,3.2,29.6,12.1,37.2s18.2,10.8,39.5,11.1h-7.7c-7,6.6-11.8,18.9-11.8,29.9,0,16,10.1,19.5,22.6,19.5s22.6-3.4,22.6-19.5c0-11.1-4.9-23.5-12-30.1h-5.2c19.6-.5,28.4-3.6,37.2-11.1s12.1-21.8,12.1-37.2C174.7,60.5,157.1,39,131.3,34.4Z" style="fill:#f557c7"/>
    <path d="M131.3,34.4a76.8,76.8,0,0,0-11.1-.9,84.7,84.7,0,0,0-11.6.9C82.9,39,65.3,60.5,65.3,88.1c0,15.4,3.2,29.6,12.1,37.2s18.2,10.8,39.5,11.1h-7.7c-7,6.6-11.8,18.9-11.8,29.9,0,16,10.1,19.5,22.6,19.5s22.6-3.4,22.6-19.5c0-11.1-4.9-23.5-12-30.1h-5.2c19.6-.5,28.4-3.6,37.2-11.1s12.1-21.8,12.1-37.2C174.7,60.5,157.1,39,131.3,34.4Z" style="fill:#f557c7"/>
    <path d="M131.3,34.4a76.8,76.8,0,0,0-11.1-.9,84.7,84.7,0,0,0-11.6.9C82.9,39,65.3,60.5,65.3,88.1c0,15.4,3.2,29.6,12.1,37.2s18.2,10.8,39.5,11.1h-7.7c-7,6.6-11.8,18.9-11.8,29.9,0,16,10.1,19.5,22.6,19.5s22.6-3.4,22.6-19.5c0-11.1-4.9-23.5-12-30.1h-5.2c19.6-.5,28.4-3.6,37.2-11.1s12.1-21.8,12.1-37.2C174.7,60.5,157.1,39,131.3,34.4Z" style="fill:#f557c7"/>
    <path d="M125.4,136.4c19.6-.5,28.4-3.6,37.2-11.1s12.1-21.8,12.1-37.2c0-27.7-17.6-49.2-43.4-53.7a76.8,76.8,0,0,0-11.1-.9,84.7,84.7,0,0,0-11.6.9C82.9,39,65.3,60.5,65.3,88.1c0,15.4,3.2,29.6,12.1,37.2s18.2,10.8,39.5,11.1Z" style="fill:none;stroke:#1d132d;stroke-miterlimit:10;stroke-width:2px"/>
    <path d="M109.2,136.5c-7,6.6-11.8,18.9-11.8,29.9,0,16,10.1,19.5,22.6,19.5s22.6-3.4,22.6-19.5c0-11.1-4.9-23.5-12-30.1" style="fill:none;stroke:#1d132d;stroke-miterlimit:10;stroke-width:2px"/>
    <path d="M130.9,136.7c-3.4.7-18,.5-21.3-.1h-.4c-7,6.6-11.8,18.9-11.8,29.9,0,16,10.1,19.5,22.6,19.5s22.6-3.4,22.6-19.5C142.6,155.5,137.8,143.3,130.9,136.7Z" style="fill:#f557c7"/>
    <path d="M130.5,136.2c-3.1.3-6.1.6-9.4.6a111.1,111.1,0,0,1-12.3-.4L102,146a41,41,0,0,0,17.6,3.6,40.7,40.7,0,0,0,17.8-3.7C137.2,145.6,130.9,136.7,130.5,136.2Z" style="fill:#180621;opacity:0.15"/>
    <path d="M109.5,136.3l-.6.5c-6.9,6.7-11.5,18.8-11.5,29.6,0,16,10.1,19.5,22.6,19.5s22.6-3.4,22.6-19.5c0-11-4.8-23.3-11.8-29.9l-.2-.2" style="fill:none;stroke:#1d132d;stroke-linecap:round;stroke-linejoin:round;stroke-width:2px"/>
    <path d="M141.4,157H129.3a10.9,10.9,0,0,0-18.6,0H98.5a43.9,43.9,0,0,0-1.1,9.6q0,.9,0,1.8h13.2a10.9,10.9,0,0,0,18.7,0h13.2q0-.8,0-1.6A40.7,40.7,0,0,0,141.4,157ZM120,168.2a5.6,5.6,0,1,1,5.6-5.6A5.6,5.6,0,0,1,120,168.2Z" style="fill:#dce3ea"/>
    <path d="M141.4,157H129.3a10.9,10.9,0,0,0-18.6,0H98.5a43.9,43.9,0,0,0-1.1,9.6q0,.9,0,1.8h13.2a10.9,10.9,0,0,0,18.7,0h13.2q0-.8,0-1.6A40.7,40.7,0,0,0,141.4,157Z" style="fill:none;stroke:#1d132d;stroke-linecap:round;stroke-linejoin:round;stroke-width:2px"/>
    <circle cx="120" cy="162.6" r="5.6" style="fill:#36c8e3"/>
    <g style="opacity:0.5">
      <path d="M121.1,161.5a3.9,3.9,0,0,0,2.7-3.1,5.6,5.6,0,0,0-7.7,0v.4A3.9,3.9,0,0,0,121.1,161.5Z" style="fill:#fff"/>
    </g>
    <circle cx="120" cy="162.6" r="5.6" style="fill:none;stroke:#1d132d;stroke-linecap:round;stroke-linejoin:round;stroke-width:2px"/>
    <path d="M124.8,159.7a4.9,4.9,0,1,1-9.7,0,5.6,5.6,0,1,0,9.7,0Z" style="fill:#180621;opacity:0.15"/>
    <g style="opacity:0.30000000000000004">
      <path d="M108.7,44.1a84.7,84.7,0,0,1,11.6-.9,76.8,76.8,0,0,1,11.1.9c24.4,4.3,41.5,23.9,43.2,49.5q.1-2.7.1-5.5c0-27.7-17.6-49.2-43.4-53.7a76.8,76.8,0,0,0-11.1-.9,84.7,84.7,0,0,0-11.6.9C82.9,39,65.3,60.5,65.3,88.1q0,2.8.1,5.5C67.1,68,84.3,48.4,108.7,44.1Z" style="fill:#fff"/>
    </g>
    <path d="M125.4,136.4c19.6-.5,28.4-3.6,37.2-11.1s12.1-21.8,12.1-37.2c0-27.7-17.6-49.2-43.4-53.7a76.8,76.8,0,0,0-11.1-.9,84.7,84.7,0,0,0-11.6.9C82.9,39,65.3,60.5,65.3,88.1c0,15.4,3.2,29.6,12.1,37.2s18.2,10.8,39.5,11.1Z" style="fill:none;stroke:#1d132d;stroke-miterlimit:10;stroke-width:2px"/>
    <path d="M109.2,136.5c-7,6.6-11.8,18.9-11.8,29.9,0,16,10.1,19.5,22.6,19.5s22.6-3.4,22.6-19.5c0-11.1-4.9-23.5-12-30.1" style="fill:none;stroke:#1d132d;stroke-miterlimit:10;stroke-width:2px"/>
    <g style="opacity:0.30000000000000004">
      <path d="M108.7,44.1a84.7,84.7,0,0,1,11.6-.9,76.8,76.8,0,0,1,11.1.9c24.4,4.3,41.5,23.9,43.2,49.5q.1-2.7.1-5.5c0-27.7-17.6-49.2-43.4-53.7a76.8,76.8,0,0,0-11.1-.9,84.7,84.7,0,0,0-11.6.9C82.9,39,65.3,60.5,65.3,88.1q0,2.8.1,5.5C67.1,68,84.3,48.4,108.7,44.1Z" style="fill:#fff"/>
    </g>
    <path d="M125.4,136.4c19.6-.5,28.4-3.6,37.2-11.1s12.1-21.8,12.1-37.2c0-27.7-17.6-49.2-43.4-53.7a76.8,76.8,0,0,0-11.1-.9,84.7,84.7,0,0,0-11.6.9C82.9,39,65.3,60.5,65.3,88.1c0,15.4,3.2,29.6,12.1,37.2s18.2,10.8,39.5,11.1Z" style="fill:none;stroke:#1d132d;stroke-miterlimit:10;stroke-width:2px"/>
  </g>
  <g>
    <title>04</title>
    <g style="isolation:isolate">
      <path d="M120.2,136.4c26.6,0,36.1-3.6,44.2-9.9l1.7-1.5c11-10.8,8.2-26.2,8.2-26.2l-12.7,15-12.4-9.3-14.6,13.3-14.5-11.3h-.2l-14.5,11.3L90.8,104.5l-12.4,9.3-12.7-15S63,114.3,74,125l1.7,1.5c8.1,6.3,17.6,10.1,44.2,10.1" style="fill:#dce3ea"/>
      <path d="M65.8,103.5l12.7,15,12.4-9.3,14.6,13.3,14.5-11.3h.2l14.5,11.3,14.6-13.3,12.4,9.3,12.7-15s.1.8.2,2.2a31.3,31.3,0,0,0-.2-6.9l-12.7,15-12.4-9.3-14.6,13.3-14.5-11.3h-.2l-14.5,11.3L90.8,104.5l-12.4,9.3-12.7-15a31.3,31.3,0,0,0-.2,6.9C65.7,104.3,65.8,103.5,65.8,103.5Z" style="fill:#fff;opacity:0.5"/>
      <path d="M166.1,119.1l-1.7,1.5c-8.1,6.3-17.6,9.4-44.2,9.4h-.4c-26.6,0-36.1-3.1-44.2-9.4L74,119.1a29.2,29.2,0,0,1-8.4-18.7c-.4,4.2-.5,15.9,8.4,24.6l1.7,1.5c8.1,6.3,17.6,9.4,44.2,9.4h.4c26.6,0,36.1-3.1,44.2-9.4l1.7-1.5c8.9-8.7,8.7-20.4,8.4-24.6A29.2,29.2,0,0,1,166.1,119.1Z" style="fill:#180621;opacity:0.15;mix-blend-mode:multiply"/>
      <path d="M120.2,136.6c26.6,0,36.1-4,44.2-10.3l1.7-1.4c11-10.7,8.2-26,8.2-26l-12.7,14.9-12.4-9.3-14.6,13.2-14.5-11.2h-.2l-14.5,11.2L90.8,104.4l-12.4,9.3L65.8,98.8s-2.8,15.4,8.2,26l1.7,1.4c8.1,6.3,17.6,10.3,44.2,10.3" style="fill:none;stroke:#1d132d;stroke-linecap:round;stroke-linejoin:round;stroke-width:2px"/>
    </g>
  </g>
  <g>
    <title>01</title>
    <path d="M120.4,68.1c6.1,0,10.2-1.3,17.9-3.4,6-1.6,12.1-1.1,14.6-.2A16.5,16.5,0,0,1,164,80.2V91.8l-14.5,8.8A82.6,82.6,0,0,0,120.4,95h0a82.6,82.6,0,0,0-29.1,5.6L76.7,91.8V80.2A16.5,16.5,0,0,1,87.8,64.6c2.6-.9,8.7-1.4,14.6.2,7.7,2.1,11.8,3.4,17.9,3.4" style="fill:#dce3ea"/>
    <path d="M120.4,68.1c6.1,0,10.2-1.3,17.9-3.4,6-1.6,12.1-1.1,14.6-.2A16.5,16.5,0,0,1,164,80.2V91.8l-14.5,8.8A82.6,82.6,0,0,0,120.4,95h0a82.6,82.6,0,0,0-29.1,5.6L76.7,91.8V80.2A16.5,16.5,0,0,1,87.8,64.6c2.6-.9,8.7-1.4,14.6.2,7.7,2.1,11.8,3.4,17.9,3.4" style="fill:#dce3ea"/>
    <path d="M120.4,68.1c6.1,0,10.2-1.3,17.9-3.4,6-1.6,12.1-1.1,14.6-.2A16.5,16.5,0,0,1,164,80.2V91.8l-14.5,8.8A82.6,82.6,0,0,0,120.4,95h0a82.6,82.6,0,0,0-29.1,5.6L76.7,91.8V80.2A16.5,16.5,0,0,1,87.8,64.6c2.6-.9,8.7-1.4,14.6.2,7.7,2.1,11.8,3.4,17.9,3.4" style="fill:#2e4159"/>
    <path d="M120.4,91.1h0a82.6,82.6,0,0,0-29.1,5.6L76.7,87.9v3.8l14.5,8.8A82.6,82.6,0,0,1,120.3,95h0a82.6,82.6,0,0,1,29.1,5.6L164,91.8V87.9l-14.5,8.8A82.6,82.6,0,0,0,120.4,91.1Z" style="fill:#180621;opacity:0.15"/>
    <path d="M76.9,91A16.5,16.5,0,0,1,88,75.4c2.6-.9,8.7-1.4,14.6.2,7.7,2.1,11.8,3.4,17.9,3.4h0c6.1,0,10.2-1.3,17.9-3.4,6-1.6,12.1-1.1,14.6-.2A16.5,16.5,0,0,1,164,88.7V80.2a16.5,16.5,0,0,0-11.1-15.6c-2.6-.9-8.7-1.4-14.6.2-7.7,2.1-11.8,3.4-17.9,3.4h0c-6.1,0-10.2-1.3-17.9-3.4-6-1.6-12.1-1.1-14.6-.2A16.5,16.5,0,0,0,76.7,80.2V91.8h0.2V91Z" style="fill:#fff;opacity:0.2"/>
    <circle cx="94.8" cy="81.4" r="10.7" style="fill:none;stroke:#1d132d;stroke-linecap:round;stroke-linejoin:round;stroke-width:2px"/>
    <circle cx="145.9" cy="81.4" r="10.7" style="fill:none;stroke:#1d132d;stroke-linecap:round;stroke-linejoin:round;stroke-width:2px"/>
    <circle cx="94.8" cy="81.4" r="10.7" style="fill:#e83a27;stroke:#1d132d;stroke-linecap:round;stroke-linejoin:round;stroke-width:2px"/>
    <circle cx="145.9" cy="81.4" r="10.7" style="fill:#e83a27;stroke:#1d132d;stroke-linecap:round;stroke-linejoin:round;stroke-width:2px"/>
    <path d="M95,76.1a10.7,10.7,0,0,1,10.4,8,10.7,10.7,0,1,0-20.7,0A10.7,10.7,0,0,1,95,76.1Z" style="fill:#fff;opacity:0.5"/>
    <path d="M145.9,76.1a10.7,10.7,0,0,1,10.4,8,10.7,10.7,0,1,0-20.7,0A10.7,10.7,0,0,1,145.9,76.1Z" style="fill:#fff;opacity:0.5"/>
    <circle cx="145.9" cy="81.4" r="10.7" style="fill:none;stroke:#1d132d;stroke-linecap:round;stroke-linejoin:round;stroke-width:2px"/>
    <polyline points="129.9 67.4 129.2 72.9 120.5 77.5 120.2 77.5 111.4 72.9 110.8 67.4" style="fill:#dce3ea"/>
    <path d="M111.1,70.1l0.3,2.8,8.7,4.6h0.3l8.7-4.6,0.3-2.9A21.9,21.9,0,0,1,111.1,70.1Z" style="fill:#180621;opacity:0.15"/>
    <path d="M120.4,68.1c6.1,0,10.2-1.3,17.9-3.4,6-1.6,12.1-1.1,14.6-.2A16.5,16.5,0,0,1,164,80.2V91.8l-14.5,8.8A82.6,82.6,0,0,0,120.4,95h0a82.6,82.6,0,0,0-29.1,5.6L76.7,91.8V80.2A16.5,16.5,0,0,1,87.8,64.6c2.6-.9,8.7-1.4,14.6.2,7.7,2.1,11.8,3.4,17.9,3.4" style="fill:none;stroke:#1d132d;stroke-linecap:round;stroke-linejoin:round;stroke-width:2px"/>
    <polyline points="129.9 67.4 129.2 72.9 120.5 77.5 120.2 77.5 111.4 72.9 110.8 67.4" style="fill:none;stroke:#1d132d;stroke-linecap:round;stroke-linejoin:round;stroke-width:2px"/>
    <circle cx="94.8" cy="81.4" r="10.7" style="fill:none;stroke:#1d132d;stroke-linecap:round;stroke-linejoin:round;stroke-width:2px"/>
  </g>
  <g>
    <title>06</title>
    <polygon points="111.8 33.6 120 11.8 128.2 33.6 119.9 40 111.8 33.6" style="fill:none;stroke:#1d132d;stroke-linecap:round;stroke-linejoin:round;stroke-width:2px"/>
    <polygon points="111.8 33.6 120 11.8 128.2 33.6 119.9 40 111.8 33.6" style="fill:#dce3ea;stroke:#1d132d;stroke-linecap:round;stroke-linejoin:round;stroke-width:2px"/>
    <polygon points="119.9 32.7 113.9 28 111.8 33.6 119.9 40 128.2 33.6 126.1 27.9 119.9 32.7" style="fill:#180621;opacity:0.15"/>
  </g>
</svg>