<svg xmlns="http://www.w3.org/2000/svg" xmlns:xlink="http://www.w3.org/1999/xlink" viewBox="0 0 240 240">
  <ellipse cx="120.5" cy="233.4" rx="43.7" ry="4.9" style="fill:#180621;opacity:0.15"/>
  <g>
    <title>05</title>
    <path d="M98.8,221.4c-.9-12.3-.7-49.2-.7-49.2l18,8.2.2,52.7s-11.9,1.5-17.4-11.7Z" style="fill:#dce3ea"/>
    <path d="M97.7,196.8c4.1,0,7.9,3.4,7.9,7.5s-4,7.2-7.8,7.5" style="fill:#2e4159"/>
    <g style="opacity:0.5">
      <path d="M97.3,196.8l.3,6.9h.7a5.6,5.6,0,0,0,5.2-3.5A7.4,7.4,0,0,0,97.3,196.8Z" style="fill:#fff"/>
    </g>
    <path d="M115.9,232.6c.1.5-7.1,2.5-14.2,2.4a53.2,53.2,0,0,1-13.7-2.4,16.5,16.5,0,0,1,3.9-8.8c3.3-3.9,12.4-3.6,12.4-3.6S113,222.3,115.9,232.6Z" style="fill:#2e4159"/>
    <polyline points="98.2 219.8 98 172.2 116 180.4 116 232.5" style="fill:none;stroke:#1d132d;stroke-linecap:round;stroke-linejoin:round;stroke-width:2px"/>
    <path d="M98.4,196.8a7.4,7.4,0,0,1,.6,14.8" style="fill:none;stroke:#1d132d;stroke-linecap:round;stroke-linejoin:round;stroke-width:2px"/>
    <path d="M98,172.2s-.6,4.9-.8,12.9c3.6,3.9,12.5,7,18.8,6.7V180.4Z" style="fill:#180621;opacity:0.15"/>
    <ellipse cx="99" cy="222.7" rx="4.7" ry="3" style="fill:#fff;opacity:0.5"/>
    <line x1="106" y1="204.3" x2="115.6" y2="204.2" style="fill:none;stroke:#1d132d;stroke-linecap:round;stroke-linejoin:round;stroke-width:2px"/>
    <path d="M116,232.9a14.4,14.4,0,0,0-28.4-1.6,1.9,1.9,0,0,0,1.3,2.2,44.7,44.7,0,0,0,12.6,1.4C111,234.9,116,232.9,116,232.9Z" style="fill:none;stroke:#1d132d;stroke-linecap:round;stroke-linejoin:round;stroke-width:2px"/>
    <path d="M141.3,221.4c.9-12.3.8-49.2.8-49.2l-18,8.2-.2,52.7s11.9,1.5,17.4-11.7Z" style="fill:#dce3ea"/>
    <path d="M142.4,196.8c-4.1,0-7.9,3.4-7.9,7.5s4,7.2,7.8,7.5" style="fill:#2e4159"/>
    <g style="opacity:0.5">
      <path d="M142.8,196.8l-.3,6.9h-.7a5.6,5.6,0,0,1-5.2-3.5A7.4,7.4,0,0,1,142.8,196.8Z" style="fill:#fff"/>
    </g>
    <path d="M124.1,232.6c-.1.5,7.1,2.5,14.2,2.4a53.2,53.2,0,0,0,13.7-2.4,16.5,16.5,0,0,0-3.9-8.8c-3.3-3.9-12.4-3.6-12.4-3.6S127.1,222.3,124.1,232.6Z" style="fill:#2e4159"/>
    <polyline points="141.9 219.8 142.1 172.2 124.1 180.4 124.1 232.5" style="fill:none;stroke:#1d132d;stroke-linecap:round;stroke-linejoin:round;stroke-width:2px"/>
    <path d="M141.7,196.8a7.4,7.4,0,0,0-.6,14.8" style="fill:none;stroke:#1d132d;stroke-linecap:round;stroke-linejoin:round;stroke-width:2px"/>
    <path d="M142.1,172.2s.6,4.9.8,12.9c-3.6,3.9-12.5,7-18.8,6.7V180.4Z" style="fill:#180621;opacity:0.15"/>
    <ellipse cx="141" cy="222.7" rx="4.7" ry="3" style="fill:#fff;opacity:0.5"/>
    <line x1="134.1" y1="204.3" x2="124.5" y2="204.2" style="fill:none;stroke:#1d132d;stroke-linecap:round;stroke-linejoin:round;stroke-width:2px"/>
    <path d="M124.1,232.9a14.4,14.4,0,0,1,28.4-1.6,1.9,1.9,0,0,1-1.3,2.2,44.7,44.7,0,0,1-12.6,1.4C129.1,234.9,124.1,232.9,124.1,232.9Z" style="fill:none;stroke:#1d132d;stroke-linecap:round;stroke-linejoin:round;stroke-width:2px"/>
    <path d="M101.5,230.2a44.7,44.7,0,0,1-12.6-1.4l-.4-.2a14.3,14.3,0,0,0-.9,2.7,1.9,1.9,0,0,0,1.3,2.2,44.7,44.7,0,0,0,12.6,1.4c9.5,0,14.5-2,14.5-2a14.3,14.3,0,0,0-1.2-4.4A48.8,48.8,0,0,1,101.5,230.2Z" style="fill:#180621;opacity:0.15"/>
    <path d="M138.1,230.2a44.7,44.7,0,0,1-12.6-1.4l-.4-.2a14.3,14.3,0,0,0-.9,2.7,1.9,1.9,0,0,0,1.3,2.2,44.7,44.7,0,0,0,12.6,1.4c9.5,0,14.5-2,14.5-2a14.3,14.3,0,0,0-1.2-4.4A48.8,48.8,0,0,1,138.1,230.2Z" style="fill:#180621;opacity:0.15"/>
  </g>
  <g>
    <title>16</title>
    <path d="M59.5,160.1c-4,1.7-11.6,7.1-11.6,7.1s-5.6-11.4,9.9-14" style="fill:#dce3ea"/>
    <path d="M77.1,172.7c-1.9,3.9-4.3,14.2-4.3,14.2s-11-4.7-2.5-16.1" style="fill:#dce3ea"/>
    <path d="M66.7,168.8c-3.2,2.9-9.2,11.5-9.2,11.5s-8.8-9.1,5.1-16.4" style="fill:#dce3ea"/>
    <path d="M53.6,163.5a50.5,50.5,0,0,1,5.9-3.3l-1.7-6.9a16.6,16.6,0,0,0-7.8,3.1A11.9,11.9,0,0,1,53.6,163.5Z" style="fill:#180621;opacity:0.15"/>
    <path d="M70.4,179.4l1.8,1.9a12.2,12.2,0,0,1,1.4,2.2,79,79,0,0,1,3.4-10.8l-6.8-1.9c-2.2,3-3.1,5.5-3.2,7.6A3.6,3.6,0,0,1,70.4,179.4Z" style="fill:#180621;opacity:0.15"/>
    <path d="M62.6,163.9a16.8,16.8,0,0,0-6.4,5.2c2.5,0.6,4.3,2.9,5.6,5.3a47.2,47.2,0,0,1,4.9-5.6Z" style="fill:#180621;opacity:0.15"/>
    <path d="M87.3,153.9c-0.7,6-4.4,13.1-8.9,17.6H78.3c-2.3,2.3-8.4-.2-13.7-5.6s-7.8-11.5-5.5-13.8h0.1c4.5-4.5,11.6-8.2,17.6-8.8,0,0,6.3,2.3,7.6,3.6S87.3,153.9,87.3,153.9Z" style="fill:#2e4159"/>
    <path d="M87.3,153.9c-0.7,6-4.4,13.1-8.9,17.6H78.3c-2.3,2.3-8.4-.2-13.7-5.6s-7.8-11.5-5.5-13.8h0.1c4.5-4.5,11.6-8.2,17.6-8.8,0,0,6.3,2.3,7.6,3.6S87.3,153.9,87.3,153.9Z" style="fill:#2e4159"/>
    <path d="M86.2,150.2c1.2,2,1.5,3.8.6,4.7s-4.8-.1-7.9-3.2-4.4-6.6-3.1-7.9,3.1-.4,5.4,1.1" style="fill:#180621;opacity:0.15"/>
    <path d="M105.5,136.9c-10.7.2-18.2,3-26,9.8H79.4a13.3,13.3,0,0,0,2.9,3.4,9.9,9.9,0,0,0,2.3,1.1,29.7,29.7,0,0,1,18.9-7.6l2.4-3.7,2.3-3.2h-2.6Z" style="fill:#dce3ea"/>
    <path d="M105.5,136.9a50.1,50.1,0,0,0-6.4.5c-0.3,3.5-3,5.9-6.4,7.2s-7.4,2.7-10.8.1l-2.1,1.8,0.6,0.7a7,7,0,0,0,2.5,2.5,10.4,10.4,0,0,0,2.8.8,29.4,29.4,0,0,1,17.9-6.7l2.4-3.7,2.3-3.2h-2.6Z" style="fill:#180621;opacity:0.15"/>
    <path d="M86.2,154.5H84.9a29.9,29.9,0,0,1-1.7,3.7,10.2,10.2,0,0,1-16.6,1.8l-0.2-.2c-3-3.5-5.2-6.8-5.5-9.4l-1.8,1.6H59.1c-2.3,2.3.2,8.4,5.5,13.8s11.5,7.8,13.7,5.6h0.1c4.5-4.5,8.2-11.5,8.9-17.5Z" style="fill:#180621;opacity:0.15"/>
    <path d="M80.3,146.1c7.5-6.4,14.9-9,25.2-9.2h2.6l-2.2,3.2-2.4,3.7a29.5,29.5,0,0,0-18.4,7.1" style="fill:none;stroke:#1d132d;stroke-linecap:round;stroke-linejoin:round;stroke-width:2px"/>
    <path d="M78.3,171.6c-2.3,2.3-8.4-.2-13.7-5.6s-7.8-11.5-5.5-13.8h0.1" style="fill:none;stroke:#1d132d;stroke-linecap:round;stroke-linejoin:round;stroke-width:2px"/>
    <path d="M86.2,150.2c1.2,2,1.5,3.8.6,4.7s-4.8-.1-7.9-3.2-4.4-6.6-3.1-7.9,3.1-.4,5.4,1.1" style="fill:none;stroke:#1d132d;stroke-linecap:round;stroke-linejoin:round;stroke-width:2px"/>
    <path d="M85,151c-0.6.6-2.1-.1-3.4-1.4s-1.9-2.8-1.4-3.4" style="fill:none;stroke:#1d132d;stroke-linecap:round;stroke-linejoin:round;stroke-width:2px"/>
    <path d="M59.2,152.1c4.5-4.5,11.6-8.2,17.6-8.8" style="fill:none;stroke:#1d132d;stroke-linecap:round;stroke-linejoin:round;stroke-width:2px"/>
    <path d="M78.4,171.5c4.5-4.5,8.2-11.6,8.9-17.6" style="fill:none;stroke:#1d132d;stroke-linecap:round;stroke-linejoin:round;stroke-width:2px"/>
    <path d="M59.5,160.1c-4,1.7-11.6,7.1-11.6,7.1s-5.6-11.4,9.9-14" style="fill:none;stroke:#1d132d;stroke-linecap:round;stroke-linejoin:round;stroke-width:2px"/>
    <path d="M77.1,172.7c-1.9,3.9-4.3,14.2-4.3,14.2s-11-4.7-2.5-16.1" style="fill:none;stroke:#1d132d;stroke-linecap:round;stroke-linejoin:round;stroke-width:2px"/>
    <path d="M66.7,168.8c-3.2,2.9-9.2,11.5-9.2,11.5s-8.8-9.1,5.1-16.4" style="fill:none;stroke:#1d132d;stroke-linecap:round;stroke-linejoin:round;stroke-width:2px"/>
    <circle cx="71.8" cy="158.4" r="4.2" style="fill:#dce3ea"/>
    <path d="M70.2,154.9l-0.7.3a2.3,2.3,0,1,0,4.6.2C72.8,155,71.4,154.4,70.2,154.9Z" style="fill:#fff;opacity:0.6"/>
    <circle cx="71.8" cy="158.4" r="4.2" style="fill:none;stroke:#1d132d;stroke-linecap:round;stroke-linejoin:round;stroke-width:2px"/>
    <path d="M85.8,142.4a8.6,8.6,0,0,0,3.6,5.2" style="fill:none;stroke:#1d132d;stroke-linecap:round;stroke-linejoin:round;stroke-width:2px"/>
    <path d="M92.7,139a9.3,9.3,0,0,0,2,6.3" style="fill:none;stroke:#1d132d;stroke-linecap:round;stroke-linejoin:round;stroke-width:2px"/>
    <path d="M99.4,137.4a9.3,9.3,0,0,0,.9,6.5" style="fill:none;stroke:#1d132d;stroke-linecap:round;stroke-linejoin:round;stroke-width:2px"/>
    <circle cx="71.7" cy="159.4" r="0.7" style="fill:#fff"/>
    <path d="M180.4,160.1c4,1.7,11.6,7.1,11.6,7.1s5.6-11.4-9.9-14" style="fill:#dce3ea"/>
    <path d="M162.8,172.7c1.9,3.9,4.3,14.2,4.3,14.2s11-4.7,2.5-16.1" style="fill:#dce3ea"/>
    <path d="M173.2,168.8c3.2,2.9,9.2,11.5,9.2,11.5s8.8-9.1-5.1-16.4" style="fill:#dce3ea"/>
    <path d="M186.3,163.5a50.5,50.5,0,0,0-5.9-3.3l1.7-6.9a16.6,16.6,0,0,1,7.8,3.1A11.9,11.9,0,0,0,186.3,163.5Z" style="fill:#180621;opacity:0.15"/>
    <path d="M169.5,179.4l-1.8,1.9a12.2,12.2,0,0,0-1.4,2.2,79,79,0,0,0-3.4-10.8l6.8-1.9c2.2,3,3.1,5.5,3.2,7.6A3.6,3.6,0,0,0,169.5,179.4Z" style="fill:#180621;opacity:0.15"/>
    <path d="M177.3,163.9a16.8,16.8,0,0,1,6.4,5.2c-2.5.6-4.3,2.9-5.6,5.3a47.2,47.2,0,0,0-4.9-5.6Z" style="fill:#180621;opacity:0.15"/>
    <path d="M152.6,153.9c0.7,6,4.4,13.1,8.9,17.6h0.1c2.3,2.3,8.4-.2,13.7-5.6s7.8-11.5,5.5-13.8h-0.1c-4.5-4.5-11.6-8.2-17.6-8.8,0,0-6.3,2.3-7.6,3.6S152.6,153.9,152.6,153.9Z" style="fill:#2e4159"/>
    <path d="M152.6,153.9c0.7,6,4.4,13.1,8.9,17.6h0.1c2.3,2.3,8.4-.2,13.7-5.6s7.8-11.5,5.5-13.8h-0.1c-4.5-4.5-11.6-8.2-17.6-8.8,0,0-6.3,2.3-7.6,3.6S152.6,153.9,152.6,153.9Z" style="fill:#2e4159"/>
    <path d="M153.7,150.2c-1.2,2-1.5,3.8-.6,4.7s4.8-.1,7.9-3.2,4.4-6.6,3.1-7.9-3.1-.4-5.4,1.1" style="fill:#180621;opacity:0.15"/>
    <path d="M134.4,136.9c10.7,0.2,18.2,3,26,9.8h0.1a13.3,13.3,0,0,1-2.9,3.4,9.9,9.9,0,0,1-2.3,1.1,29.7,29.7,0,0,0-18.9-7.6l-2.4-3.7-2.2-3.2h2.6Z" style="fill:#dce3ea"/>
    <path d="M134.4,136.9a50.1,50.1,0,0,1,6.4.5c0.3,3.5,3,5.9,6.4,7.2s7.4,2.7,10.8.1l2.1,1.8-0.6.7a7,7,0,0,1-2.5,2.5,10.4,10.4,0,0,1-2.8.8,29.4,29.4,0,0,0-17.9-6.7l-2.4-3.7-2.2-3.2h2.6Z" style="fill:#180621;opacity:0.15"/>
    <path d="M153.8,154.5H155a29.9,29.9,0,0,0,1.7,3.7,10.2,10.2,0,0,0,16.6,1.8l0.2-.2c3-3.5,5.2-6.8,5.5-9.4l1.8,1.6h0.1c2.3,2.3-.2,8.4-5.5,13.8s-11.5,7.8-13.7,5.6h-0.1c-4.5-4.5-8.2-11.5-8.9-17.5Z" style="fill:#180621;opacity:0.15"/>
    <path d="M159.7,146.1c-7.5-6.4-14.9-9-25.2-9.2h-2.6l2.3,3.2,2.4,3.7a29.5,29.5,0,0,1,18.4,7.1" style="fill:none;stroke:#1d132d;stroke-linecap:round;stroke-linejoin:round;stroke-width:2px"/>
    <path d="M161.6,171.6c2.3,2.3,8.4-.2,13.7-5.6s7.8-11.5,5.5-13.8h-0.1" style="fill:none;stroke:#1d132d;stroke-linecap:round;stroke-linejoin:round;stroke-width:2px"/>
    <path d="M153.7,150.2c-1.2,2-1.5,3.8-.6,4.7s4.8-.1,7.9-3.2,4.4-6.6,3.1-7.9-3.1-.4-5.4,1.1" style="fill:none;stroke:#1d132d;stroke-linecap:round;stroke-linejoin:round;stroke-width:2px"/>
    <path d="M155,151c0.6,0.6,2.1-.1,3.4-1.4s1.9-2.8,1.4-3.4" style="fill:none;stroke:#1d132d;stroke-linecap:round;stroke-linejoin:round;stroke-width:2px"/>
    <path d="M180.8,152.1c-4.5-4.5-11.6-8.2-17.6-8.8" style="fill:none;stroke:#1d132d;stroke-linecap:round;stroke-linejoin:round;stroke-width:2px"/>
    <path d="M161.5,171.5c-4.5-4.5-8.2-11.6-8.9-17.6" style="fill:none;stroke:#1d132d;stroke-linecap:round;stroke-linejoin:round;stroke-width:2px"/>
    <path d="M180.4,160.1c4,1.7,11.6,7.1,11.6,7.1s5.6-11.4-9.9-14" style="fill:none;stroke:#1d132d;stroke-linecap:round;stroke-linejoin:round;stroke-width:2px"/>
    <path d="M162.8,172.7c1.9,3.9,4.3,14.2,4.3,14.2s11-4.7,2.5-16.1" style="fill:none;stroke:#1d132d;stroke-linecap:round;stroke-linejoin:round;stroke-width:2px"/>
    <path d="M173.2,168.8c3.2,2.9,9.2,11.5,9.2,11.5s8.8-9.1-5.1-16.4" style="fill:none;stroke:#1d132d;stroke-linecap:round;stroke-linejoin:round;stroke-width:2px"/>
    <circle cx="168.2" cy="158.4" r="4.2" style="fill:#dce3ea"/>
    <path d="M169.7,154.9l0.7,0.3a2.3,2.3,0,1,1-4.6.2C167.2,155,168.6,154.4,169.7,154.9Z" style="fill:#fff;opacity:0.6"/>
    <circle cx="168.2" cy="158.4" r="4.2" style="fill:none;stroke:#1d132d;stroke-linecap:round;stroke-linejoin:round;stroke-width:2px"/>
    <path d="M154.1,142.4a8.6,8.6,0,0,1-3.6,5.2" style="fill:none;stroke:#1d132d;stroke-linecap:round;stroke-linejoin:round;stroke-width:2px"/>
    <path d="M147.2,139a9.3,9.3,0,0,1-2,6.3" style="fill:none;stroke:#1d132d;stroke-linecap:round;stroke-linejoin:round;stroke-width:2px"/>
    <path d="M140.6,137.4a9.3,9.3,0,0,1-.9,6.5" style="fill:none;stroke:#1d132d;stroke-linecap:round;stroke-linejoin:round;stroke-width:2px"/>
    <circle cx="168.2" cy="159.4" r="0.7" style="fill:#fff"/>
  </g>
  <g>
    <title>01</title>
    <path d="M174.4,95.5l-1.6-19.7,22.3-33.5C199.2,87.8,174.4,95.5,174.4,95.5Z" style="fill:#2e4159"/>
    <path d="M193.7,83.6c-3.7,21.9-20.7,21-20.7,21l1.4-9.1,9.6-6.7Z" style="fill:#2e4159"/>
    <g style="opacity:0.5">
      <path d="M176.4,70.3c2.6,1.2,11.6,4.4,8,18.1-.7,2.7-7.3,5.6-9.7,7.4l-1.9-20Z" style="fill:#fff"/>
    </g>
    <g style="opacity:0.5">
      <path d="M179.6,88.3a18.9,18.9,0,0,0-5.7-14.1l2.6-3.9c2.6,1.2,11.6,4.4,8,18.1-.5,1.7-3.1,3.4-5.7,4.9A22.7,22.7,0,0,0,179.6,88.3Z" style="fill:#fff"/>
    </g>
    <path d="M172.8,75.8l22.3-33.5c4.2,45.6-20.7,53.3-20.7,53.3" style="fill:none;stroke:#1d132d;stroke-linecap:round;stroke-linejoin:round;stroke-width:2px"/>
    <path d="M184,88.8l9.7-5.2c-3.7,21.9-20.7,21-20.7,21" style="fill:none;stroke:#1d132d;stroke-linecap:round;stroke-linejoin:round;stroke-width:2px"/>
    <path d="M184.3,88.3c3.8-10.7-3.2-17.3-7.9-17.2" style="fill:none;stroke:#1d132d;stroke-linecap:round;stroke-linejoin:round;stroke-width:2px"/>
    <path d="M65.7,95.5l1.6-19.7L45,42.3C40.8,87.8,65.7,95.5,65.7,95.5Z" style="fill:#2e4159"/>
    <path d="M46.4,83.6c3.7,21.9,20.7,21,20.7,21l-1.4-9.1-9.6-6.7Z" style="fill:#2e4159"/>
    <g style="opacity:0.5">
      <path d="M63.6,70.3c-2.6,1.2-11.6,4.4-8,18.1.7,2.7,7.3,5.6,9.8,7.4l1.9-20Z" style="fill:#fff"/>
    </g>
    <g style="opacity:0.5">
      <path d="M60.5,88.3a18.9,18.9,0,0,1,5.7-14.1l-2.6-3.9c-2.6,1.2-11.6,4.4-8,18.1.5,1.7,3.1,3.4,5.7,4.9A22.7,22.7,0,0,1,60.5,88.3Z" style="fill:#fff"/>
    </g>
    <path d="M67.3,75.8,45,42.3C40.8,87.8,65.7,95.5,65.7,95.5" style="fill:none;stroke:#1d132d;stroke-linecap:round;stroke-linejoin:round;stroke-width:2px"/>
    <path d="M56.1,88.8l-9.7-5.2c3.7,21.9,20.7,21,20.7,21" style="fill:none;stroke:#1d132d;stroke-linecap:round;stroke-linejoin:round;stroke-width:2px"/>
    <path d="M55.8,88.3C51.9,77.6,58.9,70.9,63.7,71" style="fill:none;stroke:#1d132d;stroke-linecap:round;stroke-linejoin:round;stroke-width:2px"/>
  </g>
  <g>
    <title>atribute14</title>
    <path d="M131.3,34.3a76.8,76.8,0,0,0-11.1-.9,84.7,84.7,0,0,0-11.6.9C82.9,38.8,65.3,60.4,65.3,88c0,15.4,3.2,29.6,12.1,37.2s18.2,10.8,39.5,11.1h-7.7c-7,6.6-11.8,18.9-11.8,29.9,0,16,10.1,19.5,22.6,19.5s22.6-3.4,22.6-19.5c0-11.1-4.9-23.5-12-30.1h-5.2c19.6-.5,28.4-3.6,37.2-11.1s12.1-21.8,12.1-37.2C174.7,60.4,157.1,38.8,131.3,34.3Z" style="fill:#5858f4"/>
    <path d="M111.2,185a36.3,36.3,0,0,0,5.7.7" style="fill:none;stroke:#1d132d;stroke-linecap:round;stroke-linejoin:round;stroke-width:2px"/>
    <path d="M108.9,136.7a30.2,30.2,0,0,0-3.8,4.5" style="fill:none;stroke:#1d132d;stroke-miterlimit:10;stroke-width:2px"/>
    <path d="M129,185a36.3,36.3,0,0,1-5.7.7" style="fill:none;stroke:#1d132d;stroke-linecap:round;stroke-linejoin:round;stroke-width:2px"/>
    <path d="M131.3,136.7a30.2,30.2,0,0,1,3.8,4.5" style="fill:none;stroke:#1d132d;stroke-miterlimit:10;stroke-width:2px"/>
    <path d="M135.8,144L119.6,153l-15.8-8.7a38.6,38.6,0,0,0-5.8,25,23.3,23.3,0,0,0,2.4,8.4c0.7,1.3,4.7,7.1,6.5,5.4s0.3-4.9.4-6,0.5-4.3.8-6.5l3.6,2.1,0.9-11.8A43.6,43.6,0,0,0,119,164v-0.3c2.2-.9,6-1.8,8.1-3.1l0.9,11.8,3.6-2.1q0.5,3.2.8,6.5c0.1,1.1-.2,5.3.4,6s6.4-3.7,7.1-5a22.2,22.2,0,0,0,2.1-8.2A40.1,40.1,0,0,0,135.8,144Z" style="fill:#dce3ea"/>
    <path d="M130.5,136.1c-3.1.3-6.1,0.6-9.4,0.6a111.1,111.1,0,0,1-12.3-.4l-6.8,9.6a41,41,0,0,0,17.6,3.6,40.7,40.7,0,0,0,17.8-3.7C137.2,145.4,130.9,136.5,130.5,136.1Z" style="fill:#180621;opacity:0.15"/>
    <polyline points="136.6 144.7 119.4 152.7 103.3 145.2" style="fill:none;stroke:#1d132d;stroke-miterlimit:10;stroke-width:2px"/>
    <polyline points="139.9 154 119.3 163.7 100 154.7" style="fill:none;stroke:#1d132d;stroke-miterlimit:10;stroke-width:2px"/>
    <polyline points="112.1 160.6 111.9 172.1 97.4 165.4" style="fill:none;stroke:#1d132d;stroke-miterlimit:10;stroke-width:2px"/>
    <line x1="107.2" y1="170.2" x2="107.2" y2="184.5" style="fill:none;stroke:#1d132d;stroke-miterlimit:10;stroke-width:2px"/>
    <polyline points="127.6 160.4 127.8 171.9 142.3 165.1" style="fill:none;stroke:#1d132d;stroke-miterlimit:10;stroke-width:2px"/>
    <line x1="132.4" y1="170" x2="132.4" y2="184.2" style="fill:none;stroke:#1d132d;stroke-miterlimit:10;stroke-width:2px"/>
    <g style="opacity:0.30000000000000004">
      <path d="M108.7,44.1a84.7,84.7,0,0,1,11.6-.9,76.8,76.8,0,0,1,11.1.9c24.4,4.3,41.5,23.9,43.2,49.5q0.1-2.7.1-5.5c0-27.7-17.6-49.2-43.4-53.7a76.8,76.8,0,0,0-11.1-.9,84.7,84.7,0,0,0-11.6.9C82.9,39,65.3,60.5,65.3,88.1q0,2.8.1,5.5C67.1,68,84.3,48.4,108.7,44.1Z" style="fill:#fff"/>
    </g>
    <path d="M125.4,136.4c19.6-.5,28.4-3.6,37.2-11.1s12.1-21.8,12.1-37.2c0-27.7-17.6-49.2-43.4-53.7a76.8,76.8,0,0,0-11.1-.9,84.7,84.7,0,0,0-11.6.9C82.9,39,65.3,60.5,65.3,88.1c0,15.4,3.2,29.6,12.1,37.2s18.2,10.8,39.5,11.1h8.5Z" style="fill:none;stroke:#1d132d;stroke-miterlimit:10;stroke-width:2px"/>
    <path d="M109.2,136.5c-7,6.6-11.8,18.9-11.8,29.9,0,16,10.1,19.5,22.6,19.5s22.6-3.4,22.6-19.5c0-11.1-4.9-23.5-12-30.1" style="fill:none;stroke:#1d132d;stroke-miterlimit:10;stroke-width:2px"/>
    <g style="opacity:0.30000000000000004">
      <path d="M108.7,44.1a84.7,84.7,0,0,1,11.6-.9,76.8,76.8,0,0,1,11.1.9c24.4,4.3,41.5,23.9,43.2,49.5q0.1-2.7.1-5.5c0-27.7-17.6-49.2-43.4-53.7a76.8,76.8,0,0,0-11.1-.9,84.7,84.7,0,0,0-11.6.9C82.9,39,65.3,60.5,65.3,88.1q0,2.8.1,5.5C67.1,68,84.3,48.4,108.7,44.1Z" style="fill:#fff"/>
    </g>
    <path d="M125.4,136.4c19.6-.5,28.4-3.6,37.2-11.1s12.1-21.8,12.1-37.2c0-27.7-17.6-49.2-43.4-53.7a76.8,76.8,0,0,0-11.1-.9,84.7,84.7,0,0,0-11.6.9C82.9,39,65.3,60.5,65.3,88.1c0,15.4,3.2,29.6,12.1,37.2s18.2,10.8,39.5,11.1h8.5Z" style="fill:none;stroke:#1d132d;stroke-miterlimit:10;stroke-width:2px"/>
  </g>
  <g>
    <title>07</title>
    <path d="M119.8,136.6c-26.6,0-36.1-4-44.2-10.3L74,124.8c-11-10.7-8.2-26-8.2-26s12.7,12,37.9,16h0.1l15.5-10.2a2,2,0,0,1,2.2,0l15.2,10h0.2c24.4-4.1,37.4-15.8,37.4-15.8s2.8,15.4-8.2,26l-1.7,1.4c-8.1,6.3-17.6,10.3-44.2,10.3" style="fill:#dce3ea"/>
    <path d="M100.4,124.1c-0.1,2.9-3.2,4.1-7,3.3-18.6-4-16.6-15-16.6-15s10.2,4.8,17.9,6.4C98.2,119.5,100.5,121.6,100.4,124.1Z" style="fill:#2e4159"/>
    <path d="M119.8,136.6c-26.6,0-36.1-4-44.2-10.3L74,124.8c-11-10.7-8.2-26-8.2-26s12.7,12,37.9,16h0.1l15.5-10.2a2,2,0,0,1,2.2,0l15.2,10h0.2c24.4-4.1,37.4-15.8,37.4-15.8s2.8,15.4-8.2,26l-1.7,1.4c-8.1,6.3-17.6,10.3-44.2,10.3" style="fill:none;stroke:#1d132d;stroke-linecap:round;stroke-linejoin:round;stroke-width:2px"/>
    <path d="M100.4,124.1c-0.1,2.9-3.2,4.1-7,3.3-18.6-4-16.6-15-16.6-15s10.2,4.8,17.9,6.4C98.2,119.5,100.5,121.6,100.4,124.1Z" style="fill:none;stroke:#1d132d;stroke-linecap:round;stroke-linejoin:round;stroke-width:2px"/>
    <path d="M139.6,124.1c0.1,2.9,3.2,4.1,7,3.3,18.6-4,16.6-15,16.6-15s-10.2,4.8-17.9,6.4C141.8,119.5,139.5,121.6,139.6,124.1Z" style="fill:#2e4159"/>
    <path d="M139.6,124.1c0.1,2.9,3.2,4.1,7,3.3,18.6-4,16.6-15,16.6-15s-10.2,4.8-17.9,6.4C141.8,119.5,139.5,121.6,139.6,124.1Z" style="fill:none;stroke:#1d132d;stroke-linecap:round;stroke-linejoin:round;stroke-width:2px"/>
    <path d="M94.7,118.8c-7.7-1.6-17.9-6.4-17.9-6.4a8.8,8.8,0,0,0,.3,3.7c1.8,0.8,10.7,4.8,17.6,6.2,2.6,0.5,4.5,1.8,5.3,3.4a3.4,3.4,0,0,0,.4-1.6C100.5,121.6,98.2,119.5,94.7,118.8Z" style="fill:#180621;opacity:0.15"/>
    <polyline points="132 136 132 119.7 132 119.5 120.4 111.8 108.4 119.7 108.4 119.9 108.4 136.1" style="fill:#2e4159"/>
    <path d="M166.1,118.5l-1.7,1.4c-8.1,6.3-17.6,10.3-44.2,10.3h-0.4c-26.6,0-36.1-4-44.2-10.3L74,118.5a28.8,28.8,0,0,1-8.3-18.3c-0.4,4-.7,15.9,8.3,24.7l1.7,1.4c8.1,6.3,17.6,10.3,44.2,10.3h0.4c26.6,0,36.1-4,44.2-10.3l1.7-1.4c9-8.8,8.7-20.7,8.3-24.7A28.8,28.8,0,0,1,166.1,118.5Z" style="fill:#180621;opacity:0.15"/>
    <path d="M145.4,118.8c7.7-1.6,17.9-6.4,17.9-6.4a8.8,8.8,0,0,1-.3,3.7c-1.8.8-10.7,4.8-17.6,6.2-2.6.5-4.5,1.8-5.3,3.4a3.4,3.4,0,0,1-.4-1.6C139.5,121.6,141.8,119.5,145.4,118.8Z" style="fill:#180621;opacity:0.15"/>
    <polyline points="132 136 132 119.7 132 119.5 120.4 111.8 108.4 119.7 108.4 119.9 108.4 136.1" style="fill:none;stroke:#1d132d;stroke-linecap:round;stroke-linejoin:round;stroke-width:2px"/>
  </g>
  <g>
    <title>06</title>
    <path d="M78.4,76.9a16.2,16.2,0,1,0,30.5,6.3Z" style="fill:#1d132d"/>
    <path d="M78.4,76.9a16.2,16.2,0,1,0,30.5,6.3Z" style="fill:none;stroke:#1d132d;stroke-linecap:round;stroke-linejoin:round;stroke-width:2px"/>
    <path d="M88.2,83a6.1,6.1,0,1,0,10.4,2Z" style="fill:#ff9a00"/>
    <path d="M162.9,76.9a16.2,16.2,0,1,1-30.5,6.3Z" style="fill:#1d132d"/>
    <path d="M162.9,76.9a16.2,16.2,0,1,1-30.5,6.3Z" style="fill:none;stroke:#1d132d;stroke-linecap:round;stroke-linejoin:round;stroke-width:2px"/>
    <path d="M153.1,82.9a6.1,6.1,0,1,1-10.4,2Z" style="fill:#ff9a00"/>
  </g>
  <g>
    <title>02</title>
    <path d="M131,40.3H109.9V22.4s3.7-1.9,10.7-1.9S131,22.4,131,22.4V40.3Z" style="fill:#dce3ea"/>
    <polygon points="101.5 31.5 109.8 40.3 109.9 22.3 101.5 31.5" style="fill:#dce3ea"/>
    <polygon points="138.8 31.5 131 40.3 131 22.3 138.8 31.5" style="fill:#dce3ea"/>
    <path d="M119.7,59c3.7-2,33.1-16.8,33-17-1.9-2.6,2.4-3.9-2.2-4.8l-47,1.9L90.3,37.9c-2.5.3-.7,3.8-1,4.1S113.1,55.5,119,58.9l0.4,0.4h0.1l0.8,0.5Z" style="fill:#dce3ea"/>
    <path d="M119.7,59c3.7-2,33.1-16.8,33-17-1.9-2.6,2.4-3.9-2.2-4.8l-47,1.9L90.3,37.9c-2.5.3-.7,3.8-1,4.1S113.1,55.5,119,58.9l0.4,0.4h0.1l0.8,0.5Z" style="fill:#180621;opacity:0.15"/>
    <path d="M119.7,53.9c3.7-2,33.2-16.8,33-17a46.1,46.1,0,0,0-14.1-5.7l-35.1,2.9-2-2.5A46.5,46.5,0,0,0,89.3,37c-0.2.1,23.8,13.4,29.7,16.8l0.4,0.4h0.1l0.8,0.5Z" style="fill:#dce3ea"/>
    <polygon points="101.5 31.5 109.8 40.3 109.9 22.3 101.5 31.5" style="fill:#180621;opacity:0.15"/>
    <path d="M131,40.3H109.9V22.4s3.7-1.9,10.7-1.9S131,22.4,131,22.4V40.3Z" style="fill:none;stroke:#1d132d;stroke-linecap:round;stroke-linejoin:round;stroke-width:2px"/>
    <polygon points="138.8 31.5 131 40.3 131 22.3 138.8 31.5" style="fill:#180621;opacity:0.15"/>
    <polygon points="101.5 31.5 109.8 40.3 109.9 22.3 101.5 31.5" style="fill:none;stroke:#1d132d;stroke-linecap:round;stroke-linejoin:round;stroke-width:2px"/>
    <path d="M101.5,31.6A46.5,46.5,0,0,0,89.3,37c-0.2.1,31.1,17.5,30.9,17.6" style="fill:none;stroke:#1d132d;stroke-linecap:round;stroke-linejoin:round;stroke-width:2px"/>
    <path d="M138.7,31.3A46.1,46.1,0,0,1,152.7,37c0.2,0.1-32.6,17.4-32.4,17.5" style="fill:none;stroke:#1d132d;stroke-linecap:round;stroke-linejoin:round;stroke-width:2px"/>
    <path d="M89.3,37s0.1,2.8.1,5c0,0.2,31,17.4,30.8,17.5" style="fill:none;stroke:#1d132d;stroke-linecap:round;stroke-linejoin:round;stroke-width:2px"/>
    <path d="M152.8,37s-0.1,2.8-.1,5c0,0.2-32.7,17.4-32.5,17.5" style="fill:none;stroke:#1d132d;stroke-linecap:round;stroke-linejoin:round;stroke-width:2px"/>
    <polygon points="138.8 31.5 131 40.3 131 22.3 138.8 31.5" style="fill:none;stroke:#1d132d;stroke-linecap:round;stroke-linejoin:round;stroke-width:2px"/>
    <path d="M110.6,28.4H118a2.9,2.9,0,0,1,2.9,3h0a2.9,2.9,0,0,1-2.9,3H111" style="fill:none;stroke:#1d132d;stroke-linecap:round;stroke-linejoin:round;stroke-width:2px"/>
    <path d="M110.6,28.4H118a2.9,2.9,0,0,1,2.9,3h0a2.9,2.9,0,0,1-2.9,3H111" style="fill:#180621;opacity:0.35000000000000003"/>
  </g>
</svg>