<svg xmlns="http://www.w3.org/2000/svg" xmlns:xlink="http://www.w3.org/1999/xlink" viewBox="0 0 240 240">
  <ellipse cx="120.5" cy="233.4" rx="43.7" ry="4.9" style="fill:#180621;opacity:0.15"/>
  <g>
    <title>04</title>
    <g style="isolation:isolate">
      <path d="M91.7,195.2h0l.6,25.8h-.1c-.4.3-.7,1.8-.2,2.7a14.4,14.4,0,0,0-4.6,7.6,1.9,1.9,0,0,0,1.3,2.2,44.7,44.7,0,0,0,12.6,1.4c9.5,0,14.5-2,14.5-2v-.6l.2-.4V208.3h0A19.5,19.5,0,0,0,91.7,195.2Z" style="fill:#dce3ea"/>
      <path d="M115.2,204V182.2l-13.7-1.8v14.3l.7.5C106.4,196.8,112,201,115.2,204Z" style="fill:#dce3ea"/>
      <path d="M89,227.6c8.2-9.2,23.2-10.1,27,4.1V208.3h0a19.5,19.5,0,0,0-24.2-13.1h0l.6,25.8h-.1c-.4.3-.7,1.8-.2,2.7A14.6,14.6,0,0,0,89,227.6Z" style="fill:#2e4159"/>
      <polyline points="101.6 194.4 101.6 180.4 116 180.4 116 209.3" style="fill:none;stroke:#1d132d;stroke-linecap:round;stroke-linejoin:round;stroke-width:2px"/>
      <path d="M115.9,232.7V208.3h0a19.5,19.5,0,0,0-24.2-13.1h0l.7,27.7" style="fill:none;stroke:#1d132d;stroke-linecap:round;stroke-linejoin:round;stroke-width:2px"/>
      <ellipse cx="99" cy="222.7" rx="4.7" ry="3" style="fill:#fff;opacity:0.5"/>
      <path d="M115.5,205.2v-7.4a25.6,25.6,0,0,0-13.2-8.3v5.4C106.9,197,111.9,201.5,115.5,205.2Z" style="fill:#180621;opacity:0.15;mix-blend-mode:multiply"/>
      <path d="M115.9,232.9a14.4,14.4,0,0,0-28.4-1.6,1.9,1.9,0,0,0,1.3,2.2,44.7,44.7,0,0,0,12.6,1.4C110.8,234.9,115.9,232.9,115.9,232.9Z" style="fill:none;stroke:#1d132d;stroke-linecap:round;stroke-linejoin:round;stroke-width:2px"/>
      <path d="M103.6,213.3h-.8A15.2,15.2,0,0,0,92.4,217" style="fill:none;stroke:#1d132d;stroke-linecap:round;stroke-linejoin:round;stroke-width:2px"/>
      <path d="M103.6,206.4h-.8a15.2,15.2,0,0,0-10.4,3.7" style="fill:none;stroke:#1d132d;stroke-linecap:round;stroke-linejoin:round;stroke-width:2px"/>
      <path d="M101.5,230.2a44.7,44.7,0,0,1-12.6-1.4l-.4-.2a14.3,14.3,0,0,0-.9,2.7,1.9,1.9,0,0,0,1.3,2.2,44.7,44.7,0,0,0,12.6,1.4c9.5,0,14.5-2,14.5-2a14.3,14.3,0,0,0-1.2-4.4A48.8,48.8,0,0,1,101.5,230.2Z" style="fill:#180621;opacity:0.15"/>
      <path d="M152.8,231.3a14.4,14.4,0,0,0-4.6-7.6c.5-.9.2-2.4-.2-2.7h-.1l.6-25.8h0a19.5,19.5,0,0,0-24.2,13.1h0V232l.2.4v.6s5.1,2,14.5,2a44.7,44.7,0,0,0,12.6-1.4A1.9,1.9,0,0,0,152.8,231.3Z" style="fill:#dce3ea"/>
      <path d="M124.3,232h.1a3.2,3.2,0,0,1,.3-.9c2.7-5.5,6.4-10.6,13.1-11a18.1,18.1,0,0,1,10.7,2.7,2.3,2.3,0,0,0-.4-1.9h-.1l.6-25.8h0a19.5,19.5,0,0,0-24.2,13.1h0Z" style="fill:#2e4159"/>
      <ellipse cx="141" cy="222.7" rx="4.7" ry="3" style="fill:#fff;opacity:0.5"/>
      <path d="M125.1,204V182.2l13.7-1.8v14.3l-.7.5C133.8,196.8,128.3,201,125.1,204Z" style="fill:#dce3ea"/>
      <polyline points="138.7 194.4 138.7 180.4 124.3 180.4 124.3 209.3" style="fill:none;stroke:#1d132d;stroke-linecap:round;stroke-linejoin:round;stroke-width:2px"/>
      <path d="M124.3,232.7V208.3h0a19.5,19.5,0,0,1,24.2-13.1h0l-.7,27.7" style="fill:none;stroke:#1d132d;stroke-linecap:round;stroke-linejoin:round;stroke-width:2px"/>
      <path d="M124.8,205.2v-7.4a25.6,25.6,0,0,1,13.2-8.3v5.4C133.4,197,128.3,201.5,124.8,205.2Z" style="fill:#180621;opacity:0.15;mix-blend-mode:multiply"/>
      <path d="M124.4,232.9a14.4,14.4,0,0,1,28.4-1.6,1.9,1.9,0,0,1-1.3,2.2,44.7,44.7,0,0,1-12.6,1.4C129.5,234.9,124.4,232.9,124.4,232.9Z" style="fill:none;stroke:#1d132d;stroke-linecap:round;stroke-linejoin:round;stroke-width:2px"/>
      <path d="M136.7,213.3h.8a15.2,15.2,0,0,1,10.4,3.7" style="fill:none;stroke:#1d132d;stroke-linecap:round;stroke-linejoin:round;stroke-width:2px"/>
      <path d="M136.7,206.4h.8a15.2,15.2,0,0,1,10.4,3.7" style="fill:none;stroke:#1d132d;stroke-linecap:round;stroke-linejoin:round;stroke-width:2px"/>
      <path d="M138.8,230.2a44.7,44.7,0,0,0,12.6-1.4l.4-.2a14.3,14.3,0,0,1,.9,2.7,1.9,1.9,0,0,1-1.3,2.2,44.7,44.7,0,0,1-12.6,1.4c-9.5,0-14.5-2-14.5-2a14.3,14.3,0,0,1,1.2-4.4A48.8,48.8,0,0,0,138.8,230.2Z" style="fill:#180621;opacity:0.15"/>
    </g>
  </g>
  <g>
    <title>atribute02</title>
    <path d="M101.5,151a31.1,31.1,0,0,1,2.9-6.5,22.4,22.4,0,0,1,3.2-5.2l1.2-1.4,0.5-1a4.3,4.3,0,0,0-1.5,1c-4.6,4.9-18.2,17-30.5,17.4l-5.4,7.1,9.9,1.1c6.6-1.2,13-4.5,18.4-8.1A26.5,26.5,0,0,1,101.5,151Z" style="fill:#2e4159"/>
    <path d="M104.4,144.6a22.4,22.4,0,0,1,3.2-5.2l1.2-1.4,0.5-1a4.3,4.3,0,0,0-1.5,1c-4.6,4.9-18.2,17-30.5,17.4L75,158.5c0.9,0.3-.2.4,0.7,0.5l2.2,0.2c9.2-.5,19.1-7.2,25.4-12.5Z" style="fill:#fff;opacity:0.2"/>
    <path d="M99.4,156c-5.4,3.5-11.3,6.4-17.6,7.6" style="fill:none;stroke:#1d132d;stroke-linecap:round;stroke-linejoin:round;stroke-width:2px"/>
    <path d="M77.3,155.4c13.1-.4,21.8-10.6,31.2-18.1" style="fill:none;stroke:#1d132d;stroke-linecap:round;stroke-linejoin:round;stroke-width:2px"/>
    <path d="M56,179.9c-6,4.4-4.4,11.3-4.6,11.1-8.1-5-11.5-14.3-7.5-21.3" style="fill:#dce3ea"/>
    <path d="M37.4,153.7c-6.3-3.1-11.3,1.7-11.2,1.4,0.3-9.5,6.5-17,14-17" style="fill:#dce3ea"/>
    <path d="M37.4,153.7l2.1-11.9a13.7,13.7,0,0,0-9.1,11C32.3,152.1,34.4,152.2,37.4,153.7Z" style="fill:#180621;opacity:0.15"/>
    <path d="M70.2,175.3c0.3,7.1,6.9,9.1,6.6,9.2-8.5,4.2-18.1,2.4-21.6-4.3" style="fill:#dce3ea"/>
    <path d="M70.2,175.3l-12,4c3.5,3.4,9.3,4.4,15.1,2.8A9.6,9.6,0,0,1,70.2,175.3Z" style="fill:#180621;opacity:0.15"/>
    <path d="M72,160.6c5.9,2.9,10.2-2,10.2-1.7,0,9.5-5.4,17.2-12.2,17.4" style="fill:#dce3ea"/>
    <path d="M78.3,161.2a7.8,7.8,0,0,1-5,0H72l-1.5,11.6C74.5,171.5,77.7,166.9,78.3,161.2Z" style="fill:#180621;opacity:0.15"/>
    <path d="M67.8,145.9c6.5,0.3,8.4-6,8.5-5.8,3.9,8.6,2.2,17.9-3.9,20.9" style="fill:#dce3ea"/>
    <path d="M71.4,157.7c3.1-3,4.1-8.5,2.5-14.1a8,8,0,0,1-6.1,2.3Z" style="fill:#180621;opacity:0.15"/>
    <path d="M43.5,169.7c-7.5,1-9.4,7.9-9.6,7.7-4.7-8.2-3.1-18.2,3.9-22.5" style="fill:#dce3ea"/>
    <path d="M43.5,169.7l-4.4-11.4c-3.6,3.8-4.7,9.7-2.9,15.3A11.2,11.2,0,0,1,43.5,169.7Z" style="fill:#180621;opacity:0.15"/>
    <g style="opacity:0.15">
      <path d="M56,179.9l-9.3-7.8c-1.6,4.9.4,10.6,4.9,14.6A10.8,10.8,0,0,1,56,179.9Z" style="fill:#180621"/>
    </g>
    <path d="M40.5,137.8c0.8-7-5.4-10-5.2-10.1,9-2.9,18.2.3,20.8,7.4" style="fill:#dce3ea"/>
    <path d="M40.5,137.8l13.3-2.3c-3.2-4.1-9.1-5.8-15-4.7C40.2,132.5,40.9,134.4,40.5,137.8Z" style="fill:#180621;opacity:0.15"/>
    <path d="M56.5,135c6.1-2.8,5.1-9.4,5.3-9.2,7.3,6,9.8,15.2,5.5,20.8" style="fill:#dce3ea"/>
    <path d="M56.5,135l8.2,8.9c1.4-4.1-.1-9.3-3.7-13.6A8.4,8.4,0,0,1,56.5,135Z" style="fill:#180621;opacity:0.15"/>
    <ellipse cx="55" cy="157.3" rx="15.6" ry="24.8" transform="translate(-57.6 34.5) rotate(-23.3)" style="fill:#dce3ea"/>
    <path d="M45.2,138.3c7.9-3.4,18.7,4.1,24.1,16.7a36.7,36.7,0,0,1,3,12,34.8,34.8,0,0,0-3-15.9c-5.4-12.6-16.2-20.1-24.1-16.7-5.3,2.3-8,9-7.5,16.9C38.2,145.1,40.8,140.2,45.2,138.3Z" style="fill:#fff;opacity:0.5"/>
    <path d="M65.3,176.7c-7.9,3.4-18.7-4.1-24.1-16.7a34.8,34.8,0,0,1-3-15.9c-1.2,5.5-.4,12.4,2.5,19.3,5.4,12.6,16.2,20.1,24.1,16.7,4.4-1.9,7-6.9,7.5-13.1C71.3,171.6,68.9,175.2,65.3,176.7Z" style="fill:#180621;opacity:0.15"/>
    <ellipse cx="55" cy="157.3" rx="15.6" ry="24.8" transform="translate(-57.6 34.5) rotate(-23.3)" style="fill:none;stroke:#1d132d;stroke-miterlimit:10;stroke-width:2px"/>
    <ellipse cx="55.9" cy="156.9" rx="8.1" ry="14.4" transform="translate(-57.4 34.8) rotate(-23.3)" style="fill:#2e4159"/>
    <path d="M50.3,146.9c4.1-1.8,10,2.7,13.1,10a23.9,23.9,0,0,1,1.8,6.4,21.7,21.7,0,0,0-1.9-9.7c-3.1-7.3-9-11.8-13.1-10s-4.1,5.2-3.5,10.1C46.9,150.4,48.2,147.9,50.3,146.9Z" style="fill:#fff;opacity:0.2"/>
    <path d="M61.8,166.8c-4.1,1.8-10-2.7-13.1-10a22.9,22.9,0,0,1-1.9-8.1,20.2,20.2,0,0,0,1.7,11.4c3.1,7.3,9,11.8,13.1,10,2.5-1.1,3.8-4.3,3.6-8.3C64.8,164.2,63.6,166,61.8,166.8Z" style="fill:#180621;opacity:0.15"/>
    <ellipse cx="55.9" cy="156.9" rx="8.1" ry="14.4" transform="translate(-57.4 34.8) rotate(-23.3)" style="fill:none;stroke:#1d132d;stroke-miterlimit:10;stroke-width:2px"/>
    <ellipse cx="56.4" cy="156.6" rx="2.7" ry="4.9" transform="translate(-57.3 35) rotate(-23.3)" style="fill:#dce3ea"/>
    <ellipse cx="56.4" cy="156.6" rx="2.7" ry="4.9" transform="translate(-57.3 35) rotate(-23.3)" style="fill:none;stroke:#1d132d;stroke-miterlimit:10;stroke-width:2px"/>
    <path d="M37.4,153.7c-6.3-3.1-11.3,1.7-11.2,1.4,0.3-9.5,6.5-17,14-17" style="fill:none;stroke:#1d132d;stroke-linecap:round;stroke-linejoin:round;stroke-width:2px"/>
    <path d="M70.2,175.3c0.3,7.1,6.9,9.1,6.6,9.2-8.5,4.2-18.1,2.4-21.6-4.3" style="fill:none;stroke:#1d132d;stroke-linecap:round;stroke-linejoin:round;stroke-width:2px"/>
    <path d="M72,160.6c5.9,2.9,10.2-2,10.2-1.7,0,9.5-5.4,17.2-12.2,17.4" style="fill:none;stroke:#1d132d;stroke-linecap:round;stroke-linejoin:round;stroke-width:2px"/>
    <path d="M67.8,145.9c6.5,0.3,8.4-6,8.5-5.8,3.9,8.6,2.2,17.9-3.9,20.9" style="fill:none;stroke:#1d132d;stroke-linecap:round;stroke-linejoin:round;stroke-width:2px"/>
    <path d="M43.5,169.7c-7.5,1-9.4,7.9-9.6,7.7-4.7-8.2-3.1-18.2,3.9-22.5" style="fill:none;stroke:#1d132d;stroke-linecap:round;stroke-linejoin:round;stroke-width:2px"/>
    <path d="M56,179.9c-6,4.4-4.4,11.3-4.6,11.1-8.1-5-11.5-14.3-7.5-21.3" style="fill:none;stroke:#1d132d;stroke-linecap:round;stroke-linejoin:round;stroke-width:2px"/>
    <path d="M40.5,137.8c0.8-7-5.4-10-5.2-10.1,9-2.9,18.2.3,20.8,7.4" style="fill:none;stroke:#1d132d;stroke-linecap:round;stroke-linejoin:round;stroke-width:2px"/>
    <path d="M56.5,135c6.1-2.8,5.1-9.4,5.3-9.2,7.3,6,9.8,15.2,5.5,20.8" style="fill:none;stroke:#1d132d;stroke-linecap:round;stroke-linejoin:round;stroke-width:2px"/>
    <path d="M30.2,131a13.2,13.2,0,0,1,5.5-3.4" style="fill:none;stroke:#1d132d;stroke-linecap:round;stroke-linejoin:round;stroke-width:2px"/>
    <path d="M28.5,133.1a13.6,13.6,0,0,1,1.7-2.2" style="fill:none;stroke:#1d132d;stroke-linecap:round;stroke-linejoin:round;stroke-width:2px"/>
    <path d="M36.8,181.3a13.2,13.2,0,0,1-3.5-5.4" style="fill:none;stroke:#1d132d;stroke-linecap:round;stroke-linejoin:round;stroke-width:2px"/>
    <path d="M38.9,182.9a13.6,13.6,0,0,1-2.2-1.6" style="fill:none;stroke:#1d132d;stroke-linecap:round;stroke-linejoin:round;stroke-width:2px"/>
    <path d="M26.8,136.7l0.5-1.2" style="fill:none;stroke:#1d132d;stroke-linecap:round;stroke-linejoin:round;stroke-width:2px"/>
    <path d="M82.1,179.3a13.6,13.6,0,0,1-1.6,2.2,13.2,13.2,0,0,1-5.3,3.7" style="fill:none;stroke:#1d132d;stroke-linecap:round;stroke-linejoin:round;stroke-width:2px"/>
    <path d="M83.6,175.6l-0.4,1.2" style="fill:none;stroke:#1d132d;stroke-linecap:round;stroke-linejoin:round;stroke-width:2px"/>
    <path d="M25.9,140.3v-0.4" style="fill:none;stroke:#1d132d;stroke-linecap:round;stroke-linejoin:round;stroke-width:2px"/>
    <line x1="87.9" y1="157.7" x2="89.4" y2="161" style="fill:none;stroke:#1d132d;stroke-linecap:round;stroke-linejoin:round;stroke-width:2px"/>
    <line x1="93.4" y1="155" x2="95" y2="158.3" style="fill:none;stroke:#1d132d;stroke-linecap:round;stroke-linejoin:round;stroke-width:2px"/>
    <path d="M139,151a31.1,31.1,0,0,0-2.9-6.5,22.4,22.4,0,0,0-3.2-5.2l-1.2-1.4-0.5-1a4.3,4.3,0,0,1,1.5,1c4.6,4.9,18.2,17,30.5,17.4l5.4,7.1-9.9,1.1c-6.6-1.2-13-4.5-18.4-8.1A26.5,26.5,0,0,0,139,151Z" style="fill:#2e4159"/>
    <path d="M136.1,144.6a22.4,22.4,0,0,0-3.2-5.2l-1.2-1.4-0.5-1a4.3,4.3,0,0,1,1.5,1c4.6,4.9,18.2,17,30.5,17.4l2.4,3.1c-0.9.3,0.2,0.4-.7,0.5l-2.2.2c-9.2-.5-19.1-7.2-25.4-12.5Z" style="fill:#fff;opacity:0.2"/>
    <path d="M141,156c5.4,3.5,11.3,6.4,17.6,7.6" style="fill:none;stroke:#1d132d;stroke-linecap:round;stroke-linejoin:round;stroke-width:2px"/>
    <path d="M163.1,155.4c-13.1-.4-21.8-10.6-31.2-18.1" style="fill:none;stroke:#1d132d;stroke-linecap:round;stroke-linejoin:round;stroke-width:2px"/>
    <path d="M184.5,179.9c6,4.4,4.4,11.3,4.6,11.1,8.1-5,11.5-14.3,7.5-21.3" style="fill:#dce3ea"/>
    <path d="M203.1,153.7c6.3-3.1,11.3,1.7,11.2,1.4-0.3-9.5-6.5-17-14-17" style="fill:#dce3ea"/>
    <path d="M203.1,153.7L201,141.8a13.7,13.7,0,0,1,9.1,11C208.1,152.1,206.1,152.2,203.1,153.7Z" style="fill:#180621;opacity:0.15"/>
    <path d="M170.3,175.3c-0.3,7.1-6.9,9.1-6.6,9.2,8.5,4.2,18.1,2.4,21.6-4.3" style="fill:#dce3ea"/>
    <path d="M170.3,175.3l12,4c-3.5,3.4-9.3,4.4-15.1,2.8A9.6,9.6,0,0,0,170.3,175.3Z" style="fill:#180621;opacity:0.15"/>
    <path d="M168.4,160.6c-5.9,2.9-10.2-2-10.2-1.7,0,9.5,5.4,17.2,12.2,17.4" style="fill:#dce3ea"/>
    <path d="M162.2,161.2a7.8,7.8,0,0,0,5,0h1.4l1.5,11.6C165.9,171.5,162.8,166.9,162.2,161.2Z" style="fill:#180621;opacity:0.15"/>
    <path d="M172.7,145.9c-6.5.3-8.4-6-8.5-5.8-3.9,8.6-2.2,17.9,3.9,20.9" style="fill:#dce3ea"/>
    <path d="M169,157.7c-3.1-3-4.1-8.5-2.5-14.1a8,8,0,0,0,6.1,2.3Z" style="fill:#180621;opacity:0.15"/>
    <path d="M196.9,169.7c7.5,1,9.4,7.9,9.6,7.7,4.7-8.2,3.1-18.2-3.9-22.5" style="fill:#dce3ea"/>
    <path d="M196.9,169.7l4.4-11.4c3.6,3.8,4.7,9.7,2.9,15.3A11.2,11.2,0,0,0,196.9,169.7Z" style="fill:#180621;opacity:0.15"/>
    <g style="opacity:0.15">
      <path d="M184.5,179.9l9.3-7.8c1.6,4.9-.4,10.6-4.9,14.6A10.8,10.8,0,0,0,184.5,179.9Z" style="fill:#180621"/>
    </g>
    <path d="M200,137.8c-0.8-7,5.4-10,5.2-10.1-9-2.9-18.2.3-20.8,7.4" style="fill:#dce3ea"/>
    <path d="M200,137.8l-13.3-2.3c3.2-4.1,9.1-5.8,15-4.7C200.3,132.5,199.6,134.4,200,137.8Z" style="fill:#180621;opacity:0.15"/>
    <path d="M184,135c-6.1-2.8-5.1-9.4-5.3-9.2-7.3,6-9.8,15.2-5.5,20.8" style="fill:#dce3ea"/>
    <path d="M184,135l-8.2,8.9c-1.4-4.1.1-9.3,3.7-13.6A8.4,8.4,0,0,0,184,135Z" style="fill:#180621;opacity:0.15"/>
    <ellipse cx="185.4" cy="157.3" rx="24.8" ry="15.6" transform="translate(-32.3 265.5) rotate(-66.7)" style="fill:#dce3ea"/>
    <path d="M195.2,138.3c-7.9-3.4-18.7,4.1-24.1,16.7a36.7,36.7,0,0,0-3,12,34.8,34.8,0,0,1,3-15.9c5.4-12.6,16.2-20.1,24.1-16.7,5.3,2.3,8,9,7.5,16.9C202.3,145.1,199.7,140.2,195.2,138.3Z" style="fill:#fff;opacity:0.5"/>
    <path d="M175.1,176.7c7.9,3.4,18.7-4.1,24.1-16.7a34.8,34.8,0,0,0,3-15.9c1.2,5.5.4,12.4-2.5,19.3-5.4,12.6-16.2,20.1-24.1,16.7-4.4-1.9-7-6.9-7.5-13.1C169.2,171.6,171.5,175.2,175.1,176.7Z" style="fill:#180621;opacity:0.15"/>
    <ellipse cx="185.4" cy="157.3" rx="24.8" ry="15.6" transform="translate(-32.3 265.5) rotate(-66.7)" style="fill:none;stroke:#1d132d;stroke-miterlimit:10;stroke-width:2px"/>
    <ellipse cx="184.6" cy="156.9" rx="14.4" ry="8.1" transform="translate(-32.5 264.5) rotate(-66.7)" style="fill:#2e4159"/>
    <path d="M190.1,146.9c-4.1-1.8-10,2.7-13.1,10a23.9,23.9,0,0,0-1.8,6.4,21.7,21.7,0,0,1,1.9-9.7c3.1-7.3,9-11.8,13.1-10s4.1,5.2,3.5,10.1C193.5,150.4,192.3,147.9,190.1,146.9Z" style="fill:#fff;opacity:0.2"/>
    <path d="M178.6,166.8c4.1,1.8,10-2.7,13.1-10a22.9,22.9,0,0,0,1.9-8.1,20.2,20.2,0,0,1-1.7,11.4c-3.1,7.3-9,11.8-13.1,10-2.5-1.1-3.8-4.3-3.6-8.3C175.7,164.2,176.9,166,178.6,166.8Z" style="fill:#180621;opacity:0.15"/>
    <ellipse cx="184.6" cy="156.9" rx="14.4" ry="8.1" transform="translate(-32.5 264.5) rotate(-66.7)" style="fill:none;stroke:#1d132d;stroke-miterlimit:10;stroke-width:2px"/>
    <ellipse cx="184.1" cy="156.6" rx="4.9" ry="2.7" transform="translate(-32.5 263.9) rotate(-66.7)" style="fill:#dce3ea"/>
    <ellipse cx="184.1" cy="156.6" rx="4.9" ry="2.7" transform="translate(-32.5 263.9) rotate(-66.7)" style="fill:none;stroke:#1d132d;stroke-miterlimit:10;stroke-width:2px"/>
    <path d="M203.1,153.7c6.3-3.1,11.3,1.7,11.2,1.4-0.3-9.5-6.5-17-14-17" style="fill:none;stroke:#1d132d;stroke-linecap:round;stroke-linejoin:round;stroke-width:2px"/>
    <path d="M170.3,175.3c-0.3,7.1-6.9,9.1-6.6,9.2,8.5,4.2,18.1,2.4,21.6-4.3" style="fill:none;stroke:#1d132d;stroke-linecap:round;stroke-linejoin:round;stroke-width:2px"/>
    <path d="M168.4,160.6c-5.9,2.9-10.2-2-10.2-1.7,0,9.5,5.4,17.2,12.2,17.4" style="fill:none;stroke:#1d132d;stroke-linecap:round;stroke-linejoin:round;stroke-width:2px"/>
    <path d="M172.7,145.9c-6.5.3-8.4-6-8.5-5.8-3.9,8.6-2.2,17.9,3.9,20.9" style="fill:none;stroke:#1d132d;stroke-linecap:round;stroke-linejoin:round;stroke-width:2px"/>
    <path d="M196.9,169.7c7.5,1,9.4,7.9,9.6,7.7,4.7-8.2,3.1-18.2-3.9-22.5" style="fill:none;stroke:#1d132d;stroke-linecap:round;stroke-linejoin:round;stroke-width:2px"/>
    <path d="M184.5,179.9c6,4.4,4.4,11.3,4.6,11.1,8.1-5,11.5-14.3,7.5-21.3" style="fill:none;stroke:#1d132d;stroke-linecap:round;stroke-linejoin:round;stroke-width:2px"/>
    <path d="M200,137.8c-0.8-7,5.4-10,5.2-10.1-9-2.9-18.2.3-20.8,7.4" style="fill:none;stroke:#1d132d;stroke-linecap:round;stroke-linejoin:round;stroke-width:2px"/>
    <path d="M184,135c-6.1-2.8-5.1-9.4-5.3-9.2-7.3,6-9.8,15.2-5.5,20.8" style="fill:none;stroke:#1d132d;stroke-linecap:round;stroke-linejoin:round;stroke-width:2px"/>
    <path d="M210.2,131a13.2,13.2,0,0,0-5.5-3.4" style="fill:none;stroke:#1d132d;stroke-linecap:round;stroke-linejoin:round;stroke-width:2px"/>
    <path d="M211.9,133.1a13.6,13.6,0,0,0-1.7-2.2" style="fill:none;stroke:#1d132d;stroke-linecap:round;stroke-linejoin:round;stroke-width:2px"/>
    <path d="M203.7,181.3a13.2,13.2,0,0,0,3.5-5.4" style="fill:none;stroke:#1d132d;stroke-linecap:round;stroke-linejoin:round;stroke-width:2px"/>
    <path d="M201.5,182.9a13.6,13.6,0,0,0,2.2-1.6" style="fill:none;stroke:#1d132d;stroke-linecap:round;stroke-linejoin:round;stroke-width:2px"/>
    <path d="M213.7,136.7l-0.5-1.2" style="fill:none;stroke:#1d132d;stroke-linecap:round;stroke-linejoin:round;stroke-width:2px"/>
    <path d="M158.4,179.3a13.6,13.6,0,0,0,1.6,2.2,13.2,13.2,0,0,0,5.3,3.7" style="fill:none;stroke:#1d132d;stroke-linecap:round;stroke-linejoin:round;stroke-width:2px"/>
    <path d="M156.9,175.6l0.4,1.2" style="fill:none;stroke:#1d132d;stroke-linecap:round;stroke-linejoin:round;stroke-width:2px"/>
    <path d="M214.6,140.3v-0.4" style="fill:none;stroke:#1d132d;stroke-linecap:round;stroke-linejoin:round;stroke-width:2px"/>
    <line x1="152.5" y1="157.7" x2="151.1" y2="161" style="fill:none;stroke:#1d132d;stroke-linecap:round;stroke-linejoin:round;stroke-width:2px"/>
    <line x1="147.1" y1="155" x2="145.5" y2="158.3" style="fill:none;stroke:#1d132d;stroke-linecap:round;stroke-linejoin:round;stroke-width:2px"/>
  </g>
  <g>
    <title>06</title>
    <path d="M49.3,45.6c0,.3,0,.6,0,.9,0,10.6,9.2,19.3,20.9,20C69.4,63.9,65.1,52.5,49.3,45.6Z" style="fill:#fff;opacity:0.5"/>
    <path d="M169.9,67s3.2-14,21.7-21.6h0c1.7,5.6.2,15.1.2,15.1,1.5,5.3.1,14.2.1,14.2a25.3,25.3,0,0,1-17.1,30.7Z" style="fill:#dce3ea"/>
    <path d="M192.5,67h0a59.2,59.2,0,0,1-.6,7.7,25.3,25.3,0,0,1-17.1,30.7L172.9,91C184.1,88.7,191.9,78.6,192.5,67Z" style="fill:#180621;opacity:0.15"/>
    <path d="M190.9,45.6c0,.3,0,.6,0,.9,0,10.6-9.2,19.3-20.9,20C170.8,63.9,175.2,52.5,190.9,45.6Z" style="fill:#fff;opacity:0.5"/>
    <path d="M70.3,67S67.1,53,48.6,45.4h0c-1.7,5.6-.2,15.1-.2,15.1-1.5,5.3-.1,14.2-.1,14.2a25.3,25.3,0,0,0,17.1,30.7Z" style="fill:#dce3ea"/>
    <path d="M47.8,67h0a59.2,59.2,0,0,0,.6,7.7,25.3,25.3,0,0,0,17.1,30.7L67.3,91C56.1,88.7,48.3,78.6,47.8,67Z" style="fill:#180621;opacity:0.15"/>
    <path d="M48.3,74.6a25.3,25.3,0,0,0,17.1,30.7" style="fill:none;stroke:#1d132d;stroke-linecap:round;stroke-linejoin:round;stroke-width:2px"/>
    <path d="M48.4,60.4a25.3,25.3,0,0,0,17,31" style="fill:none;stroke:#1d132d;stroke-linecap:round;stroke-linejoin:round;stroke-width:2px"/>
    <path d="M70.3,67S67.1,53,48.6,45.4h0A25.3,25.3,0,0,0,65.4,77" style="fill:none;stroke:#1d132d;stroke-linecap:round;stroke-linejoin:round;stroke-width:2px"/>
    <path d="M191.9,74.6a25.3,25.3,0,0,1-17.1,30.7" style="fill:none;stroke:#1d132d;stroke-linecap:round;stroke-linejoin:round;stroke-width:2px"/>
    <path d="M191.8,60.4a25.3,25.3,0,0,1-17,31" style="fill:none;stroke:#1d132d;stroke-linecap:round;stroke-linejoin:round;stroke-width:2px"/>
    <path d="M169.9,67s3.2-14,21.7-21.6h0A25.3,25.3,0,0,1,174.8,77" style="fill:none;stroke:#1d132d;stroke-linecap:round;stroke-linejoin:round;stroke-width:2px"/>
  </g>
  <g>
    <title>06</title>
    <path d="M125.4,136.4c19.6-.5,28.4-3.6,37.2-11.1s12.1-21.8,12.1-37.2c0-27.7-17.6-49.2-43.4-53.7a76.8,76.8,0,0,0-11.1-.9,84.7,84.7,0,0,0-11.6.9C82.9,39,65.3,60.5,65.3,88.1c0,15.4,3.2,29.6,12.1,37.2s18.2,10.8,39.5,11.1Z" style="fill:none;stroke:#1d132d;stroke-miterlimit:10;stroke-width:2px"/>
    <path d="M109.2,136.5c-7,6.6-11.8,18.9-11.8,29.9,0,16,10.1,19.5,22.6,19.5s22.6-3.4,22.6-19.5c0-11.1-4.9-23.5-12-30.1" style="fill:none;stroke:#1d132d;stroke-miterlimit:10;stroke-width:2px"/>
    <path d="M131.3,34.4a76.8,76.8,0,0,0-11.1-.9,84.7,84.7,0,0,0-11.6.9C82.9,39,65.3,60.5,65.3,88.1c0,15.4,3.2,29.6,12.1,37.2s18.2,10.8,39.5,11.1h-7.7c-7,6.6-11.8,18.9-11.8,29.9,0,16,10.1,19.5,22.6,19.5s22.6-3.4,22.6-19.5c0-11.1-4.9-23.5-12-30.1h-5.2c19.6-.5,28.4-3.6,37.2-11.1s12.1-21.8,12.1-37.2C174.7,60.5,157.1,39,131.3,34.4Z" style="fill:#5f3535"/>
    <path d="M130.9,136.7c-3.4.7-18,.5-21.3-.1h-.4c-7,6.6-11.8,18.9-11.8,29.9,0,16,10.1,19.5,22.6,19.5s22.6-3.4,22.6-19.5C142.6,155.5,137.8,143.3,130.9,136.7Z" style="fill:#5f3535"/>
    <path d="M140.6,154.1l-9.3,7.9L120,152.3l-11.3,9.8-9.3-8.3a46,46,0,0,0-1.9,10.9l11.2,9.5,11.3-9.8,11.4,9.8,11.2-9.5a45.9,45.9,0,0,0-1.8-10.7" style="fill:#ff9a00"/>
    <path d="M140.6,154.1l-9.3,7.9L120,152.3l-11.3,9.8-9.3-8.3a46,46,0,0,0-1.9,10.9l11.2,9.5,11.3-9.8,11.4,9.8,11.2-9.5a45.9,45.9,0,0,0-1.8-10.7" style="fill:none;stroke:#1d132d;stroke-linecap:round;stroke-linejoin:round;stroke-width:2px"/>
    <path d="M130.5,136.2c-3.1.3-6.1.6-9.4.6a111.1,111.1,0,0,1-12.3-.4L102,146a41,41,0,0,0,17.6,3.6,40.7,40.7,0,0,0,17.8-3.7C137.2,145.6,130.9,136.7,130.5,136.2Z" style="fill:#180621;opacity:0.15"/>
    <path d="M109.5,136.3l-.6.5c-6.9,6.7-11.5,18.8-11.5,29.6,0,16,10.1,19.5,22.6,19.5s22.6-3.4,22.6-19.5c0-11-4.8-23.3-11.8-29.9l-.2-.2" style="fill:none;stroke:#1d132d;stroke-linecap:round;stroke-linejoin:round;stroke-width:2px"/>
    <g style="opacity:0.30000000000000004">
      <path d="M108.7,44.1a84.7,84.7,0,0,1,11.6-.9,76.8,76.8,0,0,1,11.1.9c24.4,4.3,41.5,23.9,43.2,49.5q.1-2.7.1-5.5c0-27.7-17.6-49.2-43.4-53.7a76.8,76.8,0,0,0-11.1-.9,84.7,84.7,0,0,0-11.6.9C82.9,39,65.3,60.5,65.3,88.1q0,2.8.1,5.5C67.1,68,84.3,48.4,108.7,44.1Z" style="fill:#fff"/>
    </g>
    <path d="M125.4,136.4c19.6-.5,28.4-3.6,37.2-11.1s12.1-21.8,12.1-37.2c0-27.7-17.6-49.2-43.4-53.7a76.8,76.8,0,0,0-11.1-.9,84.7,84.7,0,0,0-11.6.9C82.9,39,65.3,60.5,65.3,88.1c0,15.4,3.2,29.6,12.1,37.2s18.2,10.8,39.5,11.1Z" style="fill:none;stroke:#1d132d;stroke-miterlimit:10;stroke-width:2px"/>
    <path d="M109.2,136.5c-7,6.6-11.8,18.9-11.8,29.9,0,16,10.1,19.5,22.6,19.5s22.6-3.4,22.6-19.5c0-11.1-4.9-23.5-12-30.1" style="fill:none;stroke:#1d132d;stroke-miterlimit:10;stroke-width:2px"/>
    <g style="opacity:0.30000000000000004">
      <path d="M108.7,44.1a84.7,84.7,0,0,1,11.6-.9,76.8,76.8,0,0,1,11.1.9c24.4,4.3,41.5,23.9,43.2,49.5q.1-2.7.1-5.5c0-27.7-17.6-49.2-43.4-53.7a76.8,76.8,0,0,0-11.1-.9,84.7,84.7,0,0,0-11.6.9C82.9,39,65.3,60.5,65.3,88.1q0,2.8.1,5.5C67.1,68,84.3,48.4,108.7,44.1Z" style="fill:#fff"/>
    </g>
    <path d="M125.4,136.4c19.6-.5,28.4-3.6,37.2-11.1s12.1-21.8,12.1-37.2c0-27.7-17.6-49.2-43.4-53.7a76.8,76.8,0,0,0-11.1-.9,84.7,84.7,0,0,0-11.6.9C82.9,39,65.3,60.5,65.3,88.1c0,15.4,3.2,29.6,12.1,37.2s18.2,10.8,39.5,11.1Z" style="fill:none;stroke:#1d132d;stroke-miterlimit:10;stroke-width:2px"/>
  </g>
  <g>
    <title>04</title>
    <g style="isolation:isolate">
      <path d="M120.2,136.4c26.6,0,36.1-3.6,44.2-9.9l1.7-1.5c11-10.8,8.2-26.2,8.2-26.2l-12.7,15-12.4-9.3-14.6,13.3-14.5-11.3h-.2l-14.5,11.3L90.8,104.5l-12.4,9.3-12.7-15S63,114.3,74,125l1.7,1.5c8.1,6.3,17.6,10.1,44.2,10.1" style="fill:#dce3ea"/>
      <path d="M65.8,103.5l12.7,15,12.4-9.3,14.6,13.3,14.5-11.3h.2l14.5,11.3,14.6-13.3,12.4,9.3,12.7-15s.1.8.2,2.2a31.3,31.3,0,0,0-.2-6.9l-12.7,15-12.4-9.3-14.6,13.3-14.5-11.3h-.2l-14.5,11.3L90.8,104.5l-12.4,9.3-12.7-15a31.3,31.3,0,0,0-.2,6.9C65.7,104.3,65.8,103.5,65.8,103.5Z" style="fill:#fff;opacity:0.5"/>
      <path d="M166.1,119.1l-1.7,1.5c-8.1,6.3-17.6,9.4-44.2,9.4h-.4c-26.6,0-36.1-3.1-44.2-9.4L74,119.1a29.2,29.2,0,0,1-8.4-18.7c-.4,4.2-.5,15.9,8.4,24.6l1.7,1.5c8.1,6.3,17.6,9.4,44.2,9.4h.4c26.6,0,36.1-3.1,44.2-9.4l1.7-1.5c8.9-8.7,8.7-20.4,8.4-24.6A29.2,29.2,0,0,1,166.1,119.1Z" style="fill:#180621;opacity:0.15;mix-blend-mode:multiply"/>
      <path d="M120.2,136.6c26.6,0,36.1-4,44.2-10.3l1.7-1.4c11-10.7,8.2-26,8.2-26l-12.7,14.9-12.4-9.3-14.6,13.2-14.5-11.2h-.2l-14.5,11.2L90.8,104.4l-12.4,9.3L65.8,98.8s-2.8,15.4,8.2,26l1.7,1.4c8.1,6.3,17.6,10.3,44.2,10.3" style="fill:none;stroke:#1d132d;stroke-linecap:round;stroke-linejoin:round;stroke-width:2px"/>
    </g>
  </g>
  <g>
    <title>05</title>
    <circle cx="148.2" cy="84.4" r="16.2" style="fill:#36c8e3"/>
    <circle cx="148.2" cy="84.4" r="16.2" style="fill:#dce3ea"/>
    <circle cx="92" cy="84.4" r="16.2" style="fill:#36c8e3"/>
    <circle cx="92" cy="84.4" r="16.2" style="fill:#dce3ea"/>
    <g style="opacity:0.5">
      <path d="M92,68.1a16.2,16.2,0,0,0-14.3,8.6,16.4,16.4,0,0,0,28.2-.7A16.2,16.2,0,0,0,92,68.1Z" style="fill:#fff"/>
    </g>
    <circle cx="92" cy="84.4" r="16.2" style="fill:none;stroke:#1d132d;stroke-linecap:round;stroke-linejoin:round;stroke-width:2px"/>
    <line x1="77" y1="78.1" x2="93.1" y2="78.1" style="fill:none;stroke:#1d132d;stroke-linecap:round;stroke-linejoin:round;stroke-width:2px"/>
    <line x1="77" y1="83.9" x2="107.8" y2="84" style="fill:none;stroke:#1d132d;stroke-linecap:round;stroke-linejoin:round;stroke-width:2px"/>
    <line x1="77" y1="89.7" x2="107" y2="90" style="fill:none;stroke:#1d132d;stroke-linecap:round;stroke-linejoin:round;stroke-width:2px"/>
    <line x1="89.6" y1="95.6" x2="103.2" y2="95.5" style="fill:none;stroke:#1d132d;stroke-linecap:round;stroke-linejoin:round;stroke-width:2px"/>
    <line x1="88" y1="72.6" x2="103.2" y2="72.6" style="fill:none;stroke:#1d132d;stroke-linecap:round;stroke-linejoin:round;stroke-width:2px"/>
    <line x1="80.8" y1="72.6" x2="84.3" y2="72.6" style="fill:none;stroke:#1d132d;stroke-linecap:round;stroke-linejoin:round;stroke-width:2px"/>
    <line x1="97.1" y1="78.1" x2="106.7" y2="78.1" style="fill:none;stroke:#1d132d;stroke-linecap:round;stroke-linejoin:round;stroke-width:2px"/>
    <g style="opacity:0.5">
      <path d="M148.2,68.1a16.2,16.2,0,0,0-14.3,8.6,16.4,16.4,0,0,0,28.2-.7A16.2,16.2,0,0,0,148.2,68.1Z" style="fill:#fff"/>
    </g>
    <circle cx="148.2" cy="84.4" r="16.2" style="fill:none;stroke:#1d132d;stroke-linecap:round;stroke-linejoin:round;stroke-width:2px"/>
    <line x1="133.3" y1="78.1" x2="149.3" y2="78.1" style="fill:none;stroke:#1d132d;stroke-linecap:round;stroke-linejoin:round;stroke-width:2px"/>
    <line x1="133.3" y1="83.9" x2="164.1" y2="84" style="fill:none;stroke:#1d132d;stroke-linecap:round;stroke-linejoin:round;stroke-width:2px"/>
    <line x1="133.3" y1="89.7" x2="163.2" y2="90" style="fill:none;stroke:#1d132d;stroke-linecap:round;stroke-linejoin:round;stroke-width:2px"/>
    <line x1="145.8" y1="95.6" x2="159.5" y2="95.5" style="fill:none;stroke:#1d132d;stroke-linecap:round;stroke-linejoin:round;stroke-width:2px"/>
    <line x1="144.2" y1="72.6" x2="159.5" y2="72.6" style="fill:none;stroke:#1d132d;stroke-linecap:round;stroke-linejoin:round;stroke-width:2px"/>
    <line x1="137" y1="72.6" x2="140.5" y2="72.6" style="fill:none;stroke:#1d132d;stroke-linecap:round;stroke-linejoin:round;stroke-width:2px"/>
    <line x1="153.3" y1="78.1" x2="162.9" y2="78.1" style="fill:none;stroke:#1d132d;stroke-linecap:round;stroke-linejoin:round;stroke-width:2px"/>
  </g>
  <g>
    <title>02</title>
    <path d="M126.4,33.7a6.5,6.5,0,0,0-11.8-1l-.4,1" style="fill:#2e4159"/>
    <path d="M125.9,18a11.3,11.3,0,0,0-7.2-10.6h0q0,.4,0,.8a11.3,11.3,0,0,1-3.2,7.9h0a5.8,5.8,0,1,0,9.5,6.2h0A11.3,11.3,0,0,0,125.9,18Z" style="fill:#dce3ea"/>
    <circle cx="119.5" cy="21.8" r="4.8" style="fill:#fff;opacity:0.5"/>
    <path d="M126.4,33.7a6.5,6.5,0,0,0-11.8-1l-.4,1Z" style="fill:none;stroke:#1d132d;stroke-linecap:round;stroke-linejoin:round;stroke-width:2px"/>
    <path d="M125.9,18a11.3,11.3,0,0,0-7.2-10.6h0q0,.4,0,.8a11.3,11.3,0,0,1-3.2,7.9h0a5.8,5.8,0,1,0,9.5,6.2h0A11.3,11.3,0,0,0,125.9,18Z" style="fill:none;stroke:#1d132d;stroke-linecap:round;stroke-linejoin:round;stroke-width:2px"/>
  </g>
</svg>