<svg xmlns="http://www.w3.org/2000/svg" xmlns:xlink="http://www.w3.org/1999/xlink" viewBox="0 0 240 240">
  <ellipse cx="120.5" cy="233.4" rx="43.7" ry="4.9" style="fill:#180621;opacity:0.15"/>
  <g>
    <title>03</title>
    <path d="M129.9,192.6c3.9,1.1,6.4,2.9,6.4,4.8s-7.3,6.1-16.3,6.1-16.3-2.7-16.3-6.1,2.5-3.7,6.5-4.8" style="fill:#36c8e3"/>
    <ellipse cx="120" cy="229.8" rx="4.1" ry="2.6" style="fill:#36c8e3"/>
    <ellipse cx="120" cy="221.2" rx="7.2" ry="3.2" style="fill:#36c8e3"/>
    <path d="M118.9,206.3H120c6.2,0,11.3,2,11.3,4.5s-5.1,4.5-11.3,4.5-11.3-2-11.3-4.5,4.5-4.3,10.2-4.5" style="fill:#36c8e3"/>
    <path d="M125.8,192.5c2.3.7,3.7,1.7,3.7,2.8s-4.3,3.6-9.6,3.6-9.6-1.6-9.6-3.6,1.5-2.2,3.8-2.8" style="fill:#180621;opacity:0.25"/>
    <path d="M124.5,206.2c1.8.5,2.9,1.4,2.9,2.3s-3.3,2.9-7.4,2.9-7.4-1.3-7.4-2.9,1.1-1.8,2.9-2.3" style="fill:#180621;opacity:0.25"/>
    <path d="M122.9,217.8c1.1.4,1.8.9,1.8,1.5s-2.1,1.9-4.7,1.9-4.7-.9-4.7-1.9.7-1.2,1.9-1.5" style="fill:#180621;opacity:0.25"/>
    <path d="M121.3,227.1a1.3,1.3,0,0,1,.8,1.1c0,.7-1,1.3-2.2,1.3s-2.2-.6-2.2-1.3a1.3,1.3,0,0,1,.9-1.1" style="fill:#180621;opacity:0.25"/>
    <path d="M137.2,180.3H102.8v7.4c0,3.2,7.7,5.8,17.2,5.8s17.2-2.6,17.2-5.8Z" style="fill:#2e4159"/>
    <path d="M129.9,192.6c3.9,1.1,6.4,2.9,6.4,4.8s-7.3,6.1-16.3,6.1-16.3-2.7-16.3-6.1,2.5-3.7,6.5-4.8" style="fill:none;stroke:#1d132d;stroke-linecap:round;stroke-linejoin:round;stroke-width:2px"/>
    <path d="M118.9,206.3H120c6.2,0,11.3,2,11.3,4.5s-5.1,4.5-11.3,4.5-11.3-2-11.3-4.5,4.5-4.3,10.2-4.5" style="fill:none;stroke:#1d132d;stroke-linecap:round;stroke-linejoin:round;stroke-width:2px"/>
    <ellipse cx="120" cy="221.2" rx="7.2" ry="3.2" style="fill:none;stroke:#1d132d;stroke-linecap:round;stroke-linejoin:round;stroke-width:2px"/>
    <ellipse cx="120" cy="229.8" rx="4.1" ry="2.6" style="fill:none;stroke:#1d132d;stroke-linecap:round;stroke-linejoin:round;stroke-width:2px"/>
    <path d="M137.2,180.3H102.8v7.4c0,3.2,7.7,5.8,17.2,5.8s17.2-2.6,17.2-5.8Z" style="fill:none;stroke:#1d132d;stroke-miterlimit:10;stroke-width:2px"/>
  </g>
  <g>
    <title>06</title>
    <path d="M94,160.1a144.8,144.8,0,0,1,13.8-23c-44.1,15.3-44.4,43-24.4,52.6A140.2,140.2,0,0,1,94,160.1Z" style="fill:#2e4159"/>
    <path d="M86.8,158.2a12.1,12.1,0,0,0-3.4-8.4l-2.3,1.9a9.2,9.2,0,0,1-9.9,15,20.2,20.2,0,0,0-.5,3,12.1,12.1,0,0,0,16.1-11.5Z" style="fill:#dce3ea"/>
    <path d="M94,160.1a144.8,144.8,0,0,1,13.8-23c-44.1,15.3-44.4,43-24.4,52.6A140.2,140.2,0,0,1,94,160.1Z" style="fill:none;stroke:#1d132d;stroke-linecap:round;stroke-linejoin:round;stroke-width:2px"/>
    <path d="M145.7,160.1a144.8,144.8,0,0,0-13.8-23c44.1,15.3,44.4,43,24.4,52.6A140.2,140.2,0,0,0,145.7,160.1Z" style="fill:#2e4159"/>
    <path d="M152.9,158.2a12.1,12.1,0,0,1,3.4-8.4l2.3,1.9a9.2,9.2,0,0,0,9.9,15,20.2,20.2,0,0,1,.5,3,12.1,12.1,0,0,1-16.1-11.5Z" style="fill:#dce3ea"/>
    <path d="M145.7,160.1a144.8,144.8,0,0,0-13.8-23c44.1,15.3,44.4,43,24.4,52.6A140.2,140.2,0,0,0,145.7,160.1Z" style="fill:none;stroke:#1d132d;stroke-linecap:round;stroke-linejoin:round;stroke-width:2px"/>
  </g>
  <g>
    <title>02</title>
    <path d="M66.3,79.8C62.2,67,42.2,62.8,42.2,62.8c3.1,6.6,3.9,12.4,4.7,17.7s2,20.5,19.1,22.6" style="fill:#2e4159"/>
    <path d="M49.2,65.4a1.7,1.7,0,0,1,.7.5,1.9,1.9,0,0,1,.3.8C50.7,69,53,76,53.1,77.4a26.8,26.8,0,0,0,3.1,11.8,14.5,14.5,0,0,0,9.4,7.3,16.7,16.7,0,0,0-.1,6.6,29.1,29.1,0,0,1-6.9-2.1,29,29,0,0,1-4-2.6c-1-.7-6-2.4-8.7-22.1-.5-3.3-1.6-6.4-2.3-9.6-.3-1.2-1.1-3.3.9-2.9A32.3,32.3,0,0,1,49.2,65.4Z" style="fill:#dce3ea"/>
    <path d="M66.3,79.8C62.2,67,42.2,62.8,42.2,62.8c3.1,6.6,3.9,12.4,4.7,17.7s2,20.5,19.1,22.6" style="fill:none;stroke:#1d132d;stroke-linecap:round;stroke-linejoin:round;stroke-width:2px"/>
    <path d="M50,65.6a60.8,60.8,0,0,1,2.5,11.8c.7,5.2,1.6,15.8,12.6,19.4" style="fill:none;stroke:#1d132d;stroke-linecap:round;stroke-linejoin:round;stroke-width:2px"/>
    <line x1="59.9" y1="94.5" x2="57.2" y2="99.1" style="fill:none;stroke:#1d132d;stroke-linecap:round;stroke-linejoin:round;stroke-width:2px"/>
    <line x1="55.3" y1="90.2" x2="50.7" y2="92.9" style="fill:none;stroke:#1d132d;stroke-linecap:round;stroke-linejoin:round;stroke-width:2px"/>
    <path d="M173.6,79.8c4.1-12.7,24.1-16.9,24.1-16.9-3.1,6.6-3.9,12.4-4.7,17.7s-2,20.5-19.1,22.6" style="fill:#2e4159"/>
    <path d="M190.7,65.4a1.7,1.7,0,0,0-.7.5,1.9,1.9,0,0,0-.3.8c-.5,2.3-2.8,9.3-2.9,10.7a26.8,26.8,0,0,1-3.1,11.8,14.5,14.5,0,0,1-9.4,7.3,16.7,16.7,0,0,1,.1,6.6,29.1,29.1,0,0,0,6.9-2.1,29,29,0,0,0,4-2.6c1-.7,6-2.4,8.7-22.1.5-3.3,1.6-6.4,2.3-9.6.3-1.2,1.1-3.3-.9-2.9A32.3,32.3,0,0,0,190.7,65.4Z" style="fill:#dce3ea"/>
    <path d="M173.6,79.8c4.1-12.7,24.1-16.9,24.1-16.9-3.1,6.6-3.9,12.4-4.7,17.7s-2,20.5-19.1,22.6" style="fill:none;stroke:#1d132d;stroke-linecap:round;stroke-linejoin:round;stroke-width:2px"/>
    <path d="M189.9,65.6a60.8,60.8,0,0,0-2.5,11.8c-.7,5.2-1.6,15.8-12.6,19.4" style="fill:none;stroke:#1d132d;stroke-linecap:round;stroke-linejoin:round;stroke-width:2px"/>
    <line x1="180" y1="94.5" x2="182.7" y2="99.1" style="fill:none;stroke:#1d132d;stroke-linecap:round;stroke-linejoin:round;stroke-width:2px"/>
    <line x1="184.6" y1="90.2" x2="189.2" y2="92.9" style="fill:none;stroke:#1d132d;stroke-linecap:round;stroke-linejoin:round;stroke-width:2px"/>
  </g>
  <g>
    <title>02</title>
    <path d="M131.3,34.4a76.8,76.8,0,0,0-11.1-.9,84.7,84.7,0,0,0-11.6.9C82.9,39,65.3,60.5,65.3,88.1c0,15.4,3.2,29.6,12.1,37.2s18.2,10.8,39.5,11.1h-7.7c-7,6.6-11.8,18.9-11.8,29.9,0,16,10.1,19.5,22.6,19.5s22.6-3.4,22.6-19.5c0-11.1-4.9-23.5-12-30.1h-5.2c19.6-.5,28.4-3.6,37.2-11.1s12.1-21.8,12.1-37.2C174.7,60.5,157.1,39,131.3,34.4Z" style="fill:#f557c7"/>
    <path d="M131.3,34.4a76.8,76.8,0,0,0-11.1-.9,84.7,84.7,0,0,0-11.6.9C82.9,39,65.3,60.5,65.3,88.1c0,15.4,3.2,29.6,12.1,37.2s18.2,10.8,39.5,11.1h-7.7c-7,6.6-11.8,18.9-11.8,29.9,0,16,10.1,19.5,22.6,19.5s22.6-3.4,22.6-19.5c0-11.1-4.9-23.5-12-30.1h-5.2c19.6-.5,28.4-3.6,37.2-11.1s12.1-21.8,12.1-37.2C174.7,60.5,157.1,39,131.3,34.4Z" style="fill:#f557c7"/>
    <path d="M131.3,34.4a76.8,76.8,0,0,0-11.1-.9,84.7,84.7,0,0,0-11.6.9C82.9,39,65.3,60.5,65.3,88.1c0,15.4,3.2,29.6,12.1,37.2s18.2,10.8,39.5,11.1h-7.7c-7,6.6-11.8,18.9-11.8,29.9,0,16,10.1,19.5,22.6,19.5s22.6-3.4,22.6-19.5c0-11.1-4.9-23.5-12-30.1h-5.2c19.6-.5,28.4-3.6,37.2-11.1s12.1-21.8,12.1-37.2C174.7,60.5,157.1,39,131.3,34.4Z" style="fill:#f557c7"/>
    <path d="M131.3,34.4a76.8,76.8,0,0,0-11.1-.9,84.7,84.7,0,0,0-11.6.9C82.9,39,65.3,60.5,65.3,88.1c0,15.4,3.2,29.6,12.1,37.2s18.2,10.8,39.5,11.1h-7.7c-7,6.6-11.8,18.9-11.8,29.9,0,16,10.1,19.5,22.6,19.5s22.6-3.4,22.6-19.5c0-11.1-4.9-23.5-12-30.1h-5.2c19.6-.5,28.4-3.6,37.2-11.1s12.1-21.8,12.1-37.2C174.7,60.5,157.1,39,131.3,34.4Z" style="fill:#f557c7"/>
    <path d="M131.3,34.4a76.8,76.8,0,0,0-11.1-.9,84.7,84.7,0,0,0-11.6.9C82.9,39,65.3,60.5,65.3,88.1c0,15.4,3.2,29.6,12.1,37.2s18.2,10.8,39.5,11.1h-7.7c-7,6.6-11.8,18.9-11.8,29.9,0,16,10.1,19.5,22.6,19.5s22.6-3.4,22.6-19.5c0-11.1-4.9-23.5-12-30.1h-5.2c19.6-.5,28.4-3.6,37.2-11.1s12.1-21.8,12.1-37.2C174.7,60.5,157.1,39,131.3,34.4Z" style="fill:#f557c7"/>
    <path d="M131.3,34.4a76.8,76.8,0,0,0-11.1-.9,84.7,84.7,0,0,0-11.6.9C82.9,39,65.3,60.5,65.3,88.1c0,15.4,3.2,29.6,12.1,37.2s18.2,10.8,39.5,11.1h-7.7c-7,6.6-11.8,18.9-11.8,29.9,0,16,10.1,19.5,22.6,19.5s22.6-3.4,22.6-19.5c0-11.1-4.9-23.5-12-30.1h-5.2c19.6-.5,28.4-3.6,37.2-11.1s12.1-21.8,12.1-37.2C174.7,60.5,157.1,39,131.3,34.4Z" style="fill:#f557c7"/>
    <path d="M131.3,34.4a76.8,76.8,0,0,0-11.1-.9,84.7,84.7,0,0,0-11.6.9C82.9,39,65.3,60.5,65.3,88.1c0,15.4,3.2,29.6,12.1,37.2s18.2,10.8,39.5,11.1h-7.7c-7,6.6-11.8,18.9-11.8,29.9,0,16,10.1,19.5,22.6,19.5s22.6-3.4,22.6-19.5c0-11.1-4.9-23.5-12-30.1h-5.2c19.6-.5,28.4-3.6,37.2-11.1s12.1-21.8,12.1-37.2C174.7,60.5,157.1,39,131.3,34.4Z" style="fill:#f557c7"/>
    <path d="M131.3,34.4a76.8,76.8,0,0,0-11.1-.9,84.7,84.7,0,0,0-11.6.9C82.9,39,65.3,60.5,65.3,88.1c0,15.4,3.2,29.6,12.1,37.2s18.2,10.8,39.5,11.1h-7.7c-7,6.6-11.8,18.9-11.8,29.9,0,16,10.1,19.5,22.6,19.5s22.6-3.4,22.6-19.5c0-11.1-4.9-23.5-12-30.1h-5.2c19.6-.5,28.4-3.6,37.2-11.1s12.1-21.8,12.1-37.2C174.7,60.5,157.1,39,131.3,34.4Z" style="fill:#f557c7"/>
    <path d="M125.4,136.4c19.6-.5,28.4-3.6,37.2-11.1s12.1-21.8,12.1-37.2c0-27.7-17.6-49.2-43.4-53.7a76.8,76.8,0,0,0-11.1-.9,84.7,84.7,0,0,0-11.6.9C82.9,39,65.3,60.5,65.3,88.1c0,15.4,3.2,29.6,12.1,37.2s18.2,10.8,39.5,11.1Z" style="fill:none;stroke:#1d132d;stroke-miterlimit:10;stroke-width:2px"/>
    <path d="M109.2,136.5c-7,6.6-11.8,18.9-11.8,29.9,0,16,10.1,19.5,22.6,19.5s22.6-3.4,22.6-19.5c0-11.1-4.9-23.5-12-30.1" style="fill:none;stroke:#1d132d;stroke-miterlimit:10;stroke-width:2px"/>
    <path d="M130.9,136.7c-3.4.7-18,.5-21.3-.1h-.4c-7,6.6-11.8,18.9-11.8,29.9,0,16,10.1,19.5,22.6,19.5s22.6-3.4,22.6-19.5C142.6,155.5,137.8,143.3,130.9,136.7Z" style="fill:#f557c7"/>
    <path d="M130.5,136.2c-3.1.3-6.1.6-9.4.6a111.1,111.1,0,0,1-12.3-.4L102,146a41,41,0,0,0,17.6,3.6,40.7,40.7,0,0,0,17.8-3.7C137.2,145.6,130.9,136.7,130.5,136.2Z" style="fill:#180621;opacity:0.15"/>
    <path d="M109.5,136.3l-.6.5c-6.9,6.7-11.5,18.8-11.5,29.6,0,16,10.1,19.5,22.6,19.5s22.6-3.4,22.6-19.5c0-11-4.8-23.3-11.8-29.9l-.2-.2" style="fill:none;stroke:#1d132d;stroke-linecap:round;stroke-linejoin:round;stroke-width:2px"/>
    <path d="M141.4,157H129.3a10.9,10.9,0,0,0-18.6,0H98.5a43.9,43.9,0,0,0-1.1,9.6q0,.9,0,1.8h13.2a10.9,10.9,0,0,0,18.7,0h13.2q0-.8,0-1.6A40.7,40.7,0,0,0,141.4,157ZM120,168.2a5.6,5.6,0,1,1,5.6-5.6A5.6,5.6,0,0,1,120,168.2Z" style="fill:#dce3ea"/>
    <path d="M141.4,157H129.3a10.9,10.9,0,0,0-18.6,0H98.5a43.9,43.9,0,0,0-1.1,9.6q0,.9,0,1.8h13.2a10.9,10.9,0,0,0,18.7,0h13.2q0-.8,0-1.6A40.7,40.7,0,0,0,141.4,157Z" style="fill:none;stroke:#1d132d;stroke-linecap:round;stroke-linejoin:round;stroke-width:2px"/>
    <circle cx="120" cy="162.6" r="5.6" style="fill:#36c8e3"/>
    <g style="opacity:0.5">
      <path d="M121.1,161.5a3.9,3.9,0,0,0,2.7-3.1,5.6,5.6,0,0,0-7.7,0v.4A3.9,3.9,0,0,0,121.1,161.5Z" style="fill:#fff"/>
    </g>
    <circle cx="120" cy="162.6" r="5.6" style="fill:none;stroke:#1d132d;stroke-linecap:round;stroke-linejoin:round;stroke-width:2px"/>
    <path d="M124.8,159.7a4.9,4.9,0,1,1-9.7,0,5.6,5.6,0,1,0,9.7,0Z" style="fill:#180621;opacity:0.15"/>
    <g style="opacity:0.30000000000000004">
      <path d="M108.7,44.1a84.7,84.7,0,0,1,11.6-.9,76.8,76.8,0,0,1,11.1.9c24.4,4.3,41.5,23.9,43.2,49.5q.1-2.7.1-5.5c0-27.7-17.6-49.2-43.4-53.7a76.8,76.8,0,0,0-11.1-.9,84.7,84.7,0,0,0-11.6.9C82.9,39,65.3,60.5,65.3,88.1q0,2.8.1,5.5C67.1,68,84.3,48.4,108.7,44.1Z" style="fill:#fff"/>
    </g>
    <path d="M125.4,136.4c19.6-.5,28.4-3.6,37.2-11.1s12.1-21.8,12.1-37.2c0-27.7-17.6-49.2-43.4-53.7a76.8,76.8,0,0,0-11.1-.9,84.7,84.7,0,0,0-11.6.9C82.9,39,65.3,60.5,65.3,88.1c0,15.4,3.2,29.6,12.1,37.2s18.2,10.8,39.5,11.1Z" style="fill:none;stroke:#1d132d;stroke-miterlimit:10;stroke-width:2px"/>
    <path d="M109.2,136.5c-7,6.6-11.8,18.9-11.8,29.9,0,16,10.1,19.5,22.6,19.5s22.6-3.4,22.6-19.5c0-11.1-4.9-23.5-12-30.1" style="fill:none;stroke:#1d132d;stroke-miterlimit:10;stroke-width:2px"/>
    <g style="opacity:0.30000000000000004">
      <path d="M108.7,44.1a84.7,84.7,0,0,1,11.6-.9,76.8,76.8,0,0,1,11.1.9c24.4,4.3,41.5,23.9,43.2,49.5q.1-2.7.1-5.5c0-27.7-17.6-49.2-43.4-53.7a76.8,76.8,0,0,0-11.1-.9,84.7,84.7,0,0,0-11.6.9C82.9,39,65.3,60.5,65.3,88.1q0,2.8.1,5.5C67.1,68,84.3,48.4,108.7,44.1Z" style="fill:#fff"/>
    </g>
    <path d="M125.4,136.4c19.6-.5,28.4-3.6,37.2-11.1s12.1-21.8,12.1-37.2c0-27.7-17.6-49.2-43.4-53.7a76.8,76.8,0,0,0-11.1-.9,84.7,84.7,0,0,0-11.6.9C82.9,39,65.3,60.5,65.3,88.1c0,15.4,3.2,29.6,12.1,37.2s18.2,10.8,39.5,11.1Z" style="fill:none;stroke:#1d132d;stroke-miterlimit:10;stroke-width:2px"/>
  </g>
  <g>
    <title>07</title>
    <path d="M119.8,136.6c-26.6,0-36.1-4-44.2-10.3L74,124.8c-11-10.7-8.2-26-8.2-26s12.7,12,37.9,16h0.1l15.5-10.2a2,2,0,0,1,2.2,0l15.2,10h0.2c24.4-4.1,37.4-15.8,37.4-15.8s2.8,15.4-8.2,26l-1.7,1.4c-8.1,6.3-17.6,10.3-44.2,10.3" style="fill:#dce3ea"/>
    <path d="M100.4,124.1c-0.1,2.9-3.2,4.1-7,3.3-18.6-4-16.6-15-16.6-15s10.2,4.8,17.9,6.4C98.2,119.5,100.5,121.6,100.4,124.1Z" style="fill:#2e4159"/>
    <path d="M119.8,136.6c-26.6,0-36.1-4-44.2-10.3L74,124.8c-11-10.7-8.2-26-8.2-26s12.7,12,37.9,16h0.1l15.5-10.2a2,2,0,0,1,2.2,0l15.2,10h0.2c24.4-4.1,37.4-15.8,37.4-15.8s2.8,15.4-8.2,26l-1.7,1.4c-8.1,6.3-17.6,10.3-44.2,10.3" style="fill:none;stroke:#1d132d;stroke-linecap:round;stroke-linejoin:round;stroke-width:2px"/>
    <path d="M100.4,124.1c-0.1,2.9-3.2,4.1-7,3.3-18.6-4-16.6-15-16.6-15s10.2,4.8,17.9,6.4C98.2,119.5,100.5,121.6,100.4,124.1Z" style="fill:none;stroke:#1d132d;stroke-linecap:round;stroke-linejoin:round;stroke-width:2px"/>
    <path d="M139.6,124.1c0.1,2.9,3.2,4.1,7,3.3,18.6-4,16.6-15,16.6-15s-10.2,4.8-17.9,6.4C141.8,119.5,139.5,121.6,139.6,124.1Z" style="fill:#2e4159"/>
    <path d="M139.6,124.1c0.1,2.9,3.2,4.1,7,3.3,18.6-4,16.6-15,16.6-15s-10.2,4.8-17.9,6.4C141.8,119.5,139.5,121.6,139.6,124.1Z" style="fill:none;stroke:#1d132d;stroke-linecap:round;stroke-linejoin:round;stroke-width:2px"/>
    <path d="M94.7,118.8c-7.7-1.6-17.9-6.4-17.9-6.4a8.8,8.8,0,0,0,.3,3.7c1.8,0.8,10.7,4.8,17.6,6.2,2.6,0.5,4.5,1.8,5.3,3.4a3.4,3.4,0,0,0,.4-1.6C100.5,121.6,98.2,119.5,94.7,118.8Z" style="fill:#180621;opacity:0.15"/>
    <polyline points="132 136 132 119.7 132 119.5 120.4 111.8 108.4 119.7 108.4 119.9 108.4 136.1" style="fill:#2e4159"/>
    <path d="M166.1,118.5l-1.7,1.4c-8.1,6.3-17.6,10.3-44.2,10.3h-0.4c-26.6,0-36.1-4-44.2-10.3L74,118.5a28.8,28.8,0,0,1-8.3-18.3c-0.4,4-.7,15.9,8.3,24.7l1.7,1.4c8.1,6.3,17.6,10.3,44.2,10.3h0.4c26.6,0,36.1-4,44.2-10.3l1.7-1.4c9-8.8,8.7-20.7,8.3-24.7A28.8,28.8,0,0,1,166.1,118.5Z" style="fill:#180621;opacity:0.15"/>
    <path d="M145.4,118.8c7.7-1.6,17.9-6.4,17.9-6.4a8.8,8.8,0,0,1-.3,3.7c-1.8.8-10.7,4.8-17.6,6.2-2.6.5-4.5,1.8-5.3,3.4a3.4,3.4,0,0,1-.4-1.6C139.5,121.6,141.8,119.5,145.4,118.8Z" style="fill:#180621;opacity:0.15"/>
    <polyline points="132 136 132 119.7 132 119.5 120.4 111.8 108.4 119.7 108.4 119.9 108.4 136.1" style="fill:none;stroke:#1d132d;stroke-linecap:round;stroke-linejoin:round;stroke-width:2px"/>
  </g>
  <g>
    <title>02</title>
    <g style="opacity:0.5">
      <path d="M108.6,81.5c.8,4.6.9,15.5.9,15.5s-32.2,12.7-35.4-9.6c-1.6-11.2,7.5-20.7,16.7-20.7S107,72.4,108.6,81.5Z" style="fill:#fff"/>
      <path d="M99.9,99.7c-7.6,1.2-15.1-1.6-16.3-10.2s6.1-16.8,13.5-16.8c3.7,0,9.1,2.4,11,7" style="fill:#fff"/>
    </g>
    <g style="opacity:0.5">
      <path d="M131.1,81.5c-.8,4.6-.9,15.5-.9,15.5s32.3,12.7,35.4-9.6c1.6-11.2-7.5-20.7-16.7-20.7S132.7,72.4,131.1,81.5Z" style="fill:#fff"/>
      <path d="M139.8,99.7c7.6,1.2,15.1-1.6,16.3-10.2s-6.1-16.8-13.5-16.8c-3.7,0-9.1,2.4-11,7" style="fill:#fff"/>
    </g>
    <path d="M84,83.3a18.6,18.6,0,0,0,.3,9.1c2.3,6.3,11,9.7,25.2,4.5l-1.4-17.2c-1.6-3.8-5.6-6.1-9-6.8L97,72.7C91.4,72.7,85.8,77.2,84,83.3Z" style="fill:#36c8e3"/>
    <path d="M155.7,83.3a18.6,18.6,0,0,1-.3,9.1c-2.3,6.3-11,9.7-25.2,4.5l1.4-17.2c1.6-3.8,5.6-6.1,9-6.8l2.1-.2C148.3,72.7,153.9,77.2,155.7,83.3Z" style="fill:#36c8e3"/>
    <path d="M99.8,95.1a8.6,8.6,0,1,1-4.1-16.7" style="fill:none;stroke:#fff;stroke-linecap:round;stroke-linejoin:round;stroke-width:2px"/>
    <circle cx="99.8" cy="77.9" r="1" style="fill:#fff"/>
    <path d="M139.8,95.1a8.6,8.6,0,0,0,4.1-16.7" style="fill:none;stroke:#fff;stroke-linecap:round;stroke-linejoin:round;stroke-width:2px"/>
    <circle cx="139.9" cy="77.9" r="1" style="fill:#fff"/>
    <g style="opacity:0.15">
      <path d="M163,75.2c-3.2-5.1-8.6-8.5-14.1-8.5-9.2,0-16.1,5.7-17.8,14.8-.8,4.6-.9,15.5-.9,15.5h.4c0-.3-.1-.7-.1-1a20.3,20.3,0,0,1,3.1-11.6,24.2,24.2,0,0,1,6.1-6.7h0l1.9-1.3h0l2-1.1h0l2.1-.9h0l2.2-.7h0a21.6,21.6,0,0,1,5.7-.8A22.3,22.3,0,0,1,163,75.2Z" style="fill:#180621"/>
      <path d="M91,66.8c-5.5,0-10.9,3.4-14.1,8.5a22.3,22.3,0,0,1,9.5-2.1,21.6,21.6,0,0,1,5.7.8h0l2.2.7h0l2.1.9h0l2,1.1h0l1.9,1.3h0a24.2,24.2,0,0,1,6.1,6.7,20.3,20.3,0,0,1,3.1,11.6c0,.3,0,.7-.1,1h.4s-.1-10.9-.9-15.5C107.2,72.4,100.3,66.8,91,66.8Z" style="fill:#180621"/>
    </g>
    <path d="M108.6,81.5c.8,4.6.9,15.5.9,15.5s-32.2,12.7-35.4-9.6c-1.6-11.2,7.5-20.7,16.7-20.7S107,72.4,108.6,81.5Z" style="fill:none;stroke:#1d132d;stroke-linecap:round;stroke-linejoin:round;stroke-width:2px"/>
    <path d="M99.9,99.7c-7.6,1.2-15.1-1.6-16.3-10.2s6.1-16.8,13.5-16.8c3.7,0,9.1,2.4,11,7" style="fill:none;stroke:#1d132d;stroke-linecap:round;stroke-linejoin:round;stroke-width:2px"/>
    <path d="M131.1,81.5c-.8,4.6-.9,15.5-.9,15.5s32.3,12.7,35.4-9.6c1.6-11.2-7.5-20.7-16.7-20.7S132.7,72.4,131.1,81.5Z" style="fill:none;stroke:#1d132d;stroke-linecap:round;stroke-linejoin:round;stroke-width:2px"/>
    <path d="M139.8,99.7c7.6,1.2,15.1-1.6,16.3-10.2s-6.1-16.8-13.5-16.8c-3.7,0-9.1,2.4-11,7" style="fill:none;stroke:#1d132d;stroke-linecap:round;stroke-linejoin:round;stroke-width:2px"/>
  </g>
  <g>
    <title>03</title>
    <path d="M120,28.1h0Z" style="fill:#ff81a2"/>
    <path d="M162.1,46.1h0c1.5-12.5-5.3-24.9-5.3-24.9a47.4,47.4,0,0,0-18.1,8.5l-.4.3a91.5,91.5,0,0,0-36.7,0l-.4-.3-2-1.4a29.8,29.8,0,0,0-7.4-4.1,42.9,42.9,0,0,0-8.7-2.9s-6.8,12.4-5.3,24.9h0A50.3,50.3,0,0,0,66.8,74.5h.1a62.9,62.9,0,0,1,35-27.2c3.9,4.1,9.3,7.8,18.1,10.8h0c8.8-3,14.2-6.7,18.1-10.7h.3a62.9,62.9,0,0,1,34.8,27.2h.1A50.3,50.3,0,0,0,162.1,46.1Z" style="fill:#dce3ea"/>
    <path d="M100.1,45.9A175.2,175.2,0,0,0,83.2,21.2s-6.9,13.2-5.5,25.7l.5.4c4.4-4.7,14.7-5.3,22.1-.1" style="fill:#180621;opacity:0.15"/>
    <path d="M140,46a175.2,175.2,0,0,1,16.9-24.7s6.9,13.2,5.5,25.7l-.5.4c-4.4-4.7-14.7-5.3-22.1-.1" style="fill:#180621;opacity:0.15"/>
    <path d="M120.3,57.9h0c-25.4-8.6-19.6-25.8-18.6-27.8.1-.2,10.7-2,18-2s18.1,1.5,18.8,2.1C141.1,33,145.7,49.3,120.3,57.9Z" style="fill:#fff;opacity:0.5"/>
    <path d="M156.6,21.4C142.3,35.5,145.4,49.6,120,58.2h0C94.6,49.6,97.7,35.4,83.4,21.4" style="fill:none;stroke:#1d132d;stroke-linecap:round;stroke-linejoin:round;stroke-width:2px"/>
    <path d="M138.2,47.4a62.9,62.9,0,0,1,35,27.2h.1a50.4,50.4,0,0,0-11.1-28.4h0c1.5-12.5-5.3-24.9-5.3-24.9a47.4,47.4,0,0,0-18.1,8.5l-.4.3A91.3,91.3,0,0,0,120,28.1h.1a91.3,91.3,0,0,0-18.4,1.9l-.4-.3a47.4,47.4,0,0,0-18.1-8.5s-6.8,12.4-5.3,24.9h0A50.4,50.4,0,0,0,66.8,74.5h.1a62.9,62.9,0,0,1,34.8-27.2" style="fill:none;stroke:#1d132d;stroke-linecap:round;stroke-linejoin:round;stroke-width:2px"/>
  </g>
</svg>