<svg xmlns="http://www.w3.org/2000/svg" xmlns:xlink="http://www.w3.org/1999/xlink" viewBox="0 0 240 240">
  <ellipse cx="120.5" cy="233.4" rx="43.7" ry="4.9" style="fill:#180621;opacity:0.15"/>
  <g>
    <title>atribute03</title>
    <path d="M103.1,189.7l-0.2-.2V219a4.2,4.2,0,1,0,8.3,0V193A23.8,23.8,0,0,1,103.1,189.7Z" style="fill:#ffde00"/>
    <path d="M128.4,192.9v19.6a4.2,4.2,0,0,0,8.3,0V190.1A34.4,34.4,0,0,1,128.4,192.9Z" style="fill:#f557c7"/>
    <path d="M111.3,193a3.9,3.9,0,0,0-.2,1.1v31.5a4.2,4.2,0,1,0,8.3,0V194a3.7,3.7,0,0,0,0-.5A32.2,32.2,0,0,1,111.3,193Z" style="fill:#c6db45"/>
    <path d="M127.5,192.7a1.5,1.5,0,0,1-1.2-.3l-2.9.4-3.3.4a3.9,3.9,0,0,0,0,.4v36.8a4.2,4.2,0,0,0,8.4,0V193.6a4,4,0,0,0-.1-1Z" style="fill:#36c8e3"/>
    <path d="M137.2,180.2H102.8v7.4c0,3.2,7.7,5.8,17.2,5.8s17.2-2.6,17.2-5.8v-7.4Z" style="fill:#2e4159"/>
    <path d="M137.2,180.2H102.8v7.4c0,3.2,7.7,5.8,17.2,5.8s17.2-2.6,17.2-5.8v-7.4Z" style="fill:none;stroke:#1d132d;stroke-miterlimit:10;stroke-width:2px"/>
    <path d="M137.2,180.2H102.8v7.4c0,3.2,7.7,5.8,17.2,5.8s17.2-2.6,17.2-5.8v-7.4Z" style="fill:#2e4159"/>
    <path d="M137.2,180.2H102.8v7.4c0,3.2,7.7,5.8,17.2,5.8s17.2-2.6,17.2-5.8v-7.4Z" style="fill:none;stroke:#1d132d;stroke-miterlimit:10;stroke-width:2px"/>
    <circle cx="124.7" cy="211.6" r="0.7" style="fill:#fff;opacity:0.8"/>
    <circle cx="115.5" cy="197.4" r="0.7" style="fill:#fff;opacity:0.8"/>
    <circle cx="116.8" cy="222.1" r="0.7" style="fill:#fff;opacity:0.8"/>
    <circle cx="122.9" cy="231" r="0.7" style="fill:#fff;opacity:0.8"/>
    <circle cx="116.8" cy="200.6" r="1.4" style="fill:#fff;opacity:0.8"/>
    <circle cx="106.8" cy="203.7" r="0.7" style="fill:#fff;opacity:0.8"/>
    <circle cx="124.1" cy="206.8" r="1.7" transform="translate(-109.9 148.3) rotate(-45)" style="fill:#fff;opacity:0.5"/>
    <circle cx="132.6" cy="201" r="1.2" style="fill:#fff;opacity:0.5"/>
    <circle cx="115.4" cy="218.3" r="2" style="fill:#fff;opacity:0.5"/>
    <line x1="102.8" y1="187.8" x2="102.8" y2="209.1" style="fill:none;stroke:#1d132d;stroke-linecap:round;stroke-linejoin:round;stroke-width:2px"/>
    <line x1="102.5" y1="215.7" x2="102.5" y2="224.3" style="fill:none;stroke:#1d132d;stroke-linecap:round;stroke-linejoin:round;stroke-width:2px"/>
    <line x1="102.6" y1="230.3" x2="102.6" y2="231.7" style="fill:none;stroke:#1d132d;stroke-linecap:round;stroke-linejoin:round;stroke-width:2px"/>
    <line x1="119.9" y1="232.3" x2="119.9" y2="233.6" style="fill:none;stroke:#1d132d;stroke-linecap:round;stroke-linejoin:round;stroke-width:2px"/>
    <line x1="136.9" y1="215.6" x2="136.9" y2="216.9" style="fill:none;stroke:#1d132d;stroke-linecap:round;stroke-linejoin:round;stroke-width:2px"/>
    <line x1="111.4" y1="196.9" x2="111.4" y2="192.8" style="fill:none;stroke:#1d132d;stroke-linecap:round;stroke-linejoin:round;stroke-width:2px"/>
    <line x1="137" y1="188.7" x2="137" y2="209.9" style="fill:none;stroke:#1d132d;stroke-linecap:round;stroke-linejoin:round;stroke-width:2px"/>
    <line x1="128.3" y1="205.9" x2="128.4" y2="193.6" style="fill:none;stroke:#1d132d;stroke-linecap:round;stroke-linejoin:round;stroke-width:2px"/>
    <line x1="128.2" y1="228.9" x2="128.3" y2="213.6" style="fill:none;stroke:#1d132d;stroke-linecap:round;stroke-linejoin:round;stroke-width:2px"/>
    <line x1="111.4" y1="229.3" x2="111.4" y2="203.3" style="fill:none;stroke:#1d132d;stroke-linecap:round;stroke-linejoin:round;stroke-width:2px"/>
    <line x1="120" y1="194.1" x2="120" y2="225.6" style="fill:none;stroke:#1d132d;stroke-linecap:round;stroke-linejoin:round;stroke-width:2px"/>
  </g>
  <g>
    <title>atribut</title>
    <rect x="25.9" y="138.5" width="23.7" height="6.66" transform="translate(7.5 -1.8) rotate(3)" style="fill:#dce3ea"/>
    <rect x="25.9" y="138.5" width="23.7" height="6.66" transform="translate(7.5 -1.8) rotate(3)" style="fill:#180621;opacity:0.15"/>
    <rect x="25.9" y="138.1" width="8.1" height="6.66" transform="translate(7.5 -1.4) rotate(3)" style="fill:#180621;opacity:0.15"/>
    <rect x="75.4" y="156.7" width="29.4" height="3.43" transform="translate(-83.7 103.7) rotate(-42.9)" style="fill:#dce3ea"/>
    <rect x="75.4" y="156.7" width="29.4" height="3.43" transform="translate(-83.7 103.7) rotate(-42.9)" style="fill:#180621;opacity:0.15"/>
    <rect x="72.7" y="144.6" width="19" height="9.13" rx="4.4" ry="4.4" transform="translate(-79 94.2) rotate(-42.3)" style="fill:#dce3ea"/>
    <path d="M85.1,152.4a4.6,4.6,0,0,1-7-5.7l-2.6,2.4a4.6,4.6,0,1,0,6.1,6.8l7.3-6.6a4.5,4.5,0,0,0,.8-1.1Z" style="fill:#180621;opacity:0.15"/>
    <path d="M63.8,160.4l14.4,1.1a5.2,5.2,0,0,1,4.5,5.7h0a5.2,5.2,0,0,1-5.7,4.5l-13.6-1.1" style="fill:#dce3ea"/>
    <path d="M81.2,163a5.2,5.2,0,0,1-5.5,3.5L64.2,165l-0.3,5.2L77,171.8A5.1,5.1,0,0,0,81.2,163Z" style="fill:#180621;opacity:0.15"/>
    <path d="M63.2,160.2l15,1.3a5.2,5.2,0,0,1,4.5,5.7h0a5.2,5.2,0,0,1-5.7,4.5l-14.2-1.2" style="fill:none;stroke:#1d132d;stroke-linecap:round;stroke-linejoin:round;stroke-width:2px"/>
    <circle cx="77.9" cy="166.6" r="0.6" transform="translate(-33.1 20) rotate(-12.1)" style="fill:none;stroke:#1d132d;stroke-linecap:round;stroke-linejoin:round;stroke-width:2px"/>
    <line x1="64.4" y1="165.3" x2="71.5" y2="166" style="fill:none;stroke:#1d132d;stroke-linecap:round;stroke-linejoin:round;stroke-width:2px"/>
    <path d="M99.6,152.8a8.5,8.5,0,0,1,3.6-16.1l7.2,0.4" style="fill:#2e4159"/>
    <path d="M100.8,147.7a8.4,8.4,0,0,1-4.3-7.4v-0.2a8.4,8.4,0,0,0,2.6,12.4A15.6,15.6,0,0,1,100.8,147.7Z" style="fill:#180621;opacity:0.15"/>
    <path d="M107.2,138.1a2.7,2.7,0,0,1-2,3.6c-1.9.6-5.9-.2-6.3-1.5s2-2.8,4-3.4S106.7,136.8,107.2,138.1Z" style="fill:#fff;opacity:0.2"/>
    <path d="M99.6,152.8a8.5,8.5,0,0,1,3.6-16.1,22.5,22.5,0,0,1,5.1.5" style="fill:none;stroke:#1d132d;stroke-linecap:round;stroke-linejoin:round;stroke-width:2px"/>
    <path d="M61.7,132.8l-8-14a5.6,5.6,0,0,0-4.4-2.8l-17.5-1.4a17.6,17.6,0,0,0-4.6,3.1v21.2l20.6,1.6,9.2,0.7C61.2,141.6,64,136.7,61.7,132.8Z" style="fill:#dce3ea"/>
    <path d="M61.7,132.8v-0.2a4.9,4.9,0,0,1-4.4,2l-9.2-.7-20.4-1.6H27.2v6.6l20.6,1.6,9.2,0.7C61.2,141.6,64,136.7,61.7,132.8Z" style="fill:#180621;opacity:0.15"/>
    <path d="M35.8,117.1l8,14c2.2,3.9-.5,8.8-4.8,8.5l-17.3-1.4c-4.3-.3-6.5-5.6-3.9-9.2l9.3-12.6A5.1,5.1,0,0,1,35.8,117.1Z" style="fill:#dce3ea"/>
    <path d="M34.3,121.6a3.7,3.7,0,0,1-3.9,3.6,4,4,0,0,1-3.5-4.2,3.7,3.7,0,0,1,3.9-3.6A4,4,0,0,1,34.3,121.6Z" style="fill:#fff;opacity:0.5"/>
    <path d="M39.2,131.1a3.7,3.7,0,0,1-3.9,3.6,4,4,0,0,1-3.5-4.2,3.7,3.7,0,0,1,3.9-3.6A4,4,0,0,1,39.2,131.1Z" style="fill:#fff;opacity:0.5"/>
    <path d="M29.2,129.5a3.7,3.7,0,0,1-3.9,3.6,4,4,0,0,1-3.5-4.2,3.7,3.7,0,0,1,3.9-3.6A4,4,0,0,1,29.2,129.5Z" style="fill:#fff;opacity:0.5"/>
    <path d="M33.4,123.1a2.7,2.7,0,0,1-2.9,2.7,3,3,0,0,1-2.6-3.2,2.7,2.7,0,0,1,2.9-2.7A3,3,0,0,1,33.4,123.1Z" style="fill:#2e4159"/>
    <path d="M28.4,130.8a2.7,2.7,0,0,1-2.9,2.7,3,3,0,0,1-2.6-3.2,2.7,2.7,0,0,1,2.9-2.7A3,3,0,0,1,28.4,130.8Z" style="fill:#2e4159"/>
    <path d="M37.9,131.6a2.7,2.7,0,0,1-2.9,2.7,3,3,0,0,1-2.6-3.2,2.7,2.7,0,0,1,2.9-2.7A3,3,0,0,1,37.9,131.6Z" style="fill:#2e4159"/>
    <path d="M39.2,135.9l-17.3-1.4a5.5,5.5,0,0,1-4.8-4.2c-1.3,3.4.9,7.6,4.6,7.9l17.3,1.4c3.8,0.3,6.3-3.5,5.3-7.1A5.1,5.1,0,0,1,39.2,135.9Z" style="fill:#180621;opacity:0.15"/>
    <path d="M25.7,144.3l21.5,2.1a17.9,17.9,0,0,1,16,19.1h0a17.1,17.1,0,0,1-18.7,15.7L25,179.3" style="fill:#dce3ea"/>
    <path d="M59.3,152.3c3.3,3.9,3.9,8.7,1.5,10.8s-7.2.7-10.4-3.4c-0.4-.6-3-10.7-4.8-12.7S56,148.4,59.3,152.3Z" style="fill:#fff;opacity:0.5"/>
    <path d="M41.3,163.3c-0.8,9.6-8.8,16.7-17.9,15.8s-16-9.4-15.2-19,8.8-16.7,17.9-15.8S42,153.7,41.3,163.3Z" style="fill:#dce3ea"/>
    <path d="M41.3,163.3c-0.8,9.6-8.8,16.7-17.9,15.8s-16-9.4-15.2-19,8.8-16.7,17.9-15.8S42,153.7,41.3,163.3Z" style="fill:#dce3ea"/>
    <path d="M24.7,174.6c-9.2-.9-16-9.4-15.2-19,0-.5.1-1,0.2-1.4a18,18,0,0,0-1.6,6c-0.8,9.6,6.1,18.1,15.2,19s16.4-5.5,17.8-14.4A16.3,16.3,0,0,1,24.7,174.6Z" style="fill:#180621;opacity:0.15"/>
    <path d="M63.1,165.4a17.1,17.1,0,0,1-17.4,10.5l-10.5-1-7.2,4.6,16.5,1.7a17.1,17.1,0,0,0,18.7-15.7h0Z" style="fill:#180621;opacity:0.15"/>
    <path d="M35.7,162.8a11.1,11.1,0,0,1-11.9,10.5c-6.1-.6-10.6-6.3-10.1-12.6a11.1,11.1,0,0,1,11.9-10.5C31.7,150.7,36.2,156.4,35.7,162.8Z" style="fill:#ff9a00"/>
    <path d="M35.7,162.6a7.6,7.6,0,0,1-8.2,7.2,7.9,7.9,0,0,1-6.9-8.7,7.6,7.6,0,0,1,8.2-7.2A7.9,7.9,0,0,1,35.7,162.6Z" style="fill:#e83a27"/>
    <path d="M24.7,153.8l1.1,0.2a7.7,7.7,0,0,0-6.4,7.1,8,8,0,0,0,5.8,8.5H23.4a7.9,7.9,0,0,1-6.9-8.7A7.6,7.6,0,0,1,24.7,153.8Z" style="fill:#fff"/>
    <path d="M41.3,163.3c-0.8,9.6-8.8,16.7-17.9,15.8s-16-9.4-15.2-19,8.8-16.7,17.9-15.8S42,153.7,41.3,163.3Z" style="fill:none;stroke:#1d132d;stroke-linecap:round;stroke-linejoin:round;stroke-width:2px"/>
    <path d="M43.3,146.1a20.9,20.9,0,0,1,7.5,17.7,20,20,0,0,1-11.2,16.6" style="fill:none;stroke:#1d132d;stroke-linecap:round;stroke-linejoin:round;stroke-width:2px"/>
    <path d="M35.7,162.8a11.1,11.1,0,0,1-11.9,10.5c-6.1-.6-10.6-6.3-10.1-12.6a11.1,11.1,0,0,1,11.9-10.5C31.7,150.7,36.2,156.4,35.7,162.8Z" style="fill:none;stroke:#1d132d;stroke-linecap:round;stroke-linejoin:round;stroke-width:2px"/>
    <path d="M35.5,162.6a7.6,7.6,0,0,1-8.2,7.2,8,8,0,0,1-6.9-8.7,7.6,7.6,0,0,1,8.2-7.2A8,8,0,0,1,35.5,162.6Z" style="fill:none;stroke:#1d132d;stroke-linecap:round;stroke-linejoin:round;stroke-width:2px"/>
    <path d="M31.2,162.2a2.2,2.2,0,0,1-2.4,2.1,2.3,2.3,0,0,1-2-2.5,2.2,2.2,0,0,1,2.4-2.1A2.3,2.3,0,0,1,31.2,162.2Z" style="fill:#ff9a00"/>
    <path d="M31.2,162.2a2.2,2.2,0,0,1-2.4,2.1,2.3,2.3,0,0,1-2-2.5,2.2,2.2,0,0,1,2.4-2.1A2.3,2.3,0,0,1,31.2,162.2Z" style="fill:none;stroke:#1d132d;stroke-linecap:round;stroke-linejoin:round;stroke-width:2px"/>
    <ellipse cx="38.8" cy="161.7" rx="0.9" ry="1" transform="translate(-127.5 161.6) rotate(-76.5)" style="fill:#fff;opacity:0.5"/>
    <path d="M25.4,144.3l21.7,2.1a17.9,17.9,0,0,1,16,19.1h0a17.1,17.1,0,0,1-18.7,15.7l-19.5-1.9" style="fill:none;stroke:#1d132d;stroke-linecap:round;stroke-linejoin:round;stroke-width:2px"/>
    <line x1="14.1" y1="160.1" x2="20.1" y2="160.7" style="fill:none;stroke:#1d132d;stroke-linecap:round;stroke-linejoin:round;stroke-width:2px"/>
    <line x1="21.1" y1="165.8" x2="15.4" y2="166.9" style="fill:none;stroke:#1d132d;stroke-linecap:round;stroke-linejoin:round;stroke-width:2px"/>
    <line x1="17.1" y1="154.3" x2="22.9" y2="155.3" style="fill:none;stroke:#1d132d;stroke-linecap:round;stroke-linejoin:round;stroke-width:2px"/>
    <path d="M35.8,117.2l8,14c2.2,3.9-.5,8.8-4.8,8.5l-17.3-1.4c-4.3-.3-6.5-5.6-3.9-9.2l9.3-12.6A5.1,5.1,0,0,1,35.8,117.2Z" style="fill:none;stroke:#1d132d;stroke-linecap:round;stroke-linejoin:round;stroke-width:2px"/>
    <path d="M27.4,133.5a2.6,2.6,0,0,1-3.9-.3,3.1,3.1,0,0,1,.2-4.2,2.6,2.6,0,0,1,3.9.3A3.1,3.1,0,0,1,27.4,133.5Z" style="fill:none;stroke:#1d132d;stroke-linecap:round;stroke-linejoin:round;stroke-width:2px"/>
    <path d="M37.3,134.3a2.6,2.6,0,0,1-3.9-.3,3.1,3.1,0,0,1,.2-4.2,2.6,2.6,0,0,1,3.9.3A3.1,3.1,0,0,1,37.3,134.3Z" style="fill:none;stroke:#1d132d;stroke-linecap:round;stroke-linejoin:round;stroke-width:2px"/>
    <path d="M32.6,126a2.6,2.6,0,0,1-3.9-.3,3.1,3.1,0,0,1,.2-4.2,2.6,2.6,0,0,1,3.9.3A3.1,3.1,0,0,1,32.6,126Z" style="fill:none;stroke:#1d132d;stroke-linecap:round;stroke-linejoin:round;stroke-width:2px"/>
    <path d="M31.7,114.4L49.2,116a5.6,5.6,0,0,1,4.4,2.8l8,14c2.2,3.9-.5,8.8-4.8,8.5l-9.2-.7-20.6-1.6" style="fill:none;stroke:#1d132d;stroke-linecap:round;stroke-linejoin:round;stroke-width:2px"/>
    <line x1="26.1" y1="138.6" x2="25.9" y2="143.7" style="fill:none;stroke:#1d132d;stroke-linecap:round;stroke-linejoin:round;stroke-width:2px"/>
    <line x1="33.6" y1="139.5" x2="33.3" y2="144.5" style="fill:none;stroke:#1d132d;stroke-linecap:round;stroke-linejoin:round;stroke-width:2px"/>
    <line x1="49.7" y1="140.9" x2="49.4" y2="146" style="fill:none;stroke:#1d132d;stroke-linecap:round;stroke-linejoin:round;stroke-width:2px"/>
    <rect x="72.7" y="144.6" width="19" height="9.13" rx="4.4" ry="4.4" transform="translate(-79 94.2) rotate(-42.3)" style="fill:none;stroke:#1d132d;stroke-linecap:round;stroke-linejoin:round;stroke-width:2px"/>
    <line x1="99.1" y1="153.2" x2="80.7" y2="170.9" style="fill:none;stroke:#1d132d;stroke-linecap:round;stroke-linejoin:round;stroke-width:2px"/>
    <line x1="95.8" y1="149.2" x2="81.4" y2="163" style="fill:none;stroke:#1d132d;stroke-linecap:round;stroke-linejoin:round;stroke-width:2px"/>
    <path d="M73,160.7a7.7,7.7,0,0,1,1.9-5.2" style="fill:none;stroke:#1d132d;stroke-linecap:round;stroke-linejoin:round;stroke-width:2px"/>
    <path d="M88.9,142.3a7.4,7.4,0,0,1,6.5-.6" style="fill:none;stroke:#1d132d;stroke-linecap:round;stroke-linejoin:round;stroke-width:2px"/>
    <rect x="190.4" y="138.5" width="23.7" height="6.66" transform="translate(411.6 272.8) rotate(177)" style="fill:#dce3ea"/>
    <rect x="190.4" y="138.5" width="23.7" height="6.66" transform="translate(411.6 272.8) rotate(177)" style="fill:#180621;opacity:0.15"/>
    <rect x="206" y="138.1" width="8.1" height="6.66" transform="translate(427.2 271.6) rotate(177)" style="fill:#180621;opacity:0.15"/>
    <rect x="135.2" y="156.7" width="29.4" height="3.43" transform="translate(151.9 376.6) rotate(-137.1)" style="fill:#dce3ea"/>
    <rect x="135.2" y="156.7" width="29.4" height="3.43" transform="translate(151.9 376.6) rotate(-137.1)" style="fill:#180621;opacity:0.15"/>
    <rect x="148.4" y="144.6" width="19" height="9.13" rx="4.4" ry="4.4" transform="translate(174.1 365.8) rotate(-137.7)" style="fill:#dce3ea"/>
    <path d="M155,152.4a4.6,4.6,0,0,0,7-5.7l2.6,2.4a4.6,4.6,0,0,1-6.1,6.8l-7.3-6.6a4.5,4.5,0,0,1-.8-1.1Z" style="fill:#180621;opacity:0.15"/>
    <path d="M176.2,160.4l-14.4,1.1a5.2,5.2,0,0,0-4.5,5.7h0a5.2,5.2,0,0,0,5.7,4.5l13.6-1.1" style="fill:#dce3ea"/>
    <path d="M158.8,163a5.2,5.2,0,0,0,5.5,3.5l11.5-1.5,0.3,5.2L163,171.8A5.1,5.1,0,0,1,158.8,163Z" style="fill:#180621;opacity:0.15"/>
    <path d="M176.8,160.2l-15,1.3a5.2,5.2,0,0,0-4.5,5.7h0a5.2,5.2,0,0,0,5.7,4.5l14.2-1.2" style="fill:none;stroke:#1d132d;stroke-linecap:round;stroke-linejoin:round;stroke-width:2px"/>
    <circle cx="162.1" cy="166.6" r="0.6" transform="translate(-34.7 290.3) rotate(-77.9)" style="fill:none;stroke:#1d132d;stroke-linecap:round;stroke-linejoin:round;stroke-width:2px"/>
    <line x1="175.6" y1="165.3" x2="168.5" y2="166" style="fill:none;stroke:#1d132d;stroke-linecap:round;stroke-linejoin:round;stroke-width:2px"/>
    <path d="M140.4,152.8a8.5,8.5,0,0,0-3.6-16.1l-7.2.4" style="fill:#2e4159"/>
    <path d="M139.3,147.7a8.4,8.4,0,0,0,4.3-7.4v-0.2a8.4,8.4,0,0,1-2.6,12.4A15.6,15.6,0,0,0,139.3,147.7Z" style="fill:#180621;opacity:0.15"/>
    <path d="M132.8,138.1a2.7,2.7,0,0,0,2,3.6c1.9,0.6,5.9-.2,6.3-1.5s-2-2.8-4-3.4S133.3,136.8,132.8,138.1Z" style="fill:#fff;opacity:0.2"/>
    <path d="M140.4,152.8a8.5,8.5,0,0,0-3.6-16.1,22.5,22.5,0,0,0-5.1.5" style="fill:none;stroke:#1d132d;stroke-linecap:round;stroke-linejoin:round;stroke-width:2px"/>
    <path d="M178.3,132.8l8-14a5.6,5.6,0,0,1,4.4-2.8l17.5-1.4a17.6,17.6,0,0,1,4.6,3.1v21.2l-20.6,1.6-9.2.7C178.8,141.6,176,136.7,178.3,132.8Z" style="fill:#dce3ea"/>
    <path d="M178.3,132.8v-0.2a4.9,4.9,0,0,0,4.4,2l9.2-.7,20.4-1.6h0.4v6.6l-20.6,1.6-9.2.7C178.8,141.6,176,136.7,178.3,132.8Z" style="fill:#180621;opacity:0.15"/>
    <path d="M204.2,117.1l-8,14c-2.2,3.9.5,8.8,4.8,8.5l17.3-1.4c4.3-.3,6.5-5.6,3.9-9.2l-9.3-12.6A5.1,5.1,0,0,0,204.2,117.1Z" style="fill:#dce3ea"/>
    <path d="M205.7,121.6a3.7,3.7,0,0,0,3.9,3.6,4,4,0,0,0,3.5-4.2,3.7,3.7,0,0,0-3.9-3.6A4,4,0,0,0,205.7,121.6Z" style="fill:#fff;opacity:0.5"/>
    <path d="M200.8,131.1a3.7,3.7,0,0,0,3.9,3.6,4,4,0,0,0,3.5-4.2,3.7,3.7,0,0,0-3.9-3.6A4,4,0,0,0,200.8,131.1Z" style="fill:#fff;opacity:0.5"/>
    <path d="M210.8,129.5a3.7,3.7,0,0,0,3.9,3.6,4,4,0,0,0,3.5-4.2,3.7,3.7,0,0,0-3.9-3.6A4,4,0,0,0,210.8,129.5Z" style="fill:#fff;opacity:0.5"/>
    <path d="M206.6,123.1a2.7,2.7,0,0,0,2.9,2.7,3,3,0,0,0,2.6-3.2,2.7,2.7,0,0,0-2.9-2.7A3,3,0,0,0,206.6,123.1Z" style="fill:#2e4159"/>
    <path d="M211.6,130.8a2.7,2.7,0,0,0,2.9,2.7,3,3,0,0,0,2.6-3.2,2.7,2.7,0,0,0-2.9-2.7A3,3,0,0,0,211.6,130.8Z" style="fill:#2e4159"/>
    <path d="M202.1,131.6a2.7,2.7,0,0,0,2.9,2.7,3,3,0,0,0,2.6-3.2,2.7,2.7,0,0,0-2.9-2.7A3,3,0,0,0,202.1,131.6Z" style="fill:#2e4159"/>
    <path d="M200.8,135.9l17.3-1.4a5.5,5.5,0,0,0,4.8-4.2c1.3,3.4-.9,7.6-4.6,7.9L201,139.6c-3.8.3-6.3-3.5-5.3-7.1A5.1,5.1,0,0,0,200.8,135.9Z" style="fill:#180621;opacity:0.15"/>
    <path d="M214.3,144.3l-21.5,2.1a17.9,17.9,0,0,0-16,19.1h0a17.1,17.1,0,0,0,18.7,15.7l19.3-1.9" style="fill:#dce3ea"/>
    <path d="M180.7,152.3c-3.3,3.9-3.9,8.7-1.5,10.8s7.2,0.7,10.4-3.4c0.4-.6,3-10.7,4.8-12.7S184,148.4,180.7,152.3Z" style="fill:#fff;opacity:0.5"/>
    <path d="M198.7,163.3c0.8,9.6,8.8,16.7,17.9,15.8s16-9.4,15.2-19-8.8-16.7-17.9-15.8S198,153.7,198.7,163.3Z" style="fill:#dce3ea"/>
    <path d="M198.7,163.3c0.8,9.6,8.8,16.7,17.9,15.8s16-9.4,15.2-19-8.8-16.7-17.9-15.8S198,153.7,198.7,163.3Z" style="fill:#dce3ea"/>
    <path d="M215.3,174.6c9.2-.9,16-9.4,15.2-19,0-.5-0.1-1-0.2-1.4a18,18,0,0,1,1.6,6c0.8,9.6-6.1,18.1-15.2,19s-16.4-5.5-17.8-14.4A16.3,16.3,0,0,0,215.3,174.6Z" style="fill:#180621;opacity:0.15"/>
    <path d="M176.9,165.4a17.1,17.1,0,0,0,17.4,10.5l10.5-1,7.2,4.6-16.5,1.7a17.1,17.1,0,0,1-18.7-15.7h0Z" style="fill:#180621;opacity:0.15"/>
    <path d="M204.3,162.8a11.1,11.1,0,0,0,11.9,10.5c6.1-.6,10.6-6.3,10.1-12.6a11.1,11.1,0,0,0-11.9-10.5C208.3,150.7,203.8,156.4,204.3,162.8Z" style="fill:#ff9a00"/>
    <path d="M204.3,162.6a7.6,7.6,0,0,0,8.2,7.2,7.9,7.9,0,0,0,6.9-8.7,7.6,7.6,0,0,0-8.2-7.2A7.9,7.9,0,0,0,204.3,162.6Z" style="fill:#e83a27"/>
    <path d="M215.3,153.8l-1.1.2a7.7,7.7,0,0,1,6.4,7.1,8,8,0,0,1-5.8,8.5h1.8a7.9,7.9,0,0,0,6.9-8.7A7.6,7.6,0,0,0,215.3,153.8Z" style="fill:#fff"/>
    <path d="M198.7,163.3c0.8,9.6,8.8,16.7,17.9,15.8s16-9.4,15.2-19-8.8-16.7-17.9-15.8S198,153.7,198.7,163.3Z" style="fill:none;stroke:#1d132d;stroke-linecap:round;stroke-linejoin:round;stroke-width:2px"/>
    <path d="M196.7,146.1a20.9,20.9,0,0,0-7.5,17.7,20,20,0,0,0,11.2,16.6" style="fill:none;stroke:#1d132d;stroke-linecap:round;stroke-linejoin:round;stroke-width:2px"/>
    <path d="M204.3,162.8a11.1,11.1,0,0,0,11.9,10.5c6.1-.6,10.6-6.3,10.1-12.6a11.1,11.1,0,0,0-11.9-10.5C208.3,150.7,203.8,156.4,204.3,162.8Z" style="fill:none;stroke:#1d132d;stroke-linecap:round;stroke-linejoin:round;stroke-width:2px"/>
    <path d="M204.5,162.6a7.6,7.6,0,0,0,8.2,7.2,8,8,0,0,0,6.9-8.7,7.6,7.6,0,0,0-8.2-7.2A8,8,0,0,0,204.5,162.6Z" style="fill:none;stroke:#1d132d;stroke-linecap:round;stroke-linejoin:round;stroke-width:2px"/>
    <path d="M208.8,162.2a2.2,2.2,0,0,0,2.4,2.1,2.3,2.3,0,0,0,2-2.5,2.2,2.2,0,0,0-2.4-2.1A2.3,2.3,0,0,0,208.8,162.2Z" style="fill:#ff9a00"/>
    <path d="M208.8,162.2a2.2,2.2,0,0,0,2.4,2.1,2.3,2.3,0,0,0,2-2.5,2.2,2.2,0,0,0-2.4-2.1A2.3,2.3,0,0,0,208.8,162.2Z" style="fill:none;stroke:#1d132d;stroke-linecap:round;stroke-linejoin:round;stroke-width:2px"/>
    <ellipse cx="201.2" cy="161.7" rx="1" ry="0.9" transform="translate(-32.3 51.6) rotate(-13.5)" style="fill:#fff;opacity:0.5"/>
    <path d="M214.6,144.3l-21.7,2.1a17.9,17.9,0,0,0-16,19.1h0a17.1,17.1,0,0,0,18.7,15.7l19.5-1.9" style="fill:none;stroke:#1d132d;stroke-linecap:round;stroke-linejoin:round;stroke-width:2px"/>
    <line x1="225.9" y1="160.1" x2="219.9" y2="160.7" style="fill:none;stroke:#1d132d;stroke-linecap:round;stroke-linejoin:round;stroke-width:2px"/>
    <line x1="218.9" y1="165.8" x2="224.6" y2="166.9" style="fill:none;stroke:#1d132d;stroke-linecap:round;stroke-linejoin:round;stroke-width:2px"/>
    <line x1="222.9" y1="154.3" x2="217.1" y2="155.3" style="fill:none;stroke:#1d132d;stroke-linecap:round;stroke-linejoin:round;stroke-width:2px"/>
    <path d="M204.2,117.2l-8,14c-2.2,3.9.5,8.8,4.8,8.5l17.3-1.4c4.3-.3,6.5-5.6,3.9-9.2l-9.3-12.6A5.1,5.1,0,0,0,204.2,117.2Z" style="fill:none;stroke:#1d132d;stroke-linecap:round;stroke-linejoin:round;stroke-width:2px"/>
    <path d="M212.6,133.5a2.6,2.6,0,0,0,3.9-.3,3.1,3.1,0,0,0-.2-4.2,2.6,2.6,0,0,0-3.9.3A3.1,3.1,0,0,0,212.6,133.5Z" style="fill:none;stroke:#1d132d;stroke-linecap:round;stroke-linejoin:round;stroke-width:2px"/>
    <path d="M202.7,134.3a2.6,2.6,0,0,0,3.9-.3,3.1,3.1,0,0,0-.2-4.2,2.6,2.6,0,0,0-3.9.3A3.1,3.1,0,0,0,202.7,134.3Z" style="fill:none;stroke:#1d132d;stroke-linecap:round;stroke-linejoin:round;stroke-width:2px"/>
    <path d="M207.5,126a2.6,2.6,0,0,0,3.9-.3,3.1,3.1,0,0,0-.2-4.2,2.6,2.6,0,0,0-3.9.3A3.1,3.1,0,0,0,207.5,126Z" style="fill:none;stroke:#1d132d;stroke-linecap:round;stroke-linejoin:round;stroke-width:2px"/>
    <path d="M208.4,114.4L190.8,116a5.6,5.6,0,0,0-4.4,2.8l-8,14c-2.2,3.9.5,8.8,4.8,8.5l9.2-.7,20.6-1.6" style="fill:none;stroke:#1d132d;stroke-linecap:round;stroke-linejoin:round;stroke-width:2px"/>
    <line x1="213.9" y1="138.6" x2="214.1" y2="143.7" style="fill:none;stroke:#1d132d;stroke-linecap:round;stroke-linejoin:round;stroke-width:2px"/>
    <line x1="206.4" y1="139.5" x2="206.7" y2="144.5" style="fill:none;stroke:#1d132d;stroke-linecap:round;stroke-linejoin:round;stroke-width:2px"/>
    <line x1="190.3" y1="140.9" x2="190.6" y2="146" style="fill:none;stroke:#1d132d;stroke-linecap:round;stroke-linejoin:round;stroke-width:2px"/>
    <rect x="148.4" y="144.6" width="19" height="9.13" rx="4.4" ry="4.4" transform="translate(174.1 365.8) rotate(-137.7)" style="fill:none;stroke:#1d132d;stroke-linecap:round;stroke-linejoin:round;stroke-width:2px"/>
    <line x1="140.9" y1="153.2" x2="159.4" y2="170.9" style="fill:none;stroke:#1d132d;stroke-linecap:round;stroke-linejoin:round;stroke-width:2px"/>
    <line x1="144.2" y1="149.2" x2="158.6" y2="163" style="fill:none;stroke:#1d132d;stroke-linecap:round;stroke-linejoin:round;stroke-width:2px"/>
    <path d="M167,160.7a7.7,7.7,0,0,0-1.9-5.2" style="fill:none;stroke:#1d132d;stroke-linecap:round;stroke-linejoin:round;stroke-width:2px"/>
    <path d="M151.1,142.3a7.4,7.4,0,0,0-6.5-.6" style="fill:none;stroke:#1d132d;stroke-linecap:round;stroke-linejoin:round;stroke-width:2px"/>
  </g>
  <g>
    <title>04</title>
    <g style="isolation:isolate">
      <polygon points="68.3 100.3 32.3 66.3 71 66.1 68.3 100.3" style="fill:#dce3ea"/>
      <path d="M65.5,78A47.7,47.7,0,0,1,34,66.3H32.3l36,33.9L70,77.8Z" style="fill:#180621;opacity:0.15;mix-blend-mode:multiply"/>
      <polygon points="68.3 100.3 32.3 66.3 71 66.1 68.3 100.3" style="fill:none;stroke:#1d132d;stroke-linecap:round;stroke-linejoin:round;stroke-width:2px"/>
      <path d="M52.4,85.3A27.5,27.5,0,0,1,68.2,67" style="fill:none;stroke:#1d132d;stroke-linecap:round;stroke-linejoin:round;stroke-width:2px"/>
      <path d="M43.9,77.1A27.5,27.5,0,0,1,53,66.4" style="fill:none;stroke:#1d132d;stroke-linecap:round;stroke-linejoin:round;stroke-width:2px"/>
      <polygon points="171.3 100.3 207.2 66.3 168.5 66.1 171.3 100.3" style="fill:#dce3ea"/>
      <path d="M174,78a47.7,47.7,0,0,0,31.5-11.7h1.7l-36,33.9-1.8-22.5Z" style="fill:#180621;opacity:0.15;mix-blend-mode:multiply"/>
      <polygon points="171.3 100.3 207.2 66.3 168.5 66.1 171.3 100.3" style="fill:none;stroke:#1d132d;stroke-linecap:round;stroke-linejoin:round;stroke-width:2px"/>
      <path d="M187.1,85.3A27.5,27.5,0,0,0,171.3,67" style="fill:none;stroke:#1d132d;stroke-linecap:round;stroke-linejoin:round;stroke-width:2px"/>
      <path d="M195.6,77.1a27.5,27.5,0,0,0-9.1-10.6" style="fill:none;stroke:#1d132d;stroke-linecap:round;stroke-linejoin:round;stroke-width:2px"/>
    </g>
  </g>
  <g>
    <title>06</title>
    <path d="M125.4,136.4c19.6-.5,28.4-3.6,37.2-11.1s12.1-21.8,12.1-37.2c0-27.7-17.6-49.2-43.4-53.7a76.8,76.8,0,0,0-11.1-.9,84.7,84.7,0,0,0-11.6.9C82.9,39,65.3,60.5,65.3,88.1c0,15.4,3.2,29.6,12.1,37.2s18.2,10.8,39.5,11.1Z" style="fill:none;stroke:#1d132d;stroke-miterlimit:10;stroke-width:2px"/>
    <path d="M109.2,136.5c-7,6.6-11.8,18.9-11.8,29.9,0,16,10.1,19.5,22.6,19.5s22.6-3.4,22.6-19.5c0-11.1-4.9-23.5-12-30.1" style="fill:none;stroke:#1d132d;stroke-miterlimit:10;stroke-width:2px"/>
    <path d="M131.3,34.4a76.8,76.8,0,0,0-11.1-.9,84.7,84.7,0,0,0-11.6.9C82.9,39,65.3,60.5,65.3,88.1c0,15.4,3.2,29.6,12.1,37.2s18.2,10.8,39.5,11.1h-7.7c-7,6.6-11.8,18.9-11.8,29.9,0,16,10.1,19.5,22.6,19.5s22.6-3.4,22.6-19.5c0-11.1-4.9-23.5-12-30.1h-5.2c19.6-.5,28.4-3.6,37.2-11.1s12.1-21.8,12.1-37.2C174.7,60.5,157.1,39,131.3,34.4Z" style="fill:#5f3535"/>
    <path d="M130.9,136.7c-3.4.7-18,.5-21.3-.1h-.4c-7,6.6-11.8,18.9-11.8,29.9,0,16,10.1,19.5,22.6,19.5s22.6-3.4,22.6-19.5C142.6,155.5,137.8,143.3,130.9,136.7Z" style="fill:#5f3535"/>
    <path d="M140.6,154.1l-9.3,7.9L120,152.3l-11.3,9.8-9.3-8.3a46,46,0,0,0-1.9,10.9l11.2,9.5,11.3-9.8,11.4,9.8,11.2-9.5a45.9,45.9,0,0,0-1.8-10.7" style="fill:#ff9a00"/>
    <path d="M140.6,154.1l-9.3,7.9L120,152.3l-11.3,9.8-9.3-8.3a46,46,0,0,0-1.9,10.9l11.2,9.5,11.3-9.8,11.4,9.8,11.2-9.5a45.9,45.9,0,0,0-1.8-10.7" style="fill:none;stroke:#1d132d;stroke-linecap:round;stroke-linejoin:round;stroke-width:2px"/>
    <path d="M130.5,136.2c-3.1.3-6.1.6-9.4.6a111.1,111.1,0,0,1-12.3-.4L102,146a41,41,0,0,0,17.6,3.6,40.7,40.7,0,0,0,17.8-3.7C137.2,145.6,130.9,136.7,130.5,136.2Z" style="fill:#180621;opacity:0.15"/>
    <path d="M109.5,136.3l-.6.5c-6.9,6.7-11.5,18.8-11.5,29.6,0,16,10.1,19.5,22.6,19.5s22.6-3.4,22.6-19.5c0-11-4.8-23.3-11.8-29.9l-.2-.2" style="fill:none;stroke:#1d132d;stroke-linecap:round;stroke-linejoin:round;stroke-width:2px"/>
    <g style="opacity:0.30000000000000004">
      <path d="M108.7,44.1a84.7,84.7,0,0,1,11.6-.9,76.8,76.8,0,0,1,11.1.9c24.4,4.3,41.5,23.9,43.2,49.5q.1-2.7.1-5.5c0-27.7-17.6-49.2-43.4-53.7a76.8,76.8,0,0,0-11.1-.9,84.7,84.7,0,0,0-11.6.9C82.9,39,65.3,60.5,65.3,88.1q0,2.8.1,5.5C67.1,68,84.3,48.4,108.7,44.1Z" style="fill:#fff"/>
    </g>
    <path d="M125.4,136.4c19.6-.5,28.4-3.6,37.2-11.1s12.1-21.8,12.1-37.2c0-27.7-17.6-49.2-43.4-53.7a76.8,76.8,0,0,0-11.1-.9,84.7,84.7,0,0,0-11.6.9C82.9,39,65.3,60.5,65.3,88.1c0,15.4,3.2,29.6,12.1,37.2s18.2,10.8,39.5,11.1Z" style="fill:none;stroke:#1d132d;stroke-miterlimit:10;stroke-width:2px"/>
    <path d="M109.2,136.5c-7,6.6-11.8,18.9-11.8,29.9,0,16,10.1,19.5,22.6,19.5s22.6-3.4,22.6-19.5c0-11.1-4.9-23.5-12-30.1" style="fill:none;stroke:#1d132d;stroke-miterlimit:10;stroke-width:2px"/>
    <g style="opacity:0.30000000000000004">
      <path d="M108.7,44.1a84.7,84.7,0,0,1,11.6-.9,76.8,76.8,0,0,1,11.1.9c24.4,4.3,41.5,23.9,43.2,49.5q.1-2.7.1-5.5c0-27.7-17.6-49.2-43.4-53.7a76.8,76.8,0,0,0-11.1-.9,84.7,84.7,0,0,0-11.6.9C82.9,39,65.3,60.5,65.3,88.1q0,2.8.1,5.5C67.1,68,84.3,48.4,108.7,44.1Z" style="fill:#fff"/>
    </g>
    <path d="M125.4,136.4c19.6-.5,28.4-3.6,37.2-11.1s12.1-21.8,12.1-37.2c0-27.7-17.6-49.2-43.4-53.7a76.8,76.8,0,0,0-11.1-.9,84.7,84.7,0,0,0-11.6.9C82.9,39,65.3,60.5,65.3,88.1c0,15.4,3.2,29.6,12.1,37.2s18.2,10.8,39.5,11.1Z" style="fill:none;stroke:#1d132d;stroke-miterlimit:10;stroke-width:2px"/>
  </g>
  <g>
    <title>05</title>
    <path d="M120.2,136.6c26.6,0,36.1-4,44.2-10.3l1.7-1.4c11-10.7,8.2-26,8.2-26s-18.9,9.4-54.2,9.4-54.2-9.4-54.2-9.4-2.8,15.4,8.2,26l1.7,1.4c8.1,6.3,17.6,10.3,44.2,10.3" style="fill:#dce3ea"/>
    <path d="M148.4,133.9a18.5,18.5,0,0,1-18.5-18.5v-.2h-20v.3a18.5,18.5,0,0,1-18.5,18.5,167.7,167.7,0,0,0,28.4,3A167.4,167.4,0,0,0,148.4,133.9Z" style="fill:#2e4159"/>
    <path d="M166.1,119.1l-1.7,1.5c-8.1,6.3-17.6,9.4-44.2,9.4h-.4c-26.6,0-36.1-3.1-44.2-9.4L74,119.1a29.2,29.2,0,0,1-8.4-18.7c-.4,4.2-.5,15.9,8.4,24.6l1.7,1.5c8.1,6.3,17.6,9.4,44.2,9.4h.4c26.6,0,36.1-3.1,44.2-9.4l1.7-1.5c8.9-8.7,8.7-20.4,8.4-24.6A29.2,29.2,0,0,1,166.1,119.1Z" style="fill:#180621;opacity:0.15"/>
    <path d="M120.2,136.6c26.6,0,36.1-4,44.2-10.3l1.7-1.4c11-10.7,8.2-26,8.2-26s-18.9,9.4-54.2,9.4-54.2-9.4-54.2-9.4-2.8,15.4,8.2,26l1.7,1.4c8.1,6.3,17.6,10.3,44.2,10.3" style="fill:none;stroke:#1d132d;stroke-linecap:round;stroke-linejoin:round;stroke-width:2px"/>
    <path d="M148.4,133.9a18.5,18.5,0,0,1-18.5-18.5v-.2h-20v.3a18.5,18.5,0,0,1-18.5,18.5" style="fill:none;stroke:#1d132d;stroke-linecap:round;stroke-linejoin:round;stroke-width:2px"/>
  </g>
  <g>
    <title>06</title>
    <path d="M78.4,76.9a16.2,16.2,0,1,0,30.5,6.3Z" style="fill:#1d132d"/>
    <path d="M78.4,76.9a16.2,16.2,0,1,0,30.5,6.3Z" style="fill:none;stroke:#1d132d;stroke-linecap:round;stroke-linejoin:round;stroke-width:2px"/>
    <path d="M88.2,83a6.1,6.1,0,1,0,10.4,2Z" style="fill:#ff9a00"/>
    <path d="M162.9,76.9a16.2,16.2,0,1,1-30.5,6.3Z" style="fill:#1d132d"/>
    <path d="M162.9,76.9a16.2,16.2,0,1,1-30.5,6.3Z" style="fill:none;stroke:#1d132d;stroke-linecap:round;stroke-linejoin:round;stroke-width:2px"/>
    <path d="M153.1,82.9a6.1,6.1,0,1,1-10.4,2Z" style="fill:#ff9a00"/>
  </g>
  <g>
    <title>03</title>
    <path d="M120,28.1h0Z" style="fill:#ff81a2"/>
    <path d="M162.1,46.1h0c1.5-12.5-5.3-24.9-5.3-24.9a47.4,47.4,0,0,0-18.1,8.5l-.4.3a91.5,91.5,0,0,0-36.7,0l-.4-.3-2-1.4a29.8,29.8,0,0,0-7.4-4.1,42.9,42.9,0,0,0-8.7-2.9s-6.8,12.4-5.3,24.9h0A50.3,50.3,0,0,0,66.8,74.5h.1a62.9,62.9,0,0,1,35-27.2c3.9,4.1,9.3,7.8,18.1,10.8h0c8.8-3,14.2-6.7,18.1-10.7h.3a62.9,62.9,0,0,1,34.8,27.2h.1A50.3,50.3,0,0,0,162.1,46.1Z" style="fill:#dce3ea"/>
    <path d="M100.1,45.9A175.2,175.2,0,0,0,83.2,21.2s-6.9,13.2-5.5,25.7l.5.4c4.4-4.7,14.7-5.3,22.1-.1" style="fill:#180621;opacity:0.15"/>
    <path d="M140,46a175.2,175.2,0,0,1,16.9-24.7s6.9,13.2,5.5,25.7l-.5.4c-4.4-4.7-14.7-5.3-22.1-.1" style="fill:#180621;opacity:0.15"/>
    <path d="M120.3,57.9h0c-25.4-8.6-19.6-25.8-18.6-27.8.1-.2,10.7-2,18-2s18.1,1.5,18.8,2.1C141.1,33,145.7,49.3,120.3,57.9Z" style="fill:#fff;opacity:0.5"/>
    <path d="M156.6,21.4C142.3,35.5,145.4,49.6,120,58.2h0C94.6,49.6,97.7,35.4,83.4,21.4" style="fill:none;stroke:#1d132d;stroke-linecap:round;stroke-linejoin:round;stroke-width:2px"/>
    <path d="M138.2,47.4a62.9,62.9,0,0,1,35,27.2h.1a50.4,50.4,0,0,0-11.1-28.4h0c1.5-12.5-5.3-24.9-5.3-24.9a47.4,47.4,0,0,0-18.1,8.5l-.4.3A91.3,91.3,0,0,0,120,28.1h.1a91.3,91.3,0,0,0-18.4,1.9l-.4-.3a47.4,47.4,0,0,0-18.1-8.5s-6.8,12.4-5.3,24.9h0A50.4,50.4,0,0,0,66.8,74.5h.1a62.9,62.9,0,0,1,34.8-27.2" style="fill:none;stroke:#1d132d;stroke-linecap:round;stroke-linejoin:round;stroke-width:2px"/>
  </g>
</svg>