<svg xmlns="http://www.w3.org/2000/svg" xmlns:xlink="http://www.w3.org/1999/xlink" viewBox="0 0 240 240">
  <ellipse cx="120.5" cy="233.4" rx="43.7" ry="4.9" style="fill:#180621;opacity:0.15"/>
  <g>
    <title>atribute03</title>
    <path d="M103.1,189.7l-0.2-.2V219a4.2,4.2,0,1,0,8.3,0V193A23.8,23.8,0,0,1,103.1,189.7Z" style="fill:#ffde00"/>
    <path d="M128.4,192.9v19.6a4.2,4.2,0,0,0,8.3,0V190.1A34.4,34.4,0,0,1,128.4,192.9Z" style="fill:#f557c7"/>
    <path d="M111.3,193a3.9,3.9,0,0,0-.2,1.1v31.5a4.2,4.2,0,1,0,8.3,0V194a3.7,3.7,0,0,0,0-.5A32.2,32.2,0,0,1,111.3,193Z" style="fill:#c6db45"/>
    <path d="M127.5,192.7a1.5,1.5,0,0,1-1.2-.3l-2.9.4-3.3.4a3.9,3.9,0,0,0,0,.4v36.8a4.2,4.2,0,0,0,8.4,0V193.6a4,4,0,0,0-.1-1Z" style="fill:#36c8e3"/>
    <path d="M137.2,180.2H102.8v7.4c0,3.2,7.7,5.8,17.2,5.8s17.2-2.6,17.2-5.8v-7.4Z" style="fill:#2e4159"/>
    <path d="M137.2,180.2H102.8v7.4c0,3.2,7.7,5.8,17.2,5.8s17.2-2.6,17.2-5.8v-7.4Z" style="fill:none;stroke:#1d132d;stroke-miterlimit:10;stroke-width:2px"/>
    <path d="M137.2,180.2H102.8v7.4c0,3.2,7.7,5.8,17.2,5.8s17.2-2.6,17.2-5.8v-7.4Z" style="fill:#2e4159"/>
    <path d="M137.2,180.2H102.8v7.4c0,3.2,7.7,5.8,17.2,5.8s17.2-2.6,17.2-5.8v-7.4Z" style="fill:none;stroke:#1d132d;stroke-miterlimit:10;stroke-width:2px"/>
    <circle cx="124.7" cy="211.6" r="0.7" style="fill:#fff;opacity:0.8"/>
    <circle cx="115.5" cy="197.4" r="0.7" style="fill:#fff;opacity:0.8"/>
    <circle cx="116.8" cy="222.1" r="0.7" style="fill:#fff;opacity:0.8"/>
    <circle cx="122.9" cy="231" r="0.7" style="fill:#fff;opacity:0.8"/>
    <circle cx="116.8" cy="200.6" r="1.4" style="fill:#fff;opacity:0.8"/>
    <circle cx="106.8" cy="203.7" r="0.7" style="fill:#fff;opacity:0.8"/>
    <circle cx="124.1" cy="206.8" r="1.7" transform="translate(-109.9 148.3) rotate(-45)" style="fill:#fff;opacity:0.5"/>
    <circle cx="132.6" cy="201" r="1.2" style="fill:#fff;opacity:0.5"/>
    <circle cx="115.4" cy="218.3" r="2" style="fill:#fff;opacity:0.5"/>
    <line x1="102.8" y1="187.8" x2="102.8" y2="209.1" style="fill:none;stroke:#1d132d;stroke-linecap:round;stroke-linejoin:round;stroke-width:2px"/>
    <line x1="102.5" y1="215.7" x2="102.5" y2="224.3" style="fill:none;stroke:#1d132d;stroke-linecap:round;stroke-linejoin:round;stroke-width:2px"/>
    <line x1="102.6" y1="230.3" x2="102.6" y2="231.7" style="fill:none;stroke:#1d132d;stroke-linecap:round;stroke-linejoin:round;stroke-width:2px"/>
    <line x1="119.9" y1="232.3" x2="119.9" y2="233.6" style="fill:none;stroke:#1d132d;stroke-linecap:round;stroke-linejoin:round;stroke-width:2px"/>
    <line x1="136.9" y1="215.6" x2="136.9" y2="216.9" style="fill:none;stroke:#1d132d;stroke-linecap:round;stroke-linejoin:round;stroke-width:2px"/>
    <line x1="111.4" y1="196.9" x2="111.4" y2="192.8" style="fill:none;stroke:#1d132d;stroke-linecap:round;stroke-linejoin:round;stroke-width:2px"/>
    <line x1="137" y1="188.7" x2="137" y2="209.9" style="fill:none;stroke:#1d132d;stroke-linecap:round;stroke-linejoin:round;stroke-width:2px"/>
    <line x1="128.3" y1="205.9" x2="128.4" y2="193.6" style="fill:none;stroke:#1d132d;stroke-linecap:round;stroke-linejoin:round;stroke-width:2px"/>
    <line x1="128.2" y1="228.9" x2="128.3" y2="213.6" style="fill:none;stroke:#1d132d;stroke-linecap:round;stroke-linejoin:round;stroke-width:2px"/>
    <line x1="111.4" y1="229.3" x2="111.4" y2="203.3" style="fill:none;stroke:#1d132d;stroke-linecap:round;stroke-linejoin:round;stroke-width:2px"/>
    <line x1="120" y1="194.1" x2="120" y2="225.6" style="fill:none;stroke:#1d132d;stroke-linecap:round;stroke-linejoin:round;stroke-width:2px"/>
  </g>
  <g>
    <title>16</title>
    <path d="M59.5,160.1c-4,1.7-11.6,7.1-11.6,7.1s-5.6-11.4,9.9-14" style="fill:#dce3ea"/>
    <path d="M77.1,172.7c-1.9,3.9-4.3,14.2-4.3,14.2s-11-4.7-2.5-16.1" style="fill:#dce3ea"/>
    <path d="M66.7,168.8c-3.2,2.9-9.2,11.5-9.2,11.5s-8.8-9.1,5.1-16.4" style="fill:#dce3ea"/>
    <path d="M53.6,163.5a50.5,50.5,0,0,1,5.9-3.3l-1.7-6.9a16.6,16.6,0,0,0-7.8,3.1A11.9,11.9,0,0,1,53.6,163.5Z" style="fill:#180621;opacity:0.15"/>
    <path d="M70.4,179.4l1.8,1.9a12.2,12.2,0,0,1,1.4,2.2,79,79,0,0,1,3.4-10.8l-6.8-1.9c-2.2,3-3.1,5.5-3.2,7.6A3.6,3.6,0,0,1,70.4,179.4Z" style="fill:#180621;opacity:0.15"/>
    <path d="M62.6,163.9a16.8,16.8,0,0,0-6.4,5.2c2.5,0.6,4.3,2.9,5.6,5.3a47.2,47.2,0,0,1,4.9-5.6Z" style="fill:#180621;opacity:0.15"/>
    <path d="M87.3,153.9c-0.7,6-4.4,13.1-8.9,17.6H78.3c-2.3,2.3-8.4-.2-13.7-5.6s-7.8-11.5-5.5-13.8h0.1c4.5-4.5,11.6-8.2,17.6-8.8,0,0,6.3,2.3,7.6,3.6S87.3,153.9,87.3,153.9Z" style="fill:#2e4159"/>
    <path d="M87.3,153.9c-0.7,6-4.4,13.1-8.9,17.6H78.3c-2.3,2.3-8.4-.2-13.7-5.6s-7.8-11.5-5.5-13.8h0.1c4.5-4.5,11.6-8.2,17.6-8.8,0,0,6.3,2.3,7.6,3.6S87.3,153.9,87.3,153.9Z" style="fill:#2e4159"/>
    <path d="M86.2,150.2c1.2,2,1.5,3.8.6,4.7s-4.8-.1-7.9-3.2-4.4-6.6-3.1-7.9,3.1-.4,5.4,1.1" style="fill:#180621;opacity:0.15"/>
    <path d="M105.5,136.9c-10.7.2-18.2,3-26,9.8H79.4a13.3,13.3,0,0,0,2.9,3.4,9.9,9.9,0,0,0,2.3,1.1,29.7,29.7,0,0,1,18.9-7.6l2.4-3.7,2.3-3.2h-2.6Z" style="fill:#dce3ea"/>
    <path d="M105.5,136.9a50.1,50.1,0,0,0-6.4.5c-0.3,3.5-3,5.9-6.4,7.2s-7.4,2.7-10.8.1l-2.1,1.8,0.6,0.7a7,7,0,0,0,2.5,2.5,10.4,10.4,0,0,0,2.8.8,29.4,29.4,0,0,1,17.9-6.7l2.4-3.7,2.3-3.2h-2.6Z" style="fill:#180621;opacity:0.15"/>
    <path d="M86.2,154.5H84.9a29.9,29.9,0,0,1-1.7,3.7,10.2,10.2,0,0,1-16.6,1.8l-0.2-.2c-3-3.5-5.2-6.8-5.5-9.4l-1.8,1.6H59.1c-2.3,2.3.2,8.4,5.5,13.8s11.5,7.8,13.7,5.6h0.1c4.5-4.5,8.2-11.5,8.9-17.5Z" style="fill:#180621;opacity:0.15"/>
    <path d="M80.3,146.1c7.5-6.4,14.9-9,25.2-9.2h2.6l-2.2,3.2-2.4,3.7a29.5,29.5,0,0,0-18.4,7.1" style="fill:none;stroke:#1d132d;stroke-linecap:round;stroke-linejoin:round;stroke-width:2px"/>
    <path d="M78.3,171.6c-2.3,2.3-8.4-.2-13.7-5.6s-7.8-11.5-5.5-13.8h0.1" style="fill:none;stroke:#1d132d;stroke-linecap:round;stroke-linejoin:round;stroke-width:2px"/>
    <path d="M86.2,150.2c1.2,2,1.5,3.8.6,4.7s-4.8-.1-7.9-3.2-4.4-6.6-3.1-7.9,3.1-.4,5.4,1.1" style="fill:none;stroke:#1d132d;stroke-linecap:round;stroke-linejoin:round;stroke-width:2px"/>
    <path d="M85,151c-0.6.6-2.1-.1-3.4-1.4s-1.9-2.8-1.4-3.4" style="fill:none;stroke:#1d132d;stroke-linecap:round;stroke-linejoin:round;stroke-width:2px"/>
    <path d="M59.2,152.1c4.5-4.5,11.6-8.2,17.6-8.8" style="fill:none;stroke:#1d132d;stroke-linecap:round;stroke-linejoin:round;stroke-width:2px"/>
    <path d="M78.4,171.5c4.5-4.5,8.2-11.6,8.9-17.6" style="fill:none;stroke:#1d132d;stroke-linecap:round;stroke-linejoin:round;stroke-width:2px"/>
    <path d="M59.5,160.1c-4,1.7-11.6,7.1-11.6,7.1s-5.6-11.4,9.9-14" style="fill:none;stroke:#1d132d;stroke-linecap:round;stroke-linejoin:round;stroke-width:2px"/>
    <path d="M77.1,172.7c-1.9,3.9-4.3,14.2-4.3,14.2s-11-4.7-2.5-16.1" style="fill:none;stroke:#1d132d;stroke-linecap:round;stroke-linejoin:round;stroke-width:2px"/>
    <path d="M66.7,168.8c-3.2,2.9-9.2,11.5-9.2,11.5s-8.8-9.1,5.1-16.4" style="fill:none;stroke:#1d132d;stroke-linecap:round;stroke-linejoin:round;stroke-width:2px"/>
    <circle cx="71.8" cy="158.4" r="4.2" style="fill:#dce3ea"/>
    <path d="M70.2,154.9l-0.7.3a2.3,2.3,0,1,0,4.6.2C72.8,155,71.4,154.4,70.2,154.9Z" style="fill:#fff;opacity:0.6"/>
    <circle cx="71.8" cy="158.4" r="4.2" style="fill:none;stroke:#1d132d;stroke-linecap:round;stroke-linejoin:round;stroke-width:2px"/>
    <path d="M85.8,142.4a8.6,8.6,0,0,0,3.6,5.2" style="fill:none;stroke:#1d132d;stroke-linecap:round;stroke-linejoin:round;stroke-width:2px"/>
    <path d="M92.7,139a9.3,9.3,0,0,0,2,6.3" style="fill:none;stroke:#1d132d;stroke-linecap:round;stroke-linejoin:round;stroke-width:2px"/>
    <path d="M99.4,137.4a9.3,9.3,0,0,0,.9,6.5" style="fill:none;stroke:#1d132d;stroke-linecap:round;stroke-linejoin:round;stroke-width:2px"/>
    <circle cx="71.7" cy="159.4" r="0.7" style="fill:#fff"/>
    <path d="M180.4,160.1c4,1.7,11.6,7.1,11.6,7.1s5.6-11.4-9.9-14" style="fill:#dce3ea"/>
    <path d="M162.8,172.7c1.9,3.9,4.3,14.2,4.3,14.2s11-4.7,2.5-16.1" style="fill:#dce3ea"/>
    <path d="M173.2,168.8c3.2,2.9,9.2,11.5,9.2,11.5s8.8-9.1-5.1-16.4" style="fill:#dce3ea"/>
    <path d="M186.3,163.5a50.5,50.5,0,0,0-5.9-3.3l1.7-6.9a16.6,16.6,0,0,1,7.8,3.1A11.9,11.9,0,0,0,186.3,163.5Z" style="fill:#180621;opacity:0.15"/>
    <path d="M169.5,179.4l-1.8,1.9a12.2,12.2,0,0,0-1.4,2.2,79,79,0,0,0-3.4-10.8l6.8-1.9c2.2,3,3.1,5.5,3.2,7.6A3.6,3.6,0,0,0,169.5,179.4Z" style="fill:#180621;opacity:0.15"/>
    <path d="M177.3,163.9a16.8,16.8,0,0,1,6.4,5.2c-2.5.6-4.3,2.9-5.6,5.3a47.2,47.2,0,0,0-4.9-5.6Z" style="fill:#180621;opacity:0.15"/>
    <path d="M152.6,153.9c0.7,6,4.4,13.1,8.9,17.6h0.1c2.3,2.3,8.4-.2,13.7-5.6s7.8-11.5,5.5-13.8h-0.1c-4.5-4.5-11.6-8.2-17.6-8.8,0,0-6.3,2.3-7.6,3.6S152.6,153.9,152.6,153.9Z" style="fill:#2e4159"/>
    <path d="M152.6,153.9c0.7,6,4.4,13.1,8.9,17.6h0.1c2.3,2.3,8.4-.2,13.7-5.6s7.8-11.5,5.5-13.8h-0.1c-4.5-4.5-11.6-8.2-17.6-8.8,0,0-6.3,2.3-7.6,3.6S152.6,153.9,152.6,153.9Z" style="fill:#2e4159"/>
    <path d="M153.7,150.2c-1.2,2-1.5,3.8-.6,4.7s4.8-.1,7.9-3.2,4.4-6.6,3.1-7.9-3.1-.4-5.4,1.1" style="fill:#180621;opacity:0.15"/>
    <path d="M134.4,136.9c10.7,0.2,18.2,3,26,9.8h0.1a13.3,13.3,0,0,1-2.9,3.4,9.9,9.9,0,0,1-2.3,1.1,29.7,29.7,0,0,0-18.9-7.6l-2.4-3.7-2.2-3.2h2.6Z" style="fill:#dce3ea"/>
    <path d="M134.4,136.9a50.1,50.1,0,0,1,6.4.5c0.3,3.5,3,5.9,6.4,7.2s7.4,2.7,10.8.1l2.1,1.8-0.6.7a7,7,0,0,1-2.5,2.5,10.4,10.4,0,0,1-2.8.8,29.4,29.4,0,0,0-17.9-6.7l-2.4-3.7-2.2-3.2h2.6Z" style="fill:#180621;opacity:0.15"/>
    <path d="M153.8,154.5H155a29.9,29.9,0,0,0,1.7,3.7,10.2,10.2,0,0,0,16.6,1.8l0.2-.2c3-3.5,5.2-6.8,5.5-9.4l1.8,1.6h0.1c2.3,2.3-.2,8.4-5.5,13.8s-11.5,7.8-13.7,5.6h-0.1c-4.5-4.5-8.2-11.5-8.9-17.5Z" style="fill:#180621;opacity:0.15"/>
    <path d="M159.7,146.1c-7.5-6.4-14.9-9-25.2-9.2h-2.6l2.3,3.2,2.4,3.7a29.5,29.5,0,0,1,18.4,7.1" style="fill:none;stroke:#1d132d;stroke-linecap:round;stroke-linejoin:round;stroke-width:2px"/>
    <path d="M161.6,171.6c2.3,2.3,8.4-.2,13.7-5.6s7.8-11.5,5.5-13.8h-0.1" style="fill:none;stroke:#1d132d;stroke-linecap:round;stroke-linejoin:round;stroke-width:2px"/>
    <path d="M153.7,150.2c-1.2,2-1.5,3.8-.6,4.7s4.8-.1,7.9-3.2,4.4-6.6,3.1-7.9-3.1-.4-5.4,1.1" style="fill:none;stroke:#1d132d;stroke-linecap:round;stroke-linejoin:round;stroke-width:2px"/>
    <path d="M155,151c0.6,0.6,2.1-.1,3.4-1.4s1.9-2.8,1.4-3.4" style="fill:none;stroke:#1d132d;stroke-linecap:round;stroke-linejoin:round;stroke-width:2px"/>
    <path d="M180.8,152.1c-4.5-4.5-11.6-8.2-17.6-8.8" style="fill:none;stroke:#1d132d;stroke-linecap:round;stroke-linejoin:round;stroke-width:2px"/>
    <path d="M161.5,171.5c-4.5-4.5-8.2-11.6-8.9-17.6" style="fill:none;stroke:#1d132d;stroke-linecap:round;stroke-linejoin:round;stroke-width:2px"/>
    <path d="M180.4,160.1c4,1.7,11.6,7.1,11.6,7.1s5.6-11.4-9.9-14" style="fill:none;stroke:#1d132d;stroke-linecap:round;stroke-linejoin:round;stroke-width:2px"/>
    <path d="M162.8,172.7c1.9,3.9,4.3,14.2,4.3,14.2s11-4.7,2.5-16.1" style="fill:none;stroke:#1d132d;stroke-linecap:round;stroke-linejoin:round;stroke-width:2px"/>
    <path d="M173.2,168.8c3.2,2.9,9.2,11.5,9.2,11.5s8.8-9.1-5.1-16.4" style="fill:none;stroke:#1d132d;stroke-linecap:round;stroke-linejoin:round;stroke-width:2px"/>
    <circle cx="168.2" cy="158.4" r="4.2" style="fill:#dce3ea"/>
    <path d="M169.7,154.9l0.7,0.3a2.3,2.3,0,1,1-4.6.2C167.2,155,168.6,154.4,169.7,154.9Z" style="fill:#fff;opacity:0.6"/>
    <circle cx="168.2" cy="158.4" r="4.2" style="fill:none;stroke:#1d132d;stroke-linecap:round;stroke-linejoin:round;stroke-width:2px"/>
    <path d="M154.1,142.4a8.6,8.6,0,0,1-3.6,5.2" style="fill:none;stroke:#1d132d;stroke-linecap:round;stroke-linejoin:round;stroke-width:2px"/>
    <path d="M147.2,139a9.3,9.3,0,0,1-2,6.3" style="fill:none;stroke:#1d132d;stroke-linecap:round;stroke-linejoin:round;stroke-width:2px"/>
    <path d="M140.6,137.4a9.3,9.3,0,0,1-.9,6.5" style="fill:none;stroke:#1d132d;stroke-linecap:round;stroke-linejoin:round;stroke-width:2px"/>
    <circle cx="168.2" cy="159.4" r="0.7" style="fill:#fff"/>
  </g>
  <g>
    <title>atribute05</title>
    <path d="M70.1,66.9s0.6-2.1.2-1.9c-21.7,13.2-46,35.4-46,35.4S46,111,66,105.1l0.2-1.5C64.3,91.5,65.3,78.1,70.1,66.9Z" style="fill:#dce3ea"/>
    <path d="M65.4,87.4l-0.9,1.5c-1.8,2.7-6.1,7.4-9.7,4.7a4.9,4.9,0,0,1-1.6-4.7c-4.9,2.5-10.2,3.9-15.4,5.9s-7.7,4.1-11.7,5.2l-1.3.7c3.3,1.5,22.9,9.8,41.2,4.4l0.2-1.5A75.5,75.5,0,0,1,65.4,87.4Z" style="fill:#180621;opacity:0.15"/>
    <path d="M65.4,87.4l-0.9,1.5c-1.8,2.7-6.1,7.4-9.7,4.7a4.9,4.9,0,0,1-1.6-4.7c-4.9,2.5-10.2,3.9-15.4,5.9a44.7,44.7,0,0,0-4.2,2,41.3,41.3,0,0,1,19.8,1.8,24.9,24.9,0,0,1,10.2,7.1l2.4-.6,0.2-1.5A75.5,75.5,0,0,1,65.4,87.4Z" style="fill:#180621;opacity:0.15"/>
    <path d="M70.3,65c-19.5,11.8-46,35.4-46,35.4s19,10.4,41.7,4.7" style="fill:none;stroke:#1d132d;stroke-linecap:round;stroke-linejoin:round;stroke-width:2px"/>
    <path d="M65.3,89c-1.7,2.5-5.2,6.6-8.6,6.4s-5-4.9-3.6-7.9,5.6-6,7.3-3.4-1,5.9-3.4,6.4" style="fill:none;stroke:#1d132d;stroke-linecap:round;stroke-linejoin:round;stroke-width:2px"/>
    <line x1="25.1" y1="100.5" x2="51.9" y2="90.1" style="fill:none;stroke:#1d132d;stroke-linecap:round;stroke-linejoin:round;stroke-width:2px"/>
    <path d="M170,66.9s-0.6-2.1-.2-1.9c21.7,13.2,46,35.4,46,35.4s-21.7,10.5-41.7,4.7l-0.2-1.5C175.9,91.5,174.9,78.1,170,66.9Z" style="fill:#dce3ea"/>
    <path d="M174.7,87.4l0.9,1.5c1.8,2.7,6.1,7.4,9.7,4.7a4.9,4.9,0,0,0,1.6-4.7c4.9,2.5,10.2,3.9,15.4,5.9s7.7,4.1,11.7,5.2l1.3,0.7c-3.3,1.5-22.9,9.8-41.2,4.4l-0.2-1.5A75.5,75.5,0,0,0,174.7,87.4Z" style="fill:#180621;opacity:0.15"/>
    <path d="M174.7,87.4l0.9,1.5c1.8,2.7,6.1,7.4,9.7,4.7a4.9,4.9,0,0,0,1.6-4.7c4.9,2.5,10.2,3.9,15.4,5.9a44.7,44.7,0,0,1,4.2,2,41.3,41.3,0,0,0-19.8,1.8,24.9,24.9,0,0,0-10.2,7.1l-2.4-.6-0.2-1.5A75.5,75.5,0,0,0,174.7,87.4Z" style="fill:#180621;opacity:0.15"/>
    <path d="M169.8,65c19.5,11.8,46,35.4,46,35.4s-19,10.4-41.7,4.7" style="fill:none;stroke:#1d132d;stroke-linecap:round;stroke-linejoin:round;stroke-width:2px"/>
    <path d="M174.8,89c1.7,2.5,5.2,6.6,8.6,6.4s5-4.9,3.6-7.9-5.6-6-7.3-3.4,1,5.9,3.4,6.4" style="fill:none;stroke:#1d132d;stroke-linecap:round;stroke-linejoin:round;stroke-width:2px"/>
    <line x1="215.1" y1="100.5" x2="188.2" y2="90.1" style="fill:none;stroke:#1d132d;stroke-linecap:round;stroke-linejoin:round;stroke-width:2px"/>
  </g>
  <g>
    <path d="M131.3,34.3a76.8,76.8,0,0,0-11.1-.9,84.7,84.7,0,0,0-11.6.9C82.9,38.8,65.3,60.4,65.3,88c0,15.4,3.2,29.6,12.1,37.2s18.2,10.8,39.5,11.1h-7.7c-7,6.6-11.8,18.9-11.8,29.9,0,16,10.1,19.5,22.6,19.5s22.6-3.4,22.6-19.5c0-11.1-4.9-23.5-12-30.1h-5.2c19.6-.5,28.4-3.6,37.2-11.1s12.1-21.8,12.1-37.2C174.7,60.4,157.1,38.8,131.3,34.3Z" style="fill:#ffd3f5"/>
    <path d="M111.2,185a36.3,36.3,0,0,0,5.7.7" style="fill:none;stroke:#1d132d;stroke-linecap:round;stroke-linejoin:round;stroke-width:2px"/>
    <path d="M108.9,136.7a30.2,30.2,0,0,0-3.8,4.5" style="fill:none;stroke:#1d132d;stroke-miterlimit:10;stroke-width:2px"/>
    <path d="M129,185a36.3,36.3,0,0,1-5.7.7" style="fill:none;stroke:#1d132d;stroke-linecap:round;stroke-linejoin:round;stroke-width:2px"/>
    <path d="M131.3,136.7a30.2,30.2,0,0,1,3.8,4.5" style="fill:none;stroke:#1d132d;stroke-miterlimit:10;stroke-width:2px"/>
    <path d="M130.5,136.1c-3.1.3-6.1,0.6-9.4,0.6a111.1,111.1,0,0,1-12.3-.4l-6.8,9.6a41,41,0,0,0,17.6,3.6,40.7,40.7,0,0,0,17.8-3.7C137.2,145.4,130.9,136.5,130.5,136.1Z" style="fill:#180621;opacity:0.15"/>
    <circle cx="120" cy="160.8" r="12.4" style="fill:#2e4159"/>
    <path d="M120,151.3a12.4,12.4,0,0,1,12.4,11.1,12.4,12.4,0,1,0-24.7,0A12.4,12.4,0,0,1,120,151.3Z" style="fill:#36c8e3;opacity:0.2"/>
    <circle cx="120" cy="160.8" r="12.4" style="fill:none;stroke:#1d132d;stroke-linecap:round;stroke-linejoin:round;stroke-width:2px"/>
    <path d="M123.3,155a4.1,4.1,0,0,0-3.3,1.7,4.1,4.1,0,0,0-7.5,2.4c0,4.1,5.2,7.8,7.5,9.4,2-1.5,7.5-5.5,7.5-9.4A4.1,4.1,0,0,0,123.3,155Z" style="fill:#36c8e3"/>
    <g style="opacity:0.30000000000000004">
      <path d="M108.7,44.1a84.7,84.7,0,0,1,11.6-.9,76.8,76.8,0,0,1,11.1.9c24.4,4.3,41.5,23.9,43.2,49.5q0.1-2.7.1-5.5c0-27.7-17.6-49.2-43.4-53.7a76.8,76.8,0,0,0-11.1-.9,84.7,84.7,0,0,0-11.6.9C82.9,39,65.3,60.5,65.3,88.1q0,2.8.1,5.5C67.1,68,84.3,48.4,108.7,44.1Z" style="fill:#fff"/>
    </g>
    <path d="M125.4,136.4c19.6-.5,28.4-3.6,37.2-11.1s12.1-21.8,12.1-37.2c0-27.7-17.6-49.2-43.4-53.7a76.8,76.8,0,0,0-11.1-.9,84.7,84.7,0,0,0-11.6.9C82.9,39,65.3,60.5,65.3,88.1c0,15.4,3.2,29.6,12.1,37.2s18.2,10.8,39.5,11.1h8.5Z" style="fill:none;stroke:#1d132d;stroke-miterlimit:10;stroke-width:2px"/>
    <path d="M109.2,136.5c-7,6.6-11.8,18.9-11.8,29.9,0,16,10.1,19.5,22.6,19.5s22.6-3.4,22.6-19.5c0-11.1-4.9-23.5-12-30.1" style="fill:none;stroke:#1d132d;stroke-miterlimit:10;stroke-width:2px"/>
    <g style="opacity:0.30000000000000004">
      <path d="M108.7,44.1a84.7,84.7,0,0,1,11.6-.9,76.8,76.8,0,0,1,11.1.9c24.4,4.3,41.5,23.9,43.2,49.5q0.1-2.7.1-5.5c0-27.7-17.6-49.2-43.4-53.7a76.8,76.8,0,0,0-11.1-.9,84.7,84.7,0,0,0-11.6.9C82.9,39,65.3,60.5,65.3,88.1q0,2.8.1,5.5C67.1,68,84.3,48.4,108.7,44.1Z" style="fill:#fff"/>
    </g>
    <path d="M125.4,136.4c19.6-.5,28.4-3.6,37.2-11.1s12.1-21.8,12.1-37.2c0-27.7-17.6-49.2-43.4-53.7a76.8,76.8,0,0,0-11.1-.9,84.7,84.7,0,0,0-11.6.9C82.9,39,65.3,60.5,65.3,88.1c0,15.4,3.2,29.6,12.1,37.2s18.2,10.8,39.5,11.1h8.5Z" style="fill:none;stroke:#1d132d;stroke-miterlimit:10;stroke-width:2px"/>
  </g>
  <g>
    <title>atribute08</title>
    <path d="M95.1,133.3a51.5,51.5,0,0,0,9.2,1.5c4.2-7.1,3.2-17-3.1-24.3a23.7,23.7,0,0,0-18.4-7.9s-3.6,18.9-.7,24.2c1.9,3.6,6.8,5.7,11.4,7A1.4,1.4,0,0,1,95.1,133.3Z" style="fill:#dce3ea"/>
    <path d="M85.6,122.3a20.6,20.6,0,0,1-4.5-4.2c-0.1,3.6.1,6.9,1.1,8.7,1.9,3.6,6.8,5.7,11.4,7a1.4,1.4,0,0,1,1.5-.5,51.5,51.5,0,0,0,9.2,1.5,18.2,18.2,0,0,0,2-5.1A45.3,45.3,0,0,1,85.6,122.3Z" style="fill:#180621;opacity:0.15"/>
    <path d="M82.8,102.6a23.7,23.7,0,0,1,18.4,7.9c6.5,7.5,7.3,17.7,2.7,24.9l-0.2.3a48,48,0,0,1-8.9-1.4" style="fill:none;stroke:#1d132d;stroke-linecap:round;stroke-linejoin:round;stroke-width:2px"/>
    <ellipse cx="85.7" cy="118.9" rx="14.2" ry="17.7" transform="translate(-56.8 84.6) rotate(-40.7)" style="fill:#2e4159"/>
    <path d="M77.2,103.6A11.9,11.9,0,0,0,84.5,115c5.8,2.7,10.3.4,13.3-3.6l-1.4-1.8C91.1,103.3,83.1,101.1,77.2,103.6Z" style="fill:#fff;opacity:0.2"/>
    <ellipse cx="85.7" cy="118.9" rx="14.2" ry="17.7" transform="translate(-56.8 84.6) rotate(-40.7)" style="fill:none;stroke:#1d132d;stroke-miterlimit:10;stroke-width:2px"/>
    <ellipse cx="84" cy="121.4" rx="11" ry="14.3" transform="translate(-58.8 84.1) rotate(-40.7)" style="fill:#2e4159"/>
    <ellipse cx="84" cy="121.4" rx="11" ry="14.3" transform="translate(-58.8 84.1) rotate(-40.7)" style="fill:#180621;opacity:0.15"/>
    <ellipse cx="84" cy="121.4" rx="11" ry="14.3" transform="translate(-58.8 84.1) rotate(-40.7)" style="fill:none;stroke:#1d132d;stroke-miterlimit:10;stroke-width:2px"/>
    <ellipse cx="78.1" cy="114.4" rx="1.4" ry="1.7" transform="translate(-53.2 70.4) rotate(-37.2)" style="fill:#fff;opacity:0.2"/>
    <ellipse cx="83.8" cy="127.9" rx="1.4" ry="1.7" transform="translate(-60.2 76.6) rotate(-37.2)" style="fill:#fff;opacity:0.2"/>
    <ellipse cx="77.9" cy="114.6" rx="0.3" ry="0.5" transform="translate(-53.4 70.3) rotate(-37.2)" style="fill:none;stroke:#1d132d;stroke-miterlimit:10;stroke-width:2px"/>
    <ellipse cx="91.1" cy="128.1" rx="1.4" ry="1.7" transform="translate(-58.9 81) rotate(-37.2)" style="fill:#fff;opacity:0.2"/>
    <ellipse cx="90.9" cy="128.3" rx="0.3" ry="0.5" transform="translate(-59.1 81) rotate(-37.2)" style="fill:none;stroke:#1d132d;stroke-miterlimit:10;stroke-width:2px"/>
    <ellipse cx="77.6" cy="121.7" rx="1.4" ry="1.7" transform="translate(-57.7 71.6) rotate(-37.2)" style="fill:#fff;opacity:0.2"/>
    <ellipse cx="91.1" cy="120.4" rx="1.4" ry="1.7" transform="translate(-54.2 79.5) rotate(-37.2)" style="fill:#fff;opacity:0.2"/>
    <ellipse cx="91" cy="120.7" rx="0.3" ry="0.5" transform="translate(-54.4 79.5) rotate(-37.2)" style="fill:none;stroke:#1d132d;stroke-miterlimit:10;stroke-width:2px"/>
    <ellipse cx="83.6" cy="128.2" rx="0.3" ry="0.5" transform="translate(-60.5 76.5) rotate(-37.2)" style="fill:none;stroke:#1d132d;stroke-miterlimit:10;stroke-width:2px"/>
    <ellipse cx="77.5" cy="121.9" rx="0.3" ry="0.5" transform="translate(-57.9 71.5) rotate(-37.2)" style="fill:none;stroke:#1d132d;stroke-miterlimit:10;stroke-width:2px"/>
    <ellipse cx="85.4" cy="114.4" rx="1.4" ry="1.7" transform="translate(-51.7 74.8) rotate(-37.2)" style="fill:#fff;opacity:0.2"/>
    <ellipse cx="85.3" cy="114.7" rx="0.3" ry="0.5" transform="translate(-51.9 74.8) rotate(-37.2)" style="fill:none;stroke:#1d132d;stroke-miterlimit:10;stroke-width:2px"/>
    <path d="M144.9,133.3a51.5,51.5,0,0,1-9.2,1.5c-4.2-7.1-3.2-17,3.1-24.3a23.7,23.7,0,0,1,18.4-7.9s3.6,18.9.7,24.2c-1.9,3.6-6.8,5.7-11.4,7A1.4,1.4,0,0,0,144.9,133.3Z" style="fill:#dce3ea"/>
    <path d="M154.4,122.3a20.6,20.6,0,0,0,4.5-4.2c0.1,3.6-.1,6.9-1.1,8.7-1.9,3.6-6.8,5.7-11.4,7a1.4,1.4,0,0,0-1.5-.5,51.5,51.5,0,0,1-9.2,1.5,18.2,18.2,0,0,1-2-5.1A45.3,45.3,0,0,0,154.4,122.3Z" style="fill:#180621;opacity:0.15"/>
    <path d="M157.2,102.6a23.7,23.7,0,0,0-18.4,7.9c-6.4,7.5-7.3,17.7-2.8,24.8l0.3,0.4a78.4,78.4,0,0,0,9.2-1.5" style="fill:none;stroke:#1d132d;stroke-linecap:round;stroke-linejoin:round;stroke-width:2px"/>
    <ellipse cx="154.3" cy="118.9" rx="17.7" ry="14.2" transform="translate(-36.4 158.4) rotate(-49.3)" style="fill:#2e4159"/>
    <path d="M162.8,103.6a11.9,11.9,0,0,1-7.4,11.4c-5.8,2.7-10.3.4-13.3-3.6l1.4-1.8C148.9,103.3,156.9,101.1,162.8,103.6Z" style="fill:#fff;opacity:0.2"/>
    <ellipse cx="154.3" cy="118.9" rx="17.7" ry="14.2" transform="translate(-36.4 158.4) rotate(-49.3)" style="fill:none;stroke:#1d132d;stroke-miterlimit:10;stroke-width:2px"/>
    <ellipse cx="156" cy="121.4" rx="14.3" ry="11" transform="translate(-37.8 160.6) rotate(-49.3)" style="fill:#2e4159"/>
    <ellipse cx="156" cy="121.4" rx="14.3" ry="11" transform="translate(-37.8 160.6) rotate(-49.3)" style="fill:#180621;opacity:0.15"/>
    <ellipse cx="156" cy="121.4" rx="14.3" ry="11" transform="translate(-37.8 160.6) rotate(-49.3)" style="fill:none;stroke:#1d132d;stroke-miterlimit:10;stroke-width:2px"/>
    <ellipse cx="161.9" cy="114.4" rx="1.7" ry="1.4" transform="translate(-27 174.3) rotate(-52.8)" style="fill:#fff;opacity:0.2"/>
    <ellipse cx="156.2" cy="127.9" rx="1.7" ry="1.4" transform="translate(-40.1 175.1) rotate(-52.8)" style="fill:#fff;opacity:0.2"/>
    <ellipse cx="162.1" cy="114.6" rx="0.5" ry="0.3" transform="translate(-27.1 174.6) rotate(-52.8)" style="fill:none;stroke:#1d132d;stroke-miterlimit:10;stroke-width:2px"/>
    <ellipse cx="148.9" cy="128.1" rx="1.7" ry="1.4" transform="translate(-43.1 169.4) rotate(-52.8)" style="fill:#fff;opacity:0.2"/>
    <ellipse cx="149.1" cy="128.3" rx="0.5" ry="0.3" transform="translate(-43.3 169.6) rotate(-52.8)" style="fill:none;stroke:#1d132d;stroke-miterlimit:10;stroke-width:2px"/>
    <ellipse cx="162.4" cy="121.7" rx="1.7" ry="1.4" transform="translate(-32.7 177.6) rotate(-52.8)" style="fill:#fff;opacity:0.2"/>
    <ellipse cx="148.9" cy="120.4" rx="1.7" ry="1.4" transform="translate(-37 166.3) rotate(-52.8)" style="fill:#fff;opacity:0.2"/>
    <ellipse cx="149" cy="120.7" rx="0.5" ry="0.3" transform="translate(-37.2 166.5) rotate(-52.8)" style="fill:none;stroke:#1d132d;stroke-miterlimit:10;stroke-width:2px"/>
    <ellipse cx="156.4" cy="128.2" rx="0.5" ry="0.3" transform="translate(-40.2 175.4) rotate(-52.8)" style="fill:none;stroke:#1d132d;stroke-miterlimit:10;stroke-width:2px"/>
    <ellipse cx="162.5" cy="121.9" rx="0.5" ry="0.3" transform="translate(-32.8 177.8) rotate(-52.8)" style="fill:none;stroke:#1d132d;stroke-miterlimit:10;stroke-width:2px"/>
    <ellipse cx="154.6" cy="114.4" rx="1.7" ry="1.4" transform="translate(-29.9 168.5) rotate(-52.8)" style="fill:#fff;opacity:0.2"/>
    <ellipse cx="154.7" cy="114.7" rx="0.5" ry="0.3" transform="translate(-30.1 168.7) rotate(-52.8)" style="fill:none;stroke:#1d132d;stroke-miterlimit:10;stroke-width:2px"/>
  </g>
  <g>
    <title>02</title>
    <g style="opacity:0.5">
      <path d="M108.6,81.5c.8,4.6.9,15.5.9,15.5s-32.2,12.7-35.4-9.6c-1.6-11.2,7.5-20.7,16.7-20.7S107,72.4,108.6,81.5Z" style="fill:#fff"/>
      <path d="M99.9,99.7c-7.6,1.2-15.1-1.6-16.3-10.2s6.1-16.8,13.5-16.8c3.7,0,9.1,2.4,11,7" style="fill:#fff"/>
    </g>
    <g style="opacity:0.5">
      <path d="M131.1,81.5c-.8,4.6-.9,15.5-.9,15.5s32.3,12.7,35.4-9.6c1.6-11.2-7.5-20.7-16.7-20.7S132.7,72.4,131.1,81.5Z" style="fill:#fff"/>
      <path d="M139.8,99.7c7.6,1.2,15.1-1.6,16.3-10.2s-6.1-16.8-13.5-16.8c-3.7,0-9.1,2.4-11,7" style="fill:#fff"/>
    </g>
    <path d="M84,83.3a18.6,18.6,0,0,0,.3,9.1c2.3,6.3,11,9.7,25.2,4.5l-1.4-17.2c-1.6-3.8-5.6-6.1-9-6.8L97,72.7C91.4,72.7,85.8,77.2,84,83.3Z" style="fill:#36c8e3"/>
    <path d="M155.7,83.3a18.6,18.6,0,0,1-.3,9.1c-2.3,6.3-11,9.7-25.2,4.5l1.4-17.2c1.6-3.8,5.6-6.1,9-6.8l2.1-.2C148.3,72.7,153.9,77.2,155.7,83.3Z" style="fill:#36c8e3"/>
    <path d="M99.8,95.1a8.6,8.6,0,1,1-4.1-16.7" style="fill:none;stroke:#fff;stroke-linecap:round;stroke-linejoin:round;stroke-width:2px"/>
    <circle cx="99.8" cy="77.9" r="1" style="fill:#fff"/>
    <path d="M139.8,95.1a8.6,8.6,0,0,0,4.1-16.7" style="fill:none;stroke:#fff;stroke-linecap:round;stroke-linejoin:round;stroke-width:2px"/>
    <circle cx="139.9" cy="77.9" r="1" style="fill:#fff"/>
    <g style="opacity:0.15">
      <path d="M163,75.2c-3.2-5.1-8.6-8.5-14.1-8.5-9.2,0-16.1,5.7-17.8,14.8-.8,4.6-.9,15.5-.9,15.5h.4c0-.3-.1-.7-.1-1a20.3,20.3,0,0,1,3.1-11.6,24.2,24.2,0,0,1,6.1-6.7h0l1.9-1.3h0l2-1.1h0l2.1-.9h0l2.2-.7h0a21.6,21.6,0,0,1,5.7-.8A22.3,22.3,0,0,1,163,75.2Z" style="fill:#180621"/>
      <path d="M91,66.8c-5.5,0-10.9,3.4-14.1,8.5a22.3,22.3,0,0,1,9.5-2.1,21.6,21.6,0,0,1,5.7.8h0l2.2.7h0l2.1.9h0l2,1.1h0l1.9,1.3h0a24.2,24.2,0,0,1,6.1,6.7,20.3,20.3,0,0,1,3.1,11.6c0,.3,0,.7-.1,1h.4s-.1-10.9-.9-15.5C107.2,72.4,100.3,66.8,91,66.8Z" style="fill:#180621"/>
    </g>
    <path d="M108.6,81.5c.8,4.6.9,15.5.9,15.5s-32.2,12.7-35.4-9.6c-1.6-11.2,7.5-20.7,16.7-20.7S107,72.4,108.6,81.5Z" style="fill:none;stroke:#1d132d;stroke-linecap:round;stroke-linejoin:round;stroke-width:2px"/>
    <path d="M99.9,99.7c-7.6,1.2-15.1-1.6-16.3-10.2s6.1-16.8,13.5-16.8c3.7,0,9.1,2.4,11,7" style="fill:none;stroke:#1d132d;stroke-linecap:round;stroke-linejoin:round;stroke-width:2px"/>
    <path d="M131.1,81.5c-.8,4.6-.9,15.5-.9,15.5s32.3,12.7,35.4-9.6c1.6-11.2-7.5-20.7-16.7-20.7S132.7,72.4,131.1,81.5Z" style="fill:none;stroke:#1d132d;stroke-linecap:round;stroke-linejoin:round;stroke-width:2px"/>
    <path d="M139.8,99.7c7.6,1.2,15.1-1.6,16.3-10.2s-6.1-16.8-13.5-16.8c-3.7,0-9.1,2.4-11,7" style="fill:none;stroke:#1d132d;stroke-linecap:round;stroke-linejoin:round;stroke-width:2px"/>
  </g>
  <g>
    <title>05</title>
    <path d="M120.1,58.2h0l13.5-13.1,3.6-9A52.4,52.4,0,0,0,120,33.5a58.2,58.2,0,0,0-16.7,2.3l3.4,9.3Z" style="fill:#dce3ea"/>
    <path d="M80.9,48.9a50.6,50.6,0,0,1,20-12l1.4-.8V14.8h-12L79.5,49.8l1.1-.7Z" style="fill:#2e4159"/>
    <polygon points="102.3 20.3 102.3 14.8 90.3 14.8 88.6 20.3 102.3 20.3" style="fill:#dce3ea"/>
    <path d="M159.3,48.9a50.6,50.6,0,0,0-20-12l-1.4-.8V14.8h12l10.8,35.1-1.1-.7Z" style="fill:#2e4159"/>
    <polygon points="137.9 20.3 137.9 14.8 149.9 14.8 151.6 20.3 137.9 20.3" style="fill:#dce3ea"/>
    <line x1="89.2" y1="20" x2="101.8" y2="20" style="fill:none;stroke:#1d132d;stroke-linecap:round;stroke-linejoin:round;stroke-width:2px"/>
    <polyline points="106.6 45.1 120.1 58.2 120.1 58.2 133.6 45.1" style="fill:none;stroke:#1d132d;stroke-linecap:round;stroke-linejoin:round;stroke-width:2px"/>
    <line x1="113.5" y1="51.4" x2="126.6" y2="51.4" style="fill:none;stroke:#1d132d;stroke-linecap:round;stroke-linejoin:round;stroke-width:2px"/>
    <line x1="107.6" y1="45.5" x2="132.5" y2="45.6" style="fill:none;stroke:#1d132d;stroke-linecap:round;stroke-linejoin:round;stroke-width:2px"/>
    <line x1="135.2" y1="39.6" x2="104.8" y2="39.6" style="fill:none;stroke:#1d132d;stroke-linecap:round;stroke-linejoin:round;stroke-width:2px"/>
    <line x1="106.4" y1="44.9" x2="102.3" y2="35.5" style="fill:none;stroke:#1d132d;stroke-linecap:round;stroke-linejoin:round;stroke-width:2px"/>
    <line x1="150.9" y1="20.1" x2="138.3" y2="20.1" style="fill:none;stroke:#1d132d;stroke-linecap:round;stroke-linejoin:round;stroke-width:2px"/>
    <line x1="133.7" y1="45" x2="137.8" y2="35.6" style="fill:none;stroke:#1d132d;stroke-linecap:round;stroke-linejoin:round;stroke-width:2px"/>
    <polyline points="79.5 49.8 90.3 14.8 102.3 14.8 102.3 36" style="fill:none;stroke:#1d132d;stroke-linecap:round;stroke-linejoin:round;stroke-width:2px"/>
    <polyline points="160.6 50 149.9 14.9 137.9 14.9 137.9 36.1" style="fill:none;stroke:#1d132d;stroke-linecap:round;stroke-linejoin:round;stroke-width:2px"/>
    <path d="M160.7,50.3a51.5,51.5,0,0,0-29.4-15.9,76.8,76.8,0,0,0-11.1-.9,84.7,84.7,0,0,0-11.6.9A51.5,51.5,0,0,0,79.6,50" style="fill:none;stroke:#1d132d;stroke-linecap:round;stroke-linejoin:round;stroke-width:2px"/>
  </g>
</svg>