<svg xmlns="http://www.w3.org/2000/svg" xmlns:xlink="http://www.w3.org/1999/xlink" viewBox="0 0 240 240">
  <ellipse cx="120.5" cy="233.4" rx="43.7" ry="4.9" style="fill:#180621;opacity:0.15"/>
  <g>
    <title>01</title>
    <rect x="114.3" y="185.8" width="11.4" height="11.83" style="fill:#dce3ea"/>
    <rect x="114.3" y="185.8" width="11.4" height="11.83" style="fill:#180621;opacity:0.15"/>
    <path d="M122.5,198.4l-5.2-.6-16.5,10.8c1.3,14.5,19.7,13.5,19.7,13.5,12.5,0,19.5-12,19.5-12Z" style="fill:#dce3ea"/>
    <path d="M132.8,206.1H105.8l-5.1,3.2c1.3,13.9,19.7,12.9,19.7,12.9,12.5,0,19.5-11.5,19.5-11.5Z" style="fill:#180621;opacity:0.15"/>
    <rect x="79" y="202.1" width="17.5" height="6.9" rx="3.2" ry="3.2" transform="translate(-63.1 40.6) rotate(-19.3)" style="fill:#dce3ea"/>
    <rect x="79" y="202.1" width="17.5" height="6.9" rx="3.2" ry="3.2" transform="translate(-63.1 40.6) rotate(-19.3)" style="fill:#180621;opacity:0.15"/>
    <rect x="68.9" y="202.6" width="16.2" height="6.37" rx="3.2" ry="3.2" transform="translate(104.5 -12.2) rotate(27.7)" style="fill:#dce3ea"/>
    <rect x="143.8" y="201.7" width="17.5" height="6.9" rx="3.2" ry="3.2" transform="translate(216.1 452.7) rotate(-157.8)" style="fill:#dce3ea"/>
    <rect x="143.8" y="201.7" width="17.5" height="6.9" rx="3.2" ry="3.2" transform="translate(216.1 452.7) rotate(-157.8)" style="fill:#180621;opacity:0.15"/>
    <rect x="155.2" y="202.8" width="16.2" height="6.37" rx="3.2" ry="3.2" transform="translate(397.8 324.5) rotate(155.2)" style="fill:#dce3ea"/>
    <path d="M27.9,224a69,69,0,0,0,48.9-22.5h.1s-1.4-3.1-7.4-7.4-9.9-5.2-9.9-5.2-3.6,3-13.5,13.3C32.9,215.9,27.9,224,27.9,224Z" style="fill:#2e4159"/>
    <path d="M87.8,233.9c17.1-7.6,22.3-22.6,28.8-38.7.3-.6-14-5.2-22.9-1-.3.1-2.7,6.3-4.6,11.2C82,223,87.8,233.9,87.8,233.9Z" style="fill:#2e4159"/>
    <path d="M212.1,224a69,69,0,0,1-48.9-22.5h-.1s1.4-3.1,7.4-7.4,9.9-5.2,9.9-5.2,3.6,3,13.5,13.3C207.1,215.9,212.1,224,212.1,224Z" style="fill:#2e4159"/>
    <path d="M152.2,233.9c-17.1-7.6-22.3-22.6-28.8-38.7-.3-.6,14-5.2,22.9-1,.3.1,2.7,6.3,4.6,11.2C158,223,152.2,233.9,152.2,233.9Z" style="fill:#2e4159"/>
    <ellipse cx="100.3" cy="206.2" rx="8.3" ry="7.2" transform="translate(-128.7 195.7) rotate(-61.4)" style="fill:#dce3ea"/>
    <path d="M185.3,194.2a8.9,8.9,0,1,0,12.6,12.7" style="fill:#dce3ea"/>
    <ellipse cx="140.1" cy="206.2" rx="7.2" ry="8.3" transform="translate(-81.5 92.1) rotate(-28.6)" style="fill:#dce3ea"/>
    <path d="M54.9,193a8.9,8.9,0,1,1-12.6,12.7" style="fill:#dce3ea"/>
    <path d="M57.3,201.4a8.9,8.9,0,0,0-2.4-8.4l-6.3,6.4a8.8,8.8,0,0,0,8.7,2Z" style="fill:#fff;opacity:0.5"/>
    <path d="M98,205.3c3.1,1.7,7,.5,9.4-2.5a6.7,6.7,0,0,0-3.2-4c-3.1-1.7-7-.5-9.4,2.5A6.7,6.7,0,0,0,98,205.3Z" style="fill:#fff;opacity:0.5"/>
    <path d="M183,202.4a8.9,8.9,0,0,1,2.4-8.4l6.3,6.4a8.8,8.8,0,0,1-8.7,2Z" style="fill:#fff;opacity:0.5"/>
    <path d="M141.8,205.3c-3.1,1.7-7,.5-9.4-2.5a6.7,6.7,0,0,1,3.2-4c3.1-1.7,7-.5,9.4,2.5A6.7,6.7,0,0,1,141.8,205.3Z" style="fill:#fff;opacity:0.5"/>
    <path d="M76.8,201.4l6.1,3.2a3.8,3.8,0,0,1,1.6,5.2h0a3.8,3.8,0,0,1-5.2,1.6l-8-4.2" style="fill:none;stroke:#1d132d;stroke-linecap:round;stroke-linejoin:round;stroke-width:2px"/>
    <path d="M86.8,210l-4.3,1.6a3.8,3.8,0,0,1-1.9.2" style="fill:none;stroke:#1d132d;stroke-linecap:round;stroke-linejoin:round;stroke-width:2px"/>
    <line x1="81.5" y1="203.7" x2="90.4" y2="200.4" style="fill:none;stroke:#1d132d;stroke-linecap:round;stroke-linejoin:round;stroke-width:2px"/>
    <path d="M27.9,224a69,69,0,0,0,48.9-22.5h.1s-1.4-3.1-7.4-7.4-9.9-5.2-9.9-5.2-3.6,3-13.5,13.3C32.9,215.9,27.9,224,27.9,224Z" style="fill:none;stroke:#1d132d;stroke-linecap:round;stroke-linejoin:round;stroke-width:2px"/>
    <path d="M87.6,233.9c17.1-7.6,22.3-22.6,28.8-38.7.3-.6-14-5.2-22.9-1-.3.1-2.7,6.3-4.6,11.2C81.8,223,87.6,233.9,87.6,233.9Z" style="fill:none;stroke:#1d132d;stroke-linecap:round;stroke-linejoin:round;stroke-width:2px"/>
    <path d="M54.4,193.9A8.9,8.9,0,1,1,42,206.8" style="fill:none;stroke:#1d132d;stroke-linecap:round;stroke-linejoin:round;stroke-width:2px"/>
    <ellipse cx="99.9" cy="206.2" rx="8.3" ry="7.2" transform="translate(-128.9 195.3) rotate(-61.4)" style="fill:none;stroke:#1d132d;stroke-linecap:round;stroke-linejoin:round;stroke-width:2px"/>
    <path d="M163,201.5l-5.9,3.1a3.8,3.8,0,0,0-1.6,5.2h0a3.8,3.8,0,0,0,5.2,1.6l7.9-4.2" style="fill:none;stroke:#1d132d;stroke-linecap:round;stroke-linejoin:round;stroke-width:2px"/>
    <path d="M153.1,209.9l4.3,1.6a3.8,3.8,0,0,0,1.9.2" style="fill:none;stroke:#1d132d;stroke-linecap:round;stroke-linejoin:round;stroke-width:2px"/>
    <line x1="158.5" y1="203.7" x2="149.1" y2="200.2" style="fill:none;stroke:#1d132d;stroke-linecap:round;stroke-linejoin:round;stroke-width:2px"/>
    <path d="M212.1,224a69,69,0,0,1-48.9-22.5h-.1s1.4-3.1,7.4-7.4,9.9-5.2,9.9-5.2,3.6,3,13.5,13.3C207.1,215.9,212.1,224,212.1,224Z" style="fill:none;stroke:#1d132d;stroke-linecap:round;stroke-linejoin:round;stroke-width:2px"/>
    <path d="M152.4,233.9c-17.1-7.6-22.3-22.6-28.8-38.7-.3-.6,14-5.2,22.9-1,.3.1,2.7,6.3,4.6,11.2C158.2,223,152.4,233.9,152.4,233.9Z" style="fill:none;stroke:#1d132d;stroke-linecap:round;stroke-linejoin:round;stroke-width:2px"/>
    <path d="M185.3,194.2a8.9,8.9,0,1,0,12.6,12.7" style="fill:none;stroke:#1d132d;stroke-linecap:round;stroke-linejoin:round;stroke-width:2px"/>
    <ellipse cx="140" cy="206.2" rx="7.2" ry="8.3" transform="translate(-81.5 92.1) rotate(-28.6)" style="fill:none;stroke:#1d132d;stroke-linecap:round;stroke-linejoin:round;stroke-width:2px"/>
    <line x1="115.8" y1="197.8" x2="124.4" y2="197.8" style="fill:none;stroke:#1d132d;stroke-linecap:round;stroke-linejoin:round;stroke-width:2px"/>
    <polyline points="113.9 193.4 113.9 184.3 126.2 184.3 126.2 193.2" style="fill:none;stroke:#1d132d;stroke-linecap:round;stroke-linejoin:round;stroke-width:2px"/>
    <path d="M134.1,219a32.5,32.5,0,0,1-28.3,0" style="fill:none;stroke:#1d132d;stroke-linecap:round;stroke-linejoin:round;stroke-width:2px"/>
    <line x1="112" y1="206.2" x2="127.9" y2="206.1" style="fill:none;stroke:#1d132d;stroke-linecap:round;stroke-linejoin:round;stroke-width:2px"/>
    <circle cx="159" cy="207.9" r="1.2" style="fill:#1d132d"/>
    <circle cx="81" cy="207.9" r="1.2" style="fill:#1d132d"/>
  </g>
  <g>
    <title>04</title>
    <g style="isolation:isolate">
      <path d="M109.1,137.6a38.2,38.2,0,0,0-20.3,8.2l.6,1.6,2.9,2.5a32.9,32.9,0,0,1,17.3-7,2.7,2.7,0,1,0-.4-5.4Z" style="fill:#dce3ea"/>
      <path d="M88.3,145.7a41.7,41.7,0,0,1,19.3-8.2,3.3,3.3,0,0,1,1,6.4,39.1,39.1,0,0,0-15.8,6.4" style="fill:none;stroke:#1d132d;stroke-miterlimit:10;stroke-width:2px"/>
      <path d="M92.3,150a31.3,31.3,0,0,1,3.6-2.5,22,22,0,0,0-2.2-5,37.1,37.1,0,0,0-4.8,3.3l.6,1.6Z" style="fill:#180621;opacity:0.15;mix-blend-mode:multiply"/>
      <path d="M67,174a15.6,15.6,0,0,1-2.8-2.5l-.9-1.2-3.4-2.1-4.7,6.3,4.6,5,7.7-5.1Z" style="fill:#2e4159"/>
      <path d="M58.3,161.4a12.8,12.8,0,0,1,0-6.1l-9,.8-.3,5.7,9.9,1.7Z" style="fill:#2e4159"/>
      <path d="M79.1,178.9a18.3,18.3,0,0,1-7.9-1.9l1.3,9.2h5.7Z" style="fill:#2e4159"/>
      <path d="M61.3,153.2a32.1,32.1,0,0,0-2.9,2.5h-.1c-2.7,2.5-.1,9.6,5.8,15.9s12.8,9.3,15.5,6.8h.1a45.6,45.6,0,0,0,5.3-6.1l6-9.2a30.8,30.8,0,0,0,2.6-7.5h0c.3-1.9-1.2-5.1-3.9-8s-5.9-4.6-7.8-4.4h0c-3,.2-6.8,1.7-10.5,3.6" style="fill:#2e4159"/>
      <path d="M81.8,155.8c-4-.4-20.5-2.6-20.5-2.6a32.1,32.1,0,0,0-2.9,2.5h-.1c-2.7,2.5-.1,9.6,5.8,15.9s12.8,9.3,15.5,6.8h.1a14.8,14.8,0,0,0,2.5-2.5C82,174.7,81.6,158.1,81.8,155.8Z" style="fill:#dce3ea"/>
      <polyline points="66.3 175.2 59.8 179.6 55.2 174.6 60.3 167.7" style="fill:none;stroke:#1d132d;stroke-linecap:round;stroke-linejoin:round;stroke-width:2px"/>
      <polyline points="57.9 163.4 49.1 161.9 49.4 156.2 59.1 155.3" style="fill:none;stroke:#1d132d;stroke-linecap:round;stroke-linejoin:round;stroke-width:2px"/>
      <polyline points="71.4 178.4 72.5 186.1 78.2 186 79.1 179" style="fill:none;stroke:#1d132d;stroke-linecap:round;stroke-linejoin:round;stroke-width:2px"/>
      <path d="M79.3,178.8c-2.7,2.5-9.6-.6-15.4-7s-8.3-13.4-5.6-15.9h.1" style="fill:none;stroke:#1d132d;stroke-linecap:round;stroke-linejoin:round;stroke-width:2px"/>
      <path d="M58.4,155.8c5.4-4.9,17.6-12.4,24.5-12.9h0c2.1-.1,4.8,1.3,7.7,4.5s4.2,6.4,3.8,8.2" style="fill:none;stroke:#1d132d;stroke-linecap:round;stroke-linejoin:round;stroke-width:2px"/>
      <path d="M79.4,178.7c5.4-4.9,13.9-16.4,15-23.2" style="fill:none;stroke:#1d132d;stroke-linecap:round;stroke-linejoin:round;stroke-width:2px"/>
      <path d="M91.2,158.5a24.5,24.5,0,0,1-10.8,6.3l-6.5.9a18.5,18.5,0,0,1-8.2-1.5l-3-1.3a18.3,18.3,0,0,1-5.3-3.6c.3,3.3,2.8,8.1,6.9,12.4,5.9,6.3,12.8,9.3,15.5,6.8h.1a45.6,45.6,0,0,0,5.3-6.1l6-9.2a30.8,30.8,0,0,0,2.6-7.5h0a3.4,3.4,0,0,0,0-.4Z" style="fill:#180621;opacity:0.15"/>
      <path d="M131,137.6a38.2,38.2,0,0,1,20.3,8.2l-.6,1.6-2.9,2.5a32.9,32.9,0,0,0-17.3-7,2.7,2.7,0,1,1,.4-5.4Z" style="fill:#dce3ea"/>
      <path d="M151.9,145.7a41.7,41.7,0,0,0-19.3-8.2,3.3,3.3,0,0,0-1,6.4,39.1,39.1,0,0,1,15.8,6.4" style="fill:none;stroke:#1d132d;stroke-miterlimit:10;stroke-width:2px"/>
      <path d="M147.9,150a31.3,31.3,0,0,0-3.6-2.5,22,22,0,0,1,2.2-5,37.1,37.1,0,0,1,4.8,3.3l-.6,1.6Z" style="fill:#180621;opacity:0.15;mix-blend-mode:multiply"/>
      <path d="M173.1,174a15.6,15.6,0,0,0,2.8-2.5l.9-1.2,3.4-2.1,4.7,6.3-4.6,5-7.7-5.1Z" style="fill:#2e4159"/>
      <path d="M181.8,161.4a12.8,12.8,0,0,0,0-6.1l9,.8.3,5.7-9.9,1.7Z" style="fill:#2e4159"/>
      <path d="M161,178.9a18.3,18.3,0,0,0,7.9-1.9l-1.3,9.2h-5.7Z" style="fill:#2e4159"/>
      <path d="M178.8,153.2a32.1,32.1,0,0,1,2.9,2.5h.1c2.7,2.5.1,9.6-5.8,15.9s-12.8,9.3-15.5,6.8h-.1a45.6,45.6,0,0,1-5.3-6.1l-6-9.2a30.8,30.8,0,0,1-2.6-7.5h0c-.3-1.9,1.2-5.1,3.9-8s5.9-4.6,7.8-4.4h0c3,.2,6.8,1.7,10.5,3.6" style="fill:#2e4159"/>
      <path d="M158.3,155.8c4-.4,20.5-2.6,20.5-2.6a32.1,32.1,0,0,1,2.9,2.5h.1c2.7,2.5.1,9.6-5.8,15.9s-12.8,9.3-15.5,6.8h-.1a14.8,14.8,0,0,1-2.5-2.5C158.1,174.7,158.5,158.1,158.3,155.8Z" style="fill:#dce3ea"/>
      <polyline points="173.8 175.2 180.3 179.6 184.9 174.6 179.8 167.7" style="fill:none;stroke:#1d132d;stroke-linecap:round;stroke-linejoin:round;stroke-width:2px"/>
      <polyline points="182.2 163.4 191 161.9 190.7 156.2 181 155.3" style="fill:none;stroke:#1d132d;stroke-linecap:round;stroke-linejoin:round;stroke-width:2px"/>
      <polyline points="168.7 178.4 167.6 186.1 161.9 186 161 179" style="fill:none;stroke:#1d132d;stroke-linecap:round;stroke-linejoin:round;stroke-width:2px"/>
      <path d="M160.8,178.8c2.7,2.5,9.6-.6,15.4-7s8.3-13.4,5.6-15.9h-.1" style="fill:none;stroke:#1d132d;stroke-linecap:round;stroke-linejoin:round;stroke-width:2px"/>
      <path d="M181.7,155.8c-5.4-4.9-17.6-12.4-24.5-12.9h0c-2.1-.1-4.8,1.3-7.7,4.5s-4.2,6.4-3.8,8.2" style="fill:none;stroke:#1d132d;stroke-linecap:round;stroke-linejoin:round;stroke-width:2px"/>
      <path d="M160.7,178.7c-5.4-4.9-13.9-16.4-15-23.2" style="fill:none;stroke:#1d132d;stroke-linecap:round;stroke-linejoin:round;stroke-width:2px"/>
      <path d="M149,158.5a24.5,24.5,0,0,0,10.8,6.3l6.5.9a18.5,18.5,0,0,0,8.2-1.5l3-1.3a18.3,18.3,0,0,0,5.3-3.6c-.3,3.3-2.8,8.1-6.9,12.4-5.9,6.3-12.8,9.3-15.5,6.8h-.1a45.6,45.6,0,0,1-5.3-6.1l-6-9.2a30.8,30.8,0,0,1-2.6-7.5h0a3.4,3.4,0,0,1,0-.4Z" style="fill:#180621;opacity:0.15"/>
      <polyline points="62 153.4 81.7 155.9 82 175.9" style="fill:none;stroke:#1d132d;stroke-linecap:round;stroke-linejoin:round;stroke-width:2px"/>
      <polyline points="178.2 153.4 158.4 155.9 158.1 175.9" style="fill:none;stroke:#1d132d;stroke-linecap:round;stroke-linejoin:round;stroke-width:2px"/>
    </g>
  </g>
  <g>
    <title>atribute04</title>
    <g style="isolation:isolate">
      <path d="M71.8,98.1V69.5H63.1c-2.7,0-4.8,6.4-4.8,14.3s2.2,14.3,4.8,14.3h8.7Z" style="fill:#2e4159"/>
      <g style="opacity:0.15;mix-blend-mode:multiply">
        <path d="M59.6,92.9H59.4c0.9,3.2,2.2,5.2,3.7,5.2h8.7V86.8A16,16,0,0,1,59.6,92.9Z" style="fill:#180621"/>
      </g>
      <path d="M71.8,98.1V69.4H63.2c-2.7,0-4.8,6.4-4.8,14.3s2.2,14.3,4.8,14.3h8.7Z" style="fill:none;stroke:#1d132d;stroke-miterlimit:10;stroke-width:2px"/>
      <path d="M48.5,83.4c0-5-1.6-9-3.6-9.1h0L36.4,73,15.9,78.2h0c-1.1.1-2,2.4-2,5.2s0.9,5.1,2,5.2h0l20.5,5.2,8.6-1.3h0C46.9,92.4,48.5,88.4,48.5,83.4Z" style="fill:#dce3ea"/>
      <path d="M36.4,73L15.9,78.2h0c-1.1.1-3.2,5-2,5.2C30.6,85.9,36.4,73,36.4,73Z" style="fill:#fff;opacity:0.5"/>
      <path d="M48.5,83.4c0-5-1.6-9-3.6-9.1h0L36.4,73,15.9,78.2h0c-1.1.1-2,2.4-2,5.2s0.9,5.1,2,5.2h0l20.5,5.2,8.6-1.3h0C46.9,92.4,48.5,88.4,48.5,83.4Z" style="fill:none;stroke:#1d132d;stroke-linecap:round;stroke-linejoin:round;stroke-width:2px"/>
      <path d="M41.9,77.5c0.6-1.9,1.6-3.1,2.6-3.3" style="fill:none;stroke:#1d132d;stroke-linecap:round;stroke-linejoin:round;stroke-width:2px"/>
      <ellipse cx="45" cy="83.2" rx="3.2" ry="8.9" style="fill:#180621;opacity:0.15"/>
      <path d="M41.2,82q0-.6.1-1.3" style="fill:none;stroke:#1d132d;stroke-linecap:round;stroke-linejoin:round;stroke-width:2px"/>
      <path d="M45.1,92.5H44.8c-1.8,0-3.3-3.1-3.6-7.2" style="fill:none;stroke:#1d132d;stroke-linecap:round;stroke-linejoin:round;stroke-width:2px"/>
      <path d="M37.3,93.6H37c-2.1,0-3.8-3.5-4.2-8.3" style="fill:none;stroke:#1d132d;stroke-linecap:round;stroke-linejoin:round;stroke-width:2px"/>
      <path d="M168.4,98.1V69.5H177c2.7,0,4.8,6.4,4.8,14.3s-2.2,14.3-4.8,14.3h-8.7Z" style="fill:#2e4159"/>
      <g style="opacity:0.15;mix-blend-mode:multiply">
        <path d="M180.6,92.9h0.1c-0.9,3.2-2.2,5.2-3.7,5.2h-8.7V86.8A16,16,0,0,0,180.6,92.9Z" style="fill:#180621"/>
      </g>
      <path d="M168.4,98.1V69.4H177c2.7,0,4.8,6.4,4.8,14.3s-2.2,14.3-4.8,14.3h-8.7Z" style="fill:none;stroke:#1d132d;stroke-miterlimit:10;stroke-width:2px"/>
      <path d="M191.7,83.4c0-5,1.6-9,3.6-9.1h0l8.6-1.3,20.5,5.2h0c1.1,0.1,2,2.4,2,5.2s-0.9,5.1-2,5.2h0l-20.5,5.2-8.6-1.3h0C193.3,92.4,191.7,88.4,191.7,83.4Z" style="fill:#dce3ea"/>
      <path d="M203.8,73l20.5,5.2h0c1.1,0.1,3.2,5,2,5.2C209.5,85.9,203.8,73,203.8,73Z" style="fill:#fff;opacity:0.5"/>
      <path d="M191.7,83.4c0-5,1.6-9,3.6-9.1h0l8.6-1.3,20.5,5.2h0c1.1,0.1,2,2.4,2,5.2s-0.9,5.1-2,5.2h0l-20.5,5.2-8.6-1.3h0C193.3,92.4,191.7,88.4,191.7,83.4Z" style="fill:none;stroke:#1d132d;stroke-linecap:round;stroke-linejoin:round;stroke-width:2px"/>
      <path d="M198.3,77.5c-0.6-1.9-1.6-3.1-2.6-3.3" style="fill:none;stroke:#1d132d;stroke-linecap:round;stroke-linejoin:round;stroke-width:2px"/>
      <ellipse cx="195.1" cy="83.2" rx="3.2" ry="8.9" style="fill:#180621;opacity:0.15"/>
      <path d="M199,82q0-.6-0.1-1.3" style="fill:none;stroke:#1d132d;stroke-linecap:round;stroke-linejoin:round;stroke-width:2px"/>
      <path d="M195.1,92.5h0.3c1.8,0,3.3-3.1,3.6-7.2" style="fill:none;stroke:#1d132d;stroke-linecap:round;stroke-linejoin:round;stroke-width:2px"/>
      <path d="M202.8,93.6h0.3c2.1,0,3.8-3.5,4.2-8.3" style="fill:none;stroke:#1d132d;stroke-linecap:round;stroke-linejoin:round;stroke-width:2px"/>
    </g>
  </g>
  <g>
    <path d="M131.3,34.3a76.8,76.8,0,0,0-11.1-.9,84.7,84.7,0,0,0-11.6.9C82.9,38.8,65.3,60.4,65.3,88c0,15.4,3.2,29.6,12.1,37.2s18.2,10.8,39.5,11.1h-7.7c-7,6.6-11.8,18.9-11.8,29.9,0,16,10.1,19.5,22.6,19.5s22.6-3.4,22.6-19.5c0-11.1-4.9-23.5-12-30.1h-5.2c19.6-.5,28.4-3.6,37.2-11.1s12.1-21.8,12.1-37.2C174.7,60.4,157.1,38.8,131.3,34.3Z" style="fill:#ffd3f5"/>
    <path d="M111.2,185a36.3,36.3,0,0,0,5.7.7" style="fill:none;stroke:#1d132d;stroke-linecap:round;stroke-linejoin:round;stroke-width:2px"/>
    <path d="M108.9,136.7a30.2,30.2,0,0,0-3.8,4.5" style="fill:none;stroke:#1d132d;stroke-miterlimit:10;stroke-width:2px"/>
    <path d="M129,185a36.3,36.3,0,0,1-5.7.7" style="fill:none;stroke:#1d132d;stroke-linecap:round;stroke-linejoin:round;stroke-width:2px"/>
    <path d="M131.3,136.7a30.2,30.2,0,0,1,3.8,4.5" style="fill:none;stroke:#1d132d;stroke-miterlimit:10;stroke-width:2px"/>
    <path d="M130.5,136.1c-3.1.3-6.1,0.6-9.4,0.6a111.1,111.1,0,0,1-12.3-.4l-6.8,9.6a41,41,0,0,0,17.6,3.6,40.7,40.7,0,0,0,17.8-3.7C137.2,145.4,130.9,136.5,130.5,136.1Z" style="fill:#180621;opacity:0.15"/>
    <circle cx="120" cy="160.8" r="12.4" style="fill:#2e4159"/>
    <path d="M120,151.3a12.4,12.4,0,0,1,12.4,11.1,12.4,12.4,0,1,0-24.7,0A12.4,12.4,0,0,1,120,151.3Z" style="fill:#36c8e3;opacity:0.2"/>
    <circle cx="120" cy="160.8" r="12.4" style="fill:none;stroke:#1d132d;stroke-linecap:round;stroke-linejoin:round;stroke-width:2px"/>
    <path d="M123.3,155a4.1,4.1,0,0,0-3.3,1.7,4.1,4.1,0,0,0-7.5,2.4c0,4.1,5.2,7.8,7.5,9.4,2-1.5,7.5-5.5,7.5-9.4A4.1,4.1,0,0,0,123.3,155Z" style="fill:#36c8e3"/>
    <g style="opacity:0.30000000000000004">
      <path d="M108.7,44.1a84.7,84.7,0,0,1,11.6-.9,76.8,76.8,0,0,1,11.1.9c24.4,4.3,41.5,23.9,43.2,49.5q0.1-2.7.1-5.5c0-27.7-17.6-49.2-43.4-53.7a76.8,76.8,0,0,0-11.1-.9,84.7,84.7,0,0,0-11.6.9C82.9,39,65.3,60.5,65.3,88.1q0,2.8.1,5.5C67.1,68,84.3,48.4,108.7,44.1Z" style="fill:#fff"/>
    </g>
    <path d="M125.4,136.4c19.6-.5,28.4-3.6,37.2-11.1s12.1-21.8,12.1-37.2c0-27.7-17.6-49.2-43.4-53.7a76.8,76.8,0,0,0-11.1-.9,84.7,84.7,0,0,0-11.6.9C82.9,39,65.3,60.5,65.3,88.1c0,15.4,3.2,29.6,12.1,37.2s18.2,10.8,39.5,11.1h8.5Z" style="fill:none;stroke:#1d132d;stroke-miterlimit:10;stroke-width:2px"/>
    <path d="M109.2,136.5c-7,6.6-11.8,18.9-11.8,29.9,0,16,10.1,19.5,22.6,19.5s22.6-3.4,22.6-19.5c0-11.1-4.9-23.5-12-30.1" style="fill:none;stroke:#1d132d;stroke-miterlimit:10;stroke-width:2px"/>
    <g style="opacity:0.30000000000000004">
      <path d="M108.7,44.1a84.7,84.7,0,0,1,11.6-.9,76.8,76.8,0,0,1,11.1.9c24.4,4.3,41.5,23.9,43.2,49.5q0.1-2.7.1-5.5c0-27.7-17.6-49.2-43.4-53.7a76.8,76.8,0,0,0-11.1-.9,84.7,84.7,0,0,0-11.6.9C82.9,39,65.3,60.5,65.3,88.1q0,2.8.1,5.5C67.1,68,84.3,48.4,108.7,44.1Z" style="fill:#fff"/>
    </g>
    <path d="M125.4,136.4c19.6-.5,28.4-3.6,37.2-11.1s12.1-21.8,12.1-37.2c0-27.7-17.6-49.2-43.4-53.7a76.8,76.8,0,0,0-11.1-.9,84.7,84.7,0,0,0-11.6.9C82.9,39,65.3,60.5,65.3,88.1c0,15.4,3.2,29.6,12.1,37.2s18.2,10.8,39.5,11.1h8.5Z" style="fill:none;stroke:#1d132d;stroke-miterlimit:10;stroke-width:2px"/>
  </g>
  <g>
    <title>07</title>
    <path d="M119.8,136.6c-26.6,0-36.1-4-44.2-10.3L74,124.8c-11-10.7-8.2-26-8.2-26s12.7,12,37.9,16h0.1l15.5-10.2a2,2,0,0,1,2.2,0l15.2,10h0.2c24.4-4.1,37.4-15.8,37.4-15.8s2.8,15.4-8.2,26l-1.7,1.4c-8.1,6.3-17.6,10.3-44.2,10.3" style="fill:#dce3ea"/>
    <path d="M100.4,124.1c-0.1,2.9-3.2,4.1-7,3.3-18.6-4-16.6-15-16.6-15s10.2,4.8,17.9,6.4C98.2,119.5,100.5,121.6,100.4,124.1Z" style="fill:#2e4159"/>
    <path d="M119.8,136.6c-26.6,0-36.1-4-44.2-10.3L74,124.8c-11-10.7-8.2-26-8.2-26s12.7,12,37.9,16h0.1l15.5-10.2a2,2,0,0,1,2.2,0l15.2,10h0.2c24.4-4.1,37.4-15.8,37.4-15.8s2.8,15.4-8.2,26l-1.7,1.4c-8.1,6.3-17.6,10.3-44.2,10.3" style="fill:none;stroke:#1d132d;stroke-linecap:round;stroke-linejoin:round;stroke-width:2px"/>
    <path d="M100.4,124.1c-0.1,2.9-3.2,4.1-7,3.3-18.6-4-16.6-15-16.6-15s10.2,4.8,17.9,6.4C98.2,119.5,100.5,121.6,100.4,124.1Z" style="fill:none;stroke:#1d132d;stroke-linecap:round;stroke-linejoin:round;stroke-width:2px"/>
    <path d="M139.6,124.1c0.1,2.9,3.2,4.1,7,3.3,18.6-4,16.6-15,16.6-15s-10.2,4.8-17.9,6.4C141.8,119.5,139.5,121.6,139.6,124.1Z" style="fill:#2e4159"/>
    <path d="M139.6,124.1c0.1,2.9,3.2,4.1,7,3.3,18.6-4,16.6-15,16.6-15s-10.2,4.8-17.9,6.4C141.8,119.5,139.5,121.6,139.6,124.1Z" style="fill:none;stroke:#1d132d;stroke-linecap:round;stroke-linejoin:round;stroke-width:2px"/>
    <path d="M94.7,118.8c-7.7-1.6-17.9-6.4-17.9-6.4a8.8,8.8,0,0,0,.3,3.7c1.8,0.8,10.7,4.8,17.6,6.2,2.6,0.5,4.5,1.8,5.3,3.4a3.4,3.4,0,0,0,.4-1.6C100.5,121.6,98.2,119.5,94.7,118.8Z" style="fill:#180621;opacity:0.15"/>
    <polyline points="132 136 132 119.7 132 119.5 120.4 111.8 108.4 119.7 108.4 119.9 108.4 136.1" style="fill:#2e4159"/>
    <path d="M166.1,118.5l-1.7,1.4c-8.1,6.3-17.6,10.3-44.2,10.3h-0.4c-26.6,0-36.1-4-44.2-10.3L74,118.5a28.8,28.8,0,0,1-8.3-18.3c-0.4,4-.7,15.9,8.3,24.7l1.7,1.4c8.1,6.3,17.6,10.3,44.2,10.3h0.4c26.6,0,36.1-4,44.2-10.3l1.7-1.4c9-8.8,8.7-20.7,8.3-24.7A28.8,28.8,0,0,1,166.1,118.5Z" style="fill:#180621;opacity:0.15"/>
    <path d="M145.4,118.8c7.7-1.6,17.9-6.4,17.9-6.4a8.8,8.8,0,0,1-.3,3.7c-1.8.8-10.7,4.8-17.6,6.2-2.6.5-4.5,1.8-5.3,3.4a3.4,3.4,0,0,1-.4-1.6C139.5,121.6,141.8,119.5,145.4,118.8Z" style="fill:#180621;opacity:0.15"/>
    <polyline points="132 136 132 119.7 132 119.5 120.4 111.8 108.4 119.7 108.4 119.9 108.4 136.1" style="fill:none;stroke:#1d132d;stroke-linecap:round;stroke-linejoin:round;stroke-width:2px"/>
  </g>
  <g>
    <title>atribute11-01</title>
    <polygon points="130.6 97.1 163.6 81.9 167.9 75.8 137.5 75.8 129.7 81.3 110.5 81.3 102.7 75.8 72.4 75.8 76.6 81.9 109.6 97.1 130.6 97.1" style="fill:#2e4159"/>
    <line x1="172.1" y1="75.8" x2="160.9" y2="75.8" style="fill:none;stroke:#1d132d;stroke-linecap:round;stroke-linejoin:round;stroke-width:2px"/>
    <polygon points="130.6 97.1 163.6 81.9 167.9 75.8 137.5 75.8 129.7 81.3 110.5 81.3 102.7 75.8 72.4 75.8 76.6 81.9 109.6 97.1 130.6 97.1" style="fill:none;stroke:#1d132d;stroke-linecap:round;stroke-linejoin:round;stroke-width:2px"/>
    <line x1="67.9" y1="75.8" x2="79.1" y2="75.8" style="fill:none;stroke:#1d132d;stroke-linecap:round;stroke-linejoin:round;stroke-width:2px"/>
    <path d="M112.9,82.4a7.3,7.3,0,1,0,14.4,0H112.9Z" style="fill:#e83a27"/>
  </g>
  <g>
    <title>05</title>
    <path d="M120.1,58.2h0l13.5-13.1,3.6-9A52.4,52.4,0,0,0,120,33.5a58.2,58.2,0,0,0-16.7,2.3l3.4,9.3Z" style="fill:#dce3ea"/>
    <path d="M80.9,48.9a50.6,50.6,0,0,1,20-12l1.4-.8V14.8h-12L79.5,49.8l1.1-.7Z" style="fill:#2e4159"/>
    <polygon points="102.3 20.3 102.3 14.8 90.3 14.8 88.6 20.3 102.3 20.3" style="fill:#dce3ea"/>
    <path d="M159.3,48.9a50.6,50.6,0,0,0-20-12l-1.4-.8V14.8h12l10.8,35.1-1.1-.7Z" style="fill:#2e4159"/>
    <polygon points="137.9 20.3 137.9 14.8 149.9 14.8 151.6 20.3 137.9 20.3" style="fill:#dce3ea"/>
    <line x1="89.2" y1="20" x2="101.8" y2="20" style="fill:none;stroke:#1d132d;stroke-linecap:round;stroke-linejoin:round;stroke-width:2px"/>
    <polyline points="106.6 45.1 120.1 58.2 120.1 58.2 133.6 45.1" style="fill:none;stroke:#1d132d;stroke-linecap:round;stroke-linejoin:round;stroke-width:2px"/>
    <line x1="113.5" y1="51.4" x2="126.6" y2="51.4" style="fill:none;stroke:#1d132d;stroke-linecap:round;stroke-linejoin:round;stroke-width:2px"/>
    <line x1="107.6" y1="45.5" x2="132.5" y2="45.6" style="fill:none;stroke:#1d132d;stroke-linecap:round;stroke-linejoin:round;stroke-width:2px"/>
    <line x1="135.2" y1="39.6" x2="104.8" y2="39.6" style="fill:none;stroke:#1d132d;stroke-linecap:round;stroke-linejoin:round;stroke-width:2px"/>
    <line x1="106.4" y1="44.9" x2="102.3" y2="35.5" style="fill:none;stroke:#1d132d;stroke-linecap:round;stroke-linejoin:round;stroke-width:2px"/>
    <line x1="150.9" y1="20.1" x2="138.3" y2="20.1" style="fill:none;stroke:#1d132d;stroke-linecap:round;stroke-linejoin:round;stroke-width:2px"/>
    <line x1="133.7" y1="45" x2="137.8" y2="35.6" style="fill:none;stroke:#1d132d;stroke-linecap:round;stroke-linejoin:round;stroke-width:2px"/>
    <polyline points="79.5 49.8 90.3 14.8 102.3 14.8 102.3 36" style="fill:none;stroke:#1d132d;stroke-linecap:round;stroke-linejoin:round;stroke-width:2px"/>
    <polyline points="160.6 50 149.9 14.9 137.9 14.9 137.9 36.1" style="fill:none;stroke:#1d132d;stroke-linecap:round;stroke-linejoin:round;stroke-width:2px"/>
    <path d="M160.7,50.3a51.5,51.5,0,0,0-29.4-15.9,76.8,76.8,0,0,0-11.1-.9,84.7,84.7,0,0,0-11.6.9A51.5,51.5,0,0,0,79.6,50" style="fill:none;stroke:#1d132d;stroke-linecap:round;stroke-linejoin:round;stroke-width:2px"/>
  </g>
</svg>