<svg xmlns="http://www.w3.org/2000/svg" xmlns:xlink="http://www.w3.org/1999/xlink" viewBox="0 0 240 240">
  <ellipse cx="120.5" cy="233.4" rx="43.7" ry="4.9" style="fill:#180621;opacity:0.15"/>
  <g>
    <title>03</title>
    <path d="M129.9,192.6c3.9,1.1,6.4,2.9,6.4,4.8s-7.3,6.1-16.3,6.1-16.3-2.7-16.3-6.1,2.5-3.7,6.5-4.8" style="fill:#36c8e3"/>
    <ellipse cx="120" cy="229.8" rx="4.1" ry="2.6" style="fill:#36c8e3"/>
    <ellipse cx="120" cy="221.2" rx="7.2" ry="3.2" style="fill:#36c8e3"/>
    <path d="M118.9,206.3H120c6.2,0,11.3,2,11.3,4.5s-5.1,4.5-11.3,4.5-11.3-2-11.3-4.5,4.5-4.3,10.2-4.5" style="fill:#36c8e3"/>
    <path d="M125.8,192.5c2.3.7,3.7,1.7,3.7,2.8s-4.3,3.6-9.6,3.6-9.6-1.6-9.6-3.6,1.5-2.2,3.8-2.8" style="fill:#180621;opacity:0.25"/>
    <path d="M124.5,206.2c1.8.5,2.9,1.4,2.9,2.3s-3.3,2.9-7.4,2.9-7.4-1.3-7.4-2.9,1.1-1.8,2.9-2.3" style="fill:#180621;opacity:0.25"/>
    <path d="M122.9,217.8c1.1.4,1.8.9,1.8,1.5s-2.1,1.9-4.7,1.9-4.7-.9-4.7-1.9.7-1.2,1.9-1.5" style="fill:#180621;opacity:0.25"/>
    <path d="M121.3,227.1a1.3,1.3,0,0,1,.8,1.1c0,.7-1,1.3-2.2,1.3s-2.2-.6-2.2-1.3a1.3,1.3,0,0,1,.9-1.1" style="fill:#180621;opacity:0.25"/>
    <path d="M137.2,180.3H102.8v7.4c0,3.2,7.7,5.8,17.2,5.8s17.2-2.6,17.2-5.8Z" style="fill:#2e4159"/>
    <path d="M129.9,192.6c3.9,1.1,6.4,2.9,6.4,4.8s-7.3,6.1-16.3,6.1-16.3-2.7-16.3-6.1,2.5-3.7,6.5-4.8" style="fill:none;stroke:#1d132d;stroke-linecap:round;stroke-linejoin:round;stroke-width:2px"/>
    <path d="M118.9,206.3H120c6.2,0,11.3,2,11.3,4.5s-5.1,4.5-11.3,4.5-11.3-2-11.3-4.5,4.5-4.3,10.2-4.5" style="fill:none;stroke:#1d132d;stroke-linecap:round;stroke-linejoin:round;stroke-width:2px"/>
    <ellipse cx="120" cy="221.2" rx="7.2" ry="3.2" style="fill:none;stroke:#1d132d;stroke-linecap:round;stroke-linejoin:round;stroke-width:2px"/>
    <ellipse cx="120" cy="229.8" rx="4.1" ry="2.6" style="fill:none;stroke:#1d132d;stroke-linecap:round;stroke-linejoin:round;stroke-width:2px"/>
    <path d="M137.2,180.3H102.8v7.4c0,3.2,7.7,5.8,17.2,5.8s17.2-2.6,17.2-5.8Z" style="fill:none;stroke:#1d132d;stroke-miterlimit:10;stroke-width:2px"/>
  </g>
  <g>
    <title>atribut</title>
    <rect x="25.9" y="138.5" width="23.7" height="6.66" transform="translate(7.5 -1.8) rotate(3)" style="fill:#dce3ea"/>
    <rect x="25.9" y="138.5" width="23.7" height="6.66" transform="translate(7.5 -1.8) rotate(3)" style="fill:#180621;opacity:0.15"/>
    <rect x="25.9" y="138.1" width="8.1" height="6.66" transform="translate(7.5 -1.4) rotate(3)" style="fill:#180621;opacity:0.15"/>
    <rect x="75.4" y="156.7" width="29.4" height="3.43" transform="translate(-83.7 103.7) rotate(-42.9)" style="fill:#dce3ea"/>
    <rect x="75.4" y="156.7" width="29.4" height="3.43" transform="translate(-83.7 103.7) rotate(-42.9)" style="fill:#180621;opacity:0.15"/>
    <rect x="72.7" y="144.6" width="19" height="9.13" rx="4.4" ry="4.4" transform="translate(-79 94.2) rotate(-42.3)" style="fill:#dce3ea"/>
    <path d="M85.1,152.4a4.6,4.6,0,0,1-7-5.7l-2.6,2.4a4.6,4.6,0,1,0,6.1,6.8l7.3-6.6a4.5,4.5,0,0,0,.8-1.1Z" style="fill:#180621;opacity:0.15"/>
    <path d="M63.8,160.4l14.4,1.1a5.2,5.2,0,0,1,4.5,5.7h0a5.2,5.2,0,0,1-5.7,4.5l-13.6-1.1" style="fill:#dce3ea"/>
    <path d="M81.2,163a5.2,5.2,0,0,1-5.5,3.5L64.2,165l-0.3,5.2L77,171.8A5.1,5.1,0,0,0,81.2,163Z" style="fill:#180621;opacity:0.15"/>
    <path d="M63.2,160.2l15,1.3a5.2,5.2,0,0,1,4.5,5.7h0a5.2,5.2,0,0,1-5.7,4.5l-14.2-1.2" style="fill:none;stroke:#1d132d;stroke-linecap:round;stroke-linejoin:round;stroke-width:2px"/>
    <circle cx="77.9" cy="166.6" r="0.6" transform="translate(-33.1 20) rotate(-12.1)" style="fill:none;stroke:#1d132d;stroke-linecap:round;stroke-linejoin:round;stroke-width:2px"/>
    <line x1="64.4" y1="165.3" x2="71.5" y2="166" style="fill:none;stroke:#1d132d;stroke-linecap:round;stroke-linejoin:round;stroke-width:2px"/>
    <path d="M99.6,152.8a8.5,8.5,0,0,1,3.6-16.1l7.2,0.4" style="fill:#2e4159"/>
    <path d="M100.8,147.7a8.4,8.4,0,0,1-4.3-7.4v-0.2a8.4,8.4,0,0,0,2.6,12.4A15.6,15.6,0,0,1,100.8,147.7Z" style="fill:#180621;opacity:0.15"/>
    <path d="M107.2,138.1a2.7,2.7,0,0,1-2,3.6c-1.9.6-5.9-.2-6.3-1.5s2-2.8,4-3.4S106.7,136.8,107.2,138.1Z" style="fill:#fff;opacity:0.2"/>
    <path d="M99.6,152.8a8.5,8.5,0,0,1,3.6-16.1,22.5,22.5,0,0,1,5.1.5" style="fill:none;stroke:#1d132d;stroke-linecap:round;stroke-linejoin:round;stroke-width:2px"/>
    <path d="M61.7,132.8l-8-14a5.6,5.6,0,0,0-4.4-2.8l-17.5-1.4a17.6,17.6,0,0,0-4.6,3.1v21.2l20.6,1.6,9.2,0.7C61.2,141.6,64,136.7,61.7,132.8Z" style="fill:#dce3ea"/>
    <path d="M61.7,132.8v-0.2a4.9,4.9,0,0,1-4.4,2l-9.2-.7-20.4-1.6H27.2v6.6l20.6,1.6,9.2,0.7C61.2,141.6,64,136.7,61.7,132.8Z" style="fill:#180621;opacity:0.15"/>
    <path d="M35.8,117.1l8,14c2.2,3.9-.5,8.8-4.8,8.5l-17.3-1.4c-4.3-.3-6.5-5.6-3.9-9.2l9.3-12.6A5.1,5.1,0,0,1,35.8,117.1Z" style="fill:#dce3ea"/>
    <path d="M34.3,121.6a3.7,3.7,0,0,1-3.9,3.6,4,4,0,0,1-3.5-4.2,3.7,3.7,0,0,1,3.9-3.6A4,4,0,0,1,34.3,121.6Z" style="fill:#fff;opacity:0.5"/>
    <path d="M39.2,131.1a3.7,3.7,0,0,1-3.9,3.6,4,4,0,0,1-3.5-4.2,3.7,3.7,0,0,1,3.9-3.6A4,4,0,0,1,39.2,131.1Z" style="fill:#fff;opacity:0.5"/>
    <path d="M29.2,129.5a3.7,3.7,0,0,1-3.9,3.6,4,4,0,0,1-3.5-4.2,3.7,3.7,0,0,1,3.9-3.6A4,4,0,0,1,29.2,129.5Z" style="fill:#fff;opacity:0.5"/>
    <path d="M33.4,123.1a2.7,2.7,0,0,1-2.9,2.7,3,3,0,0,1-2.6-3.2,2.7,2.7,0,0,1,2.9-2.7A3,3,0,0,1,33.4,123.1Z" style="fill:#2e4159"/>
    <path d="M28.4,130.8a2.7,2.7,0,0,1-2.9,2.7,3,3,0,0,1-2.6-3.2,2.7,2.7,0,0,1,2.9-2.7A3,3,0,0,1,28.4,130.8Z" style="fill:#2e4159"/>
    <path d="M37.9,131.6a2.7,2.7,0,0,1-2.9,2.7,3,3,0,0,1-2.6-3.2,2.7,2.7,0,0,1,2.9-2.7A3,3,0,0,1,37.9,131.6Z" style="fill:#2e4159"/>
    <path d="M39.2,135.9l-17.3-1.4a5.5,5.5,0,0,1-4.8-4.2c-1.3,3.4.9,7.6,4.6,7.9l17.3,1.4c3.8,0.3,6.3-3.5,5.3-7.1A5.1,5.1,0,0,1,39.2,135.9Z" style="fill:#180621;opacity:0.15"/>
    <path d="M25.7,144.3l21.5,2.1a17.9,17.9,0,0,1,16,19.1h0a17.1,17.1,0,0,1-18.7,15.7L25,179.3" style="fill:#dce3ea"/>
    <path d="M59.3,152.3c3.3,3.9,3.9,8.7,1.5,10.8s-7.2.7-10.4-3.4c-0.4-.6-3-10.7-4.8-12.7S56,148.4,59.3,152.3Z" style="fill:#fff;opacity:0.5"/>
    <path d="M41.3,163.3c-0.8,9.6-8.8,16.7-17.9,15.8s-16-9.4-15.2-19,8.8-16.7,17.9-15.8S42,153.7,41.3,163.3Z" style="fill:#dce3ea"/>
    <path d="M41.3,163.3c-0.8,9.6-8.8,16.7-17.9,15.8s-16-9.4-15.2-19,8.8-16.7,17.9-15.8S42,153.7,41.3,163.3Z" style="fill:#dce3ea"/>
    <path d="M24.7,174.6c-9.2-.9-16-9.4-15.2-19,0-.5.1-1,0.2-1.4a18,18,0,0,0-1.6,6c-0.8,9.6,6.1,18.1,15.2,19s16.4-5.5,17.8-14.4A16.3,16.3,0,0,1,24.7,174.6Z" style="fill:#180621;opacity:0.15"/>
    <path d="M63.1,165.4a17.1,17.1,0,0,1-17.4,10.5l-10.5-1-7.2,4.6,16.5,1.7a17.1,17.1,0,0,0,18.7-15.7h0Z" style="fill:#180621;opacity:0.15"/>
    <path d="M35.7,162.8a11.1,11.1,0,0,1-11.9,10.5c-6.1-.6-10.6-6.3-10.1-12.6a11.1,11.1,0,0,1,11.9-10.5C31.7,150.7,36.2,156.4,35.7,162.8Z" style="fill:#ff9a00"/>
    <path d="M35.7,162.6a7.6,7.6,0,0,1-8.2,7.2,7.9,7.9,0,0,1-6.9-8.7,7.6,7.6,0,0,1,8.2-7.2A7.9,7.9,0,0,1,35.7,162.6Z" style="fill:#e83a27"/>
    <path d="M24.7,153.8l1.1,0.2a7.7,7.7,0,0,0-6.4,7.1,8,8,0,0,0,5.8,8.5H23.4a7.9,7.9,0,0,1-6.9-8.7A7.6,7.6,0,0,1,24.7,153.8Z" style="fill:#fff"/>
    <path d="M41.3,163.3c-0.8,9.6-8.8,16.7-17.9,15.8s-16-9.4-15.2-19,8.8-16.7,17.9-15.8S42,153.7,41.3,163.3Z" style="fill:none;stroke:#1d132d;stroke-linecap:round;stroke-linejoin:round;stroke-width:2px"/>
    <path d="M43.3,146.1a20.9,20.9,0,0,1,7.5,17.7,20,20,0,0,1-11.2,16.6" style="fill:none;stroke:#1d132d;stroke-linecap:round;stroke-linejoin:round;stroke-width:2px"/>
    <path d="M35.7,162.8a11.1,11.1,0,0,1-11.9,10.5c-6.1-.6-10.6-6.3-10.1-12.6a11.1,11.1,0,0,1,11.9-10.5C31.7,150.7,36.2,156.4,35.7,162.8Z" style="fill:none;stroke:#1d132d;stroke-linecap:round;stroke-linejoin:round;stroke-width:2px"/>
    <path d="M35.5,162.6a7.6,7.6,0,0,1-8.2,7.2,8,8,0,0,1-6.9-8.7,7.6,7.6,0,0,1,8.2-7.2A8,8,0,0,1,35.5,162.6Z" style="fill:none;stroke:#1d132d;stroke-linecap:round;stroke-linejoin:round;stroke-width:2px"/>
    <path d="M31.2,162.2a2.2,2.2,0,0,1-2.4,2.1,2.3,2.3,0,0,1-2-2.5,2.2,2.2,0,0,1,2.4-2.1A2.3,2.3,0,0,1,31.2,162.2Z" style="fill:#ff9a00"/>
    <path d="M31.2,162.2a2.2,2.2,0,0,1-2.4,2.1,2.3,2.3,0,0,1-2-2.5,2.2,2.2,0,0,1,2.4-2.1A2.3,2.3,0,0,1,31.2,162.2Z" style="fill:none;stroke:#1d132d;stroke-linecap:round;stroke-linejoin:round;stroke-width:2px"/>
    <ellipse cx="38.8" cy="161.7" rx="0.9" ry="1" transform="translate(-127.5 161.6) rotate(-76.5)" style="fill:#fff;opacity:0.5"/>
    <path d="M25.4,144.3l21.7,2.1a17.9,17.9,0,0,1,16,19.1h0a17.1,17.1,0,0,1-18.7,15.7l-19.5-1.9" style="fill:none;stroke:#1d132d;stroke-linecap:round;stroke-linejoin:round;stroke-width:2px"/>
    <line x1="14.1" y1="160.1" x2="20.1" y2="160.7" style="fill:none;stroke:#1d132d;stroke-linecap:round;stroke-linejoin:round;stroke-width:2px"/>
    <line x1="21.1" y1="165.8" x2="15.4" y2="166.9" style="fill:none;stroke:#1d132d;stroke-linecap:round;stroke-linejoin:round;stroke-width:2px"/>
    <line x1="17.1" y1="154.3" x2="22.9" y2="155.3" style="fill:none;stroke:#1d132d;stroke-linecap:round;stroke-linejoin:round;stroke-width:2px"/>
    <path d="M35.8,117.2l8,14c2.2,3.9-.5,8.8-4.8,8.5l-17.3-1.4c-4.3-.3-6.5-5.6-3.9-9.2l9.3-12.6A5.1,5.1,0,0,1,35.8,117.2Z" style="fill:none;stroke:#1d132d;stroke-linecap:round;stroke-linejoin:round;stroke-width:2px"/>
    <path d="M27.4,133.5a2.6,2.6,0,0,1-3.9-.3,3.1,3.1,0,0,1,.2-4.2,2.6,2.6,0,0,1,3.9.3A3.1,3.1,0,0,1,27.4,133.5Z" style="fill:none;stroke:#1d132d;stroke-linecap:round;stroke-linejoin:round;stroke-width:2px"/>
    <path d="M37.3,134.3a2.6,2.6,0,0,1-3.9-.3,3.1,3.1,0,0,1,.2-4.2,2.6,2.6,0,0,1,3.9.3A3.1,3.1,0,0,1,37.3,134.3Z" style="fill:none;stroke:#1d132d;stroke-linecap:round;stroke-linejoin:round;stroke-width:2px"/>
    <path d="M32.6,126a2.6,2.6,0,0,1-3.9-.3,3.1,3.1,0,0,1,.2-4.2,2.6,2.6,0,0,1,3.9.3A3.1,3.1,0,0,1,32.6,126Z" style="fill:none;stroke:#1d132d;stroke-linecap:round;stroke-linejoin:round;stroke-width:2px"/>
    <path d="M31.7,114.4L49.2,116a5.6,5.6,0,0,1,4.4,2.8l8,14c2.2,3.9-.5,8.8-4.8,8.5l-9.2-.7-20.6-1.6" style="fill:none;stroke:#1d132d;stroke-linecap:round;stroke-linejoin:round;stroke-width:2px"/>
    <line x1="26.1" y1="138.6" x2="25.9" y2="143.7" style="fill:none;stroke:#1d132d;stroke-linecap:round;stroke-linejoin:round;stroke-width:2px"/>
    <line x1="33.6" y1="139.5" x2="33.3" y2="144.5" style="fill:none;stroke:#1d132d;stroke-linecap:round;stroke-linejoin:round;stroke-width:2px"/>
    <line x1="49.7" y1="140.9" x2="49.4" y2="146" style="fill:none;stroke:#1d132d;stroke-linecap:round;stroke-linejoin:round;stroke-width:2px"/>
    <rect x="72.7" y="144.6" width="19" height="9.13" rx="4.4" ry="4.4" transform="translate(-79 94.2) rotate(-42.3)" style="fill:none;stroke:#1d132d;stroke-linecap:round;stroke-linejoin:round;stroke-width:2px"/>
    <line x1="99.1" y1="153.2" x2="80.7" y2="170.9" style="fill:none;stroke:#1d132d;stroke-linecap:round;stroke-linejoin:round;stroke-width:2px"/>
    <line x1="95.8" y1="149.2" x2="81.4" y2="163" style="fill:none;stroke:#1d132d;stroke-linecap:round;stroke-linejoin:round;stroke-width:2px"/>
    <path d="M73,160.7a7.7,7.7,0,0,1,1.9-5.2" style="fill:none;stroke:#1d132d;stroke-linecap:round;stroke-linejoin:round;stroke-width:2px"/>
    <path d="M88.9,142.3a7.4,7.4,0,0,1,6.5-.6" style="fill:none;stroke:#1d132d;stroke-linecap:round;stroke-linejoin:round;stroke-width:2px"/>
    <rect x="190.4" y="138.5" width="23.7" height="6.66" transform="translate(411.6 272.8) rotate(177)" style="fill:#dce3ea"/>
    <rect x="190.4" y="138.5" width="23.7" height="6.66" transform="translate(411.6 272.8) rotate(177)" style="fill:#180621;opacity:0.15"/>
    <rect x="206" y="138.1" width="8.1" height="6.66" transform="translate(427.2 271.6) rotate(177)" style="fill:#180621;opacity:0.15"/>
    <rect x="135.2" y="156.7" width="29.4" height="3.43" transform="translate(151.9 376.6) rotate(-137.1)" style="fill:#dce3ea"/>
    <rect x="135.2" y="156.7" width="29.4" height="3.43" transform="translate(151.9 376.6) rotate(-137.1)" style="fill:#180621;opacity:0.15"/>
    <rect x="148.4" y="144.6" width="19" height="9.13" rx="4.4" ry="4.4" transform="translate(174.1 365.8) rotate(-137.7)" style="fill:#dce3ea"/>
    <path d="M155,152.4a4.6,4.6,0,0,0,7-5.7l2.6,2.4a4.6,4.6,0,0,1-6.1,6.8l-7.3-6.6a4.5,4.5,0,0,1-.8-1.1Z" style="fill:#180621;opacity:0.15"/>
    <path d="M176.2,160.4l-14.4,1.1a5.2,5.2,0,0,0-4.5,5.7h0a5.2,5.2,0,0,0,5.7,4.5l13.6-1.1" style="fill:#dce3ea"/>
    <path d="M158.8,163a5.2,5.2,0,0,0,5.5,3.5l11.5-1.5,0.3,5.2L163,171.8A5.1,5.1,0,0,1,158.8,163Z" style="fill:#180621;opacity:0.15"/>
    <path d="M176.8,160.2l-15,1.3a5.2,5.2,0,0,0-4.5,5.7h0a5.2,5.2,0,0,0,5.7,4.5l14.2-1.2" style="fill:none;stroke:#1d132d;stroke-linecap:round;stroke-linejoin:round;stroke-width:2px"/>
    <circle cx="162.1" cy="166.6" r="0.6" transform="translate(-34.7 290.3) rotate(-77.9)" style="fill:none;stroke:#1d132d;stroke-linecap:round;stroke-linejoin:round;stroke-width:2px"/>
    <line x1="175.6" y1="165.3" x2="168.5" y2="166" style="fill:none;stroke:#1d132d;stroke-linecap:round;stroke-linejoin:round;stroke-width:2px"/>
    <path d="M140.4,152.8a8.5,8.5,0,0,0-3.6-16.1l-7.2.4" style="fill:#2e4159"/>
    <path d="M139.3,147.7a8.4,8.4,0,0,0,4.3-7.4v-0.2a8.4,8.4,0,0,1-2.6,12.4A15.6,15.6,0,0,0,139.3,147.7Z" style="fill:#180621;opacity:0.15"/>
    <path d="M132.8,138.1a2.7,2.7,0,0,0,2,3.6c1.9,0.6,5.9-.2,6.3-1.5s-2-2.8-4-3.4S133.3,136.8,132.8,138.1Z" style="fill:#fff;opacity:0.2"/>
    <path d="M140.4,152.8a8.5,8.5,0,0,0-3.6-16.1,22.5,22.5,0,0,0-5.1.5" style="fill:none;stroke:#1d132d;stroke-linecap:round;stroke-linejoin:round;stroke-width:2px"/>
    <path d="M178.3,132.8l8-14a5.6,5.6,0,0,1,4.4-2.8l17.5-1.4a17.6,17.6,0,0,1,4.6,3.1v21.2l-20.6,1.6-9.2.7C178.8,141.6,176,136.7,178.3,132.8Z" style="fill:#dce3ea"/>
    <path d="M178.3,132.8v-0.2a4.9,4.9,0,0,0,4.4,2l9.2-.7,20.4-1.6h0.4v6.6l-20.6,1.6-9.2.7C178.8,141.6,176,136.7,178.3,132.8Z" style="fill:#180621;opacity:0.15"/>
    <path d="M204.2,117.1l-8,14c-2.2,3.9.5,8.8,4.8,8.5l17.3-1.4c4.3-.3,6.5-5.6,3.9-9.2l-9.3-12.6A5.1,5.1,0,0,0,204.2,117.1Z" style="fill:#dce3ea"/>
    <path d="M205.7,121.6a3.7,3.7,0,0,0,3.9,3.6,4,4,0,0,0,3.5-4.2,3.7,3.7,0,0,0-3.9-3.6A4,4,0,0,0,205.7,121.6Z" style="fill:#fff;opacity:0.5"/>
    <path d="M200.8,131.1a3.7,3.7,0,0,0,3.9,3.6,4,4,0,0,0,3.5-4.2,3.7,3.7,0,0,0-3.9-3.6A4,4,0,0,0,200.8,131.1Z" style="fill:#fff;opacity:0.5"/>
    <path d="M210.8,129.5a3.7,3.7,0,0,0,3.9,3.6,4,4,0,0,0,3.5-4.2,3.7,3.7,0,0,0-3.9-3.6A4,4,0,0,0,210.8,129.5Z" style="fill:#fff;opacity:0.5"/>
    <path d="M206.6,123.1a2.7,2.7,0,0,0,2.9,2.7,3,3,0,0,0,2.6-3.2,2.7,2.7,0,0,0-2.9-2.7A3,3,0,0,0,206.6,123.1Z" style="fill:#2e4159"/>
    <path d="M211.6,130.8a2.7,2.7,0,0,0,2.9,2.7,3,3,0,0,0,2.6-3.2,2.7,2.7,0,0,0-2.9-2.7A3,3,0,0,0,211.6,130.8Z" style="fill:#2e4159"/>
    <path d="M202.1,131.6a2.7,2.7,0,0,0,2.9,2.7,3,3,0,0,0,2.6-3.2,2.7,2.7,0,0,0-2.9-2.7A3,3,0,0,0,202.1,131.6Z" style="fill:#2e4159"/>
    <path d="M200.8,135.9l17.3-1.4a5.5,5.5,0,0,0,4.8-4.2c1.3,3.4-.9,7.6-4.6,7.9L201,139.6c-3.8.3-6.3-3.5-5.3-7.1A5.1,5.1,0,0,0,200.8,135.9Z" style="fill:#180621;opacity:0.15"/>
    <path d="M214.3,144.3l-21.5,2.1a17.9,17.9,0,0,0-16,19.1h0a17.1,17.1,0,0,0,18.7,15.7l19.3-1.9" style="fill:#dce3ea"/>
    <path d="M180.7,152.3c-3.3,3.9-3.9,8.7-1.5,10.8s7.2,0.7,10.4-3.4c0.4-.6,3-10.7,4.8-12.7S184,148.4,180.7,152.3Z" style="fill:#fff;opacity:0.5"/>
    <path d="M198.7,163.3c0.8,9.6,8.8,16.7,17.9,15.8s16-9.4,15.2-19-8.8-16.7-17.9-15.8S198,153.7,198.7,163.3Z" style="fill:#dce3ea"/>
    <path d="M198.7,163.3c0.8,9.6,8.8,16.7,17.9,15.8s16-9.4,15.2-19-8.8-16.7-17.9-15.8S198,153.7,198.7,163.3Z" style="fill:#dce3ea"/>
    <path d="M215.3,174.6c9.2-.9,16-9.4,15.2-19,0-.5-0.1-1-0.2-1.4a18,18,0,0,1,1.6,6c0.8,9.6-6.1,18.1-15.2,19s-16.4-5.5-17.8-14.4A16.3,16.3,0,0,0,215.3,174.6Z" style="fill:#180621;opacity:0.15"/>
    <path d="M176.9,165.4a17.1,17.1,0,0,0,17.4,10.5l10.5-1,7.2,4.6-16.5,1.7a17.1,17.1,0,0,1-18.7-15.7h0Z" style="fill:#180621;opacity:0.15"/>
    <path d="M204.3,162.8a11.1,11.1,0,0,0,11.9,10.5c6.1-.6,10.6-6.3,10.1-12.6a11.1,11.1,0,0,0-11.9-10.5C208.3,150.7,203.8,156.4,204.3,162.8Z" style="fill:#ff9a00"/>
    <path d="M204.3,162.6a7.6,7.6,0,0,0,8.2,7.2,7.9,7.9,0,0,0,6.9-8.7,7.6,7.6,0,0,0-8.2-7.2A7.9,7.9,0,0,0,204.3,162.6Z" style="fill:#e83a27"/>
    <path d="M215.3,153.8l-1.1.2a7.7,7.7,0,0,1,6.4,7.1,8,8,0,0,1-5.8,8.5h1.8a7.9,7.9,0,0,0,6.9-8.7A7.6,7.6,0,0,0,215.3,153.8Z" style="fill:#fff"/>
    <path d="M198.7,163.3c0.8,9.6,8.8,16.7,17.9,15.8s16-9.4,15.2-19-8.8-16.7-17.9-15.8S198,153.7,198.7,163.3Z" style="fill:none;stroke:#1d132d;stroke-linecap:round;stroke-linejoin:round;stroke-width:2px"/>
    <path d="M196.7,146.1a20.9,20.9,0,0,0-7.5,17.7,20,20,0,0,0,11.2,16.6" style="fill:none;stroke:#1d132d;stroke-linecap:round;stroke-linejoin:round;stroke-width:2px"/>
    <path d="M204.3,162.8a11.1,11.1,0,0,0,11.9,10.5c6.1-.6,10.6-6.3,10.1-12.6a11.1,11.1,0,0,0-11.9-10.5C208.3,150.7,203.8,156.4,204.3,162.8Z" style="fill:none;stroke:#1d132d;stroke-linecap:round;stroke-linejoin:round;stroke-width:2px"/>
    <path d="M204.5,162.6a7.6,7.6,0,0,0,8.2,7.2,8,8,0,0,0,6.9-8.7,7.6,7.6,0,0,0-8.2-7.2A8,8,0,0,0,204.5,162.6Z" style="fill:none;stroke:#1d132d;stroke-linecap:round;stroke-linejoin:round;stroke-width:2px"/>
    <path d="M208.8,162.2a2.2,2.2,0,0,0,2.4,2.1,2.3,2.3,0,0,0,2-2.5,2.2,2.2,0,0,0-2.4-2.1A2.3,2.3,0,0,0,208.8,162.2Z" style="fill:#ff9a00"/>
    <path d="M208.8,162.2a2.2,2.2,0,0,0,2.4,2.1,2.3,2.3,0,0,0,2-2.5,2.2,2.2,0,0,0-2.4-2.1A2.3,2.3,0,0,0,208.8,162.2Z" style="fill:none;stroke:#1d132d;stroke-linecap:round;stroke-linejoin:round;stroke-width:2px"/>
    <ellipse cx="201.2" cy="161.7" rx="1" ry="0.9" transform="translate(-32.3 51.6) rotate(-13.5)" style="fill:#fff;opacity:0.5"/>
    <path d="M214.6,144.3l-21.7,2.1a17.9,17.9,0,0,0-16,19.1h0a17.1,17.1,0,0,0,18.7,15.7l19.5-1.9" style="fill:none;stroke:#1d132d;stroke-linecap:round;stroke-linejoin:round;stroke-width:2px"/>
    <line x1="225.9" y1="160.1" x2="219.9" y2="160.7" style="fill:none;stroke:#1d132d;stroke-linecap:round;stroke-linejoin:round;stroke-width:2px"/>
    <line x1="218.9" y1="165.8" x2="224.6" y2="166.9" style="fill:none;stroke:#1d132d;stroke-linecap:round;stroke-linejoin:round;stroke-width:2px"/>
    <line x1="222.9" y1="154.3" x2="217.1" y2="155.3" style="fill:none;stroke:#1d132d;stroke-linecap:round;stroke-linejoin:round;stroke-width:2px"/>
    <path d="M204.2,117.2l-8,14c-2.2,3.9.5,8.8,4.8,8.5l17.3-1.4c4.3-.3,6.5-5.6,3.9-9.2l-9.3-12.6A5.1,5.1,0,0,0,204.2,117.2Z" style="fill:none;stroke:#1d132d;stroke-linecap:round;stroke-linejoin:round;stroke-width:2px"/>
    <path d="M212.6,133.5a2.6,2.6,0,0,0,3.9-.3,3.1,3.1,0,0,0-.2-4.2,2.6,2.6,0,0,0-3.9.3A3.1,3.1,0,0,0,212.6,133.5Z" style="fill:none;stroke:#1d132d;stroke-linecap:round;stroke-linejoin:round;stroke-width:2px"/>
    <path d="M202.7,134.3a2.6,2.6,0,0,0,3.9-.3,3.1,3.1,0,0,0-.2-4.2,2.6,2.6,0,0,0-3.9.3A3.1,3.1,0,0,0,202.7,134.3Z" style="fill:none;stroke:#1d132d;stroke-linecap:round;stroke-linejoin:round;stroke-width:2px"/>
    <path d="M207.5,126a2.6,2.6,0,0,0,3.9-.3,3.1,3.1,0,0,0-.2-4.2,2.6,2.6,0,0,0-3.9.3A3.1,3.1,0,0,0,207.5,126Z" style="fill:none;stroke:#1d132d;stroke-linecap:round;stroke-linejoin:round;stroke-width:2px"/>
    <path d="M208.4,114.4L190.8,116a5.6,5.6,0,0,0-4.4,2.8l-8,14c-2.2,3.9.5,8.8,4.8,8.5l9.2-.7,20.6-1.6" style="fill:none;stroke:#1d132d;stroke-linecap:round;stroke-linejoin:round;stroke-width:2px"/>
    <line x1="213.9" y1="138.6" x2="214.1" y2="143.7" style="fill:none;stroke:#1d132d;stroke-linecap:round;stroke-linejoin:round;stroke-width:2px"/>
    <line x1="206.4" y1="139.5" x2="206.7" y2="144.5" style="fill:none;stroke:#1d132d;stroke-linecap:round;stroke-linejoin:round;stroke-width:2px"/>
    <line x1="190.3" y1="140.9" x2="190.6" y2="146" style="fill:none;stroke:#1d132d;stroke-linecap:round;stroke-linejoin:round;stroke-width:2px"/>
    <rect x="148.4" y="144.6" width="19" height="9.13" rx="4.4" ry="4.4" transform="translate(174.1 365.8) rotate(-137.7)" style="fill:none;stroke:#1d132d;stroke-linecap:round;stroke-linejoin:round;stroke-width:2px"/>
    <line x1="140.9" y1="153.2" x2="159.4" y2="170.9" style="fill:none;stroke:#1d132d;stroke-linecap:round;stroke-linejoin:round;stroke-width:2px"/>
    <line x1="144.2" y1="149.2" x2="158.6" y2="163" style="fill:none;stroke:#1d132d;stroke-linecap:round;stroke-linejoin:round;stroke-width:2px"/>
    <path d="M167,160.7a7.7,7.7,0,0,0-1.9-5.2" style="fill:none;stroke:#1d132d;stroke-linecap:round;stroke-linejoin:round;stroke-width:2px"/>
    <path d="M151.1,142.3a7.4,7.4,0,0,0-6.5-.6" style="fill:none;stroke:#1d132d;stroke-linecap:round;stroke-linejoin:round;stroke-width:2px"/>
  </g>
  <g>
    <title>02</title>
    <path d="M66.3,79.8C62.2,67,42.2,62.8,42.2,62.8c3.1,6.6,3.9,12.4,4.7,17.7s2,20.5,19.1,22.6" style="fill:#2e4159"/>
    <path d="M49.2,65.4a1.7,1.7,0,0,1,.7.5,1.9,1.9,0,0,1,.3.8C50.7,69,53,76,53.1,77.4a26.8,26.8,0,0,0,3.1,11.8,14.5,14.5,0,0,0,9.4,7.3,16.7,16.7,0,0,0-.1,6.6,29.1,29.1,0,0,1-6.9-2.1,29,29,0,0,1-4-2.6c-1-.7-6-2.4-8.7-22.1-.5-3.3-1.6-6.4-2.3-9.6-.3-1.2-1.1-3.3.9-2.9A32.3,32.3,0,0,1,49.2,65.4Z" style="fill:#dce3ea"/>
    <path d="M66.3,79.8C62.2,67,42.2,62.8,42.2,62.8c3.1,6.6,3.9,12.4,4.7,17.7s2,20.5,19.1,22.6" style="fill:none;stroke:#1d132d;stroke-linecap:round;stroke-linejoin:round;stroke-width:2px"/>
    <path d="M50,65.6a60.8,60.8,0,0,1,2.5,11.8c.7,5.2,1.6,15.8,12.6,19.4" style="fill:none;stroke:#1d132d;stroke-linecap:round;stroke-linejoin:round;stroke-width:2px"/>
    <line x1="59.9" y1="94.5" x2="57.2" y2="99.1" style="fill:none;stroke:#1d132d;stroke-linecap:round;stroke-linejoin:round;stroke-width:2px"/>
    <line x1="55.3" y1="90.2" x2="50.7" y2="92.9" style="fill:none;stroke:#1d132d;stroke-linecap:round;stroke-linejoin:round;stroke-width:2px"/>
    <path d="M173.6,79.8c4.1-12.7,24.1-16.9,24.1-16.9-3.1,6.6-3.9,12.4-4.7,17.7s-2,20.5-19.1,22.6" style="fill:#2e4159"/>
    <path d="M190.7,65.4a1.7,1.7,0,0,0-.7.5,1.9,1.9,0,0,0-.3.8c-.5,2.3-2.8,9.3-2.9,10.7a26.8,26.8,0,0,1-3.1,11.8,14.5,14.5,0,0,1-9.4,7.3,16.7,16.7,0,0,1,.1,6.6,29.1,29.1,0,0,0,6.9-2.1,29,29,0,0,0,4-2.6c1-.7,6-2.4,8.7-22.1.5-3.3,1.6-6.4,2.3-9.6.3-1.2,1.1-3.3-.9-2.9A32.3,32.3,0,0,0,190.7,65.4Z" style="fill:#dce3ea"/>
    <path d="M173.6,79.8c4.1-12.7,24.1-16.9,24.1-16.9-3.1,6.6-3.9,12.4-4.7,17.7s-2,20.5-19.1,22.6" style="fill:none;stroke:#1d132d;stroke-linecap:round;stroke-linejoin:round;stroke-width:2px"/>
    <path d="M189.9,65.6a60.8,60.8,0,0,0-2.5,11.8c-.7,5.2-1.6,15.8-12.6,19.4" style="fill:none;stroke:#1d132d;stroke-linecap:round;stroke-linejoin:round;stroke-width:2px"/>
    <line x1="180" y1="94.5" x2="182.7" y2="99.1" style="fill:none;stroke:#1d132d;stroke-linecap:round;stroke-linejoin:round;stroke-width:2px"/>
    <line x1="184.6" y1="90.2" x2="189.2" y2="92.9" style="fill:none;stroke:#1d132d;stroke-linecap:round;stroke-linejoin:round;stroke-width:2px"/>
  </g>
  <g>
    <title>01</title>
    <path d="M131.3,34.4a76.8,76.8,0,0,0-11.1-.9,84.7,84.7,0,0,0-11.6.9C82.9,39,65.3,60.5,65.3,88.1c0,15.4,3.2,29.6,12.1,37.2s18.2,10.8,39.5,11.1h-7.7c-7,6.6-11.8,18.9-11.8,29.9,0,16,10.1,19.5,22.6,19.5s22.6-3.4,22.6-19.5c0-11.1-4.9-23.5-12-30.1h-5.2c19.6-.5,28.4-3.6,37.2-11.1s12.1-21.8,12.1-37.2C174.7,60.5,157.1,39,131.3,34.4Z" style="fill:#36c8e3"/>
    <path d="M131.3,34.4a76.8,76.8,0,0,0-11.1-.9,84.7,84.7,0,0,0-11.6.9C82.9,39,65.3,60.5,65.3,88.1c0,15.4,3.2,29.6,12.1,37.2s18.2,10.8,39.5,11.1h-7.7c-7,6.6-11.8,18.9-11.8,29.9,0,16,10.1,19.5,22.6,19.5s22.6-3.4,22.6-19.5c0-11.1-4.9-23.5-12-30.1h-5.2c19.6-.5,28.4-3.6,37.2-11.1s12.1-21.8,12.1-37.2C174.7,60.5,157.1,39,131.3,34.4Z" style="fill:#36c8e3"/>
    <path d="M131.3,34.4a76.8,76.8,0,0,0-11.1-.9,84.7,84.7,0,0,0-11.6.9C82.9,39,65.3,60.5,65.3,88.1c0,15.4,3.2,29.6,12.1,37.2s18.2,10.8,39.5,11.1h-7.7c-7,6.6-11.8,18.9-11.8,29.9,0,16,10.1,19.5,22.6,19.5s22.6-3.4,22.6-19.5c0-11.1-4.9-23.5-12-30.1h-5.2c19.6-.5,28.4-3.6,37.2-11.1s12.1-21.8,12.1-37.2C174.7,60.5,157.1,39,131.3,34.4Z" style="fill:#36c8e3"/>
    <path d="M131.3,34.4a76.8,76.8,0,0,0-11.1-.9,84.7,84.7,0,0,0-11.6.9C82.9,39,65.3,60.5,65.3,88.1c0,15.4,3.2,29.6,12.1,37.2s18.2,10.8,39.5,11.1h-7.7c-7,6.6-11.8,18.9-11.8,29.9,0,16,10.1,19.5,22.6,19.5s22.6-3.4,22.6-19.5c0-11.1-4.9-23.5-12-30.1h-5.2c19.6-.5,28.4-3.6,37.2-11.1s12.1-21.8,12.1-37.2C174.7,60.5,157.1,39,131.3,34.4Z" style="fill:#36c8e3"/>
    <path d="M131.3,34.4a76.8,76.8,0,0,0-11.1-.9,84.7,84.7,0,0,0-11.6.9C82.9,39,65.3,60.5,65.3,88.1c0,15.4,3.2,29.6,12.1,37.2s18.2,10.8,39.5,11.1h-7.7c-7,6.6-11.8,18.9-11.8,29.9,0,16,10.1,19.5,22.6,19.5s22.6-3.4,22.6-19.5c0-11.1-4.9-23.5-12-30.1h-5.2c19.6-.5,28.4-3.6,37.2-11.1s12.1-21.8,12.1-37.2C174.7,60.5,157.1,39,131.3,34.4Z" style="fill:#36c8e3"/>
    <path d="M131.3,34.4a76.8,76.8,0,0,0-11.1-.9,84.7,84.7,0,0,0-11.6.9C82.9,39,65.3,60.5,65.3,88.1c0,15.4,3.2,29.6,12.1,37.2s18.2,10.8,39.5,11.1h-7.7c-7,6.6-11.8,18.9-11.8,29.9,0,16,10.1,19.5,22.6,19.5s22.6-3.4,22.6-19.5c0-11.1-4.9-23.5-12-30.1h-5.2c19.6-.5,28.4-3.6,37.2-11.1s12.1-21.8,12.1-37.2C174.7,60.5,157.1,39,131.3,34.4Z" style="fill:#36c8e3"/>
    <path d="M131.3,34.4a76.8,76.8,0,0,0-11.1-.9,84.7,84.7,0,0,0-11.6.9C82.9,39,65.3,60.5,65.3,88.1c0,15.4,3.2,29.6,12.1,37.2s18.2,10.8,39.5,11.1h-7.7c-7,6.6-11.8,18.9-11.8,29.9,0,16,10.1,19.5,22.6,19.5s22.6-3.4,22.6-19.5c0-11.1-4.9-23.5-12-30.1h-5.2c19.6-.5,28.4-3.6,37.2-11.1s12.1-21.8,12.1-37.2C174.7,60.5,157.1,39,131.3,34.4Z" style="fill:#36c8e3"/>
    <path d="M131.3,34.4a76.8,76.8,0,0,0-11.1-.9,84.7,84.7,0,0,0-11.6.9C82.9,39,65.3,60.5,65.3,88.1c0,15.4,3.2,29.6,12.1,37.2s18.2,10.8,39.5,11.1h-7.7c-7,6.6-11.8,18.9-11.8,29.9,0,16,10.1,19.5,22.6,19.5s22.6-3.4,22.6-19.5c0-11.1-4.9-23.5-12-30.1h-5.2c19.6-.5,28.4-3.6,37.2-11.1s12.1-21.8,12.1-37.2C174.7,60.5,157.1,39,131.3,34.4Z" style="fill:#36c8e3"/>
    <path d="M125.4,136.4c19.6-.5,28.4-3.6,37.2-11.1s12.1-21.8,12.1-37.2c0-27.7-17.6-49.2-43.4-53.7a76.8,76.8,0,0,0-11.1-.9,84.7,84.7,0,0,0-11.6.9C82.9,39,65.3,60.5,65.3,88.1c0,15.4,3.2,29.6,12.1,37.2s18.2,10.8,39.5,11.1Z" style="fill:none;stroke:#1d132d;stroke-miterlimit:10;stroke-width:2px"/>
    <path d="M109.2,136.5c-7,6.6-11.8,18.9-11.8,29.9,0,16,10.1,19.5,22.6,19.5s22.6-3.4,22.6-19.5c0-11.1-4.9-23.5-12-30.1" style="fill:none;stroke:#1d132d;stroke-miterlimit:10;stroke-width:2px"/>
    <path d="M130.9,136.7c-3.4.7-18,.5-21.3-.1h-.4c-7,6.6-11.8,18.9-11.8,29.9,0,16,10.1,19.5,22.6,19.5s22.6-3.4,22.6-19.5C142.6,155.5,137.8,143.3,130.9,136.7Z" style="fill:#36c8e3"/>
    <path d="M130.5,136.2c-3.1.3-6.1.6-9.4.6a111.1,111.1,0,0,1-12.3-.4L102,146a41,41,0,0,0,17.6,3.6,40.7,40.7,0,0,0,17.8-3.7C137.2,145.6,130.9,136.7,130.5,136.2Z" style="fill:#180621;opacity:0.15"/>
    <path d="M109.5,136.3l-.6.5c-6.9,6.7-11.5,18.8-11.5,29.6,0,16,10.1,19.5,22.6,19.5s22.6-3.4,22.6-19.5c0-11-4.8-23.3-11.8-29.9l-.2-.2" style="fill:none;stroke:#1d132d;stroke-linecap:round;stroke-linejoin:round;stroke-width:2px"/>
    <path d="M97.9,168h44.2C129.9,151.6,110.1,151.6,97.9,168Z" style="fill:#ffde00"/>
    <path d="M97.9,168h44.2C129.9,151.6,110.1,151.6,97.9,168Z" style="fill:none;stroke:#1d132d;stroke-linecap:round;stroke-linejoin:round;stroke-width:2px"/>
    <line x1="103.8" y1="161.9" x2="136.4" y2="161.9" style="fill:none;stroke:#1d132d;stroke-linecap:round;stroke-linejoin:round;stroke-width:2px"/>
    <path d="M132.4,159.2a24.1,24.1,0,0,0-24.9,0Z" style="fill:#180621;opacity:0.15"/>
    <path d="M134.7,160.6v.9H105v-.7a32.5,32.5,0,0,0-4.9,4.5h39.9A32.4,32.4,0,0,0,134.7,160.6Z" style="fill:#180621;opacity:0.15"/>
    <g style="opacity:0.30000000000000004">
      <path d="M108.7,44.1a84.7,84.7,0,0,1,11.6-.9,76.8,76.8,0,0,1,11.1.9c24.4,4.3,41.5,23.9,43.2,49.5q.1-2.7.1-5.5c0-27.7-17.6-49.2-43.4-53.7a76.8,76.8,0,0,0-11.1-.9,84.7,84.7,0,0,0-11.6.9C82.9,39,65.3,60.5,65.3,88.1q0,2.8.1,5.5C67.1,68,84.3,48.4,108.7,44.1Z" style="fill:#fff"/>
    </g>
    <path d="M125.4,136.4c19.6-.5,28.4-3.6,37.2-11.1s12.1-21.8,12.1-37.2c0-27.7-17.6-49.2-43.4-53.7a76.8,76.8,0,0,0-11.1-.9,84.7,84.7,0,0,0-11.6.9C82.9,39,65.3,60.5,65.3,88.1c0,15.4,3.2,29.6,12.1,37.2s18.2,10.8,39.5,11.1Z" style="fill:none;stroke:#1d132d;stroke-miterlimit:10;stroke-width:2px"/>
    <path d="M109.2,136.5c-7,6.6-11.8,18.9-11.8,29.9,0,16,10.1,19.5,22.6,19.5s22.6-3.4,22.6-19.5c0-11.1-4.9-23.5-12-30.1" style="fill:none;stroke:#1d132d;stroke-miterlimit:10;stroke-width:2px"/>
    <g style="opacity:0.30000000000000004">
      <path d="M108.7,44.1a84.7,84.7,0,0,1,11.6-.9,76.8,76.8,0,0,1,11.1.9c24.4,4.3,41.5,23.9,43.2,49.5q.1-2.7.1-5.5c0-27.7-17.6-49.2-43.4-53.7a76.8,76.8,0,0,0-11.1-.9,84.7,84.7,0,0,0-11.6.9C82.9,39,65.3,60.5,65.3,88.1q0,2.8.1,5.5C67.1,68,84.3,48.4,108.7,44.1Z" style="fill:#fff"/>
    </g>
    <path d="M125.4,136.4c19.6-.5,28.4-3.6,37.2-11.1s12.1-21.8,12.1-37.2c0-27.7-17.6-49.2-43.4-53.7a76.8,76.8,0,0,0-11.1-.9,84.7,84.7,0,0,0-11.6.9C82.9,39,65.3,60.5,65.3,88.1c0,15.4,3.2,29.6,12.1,37.2s18.2,10.8,39.5,11.1Z" style="fill:none;stroke:#1d132d;stroke-miterlimit:10;stroke-width:2px"/>
  </g>
  <g>
    <title>atribute08</title>
    <path d="M95.1,133.3a51.5,51.5,0,0,0,9.2,1.5c4.2-7.1,3.2-17-3.1-24.3a23.7,23.7,0,0,0-18.4-7.9s-3.6,18.9-.7,24.2c1.9,3.6,6.8,5.7,11.4,7A1.4,1.4,0,0,1,95.1,133.3Z" style="fill:#dce3ea"/>
    <path d="M85.6,122.3a20.6,20.6,0,0,1-4.5-4.2c-0.1,3.6.1,6.9,1.1,8.7,1.9,3.6,6.8,5.7,11.4,7a1.4,1.4,0,0,1,1.5-.5,51.5,51.5,0,0,0,9.2,1.5,18.2,18.2,0,0,0,2-5.1A45.3,45.3,0,0,1,85.6,122.3Z" style="fill:#180621;opacity:0.15"/>
    <path d="M82.8,102.6a23.7,23.7,0,0,1,18.4,7.9c6.5,7.5,7.3,17.7,2.7,24.9l-0.2.3a48,48,0,0,1-8.9-1.4" style="fill:none;stroke:#1d132d;stroke-linecap:round;stroke-linejoin:round;stroke-width:2px"/>
    <ellipse cx="85.7" cy="118.9" rx="14.2" ry="17.7" transform="translate(-56.8 84.6) rotate(-40.7)" style="fill:#2e4159"/>
    <path d="M77.2,103.6A11.9,11.9,0,0,0,84.5,115c5.8,2.7,10.3.4,13.3-3.6l-1.4-1.8C91.1,103.3,83.1,101.1,77.2,103.6Z" style="fill:#fff;opacity:0.2"/>
    <ellipse cx="85.7" cy="118.9" rx="14.2" ry="17.7" transform="translate(-56.8 84.6) rotate(-40.7)" style="fill:none;stroke:#1d132d;stroke-miterlimit:10;stroke-width:2px"/>
    <ellipse cx="84" cy="121.4" rx="11" ry="14.3" transform="translate(-58.8 84.1) rotate(-40.7)" style="fill:#2e4159"/>
    <ellipse cx="84" cy="121.4" rx="11" ry="14.3" transform="translate(-58.8 84.1) rotate(-40.7)" style="fill:#180621;opacity:0.15"/>
    <ellipse cx="84" cy="121.4" rx="11" ry="14.3" transform="translate(-58.8 84.1) rotate(-40.7)" style="fill:none;stroke:#1d132d;stroke-miterlimit:10;stroke-width:2px"/>
    <ellipse cx="78.1" cy="114.4" rx="1.4" ry="1.7" transform="translate(-53.2 70.4) rotate(-37.2)" style="fill:#fff;opacity:0.2"/>
    <ellipse cx="83.8" cy="127.9" rx="1.4" ry="1.7" transform="translate(-60.2 76.6) rotate(-37.2)" style="fill:#fff;opacity:0.2"/>
    <ellipse cx="77.9" cy="114.6" rx="0.3" ry="0.5" transform="translate(-53.4 70.3) rotate(-37.2)" style="fill:none;stroke:#1d132d;stroke-miterlimit:10;stroke-width:2px"/>
    <ellipse cx="91.1" cy="128.1" rx="1.4" ry="1.7" transform="translate(-58.9 81) rotate(-37.2)" style="fill:#fff;opacity:0.2"/>
    <ellipse cx="90.9" cy="128.3" rx="0.3" ry="0.5" transform="translate(-59.1 81) rotate(-37.2)" style="fill:none;stroke:#1d132d;stroke-miterlimit:10;stroke-width:2px"/>
    <ellipse cx="77.6" cy="121.7" rx="1.4" ry="1.7" transform="translate(-57.7 71.6) rotate(-37.2)" style="fill:#fff;opacity:0.2"/>
    <ellipse cx="91.1" cy="120.4" rx="1.4" ry="1.7" transform="translate(-54.2 79.5) rotate(-37.2)" style="fill:#fff;opacity:0.2"/>
    <ellipse cx="91" cy="120.7" rx="0.3" ry="0.5" transform="translate(-54.4 79.5) rotate(-37.2)" style="fill:none;stroke:#1d132d;stroke-miterlimit:10;stroke-width:2px"/>
    <ellipse cx="83.6" cy="128.2" rx="0.3" ry="0.5" transform="translate(-60.5 76.5) rotate(-37.2)" style="fill:none;stroke:#1d132d;stroke-miterlimit:10;stroke-width:2px"/>
    <ellipse cx="77.5" cy="121.9" rx="0.3" ry="0.5" transform="translate(-57.9 71.5) rotate(-37.2)" style="fill:none;stroke:#1d132d;stroke-miterlimit:10;stroke-width:2px"/>
    <ellipse cx="85.4" cy="114.4" rx="1.4" ry="1.7" transform="translate(-51.7 74.8) rotate(-37.2)" style="fill:#fff;opacity:0.2"/>
    <ellipse cx="85.3" cy="114.7" rx="0.3" ry="0.5" transform="translate(-51.9 74.8) rotate(-37.2)" style="fill:none;stroke:#1d132d;stroke-miterlimit:10;stroke-width:2px"/>
    <path d="M144.9,133.3a51.5,51.5,0,0,1-9.2,1.5c-4.2-7.1-3.2-17,3.1-24.3a23.7,23.7,0,0,1,18.4-7.9s3.6,18.9.7,24.2c-1.9,3.6-6.8,5.7-11.4,7A1.4,1.4,0,0,0,144.9,133.3Z" style="fill:#dce3ea"/>
    <path d="M154.4,122.3a20.6,20.6,0,0,0,4.5-4.2c0.1,3.6-.1,6.9-1.1,8.7-1.9,3.6-6.8,5.7-11.4,7a1.4,1.4,0,0,0-1.5-.5,51.5,51.5,0,0,1-9.2,1.5,18.2,18.2,0,0,1-2-5.1A45.3,45.3,0,0,0,154.4,122.3Z" style="fill:#180621;opacity:0.15"/>
    <path d="M157.2,102.6a23.7,23.7,0,0,0-18.4,7.9c-6.4,7.5-7.3,17.7-2.8,24.8l0.3,0.4a78.4,78.4,0,0,0,9.2-1.5" style="fill:none;stroke:#1d132d;stroke-linecap:round;stroke-linejoin:round;stroke-width:2px"/>
    <ellipse cx="154.3" cy="118.9" rx="17.7" ry="14.2" transform="translate(-36.4 158.4) rotate(-49.3)" style="fill:#2e4159"/>
    <path d="M162.8,103.6a11.9,11.9,0,0,1-7.4,11.4c-5.8,2.7-10.3.4-13.3-3.6l1.4-1.8C148.9,103.3,156.9,101.1,162.8,103.6Z" style="fill:#fff;opacity:0.2"/>
    <ellipse cx="154.3" cy="118.9" rx="17.7" ry="14.2" transform="translate(-36.4 158.4) rotate(-49.3)" style="fill:none;stroke:#1d132d;stroke-miterlimit:10;stroke-width:2px"/>
    <ellipse cx="156" cy="121.4" rx="14.3" ry="11" transform="translate(-37.8 160.6) rotate(-49.3)" style="fill:#2e4159"/>
    <ellipse cx="156" cy="121.4" rx="14.3" ry="11" transform="translate(-37.8 160.6) rotate(-49.3)" style="fill:#180621;opacity:0.15"/>
    <ellipse cx="156" cy="121.4" rx="14.3" ry="11" transform="translate(-37.8 160.6) rotate(-49.3)" style="fill:none;stroke:#1d132d;stroke-miterlimit:10;stroke-width:2px"/>
    <ellipse cx="161.9" cy="114.4" rx="1.7" ry="1.4" transform="translate(-27 174.3) rotate(-52.8)" style="fill:#fff;opacity:0.2"/>
    <ellipse cx="156.2" cy="127.9" rx="1.7" ry="1.4" transform="translate(-40.1 175.1) rotate(-52.8)" style="fill:#fff;opacity:0.2"/>
    <ellipse cx="162.1" cy="114.6" rx="0.5" ry="0.3" transform="translate(-27.1 174.6) rotate(-52.8)" style="fill:none;stroke:#1d132d;stroke-miterlimit:10;stroke-width:2px"/>
    <ellipse cx="148.9" cy="128.1" rx="1.7" ry="1.4" transform="translate(-43.1 169.4) rotate(-52.8)" style="fill:#fff;opacity:0.2"/>
    <ellipse cx="149.1" cy="128.3" rx="0.5" ry="0.3" transform="translate(-43.3 169.6) rotate(-52.8)" style="fill:none;stroke:#1d132d;stroke-miterlimit:10;stroke-width:2px"/>
    <ellipse cx="162.4" cy="121.7" rx="1.7" ry="1.4" transform="translate(-32.7 177.6) rotate(-52.8)" style="fill:#fff;opacity:0.2"/>
    <ellipse cx="148.9" cy="120.4" rx="1.7" ry="1.4" transform="translate(-37 166.3) rotate(-52.8)" style="fill:#fff;opacity:0.2"/>
    <ellipse cx="149" cy="120.7" rx="0.5" ry="0.3" transform="translate(-37.2 166.5) rotate(-52.8)" style="fill:none;stroke:#1d132d;stroke-miterlimit:10;stroke-width:2px"/>
    <ellipse cx="156.4" cy="128.2" rx="0.5" ry="0.3" transform="translate(-40.2 175.4) rotate(-52.8)" style="fill:none;stroke:#1d132d;stroke-miterlimit:10;stroke-width:2px"/>
    <ellipse cx="162.5" cy="121.9" rx="0.5" ry="0.3" transform="translate(-32.8 177.8) rotate(-52.8)" style="fill:none;stroke:#1d132d;stroke-miterlimit:10;stroke-width:2px"/>
    <ellipse cx="154.6" cy="114.4" rx="1.7" ry="1.4" transform="translate(-29.9 168.5) rotate(-52.8)" style="fill:#fff;opacity:0.2"/>
    <ellipse cx="154.7" cy="114.7" rx="0.5" ry="0.3" transform="translate(-30.1 168.7) rotate(-52.8)" style="fill:none;stroke:#1d132d;stroke-miterlimit:10;stroke-width:2px"/>
  </g>
  <g>
    <title>06</title>
    <path d="M78.4,76.9a16.2,16.2,0,1,0,30.5,6.3Z" style="fill:#1d132d"/>
    <path d="M78.4,76.9a16.2,16.2,0,1,0,30.5,6.3Z" style="fill:none;stroke:#1d132d;stroke-linecap:round;stroke-linejoin:round;stroke-width:2px"/>
    <path d="M88.2,83a6.1,6.1,0,1,0,10.4,2Z" style="fill:#ff9a00"/>
    <path d="M162.9,76.9a16.2,16.2,0,1,1-30.5,6.3Z" style="fill:#1d132d"/>
    <path d="M162.9,76.9a16.2,16.2,0,1,1-30.5,6.3Z" style="fill:none;stroke:#1d132d;stroke-linecap:round;stroke-linejoin:round;stroke-width:2px"/>
    <path d="M153.1,82.9a6.1,6.1,0,1,1-10.4,2Z" style="fill:#ff9a00"/>
  </g>
  <g/>
</svg>