<svg xmlns="http://www.w3.org/2000/svg" xmlns:xlink="http://www.w3.org/1999/xlink" viewBox="0 0 240 240">
  <ellipse cx="120.5" cy="233.4" rx="43.7" ry="4.9" style="fill:#180621;opacity:0.15"/>
  <g>
    <title>04</title>
    <g style="isolation:isolate">
      <path d="M91.7,195.2h0l.6,25.8h-.1c-.4.3-.7,1.8-.2,2.7a14.4,14.4,0,0,0-4.6,7.6,1.9,1.9,0,0,0,1.3,2.2,44.7,44.7,0,0,0,12.6,1.4c9.5,0,14.5-2,14.5-2v-.6l.2-.4V208.3h0A19.5,19.5,0,0,0,91.7,195.2Z" style="fill:#dce3ea"/>
      <path d="M115.2,204V182.2l-13.7-1.8v14.3l.7.5C106.4,196.8,112,201,115.2,204Z" style="fill:#dce3ea"/>
      <path d="M89,227.6c8.2-9.2,23.2-10.1,27,4.1V208.3h0a19.5,19.5,0,0,0-24.2-13.1h0l.6,25.8h-.1c-.4.3-.7,1.8-.2,2.7A14.6,14.6,0,0,0,89,227.6Z" style="fill:#2e4159"/>
      <polyline points="101.6 194.4 101.6 180.4 116 180.4 116 209.3" style="fill:none;stroke:#1d132d;stroke-linecap:round;stroke-linejoin:round;stroke-width:2px"/>
      <path d="M115.9,232.7V208.3h0a19.5,19.5,0,0,0-24.2-13.1h0l.7,27.7" style="fill:none;stroke:#1d132d;stroke-linecap:round;stroke-linejoin:round;stroke-width:2px"/>
      <ellipse cx="99" cy="222.7" rx="4.7" ry="3" style="fill:#fff;opacity:0.5"/>
      <path d="M115.5,205.2v-7.4a25.6,25.6,0,0,0-13.2-8.3v5.4C106.9,197,111.9,201.5,115.5,205.2Z" style="fill:#180621;opacity:0.15;mix-blend-mode:multiply"/>
      <path d="M115.9,232.9a14.4,14.4,0,0,0-28.4-1.6,1.9,1.9,0,0,0,1.3,2.2,44.7,44.7,0,0,0,12.6,1.4C110.8,234.9,115.9,232.9,115.9,232.9Z" style="fill:none;stroke:#1d132d;stroke-linecap:round;stroke-linejoin:round;stroke-width:2px"/>
      <path d="M103.6,213.3h-.8A15.2,15.2,0,0,0,92.4,217" style="fill:none;stroke:#1d132d;stroke-linecap:round;stroke-linejoin:round;stroke-width:2px"/>
      <path d="M103.6,206.4h-.8a15.2,15.2,0,0,0-10.4,3.7" style="fill:none;stroke:#1d132d;stroke-linecap:round;stroke-linejoin:round;stroke-width:2px"/>
      <path d="M101.5,230.2a44.7,44.7,0,0,1-12.6-1.4l-.4-.2a14.3,14.3,0,0,0-.9,2.7,1.9,1.9,0,0,0,1.3,2.2,44.7,44.7,0,0,0,12.6,1.4c9.5,0,14.5-2,14.5-2a14.3,14.3,0,0,0-1.2-4.4A48.8,48.8,0,0,1,101.5,230.2Z" style="fill:#180621;opacity:0.15"/>
      <path d="M152.8,231.3a14.4,14.4,0,0,0-4.6-7.6c.5-.9.2-2.4-.2-2.7h-.1l.6-25.8h0a19.5,19.5,0,0,0-24.2,13.1h0V232l.2.4v.6s5.1,2,14.5,2a44.7,44.7,0,0,0,12.6-1.4A1.9,1.9,0,0,0,152.8,231.3Z" style="fill:#dce3ea"/>
      <path d="M124.3,232h.1a3.2,3.2,0,0,1,.3-.9c2.7-5.5,6.4-10.6,13.1-11a18.1,18.1,0,0,1,10.7,2.7,2.3,2.3,0,0,0-.4-1.9h-.1l.6-25.8h0a19.5,19.5,0,0,0-24.2,13.1h0Z" style="fill:#2e4159"/>
      <ellipse cx="141" cy="222.7" rx="4.7" ry="3" style="fill:#fff;opacity:0.5"/>
      <path d="M125.1,204V182.2l13.7-1.8v14.3l-.7.5C133.8,196.8,128.3,201,125.1,204Z" style="fill:#dce3ea"/>
      <polyline points="138.7 194.4 138.7 180.4 124.3 180.4 124.3 209.3" style="fill:none;stroke:#1d132d;stroke-linecap:round;stroke-linejoin:round;stroke-width:2px"/>
      <path d="M124.3,232.7V208.3h0a19.5,19.5,0,0,1,24.2-13.1h0l-.7,27.7" style="fill:none;stroke:#1d132d;stroke-linecap:round;stroke-linejoin:round;stroke-width:2px"/>
      <path d="M124.8,205.2v-7.4a25.6,25.6,0,0,1,13.2-8.3v5.4C133.4,197,128.3,201.5,124.8,205.2Z" style="fill:#180621;opacity:0.15;mix-blend-mode:multiply"/>
      <path d="M124.4,232.9a14.4,14.4,0,0,1,28.4-1.6,1.9,1.9,0,0,1-1.3,2.2,44.7,44.7,0,0,1-12.6,1.4C129.5,234.9,124.4,232.9,124.4,232.9Z" style="fill:none;stroke:#1d132d;stroke-linecap:round;stroke-linejoin:round;stroke-width:2px"/>
      <path d="M136.7,213.3h.8a15.2,15.2,0,0,1,10.4,3.7" style="fill:none;stroke:#1d132d;stroke-linecap:round;stroke-linejoin:round;stroke-width:2px"/>
      <path d="M136.7,206.4h.8a15.2,15.2,0,0,1,10.4,3.7" style="fill:none;stroke:#1d132d;stroke-linecap:round;stroke-linejoin:round;stroke-width:2px"/>
      <path d="M138.8,230.2a44.7,44.7,0,0,0,12.6-1.4l.4-.2a14.3,14.3,0,0,1,.9,2.7,1.9,1.9,0,0,1-1.3,2.2,44.7,44.7,0,0,1-12.6,1.4c-9.5,0-14.5-2-14.5-2a14.3,14.3,0,0,1,1.2-4.4A48.8,48.8,0,0,0,138.8,230.2Z" style="fill:#180621;opacity:0.15"/>
    </g>
  </g>
  <g>
    <title>01</title>
    <path d="M87.6,143.7l21.9-8.2a3.9,3.9,0,0,1,5,2.3h0a3.9,3.9,0,0,1-2.3,5l-23.6,8.8a3.8,3.8,0,0,1-1.9.2" style="fill:#dce3ea"/>
    <path d="M87.6,143.7l21.9-8.2a3.9,3.9,0,0,1,5,2.3h0a3.9,3.9,0,0,1-2.3,5l-23.6,8.8a3.8,3.8,0,0,1-1.9.2" style="fill:#180621;opacity:0.15"/>
    <path d="M48.4,134.4a43,43,0,0,0,37.7,47.7s-13.5-20.6-12.9-50a47.3,47.3,0,0,0-12.4-.9A35.1,35.1,0,0,0,48.4,134.4Z" style="fill:#2e4159"/>
    <path d="M58.5,167.3c-13.8-17.3-9.1-28.7-8.7-28.7a15.8,15.8,0,0,1,8.9,28.8" style="fill:#fff;opacity:0.5"/>
    <path d="M58.5,167.3l-1.4-1.8Z" style="fill:#fff;opacity:0.5"/>
    <path d="M48.7,144a14.3,14.3,0,0,1,9.4,3.6c2.2,2,5.4-.8,3.9-3h0a15.7,15.7,0,0,0-12.3-6c-.2,0-1.2,2.3-1.1,6.3C48.7,144.6,48.7,144.3,48.7,144Z" style="fill:#fff;opacity:0.5"/>
    <path d="M49,148.2v0Z" style="fill:#fff;opacity:0.5"/>
    <path d="M48.8,147v0Z" style="fill:#fff;opacity:0.5"/>
    <path d="M48.7,145.9v0Z" style="fill:#fff;opacity:0.5"/>
    <path d="M65.4,152.4v0Z" style="fill:#fff;opacity:0.5"/>
    <path d="M65.1,150.8v0Z" style="fill:#fff;opacity:0.5"/>
    <path d="M62.1,144.6a15.9,15.9,0,0,1,1.9,3A15.8,15.8,0,0,0,62.1,144.6Z" style="fill:#fff;opacity:0.5"/>
    <path d="M64.7,149.4l.2.7Z" style="fill:#fff;opacity:0.5"/>
    <path d="M64.2,148l.3.8Z" style="fill:#fff;opacity:0.5"/>
    <path d="M53.4,159.9l-.6-1.1Z" style="fill:#fff;opacity:0.5"/>
    <path d="M54.4,161.5l-.6-1Z" style="fill:#fff;opacity:0.5"/>
    <path d="M52.6,158.3l-.7-1.5Z" style="fill:#fff;opacity:0.5"/>
    <path d="M55.5,163.2l-.7-1.1Z" style="fill:#fff;opacity:0.5"/>
    <path d="M56.7,165l-.8-1.2Z" style="fill:#fff;opacity:0.5"/>
    <path d="M50.4,153.4l-.3-.9Z" style="fill:#fff;opacity:0.5"/>
    <path d="M50,152.1l-.3-.9Z" style="fill:#fff;opacity:0.5"/>
    <path d="M51.7,156.5l-.5-1.2Z" style="fill:#fff;opacity:0.5"/>
    <path d="M49.6,150.8q-.3-1.3-.5-2.4C49.2,149.1,49.4,149.9,49.6,150.8Z" style="fill:#fff;opacity:0.5"/>
    <path d="M51,154.9l-.4-.9Z" style="fill:#fff;opacity:0.5"/>
    <path d="M55.3,162.4c-8.6-10.8-6.2-18.3-6-18.3a10.6,10.6,0,0,1,10.3,10.2,9.8,9.8,0,0,1-4.3,8.1" style="fill:#dce3ea"/>
    <path d="M59.3,151.7a10.7,10.7,0,0,0-9.9-7.6c-.2,0-1.3,3.2.5,8.5a10.6,10.6,0,0,0,9.5-1Z" style="fill:#fff;opacity:0.5"/>
    <path d="M73.6,136.4l15.5,8.2a3.8,3.8,0,0,1,1.6,5.2h0a3.8,3.8,0,0,1-5.2,1.6l-11.2-5.9" style="fill:#dce3ea"/>
    <path d="M48.4,134.4a43,43,0,0,0,37.7,47.7s-13.5-20.6-12.9-50a47.3,47.3,0,0,0-12.4-.9A35.1,35.1,0,0,0,48.4,134.4Z" style="fill:none;stroke:#1d132d;stroke-linecap:round;stroke-linejoin:round;stroke-width:2px"/>
    <path d="M48.6,144.1h1.2a10.4,10.4,0,0,1,5.5,19.2" style="fill:none;stroke:#1d132d;stroke-linecap:round;stroke-linejoin:round;stroke-width:2px"/>
    <path d="M48.6,138.7h1.2a15.8,15.8,0,0,1,8.9,28.8" style="fill:none;stroke:#1d132d;stroke-linecap:round;stroke-linejoin:round;stroke-width:2px"/>
    <path d="M73.6,136.4l15.5,8.2a3.8,3.8,0,0,1,1.6,5.2h0a3.8,3.8,0,0,1-5.2,1.6l-11.2-5.9" style="fill:none;stroke:#1d132d;stroke-linecap:round;stroke-linejoin:round;stroke-width:2px"/>
    <path d="M87.6,143.7l21.9-8.2a3.9,3.9,0,0,1,5,2.3h0a3.9,3.9,0,0,1-2.3,5l-23.6,8.8a3.8,3.8,0,0,1-1.9.2" style="fill:none;stroke:#1d132d;stroke-linecap:round;stroke-linejoin:round;stroke-width:2px"/>
    <path d="M152.3,143.7l-21.9-8.2a3.9,3.9,0,0,0-5,2.3h0a3.9,3.9,0,0,0,2.3,5l23.6,8.8a3.8,3.8,0,0,0,1.9.2" style="fill:#dce3ea"/>
    <path d="M152.3,143.7l-21.9-8.2a3.9,3.9,0,0,0-5,2.3h0a3.9,3.9,0,0,0,2.3,5l23.6,8.8a3.8,3.8,0,0,0,1.9.2" style="fill:#180621;opacity:0.15"/>
    <path d="M191.6,134.4a43,43,0,0,1-37.7,47.7s13.5-20.6,12.9-50a47.3,47.3,0,0,1,12.4-.9A35.1,35.1,0,0,1,191.6,134.4Z" style="fill:#2e4159"/>
    <path d="M181.5,167.3c13.8-17.3,9.1-28.7,8.8-28.7a15.8,15.8,0,0,0-8.9,28.8" style="fill:#fff;opacity:0.5"/>
    <path d="M181.5,167.3l1.4-1.8Z" style="fill:#fff;opacity:0.5"/>
    <path d="M191.3,144a14.3,14.3,0,0,0-9.4,3.6c-2.2,2-5.4-.8-3.9-3h0a15.7,15.7,0,0,1,12.3-6c.2,0,1.2,2.3,1.1,6.3C191.3,144.6,191.3,144.3,191.3,144Z" style="fill:#fff;opacity:0.5"/>
    <path d="M191,148.2v0Z" style="fill:#fff;opacity:0.5"/>
    <path d="M191.1,147v0Z" style="fill:#fff;opacity:0.5"/>
    <path d="M191.2,145.9v0Z" style="fill:#fff;opacity:0.5"/>
    <path d="M174.6,152.4v0Z" style="fill:#fff;opacity:0.5"/>
    <path d="M174.9,150.8v0Z" style="fill:#fff;opacity:0.5"/>
    <path d="M177.9,144.6a15.9,15.9,0,0,0-1.9,3A15.8,15.8,0,0,1,177.9,144.6Z" style="fill:#fff;opacity:0.5"/>
    <path d="M175.3,149.4l-.2.7Z" style="fill:#fff;opacity:0.5"/>
    <path d="M175.8,148l-.3.8Z" style="fill:#fff;opacity:0.5"/>
    <path d="M186.6,159.9l.6-1.1Z" style="fill:#fff;opacity:0.5"/>
    <path d="M185.6,161.5l.6-1Z" style="fill:#fff;opacity:0.5"/>
    <path d="M187.4,158.3l.7-1.5Z" style="fill:#fff;opacity:0.5"/>
    <path d="M184.5,163.2l.7-1.1Z" style="fill:#fff;opacity:0.5"/>
    <path d="M183.3,165l.8-1.2Z" style="fill:#fff;opacity:0.5"/>
    <path d="M189.6,153.4l.3-.9Z" style="fill:#fff;opacity:0.5"/>
    <path d="M190,152.1l.3-.9Z" style="fill:#fff;opacity:0.5"/>
    <path d="M188.3,156.5l.5-1.2Z" style="fill:#fff;opacity:0.5"/>
    <path d="M190.4,150.8q.3-1.3.5-2.4C190.8,149.1,190.6,149.9,190.4,150.8Z" style="fill:#fff;opacity:0.5"/>
    <path d="M189,154.9l.4-.9Z" style="fill:#fff;opacity:0.5"/>
    <path d="M184.7,162.4c8.6-10.8,6.2-18.3,6-18.3a10.6,10.6,0,0,0-10.3,10.2,9.8,9.8,0,0,0,4.3,8.1" style="fill:#dce3ea"/>
    <path d="M180.3,151.7a10.7,10.7,0,0,1,9.9-7.6c.2,0,1.3,3.2-.5,8.5a10.6,10.6,0,0,1-9.5-1Z" style="fill:#fff;opacity:0.5"/>
    <path d="M166.4,136.4l-15.5,8.2a3.8,3.8,0,0,0-1.6,5.2h0a3.8,3.8,0,0,0,5.2,1.6l11.2-5.9" style="fill:#dce3ea"/>
    <path d="M191.6,134.4a43,43,0,0,1-37.7,47.7s13.5-20.6,12.9-50a47.3,47.3,0,0,1,12.4-.9A35.1,35.1,0,0,1,191.6,134.4Z" style="fill:none;stroke:#1d132d;stroke-linecap:round;stroke-linejoin:round;stroke-width:2px"/>
    <path d="M191.4,144.1h-1.2a10.4,10.4,0,0,0-5.5,19.2" style="fill:none;stroke:#1d132d;stroke-linecap:round;stroke-linejoin:round;stroke-width:2px"/>
    <path d="M191.4,138.7h-1.2a15.8,15.8,0,0,0-8.9,28.8" style="fill:none;stroke:#1d132d;stroke-linecap:round;stroke-linejoin:round;stroke-width:2px"/>
    <path d="M166.4,136.4l-15.5,8.2a3.8,3.8,0,0,0-1.6,5.2h0a3.8,3.8,0,0,0,5.2,1.6l11.2-5.9" style="fill:none;stroke:#1d132d;stroke-linecap:round;stroke-linejoin:round;stroke-width:2px"/>
    <path d="M152.3,143.7l-21.9-8.2a3.9,3.9,0,0,0-5,2.3h0a3.9,3.9,0,0,0,2.3,5l23.6,8.8a3.8,3.8,0,0,0,1.9.2" style="fill:none;stroke:#1d132d;stroke-linecap:round;stroke-linejoin:round;stroke-width:2px"/>
    <circle cx="87" cy="148" r="1.2" style="fill:#1d132d"/>
    <circle cx="152.8" cy="148" r="1.2" style="fill:#1d132d"/>
  </g>
  <g>
    <title>atribute04</title>
    <g style="isolation:isolate">
      <path d="M71.8,98.1V69.5H63.1c-2.7,0-4.8,6.4-4.8,14.3s2.2,14.3,4.8,14.3h8.7Z" style="fill:#2e4159"/>
      <g style="opacity:0.15;mix-blend-mode:multiply">
        <path d="M59.6,92.9H59.4c0.9,3.2,2.2,5.2,3.7,5.2h8.7V86.8A16,16,0,0,1,59.6,92.9Z" style="fill:#180621"/>
      </g>
      <path d="M71.8,98.1V69.4H63.2c-2.7,0-4.8,6.4-4.8,14.3s2.2,14.3,4.8,14.3h8.7Z" style="fill:none;stroke:#1d132d;stroke-miterlimit:10;stroke-width:2px"/>
      <path d="M48.5,83.4c0-5-1.6-9-3.6-9.1h0L36.4,73,15.9,78.2h0c-1.1.1-2,2.4-2,5.2s0.9,5.1,2,5.2h0l20.5,5.2,8.6-1.3h0C46.9,92.4,48.5,88.4,48.5,83.4Z" style="fill:#dce3ea"/>
      <path d="M36.4,73L15.9,78.2h0c-1.1.1-3.2,5-2,5.2C30.6,85.9,36.4,73,36.4,73Z" style="fill:#fff;opacity:0.5"/>
      <path d="M48.5,83.4c0-5-1.6-9-3.6-9.1h0L36.4,73,15.9,78.2h0c-1.1.1-2,2.4-2,5.2s0.9,5.1,2,5.2h0l20.5,5.2,8.6-1.3h0C46.9,92.4,48.5,88.4,48.5,83.4Z" style="fill:none;stroke:#1d132d;stroke-linecap:round;stroke-linejoin:round;stroke-width:2px"/>
      <path d="M41.9,77.5c0.6-1.9,1.6-3.1,2.6-3.3" style="fill:none;stroke:#1d132d;stroke-linecap:round;stroke-linejoin:round;stroke-width:2px"/>
      <ellipse cx="45" cy="83.2" rx="3.2" ry="8.9" style="fill:#180621;opacity:0.15"/>
      <path d="M41.2,82q0-.6.1-1.3" style="fill:none;stroke:#1d132d;stroke-linecap:round;stroke-linejoin:round;stroke-width:2px"/>
      <path d="M45.1,92.5H44.8c-1.8,0-3.3-3.1-3.6-7.2" style="fill:none;stroke:#1d132d;stroke-linecap:round;stroke-linejoin:round;stroke-width:2px"/>
      <path d="M37.3,93.6H37c-2.1,0-3.8-3.5-4.2-8.3" style="fill:none;stroke:#1d132d;stroke-linecap:round;stroke-linejoin:round;stroke-width:2px"/>
      <path d="M168.4,98.1V69.5H177c2.7,0,4.8,6.4,4.8,14.3s-2.2,14.3-4.8,14.3h-8.7Z" style="fill:#2e4159"/>
      <g style="opacity:0.15;mix-blend-mode:multiply">
        <path d="M180.6,92.9h0.1c-0.9,3.2-2.2,5.2-3.7,5.2h-8.7V86.8A16,16,0,0,0,180.6,92.9Z" style="fill:#180621"/>
      </g>
      <path d="M168.4,98.1V69.4H177c2.7,0,4.8,6.4,4.8,14.3s-2.2,14.3-4.8,14.3h-8.7Z" style="fill:none;stroke:#1d132d;stroke-miterlimit:10;stroke-width:2px"/>
      <path d="M191.7,83.4c0-5,1.6-9,3.6-9.1h0l8.6-1.3,20.5,5.2h0c1.1,0.1,2,2.4,2,5.2s-0.9,5.1-2,5.2h0l-20.5,5.2-8.6-1.3h0C193.3,92.4,191.7,88.4,191.7,83.4Z" style="fill:#dce3ea"/>
      <path d="M203.8,73l20.5,5.2h0c1.1,0.1,3.2,5,2,5.2C209.5,85.9,203.8,73,203.8,73Z" style="fill:#fff;opacity:0.5"/>
      <path d="M191.7,83.4c0-5,1.6-9,3.6-9.1h0l8.6-1.3,20.5,5.2h0c1.1,0.1,2,2.4,2,5.2s-0.9,5.1-2,5.2h0l-20.5,5.2-8.6-1.3h0C193.3,92.4,191.7,88.4,191.7,83.4Z" style="fill:none;stroke:#1d132d;stroke-linecap:round;stroke-linejoin:round;stroke-width:2px"/>
      <path d="M198.3,77.5c-0.6-1.9-1.6-3.1-2.6-3.3" style="fill:none;stroke:#1d132d;stroke-linecap:round;stroke-linejoin:round;stroke-width:2px"/>
      <ellipse cx="195.1" cy="83.2" rx="3.2" ry="8.9" style="fill:#180621;opacity:0.15"/>
      <path d="M199,82q0-.6-0.1-1.3" style="fill:none;stroke:#1d132d;stroke-linecap:round;stroke-linejoin:round;stroke-width:2px"/>
      <path d="M195.1,92.5h0.3c1.8,0,3.3-3.1,3.6-7.2" style="fill:none;stroke:#1d132d;stroke-linecap:round;stroke-linejoin:round;stroke-width:2px"/>
      <path d="M202.8,93.6h0.3c2.1,0,3.8-3.5,4.2-8.3" style="fill:none;stroke:#1d132d;stroke-linecap:round;stroke-linejoin:round;stroke-width:2px"/>
    </g>
  </g>
  <g>
    <title>atribute14</title>
    <path d="M131.3,34.3a76.8,76.8,0,0,0-11.1-.9,84.7,84.7,0,0,0-11.6.9C82.9,38.8,65.3,60.4,65.3,88c0,15.4,3.2,29.6,12.1,37.2s18.2,10.8,39.5,11.1h-7.7c-7,6.6-11.8,18.9-11.8,29.9,0,16,10.1,19.5,22.6,19.5s22.6-3.4,22.6-19.5c0-11.1-4.9-23.5-12-30.1h-5.2c19.6-.5,28.4-3.6,37.2-11.1s12.1-21.8,12.1-37.2C174.7,60.4,157.1,38.8,131.3,34.3Z" style="fill:#5858f4"/>
    <path d="M111.2,185a36.3,36.3,0,0,0,5.7.7" style="fill:none;stroke:#1d132d;stroke-linecap:round;stroke-linejoin:round;stroke-width:2px"/>
    <path d="M108.9,136.7a30.2,30.2,0,0,0-3.8,4.5" style="fill:none;stroke:#1d132d;stroke-miterlimit:10;stroke-width:2px"/>
    <path d="M129,185a36.3,36.3,0,0,1-5.7.7" style="fill:none;stroke:#1d132d;stroke-linecap:round;stroke-linejoin:round;stroke-width:2px"/>
    <path d="M131.3,136.7a30.2,30.2,0,0,1,3.8,4.5" style="fill:none;stroke:#1d132d;stroke-miterlimit:10;stroke-width:2px"/>
    <path d="M135.8,144L119.6,153l-15.8-8.7a38.6,38.6,0,0,0-5.8,25,23.3,23.3,0,0,0,2.4,8.4c0.7,1.3,4.7,7.1,6.5,5.4s0.3-4.9.4-6,0.5-4.3.8-6.5l3.6,2.1,0.9-11.8A43.6,43.6,0,0,0,119,164v-0.3c2.2-.9,6-1.8,8.1-3.1l0.9,11.8,3.6-2.1q0.5,3.2.8,6.5c0.1,1.1-.2,5.3.4,6s6.4-3.7,7.1-5a22.2,22.2,0,0,0,2.1-8.2A40.1,40.1,0,0,0,135.8,144Z" style="fill:#dce3ea"/>
    <path d="M130.5,136.1c-3.1.3-6.1,0.6-9.4,0.6a111.1,111.1,0,0,1-12.3-.4l-6.8,9.6a41,41,0,0,0,17.6,3.6,40.7,40.7,0,0,0,17.8-3.7C137.2,145.4,130.9,136.5,130.5,136.1Z" style="fill:#180621;opacity:0.15"/>
    <polyline points="136.6 144.7 119.4 152.7 103.3 145.2" style="fill:none;stroke:#1d132d;stroke-miterlimit:10;stroke-width:2px"/>
    <polyline points="139.9 154 119.3 163.7 100 154.7" style="fill:none;stroke:#1d132d;stroke-miterlimit:10;stroke-width:2px"/>
    <polyline points="112.1 160.6 111.9 172.1 97.4 165.4" style="fill:none;stroke:#1d132d;stroke-miterlimit:10;stroke-width:2px"/>
    <line x1="107.2" y1="170.2" x2="107.2" y2="184.5" style="fill:none;stroke:#1d132d;stroke-miterlimit:10;stroke-width:2px"/>
    <polyline points="127.6 160.4 127.8 171.9 142.3 165.1" style="fill:none;stroke:#1d132d;stroke-miterlimit:10;stroke-width:2px"/>
    <line x1="132.4" y1="170" x2="132.4" y2="184.2" style="fill:none;stroke:#1d132d;stroke-miterlimit:10;stroke-width:2px"/>
    <g style="opacity:0.30000000000000004">
      <path d="M108.7,44.1a84.7,84.7,0,0,1,11.6-.9,76.8,76.8,0,0,1,11.1.9c24.4,4.3,41.5,23.9,43.2,49.5q0.1-2.7.1-5.5c0-27.7-17.6-49.2-43.4-53.7a76.8,76.8,0,0,0-11.1-.9,84.7,84.7,0,0,0-11.6.9C82.9,39,65.3,60.5,65.3,88.1q0,2.8.1,5.5C67.1,68,84.3,48.4,108.7,44.1Z" style="fill:#fff"/>
    </g>
    <path d="M125.4,136.4c19.6-.5,28.4-3.6,37.2-11.1s12.1-21.8,12.1-37.2c0-27.7-17.6-49.2-43.4-53.7a76.8,76.8,0,0,0-11.1-.9,84.7,84.7,0,0,0-11.6.9C82.9,39,65.3,60.5,65.3,88.1c0,15.4,3.2,29.6,12.1,37.2s18.2,10.8,39.5,11.1h8.5Z" style="fill:none;stroke:#1d132d;stroke-miterlimit:10;stroke-width:2px"/>
    <path d="M109.2,136.5c-7,6.6-11.8,18.9-11.8,29.9,0,16,10.1,19.5,22.6,19.5s22.6-3.4,22.6-19.5c0-11.1-4.9-23.5-12-30.1" style="fill:none;stroke:#1d132d;stroke-miterlimit:10;stroke-width:2px"/>
    <g style="opacity:0.30000000000000004">
      <path d="M108.7,44.1a84.7,84.7,0,0,1,11.6-.9,76.8,76.8,0,0,1,11.1.9c24.4,4.3,41.5,23.9,43.2,49.5q0.1-2.7.1-5.5c0-27.7-17.6-49.2-43.4-53.7a76.8,76.8,0,0,0-11.1-.9,84.7,84.7,0,0,0-11.6.9C82.9,39,65.3,60.5,65.3,88.1q0,2.8.1,5.5C67.1,68,84.3,48.4,108.7,44.1Z" style="fill:#fff"/>
    </g>
    <path d="M125.4,136.4c19.6-.5,28.4-3.6,37.2-11.1s12.1-21.8,12.1-37.2c0-27.7-17.6-49.2-43.4-53.7a76.8,76.8,0,0,0-11.1-.9,84.7,84.7,0,0,0-11.6.9C82.9,39,65.3,60.5,65.3,88.1c0,15.4,3.2,29.6,12.1,37.2s18.2,10.8,39.5,11.1h8.5Z" style="fill:none;stroke:#1d132d;stroke-miterlimit:10;stroke-width:2px"/>
  </g>
  <g>
    <title>06</title>
    <path d="M120.2,136.6c26.6,0,36.1-4,44.2-10.3l1.7-1.4c11-10.7,8.2-26,8.2-26s-18.9,9.4-54.2,9.4-54.2-9.4-54.2-9.4-2.8,15.4,8.2,26l1.7,1.4c8.1,6.3,17.6,10.3,44.2,10.3" style="fill:#dce3ea"/>
    <path d="M65.8,102.8s18.2,9.4,54.2,9.4,54.2-9.4,54.2-9.4a23.1,23.1,0,0,1,.3,2.5,30.5,30.5,0,0,0-.3-6.5s-18.9,9.4-54.2,9.4-54.2-9.4-54.2-9.4a30.5,30.5,0,0,0-.3,6.5A23.1,23.1,0,0,1,65.8,102.8Z" style="fill:#fff;opacity:0.5"/>
    <path d="M166.1,119.1l-1.7,1.5c-8.1,6.3-17.6,9.4-44.2,9.4h-.4c-26.6,0-36.1-3.1-44.2-9.4L74,119.1a29.2,29.2,0,0,1-8.4-18.7c-.4,4.2-.5,15.9,8.4,24.6l1.7,1.5c8.1,6.3,17.6,9.4,44.2,9.4h.4c26.6,0,36.1-3.1,44.2-9.4l1.7-1.5c8.9-8.7,8.7-20.4,8.4-24.6A29.2,29.2,0,0,1,166.1,119.1Z" style="fill:#180621;opacity:0.15"/>
    <path d="M120.2,136.6c26.6,0,36.1-4,44.2-10.3l1.7-1.4c11-10.7,8.2-26,8.2-26s-18.9,9.4-54.2,9.4-54.2-9.4-54.2-9.4-2.8,15.4,8.2,26l1.7,1.4c8.1,6.3,17.6,10.3,44.2,10.3" style="fill:none;stroke:#1d132d;stroke-linecap:round;stroke-linejoin:round;stroke-width:2px"/>
    <path d="M120.1,119.1a3,3,0,0,1-2.9-2.2,3,3,0,1,0,5.7,0A3,3,0,0,1,120.1,119.1Z" style="fill:#fff"/>
    <path d="M109.6,119.1a3,3,0,0,1-2.9-2.2,3,3,0,1,0,5.7,0A3,3,0,0,1,109.6,119.1Z" style="fill:#fff"/>
    <path d="M130,119.1a3,3,0,0,1-2.9-2.2,3,3,0,1,0,5.7,0A3,3,0,0,1,130,119.1Z" style="fill:#fff"/>
    <circle cx="109.6" cy="116.8" r="2" style="fill:none;stroke:#1d132d;stroke-linecap:round;stroke-linejoin:round;stroke-width:2px"/>
    <circle cx="129.9" cy="116.8" r="2" style="fill:none;stroke:#1d132d;stroke-linecap:round;stroke-linejoin:round;stroke-width:2px"/>
    <circle cx="120.1" cy="116.8" r="2" style="fill:none;stroke:#1d132d;stroke-linecap:round;stroke-linejoin:round;stroke-width:2px"/>
  </g>
  <g>
    <title>atribute11-01</title>
    <polygon points="130.6 97.1 163.6 81.9 167.9 75.8 137.5 75.8 129.7 81.3 110.5 81.3 102.7 75.8 72.4 75.8 76.6 81.9 109.6 97.1 130.6 97.1" style="fill:#2e4159"/>
    <line x1="172.1" y1="75.8" x2="160.9" y2="75.8" style="fill:none;stroke:#1d132d;stroke-linecap:round;stroke-linejoin:round;stroke-width:2px"/>
    <polygon points="130.6 97.1 163.6 81.9 167.9 75.8 137.5 75.8 129.7 81.3 110.5 81.3 102.7 75.8 72.4 75.8 76.6 81.9 109.6 97.1 130.6 97.1" style="fill:none;stroke:#1d132d;stroke-linecap:round;stroke-linejoin:round;stroke-width:2px"/>
    <line x1="67.9" y1="75.8" x2="79.1" y2="75.8" style="fill:none;stroke:#1d132d;stroke-linecap:round;stroke-linejoin:round;stroke-width:2px"/>
    <path d="M112.9,82.4a7.3,7.3,0,1,0,14.4,0H112.9Z" style="fill:#e83a27"/>
  </g>
  <g/>
</svg>