<svg xmlns="http://www.w3.org/2000/svg" xmlns:xlink="http://www.w3.org/1999/xlink" viewBox="0 0 240 240">
  <ellipse cx="120.5" cy="233.4" rx="43.7" ry="4.9" style="fill:#180621;opacity:0.15"/>
  <g>
    <title>06</title>
    <path d="M161.8,221.3c.5-4.1-.9-12.6-.9-12.6s-8.1,3.9-10.4,9.4a6,6,0,0,0-.4,1.3v.2a14.1,14.1,0,0,1-3.7-2.6h-.1c.3-1.2.2-2.1-.4-2.5l-3.4-2.6-.3.2c.5-1.2.6-2.2.1-2.8l-2.4-3.2-1.2.6c.9-1.2,1.3-2.3.9-3.2l-2.1-4.6h-.2a2.9,2.9,0,0,0,1-2.4l-1-5.8h-.2a3.1,3.1,0,0,0,1.3-2.3v-8H101.5v8c0,1.3,1.1,2.4,3,3.4h-.2l1.7,10.2c.2,1.1,1.3,2,3.2,2.5h-.1l4.6,10.5c.5,1.2,2.5,1.7,5.2,1.4l-.8.4,5.4,7.1c1,1.3,4.3.6,8-1.5l-1.9,1.8L135,229c.8.6,2.2.1,3.9-1.2l-.4.6a26.9,26.9,0,0,0,14-.8v.4a5.9,5.9,0,0,0,3.3,3.4c5.5,2.3,14-.6,14-.6S165,223.9,161.8,221.3Z" style="fill:#dce3ea"/>
    <path d="M161.8,221.3c.5-4.1-.9-12.6-.9-12.6s-8.1,3.9-10.4,9.4a6,6,0,0,0-.4,1.3v.2a14.1,14.1,0,0,1-3.7-2.6h-.1c.3-1.2.2-2.1-.4-2.5l-3.4-2.6-.3.2c.5-1.2.6-2.2.1-2.8l-2.4-3.2-1.2.6c.9-1.2,1.3-2.3.9-3.2l-2.1-4.6h-.2a2.9,2.9,0,0,0,1-2.4l-1-5.8h-.2a3.1,3.1,0,0,0,1.3-2.3v-8H101.5v8c0,1.3,1.1,2.4,3,3.4h-.2l1.7,10.2c.2,1.1,1.3,2,3.2,2.5h-.1l4.6,10.5c.5,1.2,2.5,1.7,5.2,1.4l-.8.4,5.4,7.1c1,1.3,4.3.6,8-1.5l-1.9,1.8L135,229c.8.6,2.2.1,3.9-1.2l-.4.6a26.9,26.9,0,0,0,14-.8v.4a5.9,5.9,0,0,0,3.3,3.4c5.5,2.3,14-.6,14-.6S165,223.9,161.8,221.3Z" style="fill:#dce3ea"/>
    <path d="M152.6,228v.2a35.4,35.4,0,0,1,4.6-3.7l1.7-1.1a8.3,8.3,0,0,1,1.2-1.2l.3-.8a11.1,11.1,0,0,1-2.7.3,9.7,9.7,0,0,1-7.5-3.2l-.2.8v.2a14.1,14.1,0,0,1-3.7-2.6h-.1c.3-1.2.2-2.1-.4-2.5l-3.4-2.6-.3.2c.5-1.2.6-2.2.1-2.8l-2.4-3.2-1.2.6c.9-1.2,1.3-2.3.9-3.2l-2.1-4.6h-.2a2.9,2.9,0,0,0,1-2.4l-1-5.8h-.2a3.1,3.1,0,0,0,1.3-2.3v-8H101.5v8c0,1.3,1.1,2.4,3,3.4h-.2l1.7,10.2c.2,1.1,1.3,2,3.2,2.5h-.1l4.6,10.5c.5,1.2,2.5,1.7,5.2,1.4l-.8.4,5.4,7.1c1,1.3,4.3.6,8-1.5l-1.9,1.8L135,229c.8.6,2.2.1,3.9-1.2l-.4.6a26.9,26.9,0,0,0,14-.8Z" style="fill:#dce3ea"/>
    <path d="M101.5,179.8v3.5c0,3.5,8.3,6.2,18.5,6.2s18.4-2.8,18.5-6.2v-3.6Z" style="fill:#180621;opacity:0.15"/>
    <path d="M138.6,180.8H101.5v8c0,3.5,8.3,6.2,18.5,6.2s18.5-2.8,18.5-6.2Z" style="fill:none;stroke:#1d132d;stroke-miterlimit:10;stroke-width:2px"/>
    <path d="M104.3,192.2l1.7,10.2c.5,3,8.2,4.2,17.2,2.7s15.8-5.2,15.3-8.3l-1-5.8" style="fill:none;stroke:#1d132d;stroke-linecap:round;stroke-linejoin:round;stroke-width:2px"/>
    <path d="M109.1,205l4.6,10.5c1.1,2.4,7.8,1.8,15.1-1.4s12.2-7.8,11.1-10.2l-2.1-4.6" style="fill:none;stroke:#1d132d;stroke-linecap:round;stroke-linejoin:round;stroke-width:2px"/>
    <path d="M118,217.3l5.4,7.1c1.4,1.8,6.8-.1,12.1-4.2s8.5-8.8,7.1-10.6l-2.4-3.2" style="fill:none;stroke:#1d132d;stroke-linecap:round;stroke-linejoin:round;stroke-width:2px"/>
    <path d="M129.5,224.7,135,229c1.3,1,4.9-1.3,7.9-5.3s4.4-8,3.1-9l-3.4-2.6" style="fill:none;stroke:#1d132d;stroke-linecap:round;stroke-linejoin:round;stroke-width:2px"/>
    <path d="M146.5,217.1c3.8,3.7,9.4,4.6,14,4.9h.2c-4.4,5-11.3,8.4-22.3,6.5" style="fill:none;stroke:#1d132d;stroke-linecap:round;stroke-linejoin:round;stroke-width:2px"/>
    <path d="M152.6,228a5.9,5.9,0,0,0,3.3,3.4c5.5,2.3,14-.6,14-.6s-4.9-7-8.2-9.6c.5-4.1-.9-12.6-.9-12.6s-8.1,3.9-10.4,9.4a6,6,0,0,0-.4,1.3" style="fill:none;stroke:#1d132d;stroke-linecap:round;stroke-linejoin:round;stroke-width:2px"/>
    <path d="M122.8,194.9l-4-.5a53.1,53.1,0,0,1-10.9-1.2l-2.9-.9h-.7l.7,4.2a43.6,43.6,0,0,0,14.6,2.3c7.7,0,14.5-1.7,18.5-4.2l-.5-2.6A33.6,33.6,0,0,1,122.8,194.9Z" style="fill:#180621;opacity:0.15"/>
    <path d="M137.7,199.8a33.6,33.6,0,0,1-14.3,5.1h-4a53.1,53.1,0,0,1-9.7.5v1a24.9,24.9,0,0,1,1.3,3.3,48.1,48.1,0,0,0,9.8-.6c7.6-1.2,14-3.9,17.6-7Z" style="fill:#180621;opacity:0.15"/>
    <path d="M139.9,206.1a33.6,33.6,0,0,1-12.4,8.8l-3.9,1.2-4.8,1.8a26,26,0,0,1,1.7,3c11.5-3,18.4-9.1,20.8-12.6Z" style="fill:#180621;opacity:0.15"/>
    <path d="M142.9,212.3A33.6,33.6,0,0,1,132,222.9l-2.1,1.1a25,25,0,0,1,2.4,2.6c7-4.3,11-9.3,12.4-12.4Z" style="fill:#180621;opacity:0.15"/>
    <path d="M139.7,228.6a24.5,24.5,0,0,1,3.8.3,27.1,27.1,0,0,0,5.5-9.2l-2.1-1.6a35.6,35.6,0,0,1-7.4,10.6Z" style="fill:#180621;opacity:0.15"/>
    <path d="M152.7,215.2l-2.6,4.5,11,1.7a15.4,15.4,0,0,0,.7-2.2A16.6,16.6,0,0,1,152.7,215.2Z" style="fill:#180621;opacity:0.15"/>
    <path d="M156.5,231.3l-3.8-3.5,8.7-5.8s2,1.3,2.2,1.7A23.7,23.7,0,0,0,156.5,231.3Z" style="fill:#180621;opacity:0.15"/>
  </g>
  <g>
    <title>atribute</title>
    <path d="M75.1,142.8a13.3,13.3,0,0,0,.2-3.2l-2.3.6H72.9l-0.2.3a16.5,16.5,0,0,1-1,2.6,2.6,2.6,0,0,1-1.4,1.5,0.6,0.6,0,0,0-.5.3,0.7,0.7,0,0,0,.1.5c0.3,0.7.6,2.4,1.2,2.8s1.2-.4,1.6-0.7A8.9,8.9,0,0,0,75.1,142.8Z" style="fill:#d9e3ea"/>
    <polyline points="80.7 160.3 94.4 147.1 98.6 154.2 80.7 171.5" style="fill:#d9e3ea"/>
    <line x1="98.6" y1="154.2" x2="80.7" y2="171.5" style="fill:none;stroke:#1a0b2a;stroke-linecap:round;stroke-linejoin:round;stroke-width:2px"/>
    <line x1="94.4" y1="147.1" x2="80.7" y2="160.3" style="fill:none;stroke:#1a0b2a;stroke-linecap:round;stroke-linejoin:round;stroke-width:2px"/>
    <path d="M83.6,157.5l-2.9,2.8v11.2l3.9-3.7Q84.1,162.6,83.6,157.5Z" style="fill:#15011c;opacity:0.150000005960464;isolation:isolate"/>
    <path d="M77.7,179.3a13.2,13.2,0,0,0,3.3-4.9V156.2c-4.7,0-8.6-4.6-9.9-10.9l-0.2-1c-0.9-4.6-3.6-7.4-8-7.5H52.6l11.7,45.3,11.1-2.1Z" style="fill:#1d3f59"/>
    <path d="M77.3,179.4h0.4a13.2,13.2,0,0,0,3.3-4.9V156.2c-4.7,0-8.6-4.6-9.9-10.9l-0.2-1c-0.9-4.6-3.6-7.4-8-7.5H52.6l0.8,3.3h5.7c4.4,0.1,7,2.9,8,7.5l0.2,1c1.3,6.3,5.4,10.4,9.9,10.9v19.9Z" style="fill:#fff;opacity:0.200000002980232;isolation:isolate"/>
    <path d="M65.2,164.4l0.3-.2a0.6,0.6,0,0,0,.1-0.4l0.7-8.6a43.8,43.8,0,0,1-8,1.1c0.3,1.7-.4,3.3-1.2,4.9l-1.6,3.2a28.9,28.9,0,0,1-1.9,2.5C57.4,166.9,61.6,165.5,65.2,164.4Z" style="fill:#d9e3ea"/>
    <path d="M60.1,152.4l4.1-.8a43.7,43.7,0,0,1,8.5-1.5,18.9,18.9,0,0,1-1.6-4.7l-0.2-1c-0.9-4.6-3.6-7.4-8-7.5H52.6l4,15.7Z" style="fill:#d9e3ea"/>
    <path d="M47.8,136.9h7.8a2.4,2.4,0,0,1,2.4,2.4v18.2a10.8,10.8,0,0,1-10.8,10.8H41.6" style="fill:#d9e3ea"/>
    <path d="M58.5,146.7h6.2a4,4,0,0,1,3.7,4.3,4.2,4.2,0,0,1-3.9,4.1l-6.2,1.1" style="fill:#d9e3ea"/>
    <path d="M58.5,152.9v3.3l6.2-1.1a4.2,4.2,0,0,0,3.9-4.1,5.1,5.1,0,0,0-.2-1.6C67.4,152.6,64.6,152.2,58.5,152.9Z" style="fill:#15011c;opacity:0.150000005960464;isolation:isolate"/>
    <path d="M80.7,156.4v16.9c0,2.6-.6,4.3-2.8,5.4l-13.2,3.4" style="fill:none;stroke:#1a0b2a;stroke-linecap:round;stroke-linejoin:round;stroke-width:2px"/>
    <polygon points="52.2 136.4 37.4 136.4 38.4 131.1 51.2 131.1 52.2 136.4" style="fill:#d9e3ea"/>
    <path d="M46.3,131.1H38.4l-1,5.3h9.8A31.5,31.5,0,0,1,46.3,131.1Z" style="fill:#15011c;opacity:0.150000005960464;isolation:isolate"/>
    <path d="M93.9,156l1.4,1.4,3.3-3.2-4.2-7.1-2.9,2.8A12.8,12.8,0,0,0,93.9,156Z" style="fill:#15011c;opacity:0.150000005960464;isolation:isolate"/>
    <path d="M109.8,136.7l-16.9,3.6a23,23,0,0,0,6.5,14.5" style="fill:#1d3f59"/>
    <path d="M92.9,140.4c0.7,4.6,2.9,11,6.5,14.5l3.9-6.8C102.3,147.9,93.6,141.3,92.9,140.4Z" style="fill:#15011c;opacity:0.2;isolation:isolate"/>
    <path d="M109.8,136.7l-16.9,3.6a23,23,0,0,0,6.5,14.5" style="fill:none;stroke:#1d132d;stroke-linecap:round;stroke-linejoin:round;stroke-width:2px"/>
    <path d="M33.2,136.9H50a2.4,2.4,0,0,1,2.4,2.4v18.2a10.8,10.8,0,0,1-10.8,10.8h0a10.8,10.8,0,0,1-10.8-10.8V139.3a2.4,2.4,0,0,1,2.4-2.4Z" style="fill:#d9e3ea"/>
    <path d="M33.2,136.9H50a2.4,2.4,0,0,1,2.4,2.4v18.2a10.8,10.8,0,0,1-10.8,10.8h0a10.8,10.8,0,0,1-10.8-10.8V139.3a2.4,2.4,0,0,1,2.4-2.4Z" style="fill:#15011c;opacity:0.150000005960464;isolation:isolate"/>
    <path d="M66.2,164.7v15.2a2.4,2.4,0,0,1-2.4,2.4H54a2.4,2.4,0,0,1-2.4-2.4V167.5" style="fill:#1d3f59"/>
    <path d="M66.2,164.7v15.2a2.4,2.4,0,0,1-2.4,2.4H54a2.4,2.4,0,0,1-2.4-2.4V167.5" style="fill:#15011c;opacity:0.2;isolation:isolate"/>
    <path d="M33.2,136.9H50a2.4,2.4,0,0,1,2.4,2.4v18.2a10.8,10.8,0,0,1-10.8,10.8h0a10.8,10.8,0,0,1-10.8-10.8V139.3a2.4,2.4,0,0,1,2.4-2.4Z" style="fill:none;stroke:#1a0b2a;stroke-linecap:round;stroke-linejoin:round;stroke-width:2px"/>
    <path d="M47.8,136.9h7.8a2.4,2.4,0,0,1,2.4,2.4v18.2a10.8,10.8,0,0,1-10.8,10.8H41.6" style="fill:none;stroke:#1a0b2a;stroke-linecap:round;stroke-linejoin:round;stroke-width:2px"/>
    <path d="M66.2,164.7v15.2a2.4,2.4,0,0,1-2.4,2.4H54a2.4,2.4,0,0,1-2.4-2.4V167.5" style="fill:none;stroke:#1a0b2a;stroke-linecap:round;stroke-linejoin:round;stroke-width:2px"/>
    <path d="M49.5,152.1a10.3,10.3,0,0,1-10.8,9.7H38.5a10.7,10.7,0,0,1-9.3-11.6A10.3,10.3,0,0,1,40,140.4h0.2C45.8,140.9,50,146.1,49.5,152.1Z" style="fill:#d9e3ea"/>
    <path d="M49.5,152.1a10.3,10.3,0,0,1-10.8,9.7H38.5a10.7,10.7,0,0,1-9.3-11.6A10.3,10.3,0,0,1,40,140.4h0.2C45.8,140.9,50,146.1,49.5,152.1Z" style="fill:none;stroke:#1a0b2a;stroke-linecap:round;stroke-linejoin:round;stroke-width:2px"/>
    <path d="M45.3,151.6a5,5,0,0,1-5.2,4.7H40a5.2,5.2,0,0,1-4.5-5.6,5,5,0,0,1,5.2-4.7h0.1A5.1,5.1,0,0,1,45.3,151.6Z" style="fill:#d9e3ea"/>
    <path d="M44.6,151.6a5.3,5.3,0,0,1-5.5,5H38.9a5.5,5.5,0,0,1-4.8-6,5.3,5.3,0,0,1,5.5-5h0.1A5.5,5.5,0,0,1,44.6,151.6Z" style="fill:#15011c;opacity:0.150000005960464;isolation:isolate"/>
    <path d="M44.9,151.6a5.5,5.5,0,0,1-5.8,5.3H38.9a5.8,5.8,0,0,1-5-6.3,5.5,5.5,0,0,1,5.8-5.3h0.1A5.7,5.7,0,0,1,44.9,151.6Z" style="fill:none;stroke:#1a0b2a;stroke-linecap:round;stroke-linejoin:round;stroke-width:2px"/>
    <path d="M44.5,151.4a3.1,3.1,0,0,1-3.2,2.9H41.2a3.2,3.2,0,0,1-2.8-3.5,3.1,3.1,0,0,1,3.2-2.9h0.1A3.2,3.2,0,0,1,44.5,151.4Z" style="fill:#ff3721"/>
    <path d="M44.8,151.4a3.2,3.2,0,0,1-3.4,3.1H41.3a3.4,3.4,0,0,1-2.9-3.7,3.2,3.2,0,0,1,3.4-3.1h0.1A3.3,3.3,0,0,1,44.8,151.4Z" style="fill:none;stroke:#1a0b2a;stroke-linecap:round;stroke-linejoin:round;stroke-width:2px"/>
    <polygon points="47.2 136.4 37.4 136.4 38.4 131.1 46.2 131.1 47.2 136.4" style="fill:none;stroke:#1a0b2a;stroke-linecap:round;stroke-linejoin:round;stroke-width:2px"/>
    <polyline points="46.2 131.1 52 131.1 53 136.4 47.2 136.4" style="fill:none;stroke:#1a0b2a;stroke-linecap:round;stroke-linejoin:round;stroke-width:2px"/>
    <line x1="50.7" y1="167.7" x2="65.4" y2="163.9" style="fill:none;stroke:#1a0b2a;stroke-linecap:round;stroke-linejoin:round;stroke-width:2px"/>
    <line x1="68.5" y1="150.4" x2="72.1" y2="149.9" style="fill:none;stroke:#1a0b2a;stroke-linecap:round;stroke-linejoin:round;stroke-width:2px"/>
    <line x1="66.2" y1="155.7" x2="66.2" y2="164.7" style="fill:none;stroke:#1a0b2a;stroke-linecap:round;stroke-linejoin:round;stroke-width:2px"/>
    <path d="M58.5,146.7h0.1a4.7,4.7,0,0,1,4.2,5.2,4.6,4.6,0,0,1-4.4,4.3" style="fill:#ff3721"/>
    <path d="M58.5,146.7h6.2a4,4,0,0,1,3.7,4.3,4.2,4.2,0,0,1-3.9,4.1l-6.2,1.1" style="fill:none;stroke:#1a0b2a;stroke-linecap:round;stroke-linejoin:round;stroke-width:2px"/>
    <path d="M58.5,146.7h0.1a4.7,4.7,0,0,1,4.2,5.2,4.6,4.6,0,0,1-4.4,4.3" style="fill:none;stroke:#1a0b2a;stroke-linecap:round;stroke-linejoin:round;stroke-width:2px"/>
    <path d="M76.7,153.7c2.4-3.6,2.6-8.8-.6-13.4H76a11.2,11.2,0,0,1-4.6,9.5" style="fill:#d9e3ea"/>
    <path d="M75.3,153.3c2.4-3.6,4-8.3.8-12.9H76a11.2,11.2,0,0,1-3.7,8.7" style="fill:#15011c;opacity:0.150000005960464;isolation:isolate"/>
    <path d="M75.8,153.3c2.1-2.4,3.6-8.8.6-13.6h0a11.2,11.2,0,0,1-4.1,8.7" style="fill:none;stroke:#1a0b2a;stroke-linecap:round;stroke-linejoin:round;stroke-width:2px"/>
    <path d="M72.6,139.7a11.1,11.1,0,0,1-2,3.6" style="fill:none;stroke:#1a0b2a;stroke-linecap:round;stroke-linejoin:round;stroke-width:2px"/>
    <path d="M52.6,136.9H62.9c4.4,0.1,7,2.9,8,7.5l0.2,1c1.3,6.1,5,10.6,9.6,10.8" style="fill:none;stroke:#1a0b2a;stroke-linecap:round;stroke-linejoin:round;stroke-width:2px"/>
    <line x1="72.7" y1="139.6" x2="76.3" y2="139.6" style="fill:none;stroke:#1a0b2a;stroke-linecap:round;stroke-linejoin:round;stroke-width:2px"/>
    <path d="M164.3,142.8a13.3,13.3,0,0,1-.2-3.2l2.3,0.6h0.2l0.2,0.3a16.5,16.5,0,0,0,1,2.6,2.6,2.6,0,0,0,1.4,1.5,0.6,0.6,0,0,1,.5.3,0.7,0.7,0,0,1-.1.5c-0.3.7-.6,2.4-1.2,2.8s-1.2-.4-1.6-0.7A8.9,8.9,0,0,1,164.3,142.8Z" style="fill:#d9e3ea"/>
    <polyline points="158.8 160.3 145 147.1 140.9 154.2 158.8 171.5" style="fill:#d9e3ea"/>
    <line x1="140.9" y1="154.2" x2="158.8" y2="171.5" style="fill:none;stroke:#1a0b2a;stroke-linecap:round;stroke-linejoin:round;stroke-width:2px"/>
    <line x1="145" y1="147.1" x2="158.8" y2="160.3" style="fill:none;stroke:#1a0b2a;stroke-linecap:round;stroke-linejoin:round;stroke-width:2px"/>
    <path d="M155.9,157.5l2.9,2.8v11.2l-3.9-3.7Q155.4,162.6,155.9,157.5Z" style="fill:#15011c;opacity:0.150000005960464;isolation:isolate"/>
    <path d="M161.8,179.3a13.2,13.2,0,0,1-3.3-4.9V156.2c4.7,0,8.6-4.6,9.9-10.9l0.2-1c0.9-4.6,3.6-7.4,8-7.5h10.3l-11.7,45.3L164,180.1Z" style="fill:#1d3f59"/>
    <path d="M162.2,179.4h-0.4a13.2,13.2,0,0,1-3.3-4.9V156.2c4.7,0,8.6-4.6,9.9-10.9l0.2-1c0.9-4.6,3.6-7.4,8-7.5h10.3l-0.8,3.3h-5.7c-4.4.1-7,2.9-8,7.5l-0.2,1c-1.3,6.3-5.4,10.4-9.9,10.9v19.9Z" style="fill:#fff;opacity:0.200000002980232;isolation:isolate"/>
    <path d="M174.2,164.4l-0.3-.2a0.6,0.6,0,0,1-.1-0.4l-0.7-8.6a43.8,43.8,0,0,0,8,1.1c-0.3,1.7.4,3.3,1.2,4.9l1.6,3.2a28.9,28.9,0,0,0,1.9,2.5C182,166.9,177.9,165.5,174.2,164.4Z" style="fill:#d9e3ea"/>
    <path d="M179.3,152.4l-4.1-.8a43.7,43.7,0,0,0-8.5-1.5,18.9,18.9,0,0,0,1.6-4.7l0.2-1c0.9-4.6,3.6-7.4,8-7.5h10.3l-4,15.7Z" style="fill:#d9e3ea"/>
    <path d="M191.7,136.9h-7.8a2.4,2.4,0,0,0-2.4,2.4v18.2a10.8,10.8,0,0,0,10.8,10.8h5.6" style="fill:#d9e3ea"/>
    <path d="M180.9,146.7h-6.2A4,4,0,0,0,171,151a4.2,4.2,0,0,0,3.9,4.1l6.2,1.1" style="fill:#d9e3ea"/>
    <path d="M181,152.9v3.3l-6.2-1.1A4.2,4.2,0,0,1,171,151a5.1,5.1,0,0,1,.2-1.6C172,152.6,174.9,152.2,181,152.9Z" style="fill:#15011c;opacity:0.150000005960464;isolation:isolate"/>
    <path d="M158.7,156.4v16.9c0,2.6.6,4.3,2.8,5.4l13.2,3.4" style="fill:none;stroke:#1a0b2a;stroke-linecap:round;stroke-linejoin:round;stroke-width:2px"/>
    <polygon points="187.3 136.4 202 136.4 201 131.1 188.3 131.1 187.3 136.4" style="fill:#d9e3ea"/>
    <path d="M193.1,131.1H201l1,5.3h-9.8A31.5,31.5,0,0,0,193.1,131.1Z" style="fill:#15011c;opacity:0.150000005960464;isolation:isolate"/>
    <path d="M145.6,156l-1.4,1.4-3.3-3.2,4.2-7.1,2.9,2.8A12.8,12.8,0,0,1,145.6,156Z" style="fill:#15011c;opacity:0.150000005960464;isolation:isolate"/>
    <path d="M129.7,136.7l16.9,3.6a23,23,0,0,1-6.5,14.5" style="fill:#1d3f59"/>
    <path d="M146.5,140.4c-0.7,4.6-2.9,11-6.5,14.5l-3.9-6.8C137.1,147.9,145.8,141.3,146.5,140.4Z" style="fill:#15011c;opacity:0.2;isolation:isolate"/>
    <path d="M129.7,136.7l16.9,3.6a23,23,0,0,1-6.5,14.5" style="fill:none;stroke:#1d132d;stroke-linecap:round;stroke-linejoin:round;stroke-width:2px"/>
    <path d="M197.9,136.9h0a10.8,10.8,0,0,1,10.8,10.8v18.2a2.4,2.4,0,0,1-2.4,2.4H189.5a2.4,2.4,0,0,1-2.4-2.4V147.7A10.8,10.8,0,0,1,197.9,136.9Z" transform="translate(395.8 305.1) rotate(-180)" style="fill:#d9e3ea"/>
    <path d="M197.9,136.9h0a10.8,10.8,0,0,1,10.8,10.8v18.2a2.4,2.4,0,0,1-2.4,2.4H189.5a2.4,2.4,0,0,1-2.4-2.4V147.7A10.8,10.8,0,0,1,197.9,136.9Z" transform="translate(395.8 305.1) rotate(-180)" style="fill:#15011c;opacity:0.150000005960464;isolation:isolate"/>
    <path d="M173.2,164.7v15.2a2.4,2.4,0,0,0,2.4,2.4h9.8a2.4,2.4,0,0,0,2.4-2.4V167.5" style="fill:#1d3f59"/>
    <path d="M173.2,164.7v15.2a2.4,2.4,0,0,0,2.4,2.4h9.8a2.4,2.4,0,0,0,2.4-2.4V167.5" style="fill:#15011c;opacity:0.2;isolation:isolate"/>
    <path d="M197.9,136.9h0a10.8,10.8,0,0,1,10.8,10.8v18.2a2.4,2.4,0,0,1-2.4,2.4H189.5a2.4,2.4,0,0,1-2.4-2.4V147.7A10.8,10.8,0,0,1,197.9,136.9Z" transform="translate(395.8 305.1) rotate(-180)" style="fill:none;stroke:#1a0b2a;stroke-linecap:round;stroke-linejoin:round;stroke-width:2px"/>
    <path d="M191.7,136.9h-7.8a2.4,2.4,0,0,0-2.4,2.4v18.2a10.8,10.8,0,0,0,10.8,10.8h5.6" style="fill:none;stroke:#1a0b2a;stroke-linecap:round;stroke-linejoin:round;stroke-width:2px"/>
    <path d="M173.2,164.7v15.2a2.4,2.4,0,0,0,2.4,2.4h9.8a2.4,2.4,0,0,0,2.4-2.4V167.5" style="fill:none;stroke:#1a0b2a;stroke-linecap:round;stroke-linejoin:round;stroke-width:2px"/>
    <path d="M189.9,152.1a10.3,10.3,0,0,0,10.8,9.7h0.2a10.7,10.7,0,0,0,9.3-11.6,10.3,10.3,0,0,0-10.8-9.7h-0.2C193.6,140.9,189.5,146.1,189.9,152.1Z" style="fill:#d9e3ea"/>
    <path d="M189.9,152.1a10.3,10.3,0,0,0,10.8,9.7h0.2a10.7,10.7,0,0,0,9.3-11.6,10.3,10.3,0,0,0-10.8-9.7h-0.2C193.6,140.9,189.5,146.1,189.9,152.1Z" style="fill:none;stroke:#1a0b2a;stroke-linecap:round;stroke-linejoin:round;stroke-width:2px"/>
    <path d="M194.2,151.6a5,5,0,0,0,5.2,4.7h0.1a5.2,5.2,0,0,0,4.5-5.6,5,5,0,0,0-5.2-4.7h-0.1A5.1,5.1,0,0,0,194.2,151.6Z" style="fill:#d9e3ea"/>
    <path d="M194.9,151.6a5.3,5.3,0,0,0,5.5,5h0.1a5.5,5.5,0,0,0,4.8-6,5.3,5.3,0,0,0-5.5-5h-0.1A5.5,5.5,0,0,0,194.9,151.6Z" style="fill:#15011c;opacity:0.150000005960464;isolation:isolate"/>
    <path d="M194.6,151.6a5.5,5.5,0,0,0,5.8,5.3h0.1a5.8,5.8,0,0,0,5-6.3,5.5,5.5,0,0,0-5.8-5.3h-0.1A5.7,5.7,0,0,0,194.6,151.6Z" style="fill:none;stroke:#1a0b2a;stroke-linecap:round;stroke-linejoin:round;stroke-width:2px"/>
    <path d="M194.9,151.4a3.1,3.1,0,0,0,3.2,2.9h0.1a3.2,3.2,0,0,0,2.8-3.5,3.1,3.1,0,0,0-3.2-2.9h-0.1A3.2,3.2,0,0,0,194.9,151.4Z" style="fill:#ff3721"/>
    <path d="M194.7,151.4a3.2,3.2,0,0,0,3.4,3.1h0.1a3.4,3.4,0,0,0,2.9-3.7,3.2,3.2,0,0,0-3.4-3.1h-0.1A3.3,3.3,0,0,0,194.7,151.4Z" style="fill:none;stroke:#1a0b2a;stroke-linecap:round;stroke-linejoin:round;stroke-width:2px"/>
    <polygon points="192.3 136.4 202 136.4 201 131.1 193.3 131.1 192.3 136.4" style="fill:none;stroke:#1a0b2a;stroke-linecap:round;stroke-linejoin:round;stroke-width:2px"/>
    <polyline points="193.3 131.1 187.4 131.1 186.4 136.4 192.3 136.4" style="fill:none;stroke:#1a0b2a;stroke-linecap:round;stroke-linejoin:round;stroke-width:2px"/>
    <line x1="188.7" y1="167.7" x2="174.1" y2="163.9" style="fill:none;stroke:#1a0b2a;stroke-linecap:round;stroke-linejoin:round;stroke-width:2px"/>
    <line x1="171" y1="150.4" x2="167.3" y2="149.9" style="fill:none;stroke:#1a0b2a;stroke-linecap:round;stroke-linejoin:round;stroke-width:2px"/>
    <line x1="173.2" y1="155.7" x2="173.2" y2="164.7" style="fill:none;stroke:#1a0b2a;stroke-linecap:round;stroke-linejoin:round;stroke-width:2px"/>
    <path d="M180.9,146.7h-0.1a4.7,4.7,0,0,0-4.2,5.2,4.6,4.6,0,0,0,4.4,4.3" style="fill:#ff3721"/>
    <path d="M180.9,146.7h-6.2A4,4,0,0,0,171,151a4.2,4.2,0,0,0,3.9,4.1l6.2,1.1" style="fill:none;stroke:#1a0b2a;stroke-linecap:round;stroke-linejoin:round;stroke-width:2px"/>
    <path d="M180.9,146.7h-0.1a4.7,4.7,0,0,0-4.2,5.2,4.6,4.6,0,0,0,4.4,4.3" style="fill:none;stroke:#1a0b2a;stroke-linecap:round;stroke-linejoin:round;stroke-width:2px"/>
    <path d="M162.8,153.7c-2.4-3.6-2.6-8.8.6-13.4h0.1a11.2,11.2,0,0,0,4.6,9.5" style="fill:#d9e3ea"/>
    <path d="M164.1,153.3c-2.4-3.6-4-8.3-.8-12.9h0.1a11.2,11.2,0,0,0,3.7,8.7" style="fill:#15011c;opacity:0.150000005960464;isolation:isolate"/>
    <path d="M163.6,153.3c-2.1-2.4-3.6-8.8-.6-13.6h0a11.2,11.2,0,0,0,4.1,8.7" style="fill:none;stroke:#1a0b2a;stroke-linecap:round;stroke-linejoin:round;stroke-width:2px"/>
    <path d="M166.8,139.7a11.1,11.1,0,0,0,2,3.6" style="fill:none;stroke:#1a0b2a;stroke-linecap:round;stroke-linejoin:round;stroke-width:2px"/>
    <path d="M186.8,136.9H176.5c-4.4.1-7,2.9-8,7.5l-0.2,1c-1.3,6.1-5,10.6-9.6,10.8" style="fill:none;stroke:#1a0b2a;stroke-linecap:round;stroke-linejoin:round;stroke-width:2px"/>
    <line x1="166.8" y1="139.6" x2="163.2" y2="139.6" style="fill:none;stroke:#1a0b2a;stroke-linecap:round;stroke-linejoin:round;stroke-width:2px"/>
  </g>
  <g>
    <title>05</title>
    <path d="M72.5,107.4V66.4H69.6c-10.7,0-19.4,9.2-19.4,20.5s8.7,20.5,19.4,20.5Z" style="fill:#dce3ea"/>
    <g style="opacity:0.15">
      <path d="M71,95.5h-.2a24.4,24.4,0,0,1-12.4-3.3l-5-3.8a25.1,25.1,0,0,1-3-3.7,21.7,21.7,0,0,0-.1,2.3c0,11.3,8.7,20.5,19.4,20.5h2.9V95.5Z" style="fill:#180621"/>
    </g>
    <path d="M166.5,107.4V66.4h2.9c10.7,0,19.4,9.2,19.4,20.5s-8.7,20.5-19.4,20.5Z" style="fill:#dce3ea"/>
    <g style="opacity:0.15">
      <path d="M168,95.5h.3a24.4,24.4,0,0,0,12.4-3.3l5-3.8a25.1,25.1,0,0,0,3-3.7,21.7,21.7,0,0,1,.1,2.3c0,11.3-8.7,20.5-19.4,20.5h-2.9V95.5Z" style="fill:#180621"/>
    </g>
    <path d="M72.5,107.4V66.4H69.6c-10.7,0-19.4,9.2-19.4,20.5s8.7,20.5,19.4,20.5Z" style="fill:none;stroke:#1d132d;stroke-miterlimit:10;stroke-width:2px"/>
    <path d="M166.5,107.4V66.4h2.9c10.7,0,19.4,9.2,19.4,20.5s-8.7,20.5-19.4,20.5Z" style="fill:none;stroke:#1d132d;stroke-miterlimit:10;stroke-width:2px"/>
  </g>
  <g>
    <title>01</title>
    <path d="M131.3,34.4a76.8,76.8,0,0,0-11.1-.9,84.7,84.7,0,0,0-11.6.9C82.9,39,65.3,60.5,65.3,88.1c0,15.4,3.2,29.6,12.1,37.2s18.2,10.8,39.5,11.1h-7.7c-7,6.6-11.8,18.9-11.8,29.9,0,16,10.1,19.5,22.6,19.5s22.6-3.4,22.6-19.5c0-11.1-4.9-23.5-12-30.1h-5.2c19.6-.5,28.4-3.6,37.2-11.1s12.1-21.8,12.1-37.2C174.7,60.5,157.1,39,131.3,34.4Z" style="fill:#36c8e3"/>
    <path d="M131.3,34.4a76.8,76.8,0,0,0-11.1-.9,84.7,84.7,0,0,0-11.6.9C82.9,39,65.3,60.5,65.3,88.1c0,15.4,3.2,29.6,12.1,37.2s18.2,10.8,39.5,11.1h-7.7c-7,6.6-11.8,18.9-11.8,29.9,0,16,10.1,19.5,22.6,19.5s22.6-3.4,22.6-19.5c0-11.1-4.9-23.5-12-30.1h-5.2c19.6-.5,28.4-3.6,37.2-11.1s12.1-21.8,12.1-37.2C174.7,60.5,157.1,39,131.3,34.4Z" style="fill:#36c8e3"/>
    <path d="M131.3,34.4a76.8,76.8,0,0,0-11.1-.9,84.7,84.7,0,0,0-11.6.9C82.9,39,65.3,60.5,65.3,88.1c0,15.4,3.2,29.6,12.1,37.2s18.2,10.8,39.5,11.1h-7.7c-7,6.6-11.8,18.9-11.8,29.9,0,16,10.1,19.5,22.6,19.5s22.6-3.4,22.6-19.5c0-11.1-4.9-23.5-12-30.1h-5.2c19.6-.5,28.4-3.6,37.2-11.1s12.1-21.8,12.1-37.2C174.7,60.5,157.1,39,131.3,34.4Z" style="fill:#36c8e3"/>
    <path d="M131.3,34.4a76.8,76.8,0,0,0-11.1-.9,84.7,84.7,0,0,0-11.6.9C82.9,39,65.3,60.5,65.3,88.1c0,15.4,3.2,29.6,12.1,37.2s18.2,10.8,39.5,11.1h-7.7c-7,6.6-11.8,18.9-11.8,29.9,0,16,10.1,19.5,22.6,19.5s22.6-3.4,22.6-19.5c0-11.1-4.9-23.5-12-30.1h-5.2c19.6-.5,28.4-3.6,37.2-11.1s12.1-21.8,12.1-37.2C174.7,60.5,157.1,39,131.3,34.4Z" style="fill:#36c8e3"/>
    <path d="M131.3,34.4a76.8,76.8,0,0,0-11.1-.9,84.7,84.7,0,0,0-11.6.9C82.9,39,65.3,60.5,65.3,88.1c0,15.4,3.2,29.6,12.1,37.2s18.2,10.8,39.5,11.1h-7.7c-7,6.6-11.8,18.9-11.8,29.9,0,16,10.1,19.5,22.6,19.5s22.6-3.4,22.6-19.5c0-11.1-4.9-23.5-12-30.1h-5.2c19.6-.5,28.4-3.6,37.2-11.1s12.1-21.8,12.1-37.2C174.7,60.5,157.1,39,131.3,34.4Z" style="fill:#36c8e3"/>
    <path d="M131.3,34.4a76.8,76.8,0,0,0-11.1-.9,84.7,84.7,0,0,0-11.6.9C82.9,39,65.3,60.5,65.3,88.1c0,15.4,3.2,29.6,12.1,37.2s18.2,10.8,39.5,11.1h-7.7c-7,6.6-11.8,18.9-11.8,29.9,0,16,10.1,19.5,22.6,19.5s22.6-3.4,22.6-19.5c0-11.1-4.9-23.5-12-30.1h-5.2c19.6-.5,28.4-3.6,37.2-11.1s12.1-21.8,12.1-37.2C174.7,60.5,157.1,39,131.3,34.4Z" style="fill:#36c8e3"/>
    <path d="M131.3,34.4a76.8,76.8,0,0,0-11.1-.9,84.7,84.7,0,0,0-11.6.9C82.9,39,65.3,60.5,65.3,88.1c0,15.4,3.2,29.6,12.1,37.2s18.2,10.8,39.5,11.1h-7.7c-7,6.6-11.8,18.9-11.8,29.9,0,16,10.1,19.5,22.6,19.5s22.6-3.4,22.6-19.5c0-11.1-4.9-23.5-12-30.1h-5.2c19.6-.5,28.4-3.6,37.2-11.1s12.1-21.8,12.1-37.2C174.7,60.5,157.1,39,131.3,34.4Z" style="fill:#36c8e3"/>
    <path d="M131.3,34.4a76.8,76.8,0,0,0-11.1-.9,84.7,84.7,0,0,0-11.6.9C82.9,39,65.3,60.5,65.3,88.1c0,15.4,3.2,29.6,12.1,37.2s18.2,10.8,39.5,11.1h-7.7c-7,6.6-11.8,18.9-11.8,29.9,0,16,10.1,19.5,22.6,19.5s22.6-3.4,22.6-19.5c0-11.1-4.9-23.5-12-30.1h-5.2c19.6-.5,28.4-3.6,37.2-11.1s12.1-21.8,12.1-37.2C174.7,60.5,157.1,39,131.3,34.4Z" style="fill:#36c8e3"/>
    <path d="M125.4,136.4c19.6-.5,28.4-3.6,37.2-11.1s12.1-21.8,12.1-37.2c0-27.7-17.6-49.2-43.4-53.7a76.8,76.8,0,0,0-11.1-.9,84.7,84.7,0,0,0-11.6.9C82.9,39,65.3,60.5,65.3,88.1c0,15.4,3.2,29.6,12.1,37.2s18.2,10.8,39.5,11.1Z" style="fill:none;stroke:#1d132d;stroke-miterlimit:10;stroke-width:2px"/>
    <path d="M109.2,136.5c-7,6.6-11.8,18.9-11.8,29.9,0,16,10.1,19.5,22.6,19.5s22.6-3.4,22.6-19.5c0-11.1-4.9-23.5-12-30.1" style="fill:none;stroke:#1d132d;stroke-miterlimit:10;stroke-width:2px"/>
    <path d="M130.9,136.7c-3.4.7-18,.5-21.3-.1h-.4c-7,6.6-11.8,18.9-11.8,29.9,0,16,10.1,19.5,22.6,19.5s22.6-3.4,22.6-19.5C142.6,155.5,137.8,143.3,130.9,136.7Z" style="fill:#36c8e3"/>
    <path d="M130.5,136.2c-3.1.3-6.1.6-9.4.6a111.1,111.1,0,0,1-12.3-.4L102,146a41,41,0,0,0,17.6,3.6,40.7,40.7,0,0,0,17.8-3.7C137.2,145.6,130.9,136.7,130.5,136.2Z" style="fill:#180621;opacity:0.15"/>
    <path d="M109.5,136.3l-.6.5c-6.9,6.7-11.5,18.8-11.5,29.6,0,16,10.1,19.5,22.6,19.5s22.6-3.4,22.6-19.5c0-11-4.8-23.3-11.8-29.9l-.2-.2" style="fill:none;stroke:#1d132d;stroke-linecap:round;stroke-linejoin:round;stroke-width:2px"/>
    <path d="M97.9,168h44.2C129.9,151.6,110.1,151.6,97.9,168Z" style="fill:#ffde00"/>
    <path d="M97.9,168h44.2C129.9,151.6,110.1,151.6,97.9,168Z" style="fill:none;stroke:#1d132d;stroke-linecap:round;stroke-linejoin:round;stroke-width:2px"/>
    <line x1="103.8" y1="161.9" x2="136.4" y2="161.9" style="fill:none;stroke:#1d132d;stroke-linecap:round;stroke-linejoin:round;stroke-width:2px"/>
    <path d="M132.4,159.2a24.1,24.1,0,0,0-24.9,0Z" style="fill:#180621;opacity:0.15"/>
    <path d="M134.7,160.6v.9H105v-.7a32.5,32.5,0,0,0-4.9,4.5h39.9A32.4,32.4,0,0,0,134.7,160.6Z" style="fill:#180621;opacity:0.15"/>
    <g style="opacity:0.30000000000000004">
      <path d="M108.7,44.1a84.7,84.7,0,0,1,11.6-.9,76.8,76.8,0,0,1,11.1.9c24.4,4.3,41.5,23.9,43.2,49.5q.1-2.7.1-5.5c0-27.7-17.6-49.2-43.4-53.7a76.8,76.8,0,0,0-11.1-.9,84.7,84.7,0,0,0-11.6.9C82.9,39,65.3,60.5,65.3,88.1q0,2.8.1,5.5C67.1,68,84.3,48.4,108.7,44.1Z" style="fill:#fff"/>
    </g>
    <path d="M125.4,136.4c19.6-.5,28.4-3.6,37.2-11.1s12.1-21.8,12.1-37.2c0-27.7-17.6-49.2-43.4-53.7a76.8,76.8,0,0,0-11.1-.9,84.7,84.7,0,0,0-11.6.9C82.9,39,65.3,60.5,65.3,88.1c0,15.4,3.2,29.6,12.1,37.2s18.2,10.8,39.5,11.1Z" style="fill:none;stroke:#1d132d;stroke-miterlimit:10;stroke-width:2px"/>
    <path d="M109.2,136.5c-7,6.6-11.8,18.9-11.8,29.9,0,16,10.1,19.5,22.6,19.5s22.6-3.4,22.6-19.5c0-11.1-4.9-23.5-12-30.1" style="fill:none;stroke:#1d132d;stroke-miterlimit:10;stroke-width:2px"/>
    <g style="opacity:0.30000000000000004">
      <path d="M108.7,44.1a84.7,84.7,0,0,1,11.6-.9,76.8,76.8,0,0,1,11.1.9c24.4,4.3,41.5,23.9,43.2,49.5q.1-2.7.1-5.5c0-27.7-17.6-49.2-43.4-53.7a76.8,76.8,0,0,0-11.1-.9,84.7,84.7,0,0,0-11.6.9C82.9,39,65.3,60.5,65.3,88.1q0,2.8.1,5.5C67.1,68,84.3,48.4,108.7,44.1Z" style="fill:#fff"/>
    </g>
    <path d="M125.4,136.4c19.6-.5,28.4-3.6,37.2-11.1s12.1-21.8,12.1-37.2c0-27.7-17.6-49.2-43.4-53.7a76.8,76.8,0,0,0-11.1-.9,84.7,84.7,0,0,0-11.6.9C82.9,39,65.3,60.5,65.3,88.1c0,15.4,3.2,29.6,12.1,37.2s18.2,10.8,39.5,11.1Z" style="fill:none;stroke:#1d132d;stroke-miterlimit:10;stroke-width:2px"/>
  </g>
  <g>
    <title>03</title>
    <path d="M105.1,136.2c-13.7-1.1-21.1-4.3-28.4-10.6a15.7,15.7,0,0,1-3.7-4c-2.4-4.2-7.2-18.1-7.2-18.1,14.5,13.8,41.2,11.8,53.6-.4h0c12.4,11.9,37.1,12.9,54,.8,0,0-4.2,13.6-7.6,17.7a31.5,31.5,0,0,1-3.7,4c-7.3,6.3-14.7,9.5-28.4,10.6h.2a20.3,20.3,0,0,0-14.4,7.2h-.1a20.3,20.3,0,0,0-14.4-7.2" style="fill:#2e4159"/>
    <path d="M173.3,103.4c-13.5,13-40.8,11.3-53.1-.5H120v40.2h.2a20.3,20.3,0,0,1,14.4-7.2h-.2c13.7-1.1,21.1-4.3,28.4-10.6,1.4-1.2,2.6-3.2,3.9-4.5C170.3,117.3,173.3,103.4,173.3,103.4Z" style="fill:#fff;opacity:0.2"/>
    <path d="M120.1,107.9h0c12,10.3,34.7,11.6,51.5,1.8,1-3.3,1.7-5.9,1.7-5.9-16.9,12.1-40.8,11-53.1-.9h0C107.7,115,81,117,66.5,103.3c0,0,1.1,3.1,2.5,6.8C83.9,120.3,108.4,118.2,120.1,107.9Z" style="fill:#fff;opacity:0.1"/>
    <g style="opacity:0.2">
      <path d="M106.9,128a1,1,0,0,1-.1-2l7.6-1a1,1,0,1,1,.3,2l-7.6,1Z" style="fill:#fff"/>
      <path d="M107.3,121.9a1,1,0,0,1-.1-2l7.6-1a1,1,0,1,1,.3,2l-7.6,1Z" style="fill:#fff"/>
    </g>
    <line x1="114.6" y1="125.4" x2="106.9" y2="126.5" style="fill:none;stroke:#1d132d;stroke-linecap:round;stroke-linejoin:round;stroke-width:2px"/>
    <line x1="114.9" y1="119.4" x2="107.3" y2="120.4" style="fill:none;stroke:#1d132d;stroke-linecap:round;stroke-linejoin:round;stroke-width:2px"/>
    <g style="opacity:0.2">
      <path d="M133.1,128a1,1,0,0,0,.1-2l-7.6-1a1,1,0,1,0-.3,2l7.6,1Z" style="fill:#fff"/>
      <path d="M132.7,121.9a1,1,0,0,0,.1-2l-7.6-1a1,1,0,0,0-.3,2l7.6,1Z" style="fill:#fff"/>
    </g>
    <line x1="125.4" y1="125.4" x2="133.1" y2="126.5" style="fill:none;stroke:#1d132d;stroke-linecap:round;stroke-linejoin:round;stroke-width:2px"/>
    <line x1="125.1" y1="119.4" x2="132.7" y2="120.4" style="fill:none;stroke:#1d132d;stroke-linecap:round;stroke-linejoin:round;stroke-width:2px"/>
    <path d="M120,143.1h0a20.3,20.3,0,0,1,14.4-7.2h-.2c13.7-1.1,21.1-4.3,28.4-10.6,1.4-1.2,5.2-4.1,8.3-11.7,1.9-4.6,3-13.6,3-13.6-6,16.7-40.7,15.6-54,2.8h.1c-13.4,12.8-48,13.8-54-2.8,0,0,1.2,9,3,13.6,3.1,7.6,7,10.5,8.3,11.7,7.3,6.3,14.7,9.5,28.4,10.6h-.2a20.3,20.3,0,0,1,14.4,7.2h0" style="fill:none;stroke:#1d132d;stroke-linecap:round;stroke-linejoin:round;stroke-width:2px"/>
  </g>
  <g>
    <title>04</title>
    <circle cx="147.9" cy="86.7" r="13.7" style="fill:#ff81a2"/>
    <path d="M148.6,72.6c-7.5,0-13.1,4.6-14.4,11.9a26.2,26.2,0,0,0,.2,6.4,17.4,17.4,0,0,1,1.8-3.9,19.6,19.6,0,0,1,4.9-5.4h0l1.5-1h0l1.6-.9h0l1.7-.7h0l1.7-.6a17.5,17.5,0,0,1,4.6-.6,18,18,0,0,1,7.7,1.7C157.4,75.4,153,72.6,148.6,72.6Z" style="fill:#180621;opacity:0.15"/>
    <path d="M147.5,72.2c8,.4,13.9,7.1,14.3,15a13.9,13.9,0,0,1-4.4,10.5c9.2-7.4,11-25,11-25S156.9,70.2,147.5,72.2Z" style="fill:#1d132d"/>
    <circle cx="147.9" cy="86.7" r="13.7" style="fill:none;stroke:#1d132d;stroke-linecap:round;stroke-linejoin:round;stroke-width:2px"/>
    <path d="M143,73.8c9.5-4.2,25.1-1,25.1-1s-2.9,27.7-19.5,27.7" style="fill:none;stroke:#1d132d;stroke-linecap:round;stroke-linejoin:round;stroke-width:2px"/>
    <circle cx="92.1" cy="86.7" r="13.7" style="fill:#ff81a2"/>
    <path d="M91.4,72.6c7.5,0,13.1,4.6,14.4,11.9a26.2,26.2,0,0,1-.2,6.4,17.4,17.4,0,0,0-1.8-3.9,19.6,19.6,0,0,0-4.9-5.4h0l-1.5-1h0l-1.6-.9h0L94,79h0l-1.7-.6a17.5,17.5,0,0,0-4.6-.6A18,18,0,0,0,80,79.5C82.5,75.4,86.9,72.6,91.4,72.6Z" style="fill:#180621;opacity:0.15"/>
    <path d="M92.4,72.2c-8,.4-13.9,7.1-14.3,15a13.9,13.9,0,0,0,4.4,10.5c-9.2-7.4-11-25-11-25S83.1,70.2,92.4,72.2Z" style="fill:#1d132d"/>
    <circle cx="92.1" cy="86.7" r="13.7" style="fill:none;stroke:#1d132d;stroke-linecap:round;stroke-linejoin:round;stroke-width:2px"/>
    <path d="M96.9,73.8c-9.5-4.2-25.1-1-25.1-1s2.9,27.7,19.5,27.7" style="fill:none;stroke:#1d132d;stroke-linecap:round;stroke-linejoin:round;stroke-width:2px"/>
  </g>
  <g>
    <title>03</title>
    <path d="M120,28.1h0Z" style="fill:#ff81a2"/>
    <path d="M162.1,46.1h0c1.5-12.5-5.3-24.9-5.3-24.9a47.4,47.4,0,0,0-18.1,8.5l-.4.3a91.5,91.5,0,0,0-36.7,0l-.4-.3-2-1.4a29.8,29.8,0,0,0-7.4-4.1,42.9,42.9,0,0,0-8.7-2.9s-6.8,12.4-5.3,24.9h0A50.3,50.3,0,0,0,66.8,74.5h.1a62.9,62.9,0,0,1,35-27.2c3.9,4.1,9.3,7.8,18.1,10.8h0c8.8-3,14.2-6.7,18.1-10.7h.3a62.9,62.9,0,0,1,34.8,27.2h.1A50.3,50.3,0,0,0,162.1,46.1Z" style="fill:#dce3ea"/>
    <path d="M100.1,45.9A175.2,175.2,0,0,0,83.2,21.2s-6.9,13.2-5.5,25.7l.5.4c4.4-4.7,14.7-5.3,22.1-.1" style="fill:#180621;opacity:0.15"/>
    <path d="M140,46a175.2,175.2,0,0,1,16.9-24.7s6.9,13.2,5.5,25.7l-.5.4c-4.4-4.7-14.7-5.3-22.1-.1" style="fill:#180621;opacity:0.15"/>
    <path d="M120.3,57.9h0c-25.4-8.6-19.6-25.8-18.6-27.8.1-.2,10.7-2,18-2s18.1,1.5,18.8,2.1C141.1,33,145.7,49.3,120.3,57.9Z" style="fill:#fff;opacity:0.5"/>
    <path d="M156.6,21.4C142.3,35.5,145.4,49.6,120,58.2h0C94.6,49.6,97.7,35.4,83.4,21.4" style="fill:none;stroke:#1d132d;stroke-linecap:round;stroke-linejoin:round;stroke-width:2px"/>
    <path d="M138.2,47.4a62.9,62.9,0,0,1,35,27.2h.1a50.4,50.4,0,0,0-11.1-28.4h0c1.5-12.5-5.3-24.9-5.3-24.9a47.4,47.4,0,0,0-18.1,8.5l-.4.3A91.3,91.3,0,0,0,120,28.1h.1a91.3,91.3,0,0,0-18.4,1.9l-.4-.3a47.4,47.4,0,0,0-18.1-8.5s-6.8,12.4-5.3,24.9h0A50.4,50.4,0,0,0,66.8,74.5h.1a62.9,62.9,0,0,1,34.8-27.2" style="fill:none;stroke:#1d132d;stroke-linecap:round;stroke-linejoin:round;stroke-width:2px"/>
  </g>
</svg>