<svg xmlns="http://www.w3.org/2000/svg" xmlns:xlink="http://www.w3.org/1999/xlink" viewBox="0 0 240 240">
  <ellipse cx="120.5" cy="233.4" rx="43.7" ry="4.9" style="fill:#180621;opacity:0.15"/>
  <g>
    <title>atribute03</title>
    <path d="M103.1,189.7l-0.2-.2V219a4.2,4.2,0,1,0,8.3,0V193A23.8,23.8,0,0,1,103.1,189.7Z" style="fill:#ffde00"/>
    <path d="M128.4,192.9v19.6a4.2,4.2,0,0,0,8.3,0V190.1A34.4,34.4,0,0,1,128.4,192.9Z" style="fill:#f557c7"/>
    <path d="M111.3,193a3.9,3.9,0,0,0-.2,1.1v31.5a4.2,4.2,0,1,0,8.3,0V194a3.7,3.7,0,0,0,0-.5A32.2,32.2,0,0,1,111.3,193Z" style="fill:#c6db45"/>
    <path d="M127.5,192.7a1.5,1.5,0,0,1-1.2-.3l-2.9.4-3.3.4a3.9,3.9,0,0,0,0,.4v36.8a4.2,4.2,0,0,0,8.4,0V193.6a4,4,0,0,0-.1-1Z" style="fill:#36c8e3"/>
    <path d="M137.2,180.2H102.8v7.4c0,3.2,7.7,5.8,17.2,5.8s17.2-2.6,17.2-5.8v-7.4Z" style="fill:#2e4159"/>
    <path d="M137.2,180.2H102.8v7.4c0,3.2,7.7,5.8,17.2,5.8s17.2-2.6,17.2-5.8v-7.4Z" style="fill:none;stroke:#1d132d;stroke-miterlimit:10;stroke-width:2px"/>
    <path d="M137.2,180.2H102.8v7.4c0,3.2,7.7,5.8,17.2,5.8s17.2-2.6,17.2-5.8v-7.4Z" style="fill:#2e4159"/>
    <path d="M137.2,180.2H102.8v7.4c0,3.2,7.7,5.8,17.2,5.8s17.2-2.6,17.2-5.8v-7.4Z" style="fill:none;stroke:#1d132d;stroke-miterlimit:10;stroke-width:2px"/>
    <circle cx="124.7" cy="211.6" r="0.7" style="fill:#fff;opacity:0.8"/>
    <circle cx="115.5" cy="197.4" r="0.7" style="fill:#fff;opacity:0.8"/>
    <circle cx="116.8" cy="222.1" r="0.7" style="fill:#fff;opacity:0.8"/>
    <circle cx="122.9" cy="231" r="0.7" style="fill:#fff;opacity:0.8"/>
    <circle cx="116.8" cy="200.6" r="1.4" style="fill:#fff;opacity:0.8"/>
    <circle cx="106.8" cy="203.7" r="0.7" style="fill:#fff;opacity:0.8"/>
    <circle cx="124.1" cy="206.8" r="1.7" transform="translate(-109.9 148.3) rotate(-45)" style="fill:#fff;opacity:0.5"/>
    <circle cx="132.6" cy="201" r="1.2" style="fill:#fff;opacity:0.5"/>
    <circle cx="115.4" cy="218.3" r="2" style="fill:#fff;opacity:0.5"/>
    <line x1="102.8" y1="187.8" x2="102.8" y2="209.1" style="fill:none;stroke:#1d132d;stroke-linecap:round;stroke-linejoin:round;stroke-width:2px"/>
    <line x1="102.5" y1="215.7" x2="102.5" y2="224.3" style="fill:none;stroke:#1d132d;stroke-linecap:round;stroke-linejoin:round;stroke-width:2px"/>
    <line x1="102.6" y1="230.3" x2="102.6" y2="231.7" style="fill:none;stroke:#1d132d;stroke-linecap:round;stroke-linejoin:round;stroke-width:2px"/>
    <line x1="119.9" y1="232.3" x2="119.9" y2="233.6" style="fill:none;stroke:#1d132d;stroke-linecap:round;stroke-linejoin:round;stroke-width:2px"/>
    <line x1="136.9" y1="215.6" x2="136.9" y2="216.9" style="fill:none;stroke:#1d132d;stroke-linecap:round;stroke-linejoin:round;stroke-width:2px"/>
    <line x1="111.4" y1="196.9" x2="111.4" y2="192.8" style="fill:none;stroke:#1d132d;stroke-linecap:round;stroke-linejoin:round;stroke-width:2px"/>
    <line x1="137" y1="188.7" x2="137" y2="209.9" style="fill:none;stroke:#1d132d;stroke-linecap:round;stroke-linejoin:round;stroke-width:2px"/>
    <line x1="128.3" y1="205.9" x2="128.4" y2="193.6" style="fill:none;stroke:#1d132d;stroke-linecap:round;stroke-linejoin:round;stroke-width:2px"/>
    <line x1="128.2" y1="228.9" x2="128.3" y2="213.6" style="fill:none;stroke:#1d132d;stroke-linecap:round;stroke-linejoin:round;stroke-width:2px"/>
    <line x1="111.4" y1="229.3" x2="111.4" y2="203.3" style="fill:none;stroke:#1d132d;stroke-linecap:round;stroke-linejoin:round;stroke-width:2px"/>
    <line x1="120" y1="194.1" x2="120" y2="225.6" style="fill:none;stroke:#1d132d;stroke-linecap:round;stroke-linejoin:round;stroke-width:2px"/>
  </g>
  <g>
    <title>01</title>
    <path d="M87.6,143.7l21.9-8.2a3.9,3.9,0,0,1,5,2.3h0a3.9,3.9,0,0,1-2.3,5l-23.6,8.8a3.8,3.8,0,0,1-1.9.2" style="fill:#dce3ea"/>
    <path d="M87.6,143.7l21.9-8.2a3.9,3.9,0,0,1,5,2.3h0a3.9,3.9,0,0,1-2.3,5l-23.6,8.8a3.8,3.8,0,0,1-1.9.2" style="fill:#180621;opacity:0.15"/>
    <path d="M48.4,134.4a43,43,0,0,0,37.7,47.7s-13.5-20.6-12.9-50a47.3,47.3,0,0,0-12.4-.9A35.1,35.1,0,0,0,48.4,134.4Z" style="fill:#2e4159"/>
    <path d="M58.5,167.3c-13.8-17.3-9.1-28.7-8.7-28.7a15.8,15.8,0,0,1,8.9,28.8" style="fill:#fff;opacity:0.5"/>
    <path d="M58.5,167.3l-1.4-1.8Z" style="fill:#fff;opacity:0.5"/>
    <path d="M48.7,144a14.3,14.3,0,0,1,9.4,3.6c2.2,2,5.4-.8,3.9-3h0a15.7,15.7,0,0,0-12.3-6c-.2,0-1.2,2.3-1.1,6.3C48.7,144.6,48.7,144.3,48.7,144Z" style="fill:#fff;opacity:0.5"/>
    <path d="M49,148.2v0Z" style="fill:#fff;opacity:0.5"/>
    <path d="M48.8,147v0Z" style="fill:#fff;opacity:0.5"/>
    <path d="M48.7,145.9v0Z" style="fill:#fff;opacity:0.5"/>
    <path d="M65.4,152.4v0Z" style="fill:#fff;opacity:0.5"/>
    <path d="M65.1,150.8v0Z" style="fill:#fff;opacity:0.5"/>
    <path d="M62.1,144.6a15.9,15.9,0,0,1,1.9,3A15.8,15.8,0,0,0,62.1,144.6Z" style="fill:#fff;opacity:0.5"/>
    <path d="M64.7,149.4l.2.7Z" style="fill:#fff;opacity:0.5"/>
    <path d="M64.2,148l.3.8Z" style="fill:#fff;opacity:0.5"/>
    <path d="M53.4,159.9l-.6-1.1Z" style="fill:#fff;opacity:0.5"/>
    <path d="M54.4,161.5l-.6-1Z" style="fill:#fff;opacity:0.5"/>
    <path d="M52.6,158.3l-.7-1.5Z" style="fill:#fff;opacity:0.5"/>
    <path d="M55.5,163.2l-.7-1.1Z" style="fill:#fff;opacity:0.5"/>
    <path d="M56.7,165l-.8-1.2Z" style="fill:#fff;opacity:0.5"/>
    <path d="M50.4,153.4l-.3-.9Z" style="fill:#fff;opacity:0.5"/>
    <path d="M50,152.1l-.3-.9Z" style="fill:#fff;opacity:0.5"/>
    <path d="M51.7,156.5l-.5-1.2Z" style="fill:#fff;opacity:0.5"/>
    <path d="M49.6,150.8q-.3-1.3-.5-2.4C49.2,149.1,49.4,149.9,49.6,150.8Z" style="fill:#fff;opacity:0.5"/>
    <path d="M51,154.9l-.4-.9Z" style="fill:#fff;opacity:0.5"/>
    <path d="M55.3,162.4c-8.6-10.8-6.2-18.3-6-18.3a10.6,10.6,0,0,1,10.3,10.2,9.8,9.8,0,0,1-4.3,8.1" style="fill:#dce3ea"/>
    <path d="M59.3,151.7a10.7,10.7,0,0,0-9.9-7.6c-.2,0-1.3,3.2.5,8.5a10.6,10.6,0,0,0,9.5-1Z" style="fill:#fff;opacity:0.5"/>
    <path d="M73.6,136.4l15.5,8.2a3.8,3.8,0,0,1,1.6,5.2h0a3.8,3.8,0,0,1-5.2,1.6l-11.2-5.9" style="fill:#dce3ea"/>
    <path d="M48.4,134.4a43,43,0,0,0,37.7,47.7s-13.5-20.6-12.9-50a47.3,47.3,0,0,0-12.4-.9A35.1,35.1,0,0,0,48.4,134.4Z" style="fill:none;stroke:#1d132d;stroke-linecap:round;stroke-linejoin:round;stroke-width:2px"/>
    <path d="M48.6,144.1h1.2a10.4,10.4,0,0,1,5.5,19.2" style="fill:none;stroke:#1d132d;stroke-linecap:round;stroke-linejoin:round;stroke-width:2px"/>
    <path d="M48.6,138.7h1.2a15.8,15.8,0,0,1,8.9,28.8" style="fill:none;stroke:#1d132d;stroke-linecap:round;stroke-linejoin:round;stroke-width:2px"/>
    <path d="M73.6,136.4l15.5,8.2a3.8,3.8,0,0,1,1.6,5.2h0a3.8,3.8,0,0,1-5.2,1.6l-11.2-5.9" style="fill:none;stroke:#1d132d;stroke-linecap:round;stroke-linejoin:round;stroke-width:2px"/>
    <path d="M87.6,143.7l21.9-8.2a3.9,3.9,0,0,1,5,2.3h0a3.9,3.9,0,0,1-2.3,5l-23.6,8.8a3.8,3.8,0,0,1-1.9.2" style="fill:none;stroke:#1d132d;stroke-linecap:round;stroke-linejoin:round;stroke-width:2px"/>
    <path d="M152.3,143.7l-21.9-8.2a3.9,3.9,0,0,0-5,2.3h0a3.9,3.9,0,0,0,2.3,5l23.6,8.8a3.8,3.8,0,0,0,1.9.2" style="fill:#dce3ea"/>
    <path d="M152.3,143.7l-21.9-8.2a3.9,3.9,0,0,0-5,2.3h0a3.9,3.9,0,0,0,2.3,5l23.6,8.8a3.8,3.8,0,0,0,1.9.2" style="fill:#180621;opacity:0.15"/>
    <path d="M191.6,134.4a43,43,0,0,1-37.7,47.7s13.5-20.6,12.9-50a47.3,47.3,0,0,1,12.4-.9A35.1,35.1,0,0,1,191.6,134.4Z" style="fill:#2e4159"/>
    <path d="M181.5,167.3c13.8-17.3,9.1-28.7,8.8-28.7a15.8,15.8,0,0,0-8.9,28.8" style="fill:#fff;opacity:0.5"/>
    <path d="M181.5,167.3l1.4-1.8Z" style="fill:#fff;opacity:0.5"/>
    <path d="M191.3,144a14.3,14.3,0,0,0-9.4,3.6c-2.2,2-5.4-.8-3.9-3h0a15.7,15.7,0,0,1,12.3-6c.2,0,1.2,2.3,1.1,6.3C191.3,144.6,191.3,144.3,191.3,144Z" style="fill:#fff;opacity:0.5"/>
    <path d="M191,148.2v0Z" style="fill:#fff;opacity:0.5"/>
    <path d="M191.1,147v0Z" style="fill:#fff;opacity:0.5"/>
    <path d="M191.2,145.9v0Z" style="fill:#fff;opacity:0.5"/>
    <path d="M174.6,152.4v0Z" style="fill:#fff;opacity:0.5"/>
    <path d="M174.9,150.8v0Z" style="fill:#fff;opacity:0.5"/>
    <path d="M177.9,144.6a15.9,15.9,0,0,0-1.9,3A15.8,15.8,0,0,1,177.9,144.6Z" style="fill:#fff;opacity:0.5"/>
    <path d="M175.3,149.4l-.2.7Z" style="fill:#fff;opacity:0.5"/>
    <path d="M175.8,148l-.3.8Z" style="fill:#fff;opacity:0.5"/>
    <path d="M186.6,159.9l.6-1.1Z" style="fill:#fff;opacity:0.5"/>
    <path d="M185.6,161.5l.6-1Z" style="fill:#fff;opacity:0.5"/>
    <path d="M187.4,158.3l.7-1.5Z" style="fill:#fff;opacity:0.5"/>
    <path d="M184.5,163.2l.7-1.1Z" style="fill:#fff;opacity:0.5"/>
    <path d="M183.3,165l.8-1.2Z" style="fill:#fff;opacity:0.5"/>
    <path d="M189.6,153.4l.3-.9Z" style="fill:#fff;opacity:0.5"/>
    <path d="M190,152.1l.3-.9Z" style="fill:#fff;opacity:0.5"/>
    <path d="M188.3,156.5l.5-1.2Z" style="fill:#fff;opacity:0.5"/>
    <path d="M190.4,150.8q.3-1.3.5-2.4C190.8,149.1,190.6,149.9,190.4,150.8Z" style="fill:#fff;opacity:0.5"/>
    <path d="M189,154.9l.4-.9Z" style="fill:#fff;opacity:0.5"/>
    <path d="M184.7,162.4c8.6-10.8,6.2-18.3,6-18.3a10.6,10.6,0,0,0-10.3,10.2,9.8,9.8,0,0,0,4.3,8.1" style="fill:#dce3ea"/>
    <path d="M180.3,151.7a10.7,10.7,0,0,1,9.9-7.6c.2,0,1.3,3.2-.5,8.5a10.6,10.6,0,0,1-9.5-1Z" style="fill:#fff;opacity:0.5"/>
    <path d="M166.4,136.4l-15.5,8.2a3.8,3.8,0,0,0-1.6,5.2h0a3.8,3.8,0,0,0,5.2,1.6l11.2-5.9" style="fill:#dce3ea"/>
    <path d="M191.6,134.4a43,43,0,0,1-37.7,47.7s13.5-20.6,12.9-50a47.3,47.3,0,0,1,12.4-.9A35.1,35.1,0,0,1,191.6,134.4Z" style="fill:none;stroke:#1d132d;stroke-linecap:round;stroke-linejoin:round;stroke-width:2px"/>
    <path d="M191.4,144.1h-1.2a10.4,10.4,0,0,0-5.5,19.2" style="fill:none;stroke:#1d132d;stroke-linecap:round;stroke-linejoin:round;stroke-width:2px"/>
    <path d="M191.4,138.7h-1.2a15.8,15.8,0,0,0-8.9,28.8" style="fill:none;stroke:#1d132d;stroke-linecap:round;stroke-linejoin:round;stroke-width:2px"/>
    <path d="M166.4,136.4l-15.5,8.2a3.8,3.8,0,0,0-1.6,5.2h0a3.8,3.8,0,0,0,5.2,1.6l11.2-5.9" style="fill:none;stroke:#1d132d;stroke-linecap:round;stroke-linejoin:round;stroke-width:2px"/>
    <path d="M152.3,143.7l-21.9-8.2a3.9,3.9,0,0,0-5,2.3h0a3.9,3.9,0,0,0,2.3,5l23.6,8.8a3.8,3.8,0,0,0,1.9.2" style="fill:none;stroke:#1d132d;stroke-linecap:round;stroke-linejoin:round;stroke-width:2px"/>
    <circle cx="87" cy="148" r="1.2" style="fill:#1d132d"/>
    <circle cx="152.8" cy="148" r="1.2" style="fill:#1d132d"/>
  </g>
  <g>
    <title>06</title>
    <path d="M49.3,45.6c0,.3,0,.6,0,.9,0,10.6,9.2,19.3,20.9,20C69.4,63.9,65.1,52.5,49.3,45.6Z" style="fill:#fff;opacity:0.5"/>
    <path d="M169.9,67s3.2-14,21.7-21.6h0c1.7,5.6.2,15.1.2,15.1,1.5,5.3.1,14.2.1,14.2a25.3,25.3,0,0,1-17.1,30.7Z" style="fill:#dce3ea"/>
    <path d="M192.5,67h0a59.2,59.2,0,0,1-.6,7.7,25.3,25.3,0,0,1-17.1,30.7L172.9,91C184.1,88.7,191.9,78.6,192.5,67Z" style="fill:#180621;opacity:0.15"/>
    <path d="M190.9,45.6c0,.3,0,.6,0,.9,0,10.6-9.2,19.3-20.9,20C170.8,63.9,175.2,52.5,190.9,45.6Z" style="fill:#fff;opacity:0.5"/>
    <path d="M70.3,67S67.1,53,48.6,45.4h0c-1.7,5.6-.2,15.1-.2,15.1-1.5,5.3-.1,14.2-.1,14.2a25.3,25.3,0,0,0,17.1,30.7Z" style="fill:#dce3ea"/>
    <path d="M47.8,67h0a59.2,59.2,0,0,0,.6,7.7,25.3,25.3,0,0,0,17.1,30.7L67.3,91C56.1,88.7,48.3,78.6,47.8,67Z" style="fill:#180621;opacity:0.15"/>
    <path d="M48.3,74.6a25.3,25.3,0,0,0,17.1,30.7" style="fill:none;stroke:#1d132d;stroke-linecap:round;stroke-linejoin:round;stroke-width:2px"/>
    <path d="M48.4,60.4a25.3,25.3,0,0,0,17,31" style="fill:none;stroke:#1d132d;stroke-linecap:round;stroke-linejoin:round;stroke-width:2px"/>
    <path d="M70.3,67S67.1,53,48.6,45.4h0A25.3,25.3,0,0,0,65.4,77" style="fill:none;stroke:#1d132d;stroke-linecap:round;stroke-linejoin:round;stroke-width:2px"/>
    <path d="M191.9,74.6a25.3,25.3,0,0,1-17.1,30.7" style="fill:none;stroke:#1d132d;stroke-linecap:round;stroke-linejoin:round;stroke-width:2px"/>
    <path d="M191.8,60.4a25.3,25.3,0,0,1-17,31" style="fill:none;stroke:#1d132d;stroke-linecap:round;stroke-linejoin:round;stroke-width:2px"/>
    <path d="M169.9,67s3.2-14,21.7-21.6h0A25.3,25.3,0,0,1,174.8,77" style="fill:none;stroke:#1d132d;stroke-linecap:round;stroke-linejoin:round;stroke-width:2px"/>
  </g>
  <g>
    <title>atribute14</title>
    <path d="M131.3,34.3a76.8,76.8,0,0,0-11.1-.9,84.7,84.7,0,0,0-11.6.9C82.9,38.8,65.3,60.4,65.3,88c0,15.4,3.2,29.6,12.1,37.2s18.2,10.8,39.5,11.1h-7.7c-7,6.6-11.8,18.9-11.8,29.9,0,16,10.1,19.5,22.6,19.5s22.6-3.4,22.6-19.5c0-11.1-4.9-23.5-12-30.1h-5.2c19.6-.5,28.4-3.6,37.2-11.1s12.1-21.8,12.1-37.2C174.7,60.4,157.1,38.8,131.3,34.3Z" style="fill:#5858f4"/>
    <path d="M111.2,185a36.3,36.3,0,0,0,5.7.7" style="fill:none;stroke:#1d132d;stroke-linecap:round;stroke-linejoin:round;stroke-width:2px"/>
    <path d="M108.9,136.7a30.2,30.2,0,0,0-3.8,4.5" style="fill:none;stroke:#1d132d;stroke-miterlimit:10;stroke-width:2px"/>
    <path d="M129,185a36.3,36.3,0,0,1-5.7.7" style="fill:none;stroke:#1d132d;stroke-linecap:round;stroke-linejoin:round;stroke-width:2px"/>
    <path d="M131.3,136.7a30.2,30.2,0,0,1,3.8,4.5" style="fill:none;stroke:#1d132d;stroke-miterlimit:10;stroke-width:2px"/>
    <path d="M135.8,144L119.6,153l-15.8-8.7a38.6,38.6,0,0,0-5.8,25,23.3,23.3,0,0,0,2.4,8.4c0.7,1.3,4.7,7.1,6.5,5.4s0.3-4.9.4-6,0.5-4.3.8-6.5l3.6,2.1,0.9-11.8A43.6,43.6,0,0,0,119,164v-0.3c2.2-.9,6-1.8,8.1-3.1l0.9,11.8,3.6-2.1q0.5,3.2.8,6.5c0.1,1.1-.2,5.3.4,6s6.4-3.7,7.1-5a22.2,22.2,0,0,0,2.1-8.2A40.1,40.1,0,0,0,135.8,144Z" style="fill:#dce3ea"/>
    <path d="M130.5,136.1c-3.1.3-6.1,0.6-9.4,0.6a111.1,111.1,0,0,1-12.3-.4l-6.8,9.6a41,41,0,0,0,17.6,3.6,40.7,40.7,0,0,0,17.8-3.7C137.2,145.4,130.9,136.5,130.5,136.1Z" style="fill:#180621;opacity:0.15"/>
    <polyline points="136.6 144.7 119.4 152.7 103.3 145.2" style="fill:none;stroke:#1d132d;stroke-miterlimit:10;stroke-width:2px"/>
    <polyline points="139.9 154 119.3 163.7 100 154.7" style="fill:none;stroke:#1d132d;stroke-miterlimit:10;stroke-width:2px"/>
    <polyline points="112.1 160.6 111.9 172.1 97.4 165.4" style="fill:none;stroke:#1d132d;stroke-miterlimit:10;stroke-width:2px"/>
    <line x1="107.2" y1="170.2" x2="107.2" y2="184.5" style="fill:none;stroke:#1d132d;stroke-miterlimit:10;stroke-width:2px"/>
    <polyline points="127.6 160.4 127.8 171.9 142.3 165.1" style="fill:none;stroke:#1d132d;stroke-miterlimit:10;stroke-width:2px"/>
    <line x1="132.4" y1="170" x2="132.4" y2="184.2" style="fill:none;stroke:#1d132d;stroke-miterlimit:10;stroke-width:2px"/>
    <g style="opacity:0.30000000000000004">
      <path d="M108.7,44.1a84.7,84.7,0,0,1,11.6-.9,76.8,76.8,0,0,1,11.1.9c24.4,4.3,41.5,23.9,43.2,49.5q0.1-2.7.1-5.5c0-27.7-17.6-49.2-43.4-53.7a76.8,76.8,0,0,0-11.1-.9,84.7,84.7,0,0,0-11.6.9C82.9,39,65.3,60.5,65.3,88.1q0,2.8.1,5.5C67.1,68,84.3,48.4,108.7,44.1Z" style="fill:#fff"/>
    </g>
    <path d="M125.4,136.4c19.6-.5,28.4-3.6,37.2-11.1s12.1-21.8,12.1-37.2c0-27.7-17.6-49.2-43.4-53.7a76.8,76.8,0,0,0-11.1-.9,84.7,84.7,0,0,0-11.6.9C82.9,39,65.3,60.5,65.3,88.1c0,15.4,3.2,29.6,12.1,37.2s18.2,10.8,39.5,11.1h8.5Z" style="fill:none;stroke:#1d132d;stroke-miterlimit:10;stroke-width:2px"/>
    <path d="M109.2,136.5c-7,6.6-11.8,18.9-11.8,29.9,0,16,10.1,19.5,22.6,19.5s22.6-3.4,22.6-19.5c0-11.1-4.9-23.5-12-30.1" style="fill:none;stroke:#1d132d;stroke-miterlimit:10;stroke-width:2px"/>
    <g style="opacity:0.30000000000000004">
      <path d="M108.7,44.1a84.7,84.7,0,0,1,11.6-.9,76.8,76.8,0,0,1,11.1.9c24.4,4.3,41.5,23.9,43.2,49.5q0.1-2.7.1-5.5c0-27.7-17.6-49.2-43.4-53.7a76.8,76.8,0,0,0-11.1-.9,84.7,84.7,0,0,0-11.6.9C82.9,39,65.3,60.5,65.3,88.1q0,2.8.1,5.5C67.1,68,84.3,48.4,108.7,44.1Z" style="fill:#fff"/>
    </g>
    <path d="M125.4,136.4c19.6-.5,28.4-3.6,37.2-11.1s12.1-21.8,12.1-37.2c0-27.7-17.6-49.2-43.4-53.7a76.8,76.8,0,0,0-11.1-.9,84.7,84.7,0,0,0-11.6.9C82.9,39,65.3,60.5,65.3,88.1c0,15.4,3.2,29.6,12.1,37.2s18.2,10.8,39.5,11.1h8.5Z" style="fill:none;stroke:#1d132d;stroke-miterlimit:10;stroke-width:2px"/>
  </g>
  <g>
    <title>atribute08</title>
    <path d="M95.1,133.3a51.5,51.5,0,0,0,9.2,1.5c4.2-7.1,3.2-17-3.1-24.3a23.7,23.7,0,0,0-18.4-7.9s-3.6,18.9-.7,24.2c1.9,3.6,6.8,5.7,11.4,7A1.4,1.4,0,0,1,95.1,133.3Z" style="fill:#dce3ea"/>
    <path d="M85.6,122.3a20.6,20.6,0,0,1-4.5-4.2c-0.1,3.6.1,6.9,1.1,8.7,1.9,3.6,6.8,5.7,11.4,7a1.4,1.4,0,0,1,1.5-.5,51.5,51.5,0,0,0,9.2,1.5,18.2,18.2,0,0,0,2-5.1A45.3,45.3,0,0,1,85.6,122.3Z" style="fill:#180621;opacity:0.15"/>
    <path d="M82.8,102.6a23.7,23.7,0,0,1,18.4,7.9c6.5,7.5,7.3,17.7,2.7,24.9l-0.2.3a48,48,0,0,1-8.9-1.4" style="fill:none;stroke:#1d132d;stroke-linecap:round;stroke-linejoin:round;stroke-width:2px"/>
    <ellipse cx="85.7" cy="118.9" rx="14.2" ry="17.7" transform="translate(-56.8 84.6) rotate(-40.7)" style="fill:#2e4159"/>
    <path d="M77.2,103.6A11.9,11.9,0,0,0,84.5,115c5.8,2.7,10.3.4,13.3-3.6l-1.4-1.8C91.1,103.3,83.1,101.1,77.2,103.6Z" style="fill:#fff;opacity:0.2"/>
    <ellipse cx="85.7" cy="118.9" rx="14.2" ry="17.7" transform="translate(-56.8 84.6) rotate(-40.7)" style="fill:none;stroke:#1d132d;stroke-miterlimit:10;stroke-width:2px"/>
    <ellipse cx="84" cy="121.4" rx="11" ry="14.3" transform="translate(-58.8 84.1) rotate(-40.7)" style="fill:#2e4159"/>
    <ellipse cx="84" cy="121.4" rx="11" ry="14.3" transform="translate(-58.8 84.1) rotate(-40.7)" style="fill:#180621;opacity:0.15"/>
    <ellipse cx="84" cy="121.4" rx="11" ry="14.3" transform="translate(-58.8 84.1) rotate(-40.7)" style="fill:none;stroke:#1d132d;stroke-miterlimit:10;stroke-width:2px"/>
    <ellipse cx="78.1" cy="114.4" rx="1.4" ry="1.7" transform="translate(-53.2 70.4) rotate(-37.2)" style="fill:#fff;opacity:0.2"/>
    <ellipse cx="83.8" cy="127.9" rx="1.4" ry="1.7" transform="translate(-60.2 76.6) rotate(-37.2)" style="fill:#fff;opacity:0.2"/>
    <ellipse cx="77.9" cy="114.6" rx="0.3" ry="0.5" transform="translate(-53.4 70.3) rotate(-37.2)" style="fill:none;stroke:#1d132d;stroke-miterlimit:10;stroke-width:2px"/>
    <ellipse cx="91.1" cy="128.1" rx="1.4" ry="1.7" transform="translate(-58.9 81) rotate(-37.2)" style="fill:#fff;opacity:0.2"/>
    <ellipse cx="90.9" cy="128.3" rx="0.3" ry="0.5" transform="translate(-59.1 81) rotate(-37.2)" style="fill:none;stroke:#1d132d;stroke-miterlimit:10;stroke-width:2px"/>
    <ellipse cx="77.6" cy="121.7" rx="1.4" ry="1.7" transform="translate(-57.7 71.6) rotate(-37.2)" style="fill:#fff;opacity:0.2"/>
    <ellipse cx="91.1" cy="120.4" rx="1.4" ry="1.7" transform="translate(-54.2 79.5) rotate(-37.2)" style="fill:#fff;opacity:0.2"/>
    <ellipse cx="91" cy="120.7" rx="0.3" ry="0.5" transform="translate(-54.4 79.5) rotate(-37.2)" style="fill:none;stroke:#1d132d;stroke-miterlimit:10;stroke-width:2px"/>
    <ellipse cx="83.6" cy="128.2" rx="0.3" ry="0.5" transform="translate(-60.5 76.5) rotate(-37.2)" style="fill:none;stroke:#1d132d;stroke-miterlimit:10;stroke-width:2px"/>
    <ellipse cx="77.5" cy="121.9" rx="0.3" ry="0.5" transform="translate(-57.9 71.5) rotate(-37.2)" style="fill:none;stroke:#1d132d;stroke-miterlimit:10;stroke-width:2px"/>
    <ellipse cx="85.4" cy="114.4" rx="1.4" ry="1.7" transform="translate(-51.7 74.8) rotate(-37.2)" style="fill:#fff;opacity:0.2"/>
    <ellipse cx="85.3" cy="114.7" rx="0.3" ry="0.5" transform="translate(-51.9 74.8) rotate(-37.2)" style="fill:none;stroke:#1d132d;stroke-miterlimit:10;stroke-width:2px"/>
    <path d="M144.9,133.3a51.5,51.5,0,0,1-9.2,1.5c-4.2-7.1-3.2-17,3.1-24.3a23.7,23.7,0,0,1,18.4-7.9s3.6,18.9.7,24.2c-1.9,3.6-6.8,5.7-11.4,7A1.4,1.4,0,0,0,144.9,133.3Z" style="fill:#dce3ea"/>
    <path d="M154.4,122.3a20.6,20.6,0,0,0,4.5-4.2c0.1,3.6-.1,6.9-1.1,8.7-1.9,3.6-6.8,5.7-11.4,7a1.4,1.4,0,0,0-1.5-.5,51.5,51.5,0,0,1-9.2,1.5,18.2,18.2,0,0,1-2-5.1A45.3,45.3,0,0,0,154.4,122.3Z" style="fill:#180621;opacity:0.15"/>
    <path d="M157.2,102.6a23.7,23.7,0,0,0-18.4,7.9c-6.4,7.5-7.3,17.7-2.8,24.8l0.3,0.4a78.4,78.4,0,0,0,9.2-1.5" style="fill:none;stroke:#1d132d;stroke-linecap:round;stroke-linejoin:round;stroke-width:2px"/>
    <ellipse cx="154.3" cy="118.9" rx="17.7" ry="14.2" transform="translate(-36.4 158.4) rotate(-49.3)" style="fill:#2e4159"/>
    <path d="M162.8,103.6a11.9,11.9,0,0,1-7.4,11.4c-5.8,2.7-10.3.4-13.3-3.6l1.4-1.8C148.9,103.3,156.9,101.1,162.8,103.6Z" style="fill:#fff;opacity:0.2"/>
    <ellipse cx="154.3" cy="118.9" rx="17.7" ry="14.2" transform="translate(-36.4 158.4) rotate(-49.3)" style="fill:none;stroke:#1d132d;stroke-miterlimit:10;stroke-width:2px"/>
    <ellipse cx="156" cy="121.4" rx="14.3" ry="11" transform="translate(-37.8 160.6) rotate(-49.3)" style="fill:#2e4159"/>
    <ellipse cx="156" cy="121.4" rx="14.3" ry="11" transform="translate(-37.8 160.6) rotate(-49.3)" style="fill:#180621;opacity:0.15"/>
    <ellipse cx="156" cy="121.4" rx="14.3" ry="11" transform="translate(-37.8 160.6) rotate(-49.3)" style="fill:none;stroke:#1d132d;stroke-miterlimit:10;stroke-width:2px"/>
    <ellipse cx="161.9" cy="114.4" rx="1.7" ry="1.4" transform="translate(-27 174.3) rotate(-52.8)" style="fill:#fff;opacity:0.2"/>
    <ellipse cx="156.2" cy="127.9" rx="1.7" ry="1.4" transform="translate(-40.1 175.1) rotate(-52.8)" style="fill:#fff;opacity:0.2"/>
    <ellipse cx="162.1" cy="114.6" rx="0.5" ry="0.3" transform="translate(-27.1 174.6) rotate(-52.8)" style="fill:none;stroke:#1d132d;stroke-miterlimit:10;stroke-width:2px"/>
    <ellipse cx="148.9" cy="128.1" rx="1.7" ry="1.4" transform="translate(-43.1 169.4) rotate(-52.8)" style="fill:#fff;opacity:0.2"/>
    <ellipse cx="149.1" cy="128.3" rx="0.5" ry="0.3" transform="translate(-43.3 169.6) rotate(-52.8)" style="fill:none;stroke:#1d132d;stroke-miterlimit:10;stroke-width:2px"/>
    <ellipse cx="162.4" cy="121.7" rx="1.7" ry="1.4" transform="translate(-32.7 177.6) rotate(-52.8)" style="fill:#fff;opacity:0.2"/>
    <ellipse cx="148.9" cy="120.4" rx="1.7" ry="1.4" transform="translate(-37 166.3) rotate(-52.8)" style="fill:#fff;opacity:0.2"/>
    <ellipse cx="149" cy="120.7" rx="0.5" ry="0.3" transform="translate(-37.2 166.5) rotate(-52.8)" style="fill:none;stroke:#1d132d;stroke-miterlimit:10;stroke-width:2px"/>
    <ellipse cx="156.4" cy="128.2" rx="0.5" ry="0.3" transform="translate(-40.2 175.4) rotate(-52.8)" style="fill:none;stroke:#1d132d;stroke-miterlimit:10;stroke-width:2px"/>
    <ellipse cx="162.5" cy="121.9" rx="0.5" ry="0.3" transform="translate(-32.8 177.8) rotate(-52.8)" style="fill:none;stroke:#1d132d;stroke-miterlimit:10;stroke-width:2px"/>
    <ellipse cx="154.6" cy="114.4" rx="1.7" ry="1.4" transform="translate(-29.9 168.5) rotate(-52.8)" style="fill:#fff;opacity:0.2"/>
    <ellipse cx="154.7" cy="114.7" rx="0.5" ry="0.3" transform="translate(-30.1 168.7) rotate(-52.8)" style="fill:none;stroke:#1d132d;stroke-miterlimit:10;stroke-width:2px"/>
  </g>
  <g>
    <title>01</title>
    <path d="M120.4,68.1c6.1,0,10.2-1.3,17.9-3.4,6-1.6,12.1-1.1,14.6-.2A16.5,16.5,0,0,1,164,80.2V91.8l-14.5,8.8A82.6,82.6,0,0,0,120.4,95h0a82.6,82.6,0,0,0-29.1,5.6L76.7,91.8V80.2A16.5,16.5,0,0,1,87.8,64.6c2.6-.9,8.7-1.4,14.6.2,7.7,2.1,11.8,3.4,17.9,3.4" style="fill:#dce3ea"/>
    <path d="M120.4,68.1c6.1,0,10.2-1.3,17.9-3.4,6-1.6,12.1-1.1,14.6-.2A16.5,16.5,0,0,1,164,80.2V91.8l-14.5,8.8A82.6,82.6,0,0,0,120.4,95h0a82.6,82.6,0,0,0-29.1,5.6L76.7,91.8V80.2A16.5,16.5,0,0,1,87.8,64.6c2.6-.9,8.7-1.4,14.6.2,7.7,2.1,11.8,3.4,17.9,3.4" style="fill:#dce3ea"/>
    <path d="M120.4,68.1c6.1,0,10.2-1.3,17.9-3.4,6-1.6,12.1-1.1,14.6-.2A16.5,16.5,0,0,1,164,80.2V91.8l-14.5,8.8A82.6,82.6,0,0,0,120.4,95h0a82.6,82.6,0,0,0-29.1,5.6L76.7,91.8V80.2A16.5,16.5,0,0,1,87.8,64.6c2.6-.9,8.7-1.4,14.6.2,7.7,2.1,11.8,3.4,17.9,3.4" style="fill:#2e4159"/>
    <path d="M120.4,91.1h0a82.6,82.6,0,0,0-29.1,5.6L76.7,87.9v3.8l14.5,8.8A82.6,82.6,0,0,1,120.3,95h0a82.6,82.6,0,0,1,29.1,5.6L164,91.8V87.9l-14.5,8.8A82.6,82.6,0,0,0,120.4,91.1Z" style="fill:#180621;opacity:0.15"/>
    <path d="M76.9,91A16.5,16.5,0,0,1,88,75.4c2.6-.9,8.7-1.4,14.6.2,7.7,2.1,11.8,3.4,17.9,3.4h0c6.1,0,10.2-1.3,17.9-3.4,6-1.6,12.1-1.1,14.6-.2A16.5,16.5,0,0,1,164,88.7V80.2a16.5,16.5,0,0,0-11.1-15.6c-2.6-.9-8.7-1.4-14.6.2-7.7,2.1-11.8,3.4-17.9,3.4h0c-6.1,0-10.2-1.3-17.9-3.4-6-1.6-12.1-1.1-14.6-.2A16.5,16.5,0,0,0,76.7,80.2V91.8h0.2V91Z" style="fill:#fff;opacity:0.2"/>
    <circle cx="94.8" cy="81.4" r="10.7" style="fill:none;stroke:#1d132d;stroke-linecap:round;stroke-linejoin:round;stroke-width:2px"/>
    <circle cx="145.9" cy="81.4" r="10.7" style="fill:none;stroke:#1d132d;stroke-linecap:round;stroke-linejoin:round;stroke-width:2px"/>
    <circle cx="94.8" cy="81.4" r="10.7" style="fill:#e83a27;stroke:#1d132d;stroke-linecap:round;stroke-linejoin:round;stroke-width:2px"/>
    <circle cx="145.9" cy="81.4" r="10.7" style="fill:#e83a27;stroke:#1d132d;stroke-linecap:round;stroke-linejoin:round;stroke-width:2px"/>
    <path d="M95,76.1a10.7,10.7,0,0,1,10.4,8,10.7,10.7,0,1,0-20.7,0A10.7,10.7,0,0,1,95,76.1Z" style="fill:#fff;opacity:0.5"/>
    <path d="M145.9,76.1a10.7,10.7,0,0,1,10.4,8,10.7,10.7,0,1,0-20.7,0A10.7,10.7,0,0,1,145.9,76.1Z" style="fill:#fff;opacity:0.5"/>
    <circle cx="145.9" cy="81.4" r="10.7" style="fill:none;stroke:#1d132d;stroke-linecap:round;stroke-linejoin:round;stroke-width:2px"/>
    <polyline points="129.9 67.4 129.2 72.9 120.5 77.5 120.2 77.5 111.4 72.9 110.8 67.4" style="fill:#dce3ea"/>
    <path d="M111.1,70.1l0.3,2.8,8.7,4.6h0.3l8.7-4.6,0.3-2.9A21.9,21.9,0,0,1,111.1,70.1Z" style="fill:#180621;opacity:0.15"/>
    <path d="M120.4,68.1c6.1,0,10.2-1.3,17.9-3.4,6-1.6,12.1-1.1,14.6-.2A16.5,16.5,0,0,1,164,80.2V91.8l-14.5,8.8A82.6,82.6,0,0,0,120.4,95h0a82.6,82.6,0,0,0-29.1,5.6L76.7,91.8V80.2A16.5,16.5,0,0,1,87.8,64.6c2.6-.9,8.7-1.4,14.6.2,7.7,2.1,11.8,3.4,17.9,3.4" style="fill:none;stroke:#1d132d;stroke-linecap:round;stroke-linejoin:round;stroke-width:2px"/>
    <polyline points="129.9 67.4 129.2 72.9 120.5 77.5 120.2 77.5 111.4 72.9 110.8 67.4" style="fill:none;stroke:#1d132d;stroke-linecap:round;stroke-linejoin:round;stroke-width:2px"/>
    <circle cx="94.8" cy="81.4" r="10.7" style="fill:none;stroke:#1d132d;stroke-linecap:round;stroke-linejoin:round;stroke-width:2px"/>
  </g>
  <g>
    <title>06</title>
    <polygon points="111.8 33.6 120 11.8 128.2 33.6 119.9 40 111.8 33.6" style="fill:none;stroke:#1d132d;stroke-linecap:round;stroke-linejoin:round;stroke-width:2px"/>
    <polygon points="111.8 33.6 120 11.8 128.2 33.6 119.9 40 111.8 33.6" style="fill:#dce3ea;stroke:#1d132d;stroke-linecap:round;stroke-linejoin:round;stroke-width:2px"/>
    <polygon points="119.9 32.7 113.9 28 111.8 33.6 119.9 40 128.2 33.6 126.1 27.9 119.9 32.7" style="fill:#180621;opacity:0.15"/>
  </g>
</svg>