<svg xmlns="http://www.w3.org/2000/svg" xmlns:xlink="http://www.w3.org/1999/xlink" viewBox="0 0 240 240">
  <ellipse cx="120.5" cy="233.4" rx="43.7" ry="4.9" style="fill:#180621;opacity:0.15"/>
  <g>
    <title>01</title>
    <rect x="114.3" y="185.8" width="11.4" height="11.83" style="fill:#dce3ea"/>
    <rect x="114.3" y="185.8" width="11.4" height="11.83" style="fill:#180621;opacity:0.15"/>
    <path d="M122.5,198.4l-5.2-.6-16.5,10.8c1.3,14.5,19.7,13.5,19.7,13.5,12.5,0,19.5-12,19.5-12Z" style="fill:#dce3ea"/>
    <path d="M132.8,206.1H105.8l-5.1,3.2c1.3,13.9,19.7,12.9,19.7,12.9,12.5,0,19.5-11.5,19.5-11.5Z" style="fill:#180621;opacity:0.15"/>
    <rect x="79" y="202.1" width="17.5" height="6.9" rx="3.2" ry="3.2" transform="translate(-63.1 40.6) rotate(-19.3)" style="fill:#dce3ea"/>
    <rect x="79" y="202.1" width="17.5" height="6.9" rx="3.2" ry="3.2" transform="translate(-63.1 40.6) rotate(-19.3)" style="fill:#180621;opacity:0.15"/>
    <rect x="68.9" y="202.6" width="16.2" height="6.37" rx="3.2" ry="3.2" transform="translate(104.5 -12.2) rotate(27.7)" style="fill:#dce3ea"/>
    <rect x="143.8" y="201.7" width="17.5" height="6.9" rx="3.2" ry="3.2" transform="translate(216.1 452.7) rotate(-157.8)" style="fill:#dce3ea"/>
    <rect x="143.8" y="201.7" width="17.5" height="6.9" rx="3.2" ry="3.2" transform="translate(216.1 452.7) rotate(-157.8)" style="fill:#180621;opacity:0.15"/>
    <rect x="155.2" y="202.8" width="16.2" height="6.37" rx="3.2" ry="3.2" transform="translate(397.8 324.5) rotate(155.2)" style="fill:#dce3ea"/>
    <path d="M27.9,224a69,69,0,0,0,48.9-22.5h.1s-1.4-3.1-7.4-7.4-9.9-5.2-9.9-5.2-3.6,3-13.5,13.3C32.9,215.9,27.9,224,27.9,224Z" style="fill:#2e4159"/>
    <path d="M87.8,233.9c17.1-7.6,22.3-22.6,28.8-38.7.3-.6-14-5.2-22.9-1-.3.1-2.7,6.3-4.6,11.2C82,223,87.8,233.9,87.8,233.9Z" style="fill:#2e4159"/>
    <path d="M212.1,224a69,69,0,0,1-48.9-22.5h-.1s1.4-3.1,7.4-7.4,9.9-5.2,9.9-5.2,3.6,3,13.5,13.3C207.1,215.9,212.1,224,212.1,224Z" style="fill:#2e4159"/>
    <path d="M152.2,233.9c-17.1-7.6-22.3-22.6-28.8-38.7-.3-.6,14-5.2,22.9-1,.3.1,2.7,6.3,4.6,11.2C158,223,152.2,233.9,152.2,233.9Z" style="fill:#2e4159"/>
    <ellipse cx="100.3" cy="206.2" rx="8.3" ry="7.2" transform="translate(-128.7 195.7) rotate(-61.4)" style="fill:#dce3ea"/>
    <path d="M185.3,194.2a8.9,8.9,0,1,0,12.6,12.7" style="fill:#dce3ea"/>
    <ellipse cx="140.1" cy="206.2" rx="7.2" ry="8.3" transform="translate(-81.5 92.1) rotate(-28.6)" style="fill:#dce3ea"/>
    <path d="M54.9,193a8.9,8.9,0,1,1-12.6,12.7" style="fill:#dce3ea"/>
    <path d="M57.3,201.4a8.9,8.9,0,0,0-2.4-8.4l-6.3,6.4a8.8,8.8,0,0,0,8.7,2Z" style="fill:#fff;opacity:0.5"/>
    <path d="M98,205.3c3.1,1.7,7,.5,9.4-2.5a6.7,6.7,0,0,0-3.2-4c-3.1-1.7-7-.5-9.4,2.5A6.7,6.7,0,0,0,98,205.3Z" style="fill:#fff;opacity:0.5"/>
    <path d="M183,202.4a8.9,8.9,0,0,1,2.4-8.4l6.3,6.4a8.8,8.8,0,0,1-8.7,2Z" style="fill:#fff;opacity:0.5"/>
    <path d="M141.8,205.3c-3.1,1.7-7,.5-9.4-2.5a6.7,6.7,0,0,1,3.2-4c3.1-1.7,7-.5,9.4,2.5A6.7,6.7,0,0,1,141.8,205.3Z" style="fill:#fff;opacity:0.5"/>
    <path d="M76.8,201.4l6.1,3.2a3.8,3.8,0,0,1,1.6,5.2h0a3.8,3.8,0,0,1-5.2,1.6l-8-4.2" style="fill:none;stroke:#1d132d;stroke-linecap:round;stroke-linejoin:round;stroke-width:2px"/>
    <path d="M86.8,210l-4.3,1.6a3.8,3.8,0,0,1-1.9.2" style="fill:none;stroke:#1d132d;stroke-linecap:round;stroke-linejoin:round;stroke-width:2px"/>
    <line x1="81.5" y1="203.7" x2="90.4" y2="200.4" style="fill:none;stroke:#1d132d;stroke-linecap:round;stroke-linejoin:round;stroke-width:2px"/>
    <path d="M27.9,224a69,69,0,0,0,48.9-22.5h.1s-1.4-3.1-7.4-7.4-9.9-5.2-9.9-5.2-3.6,3-13.5,13.3C32.9,215.9,27.9,224,27.9,224Z" style="fill:none;stroke:#1d132d;stroke-linecap:round;stroke-linejoin:round;stroke-width:2px"/>
    <path d="M87.6,233.9c17.1-7.6,22.3-22.6,28.8-38.7.3-.6-14-5.2-22.9-1-.3.1-2.7,6.3-4.6,11.2C81.8,223,87.6,233.9,87.6,233.9Z" style="fill:none;stroke:#1d132d;stroke-linecap:round;stroke-linejoin:round;stroke-width:2px"/>
    <path d="M54.4,193.9A8.9,8.9,0,1,1,42,206.8" style="fill:none;stroke:#1d132d;stroke-linecap:round;stroke-linejoin:round;stroke-width:2px"/>
    <ellipse cx="99.9" cy="206.2" rx="8.3" ry="7.2" transform="translate(-128.9 195.3) rotate(-61.4)" style="fill:none;stroke:#1d132d;stroke-linecap:round;stroke-linejoin:round;stroke-width:2px"/>
    <path d="M163,201.5l-5.9,3.1a3.8,3.8,0,0,0-1.6,5.2h0a3.8,3.8,0,0,0,5.2,1.6l7.9-4.2" style="fill:none;stroke:#1d132d;stroke-linecap:round;stroke-linejoin:round;stroke-width:2px"/>
    <path d="M153.1,209.9l4.3,1.6a3.8,3.8,0,0,0,1.9.2" style="fill:none;stroke:#1d132d;stroke-linecap:round;stroke-linejoin:round;stroke-width:2px"/>
    <line x1="158.5" y1="203.7" x2="149.1" y2="200.2" style="fill:none;stroke:#1d132d;stroke-linecap:round;stroke-linejoin:round;stroke-width:2px"/>
    <path d="M212.1,224a69,69,0,0,1-48.9-22.5h-.1s1.4-3.1,7.4-7.4,9.9-5.2,9.9-5.2,3.6,3,13.5,13.3C207.1,215.9,212.1,224,212.1,224Z" style="fill:none;stroke:#1d132d;stroke-linecap:round;stroke-linejoin:round;stroke-width:2px"/>
    <path d="M152.4,233.9c-17.1-7.6-22.3-22.6-28.8-38.7-.3-.6,14-5.2,22.9-1,.3.1,2.7,6.3,4.6,11.2C158.2,223,152.4,233.9,152.4,233.9Z" style="fill:none;stroke:#1d132d;stroke-linecap:round;stroke-linejoin:round;stroke-width:2px"/>
    <path d="M185.3,194.2a8.9,8.9,0,1,0,12.6,12.7" style="fill:none;stroke:#1d132d;stroke-linecap:round;stroke-linejoin:round;stroke-width:2px"/>
    <ellipse cx="140" cy="206.2" rx="7.2" ry="8.3" transform="translate(-81.5 92.1) rotate(-28.6)" style="fill:none;stroke:#1d132d;stroke-linecap:round;stroke-linejoin:round;stroke-width:2px"/>
    <line x1="115.8" y1="197.8" x2="124.4" y2="197.8" style="fill:none;stroke:#1d132d;stroke-linecap:round;stroke-linejoin:round;stroke-width:2px"/>
    <polyline points="113.9 193.4 113.9 184.3 126.2 184.3 126.2 193.2" style="fill:none;stroke:#1d132d;stroke-linecap:round;stroke-linejoin:round;stroke-width:2px"/>
    <path d="M134.1,219a32.5,32.5,0,0,1-28.3,0" style="fill:none;stroke:#1d132d;stroke-linecap:round;stroke-linejoin:round;stroke-width:2px"/>
    <line x1="112" y1="206.2" x2="127.9" y2="206.1" style="fill:none;stroke:#1d132d;stroke-linecap:round;stroke-linejoin:round;stroke-width:2px"/>
    <circle cx="159" cy="207.9" r="1.2" style="fill:#1d132d"/>
    <circle cx="81" cy="207.9" r="1.2" style="fill:#1d132d"/>
  </g>
  <g>
    <title>04</title>
    <g style="isolation:isolate">
      <path d="M109.1,137.6a38.2,38.2,0,0,0-20.3,8.2l.6,1.6,2.9,2.5a32.9,32.9,0,0,1,17.3-7,2.7,2.7,0,1,0-.4-5.4Z" style="fill:#dce3ea"/>
      <path d="M88.3,145.7a41.7,41.7,0,0,1,19.3-8.2,3.3,3.3,0,0,1,1,6.4,39.1,39.1,0,0,0-15.8,6.4" style="fill:none;stroke:#1d132d;stroke-miterlimit:10;stroke-width:2px"/>
      <path d="M92.3,150a31.3,31.3,0,0,1,3.6-2.5,22,22,0,0,0-2.2-5,37.1,37.1,0,0,0-4.8,3.3l.6,1.6Z" style="fill:#180621;opacity:0.15;mix-blend-mode:multiply"/>
      <path d="M67,174a15.6,15.6,0,0,1-2.8-2.5l-.9-1.2-3.4-2.1-4.7,6.3,4.6,5,7.7-5.1Z" style="fill:#2e4159"/>
      <path d="M58.3,161.4a12.8,12.8,0,0,1,0-6.1l-9,.8-.3,5.7,9.9,1.7Z" style="fill:#2e4159"/>
      <path d="M79.1,178.9a18.3,18.3,0,0,1-7.9-1.9l1.3,9.2h5.7Z" style="fill:#2e4159"/>
      <path d="M61.3,153.2a32.1,32.1,0,0,0-2.9,2.5h-.1c-2.7,2.5-.1,9.6,5.8,15.9s12.8,9.3,15.5,6.8h.1a45.6,45.6,0,0,0,5.3-6.1l6-9.2a30.8,30.8,0,0,0,2.6-7.5h0c.3-1.9-1.2-5.1-3.9-8s-5.9-4.6-7.8-4.4h0c-3,.2-6.8,1.7-10.5,3.6" style="fill:#2e4159"/>
      <path d="M81.8,155.8c-4-.4-20.5-2.6-20.5-2.6a32.1,32.1,0,0,0-2.9,2.5h-.1c-2.7,2.5-.1,9.6,5.8,15.9s12.8,9.3,15.5,6.8h.1a14.8,14.8,0,0,0,2.5-2.5C82,174.7,81.6,158.1,81.8,155.8Z" style="fill:#dce3ea"/>
      <polyline points="66.3 175.2 59.8 179.6 55.2 174.6 60.3 167.7" style="fill:none;stroke:#1d132d;stroke-linecap:round;stroke-linejoin:round;stroke-width:2px"/>
      <polyline points="57.9 163.4 49.1 161.9 49.4 156.2 59.1 155.3" style="fill:none;stroke:#1d132d;stroke-linecap:round;stroke-linejoin:round;stroke-width:2px"/>
      <polyline points="71.4 178.4 72.5 186.1 78.2 186 79.1 179" style="fill:none;stroke:#1d132d;stroke-linecap:round;stroke-linejoin:round;stroke-width:2px"/>
      <path d="M79.3,178.8c-2.7,2.5-9.6-.6-15.4-7s-8.3-13.4-5.6-15.9h.1" style="fill:none;stroke:#1d132d;stroke-linecap:round;stroke-linejoin:round;stroke-width:2px"/>
      <path d="M58.4,155.8c5.4-4.9,17.6-12.4,24.5-12.9h0c2.1-.1,4.8,1.3,7.7,4.5s4.2,6.4,3.8,8.2" style="fill:none;stroke:#1d132d;stroke-linecap:round;stroke-linejoin:round;stroke-width:2px"/>
      <path d="M79.4,178.7c5.4-4.9,13.9-16.4,15-23.2" style="fill:none;stroke:#1d132d;stroke-linecap:round;stroke-linejoin:round;stroke-width:2px"/>
      <path d="M91.2,158.5a24.5,24.5,0,0,1-10.8,6.3l-6.5.9a18.5,18.5,0,0,1-8.2-1.5l-3-1.3a18.3,18.3,0,0,1-5.3-3.6c.3,3.3,2.8,8.1,6.9,12.4,5.9,6.3,12.8,9.3,15.5,6.8h.1a45.6,45.6,0,0,0,5.3-6.1l6-9.2a30.8,30.8,0,0,0,2.6-7.5h0a3.4,3.4,0,0,0,0-.4Z" style="fill:#180621;opacity:0.15"/>
      <path d="M131,137.6a38.2,38.2,0,0,1,20.3,8.2l-.6,1.6-2.9,2.5a32.9,32.9,0,0,0-17.3-7,2.7,2.7,0,1,1,.4-5.4Z" style="fill:#dce3ea"/>
      <path d="M151.9,145.7a41.7,41.7,0,0,0-19.3-8.2,3.3,3.3,0,0,0-1,6.4,39.1,39.1,0,0,1,15.8,6.4" style="fill:none;stroke:#1d132d;stroke-miterlimit:10;stroke-width:2px"/>
      <path d="M147.9,150a31.3,31.3,0,0,0-3.6-2.5,22,22,0,0,1,2.2-5,37.1,37.1,0,0,1,4.8,3.3l-.6,1.6Z" style="fill:#180621;opacity:0.15;mix-blend-mode:multiply"/>
      <path d="M173.1,174a15.6,15.6,0,0,0,2.8-2.5l.9-1.2,3.4-2.1,4.7,6.3-4.6,5-7.7-5.1Z" style="fill:#2e4159"/>
      <path d="M181.8,161.4a12.8,12.8,0,0,0,0-6.1l9,.8.3,5.7-9.9,1.7Z" style="fill:#2e4159"/>
      <path d="M161,178.9a18.3,18.3,0,0,0,7.9-1.9l-1.3,9.2h-5.7Z" style="fill:#2e4159"/>
      <path d="M178.8,153.2a32.1,32.1,0,0,1,2.9,2.5h.1c2.7,2.5.1,9.6-5.8,15.9s-12.8,9.3-15.5,6.8h-.1a45.6,45.6,0,0,1-5.3-6.1l-6-9.2a30.8,30.8,0,0,1-2.6-7.5h0c-.3-1.9,1.2-5.1,3.9-8s5.9-4.6,7.8-4.4h0c3,.2,6.8,1.7,10.5,3.6" style="fill:#2e4159"/>
      <path d="M158.3,155.8c4-.4,20.5-2.6,20.5-2.6a32.1,32.1,0,0,1,2.9,2.5h.1c2.7,2.5.1,9.6-5.8,15.9s-12.8,9.3-15.5,6.8h-.1a14.8,14.8,0,0,1-2.5-2.5C158.1,174.7,158.5,158.1,158.3,155.8Z" style="fill:#dce3ea"/>
      <polyline points="173.8 175.2 180.3 179.6 184.9 174.6 179.8 167.7" style="fill:none;stroke:#1d132d;stroke-linecap:round;stroke-linejoin:round;stroke-width:2px"/>
      <polyline points="182.2 163.4 191 161.9 190.7 156.2 181 155.3" style="fill:none;stroke:#1d132d;stroke-linecap:round;stroke-linejoin:round;stroke-width:2px"/>
      <polyline points="168.7 178.4 167.6 186.1 161.9 186 161 179" style="fill:none;stroke:#1d132d;stroke-linecap:round;stroke-linejoin:round;stroke-width:2px"/>
      <path d="M160.8,178.8c2.7,2.5,9.6-.6,15.4-7s8.3-13.4,5.6-15.9h-.1" style="fill:none;stroke:#1d132d;stroke-linecap:round;stroke-linejoin:round;stroke-width:2px"/>
      <path d="M181.7,155.8c-5.4-4.9-17.6-12.4-24.5-12.9h0c-2.1-.1-4.8,1.3-7.7,4.5s-4.2,6.4-3.8,8.2" style="fill:none;stroke:#1d132d;stroke-linecap:round;stroke-linejoin:round;stroke-width:2px"/>
      <path d="M160.7,178.7c-5.4-4.9-13.9-16.4-15-23.2" style="fill:none;stroke:#1d132d;stroke-linecap:round;stroke-linejoin:round;stroke-width:2px"/>
      <path d="M149,158.5a24.5,24.5,0,0,0,10.8,6.3l6.5.9a18.5,18.5,0,0,0,8.2-1.5l3-1.3a18.3,18.3,0,0,0,5.3-3.6c-.3,3.3-2.8,8.1-6.9,12.4-5.9,6.3-12.8,9.3-15.5,6.8h-.1a45.6,45.6,0,0,1-5.3-6.1l-6-9.2a30.8,30.8,0,0,1-2.6-7.5h0a3.4,3.4,0,0,1,0-.4Z" style="fill:#180621;opacity:0.15"/>
      <polyline points="62 153.4 81.7 155.9 82 175.9" style="fill:none;stroke:#1d132d;stroke-linecap:round;stroke-linejoin:round;stroke-width:2px"/>
      <polyline points="178.2 153.4 158.4 155.9 158.1 175.9" style="fill:none;stroke:#1d132d;stroke-linecap:round;stroke-linejoin:round;stroke-width:2px"/>
    </g>
  </g>
  <g>
    <title>04</title>
    <g style="isolation:isolate">
      <polygon points="68.3 100.3 32.3 66.3 71 66.1 68.3 100.3" style="fill:#dce3ea"/>
      <path d="M65.5,78A47.7,47.7,0,0,1,34,66.3H32.3l36,33.9L70,77.8Z" style="fill:#180621;opacity:0.15;mix-blend-mode:multiply"/>
      <polygon points="68.3 100.3 32.3 66.3 71 66.1 68.3 100.3" style="fill:none;stroke:#1d132d;stroke-linecap:round;stroke-linejoin:round;stroke-width:2px"/>
      <path d="M52.4,85.3A27.5,27.5,0,0,1,68.2,67" style="fill:none;stroke:#1d132d;stroke-linecap:round;stroke-linejoin:round;stroke-width:2px"/>
      <path d="M43.9,77.1A27.5,27.5,0,0,1,53,66.4" style="fill:none;stroke:#1d132d;stroke-linecap:round;stroke-linejoin:round;stroke-width:2px"/>
      <polygon points="171.3 100.3 207.2 66.3 168.5 66.1 171.3 100.3" style="fill:#dce3ea"/>
      <path d="M174,78a47.7,47.7,0,0,0,31.5-11.7h1.7l-36,33.9-1.8-22.5Z" style="fill:#180621;opacity:0.15;mix-blend-mode:multiply"/>
      <polygon points="171.3 100.3 207.2 66.3 168.5 66.1 171.3 100.3" style="fill:none;stroke:#1d132d;stroke-linecap:round;stroke-linejoin:round;stroke-width:2px"/>
      <path d="M187.1,85.3A27.5,27.5,0,0,0,171.3,67" style="fill:none;stroke:#1d132d;stroke-linecap:round;stroke-linejoin:round;stroke-width:2px"/>
      <path d="M195.6,77.1a27.5,27.5,0,0,0-9.1-10.6" style="fill:none;stroke:#1d132d;stroke-linecap:round;stroke-linejoin:round;stroke-width:2px"/>
    </g>
  </g>
  <g>
    <title>06</title>
    <path d="M125.4,136.4c19.6-.5,28.4-3.6,37.2-11.1s12.1-21.8,12.1-37.2c0-27.7-17.6-49.2-43.4-53.7a76.8,76.8,0,0,0-11.1-.9,84.7,84.7,0,0,0-11.6.9C82.9,39,65.3,60.5,65.3,88.1c0,15.4,3.2,29.6,12.1,37.2s18.2,10.8,39.5,11.1Z" style="fill:none;stroke:#1d132d;stroke-miterlimit:10;stroke-width:2px"/>
    <path d="M109.2,136.5c-7,6.6-11.8,18.9-11.8,29.9,0,16,10.1,19.5,22.6,19.5s22.6-3.4,22.6-19.5c0-11.1-4.9-23.5-12-30.1" style="fill:none;stroke:#1d132d;stroke-miterlimit:10;stroke-width:2px"/>
    <path d="M131.3,34.4a76.8,76.8,0,0,0-11.1-.9,84.7,84.7,0,0,0-11.6.9C82.9,39,65.3,60.5,65.3,88.1c0,15.4,3.2,29.6,12.1,37.2s18.2,10.8,39.5,11.1h-7.7c-7,6.6-11.8,18.9-11.8,29.9,0,16,10.1,19.5,22.6,19.5s22.6-3.4,22.6-19.5c0-11.1-4.9-23.5-12-30.1h-5.2c19.6-.5,28.4-3.6,37.2-11.1s12.1-21.8,12.1-37.2C174.7,60.5,157.1,39,131.3,34.4Z" style="fill:#5f3535"/>
    <path d="M130.9,136.7c-3.4.7-18,.5-21.3-.1h-.4c-7,6.6-11.8,18.9-11.8,29.9,0,16,10.1,19.5,22.6,19.5s22.6-3.4,22.6-19.5C142.6,155.5,137.8,143.3,130.9,136.7Z" style="fill:#5f3535"/>
    <path d="M140.6,154.1l-9.3,7.9L120,152.3l-11.3,9.8-9.3-8.3a46,46,0,0,0-1.9,10.9l11.2,9.5,11.3-9.8,11.4,9.8,11.2-9.5a45.9,45.9,0,0,0-1.8-10.7" style="fill:#ff9a00"/>
    <path d="M140.6,154.1l-9.3,7.9L120,152.3l-11.3,9.8-9.3-8.3a46,46,0,0,0-1.9,10.9l11.2,9.5,11.3-9.8,11.4,9.8,11.2-9.5a45.9,45.9,0,0,0-1.8-10.7" style="fill:none;stroke:#1d132d;stroke-linecap:round;stroke-linejoin:round;stroke-width:2px"/>
    <path d="M130.5,136.2c-3.1.3-6.1.6-9.4.6a111.1,111.1,0,0,1-12.3-.4L102,146a41,41,0,0,0,17.6,3.6,40.7,40.7,0,0,0,17.8-3.7C137.2,145.6,130.9,136.7,130.5,136.2Z" style="fill:#180621;opacity:0.15"/>
    <path d="M109.5,136.3l-.6.5c-6.9,6.7-11.5,18.8-11.5,29.6,0,16,10.1,19.5,22.6,19.5s22.6-3.4,22.6-19.5c0-11-4.8-23.3-11.8-29.9l-.2-.2" style="fill:none;stroke:#1d132d;stroke-linecap:round;stroke-linejoin:round;stroke-width:2px"/>
    <g style="opacity:0.30000000000000004">
      <path d="M108.7,44.1a84.7,84.7,0,0,1,11.6-.9,76.8,76.8,0,0,1,11.1.9c24.4,4.3,41.5,23.9,43.2,49.5q.1-2.7.1-5.5c0-27.7-17.6-49.2-43.4-53.7a76.8,76.8,0,0,0-11.1-.9,84.7,84.7,0,0,0-11.6.9C82.9,39,65.3,60.5,65.3,88.1q0,2.8.1,5.5C67.1,68,84.3,48.4,108.7,44.1Z" style="fill:#fff"/>
    </g>
    <path d="M125.4,136.4c19.6-.5,28.4-3.6,37.2-11.1s12.1-21.8,12.1-37.2c0-27.7-17.6-49.2-43.4-53.7a76.8,76.8,0,0,0-11.1-.9,84.7,84.7,0,0,0-11.6.9C82.9,39,65.3,60.5,65.3,88.1c0,15.4,3.2,29.6,12.1,37.2s18.2,10.8,39.5,11.1Z" style="fill:none;stroke:#1d132d;stroke-miterlimit:10;stroke-width:2px"/>
    <path d="M109.2,136.5c-7,6.6-11.8,18.9-11.8,29.9,0,16,10.1,19.5,22.6,19.5s22.6-3.4,22.6-19.5c0-11.1-4.9-23.5-12-30.1" style="fill:none;stroke:#1d132d;stroke-miterlimit:10;stroke-width:2px"/>
    <g style="opacity:0.30000000000000004">
      <path d="M108.7,44.1a84.7,84.7,0,0,1,11.6-.9,76.8,76.8,0,0,1,11.1.9c24.4,4.3,41.5,23.9,43.2,49.5q.1-2.7.1-5.5c0-27.7-17.6-49.2-43.4-53.7a76.8,76.8,0,0,0-11.1-.9,84.7,84.7,0,0,0-11.6.9C82.9,39,65.3,60.5,65.3,88.1q0,2.8.1,5.5C67.1,68,84.3,48.4,108.7,44.1Z" style="fill:#fff"/>
    </g>
    <path d="M125.4,136.4c19.6-.5,28.4-3.6,37.2-11.1s12.1-21.8,12.1-37.2c0-27.7-17.6-49.2-43.4-53.7a76.8,76.8,0,0,0-11.1-.9,84.7,84.7,0,0,0-11.6.9C82.9,39,65.3,60.5,65.3,88.1c0,15.4,3.2,29.6,12.1,37.2s18.2,10.8,39.5,11.1Z" style="fill:none;stroke:#1d132d;stroke-miterlimit:10;stroke-width:2px"/>
  </g>
  <g>
    <title>01</title>
    <path d="M106.1,135.8V115.4h.1a22,22,0,0,1,14.1-5.1s.8,19.5.8,26.5" style="fill:#dce3ea"/>
    <path d="M106.6,121.3l-.2-2c-.7-1.6-.8-3.1-.2-4.1H106a135.3,135.3,0,0,1-21.5-2.7c-6.9-1.5-14.1-5-17.9-11.2h-.4c1.5,10,4.9,18.6,11.2,23.9s14.9,9.6,29,10.7C106.4,130.9,106.5,126.1,106.6,121.3Z" style="fill:#2e4159"/>
    <path d="M133.7,136.1V115.7h-.1a22,22,0,0,0-14.1-5.1s-.8,19.5-.8,26.5" style="fill:#dce3ea"/>
    <path d="M133.2,121.6l.2-2c.7-1.6.8-3.1.2-4.1h.2a135.3,135.3,0,0,0,21.5-2.7c6.9-1.5,14.1-5,17.9-11.2h.4c-1.5,10-4.9,18.6-11.2,23.9s-14.9,9.6-29,10.7C133.4,131.2,133.3,126.4,133.2,121.6Z" style="fill:#2e4159"/>
    <circle cx="93.1" cy="123" r="2.5" style="fill:#1d132d"/>
    <circle cx="84.9" cy="120.5" r="2.5" style="fill:#1d132d"/>
    <path d="M66.2,101.4c6.9,8,17.3,13.1,40,14.1" style="fill:none;stroke:#1d132d;stroke-linecap:round;stroke-linejoin:round;stroke-width:2px"/>
    <path d="M66.2,101.4c1.5,10,4.9,18.6,11.2,23.9,9.1,7.8,18.2,10.8,39.5,11.1H120" style="fill:none;stroke:#1d132d;stroke-miterlimit:10;stroke-width:2px"/>
    <path d="M106.1,135.8V115.4h.1a22,22,0,0,1,14.1-5.1" style="fill:none;stroke:#1d132d;stroke-linecap:round;stroke-linejoin:round;stroke-width:2px"/>
    <circle cx="146.7" cy="123" r="2.5" style="fill:#1d132d"/>
    <circle cx="154.9" cy="120.5" r="2.5" style="fill:#1d132d"/>
    <path d="M173.5,101.4c-6.9,8-17.3,13.1-40,14.1" style="fill:none;stroke:#1d132d;stroke-linecap:round;stroke-linejoin:round;stroke-width:2px"/>
    <path d="M173.5,101.4c-1.5,10-4.9,18.6-11.2,23.9-9.1,7.8-18.2,10.8-39.5,11.1h-3.1" style="fill:none;stroke:#1d132d;stroke-miterlimit:10;stroke-width:2px"/>
    <path d="M133.7,135.8V115.4h-.1a22,22,0,0,0-14.1-5.1" style="fill:none;stroke:#1d132d;stroke-linecap:round;stroke-linejoin:round;stroke-width:2px"/>
    <line x1="113.6" y1="136" x2="113.6" y2="123" style="fill:none;stroke:#1d132d;stroke-linecap:round;stroke-linejoin:round;stroke-width:2px"/>
    <line x1="120" y1="136" x2="120" y2="120.5" style="fill:none;stroke:#1d132d;stroke-linecap:round;stroke-linejoin:round;stroke-width:2px"/>
    <line x1="126.6" y1="136" x2="126.6" y2="123" style="fill:none;stroke:#1d132d;stroke-linecap:round;stroke-linejoin:round;stroke-width:2px"/>
  </g>
  <g>
    <title>!0_gen_02</title>
    <circle cx="120" cy="81.9" r="16.7" style="fill:none;stroke:#1d132d;stroke-miterlimit:10;stroke-width:2px"/>
    <circle cx="120" cy="81.9" r="16.7" style="fill:#ffde00;stroke:#1d132d;stroke-miterlimit:10;stroke-width:2px"/>
    <circle cx="120" cy="81.9" r="7.5" style="fill:#1d132d"/>
    <ellipse cx="127.2" cy="76.1" rx="6.1" ry="4.5" transform="matrix(0.78, -0.62, 0.62, 0.78, -19.64, 96.14)" style="fill:#fff;opacity:0.5"/>
  </g>
  <g/>
</svg>