<svg xmlns="http://www.w3.org/2000/svg" xmlns:xlink="http://www.w3.org/1999/xlink" viewBox="0 0 240 240">
  <ellipse cx="120.5" cy="233.4" rx="43.7" ry="4.9" style="fill:#180621;opacity:0.15"/>
  <g>
    <title>06</title>
    <path d="M161.8,221.3c.5-4.1-.9-12.6-.9-12.6s-8.1,3.9-10.4,9.4a6,6,0,0,0-.4,1.3v.2a14.1,14.1,0,0,1-3.7-2.6h-.1c.3-1.2.2-2.1-.4-2.5l-3.4-2.6-.3.2c.5-1.2.6-2.2.1-2.8l-2.4-3.2-1.2.6c.9-1.2,1.3-2.3.9-3.2l-2.1-4.6h-.2a2.9,2.9,0,0,0,1-2.4l-1-5.8h-.2a3.1,3.1,0,0,0,1.3-2.3v-8H101.5v8c0,1.3,1.1,2.4,3,3.4h-.2l1.7,10.2c.2,1.1,1.3,2,3.2,2.5h-.1l4.6,10.5c.5,1.2,2.5,1.7,5.2,1.4l-.8.4,5.4,7.1c1,1.3,4.3.6,8-1.5l-1.9,1.8L135,229c.8.6,2.2.1,3.9-1.2l-.4.6a26.9,26.9,0,0,0,14-.8v.4a5.9,5.9,0,0,0,3.3,3.4c5.5,2.3,14-.6,14-.6S165,223.9,161.8,221.3Z" style="fill:#dce3ea"/>
    <path d="M161.8,221.3c.5-4.1-.9-12.6-.9-12.6s-8.1,3.9-10.4,9.4a6,6,0,0,0-.4,1.3v.2a14.1,14.1,0,0,1-3.7-2.6h-.1c.3-1.2.2-2.1-.4-2.5l-3.4-2.6-.3.2c.5-1.2.6-2.2.1-2.8l-2.4-3.2-1.2.6c.9-1.2,1.3-2.3.9-3.2l-2.1-4.6h-.2a2.9,2.9,0,0,0,1-2.4l-1-5.8h-.2a3.1,3.1,0,0,0,1.3-2.3v-8H101.5v8c0,1.3,1.1,2.4,3,3.4h-.2l1.7,10.2c.2,1.1,1.3,2,3.2,2.5h-.1l4.6,10.5c.5,1.2,2.5,1.7,5.2,1.4l-.8.4,5.4,7.1c1,1.3,4.3.6,8-1.5l-1.9,1.8L135,229c.8.6,2.2.1,3.9-1.2l-.4.6a26.9,26.9,0,0,0,14-.8v.4a5.9,5.9,0,0,0,3.3,3.4c5.5,2.3,14-.6,14-.6S165,223.9,161.8,221.3Z" style="fill:#dce3ea"/>
    <path d="M152.6,228v.2a35.4,35.4,0,0,1,4.6-3.7l1.7-1.1a8.3,8.3,0,0,1,1.2-1.2l.3-.8a11.1,11.1,0,0,1-2.7.3,9.7,9.7,0,0,1-7.5-3.2l-.2.8v.2a14.1,14.1,0,0,1-3.7-2.6h-.1c.3-1.2.2-2.1-.4-2.5l-3.4-2.6-.3.2c.5-1.2.6-2.2.1-2.8l-2.4-3.2-1.2.6c.9-1.2,1.3-2.3.9-3.2l-2.1-4.6h-.2a2.9,2.9,0,0,0,1-2.4l-1-5.8h-.2a3.1,3.1,0,0,0,1.3-2.3v-8H101.5v8c0,1.3,1.1,2.4,3,3.4h-.2l1.7,10.2c.2,1.1,1.3,2,3.2,2.5h-.1l4.6,10.5c.5,1.2,2.5,1.7,5.2,1.4l-.8.4,5.4,7.1c1,1.3,4.3.6,8-1.5l-1.9,1.8L135,229c.8.6,2.2.1,3.9-1.2l-.4.6a26.9,26.9,0,0,0,14-.8Z" style="fill:#dce3ea"/>
    <path d="M101.5,179.8v3.5c0,3.5,8.3,6.2,18.5,6.2s18.4-2.8,18.5-6.2v-3.6Z" style="fill:#180621;opacity:0.15"/>
    <path d="M138.6,180.8H101.5v8c0,3.5,8.3,6.2,18.5,6.2s18.5-2.8,18.5-6.2Z" style="fill:none;stroke:#1d132d;stroke-miterlimit:10;stroke-width:2px"/>
    <path d="M104.3,192.2l1.7,10.2c.5,3,8.2,4.2,17.2,2.7s15.8-5.2,15.3-8.3l-1-5.8" style="fill:none;stroke:#1d132d;stroke-linecap:round;stroke-linejoin:round;stroke-width:2px"/>
    <path d="M109.1,205l4.6,10.5c1.1,2.4,7.8,1.8,15.1-1.4s12.2-7.8,11.1-10.2l-2.1-4.6" style="fill:none;stroke:#1d132d;stroke-linecap:round;stroke-linejoin:round;stroke-width:2px"/>
    <path d="M118,217.3l5.4,7.1c1.4,1.8,6.8-.1,12.1-4.2s8.5-8.8,7.1-10.6l-2.4-3.2" style="fill:none;stroke:#1d132d;stroke-linecap:round;stroke-linejoin:round;stroke-width:2px"/>
    <path d="M129.5,224.7,135,229c1.3,1,4.9-1.3,7.9-5.3s4.4-8,3.1-9l-3.4-2.6" style="fill:none;stroke:#1d132d;stroke-linecap:round;stroke-linejoin:round;stroke-width:2px"/>
    <path d="M146.5,217.1c3.8,3.7,9.4,4.6,14,4.9h.2c-4.4,5-11.3,8.4-22.3,6.5" style="fill:none;stroke:#1d132d;stroke-linecap:round;stroke-linejoin:round;stroke-width:2px"/>
    <path d="M152.6,228a5.9,5.9,0,0,0,3.3,3.4c5.5,2.3,14-.6,14-.6s-4.9-7-8.2-9.6c.5-4.1-.9-12.6-.9-12.6s-8.1,3.9-10.4,9.4a6,6,0,0,0-.4,1.3" style="fill:none;stroke:#1d132d;stroke-linecap:round;stroke-linejoin:round;stroke-width:2px"/>
    <path d="M122.8,194.9l-4-.5a53.1,53.1,0,0,1-10.9-1.2l-2.9-.9h-.7l.7,4.2a43.6,43.6,0,0,0,14.6,2.3c7.7,0,14.5-1.7,18.5-4.2l-.5-2.6A33.6,33.6,0,0,1,122.8,194.9Z" style="fill:#180621;opacity:0.15"/>
    <path d="M137.7,199.8a33.6,33.6,0,0,1-14.3,5.1h-4a53.1,53.1,0,0,1-9.7.5v1a24.9,24.9,0,0,1,1.3,3.3,48.1,48.1,0,0,0,9.8-.6c7.6-1.2,14-3.9,17.6-7Z" style="fill:#180621;opacity:0.15"/>
    <path d="M139.9,206.1a33.6,33.6,0,0,1-12.4,8.8l-3.9,1.2-4.8,1.8a26,26,0,0,1,1.7,3c11.5-3,18.4-9.1,20.8-12.6Z" style="fill:#180621;opacity:0.15"/>
    <path d="M142.9,212.3A33.6,33.6,0,0,1,132,222.9l-2.1,1.1a25,25,0,0,1,2.4,2.6c7-4.3,11-9.3,12.4-12.4Z" style="fill:#180621;opacity:0.15"/>
    <path d="M139.7,228.6a24.5,24.5,0,0,1,3.8.3,27.1,27.1,0,0,0,5.5-9.2l-2.1-1.6a35.6,35.6,0,0,1-7.4,10.6Z" style="fill:#180621;opacity:0.15"/>
    <path d="M152.7,215.2l-2.6,4.5,11,1.7a15.4,15.4,0,0,0,.7-2.2A16.6,16.6,0,0,1,152.7,215.2Z" style="fill:#180621;opacity:0.15"/>
    <path d="M156.5,231.3l-3.8-3.5,8.7-5.8s2,1.3,2.2,1.7A23.7,23.7,0,0,0,156.5,231.3Z" style="fill:#180621;opacity:0.15"/>
  </g>
  <g>
    <title>atribut</title>
    <rect x="25.9" y="138.5" width="23.7" height="6.66" transform="translate(7.5 -1.8) rotate(3)" style="fill:#dce3ea"/>
    <rect x="25.9" y="138.5" width="23.7" height="6.66" transform="translate(7.5 -1.8) rotate(3)" style="fill:#180621;opacity:0.15"/>
    <rect x="25.9" y="138.1" width="8.1" height="6.66" transform="translate(7.5 -1.4) rotate(3)" style="fill:#180621;opacity:0.15"/>
    <rect x="75.4" y="156.7" width="29.4" height="3.43" transform="translate(-83.7 103.7) rotate(-42.9)" style="fill:#dce3ea"/>
    <rect x="75.4" y="156.7" width="29.4" height="3.43" transform="translate(-83.7 103.7) rotate(-42.9)" style="fill:#180621;opacity:0.15"/>
    <rect x="72.7" y="144.6" width="19" height="9.13" rx="4.4" ry="4.4" transform="translate(-79 94.2) rotate(-42.3)" style="fill:#dce3ea"/>
    <path d="M85.1,152.4a4.6,4.6,0,0,1-7-5.7l-2.6,2.4a4.6,4.6,0,1,0,6.1,6.8l7.3-6.6a4.5,4.5,0,0,0,.8-1.1Z" style="fill:#180621;opacity:0.15"/>
    <path d="M63.8,160.4l14.4,1.1a5.2,5.2,0,0,1,4.5,5.7h0a5.2,5.2,0,0,1-5.7,4.5l-13.6-1.1" style="fill:#dce3ea"/>
    <path d="M81.2,163a5.2,5.2,0,0,1-5.5,3.5L64.2,165l-0.3,5.2L77,171.8A5.1,5.1,0,0,0,81.2,163Z" style="fill:#180621;opacity:0.15"/>
    <path d="M63.2,160.2l15,1.3a5.2,5.2,0,0,1,4.5,5.7h0a5.2,5.2,0,0,1-5.7,4.5l-14.2-1.2" style="fill:none;stroke:#1d132d;stroke-linecap:round;stroke-linejoin:round;stroke-width:2px"/>
    <circle cx="77.9" cy="166.6" r="0.6" transform="translate(-33.1 20) rotate(-12.1)" style="fill:none;stroke:#1d132d;stroke-linecap:round;stroke-linejoin:round;stroke-width:2px"/>
    <line x1="64.4" y1="165.3" x2="71.5" y2="166" style="fill:none;stroke:#1d132d;stroke-linecap:round;stroke-linejoin:round;stroke-width:2px"/>
    <path d="M99.6,152.8a8.5,8.5,0,0,1,3.6-16.1l7.2,0.4" style="fill:#2e4159"/>
    <path d="M100.8,147.7a8.4,8.4,0,0,1-4.3-7.4v-0.2a8.4,8.4,0,0,0,2.6,12.4A15.6,15.6,0,0,1,100.8,147.7Z" style="fill:#180621;opacity:0.15"/>
    <path d="M107.2,138.1a2.7,2.7,0,0,1-2,3.6c-1.9.6-5.9-.2-6.3-1.5s2-2.8,4-3.4S106.7,136.8,107.2,138.1Z" style="fill:#fff;opacity:0.2"/>
    <path d="M99.6,152.8a8.5,8.5,0,0,1,3.6-16.1,22.5,22.5,0,0,1,5.1.5" style="fill:none;stroke:#1d132d;stroke-linecap:round;stroke-linejoin:round;stroke-width:2px"/>
    <path d="M61.7,132.8l-8-14a5.6,5.6,0,0,0-4.4-2.8l-17.5-1.4a17.6,17.6,0,0,0-4.6,3.1v21.2l20.6,1.6,9.2,0.7C61.2,141.6,64,136.7,61.7,132.8Z" style="fill:#dce3ea"/>
    <path d="M61.7,132.8v-0.2a4.9,4.9,0,0,1-4.4,2l-9.2-.7-20.4-1.6H27.2v6.6l20.6,1.6,9.2,0.7C61.2,141.6,64,136.7,61.7,132.8Z" style="fill:#180621;opacity:0.15"/>
    <path d="M35.8,117.1l8,14c2.2,3.9-.5,8.8-4.8,8.5l-17.3-1.4c-4.3-.3-6.5-5.6-3.9-9.2l9.3-12.6A5.1,5.1,0,0,1,35.8,117.1Z" style="fill:#dce3ea"/>
    <path d="M34.3,121.6a3.7,3.7,0,0,1-3.9,3.6,4,4,0,0,1-3.5-4.2,3.7,3.7,0,0,1,3.9-3.6A4,4,0,0,1,34.3,121.6Z" style="fill:#fff;opacity:0.5"/>
    <path d="M39.2,131.1a3.7,3.7,0,0,1-3.9,3.6,4,4,0,0,1-3.5-4.2,3.7,3.7,0,0,1,3.9-3.6A4,4,0,0,1,39.2,131.1Z" style="fill:#fff;opacity:0.5"/>
    <path d="M29.2,129.5a3.7,3.7,0,0,1-3.9,3.6,4,4,0,0,1-3.5-4.2,3.7,3.7,0,0,1,3.9-3.6A4,4,0,0,1,29.2,129.5Z" style="fill:#fff;opacity:0.5"/>
    <path d="M33.4,123.1a2.7,2.7,0,0,1-2.9,2.7,3,3,0,0,1-2.6-3.2,2.7,2.7,0,0,1,2.9-2.7A3,3,0,0,1,33.4,123.1Z" style="fill:#2e4159"/>
    <path d="M28.4,130.8a2.7,2.7,0,0,1-2.9,2.7,3,3,0,0,1-2.6-3.2,2.7,2.7,0,0,1,2.9-2.7A3,3,0,0,1,28.4,130.8Z" style="fill:#2e4159"/>
    <path d="M37.9,131.6a2.7,2.7,0,0,1-2.9,2.7,3,3,0,0,1-2.6-3.2,2.7,2.7,0,0,1,2.9-2.7A3,3,0,0,1,37.9,131.6Z" style="fill:#2e4159"/>
    <path d="M39.2,135.9l-17.3-1.4a5.5,5.5,0,0,1-4.8-4.2c-1.3,3.4.9,7.6,4.6,7.9l17.3,1.4c3.8,0.3,6.3-3.5,5.3-7.1A5.1,5.1,0,0,1,39.2,135.9Z" style="fill:#180621;opacity:0.15"/>
    <path d="M25.7,144.3l21.5,2.1a17.9,17.9,0,0,1,16,19.1h0a17.1,17.1,0,0,1-18.7,15.7L25,179.3" style="fill:#dce3ea"/>
    <path d="M59.3,152.3c3.3,3.9,3.9,8.7,1.5,10.8s-7.2.7-10.4-3.4c-0.4-.6-3-10.7-4.8-12.7S56,148.4,59.3,152.3Z" style="fill:#fff;opacity:0.5"/>
    <path d="M41.3,163.3c-0.8,9.6-8.8,16.7-17.9,15.8s-16-9.4-15.2-19,8.8-16.7,17.9-15.8S42,153.7,41.3,163.3Z" style="fill:#dce3ea"/>
    <path d="M41.3,163.3c-0.8,9.6-8.8,16.7-17.9,15.8s-16-9.4-15.2-19,8.8-16.7,17.9-15.8S42,153.7,41.3,163.3Z" style="fill:#dce3ea"/>
    <path d="M24.7,174.6c-9.2-.9-16-9.4-15.2-19,0-.5.1-1,0.2-1.4a18,18,0,0,0-1.6,6c-0.8,9.6,6.1,18.1,15.2,19s16.4-5.5,17.8-14.4A16.3,16.3,0,0,1,24.7,174.6Z" style="fill:#180621;opacity:0.15"/>
    <path d="M63.1,165.4a17.1,17.1,0,0,1-17.4,10.5l-10.5-1-7.2,4.6,16.5,1.7a17.1,17.1,0,0,0,18.7-15.7h0Z" style="fill:#180621;opacity:0.15"/>
    <path d="M35.7,162.8a11.1,11.1,0,0,1-11.9,10.5c-6.1-.6-10.6-6.3-10.1-12.6a11.1,11.1,0,0,1,11.9-10.5C31.7,150.7,36.2,156.4,35.7,162.8Z" style="fill:#ff9a00"/>
    <path d="M35.7,162.6a7.6,7.6,0,0,1-8.2,7.2,7.9,7.9,0,0,1-6.9-8.7,7.6,7.6,0,0,1,8.2-7.2A7.9,7.9,0,0,1,35.7,162.6Z" style="fill:#e83a27"/>
    <path d="M24.7,153.8l1.1,0.2a7.7,7.7,0,0,0-6.4,7.1,8,8,0,0,0,5.8,8.5H23.4a7.9,7.9,0,0,1-6.9-8.7A7.6,7.6,0,0,1,24.7,153.8Z" style="fill:#fff"/>
    <path d="M41.3,163.3c-0.8,9.6-8.8,16.7-17.9,15.8s-16-9.4-15.2-19,8.8-16.7,17.9-15.8S42,153.7,41.3,163.3Z" style="fill:none;stroke:#1d132d;stroke-linecap:round;stroke-linejoin:round;stroke-width:2px"/>
    <path d="M43.3,146.1a20.9,20.9,0,0,1,7.5,17.7,20,20,0,0,1-11.2,16.6" style="fill:none;stroke:#1d132d;stroke-linecap:round;stroke-linejoin:round;stroke-width:2px"/>
    <path d="M35.7,162.8a11.1,11.1,0,0,1-11.9,10.5c-6.1-.6-10.6-6.3-10.1-12.6a11.1,11.1,0,0,1,11.9-10.5C31.7,150.7,36.2,156.4,35.7,162.8Z" style="fill:none;stroke:#1d132d;stroke-linecap:round;stroke-linejoin:round;stroke-width:2px"/>
    <path d="M35.5,162.6a7.6,7.6,0,0,1-8.2,7.2,8,8,0,0,1-6.9-8.7,7.6,7.6,0,0,1,8.2-7.2A8,8,0,0,1,35.5,162.6Z" style="fill:none;stroke:#1d132d;stroke-linecap:round;stroke-linejoin:round;stroke-width:2px"/>
    <path d="M31.2,162.2a2.2,2.2,0,0,1-2.4,2.1,2.3,2.3,0,0,1-2-2.5,2.2,2.2,0,0,1,2.4-2.1A2.3,2.3,0,0,1,31.2,162.2Z" style="fill:#ff9a00"/>
    <path d="M31.2,162.2a2.2,2.2,0,0,1-2.4,2.1,2.3,2.3,0,0,1-2-2.5,2.2,2.2,0,0,1,2.4-2.1A2.3,2.3,0,0,1,31.2,162.2Z" style="fill:none;stroke:#1d132d;stroke-linecap:round;stroke-linejoin:round;stroke-width:2px"/>
    <ellipse cx="38.8" cy="161.7" rx="0.9" ry="1" transform="translate(-127.5 161.6) rotate(-76.5)" style="fill:#fff;opacity:0.5"/>
    <path d="M25.4,144.3l21.7,2.1a17.9,17.9,0,0,1,16,19.1h0a17.1,17.1,0,0,1-18.7,15.7l-19.5-1.9" style="fill:none;stroke:#1d132d;stroke-linecap:round;stroke-linejoin:round;stroke-width:2px"/>
    <line x1="14.1" y1="160.1" x2="20.1" y2="160.7" style="fill:none;stroke:#1d132d;stroke-linecap:round;stroke-linejoin:round;stroke-width:2px"/>
    <line x1="21.1" y1="165.8" x2="15.4" y2="166.9" style="fill:none;stroke:#1d132d;stroke-linecap:round;stroke-linejoin:round;stroke-width:2px"/>
    <line x1="17.1" y1="154.3" x2="22.9" y2="155.3" style="fill:none;stroke:#1d132d;stroke-linecap:round;stroke-linejoin:round;stroke-width:2px"/>
    <path d="M35.8,117.2l8,14c2.2,3.9-.5,8.8-4.8,8.5l-17.3-1.4c-4.3-.3-6.5-5.6-3.9-9.2l9.3-12.6A5.1,5.1,0,0,1,35.8,117.2Z" style="fill:none;stroke:#1d132d;stroke-linecap:round;stroke-linejoin:round;stroke-width:2px"/>
    <path d="M27.4,133.5a2.6,2.6,0,0,1-3.9-.3,3.1,3.1,0,0,1,.2-4.2,2.6,2.6,0,0,1,3.9.3A3.1,3.1,0,0,1,27.4,133.5Z" style="fill:none;stroke:#1d132d;stroke-linecap:round;stroke-linejoin:round;stroke-width:2px"/>
    <path d="M37.3,134.3a2.6,2.6,0,0,1-3.9-.3,3.1,3.1,0,0,1,.2-4.2,2.6,2.6,0,0,1,3.9.3A3.1,3.1,0,0,1,37.3,134.3Z" style="fill:none;stroke:#1d132d;stroke-linecap:round;stroke-linejoin:round;stroke-width:2px"/>
    <path d="M32.6,126a2.6,2.6,0,0,1-3.9-.3,3.1,3.1,0,0,1,.2-4.2,2.6,2.6,0,0,1,3.9.3A3.1,3.1,0,0,1,32.6,126Z" style="fill:none;stroke:#1d132d;stroke-linecap:round;stroke-linejoin:round;stroke-width:2px"/>
    <path d="M31.7,114.4L49.2,116a5.6,5.6,0,0,1,4.4,2.8l8,14c2.2,3.9-.5,8.8-4.8,8.5l-9.2-.7-20.6-1.6" style="fill:none;stroke:#1d132d;stroke-linecap:round;stroke-linejoin:round;stroke-width:2px"/>
    <line x1="26.1" y1="138.6" x2="25.9" y2="143.7" style="fill:none;stroke:#1d132d;stroke-linecap:round;stroke-linejoin:round;stroke-width:2px"/>
    <line x1="33.6" y1="139.5" x2="33.3" y2="144.5" style="fill:none;stroke:#1d132d;stroke-linecap:round;stroke-linejoin:round;stroke-width:2px"/>
    <line x1="49.7" y1="140.9" x2="49.4" y2="146" style="fill:none;stroke:#1d132d;stroke-linecap:round;stroke-linejoin:round;stroke-width:2px"/>
    <rect x="72.7" y="144.6" width="19" height="9.13" rx="4.4" ry="4.4" transform="translate(-79 94.2) rotate(-42.3)" style="fill:none;stroke:#1d132d;stroke-linecap:round;stroke-linejoin:round;stroke-width:2px"/>
    <line x1="99.1" y1="153.2" x2="80.7" y2="170.9" style="fill:none;stroke:#1d132d;stroke-linecap:round;stroke-linejoin:round;stroke-width:2px"/>
    <line x1="95.8" y1="149.2" x2="81.4" y2="163" style="fill:none;stroke:#1d132d;stroke-linecap:round;stroke-linejoin:round;stroke-width:2px"/>
    <path d="M73,160.7a7.7,7.7,0,0,1,1.9-5.2" style="fill:none;stroke:#1d132d;stroke-linecap:round;stroke-linejoin:round;stroke-width:2px"/>
    <path d="M88.9,142.3a7.4,7.4,0,0,1,6.5-.6" style="fill:none;stroke:#1d132d;stroke-linecap:round;stroke-linejoin:round;stroke-width:2px"/>
    <rect x="190.4" y="138.5" width="23.7" height="6.66" transform="translate(411.6 272.8) rotate(177)" style="fill:#dce3ea"/>
    <rect x="190.4" y="138.5" width="23.7" height="6.66" transform="translate(411.6 272.8) rotate(177)" style="fill:#180621;opacity:0.15"/>
    <rect x="206" y="138.1" width="8.1" height="6.66" transform="translate(427.2 271.6) rotate(177)" style="fill:#180621;opacity:0.15"/>
    <rect x="135.2" y="156.7" width="29.4" height="3.43" transform="translate(151.9 376.6) rotate(-137.1)" style="fill:#dce3ea"/>
    <rect x="135.2" y="156.7" width="29.4" height="3.43" transform="translate(151.9 376.6) rotate(-137.1)" style="fill:#180621;opacity:0.15"/>
    <rect x="148.4" y="144.6" width="19" height="9.13" rx="4.4" ry="4.4" transform="translate(174.1 365.8) rotate(-137.7)" style="fill:#dce3ea"/>
    <path d="M155,152.4a4.6,4.6,0,0,0,7-5.7l2.6,2.4a4.6,4.6,0,0,1-6.1,6.8l-7.3-6.6a4.5,4.5,0,0,1-.8-1.1Z" style="fill:#180621;opacity:0.15"/>
    <path d="M176.2,160.4l-14.4,1.1a5.2,5.2,0,0,0-4.5,5.7h0a5.2,5.2,0,0,0,5.7,4.5l13.6-1.1" style="fill:#dce3ea"/>
    <path d="M158.8,163a5.2,5.2,0,0,0,5.5,3.5l11.5-1.5,0.3,5.2L163,171.8A5.1,5.1,0,0,1,158.8,163Z" style="fill:#180621;opacity:0.15"/>
    <path d="M176.8,160.2l-15,1.3a5.2,5.2,0,0,0-4.5,5.7h0a5.2,5.2,0,0,0,5.7,4.5l14.2-1.2" style="fill:none;stroke:#1d132d;stroke-linecap:round;stroke-linejoin:round;stroke-width:2px"/>
    <circle cx="162.1" cy="166.6" r="0.6" transform="translate(-34.7 290.3) rotate(-77.9)" style="fill:none;stroke:#1d132d;stroke-linecap:round;stroke-linejoin:round;stroke-width:2px"/>
    <line x1="175.6" y1="165.3" x2="168.5" y2="166" style="fill:none;stroke:#1d132d;stroke-linecap:round;stroke-linejoin:round;stroke-width:2px"/>
    <path d="M140.4,152.8a8.5,8.5,0,0,0-3.6-16.1l-7.2.4" style="fill:#2e4159"/>
    <path d="M139.3,147.7a8.4,8.4,0,0,0,4.3-7.4v-0.2a8.4,8.4,0,0,1-2.6,12.4A15.6,15.6,0,0,0,139.3,147.7Z" style="fill:#180621;opacity:0.15"/>
    <path d="M132.8,138.1a2.7,2.7,0,0,0,2,3.6c1.9,0.6,5.9-.2,6.3-1.5s-2-2.8-4-3.4S133.3,136.8,132.8,138.1Z" style="fill:#fff;opacity:0.2"/>
    <path d="M140.4,152.8a8.5,8.5,0,0,0-3.6-16.1,22.5,22.5,0,0,0-5.1.5" style="fill:none;stroke:#1d132d;stroke-linecap:round;stroke-linejoin:round;stroke-width:2px"/>
    <path d="M178.3,132.8l8-14a5.6,5.6,0,0,1,4.4-2.8l17.5-1.4a17.6,17.6,0,0,1,4.6,3.1v21.2l-20.6,1.6-9.2.7C178.8,141.6,176,136.7,178.3,132.8Z" style="fill:#dce3ea"/>
    <path d="M178.3,132.8v-0.2a4.9,4.9,0,0,0,4.4,2l9.2-.7,20.4-1.6h0.4v6.6l-20.6,1.6-9.2.7C178.8,141.6,176,136.7,178.3,132.8Z" style="fill:#180621;opacity:0.15"/>
    <path d="M204.2,117.1l-8,14c-2.2,3.9.5,8.8,4.8,8.5l17.3-1.4c4.3-.3,6.5-5.6,3.9-9.2l-9.3-12.6A5.1,5.1,0,0,0,204.2,117.1Z" style="fill:#dce3ea"/>
    <path d="M205.7,121.6a3.7,3.7,0,0,0,3.9,3.6,4,4,0,0,0,3.5-4.2,3.7,3.7,0,0,0-3.9-3.6A4,4,0,0,0,205.7,121.6Z" style="fill:#fff;opacity:0.5"/>
    <path d="M200.8,131.1a3.7,3.7,0,0,0,3.9,3.6,4,4,0,0,0,3.5-4.2,3.7,3.7,0,0,0-3.9-3.6A4,4,0,0,0,200.8,131.1Z" style="fill:#fff;opacity:0.5"/>
    <path d="M210.8,129.5a3.7,3.7,0,0,0,3.9,3.6,4,4,0,0,0,3.5-4.2,3.7,3.7,0,0,0-3.9-3.6A4,4,0,0,0,210.8,129.5Z" style="fill:#fff;opacity:0.5"/>
    <path d="M206.6,123.1a2.7,2.7,0,0,0,2.9,2.7,3,3,0,0,0,2.6-3.2,2.7,2.7,0,0,0-2.9-2.7A3,3,0,0,0,206.6,123.1Z" style="fill:#2e4159"/>
    <path d="M211.6,130.8a2.7,2.7,0,0,0,2.9,2.7,3,3,0,0,0,2.6-3.2,2.7,2.7,0,0,0-2.9-2.7A3,3,0,0,0,211.6,130.8Z" style="fill:#2e4159"/>
    <path d="M202.1,131.6a2.7,2.7,0,0,0,2.9,2.7,3,3,0,0,0,2.6-3.2,2.7,2.7,0,0,0-2.9-2.7A3,3,0,0,0,202.1,131.6Z" style="fill:#2e4159"/>
    <path d="M200.8,135.9l17.3-1.4a5.5,5.5,0,0,0,4.8-4.2c1.3,3.4-.9,7.6-4.6,7.9L201,139.6c-3.8.3-6.3-3.5-5.3-7.1A5.1,5.1,0,0,0,200.8,135.9Z" style="fill:#180621;opacity:0.15"/>
    <path d="M214.3,144.3l-21.5,2.1a17.9,17.9,0,0,0-16,19.1h0a17.1,17.1,0,0,0,18.7,15.7l19.3-1.9" style="fill:#dce3ea"/>
    <path d="M180.7,152.3c-3.3,3.9-3.9,8.7-1.5,10.8s7.2,0.7,10.4-3.4c0.4-.6,3-10.7,4.8-12.7S184,148.4,180.7,152.3Z" style="fill:#fff;opacity:0.5"/>
    <path d="M198.7,163.3c0.8,9.6,8.8,16.7,17.9,15.8s16-9.4,15.2-19-8.8-16.7-17.9-15.8S198,153.7,198.7,163.3Z" style="fill:#dce3ea"/>
    <path d="M198.7,163.3c0.8,9.6,8.8,16.7,17.9,15.8s16-9.4,15.2-19-8.8-16.7-17.9-15.8S198,153.7,198.7,163.3Z" style="fill:#dce3ea"/>
    <path d="M215.3,174.6c9.2-.9,16-9.4,15.2-19,0-.5-0.1-1-0.2-1.4a18,18,0,0,1,1.6,6c0.8,9.6-6.1,18.1-15.2,19s-16.4-5.5-17.8-14.4A16.3,16.3,0,0,0,215.3,174.6Z" style="fill:#180621;opacity:0.15"/>
    <path d="M176.9,165.4a17.1,17.1,0,0,0,17.4,10.5l10.5-1,7.2,4.6-16.5,1.7a17.1,17.1,0,0,1-18.7-15.7h0Z" style="fill:#180621;opacity:0.15"/>
    <path d="M204.3,162.8a11.1,11.1,0,0,0,11.9,10.5c6.1-.6,10.6-6.3,10.1-12.6a11.1,11.1,0,0,0-11.9-10.5C208.3,150.7,203.8,156.4,204.3,162.8Z" style="fill:#ff9a00"/>
    <path d="M204.3,162.6a7.6,7.6,0,0,0,8.2,7.2,7.9,7.9,0,0,0,6.9-8.7,7.6,7.6,0,0,0-8.2-7.2A7.9,7.9,0,0,0,204.3,162.6Z" style="fill:#e83a27"/>
    <path d="M215.3,153.8l-1.1.2a7.7,7.7,0,0,1,6.4,7.1,8,8,0,0,1-5.8,8.5h1.8a7.9,7.9,0,0,0,6.9-8.7A7.6,7.6,0,0,0,215.3,153.8Z" style="fill:#fff"/>
    <path d="M198.7,163.3c0.8,9.6,8.8,16.7,17.9,15.8s16-9.4,15.2-19-8.8-16.7-17.9-15.8S198,153.7,198.7,163.3Z" style="fill:none;stroke:#1d132d;stroke-linecap:round;stroke-linejoin:round;stroke-width:2px"/>
    <path d="M196.7,146.1a20.9,20.9,0,0,0-7.5,17.7,20,20,0,0,0,11.2,16.6" style="fill:none;stroke:#1d132d;stroke-linecap:round;stroke-linejoin:round;stroke-width:2px"/>
    <path d="M204.3,162.8a11.1,11.1,0,0,0,11.9,10.5c6.1-.6,10.6-6.3,10.1-12.6a11.1,11.1,0,0,0-11.9-10.5C208.3,150.7,203.8,156.4,204.3,162.8Z" style="fill:none;stroke:#1d132d;stroke-linecap:round;stroke-linejoin:round;stroke-width:2px"/>
    <path d="M204.5,162.6a7.6,7.6,0,0,0,8.2,7.2,8,8,0,0,0,6.9-8.7,7.6,7.6,0,0,0-8.2-7.2A8,8,0,0,0,204.5,162.6Z" style="fill:none;stroke:#1d132d;stroke-linecap:round;stroke-linejoin:round;stroke-width:2px"/>
    <path d="M208.8,162.2a2.2,2.2,0,0,0,2.4,2.1,2.3,2.3,0,0,0,2-2.5,2.2,2.2,0,0,0-2.4-2.1A2.3,2.3,0,0,0,208.8,162.2Z" style="fill:#ff9a00"/>
    <path d="M208.8,162.2a2.2,2.2,0,0,0,2.4,2.1,2.3,2.3,0,0,0,2-2.5,2.2,2.2,0,0,0-2.4-2.1A2.3,2.3,0,0,0,208.8,162.2Z" style="fill:none;stroke:#1d132d;stroke-linecap:round;stroke-linejoin:round;stroke-width:2px"/>
    <ellipse cx="201.2" cy="161.7" rx="1" ry="0.9" transform="translate(-32.3 51.6) rotate(-13.5)" style="fill:#fff;opacity:0.5"/>
    <path d="M214.6,144.3l-21.7,2.1a17.9,17.9,0,0,0-16,19.1h0a17.1,17.1,0,0,0,18.7,15.7l19.5-1.9" style="fill:none;stroke:#1d132d;stroke-linecap:round;stroke-linejoin:round;stroke-width:2px"/>
    <line x1="225.9" y1="160.1" x2="219.9" y2="160.7" style="fill:none;stroke:#1d132d;stroke-linecap:round;stroke-linejoin:round;stroke-width:2px"/>
    <line x1="218.9" y1="165.8" x2="224.6" y2="166.9" style="fill:none;stroke:#1d132d;stroke-linecap:round;stroke-linejoin:round;stroke-width:2px"/>
    <line x1="222.9" y1="154.3" x2="217.1" y2="155.3" style="fill:none;stroke:#1d132d;stroke-linecap:round;stroke-linejoin:round;stroke-width:2px"/>
    <path d="M204.2,117.2l-8,14c-2.2,3.9.5,8.8,4.8,8.5l17.3-1.4c4.3-.3,6.5-5.6,3.9-9.2l-9.3-12.6A5.1,5.1,0,0,0,204.2,117.2Z" style="fill:none;stroke:#1d132d;stroke-linecap:round;stroke-linejoin:round;stroke-width:2px"/>
    <path d="M212.6,133.5a2.6,2.6,0,0,0,3.9-.3,3.1,3.1,0,0,0-.2-4.2,2.6,2.6,0,0,0-3.9.3A3.1,3.1,0,0,0,212.6,133.5Z" style="fill:none;stroke:#1d132d;stroke-linecap:round;stroke-linejoin:round;stroke-width:2px"/>
    <path d="M202.7,134.3a2.6,2.6,0,0,0,3.9-.3,3.1,3.1,0,0,0-.2-4.2,2.6,2.6,0,0,0-3.9.3A3.1,3.1,0,0,0,202.7,134.3Z" style="fill:none;stroke:#1d132d;stroke-linecap:round;stroke-linejoin:round;stroke-width:2px"/>
    <path d="M207.5,126a2.6,2.6,0,0,0,3.9-.3,3.1,3.1,0,0,0-.2-4.2,2.6,2.6,0,0,0-3.9.3A3.1,3.1,0,0,0,207.5,126Z" style="fill:none;stroke:#1d132d;stroke-linecap:round;stroke-linejoin:round;stroke-width:2px"/>
    <path d="M208.4,114.4L190.8,116a5.6,5.6,0,0,0-4.4,2.8l-8,14c-2.2,3.9.5,8.8,4.8,8.5l9.2-.7,20.6-1.6" style="fill:none;stroke:#1d132d;stroke-linecap:round;stroke-linejoin:round;stroke-width:2px"/>
    <line x1="213.9" y1="138.6" x2="214.1" y2="143.7" style="fill:none;stroke:#1d132d;stroke-linecap:round;stroke-linejoin:round;stroke-width:2px"/>
    <line x1="206.4" y1="139.5" x2="206.7" y2="144.5" style="fill:none;stroke:#1d132d;stroke-linecap:round;stroke-linejoin:round;stroke-width:2px"/>
    <line x1="190.3" y1="140.9" x2="190.6" y2="146" style="fill:none;stroke:#1d132d;stroke-linecap:round;stroke-linejoin:round;stroke-width:2px"/>
    <rect x="148.4" y="144.6" width="19" height="9.13" rx="4.4" ry="4.4" transform="translate(174.1 365.8) rotate(-137.7)" style="fill:none;stroke:#1d132d;stroke-linecap:round;stroke-linejoin:round;stroke-width:2px"/>
    <line x1="140.9" y1="153.2" x2="159.4" y2="170.9" style="fill:none;stroke:#1d132d;stroke-linecap:round;stroke-linejoin:round;stroke-width:2px"/>
    <line x1="144.2" y1="149.2" x2="158.6" y2="163" style="fill:none;stroke:#1d132d;stroke-linecap:round;stroke-linejoin:round;stroke-width:2px"/>
    <path d="M167,160.7a7.7,7.7,0,0,0-1.9-5.2" style="fill:none;stroke:#1d132d;stroke-linecap:round;stroke-linejoin:round;stroke-width:2px"/>
    <path d="M151.1,142.3a7.4,7.4,0,0,0-6.5-.6" style="fill:none;stroke:#1d132d;stroke-linecap:round;stroke-linejoin:round;stroke-width:2px"/>
  </g>
  <g>
    <title>01</title>
    <path d="M174.4,95.5l-1.6-19.7,22.3-33.5C199.2,87.8,174.4,95.5,174.4,95.5Z" style="fill:#2e4159"/>
    <path d="M193.7,83.6c-3.7,21.9-20.7,21-20.7,21l1.4-9.1,9.6-6.7Z" style="fill:#2e4159"/>
    <g style="opacity:0.5">
      <path d="M176.4,70.3c2.6,1.2,11.6,4.4,8,18.1-.7,2.7-7.3,5.6-9.7,7.4l-1.9-20Z" style="fill:#fff"/>
    </g>
    <g style="opacity:0.5">
      <path d="M179.6,88.3a18.9,18.9,0,0,0-5.7-14.1l2.6-3.9c2.6,1.2,11.6,4.4,8,18.1-.5,1.7-3.1,3.4-5.7,4.9A22.7,22.7,0,0,0,179.6,88.3Z" style="fill:#fff"/>
    </g>
    <path d="M172.8,75.8l22.3-33.5c4.2,45.6-20.7,53.3-20.7,53.3" style="fill:none;stroke:#1d132d;stroke-linecap:round;stroke-linejoin:round;stroke-width:2px"/>
    <path d="M184,88.8l9.7-5.2c-3.7,21.9-20.7,21-20.7,21" style="fill:none;stroke:#1d132d;stroke-linecap:round;stroke-linejoin:round;stroke-width:2px"/>
    <path d="M184.3,88.3c3.8-10.7-3.2-17.3-7.9-17.2" style="fill:none;stroke:#1d132d;stroke-linecap:round;stroke-linejoin:round;stroke-width:2px"/>
    <path d="M65.7,95.5l1.6-19.7L45,42.3C40.8,87.8,65.7,95.5,65.7,95.5Z" style="fill:#2e4159"/>
    <path d="M46.4,83.6c3.7,21.9,20.7,21,20.7,21l-1.4-9.1-9.6-6.7Z" style="fill:#2e4159"/>
    <g style="opacity:0.5">
      <path d="M63.6,70.3c-2.6,1.2-11.6,4.4-8,18.1.7,2.7,7.3,5.6,9.8,7.4l1.9-20Z" style="fill:#fff"/>
    </g>
    <g style="opacity:0.5">
      <path d="M60.5,88.3a18.9,18.9,0,0,1,5.7-14.1l-2.6-3.9c-2.6,1.2-11.6,4.4-8,18.1.5,1.7,3.1,3.4,5.7,4.9A22.7,22.7,0,0,1,60.5,88.3Z" style="fill:#fff"/>
    </g>
    <path d="M67.3,75.8,45,42.3C40.8,87.8,65.7,95.5,65.7,95.5" style="fill:none;stroke:#1d132d;stroke-linecap:round;stroke-linejoin:round;stroke-width:2px"/>
    <path d="M56.1,88.8l-9.7-5.2c3.7,21.9,20.7,21,20.7,21" style="fill:none;stroke:#1d132d;stroke-linecap:round;stroke-linejoin:round;stroke-width:2px"/>
    <path d="M55.8,88.3C51.9,77.6,58.9,70.9,63.7,71" style="fill:none;stroke:#1d132d;stroke-linecap:round;stroke-linejoin:round;stroke-width:2px"/>
  </g>
  <g>
    <title>01</title>
    <path d="M131.3,34.4a76.8,76.8,0,0,0-11.1-.9,84.7,84.7,0,0,0-11.6.9C82.9,39,65.3,60.5,65.3,88.1c0,15.4,3.2,29.6,12.1,37.2s18.2,10.8,39.5,11.1h-7.7c-7,6.6-11.8,18.9-11.8,29.9,0,16,10.1,19.5,22.6,19.5s22.6-3.4,22.6-19.5c0-11.1-4.9-23.5-12-30.1h-5.2c19.6-.5,28.4-3.6,37.2-11.1s12.1-21.8,12.1-37.2C174.7,60.5,157.1,39,131.3,34.4Z" style="fill:#36c8e3"/>
    <path d="M131.3,34.4a76.8,76.8,0,0,0-11.1-.9,84.7,84.7,0,0,0-11.6.9C82.9,39,65.3,60.5,65.3,88.1c0,15.4,3.2,29.6,12.1,37.2s18.2,10.8,39.5,11.1h-7.7c-7,6.6-11.8,18.9-11.8,29.9,0,16,10.1,19.5,22.6,19.5s22.6-3.4,22.6-19.5c0-11.1-4.9-23.5-12-30.1h-5.2c19.6-.5,28.4-3.6,37.2-11.1s12.1-21.8,12.1-37.2C174.7,60.5,157.1,39,131.3,34.4Z" style="fill:#36c8e3"/>
    <path d="M131.3,34.4a76.8,76.8,0,0,0-11.1-.9,84.7,84.7,0,0,0-11.6.9C82.9,39,65.3,60.5,65.3,88.1c0,15.4,3.2,29.6,12.1,37.2s18.2,10.8,39.5,11.1h-7.7c-7,6.6-11.8,18.9-11.8,29.9,0,16,10.1,19.5,22.6,19.5s22.6-3.4,22.6-19.5c0-11.1-4.9-23.5-12-30.1h-5.2c19.6-.5,28.4-3.6,37.2-11.1s12.1-21.8,12.1-37.2C174.7,60.5,157.1,39,131.3,34.4Z" style="fill:#36c8e3"/>
    <path d="M131.3,34.4a76.8,76.8,0,0,0-11.1-.9,84.7,84.7,0,0,0-11.6.9C82.9,39,65.3,60.5,65.3,88.1c0,15.4,3.2,29.6,12.1,37.2s18.2,10.8,39.5,11.1h-7.7c-7,6.6-11.8,18.9-11.8,29.9,0,16,10.1,19.5,22.6,19.5s22.6-3.4,22.6-19.5c0-11.1-4.9-23.5-12-30.1h-5.2c19.6-.5,28.4-3.6,37.2-11.1s12.1-21.8,12.1-37.2C174.7,60.5,157.1,39,131.3,34.4Z" style="fill:#36c8e3"/>
    <path d="M131.3,34.4a76.8,76.8,0,0,0-11.1-.9,84.7,84.7,0,0,0-11.6.9C82.9,39,65.3,60.5,65.3,88.1c0,15.4,3.2,29.6,12.1,37.2s18.2,10.8,39.5,11.1h-7.7c-7,6.6-11.8,18.9-11.8,29.9,0,16,10.1,19.5,22.6,19.5s22.6-3.4,22.6-19.5c0-11.1-4.9-23.5-12-30.1h-5.2c19.6-.5,28.4-3.6,37.2-11.1s12.1-21.8,12.1-37.2C174.7,60.5,157.1,39,131.3,34.4Z" style="fill:#36c8e3"/>
    <path d="M131.3,34.4a76.8,76.8,0,0,0-11.1-.9,84.7,84.7,0,0,0-11.6.9C82.9,39,65.3,60.5,65.3,88.1c0,15.4,3.2,29.6,12.1,37.2s18.2,10.8,39.5,11.1h-7.7c-7,6.6-11.8,18.9-11.8,29.9,0,16,10.1,19.5,22.6,19.5s22.6-3.4,22.6-19.5c0-11.1-4.9-23.5-12-30.1h-5.2c19.6-.5,28.4-3.6,37.2-11.1s12.1-21.8,12.1-37.2C174.7,60.5,157.1,39,131.3,34.4Z" style="fill:#36c8e3"/>
    <path d="M131.3,34.4a76.8,76.8,0,0,0-11.1-.9,84.7,84.7,0,0,0-11.6.9C82.9,39,65.3,60.5,65.3,88.1c0,15.4,3.2,29.6,12.1,37.2s18.2,10.8,39.5,11.1h-7.7c-7,6.6-11.8,18.9-11.8,29.9,0,16,10.1,19.5,22.6,19.5s22.6-3.4,22.6-19.5c0-11.1-4.9-23.5-12-30.1h-5.2c19.6-.5,28.4-3.6,37.2-11.1s12.1-21.8,12.1-37.2C174.7,60.5,157.1,39,131.3,34.4Z" style="fill:#36c8e3"/>
    <path d="M131.3,34.4a76.8,76.8,0,0,0-11.1-.9,84.7,84.7,0,0,0-11.6.9C82.9,39,65.3,60.5,65.3,88.1c0,15.4,3.2,29.6,12.1,37.2s18.2,10.8,39.5,11.1h-7.7c-7,6.6-11.8,18.9-11.8,29.9,0,16,10.1,19.5,22.6,19.5s22.6-3.4,22.6-19.5c0-11.1-4.9-23.5-12-30.1h-5.2c19.6-.5,28.4-3.6,37.2-11.1s12.1-21.8,12.1-37.2C174.7,60.5,157.1,39,131.3,34.4Z" style="fill:#36c8e3"/>
    <path d="M125.4,136.4c19.6-.5,28.4-3.6,37.2-11.1s12.1-21.8,12.1-37.2c0-27.7-17.6-49.2-43.4-53.7a76.8,76.8,0,0,0-11.1-.9,84.7,84.7,0,0,0-11.6.9C82.9,39,65.3,60.5,65.3,88.1c0,15.4,3.2,29.6,12.1,37.2s18.2,10.8,39.5,11.1Z" style="fill:none;stroke:#1d132d;stroke-miterlimit:10;stroke-width:2px"/>
    <path d="M109.2,136.5c-7,6.6-11.8,18.9-11.8,29.9,0,16,10.1,19.5,22.6,19.5s22.6-3.4,22.6-19.5c0-11.1-4.9-23.5-12-30.1" style="fill:none;stroke:#1d132d;stroke-miterlimit:10;stroke-width:2px"/>
    <path d="M130.9,136.7c-3.4.7-18,.5-21.3-.1h-.4c-7,6.6-11.8,18.9-11.8,29.9,0,16,10.1,19.5,22.6,19.5s22.6-3.4,22.6-19.5C142.6,155.5,137.8,143.3,130.9,136.7Z" style="fill:#36c8e3"/>
    <path d="M130.5,136.2c-3.1.3-6.1.6-9.4.6a111.1,111.1,0,0,1-12.3-.4L102,146a41,41,0,0,0,17.6,3.6,40.7,40.7,0,0,0,17.8-3.7C137.2,145.6,130.9,136.7,130.5,136.2Z" style="fill:#180621;opacity:0.15"/>
    <path d="M109.5,136.3l-.6.5c-6.9,6.7-11.5,18.8-11.5,29.6,0,16,10.1,19.5,22.6,19.5s22.6-3.4,22.6-19.5c0-11-4.8-23.3-11.8-29.9l-.2-.2" style="fill:none;stroke:#1d132d;stroke-linecap:round;stroke-linejoin:round;stroke-width:2px"/>
    <path d="M97.9,168h44.2C129.9,151.6,110.1,151.6,97.9,168Z" style="fill:#ffde00"/>
    <path d="M97.9,168h44.2C129.9,151.6,110.1,151.6,97.9,168Z" style="fill:none;stroke:#1d132d;stroke-linecap:round;stroke-linejoin:round;stroke-width:2px"/>
    <line x1="103.8" y1="161.9" x2="136.4" y2="161.9" style="fill:none;stroke:#1d132d;stroke-linecap:round;stroke-linejoin:round;stroke-width:2px"/>
    <path d="M132.4,159.2a24.1,24.1,0,0,0-24.9,0Z" style="fill:#180621;opacity:0.15"/>
    <path d="M134.7,160.6v.9H105v-.7a32.5,32.5,0,0,0-4.9,4.5h39.9A32.4,32.4,0,0,0,134.7,160.6Z" style="fill:#180621;opacity:0.15"/>
    <g style="opacity:0.30000000000000004">
      <path d="M108.7,44.1a84.7,84.7,0,0,1,11.6-.9,76.8,76.8,0,0,1,11.1.9c24.4,4.3,41.5,23.9,43.2,49.5q.1-2.7.1-5.5c0-27.7-17.6-49.2-43.4-53.7a76.8,76.8,0,0,0-11.1-.9,84.7,84.7,0,0,0-11.6.9C82.9,39,65.3,60.5,65.3,88.1q0,2.8.1,5.5C67.1,68,84.3,48.4,108.7,44.1Z" style="fill:#fff"/>
    </g>
    <path d="M125.4,136.4c19.6-.5,28.4-3.6,37.2-11.1s12.1-21.8,12.1-37.2c0-27.7-17.6-49.2-43.4-53.7a76.8,76.8,0,0,0-11.1-.9,84.7,84.7,0,0,0-11.6.9C82.9,39,65.3,60.5,65.3,88.1c0,15.4,3.2,29.6,12.1,37.2s18.2,10.8,39.5,11.1Z" style="fill:none;stroke:#1d132d;stroke-miterlimit:10;stroke-width:2px"/>
    <path d="M109.2,136.5c-7,6.6-11.8,18.9-11.8,29.9,0,16,10.1,19.5,22.6,19.5s22.6-3.4,22.6-19.5c0-11.1-4.9-23.5-12-30.1" style="fill:none;stroke:#1d132d;stroke-miterlimit:10;stroke-width:2px"/>
    <g style="opacity:0.30000000000000004">
      <path d="M108.7,44.1a84.7,84.7,0,0,1,11.6-.9,76.8,76.8,0,0,1,11.1.9c24.4,4.3,41.5,23.9,43.2,49.5q.1-2.7.1-5.5c0-27.7-17.6-49.2-43.4-53.7a76.8,76.8,0,0,0-11.1-.9,84.7,84.7,0,0,0-11.6.9C82.9,39,65.3,60.5,65.3,88.1q0,2.8.1,5.5C67.1,68,84.3,48.4,108.7,44.1Z" style="fill:#fff"/>
    </g>
    <path d="M125.4,136.4c19.6-.5,28.4-3.6,37.2-11.1s12.1-21.8,12.1-37.2c0-27.7-17.6-49.2-43.4-53.7a76.8,76.8,0,0,0-11.1-.9,84.7,84.7,0,0,0-11.6.9C82.9,39,65.3,60.5,65.3,88.1c0,15.4,3.2,29.6,12.1,37.2s18.2,10.8,39.5,11.1Z" style="fill:none;stroke:#1d132d;stroke-miterlimit:10;stroke-width:2px"/>
  </g>
  <g>
    <title>04</title>
    <g style="isolation:isolate">
      <path d="M120.2,136.4c26.6,0,36.1-3.6,44.2-9.9l1.7-1.5c11-10.8,8.2-26.2,8.2-26.2l-12.7,15-12.4-9.3-14.6,13.3-14.5-11.3h-.2l-14.5,11.3L90.8,104.5l-12.4,9.3-12.7-15S63,114.3,74,125l1.7,1.5c8.1,6.3,17.6,10.1,44.2,10.1" style="fill:#dce3ea"/>
      <path d="M65.8,103.5l12.7,15,12.4-9.3,14.6,13.3,14.5-11.3h.2l14.5,11.3,14.6-13.3,12.4,9.3,12.7-15s.1.8.2,2.2a31.3,31.3,0,0,0-.2-6.9l-12.7,15-12.4-9.3-14.6,13.3-14.5-11.3h-.2l-14.5,11.3L90.8,104.5l-12.4,9.3-12.7-15a31.3,31.3,0,0,0-.2,6.9C65.7,104.3,65.8,103.5,65.8,103.5Z" style="fill:#fff;opacity:0.5"/>
      <path d="M166.1,119.1l-1.7,1.5c-8.1,6.3-17.6,9.4-44.2,9.4h-.4c-26.6,0-36.1-3.1-44.2-9.4L74,119.1a29.2,29.2,0,0,1-8.4-18.7c-.4,4.2-.5,15.9,8.4,24.6l1.7,1.5c8.1,6.3,17.6,9.4,44.2,9.4h.4c26.6,0,36.1-3.1,44.2-9.4l1.7-1.5c8.9-8.7,8.7-20.4,8.4-24.6A29.2,29.2,0,0,1,166.1,119.1Z" style="fill:#180621;opacity:0.15;mix-blend-mode:multiply"/>
      <path d="M120.2,136.6c26.6,0,36.1-4,44.2-10.3l1.7-1.4c11-10.7,8.2-26,8.2-26l-12.7,14.9-12.4-9.3-14.6,13.2-14.5-11.2h-.2l-14.5,11.2L90.8,104.4l-12.4,9.3L65.8,98.8s-2.8,15.4,8.2,26l1.7,1.4c8.1,6.3,17.6,10.3,44.2,10.3" style="fill:none;stroke:#1d132d;stroke-linecap:round;stroke-linejoin:round;stroke-width:2px"/>
    </g>
  </g>
  <g>
    <title>04</title>
    <circle cx="147.9" cy="86.7" r="13.7" style="fill:#ff81a2"/>
    <path d="M148.6,72.6c-7.5,0-13.1,4.6-14.4,11.9a26.2,26.2,0,0,0,.2,6.4,17.4,17.4,0,0,1,1.8-3.9,19.6,19.6,0,0,1,4.9-5.4h0l1.5-1h0l1.6-.9h0l1.7-.7h0l1.7-.6a17.5,17.5,0,0,1,4.6-.6,18,18,0,0,1,7.7,1.7C157.4,75.4,153,72.6,148.6,72.6Z" style="fill:#180621;opacity:0.15"/>
    <path d="M147.5,72.2c8,.4,13.9,7.1,14.3,15a13.9,13.9,0,0,1-4.4,10.5c9.2-7.4,11-25,11-25S156.9,70.2,147.5,72.2Z" style="fill:#1d132d"/>
    <circle cx="147.9" cy="86.7" r="13.7" style="fill:none;stroke:#1d132d;stroke-linecap:round;stroke-linejoin:round;stroke-width:2px"/>
    <path d="M143,73.8c9.5-4.2,25.1-1,25.1-1s-2.9,27.7-19.5,27.7" style="fill:none;stroke:#1d132d;stroke-linecap:round;stroke-linejoin:round;stroke-width:2px"/>
    <circle cx="92.1" cy="86.7" r="13.7" style="fill:#ff81a2"/>
    <path d="M91.4,72.6c7.5,0,13.1,4.6,14.4,11.9a26.2,26.2,0,0,1-.2,6.4,17.4,17.4,0,0,0-1.8-3.9,19.6,19.6,0,0,0-4.9-5.4h0l-1.5-1h0l-1.6-.9h0L94,79h0l-1.7-.6a17.5,17.5,0,0,0-4.6-.6A18,18,0,0,0,80,79.5C82.5,75.4,86.9,72.6,91.4,72.6Z" style="fill:#180621;opacity:0.15"/>
    <path d="M92.4,72.2c-8,.4-13.9,7.1-14.3,15a13.9,13.9,0,0,0,4.4,10.5c-9.2-7.4-11-25-11-25S83.1,70.2,92.4,72.2Z" style="fill:#1d132d"/>
    <circle cx="92.1" cy="86.7" r="13.7" style="fill:none;stroke:#1d132d;stroke-linecap:round;stroke-linejoin:round;stroke-width:2px"/>
    <path d="M96.9,73.8c-9.5-4.2-25.1-1-25.1-1s2.9,27.7,19.5,27.7" style="fill:none;stroke:#1d132d;stroke-linecap:round;stroke-linejoin:round;stroke-width:2px"/>
  </g>
  <g>
    <title>05</title>
    <path d="M120.1,58.2h0l13.5-13.1,3.6-9A52.4,52.4,0,0,0,120,33.5a58.2,58.2,0,0,0-16.7,2.3l3.4,9.3Z" style="fill:#dce3ea"/>
    <path d="M80.9,48.9a50.6,50.6,0,0,1,20-12l1.4-.8V14.8h-12L79.5,49.8l1.1-.7Z" style="fill:#2e4159"/>
    <polygon points="102.3 20.3 102.3 14.8 90.3 14.8 88.6 20.3 102.3 20.3" style="fill:#dce3ea"/>
    <path d="M159.3,48.9a50.6,50.6,0,0,0-20-12l-1.4-.8V14.8h12l10.8,35.1-1.1-.7Z" style="fill:#2e4159"/>
    <polygon points="137.9 20.3 137.9 14.8 149.9 14.8 151.6 20.3 137.9 20.3" style="fill:#dce3ea"/>
    <line x1="89.2" y1="20" x2="101.8" y2="20" style="fill:none;stroke:#1d132d;stroke-linecap:round;stroke-linejoin:round;stroke-width:2px"/>
    <polyline points="106.6 45.1 120.1 58.2 120.1 58.2 133.6 45.1" style="fill:none;stroke:#1d132d;stroke-linecap:round;stroke-linejoin:round;stroke-width:2px"/>
    <line x1="113.5" y1="51.4" x2="126.6" y2="51.4" style="fill:none;stroke:#1d132d;stroke-linecap:round;stroke-linejoin:round;stroke-width:2px"/>
    <line x1="107.6" y1="45.5" x2="132.5" y2="45.6" style="fill:none;stroke:#1d132d;stroke-linecap:round;stroke-linejoin:round;stroke-width:2px"/>
    <line x1="135.2" y1="39.6" x2="104.8" y2="39.6" style="fill:none;stroke:#1d132d;stroke-linecap:round;stroke-linejoin:round;stroke-width:2px"/>
    <line x1="106.4" y1="44.9" x2="102.3" y2="35.5" style="fill:none;stroke:#1d132d;stroke-linecap:round;stroke-linejoin:round;stroke-width:2px"/>
    <line x1="150.9" y1="20.1" x2="138.3" y2="20.1" style="fill:none;stroke:#1d132d;stroke-linecap:round;stroke-linejoin:round;stroke-width:2px"/>
    <line x1="133.7" y1="45" x2="137.8" y2="35.6" style="fill:none;stroke:#1d132d;stroke-linecap:round;stroke-linejoin:round;stroke-width:2px"/>
    <polyline points="79.5 49.8 90.3 14.8 102.3 14.8 102.3 36" style="fill:none;stroke:#1d132d;stroke-linecap:round;stroke-linejoin:round;stroke-width:2px"/>
    <polyline points="160.6 50 149.9 14.9 137.9 14.9 137.9 36.1" style="fill:none;stroke:#1d132d;stroke-linecap:round;stroke-linejoin:round;stroke-width:2px"/>
    <path d="M160.7,50.3a51.5,51.5,0,0,0-29.4-15.9,76.8,76.8,0,0,0-11.1-.9,84.7,84.7,0,0,0-11.6.9A51.5,51.5,0,0,0,79.6,50" style="fill:none;stroke:#1d132d;stroke-linecap:round;stroke-linejoin:round;stroke-width:2px"/>
  </g>
</svg>