<svg xmlns="http://www.w3.org/2000/svg" xmlns:xlink="http://www.w3.org/1999/xlink" viewBox="0 0 240 240">
  <ellipse cx="120.5" cy="233.4" rx="43.7" ry="4.9" style="fill:#180621;opacity:0.15"/>
  <g>
    <title>04</title>
    <g style="isolation:isolate">
      <path d="M91.7,195.2h0l.6,25.8h-.1c-.4.3-.7,1.8-.2,2.7a14.4,14.4,0,0,0-4.6,7.6,1.9,1.9,0,0,0,1.3,2.2,44.7,44.7,0,0,0,12.6,1.4c9.5,0,14.5-2,14.5-2v-.6l.2-.4V208.3h0A19.5,19.5,0,0,0,91.7,195.2Z" style="fill:#dce3ea"/>
      <path d="M115.2,204V182.2l-13.7-1.8v14.3l.7.5C106.4,196.8,112,201,115.2,204Z" style="fill:#dce3ea"/>
      <path d="M89,227.6c8.2-9.2,23.2-10.1,27,4.1V208.3h0a19.5,19.5,0,0,0-24.2-13.1h0l.6,25.8h-.1c-.4.3-.7,1.8-.2,2.7A14.6,14.6,0,0,0,89,227.6Z" style="fill:#2e4159"/>
      <polyline points="101.6 194.4 101.6 180.4 116 180.4 116 209.3" style="fill:none;stroke:#1d132d;stroke-linecap:round;stroke-linejoin:round;stroke-width:2px"/>
      <path d="M115.9,232.7V208.3h0a19.5,19.5,0,0,0-24.2-13.1h0l.7,27.7" style="fill:none;stroke:#1d132d;stroke-linecap:round;stroke-linejoin:round;stroke-width:2px"/>
      <ellipse cx="99" cy="222.7" rx="4.7" ry="3" style="fill:#fff;opacity:0.5"/>
      <path d="M115.5,205.2v-7.4a25.6,25.6,0,0,0-13.2-8.3v5.4C106.9,197,111.9,201.5,115.5,205.2Z" style="fill:#180621;opacity:0.15;mix-blend-mode:multiply"/>
      <path d="M115.9,232.9a14.4,14.4,0,0,0-28.4-1.6,1.9,1.9,0,0,0,1.3,2.2,44.7,44.7,0,0,0,12.6,1.4C110.8,234.9,115.9,232.9,115.9,232.9Z" style="fill:none;stroke:#1d132d;stroke-linecap:round;stroke-linejoin:round;stroke-width:2px"/>
      <path d="M103.6,213.3h-.8A15.2,15.2,0,0,0,92.4,217" style="fill:none;stroke:#1d132d;stroke-linecap:round;stroke-linejoin:round;stroke-width:2px"/>
      <path d="M103.6,206.4h-.8a15.2,15.2,0,0,0-10.4,3.7" style="fill:none;stroke:#1d132d;stroke-linecap:round;stroke-linejoin:round;stroke-width:2px"/>
      <path d="M101.5,230.2a44.7,44.7,0,0,1-12.6-1.4l-.4-.2a14.3,14.3,0,0,0-.9,2.7,1.9,1.9,0,0,0,1.3,2.2,44.7,44.7,0,0,0,12.6,1.4c9.5,0,14.5-2,14.5-2a14.3,14.3,0,0,0-1.2-4.4A48.8,48.8,0,0,1,101.5,230.2Z" style="fill:#180621;opacity:0.15"/>
      <path d="M152.8,231.3a14.4,14.4,0,0,0-4.6-7.6c.5-.9.2-2.4-.2-2.7h-.1l.6-25.8h0a19.5,19.5,0,0,0-24.2,13.1h0V232l.2.4v.6s5.1,2,14.5,2a44.7,44.7,0,0,0,12.6-1.4A1.9,1.9,0,0,0,152.8,231.3Z" style="fill:#dce3ea"/>
      <path d="M124.3,232h.1a3.2,3.2,0,0,1,.3-.9c2.7-5.5,6.4-10.6,13.1-11a18.1,18.1,0,0,1,10.7,2.7,2.3,2.3,0,0,0-.4-1.9h-.1l.6-25.8h0a19.5,19.5,0,0,0-24.2,13.1h0Z" style="fill:#2e4159"/>
      <ellipse cx="141" cy="222.7" rx="4.7" ry="3" style="fill:#fff;opacity:0.5"/>
      <path d="M125.1,204V182.2l13.7-1.8v14.3l-.7.5C133.8,196.8,128.3,201,125.1,204Z" style="fill:#dce3ea"/>
      <polyline points="138.7 194.4 138.7 180.4 124.3 180.4 124.3 209.3" style="fill:none;stroke:#1d132d;stroke-linecap:round;stroke-linejoin:round;stroke-width:2px"/>
      <path d="M124.3,232.7V208.3h0a19.5,19.5,0,0,1,24.2-13.1h0l-.7,27.7" style="fill:none;stroke:#1d132d;stroke-linecap:round;stroke-linejoin:round;stroke-width:2px"/>
      <path d="M124.8,205.2v-7.4a25.6,25.6,0,0,1,13.2-8.3v5.4C133.4,197,128.3,201.5,124.8,205.2Z" style="fill:#180621;opacity:0.15;mix-blend-mode:multiply"/>
      <path d="M124.4,232.9a14.4,14.4,0,0,1,28.4-1.6,1.9,1.9,0,0,1-1.3,2.2,44.7,44.7,0,0,1-12.6,1.4C129.5,234.9,124.4,232.9,124.4,232.9Z" style="fill:none;stroke:#1d132d;stroke-linecap:round;stroke-linejoin:round;stroke-width:2px"/>
      <path d="M136.7,213.3h.8a15.2,15.2,0,0,1,10.4,3.7" style="fill:none;stroke:#1d132d;stroke-linecap:round;stroke-linejoin:round;stroke-width:2px"/>
      <path d="M136.7,206.4h.8a15.2,15.2,0,0,1,10.4,3.7" style="fill:none;stroke:#1d132d;stroke-linecap:round;stroke-linejoin:round;stroke-width:2px"/>
      <path d="M138.8,230.2a44.7,44.7,0,0,0,12.6-1.4l.4-.2a14.3,14.3,0,0,1,.9,2.7,1.9,1.9,0,0,1-1.3,2.2,44.7,44.7,0,0,1-12.6,1.4c-9.5,0-14.5-2-14.5-2a14.3,14.3,0,0,1,1.2-4.4A48.8,48.8,0,0,0,138.8,230.2Z" style="fill:#180621;opacity:0.15"/>
    </g>
  </g>
  <g>
    <title>02</title>
    <path d="M74.3,169.3c-5.7-2.6-9.8-6.4-10.6-9.4a32.3,32.3,0,0,0-3,5.1h0c-1.4,3.1,3.3,8.3,10.5,11.7s14.3,3.6,15.7.5h0a32.6,32.6,0,0,0,2.1-6.2C86.5,172.7,80.5,172.1,74.3,169.3Z" style="fill:#dce3ea"/>
    <ellipse cx="81.7" cy="154" rx="3.5" ry="8.3" transform="translate(-92.4 163) rotate(-65)" style="fill:#dce3ea"/>
    <path d="M165.8,169.5c5.7-2.6,9.8-6.4,10.6-9.4a32.3,32.3,0,0,1,3,5.1h0c1.4,3.1-3.3,8.3-10.5,11.7s-14.3,3.6-15.7.5h0a32.6,32.6,0,0,1-2.1-6.2C153.7,173,159.7,172.4,165.8,169.5Z" style="fill:#dce3ea"/>
    <ellipse cx="158.4" cy="154.3" rx="8.3" ry="3.5" transform="translate(-50.4 81.4) rotate(-25)" style="fill:#dce3ea"/>
    <g style="opacity:0.15">
      <path d="M74.3,169.3c-5.7-2.6-9.8-6.4-10.6-9.4a32.3,32.3,0,0,0-3,5.1h0c-1.4,3.1,3.3,8.3,10.5,11.7s14.3,3.6,15.7.5h0a32.6,32.6,0,0,0,2.1-6.2C86.5,172.7,80.5,172.1,74.3,169.3Z" style="fill:#180621"/>
      <ellipse cx="81.7" cy="154" rx="3.5" ry="8.3" transform="translate(-92.4 163) rotate(-65)" style="fill:#180621"/>
      <path d="M165.8,169.5c5.7-2.6,9.8-6.4,10.6-9.4a32.3,32.3,0,0,1,3,5.1h0c1.4,3.1-3.3,8.3-10.5,11.7s-14.3,3.6-15.7.5h0a32.6,32.6,0,0,1-2.1-6.2C153.7,173,159.7,172.4,165.8,169.5Z" style="fill:#180621"/>
      <ellipse cx="158.4" cy="154.3" rx="8.3" ry="3.5" transform="translate(-50.4 81.4) rotate(-25)" style="fill:#180621"/>
    </g>
    <path d="M74.3,152.5a7.1,7.1,0,0,1-1.1-1.7A35.3,35.3,0,0,0,62.3,162a34.1,34.1,0,0,0,26.4,10.2,34.9,34.9,0,0,0,1-13.8C84,159.7,78.1,157,74.3,152.5Z" style="fill:#dce3ea"/>
    <path d="M88.7,172.2a33.4,33.4,0,0,0,.7-15.8l-.3-.2a15.6,15.6,0,0,1-14,9.5,14.6,14.6,0,0,1-11.5-5.6L62.3,162C69.4,169,78.8,173,88.7,172.2Z" style="fill:#180621;opacity:0.15"/>
    <path d="M100.2,155.3a11,11,0,0,1,8.1-18.3h1.8" style="fill:#2e4159"/>
    <path d="M75.7,178.9c-1.2,2.5-5.6,6.8-8.1,5.6s-2.1-7.2-1-9.8" style="fill:#2e4159"/>
    <path d="M63.1,172.4c-2.7.7-8.8.5-9.3-1.6s4.3-5.1,6.6-5.9" style="fill:#2e4159"/>
    <path d="M79.6,180.1c1.2,2.5,5.3,7,7.2,6.1s1.2-6.6.2-8.8" style="fill:#2e4159"/>
    <path d="M164.7,179c1.2,2.5,5.6,6.8,8.1,5.6s2.1-7.2,1-9.8" style="fill:#2e4159"/>
    <path d="M177.2,172.5c2.7.7,8.8.5,9.3-1.6s-4.3-5.1-6.6-5.9" style="fill:#2e4159"/>
    <path d="M160.7,180.1c-1.2,2.5-5.3,7-7.2,6.1s-1.2-6.6-.2-8.8" style="fill:#2e4159"/>
    <path d="M160.6,171.9l2.5-.8,4.4-2.1a24.1,24.1,0,0,0,9.3-8.2,35,35,0,0,0-10.2-10.2c-3.1,5.7-10,8.9-16.2,6.7a33.9,33.9,0,0,0,.9,14.7C154.7,173.1,157.6,172.4,160.6,171.9Z" style="fill:#dce3ea"/>
    <path d="M160.6,171.9l2.5-.8,4.4-2.1a24.1,24.1,0,0,0,9.3-8.2l-.4-.7a14.6,14.6,0,0,1-11.5,5.6,15.7,15.7,0,0,1-13.3-8l-1.3-.4a33.9,33.9,0,0,0,.9,14.7C154.7,173.2,156.2,172.8,160.6,171.9Z" style="fill:#180621;opacity:0.15"/>
    <path d="M139.8,155.3a11,11,0,0,0-8.1-18.3h-1.8" style="fill:#2e4159"/>
    <path d="M86.4,177.3c-1.4,3.1-8.5,2.8-15.7-.5s-11.9-8.6-10.5-11.7h0" style="fill:none;stroke:#1d132d;stroke-linecap:round;stroke-linejoin:round;stroke-width:2px"/>
    <path d="M88.5,171.1c-2.3,2-8.3,1.5-14.5-1.4s-10.3-7-10.4-10" style="fill:none;stroke:#1d132d;stroke-linecap:round;stroke-linejoin:round;stroke-width:2px"/>
    <ellipse cx="81.3" cy="154" rx="3.5" ry="8.3" transform="translate(-92.7 162.6) rotate(-65)" style="fill:none;stroke:#1d132d;stroke-linecap:round;stroke-linejoin:round;stroke-width:2px"/>
    <path d="M60.3,165c2.9-6.1,8.6-12.4,14.3-15.2" style="fill:none;stroke:#1d132d;stroke-linecap:round;stroke-linejoin:round;stroke-width:2px"/>
    <path d="M86.5,177.2c2.9-6.1,3.9-14.6,2.5-20.8" style="fill:none;stroke:#1d132d;stroke-linecap:round;stroke-linejoin:round;stroke-width:2px"/>
    <path d="M75.2,178.9c-1.2,2.5-5.6,6.8-8.1,5.6s-2.1-7.2-1-9.8" style="fill:none;stroke:#1d132d;stroke-linecap:round;stroke-linejoin:round;stroke-width:2px"/>
    <path d="M62.7,172.4c-2.7.7-8.8.5-9.3-1.6s4.3-5.1,6.6-5.9" style="fill:none;stroke:#1d132d;stroke-linecap:round;stroke-linejoin:round;stroke-width:2px"/>
    <path d="M79.2,180.1c1.2,2.5,5.3,7,7.2,6.1s1.2-6.6.2-8.8" style="fill:none;stroke:#1d132d;stroke-linecap:round;stroke-linejoin:round;stroke-width:2px"/>
    <line x1="67.6" y1="166.8" x2="65" y2="172.6" style="fill:none;stroke:#1d132d;stroke-linecap:round;stroke-linejoin:round;stroke-width:2px"/>
    <line x1="80" y1="172.6" x2="77.3" y2="178.3" style="fill:none;stroke:#1d132d;stroke-linecap:round;stroke-linejoin:round;stroke-width:2px"/>
    <path d="M100.2,155.3a11,11,0,0,1,8.1-18.3h1.8" style="fill:none;stroke:#1d132d;stroke-linecap:round;stroke-linejoin:round;stroke-width:2px"/>
    <path d="M153.6,177.3c1.4,3.1,8.5,2.8,15.7-.5s11.9-8.6,10.5-11.7h0" style="fill:none;stroke:#1d132d;stroke-linecap:round;stroke-linejoin:round;stroke-width:2px"/>
    <path d="M151.5,171.1c2.3,2,8.3,1.5,14.5-1.4s10.3-7,10.4-10" style="fill:none;stroke:#1d132d;stroke-linecap:round;stroke-linejoin:round;stroke-width:2px"/>
    <ellipse cx="158.7" cy="154" rx="8.3" ry="3.5" transform="translate(-50.2 81.5) rotate(-25)" style="fill:none;stroke:#1d132d;stroke-linecap:round;stroke-linejoin:round;stroke-width:2px"/>
    <path d="M179.7,165c-2.9-6.1-8.6-12.4-14.3-15.2" style="fill:none;stroke:#1d132d;stroke-linecap:round;stroke-linejoin:round;stroke-width:2px"/>
    <path d="M153.5,177.2c-2.9-6.1-3.9-14.6-2.5-20.8" style="fill:none;stroke:#1d132d;stroke-linecap:round;stroke-linejoin:round;stroke-width:2px"/>
    <path d="M164.7,178.9c1.2,2.5,5.6,6.8,8.1,5.6s2.1-7.2,1-9.8" style="fill:none;stroke:#1d132d;stroke-linecap:round;stroke-linejoin:round;stroke-width:2px"/>
    <path d="M177.3,172.4c2.7.7,8.8.5,9.3-1.6s-4.3-5.1-6.6-5.9" style="fill:none;stroke:#1d132d;stroke-linecap:round;stroke-linejoin:round;stroke-width:2px"/>
    <path d="M160.8,180.1c-1.2,2.5-5.3,7-7.2,6.1s-1.2-6.6-.2-8.8" style="fill:none;stroke:#1d132d;stroke-linecap:round;stroke-linejoin:round;stroke-width:2px"/>
    <line x1="172.3" y1="166.8" x2="175" y2="172.6" style="fill:none;stroke:#1d132d;stroke-linecap:round;stroke-linejoin:round;stroke-width:2px"/>
    <line x1="160" y1="172.6" x2="162.6" y2="178.3" style="fill:none;stroke:#1d132d;stroke-linecap:round;stroke-linejoin:round;stroke-width:2px"/>
    <path d="M139.8,155.3a11,11,0,0,0-8.1-18.3h-1.8" style="fill:none;stroke:#1d132d;stroke-linecap:round;stroke-linejoin:round;stroke-width:2px"/>
  </g>
  <g>
    <title>01</title>
    <path d="M174.4,95.5l-1.6-19.7,22.3-33.5C199.2,87.8,174.4,95.5,174.4,95.5Z" style="fill:#2e4159"/>
    <path d="M193.7,83.6c-3.7,21.9-20.7,21-20.7,21l1.4-9.1,9.6-6.7Z" style="fill:#2e4159"/>
    <g style="opacity:0.5">
      <path d="M176.4,70.3c2.6,1.2,11.6,4.4,8,18.1-.7,2.7-7.3,5.6-9.7,7.4l-1.9-20Z" style="fill:#fff"/>
    </g>
    <g style="opacity:0.5">
      <path d="M179.6,88.3a18.9,18.9,0,0,0-5.7-14.1l2.6-3.9c2.6,1.2,11.6,4.4,8,18.1-.5,1.7-3.1,3.4-5.7,4.9A22.7,22.7,0,0,0,179.6,88.3Z" style="fill:#fff"/>
    </g>
    <path d="M172.8,75.8l22.3-33.5c4.2,45.6-20.7,53.3-20.7,53.3" style="fill:none;stroke:#1d132d;stroke-linecap:round;stroke-linejoin:round;stroke-width:2px"/>
    <path d="M184,88.8l9.7-5.2c-3.7,21.9-20.7,21-20.7,21" style="fill:none;stroke:#1d132d;stroke-linecap:round;stroke-linejoin:round;stroke-width:2px"/>
    <path d="M184.3,88.3c3.8-10.7-3.2-17.3-7.9-17.2" style="fill:none;stroke:#1d132d;stroke-linecap:round;stroke-linejoin:round;stroke-width:2px"/>
    <path d="M65.7,95.5l1.6-19.7L45,42.3C40.8,87.8,65.7,95.5,65.7,95.5Z" style="fill:#2e4159"/>
    <path d="M46.4,83.6c3.7,21.9,20.7,21,20.7,21l-1.4-9.1-9.6-6.7Z" style="fill:#2e4159"/>
    <g style="opacity:0.5">
      <path d="M63.6,70.3c-2.6,1.2-11.6,4.4-8,18.1.7,2.7,7.3,5.6,9.8,7.4l1.9-20Z" style="fill:#fff"/>
    </g>
    <g style="opacity:0.5">
      <path d="M60.5,88.3a18.9,18.9,0,0,1,5.7-14.1l-2.6-3.9c-2.6,1.2-11.6,4.4-8,18.1.5,1.7,3.1,3.4,5.7,4.9A22.7,22.7,0,0,1,60.5,88.3Z" style="fill:#fff"/>
    </g>
    <path d="M67.3,75.8,45,42.3C40.8,87.8,65.7,95.5,65.7,95.5" style="fill:none;stroke:#1d132d;stroke-linecap:round;stroke-linejoin:round;stroke-width:2px"/>
    <path d="M56.1,88.8l-9.7-5.2c3.7,21.9,20.7,21,20.7,21" style="fill:none;stroke:#1d132d;stroke-linecap:round;stroke-linejoin:round;stroke-width:2px"/>
    <path d="M55.8,88.3C51.9,77.6,58.9,70.9,63.7,71" style="fill:none;stroke:#1d132d;stroke-linecap:round;stroke-linejoin:round;stroke-width:2px"/>
  </g>
  <g>
    <title>02</title>
    <path d="M125.4,136.4c19.6-.5,28.4-3.6,37.2-11.1s12.1-21.8,12.1-37.2c0-27.7-17.6-49.2-43.4-53.7a76.8,76.8,0,0,0-11.1-.9,84.7,84.7,0,0,0-11.6.9C82.9,39,65.3,60.5,65.3,88.1c0,15.4,3.2,29.6,12.1,37.2s18.2,10.8,39.5,11.1Z" style="fill:#ff81a2;stroke:#1d132d;stroke-miterlimit:10;stroke-width:2px"/>
    <path d="M109.2,136.5c-7,6.6-11.8,18.9-11.8,29.9,0,16,10.1,19.5,22.6,19.5s22.6-3.4,22.6-19.5c0-11.1-4.9-23.5-12-30.1" style="fill:#ff81a2;stroke:#1d132d;stroke-miterlimit:10;stroke-width:2px"/>
    <path d="M130.9,136.7c-3.4.7-18,.5-21.3-.1h-.4c-7,6.6-11.8,18.9-11.8,29.9,0,16,10.1,19.5,22.6,19.5s22.6-3.4,22.6-19.5C142.6,155.5,137.8,143.3,130.9,136.7Z" style="fill:#ff81a2"/>
    <path d="M130.5,136.2c-3.1.3-6.1.6-9.4.6a111.1,111.1,0,0,1-12.3-.4L102,146a41,41,0,0,0,17.6,3.6,40.7,40.7,0,0,0,17.8-3.7C137.2,145.6,130.9,136.7,130.5,136.2Z" style="fill:#180621;opacity:0.15"/>
    <polyline points="136.4 144.4 108.9 184.4 101.7 179.9 131 137.6" style="fill:#36c8e3"/>
    <polyline points="103.2 145.2 130.4 184.2 138 180.4 108.3 137.7" style="fill:#36c8e3"/>
    <line x1="108.5" y1="137.7" x2="137.8" y2="180.2" style="fill:none;stroke:#1d132d;stroke-linecap:round;stroke-linejoin:round;stroke-width:2px"/>
    <line x1="103.1" y1="144.7" x2="130.5" y2="184.3" style="fill:none;stroke:#1d132d;stroke-linecap:round;stroke-linejoin:round;stroke-width:2px"/>
    <line x1="114.5" y1="161.4" x2="101.7" y2="179.9" style="fill:none;stroke:#1d132d;stroke-linecap:round;stroke-linejoin:round;stroke-width:2px"/>
    <line x1="130.7" y1="138" x2="119.9" y2="153.7" style="fill:none;stroke:#1d132d;stroke-linecap:round;stroke-linejoin:round;stroke-width:2px"/>
    <line x1="119.5" y1="168.9" x2="108.9" y2="184.4" style="fill:none;stroke:#1d132d;stroke-linecap:round;stroke-linejoin:round;stroke-width:2px"/>
    <line x1="136.4" y1="144.4" x2="124.9" y2="161.1" style="fill:none;stroke:#1d132d;stroke-linecap:round;stroke-linejoin:round;stroke-width:2px"/>
    <path d="M109.5,136.3l-.6.5c-6.9,6.7-11.5,18.8-11.5,29.6,0,16,10.1,19.5,22.6,19.5s22.6-3.4,22.6-19.5c0-11-4.8-23.3-11.8-29.9l-.2-.2" style="fill:none;stroke:#1d132d;stroke-linecap:round;stroke-linejoin:round;stroke-width:2px"/>
    <g style="opacity:0.30000000000000004">
      <path d="M108.7,44.1a84.7,84.7,0,0,1,11.6-.9,76.8,76.8,0,0,1,11.1.9c24.4,4.3,41.5,23.9,43.2,49.5q.1-2.7.1-5.5c0-27.7-17.6-49.2-43.4-53.7a76.8,76.8,0,0,0-11.1-.9,84.7,84.7,0,0,0-11.6.9C82.9,39,65.3,60.5,65.3,88.1q0,2.8.1,5.5C67.1,68,84.3,48.4,108.7,44.1Z" style="fill:#fff"/>
    </g>
    <path d="M125.4,136.4c19.6-.5,28.4-3.6,37.2-11.1s12.1-21.8,12.1-37.2c0-27.7-17.6-49.2-43.4-53.7a76.8,76.8,0,0,0-11.1-.9,84.7,84.7,0,0,0-11.6.9C82.9,39,65.3,60.5,65.3,88.1c0,15.4,3.2,29.6,12.1,37.2s18.2,10.8,39.5,11.1Z" style="fill:none;stroke:#1d132d;stroke-miterlimit:10;stroke-width:2px"/>
    <path d="M109.2,136.5c-7,6.6-11.8,18.9-11.8,29.9,0,16,10.1,19.5,22.6,19.5s22.6-3.4,22.6-19.5c0-11.1-4.9-23.5-12-30.1" style="fill:none;stroke:#1d132d;stroke-miterlimit:10;stroke-width:2px"/>
    <g style="opacity:0.30000000000000004">
      <path d="M108.7,44.1a84.7,84.7,0,0,1,11.6-.9,76.8,76.8,0,0,1,11.1.9c24.4,4.3,41.5,23.9,43.2,49.5q.1-2.7.1-5.5c0-27.7-17.6-49.2-43.4-53.7a76.8,76.8,0,0,0-11.1-.9,84.7,84.7,0,0,0-11.6.9C82.9,39,65.3,60.5,65.3,88.1q0,2.8.1,5.5C67.1,68,84.3,48.4,108.7,44.1Z" style="fill:#fff"/>
    </g>
    <path d="M125.4,136.4c19.6-.5,28.4-3.6,37.2-11.1s12.1-21.8,12.1-37.2c0-27.7-17.6-49.2-43.4-53.7a76.8,76.8,0,0,0-11.1-.9,84.7,84.7,0,0,0-11.6.9C82.9,39,65.3,60.5,65.3,88.1c0,15.4,3.2,29.6,12.1,37.2s18.2,10.8,39.5,11.1Z" style="fill:none;stroke:#1d132d;stroke-miterlimit:10;stroke-width:2px"/>
  </g>
  <g>
    <title>02</title>
    <rect x="109.4" y="128.1" width="21.3" height="7.53" style="fill:#2e4159"/>
    <path d="M109.4,134.3a36.8,36.8,0,0,0-.1-3.7s-.2-.9-.3-1.5l-.3-.2c-2-8.2-8.1-12.7-18.4-14.5l-3.9-.7-.4-.3a25.4,25.4,0,0,1-6.7-1.2c-5.9-2-9.8-6-13.2-10.9l.3,1.8c1.6,9.3,5,17.3,10.9,22.3,8,6.8,15.9,10,32,10.9C109.4,135.6,109.4,134.9,109.4,134.3Z" style="fill:#dce3ea"/>
    <path d="M109.3,130.6s-.2-.9-.3-1.5l-.3-.2c-2-8.2-8.1-12.7-18.4-14.5l-3.9-.7-.4-.3H84.5c5.6,2.8,11,6.2,12.7,12.8a28,28,0,0,1,.7,9.1,92,92,0,0,0,11.5,1.3c0-.7.1-1.4.1-2A36.8,36.8,0,0,0,109.3,130.6Z" style="fill:#2e4159"/>
    <path d="M97.9,133.8c0-12-6.4-18.7-17.5-21.6" style="fill:none;stroke:#1d132d;stroke-linecap:round;stroke-linejoin:round;stroke-width:2px"/>
    <line x1="108.6" y1="128.1" x2="120" y2="128.1" style="fill:none;stroke:#1d132d;stroke-linecap:round;stroke-linejoin:round;stroke-width:2px"/>
    <line x1="78.8" y1="112.3" x2="78.8" y2="126.5" style="fill:none;stroke:#1d132d;stroke-linecap:round;stroke-linejoin:round;stroke-width:2px"/>
    <path d="M109.5,135.6c0-12.6-6.4-18.9-19.1-21.2-9.8-1.8-22.8-4.5-24.5-14.9" style="fill:none;stroke:#1d132d;stroke-linecap:round;stroke-linejoin:round;stroke-width:2px"/>
    <path d="M65.9,99.5l.5,3.6c1.6,9.3,5,17.3,10.9,22.3,9.1,7.8,18.2,10.8,39.5,11.1h3.1" style="fill:none;stroke:#1d132d;stroke-miterlimit:10;stroke-width:2px"/>
    <path d="M130.6,134.3a36.8,36.8,0,0,1,.1-3.7s.2-.9.3-1.5l.3-.2c2-8.2,8.1-12.7,18.4-14.5l3.9-.7.4-.3a25.4,25.4,0,0,0,6.7-1.2c5.9-2,9.8-6,13.2-10.9l-.3,1.8c-1.6,9.3-5,17.3-10.9,22.3-8,6.8-15.9,10-32,10.9C130.6,135.6,130.6,134.9,130.6,134.3Z" style="fill:#dce3ea"/>
    <path d="M130.7,130.6s.2-.9.3-1.5l.3-.2c2-8.2,8.1-12.7,18.4-14.5l3.9-.7.4-.3h1.5c-5.6,2.8-11,6.2-12.7,12.8a28,28,0,0,0-.7,9.1,92,92,0,0,1-11.5,1.3c0-.7-.1-1.4-.1-2A36.8,36.8,0,0,1,130.7,130.6Z" style="fill:#2e4159"/>
    <path d="M142.1,133.8c0-12,6.4-18.7,17.5-21.6" style="fill:none;stroke:#1d132d;stroke-linecap:round;stroke-linejoin:round;stroke-width:2px"/>
    <line x1="131.3" y1="128.1" x2="120" y2="128.1" style="fill:none;stroke:#1d132d;stroke-linecap:round;stroke-linejoin:round;stroke-width:2px"/>
    <line x1="161.2" y1="112.3" x2="161.2" y2="126.5" style="fill:none;stroke:#1d132d;stroke-linecap:round;stroke-linejoin:round;stroke-width:2px"/>
    <path d="M130.5,135.6c0-12.6,6.4-18.9,19.1-21.2,9.8-1.8,22.8-4.5,24.5-14.9" style="fill:none;stroke:#1d132d;stroke-linecap:round;stroke-linejoin:round;stroke-width:2px"/>
    <path d="M174.1,99.5l-.5,3.6c-1.6,9.3-5,17.3-10.9,22.3-9.1,7.8-18.2,10.8-39.5,11.1h-3.1" style="fill:none;stroke:#1d132d;stroke-miterlimit:10;stroke-width:2px"/>
    <line x1="120" y1="128.1" x2="120" y2="136.5" style="fill:none;stroke:#1d132d;stroke-miterlimit:10;stroke-width:2px"/>
    <line x1="114.7" y1="128.4" x2="114.7" y2="136.4" style="fill:none;stroke:#1d132d;stroke-miterlimit:10;stroke-width:2px"/>
    <line x1="125.2" y1="128.4" x2="125.2" y2="136.4" style="fill:none;stroke:#1d132d;stroke-miterlimit:10;stroke-width:2px"/>
  </g>
  <g>
    <title>03</title>
    <rect x="85" y="67.4" width="15.5" height="33.25" rx="7.7" ry="7.7" style="fill:#c6db45"/>
    <path d="M85.4,75l.3.9c4.3-2.3,6.5,2.3,7.5,3.8s6.3,2.5,6.4-.7C103.3,70.7,90.4,59.4,85.4,75Z" style="fill:#fff;opacity:0.5"/>
    <circle cx="90.2" cy="85.1" r="2.1" style="fill:#fff;opacity:0.5"/>
    <rect x="85" y="67.4" width="15.5" height="33.25" rx="7.7" ry="7.7" style="fill:none;stroke:#1d132d;stroke-linecap:round;stroke-linejoin:round;stroke-width:2px"/>
    <rect x="139.5" y="67.4" width="15.5" height="33.25" rx="7.7" ry="7.7" style="fill:#c6db45"/>
    <path d="M140.1,75l.3.9c4.3-2.3,6.5,2.3,7.5,3.8s6.3,2.5,6.4-.7C158,70.7,145,59.4,140.1,75Z" style="fill:#fff;opacity:0.5"/>
    <circle cx="144.9" cy="85.1" r="2.1" style="fill:#fff;opacity:0.5"/>
    <rect x="139.5" y="67.4" width="15.5" height="33.25" rx="7.7" ry="7.7" style="fill:none;stroke:#1d132d;stroke-linecap:round;stroke-linejoin:round;stroke-width:2px"/>
  </g>
  <g/>
</svg>