<svg xmlns="http://www.w3.org/2000/svg" xmlns:xlink="http://www.w3.org/1999/xlink" viewBox="0 0 240 240">
  <ellipse cx="120.5" cy="233.4" rx="43.7" ry="4.9" style="fill:#180621;opacity:0.15"/>
  <g>
    <title>06</title>
    <path d="M161.8,221.3c.5-4.1-.9-12.6-.9-12.6s-8.1,3.9-10.4,9.4a6,6,0,0,0-.4,1.3v.2a14.1,14.1,0,0,1-3.7-2.6h-.1c.3-1.2.2-2.1-.4-2.5l-3.4-2.6-.3.2c.5-1.2.6-2.2.1-2.8l-2.4-3.2-1.2.6c.9-1.2,1.3-2.3.9-3.2l-2.1-4.6h-.2a2.9,2.9,0,0,0,1-2.4l-1-5.8h-.2a3.1,3.1,0,0,0,1.3-2.3v-8H101.5v8c0,1.3,1.1,2.4,3,3.4h-.2l1.7,10.2c.2,1.1,1.3,2,3.2,2.5h-.1l4.6,10.5c.5,1.2,2.5,1.7,5.2,1.4l-.8.4,5.4,7.1c1,1.3,4.3.6,8-1.5l-1.9,1.8L135,229c.8.6,2.2.1,3.9-1.2l-.4.6a26.9,26.9,0,0,0,14-.8v.4a5.9,5.9,0,0,0,3.3,3.4c5.5,2.3,14-.6,14-.6S165,223.9,161.8,221.3Z" style="fill:#dce3ea"/>
    <path d="M161.8,221.3c.5-4.1-.9-12.6-.9-12.6s-8.1,3.9-10.4,9.4a6,6,0,0,0-.4,1.3v.2a14.1,14.1,0,0,1-3.7-2.6h-.1c.3-1.2.2-2.1-.4-2.5l-3.4-2.6-.3.2c.5-1.2.6-2.2.1-2.8l-2.4-3.2-1.2.6c.9-1.2,1.3-2.3.9-3.2l-2.1-4.6h-.2a2.9,2.9,0,0,0,1-2.4l-1-5.8h-.2a3.1,3.1,0,0,0,1.3-2.3v-8H101.5v8c0,1.3,1.1,2.4,3,3.4h-.2l1.7,10.2c.2,1.1,1.3,2,3.2,2.5h-.1l4.6,10.5c.5,1.2,2.5,1.7,5.2,1.4l-.8.4,5.4,7.1c1,1.3,4.3.6,8-1.5l-1.9,1.8L135,229c.8.6,2.2.1,3.9-1.2l-.4.6a26.9,26.9,0,0,0,14-.8v.4a5.9,5.9,0,0,0,3.3,3.4c5.5,2.3,14-.6,14-.6S165,223.9,161.8,221.3Z" style="fill:#dce3ea"/>
    <path d="M152.6,228v.2a35.4,35.4,0,0,1,4.6-3.7l1.7-1.1a8.3,8.3,0,0,1,1.2-1.2l.3-.8a11.1,11.1,0,0,1-2.7.3,9.7,9.7,0,0,1-7.5-3.2l-.2.8v.2a14.1,14.1,0,0,1-3.7-2.6h-.1c.3-1.2.2-2.1-.4-2.5l-3.4-2.6-.3.2c.5-1.2.6-2.2.1-2.8l-2.4-3.2-1.2.6c.9-1.2,1.3-2.3.9-3.2l-2.1-4.6h-.2a2.9,2.9,0,0,0,1-2.4l-1-5.8h-.2a3.1,3.1,0,0,0,1.3-2.3v-8H101.5v8c0,1.3,1.1,2.4,3,3.4h-.2l1.7,10.2c.2,1.1,1.3,2,3.2,2.5h-.1l4.6,10.5c.5,1.2,2.5,1.7,5.2,1.4l-.8.4,5.4,7.1c1,1.3,4.3.6,8-1.5l-1.9,1.8L135,229c.8.6,2.2.1,3.9-1.2l-.4.6a26.9,26.9,0,0,0,14-.8Z" style="fill:#dce3ea"/>
    <path d="M101.5,179.8v3.5c0,3.5,8.3,6.2,18.5,6.2s18.4-2.8,18.5-6.2v-3.6Z" style="fill:#180621;opacity:0.15"/>
    <path d="M138.6,180.8H101.5v8c0,3.5,8.3,6.2,18.5,6.2s18.5-2.8,18.5-6.2Z" style="fill:none;stroke:#1d132d;stroke-miterlimit:10;stroke-width:2px"/>
    <path d="M104.3,192.2l1.7,10.2c.5,3,8.2,4.2,17.2,2.7s15.8-5.2,15.3-8.3l-1-5.8" style="fill:none;stroke:#1d132d;stroke-linecap:round;stroke-linejoin:round;stroke-width:2px"/>
    <path d="M109.1,205l4.6,10.5c1.1,2.4,7.8,1.8,15.1-1.4s12.2-7.8,11.1-10.2l-2.1-4.6" style="fill:none;stroke:#1d132d;stroke-linecap:round;stroke-linejoin:round;stroke-width:2px"/>
    <path d="M118,217.3l5.4,7.1c1.4,1.8,6.8-.1,12.1-4.2s8.5-8.8,7.1-10.6l-2.4-3.2" style="fill:none;stroke:#1d132d;stroke-linecap:round;stroke-linejoin:round;stroke-width:2px"/>
    <path d="M129.5,224.7,135,229c1.3,1,4.9-1.3,7.9-5.3s4.4-8,3.1-9l-3.4-2.6" style="fill:none;stroke:#1d132d;stroke-linecap:round;stroke-linejoin:round;stroke-width:2px"/>
    <path d="M146.5,217.1c3.8,3.7,9.4,4.6,14,4.9h.2c-4.4,5-11.3,8.4-22.3,6.5" style="fill:none;stroke:#1d132d;stroke-linecap:round;stroke-linejoin:round;stroke-width:2px"/>
    <path d="M152.6,228a5.9,5.9,0,0,0,3.3,3.4c5.5,2.3,14-.6,14-.6s-4.9-7-8.2-9.6c.5-4.1-.9-12.6-.9-12.6s-8.1,3.9-10.4,9.4a6,6,0,0,0-.4,1.3" style="fill:none;stroke:#1d132d;stroke-linecap:round;stroke-linejoin:round;stroke-width:2px"/>
    <path d="M122.8,194.9l-4-.5a53.1,53.1,0,0,1-10.9-1.2l-2.9-.9h-.7l.7,4.2a43.6,43.6,0,0,0,14.6,2.3c7.7,0,14.5-1.7,18.5-4.2l-.5-2.6A33.6,33.6,0,0,1,122.8,194.9Z" style="fill:#180621;opacity:0.15"/>
    <path d="M137.7,199.8a33.6,33.6,0,0,1-14.3,5.1h-4a53.1,53.1,0,0,1-9.7.5v1a24.9,24.9,0,0,1,1.3,3.3,48.1,48.1,0,0,0,9.8-.6c7.6-1.2,14-3.9,17.6-7Z" style="fill:#180621;opacity:0.15"/>
    <path d="M139.9,206.1a33.6,33.6,0,0,1-12.4,8.8l-3.9,1.2-4.8,1.8a26,26,0,0,1,1.7,3c11.5-3,18.4-9.1,20.8-12.6Z" style="fill:#180621;opacity:0.15"/>
    <path d="M142.9,212.3A33.6,33.6,0,0,1,132,222.9l-2.1,1.1a25,25,0,0,1,2.4,2.6c7-4.3,11-9.3,12.4-12.4Z" style="fill:#180621;opacity:0.15"/>
    <path d="M139.7,228.6a24.5,24.5,0,0,1,3.8.3,27.1,27.1,0,0,0,5.5-9.2l-2.1-1.6a35.6,35.6,0,0,1-7.4,10.6Z" style="fill:#180621;opacity:0.15"/>
    <path d="M152.7,215.2l-2.6,4.5,11,1.7a15.4,15.4,0,0,0,.7-2.2A16.6,16.6,0,0,1,152.7,215.2Z" style="fill:#180621;opacity:0.15"/>
    <path d="M156.5,231.3l-3.8-3.5,8.7-5.8s2,1.3,2.2,1.7A23.7,23.7,0,0,0,156.5,231.3Z" style="fill:#180621;opacity:0.15"/>
  </g>
  <g>
    <title>06</title>
    <path d="M94,160.1a144.8,144.8,0,0,1,13.8-23c-44.1,15.3-44.4,43-24.4,52.6A140.2,140.2,0,0,1,94,160.1Z" style="fill:#2e4159"/>
    <path d="M86.8,158.2a12.1,12.1,0,0,0-3.4-8.4l-2.3,1.9a9.2,9.2,0,0,1-9.9,15,20.2,20.2,0,0,0-.5,3,12.1,12.1,0,0,0,16.1-11.5Z" style="fill:#dce3ea"/>
    <path d="M94,160.1a144.8,144.8,0,0,1,13.8-23c-44.1,15.3-44.4,43-24.4,52.6A140.2,140.2,0,0,1,94,160.1Z" style="fill:none;stroke:#1d132d;stroke-linecap:round;stroke-linejoin:round;stroke-width:2px"/>
    <path d="M145.7,160.1a144.8,144.8,0,0,0-13.8-23c44.1,15.3,44.4,43,24.4,52.6A140.2,140.2,0,0,0,145.7,160.1Z" style="fill:#2e4159"/>
    <path d="M152.9,158.2a12.1,12.1,0,0,1,3.4-8.4l2.3,1.9a9.2,9.2,0,0,0,9.9,15,20.2,20.2,0,0,1,.5,3,12.1,12.1,0,0,1-16.1-11.5Z" style="fill:#dce3ea"/>
    <path d="M145.7,160.1a144.8,144.8,0,0,0-13.8-23c44.1,15.3,44.4,43,24.4,52.6A140.2,140.2,0,0,0,145.7,160.1Z" style="fill:none;stroke:#1d132d;stroke-linecap:round;stroke-linejoin:round;stroke-width:2px"/>
  </g>
  <g>
    <title>06</title>
    <path d="M49.3,45.6c0,.3,0,.6,0,.9,0,10.6,9.2,19.3,20.9,20C69.4,63.9,65.1,52.5,49.3,45.6Z" style="fill:#fff;opacity:0.5"/>
    <path d="M169.9,67s3.2-14,21.7-21.6h0c1.7,5.6.2,15.1.2,15.1,1.5,5.3.1,14.2.1,14.2a25.3,25.3,0,0,1-17.1,30.7Z" style="fill:#dce3ea"/>
    <path d="M192.5,67h0a59.2,59.2,0,0,1-.6,7.7,25.3,25.3,0,0,1-17.1,30.7L172.9,91C184.1,88.7,191.9,78.6,192.5,67Z" style="fill:#180621;opacity:0.15"/>
    <path d="M190.9,45.6c0,.3,0,.6,0,.9,0,10.6-9.2,19.3-20.9,20C170.8,63.9,175.2,52.5,190.9,45.6Z" style="fill:#fff;opacity:0.5"/>
    <path d="M70.3,67S67.1,53,48.6,45.4h0c-1.7,5.6-.2,15.1-.2,15.1-1.5,5.3-.1,14.2-.1,14.2a25.3,25.3,0,0,0,17.1,30.7Z" style="fill:#dce3ea"/>
    <path d="M47.8,67h0a59.2,59.2,0,0,0,.6,7.7,25.3,25.3,0,0,0,17.1,30.7L67.3,91C56.1,88.7,48.3,78.6,47.8,67Z" style="fill:#180621;opacity:0.15"/>
    <path d="M48.3,74.6a25.3,25.3,0,0,0,17.1,30.7" style="fill:none;stroke:#1d132d;stroke-linecap:round;stroke-linejoin:round;stroke-width:2px"/>
    <path d="M48.4,60.4a25.3,25.3,0,0,0,17,31" style="fill:none;stroke:#1d132d;stroke-linecap:round;stroke-linejoin:round;stroke-width:2px"/>
    <path d="M70.3,67S67.1,53,48.6,45.4h0A25.3,25.3,0,0,0,65.4,77" style="fill:none;stroke:#1d132d;stroke-linecap:round;stroke-linejoin:round;stroke-width:2px"/>
    <path d="M191.9,74.6a25.3,25.3,0,0,1-17.1,30.7" style="fill:none;stroke:#1d132d;stroke-linecap:round;stroke-linejoin:round;stroke-width:2px"/>
    <path d="M191.8,60.4a25.3,25.3,0,0,1-17,31" style="fill:none;stroke:#1d132d;stroke-linecap:round;stroke-linejoin:round;stroke-width:2px"/>
    <path d="M169.9,67s3.2-14,21.7-21.6h0A25.3,25.3,0,0,1,174.8,77" style="fill:none;stroke:#1d132d;stroke-linecap:round;stroke-linejoin:round;stroke-width:2px"/>
  </g>
  <g>
    <title>01</title>
    <path d="M131.3,34.4a76.8,76.8,0,0,0-11.1-.9,84.7,84.7,0,0,0-11.6.9C82.9,39,65.3,60.5,65.3,88.1c0,15.4,3.2,29.6,12.1,37.2s18.2,10.8,39.5,11.1h-7.7c-7,6.6-11.8,18.9-11.8,29.9,0,16,10.1,19.5,22.6,19.5s22.6-3.4,22.6-19.5c0-11.1-4.9-23.5-12-30.1h-5.2c19.6-.5,28.4-3.6,37.2-11.1s12.1-21.8,12.1-37.2C174.7,60.5,157.1,39,131.3,34.4Z" style="fill:#36c8e3"/>
    <path d="M131.3,34.4a76.8,76.8,0,0,0-11.1-.9,84.7,84.7,0,0,0-11.6.9C82.9,39,65.3,60.5,65.3,88.1c0,15.4,3.2,29.6,12.1,37.2s18.2,10.8,39.5,11.1h-7.7c-7,6.6-11.8,18.9-11.8,29.9,0,16,10.1,19.5,22.6,19.5s22.6-3.4,22.6-19.5c0-11.1-4.9-23.5-12-30.1h-5.2c19.6-.5,28.4-3.6,37.2-11.1s12.1-21.8,12.1-37.2C174.7,60.5,157.1,39,131.3,34.4Z" style="fill:#36c8e3"/>
    <path d="M131.3,34.4a76.8,76.8,0,0,0-11.1-.9,84.7,84.7,0,0,0-11.6.9C82.9,39,65.3,60.5,65.3,88.1c0,15.4,3.2,29.6,12.1,37.2s18.2,10.8,39.5,11.1h-7.7c-7,6.6-11.8,18.9-11.8,29.9,0,16,10.1,19.5,22.6,19.5s22.6-3.4,22.6-19.5c0-11.1-4.9-23.5-12-30.1h-5.2c19.6-.5,28.4-3.6,37.2-11.1s12.1-21.8,12.1-37.2C174.7,60.5,157.1,39,131.3,34.4Z" style="fill:#36c8e3"/>
    <path d="M131.3,34.4a76.8,76.8,0,0,0-11.1-.9,84.7,84.7,0,0,0-11.6.9C82.9,39,65.3,60.5,65.3,88.1c0,15.4,3.2,29.6,12.1,37.2s18.2,10.8,39.5,11.1h-7.7c-7,6.6-11.8,18.9-11.8,29.9,0,16,10.1,19.5,22.6,19.5s22.6-3.4,22.6-19.5c0-11.1-4.9-23.5-12-30.1h-5.2c19.6-.5,28.4-3.6,37.2-11.1s12.1-21.8,12.1-37.2C174.7,60.5,157.1,39,131.3,34.4Z" style="fill:#36c8e3"/>
    <path d="M131.3,34.4a76.8,76.8,0,0,0-11.1-.9,84.7,84.7,0,0,0-11.6.9C82.9,39,65.3,60.5,65.3,88.1c0,15.4,3.2,29.6,12.1,37.2s18.2,10.8,39.5,11.1h-7.7c-7,6.6-11.8,18.9-11.8,29.9,0,16,10.1,19.5,22.6,19.5s22.6-3.4,22.6-19.5c0-11.1-4.9-23.5-12-30.1h-5.2c19.6-.5,28.4-3.6,37.2-11.1s12.1-21.8,12.1-37.2C174.7,60.5,157.1,39,131.3,34.4Z" style="fill:#36c8e3"/>
    <path d="M131.3,34.4a76.8,76.8,0,0,0-11.1-.9,84.7,84.7,0,0,0-11.6.9C82.9,39,65.3,60.5,65.3,88.1c0,15.4,3.2,29.6,12.1,37.2s18.2,10.8,39.5,11.1h-7.7c-7,6.6-11.8,18.9-11.8,29.9,0,16,10.1,19.5,22.6,19.5s22.6-3.4,22.6-19.5c0-11.1-4.9-23.5-12-30.1h-5.2c19.6-.5,28.4-3.6,37.2-11.1s12.1-21.8,12.1-37.2C174.7,60.5,157.1,39,131.3,34.4Z" style="fill:#36c8e3"/>
    <path d="M131.3,34.4a76.8,76.8,0,0,0-11.1-.9,84.7,84.7,0,0,0-11.6.9C82.9,39,65.3,60.5,65.3,88.1c0,15.4,3.2,29.6,12.1,37.2s18.2,10.8,39.5,11.1h-7.7c-7,6.6-11.8,18.9-11.8,29.9,0,16,10.1,19.5,22.6,19.5s22.6-3.4,22.6-19.5c0-11.1-4.9-23.5-12-30.1h-5.2c19.6-.5,28.4-3.6,37.2-11.1s12.1-21.8,12.1-37.2C174.7,60.5,157.1,39,131.3,34.4Z" style="fill:#36c8e3"/>
    <path d="M131.3,34.4a76.8,76.8,0,0,0-11.1-.9,84.7,84.7,0,0,0-11.6.9C82.9,39,65.3,60.5,65.3,88.1c0,15.4,3.2,29.6,12.1,37.2s18.2,10.8,39.5,11.1h-7.7c-7,6.6-11.8,18.9-11.8,29.9,0,16,10.1,19.5,22.6,19.5s22.6-3.4,22.6-19.5c0-11.1-4.9-23.5-12-30.1h-5.2c19.6-.5,28.4-3.6,37.2-11.1s12.1-21.8,12.1-37.2C174.7,60.5,157.1,39,131.3,34.4Z" style="fill:#36c8e3"/>
    <path d="M125.4,136.4c19.6-.5,28.4-3.6,37.2-11.1s12.1-21.8,12.1-37.2c0-27.7-17.6-49.2-43.4-53.7a76.8,76.8,0,0,0-11.1-.9,84.7,84.7,0,0,0-11.6.9C82.9,39,65.3,60.5,65.3,88.1c0,15.4,3.2,29.6,12.1,37.2s18.2,10.8,39.5,11.1Z" style="fill:none;stroke:#1d132d;stroke-miterlimit:10;stroke-width:2px"/>
    <path d="M109.2,136.5c-7,6.6-11.8,18.9-11.8,29.9,0,16,10.1,19.5,22.6,19.5s22.6-3.4,22.6-19.5c0-11.1-4.9-23.5-12-30.1" style="fill:none;stroke:#1d132d;stroke-miterlimit:10;stroke-width:2px"/>
    <path d="M130.9,136.7c-3.4.7-18,.5-21.3-.1h-.4c-7,6.6-11.8,18.9-11.8,29.9,0,16,10.1,19.5,22.6,19.5s22.6-3.4,22.6-19.5C142.6,155.5,137.8,143.3,130.9,136.7Z" style="fill:#36c8e3"/>
    <path d="M130.5,136.2c-3.1.3-6.1.6-9.4.6a111.1,111.1,0,0,1-12.3-.4L102,146a41,41,0,0,0,17.6,3.6,40.7,40.7,0,0,0,17.8-3.7C137.2,145.6,130.9,136.7,130.5,136.2Z" style="fill:#180621;opacity:0.15"/>
    <path d="M109.5,136.3l-.6.5c-6.9,6.7-11.5,18.8-11.5,29.6,0,16,10.1,19.5,22.6,19.5s22.6-3.4,22.6-19.5c0-11-4.8-23.3-11.8-29.9l-.2-.2" style="fill:none;stroke:#1d132d;stroke-linecap:round;stroke-linejoin:round;stroke-width:2px"/>
    <path d="M97.9,168h44.2C129.9,151.6,110.1,151.6,97.9,168Z" style="fill:#ffde00"/>
    <path d="M97.9,168h44.2C129.9,151.6,110.1,151.6,97.9,168Z" style="fill:none;stroke:#1d132d;stroke-linecap:round;stroke-linejoin:round;stroke-width:2px"/>
    <line x1="103.8" y1="161.9" x2="136.4" y2="161.9" style="fill:none;stroke:#1d132d;stroke-linecap:round;stroke-linejoin:round;stroke-width:2px"/>
    <path d="M132.4,159.2a24.1,24.1,0,0,0-24.9,0Z" style="fill:#180621;opacity:0.15"/>
    <path d="M134.7,160.6v.9H105v-.7a32.5,32.5,0,0,0-4.9,4.5h39.9A32.4,32.4,0,0,0,134.7,160.6Z" style="fill:#180621;opacity:0.15"/>
    <g style="opacity:0.30000000000000004">
      <path d="M108.7,44.1a84.7,84.7,0,0,1,11.6-.9,76.8,76.8,0,0,1,11.1.9c24.4,4.3,41.5,23.9,43.2,49.5q.1-2.7.1-5.5c0-27.7-17.6-49.2-43.4-53.7a76.8,76.8,0,0,0-11.1-.9,84.7,84.7,0,0,0-11.6.9C82.9,39,65.3,60.5,65.3,88.1q0,2.8.1,5.5C67.1,68,84.3,48.4,108.7,44.1Z" style="fill:#fff"/>
    </g>
    <path d="M125.4,136.4c19.6-.5,28.4-3.6,37.2-11.1s12.1-21.8,12.1-37.2c0-27.7-17.6-49.2-43.4-53.7a76.8,76.8,0,0,0-11.1-.9,84.7,84.7,0,0,0-11.6.9C82.9,39,65.3,60.5,65.3,88.1c0,15.4,3.2,29.6,12.1,37.2s18.2,10.8,39.5,11.1Z" style="fill:none;stroke:#1d132d;stroke-miterlimit:10;stroke-width:2px"/>
    <path d="M109.2,136.5c-7,6.6-11.8,18.9-11.8,29.9,0,16,10.1,19.5,22.6,19.5s22.6-3.4,22.6-19.5c0-11.1-4.9-23.5-12-30.1" style="fill:none;stroke:#1d132d;stroke-miterlimit:10;stroke-width:2px"/>
    <g style="opacity:0.30000000000000004">
      <path d="M108.7,44.1a84.7,84.7,0,0,1,11.6-.9,76.8,76.8,0,0,1,11.1.9c24.4,4.3,41.5,23.9,43.2,49.5q.1-2.7.1-5.5c0-27.7-17.6-49.2-43.4-53.7a76.8,76.8,0,0,0-11.1-.9,84.7,84.7,0,0,0-11.6.9C82.9,39,65.3,60.5,65.3,88.1q0,2.8.1,5.5C67.1,68,84.3,48.4,108.7,44.1Z" style="fill:#fff"/>
    </g>
    <path d="M125.4,136.4c19.6-.5,28.4-3.6,37.2-11.1s12.1-21.8,12.1-37.2c0-27.7-17.6-49.2-43.4-53.7a76.8,76.8,0,0,0-11.1-.9,84.7,84.7,0,0,0-11.6.9C82.9,39,65.3,60.5,65.3,88.1c0,15.4,3.2,29.6,12.1,37.2s18.2,10.8,39.5,11.1Z" style="fill:none;stroke:#1d132d;stroke-miterlimit:10;stroke-width:2px"/>
  </g>
  <g>
    <title>06</title>
    <path d="M120.2,136.6c26.6,0,36.1-4,44.2-10.3l1.7-1.4c11-10.7,8.2-26,8.2-26s-18.9,9.4-54.2,9.4-54.2-9.4-54.2-9.4-2.8,15.4,8.2,26l1.7,1.4c8.1,6.3,17.6,10.3,44.2,10.3" style="fill:#dce3ea"/>
    <path d="M65.8,102.8s18.2,9.4,54.2,9.4,54.2-9.4,54.2-9.4a23.1,23.1,0,0,1,.3,2.5,30.5,30.5,0,0,0-.3-6.5s-18.9,9.4-54.2,9.4-54.2-9.4-54.2-9.4a30.5,30.5,0,0,0-.3,6.5A23.1,23.1,0,0,1,65.8,102.8Z" style="fill:#fff;opacity:0.5"/>
    <path d="M166.1,119.1l-1.7,1.5c-8.1,6.3-17.6,9.4-44.2,9.4h-.4c-26.6,0-36.1-3.1-44.2-9.4L74,119.1a29.2,29.2,0,0,1-8.4-18.7c-.4,4.2-.5,15.9,8.4,24.6l1.7,1.5c8.1,6.3,17.6,9.4,44.2,9.4h.4c26.6,0,36.1-3.1,44.2-9.4l1.7-1.5c8.9-8.7,8.7-20.4,8.4-24.6A29.2,29.2,0,0,1,166.1,119.1Z" style="fill:#180621;opacity:0.15"/>
    <path d="M120.2,136.6c26.6,0,36.1-4,44.2-10.3l1.7-1.4c11-10.7,8.2-26,8.2-26s-18.9,9.4-54.2,9.4-54.2-9.4-54.2-9.4-2.8,15.4,8.2,26l1.7,1.4c8.1,6.3,17.6,10.3,44.2,10.3" style="fill:none;stroke:#1d132d;stroke-linecap:round;stroke-linejoin:round;stroke-width:2px"/>
    <path d="M120.1,119.1a3,3,0,0,1-2.9-2.2,3,3,0,1,0,5.7,0A3,3,0,0,1,120.1,119.1Z" style="fill:#fff"/>
    <path d="M109.6,119.1a3,3,0,0,1-2.9-2.2,3,3,0,1,0,5.7,0A3,3,0,0,1,109.6,119.1Z" style="fill:#fff"/>
    <path d="M130,119.1a3,3,0,0,1-2.9-2.2,3,3,0,1,0,5.7,0A3,3,0,0,1,130,119.1Z" style="fill:#fff"/>
    <circle cx="109.6" cy="116.8" r="2" style="fill:none;stroke:#1d132d;stroke-linecap:round;stroke-linejoin:round;stroke-width:2px"/>
    <circle cx="129.9" cy="116.8" r="2" style="fill:none;stroke:#1d132d;stroke-linecap:round;stroke-linejoin:round;stroke-width:2px"/>
    <circle cx="120.1" cy="116.8" r="2" style="fill:none;stroke:#1d132d;stroke-linecap:round;stroke-linejoin:round;stroke-width:2px"/>
  </g>
  <g>
    <title>!0_gen_02</title>
    <circle cx="120" cy="81.9" r="16.7" style="fill:none;stroke:#1d132d;stroke-miterlimit:10;stroke-width:2px"/>
    <circle cx="120" cy="81.9" r="16.7" style="fill:#ffde00;stroke:#1d132d;stroke-miterlimit:10;stroke-width:2px"/>
    <circle cx="120" cy="81.9" r="7.5" style="fill:#1d132d"/>
    <ellipse cx="127.2" cy="76.1" rx="6.1" ry="4.5" transform="matrix(0.78, -0.62, 0.62, 0.78, -19.64, 96.14)" style="fill:#fff;opacity:0.5"/>
  </g>
  <g>
    <title>05</title>
    <path d="M120.1,58.2h0l13.5-13.1,3.6-9A52.4,52.4,0,0,0,120,33.5a58.2,58.2,0,0,0-16.7,2.3l3.4,9.3Z" style="fill:#dce3ea"/>
    <path d="M80.9,48.9a50.6,50.6,0,0,1,20-12l1.4-.8V14.8h-12L79.5,49.8l1.1-.7Z" style="fill:#2e4159"/>
    <polygon points="102.3 20.3 102.3 14.8 90.3 14.8 88.6 20.3 102.3 20.3" style="fill:#dce3ea"/>
    <path d="M159.3,48.9a50.6,50.6,0,0,0-20-12l-1.4-.8V14.8h12l10.8,35.1-1.1-.7Z" style="fill:#2e4159"/>
    <polygon points="137.9 20.3 137.9 14.8 149.9 14.8 151.6 20.3 137.9 20.3" style="fill:#dce3ea"/>
    <line x1="89.2" y1="20" x2="101.8" y2="20" style="fill:none;stroke:#1d132d;stroke-linecap:round;stroke-linejoin:round;stroke-width:2px"/>
    <polyline points="106.6 45.1 120.1 58.2 120.1 58.2 133.6 45.1" style="fill:none;stroke:#1d132d;stroke-linecap:round;stroke-linejoin:round;stroke-width:2px"/>
    <line x1="113.5" y1="51.4" x2="126.6" y2="51.4" style="fill:none;stroke:#1d132d;stroke-linecap:round;stroke-linejoin:round;stroke-width:2px"/>
    <line x1="107.6" y1="45.5" x2="132.5" y2="45.6" style="fill:none;stroke:#1d132d;stroke-linecap:round;stroke-linejoin:round;stroke-width:2px"/>
    <line x1="135.2" y1="39.6" x2="104.8" y2="39.6" style="fill:none;stroke:#1d132d;stroke-linecap:round;stroke-linejoin:round;stroke-width:2px"/>
    <line x1="106.4" y1="44.9" x2="102.3" y2="35.5" style="fill:none;stroke:#1d132d;stroke-linecap:round;stroke-linejoin:round;stroke-width:2px"/>
    <line x1="150.9" y1="20.1" x2="138.3" y2="20.1" style="fill:none;stroke:#1d132d;stroke-linecap:round;stroke-linejoin:round;stroke-width:2px"/>
    <line x1="133.7" y1="45" x2="137.8" y2="35.6" style="fill:none;stroke:#1d132d;stroke-linecap:round;stroke-linejoin:round;stroke-width:2px"/>
    <polyline points="79.5 49.8 90.3 14.8 102.3 14.8 102.3 36" style="fill:none;stroke:#1d132d;stroke-linecap:round;stroke-linejoin:round;stroke-width:2px"/>
    <polyline points="160.6 50 149.9 14.9 137.9 14.9 137.9 36.1" style="fill:none;stroke:#1d132d;stroke-linecap:round;stroke-linejoin:round;stroke-width:2px"/>
    <path d="M160.7,50.3a51.5,51.5,0,0,0-29.4-15.9,76.8,76.8,0,0,0-11.1-.9,84.7,84.7,0,0,0-11.6.9A51.5,51.5,0,0,0,79.6,50" style="fill:none;stroke:#1d132d;stroke-linecap:round;stroke-linejoin:round;stroke-width:2px"/>
  </g>
</svg>