<svg xmlns="http://www.w3.org/2000/svg" xmlns:xlink="http://www.w3.org/1999/xlink" viewBox="0 0 240 240">
  <ellipse cx="120.5" cy="233.4" rx="43.7" ry="4.9" style="fill:#180621;opacity:0.15"/>
  <g>
    <title>04</title>
    <g style="isolation:isolate">
      <path d="M91.7,195.2h0l.6,25.8h-.1c-.4.3-.7,1.8-.2,2.7a14.4,14.4,0,0,0-4.6,7.6,1.9,1.9,0,0,0,1.3,2.2,44.7,44.7,0,0,0,12.6,1.4c9.5,0,14.5-2,14.5-2v-.6l.2-.4V208.3h0A19.5,19.5,0,0,0,91.7,195.2Z" style="fill:#dce3ea"/>
      <path d="M115.2,204V182.2l-13.7-1.8v14.3l.7.5C106.4,196.8,112,201,115.2,204Z" style="fill:#dce3ea"/>
      <path d="M89,227.6c8.2-9.2,23.2-10.1,27,4.1V208.3h0a19.5,19.5,0,0,0-24.2-13.1h0l.6,25.8h-.1c-.4.3-.7,1.8-.2,2.7A14.6,14.6,0,0,0,89,227.6Z" style="fill:#2e4159"/>
      <polyline points="101.6 194.4 101.6 180.4 116 180.4 116 209.3" style="fill:none;stroke:#1d132d;stroke-linecap:round;stroke-linejoin:round;stroke-width:2px"/>
      <path d="M115.9,232.7V208.3h0a19.5,19.5,0,0,0-24.2-13.1h0l.7,27.7" style="fill:none;stroke:#1d132d;stroke-linecap:round;stroke-linejoin:round;stroke-width:2px"/>
      <ellipse cx="99" cy="222.7" rx="4.7" ry="3" style="fill:#fff;opacity:0.5"/>
      <path d="M115.5,205.2v-7.4a25.6,25.6,0,0,0-13.2-8.3v5.4C106.9,197,111.9,201.5,115.5,205.2Z" style="fill:#180621;opacity:0.15;mix-blend-mode:multiply"/>
      <path d="M115.9,232.9a14.4,14.4,0,0,0-28.4-1.6,1.9,1.9,0,0,0,1.3,2.2,44.7,44.7,0,0,0,12.6,1.4C110.8,234.9,115.9,232.9,115.9,232.9Z" style="fill:none;stroke:#1d132d;stroke-linecap:round;stroke-linejoin:round;stroke-width:2px"/>
      <path d="M103.6,213.3h-.8A15.2,15.2,0,0,0,92.4,217" style="fill:none;stroke:#1d132d;stroke-linecap:round;stroke-linejoin:round;stroke-width:2px"/>
      <path d="M103.6,206.4h-.8a15.2,15.2,0,0,0-10.4,3.7" style="fill:none;stroke:#1d132d;stroke-linecap:round;stroke-linejoin:round;stroke-width:2px"/>
      <path d="M101.5,230.2a44.7,44.7,0,0,1-12.6-1.4l-.4-.2a14.3,14.3,0,0,0-.9,2.7,1.9,1.9,0,0,0,1.3,2.2,44.7,44.7,0,0,0,12.6,1.4c9.5,0,14.5-2,14.5-2a14.3,14.3,0,0,0-1.2-4.4A48.8,48.8,0,0,1,101.5,230.2Z" style="fill:#180621;opacity:0.15"/>
      <path d="M152.8,231.3a14.4,14.4,0,0,0-4.6-7.6c.5-.9.2-2.4-.2-2.7h-.1l.6-25.8h0a19.5,19.5,0,0,0-24.2,13.1h0V232l.2.4v.6s5.1,2,14.5,2a44.7,44.7,0,0,0,12.6-1.4A1.9,1.9,0,0,0,152.8,231.3Z" style="fill:#dce3ea"/>
      <path d="M124.3,232h.1a3.2,3.2,0,0,1,.3-.9c2.7-5.5,6.4-10.6,13.1-11a18.1,18.1,0,0,1,10.7,2.7,2.3,2.3,0,0,0-.4-1.9h-.1l.6-25.8h0a19.5,19.5,0,0,0-24.2,13.1h0Z" style="fill:#2e4159"/>
      <ellipse cx="141" cy="222.7" rx="4.7" ry="3" style="fill:#fff;opacity:0.5"/>
      <path d="M125.1,204V182.2l13.7-1.8v14.3l-.7.5C133.8,196.8,128.3,201,125.1,204Z" style="fill:#dce3ea"/>
      <polyline points="138.7 194.4 138.7 180.4 124.3 180.4 124.3 209.3" style="fill:none;stroke:#1d132d;stroke-linecap:round;stroke-linejoin:round;stroke-width:2px"/>
      <path d="M124.3,232.7V208.3h0a19.5,19.5,0,0,1,24.2-13.1h0l-.7,27.7" style="fill:none;stroke:#1d132d;stroke-linecap:round;stroke-linejoin:round;stroke-width:2px"/>
      <path d="M124.8,205.2v-7.4a25.6,25.6,0,0,1,13.2-8.3v5.4C133.4,197,128.3,201.5,124.8,205.2Z" style="fill:#180621;opacity:0.15;mix-blend-mode:multiply"/>
      <path d="M124.4,232.9a14.4,14.4,0,0,1,28.4-1.6,1.9,1.9,0,0,1-1.3,2.2,44.7,44.7,0,0,1-12.6,1.4C129.5,234.9,124.4,232.9,124.4,232.9Z" style="fill:none;stroke:#1d132d;stroke-linecap:round;stroke-linejoin:round;stroke-width:2px"/>
      <path d="M136.7,213.3h.8a15.2,15.2,0,0,1,10.4,3.7" style="fill:none;stroke:#1d132d;stroke-linecap:round;stroke-linejoin:round;stroke-width:2px"/>
      <path d="M136.7,206.4h.8a15.2,15.2,0,0,1,10.4,3.7" style="fill:none;stroke:#1d132d;stroke-linecap:round;stroke-linejoin:round;stroke-width:2px"/>
      <path d="M138.8,230.2a44.7,44.7,0,0,0,12.6-1.4l.4-.2a14.3,14.3,0,0,1,.9,2.7,1.9,1.9,0,0,1-1.3,2.2,44.7,44.7,0,0,1-12.6,1.4c-9.5,0-14.5-2-14.5-2a14.3,14.3,0,0,1,1.2-4.4A48.8,48.8,0,0,0,138.8,230.2Z" style="fill:#180621;opacity:0.15"/>
    </g>
  </g>
  <g>
    <title>atribute</title>
    <path d="M75.1,142.8a13.3,13.3,0,0,0,.2-3.2l-2.3.6H72.9l-0.2.3a16.5,16.5,0,0,1-1,2.6,2.6,2.6,0,0,1-1.4,1.5,0.6,0.6,0,0,0-.5.3,0.7,0.7,0,0,0,.1.5c0.3,0.7.6,2.4,1.2,2.8s1.2-.4,1.6-0.7A8.9,8.9,0,0,0,75.1,142.8Z" style="fill:#d9e3ea"/>
    <polyline points="80.7 160.3 94.4 147.1 98.6 154.2 80.7 171.5" style="fill:#d9e3ea"/>
    <line x1="98.6" y1="154.2" x2="80.7" y2="171.5" style="fill:none;stroke:#1a0b2a;stroke-linecap:round;stroke-linejoin:round;stroke-width:2px"/>
    <line x1="94.4" y1="147.1" x2="80.7" y2="160.3" style="fill:none;stroke:#1a0b2a;stroke-linecap:round;stroke-linejoin:round;stroke-width:2px"/>
    <path d="M83.6,157.5l-2.9,2.8v11.2l3.9-3.7Q84.1,162.6,83.6,157.5Z" style="fill:#15011c;opacity:0.150000005960464;isolation:isolate"/>
    <path d="M77.7,179.3a13.2,13.2,0,0,0,3.3-4.9V156.2c-4.7,0-8.6-4.6-9.9-10.9l-0.2-1c-0.9-4.6-3.6-7.4-8-7.5H52.6l11.7,45.3,11.1-2.1Z" style="fill:#1d3f59"/>
    <path d="M77.3,179.4h0.4a13.2,13.2,0,0,0,3.3-4.9V156.2c-4.7,0-8.6-4.6-9.9-10.9l-0.2-1c-0.9-4.6-3.6-7.4-8-7.5H52.6l0.8,3.3h5.7c4.4,0.1,7,2.9,8,7.5l0.2,1c1.3,6.3,5.4,10.4,9.9,10.9v19.9Z" style="fill:#fff;opacity:0.200000002980232;isolation:isolate"/>
    <path d="M65.2,164.4l0.3-.2a0.6,0.6,0,0,0,.1-0.4l0.7-8.6a43.8,43.8,0,0,1-8,1.1c0.3,1.7-.4,3.3-1.2,4.9l-1.6,3.2a28.9,28.9,0,0,1-1.9,2.5C57.4,166.9,61.6,165.5,65.2,164.4Z" style="fill:#d9e3ea"/>
    <path d="M60.1,152.4l4.1-.8a43.7,43.7,0,0,1,8.5-1.5,18.9,18.9,0,0,1-1.6-4.7l-0.2-1c-0.9-4.6-3.6-7.4-8-7.5H52.6l4,15.7Z" style="fill:#d9e3ea"/>
    <path d="M47.8,136.9h7.8a2.4,2.4,0,0,1,2.4,2.4v18.2a10.8,10.8,0,0,1-10.8,10.8H41.6" style="fill:#d9e3ea"/>
    <path d="M58.5,146.7h6.2a4,4,0,0,1,3.7,4.3,4.2,4.2,0,0,1-3.9,4.1l-6.2,1.1" style="fill:#d9e3ea"/>
    <path d="M58.5,152.9v3.3l6.2-1.1a4.2,4.2,0,0,0,3.9-4.1,5.1,5.1,0,0,0-.2-1.6C67.4,152.6,64.6,152.2,58.5,152.9Z" style="fill:#15011c;opacity:0.150000005960464;isolation:isolate"/>
    <path d="M80.7,156.4v16.9c0,2.6-.6,4.3-2.8,5.4l-13.2,3.4" style="fill:none;stroke:#1a0b2a;stroke-linecap:round;stroke-linejoin:round;stroke-width:2px"/>
    <polygon points="52.2 136.4 37.4 136.4 38.4 131.1 51.2 131.1 52.2 136.4" style="fill:#d9e3ea"/>
    <path d="M46.3,131.1H38.4l-1,5.3h9.8A31.5,31.5,0,0,1,46.3,131.1Z" style="fill:#15011c;opacity:0.150000005960464;isolation:isolate"/>
    <path d="M93.9,156l1.4,1.4,3.3-3.2-4.2-7.1-2.9,2.8A12.8,12.8,0,0,0,93.9,156Z" style="fill:#15011c;opacity:0.150000005960464;isolation:isolate"/>
    <path d="M109.8,136.7l-16.9,3.6a23,23,0,0,0,6.5,14.5" style="fill:#1d3f59"/>
    <path d="M92.9,140.4c0.7,4.6,2.9,11,6.5,14.5l3.9-6.8C102.3,147.9,93.6,141.3,92.9,140.4Z" style="fill:#15011c;opacity:0.2;isolation:isolate"/>
    <path d="M109.8,136.7l-16.9,3.6a23,23,0,0,0,6.5,14.5" style="fill:none;stroke:#1d132d;stroke-linecap:round;stroke-linejoin:round;stroke-width:2px"/>
    <path d="M33.2,136.9H50a2.4,2.4,0,0,1,2.4,2.4v18.2a10.8,10.8,0,0,1-10.8,10.8h0a10.8,10.8,0,0,1-10.8-10.8V139.3a2.4,2.4,0,0,1,2.4-2.4Z" style="fill:#d9e3ea"/>
    <path d="M33.2,136.9H50a2.4,2.4,0,0,1,2.4,2.4v18.2a10.8,10.8,0,0,1-10.8,10.8h0a10.8,10.8,0,0,1-10.8-10.8V139.3a2.4,2.4,0,0,1,2.4-2.4Z" style="fill:#15011c;opacity:0.150000005960464;isolation:isolate"/>
    <path d="M66.2,164.7v15.2a2.4,2.4,0,0,1-2.4,2.4H54a2.4,2.4,0,0,1-2.4-2.4V167.5" style="fill:#1d3f59"/>
    <path d="M66.2,164.7v15.2a2.4,2.4,0,0,1-2.4,2.4H54a2.4,2.4,0,0,1-2.4-2.4V167.5" style="fill:#15011c;opacity:0.2;isolation:isolate"/>
    <path d="M33.2,136.9H50a2.4,2.4,0,0,1,2.4,2.4v18.2a10.8,10.8,0,0,1-10.8,10.8h0a10.8,10.8,0,0,1-10.8-10.8V139.3a2.4,2.4,0,0,1,2.4-2.4Z" style="fill:none;stroke:#1a0b2a;stroke-linecap:round;stroke-linejoin:round;stroke-width:2px"/>
    <path d="M47.8,136.9h7.8a2.4,2.4,0,0,1,2.4,2.4v18.2a10.8,10.8,0,0,1-10.8,10.8H41.6" style="fill:none;stroke:#1a0b2a;stroke-linecap:round;stroke-linejoin:round;stroke-width:2px"/>
    <path d="M66.2,164.7v15.2a2.4,2.4,0,0,1-2.4,2.4H54a2.4,2.4,0,0,1-2.4-2.4V167.5" style="fill:none;stroke:#1a0b2a;stroke-linecap:round;stroke-linejoin:round;stroke-width:2px"/>
    <path d="M49.5,152.1a10.3,10.3,0,0,1-10.8,9.7H38.5a10.7,10.7,0,0,1-9.3-11.6A10.3,10.3,0,0,1,40,140.4h0.2C45.8,140.9,50,146.1,49.5,152.1Z" style="fill:#d9e3ea"/>
    <path d="M49.5,152.1a10.3,10.3,0,0,1-10.8,9.7H38.5a10.7,10.7,0,0,1-9.3-11.6A10.3,10.3,0,0,1,40,140.4h0.2C45.8,140.9,50,146.1,49.5,152.1Z" style="fill:none;stroke:#1a0b2a;stroke-linecap:round;stroke-linejoin:round;stroke-width:2px"/>
    <path d="M45.3,151.6a5,5,0,0,1-5.2,4.7H40a5.2,5.2,0,0,1-4.5-5.6,5,5,0,0,1,5.2-4.7h0.1A5.1,5.1,0,0,1,45.3,151.6Z" style="fill:#d9e3ea"/>
    <path d="M44.6,151.6a5.3,5.3,0,0,1-5.5,5H38.9a5.5,5.5,0,0,1-4.8-6,5.3,5.3,0,0,1,5.5-5h0.1A5.5,5.5,0,0,1,44.6,151.6Z" style="fill:#15011c;opacity:0.150000005960464;isolation:isolate"/>
    <path d="M44.9,151.6a5.5,5.5,0,0,1-5.8,5.3H38.9a5.8,5.8,0,0,1-5-6.3,5.5,5.5,0,0,1,5.8-5.3h0.1A5.7,5.7,0,0,1,44.9,151.6Z" style="fill:none;stroke:#1a0b2a;stroke-linecap:round;stroke-linejoin:round;stroke-width:2px"/>
    <path d="M44.5,151.4a3.1,3.1,0,0,1-3.2,2.9H41.2a3.2,3.2,0,0,1-2.8-3.5,3.1,3.1,0,0,1,3.2-2.9h0.1A3.2,3.2,0,0,1,44.5,151.4Z" style="fill:#ff3721"/>
    <path d="M44.8,151.4a3.2,3.2,0,0,1-3.4,3.1H41.3a3.4,3.4,0,0,1-2.9-3.7,3.2,3.2,0,0,1,3.4-3.1h0.1A3.3,3.3,0,0,1,44.8,151.4Z" style="fill:none;stroke:#1a0b2a;stroke-linecap:round;stroke-linejoin:round;stroke-width:2px"/>
    <polygon points="47.2 136.4 37.4 136.4 38.4 131.1 46.2 131.1 47.2 136.4" style="fill:none;stroke:#1a0b2a;stroke-linecap:round;stroke-linejoin:round;stroke-width:2px"/>
    <polyline points="46.2 131.1 52 131.1 53 136.4 47.2 136.4" style="fill:none;stroke:#1a0b2a;stroke-linecap:round;stroke-linejoin:round;stroke-width:2px"/>
    <line x1="50.7" y1="167.7" x2="65.4" y2="163.9" style="fill:none;stroke:#1a0b2a;stroke-linecap:round;stroke-linejoin:round;stroke-width:2px"/>
    <line x1="68.5" y1="150.4" x2="72.1" y2="149.9" style="fill:none;stroke:#1a0b2a;stroke-linecap:round;stroke-linejoin:round;stroke-width:2px"/>
    <line x1="66.2" y1="155.7" x2="66.2" y2="164.7" style="fill:none;stroke:#1a0b2a;stroke-linecap:round;stroke-linejoin:round;stroke-width:2px"/>
    <path d="M58.5,146.7h0.1a4.7,4.7,0,0,1,4.2,5.2,4.6,4.6,0,0,1-4.4,4.3" style="fill:#ff3721"/>
    <path d="M58.5,146.7h6.2a4,4,0,0,1,3.7,4.3,4.2,4.2,0,0,1-3.9,4.1l-6.2,1.1" style="fill:none;stroke:#1a0b2a;stroke-linecap:round;stroke-linejoin:round;stroke-width:2px"/>
    <path d="M58.5,146.7h0.1a4.7,4.7,0,0,1,4.2,5.2,4.6,4.6,0,0,1-4.4,4.3" style="fill:none;stroke:#1a0b2a;stroke-linecap:round;stroke-linejoin:round;stroke-width:2px"/>
    <path d="M76.7,153.7c2.4-3.6,2.6-8.8-.6-13.4H76a11.2,11.2,0,0,1-4.6,9.5" style="fill:#d9e3ea"/>
    <path d="M75.3,153.3c2.4-3.6,4-8.3.8-12.9H76a11.2,11.2,0,0,1-3.7,8.7" style="fill:#15011c;opacity:0.150000005960464;isolation:isolate"/>
    <path d="M75.8,153.3c2.1-2.4,3.6-8.8.6-13.6h0a11.2,11.2,0,0,1-4.1,8.7" style="fill:none;stroke:#1a0b2a;stroke-linecap:round;stroke-linejoin:round;stroke-width:2px"/>
    <path d="M72.6,139.7a11.1,11.1,0,0,1-2,3.6" style="fill:none;stroke:#1a0b2a;stroke-linecap:round;stroke-linejoin:round;stroke-width:2px"/>
    <path d="M52.6,136.9H62.9c4.4,0.1,7,2.9,8,7.5l0.2,1c1.3,6.1,5,10.6,9.6,10.8" style="fill:none;stroke:#1a0b2a;stroke-linecap:round;stroke-linejoin:round;stroke-width:2px"/>
    <line x1="72.7" y1="139.6" x2="76.3" y2="139.6" style="fill:none;stroke:#1a0b2a;stroke-linecap:round;stroke-linejoin:round;stroke-width:2px"/>
    <path d="M164.3,142.8a13.3,13.3,0,0,1-.2-3.2l2.3,0.6h0.2l0.2,0.3a16.5,16.5,0,0,0,1,2.6,2.6,2.6,0,0,0,1.4,1.5,0.6,0.6,0,0,1,.5.3,0.7,0.7,0,0,1-.1.5c-0.3.7-.6,2.4-1.2,2.8s-1.2-.4-1.6-0.7A8.9,8.9,0,0,1,164.3,142.8Z" style="fill:#d9e3ea"/>
    <polyline points="158.8 160.3 145 147.1 140.9 154.2 158.8 171.5" style="fill:#d9e3ea"/>
    <line x1="140.9" y1="154.2" x2="158.8" y2="171.5" style="fill:none;stroke:#1a0b2a;stroke-linecap:round;stroke-linejoin:round;stroke-width:2px"/>
    <line x1="145" y1="147.1" x2="158.8" y2="160.3" style="fill:none;stroke:#1a0b2a;stroke-linecap:round;stroke-linejoin:round;stroke-width:2px"/>
    <path d="M155.9,157.5l2.9,2.8v11.2l-3.9-3.7Q155.4,162.6,155.9,157.5Z" style="fill:#15011c;opacity:0.150000005960464;isolation:isolate"/>
    <path d="M161.8,179.3a13.2,13.2,0,0,1-3.3-4.9V156.2c4.7,0,8.6-4.6,9.9-10.9l0.2-1c0.9-4.6,3.6-7.4,8-7.5h10.3l-11.7,45.3L164,180.1Z" style="fill:#1d3f59"/>
    <path d="M162.2,179.4h-0.4a13.2,13.2,0,0,1-3.3-4.9V156.2c4.7,0,8.6-4.6,9.9-10.9l0.2-1c0.9-4.6,3.6-7.4,8-7.5h10.3l-0.8,3.3h-5.7c-4.4.1-7,2.9-8,7.5l-0.2,1c-1.3,6.3-5.4,10.4-9.9,10.9v19.9Z" style="fill:#fff;opacity:0.200000002980232;isolation:isolate"/>
    <path d="M174.2,164.4l-0.3-.2a0.6,0.6,0,0,1-.1-0.4l-0.7-8.6a43.8,43.8,0,0,0,8,1.1c-0.3,1.7.4,3.3,1.2,4.9l1.6,3.2a28.9,28.9,0,0,0,1.9,2.5C182,166.9,177.9,165.5,174.2,164.4Z" style="fill:#d9e3ea"/>
    <path d="M179.3,152.4l-4.1-.8a43.7,43.7,0,0,0-8.5-1.5,18.9,18.9,0,0,0,1.6-4.7l0.2-1c0.9-4.6,3.6-7.4,8-7.5h10.3l-4,15.7Z" style="fill:#d9e3ea"/>
    <path d="M191.7,136.9h-7.8a2.4,2.4,0,0,0-2.4,2.4v18.2a10.8,10.8,0,0,0,10.8,10.8h5.6" style="fill:#d9e3ea"/>
    <path d="M180.9,146.7h-6.2A4,4,0,0,0,171,151a4.2,4.2,0,0,0,3.9,4.1l6.2,1.1" style="fill:#d9e3ea"/>
    <path d="M181,152.9v3.3l-6.2-1.1A4.2,4.2,0,0,1,171,151a5.1,5.1,0,0,1,.2-1.6C172,152.6,174.9,152.2,181,152.9Z" style="fill:#15011c;opacity:0.150000005960464;isolation:isolate"/>
    <path d="M158.7,156.4v16.9c0,2.6.6,4.3,2.8,5.4l13.2,3.4" style="fill:none;stroke:#1a0b2a;stroke-linecap:round;stroke-linejoin:round;stroke-width:2px"/>
    <polygon points="187.3 136.4 202 136.4 201 131.1 188.3 131.1 187.3 136.4" style="fill:#d9e3ea"/>
    <path d="M193.1,131.1H201l1,5.3h-9.8A31.5,31.5,0,0,0,193.1,131.1Z" style="fill:#15011c;opacity:0.150000005960464;isolation:isolate"/>
    <path d="M145.6,156l-1.4,1.4-3.3-3.2,4.2-7.1,2.9,2.8A12.8,12.8,0,0,1,145.6,156Z" style="fill:#15011c;opacity:0.150000005960464;isolation:isolate"/>
    <path d="M129.7,136.7l16.9,3.6a23,23,0,0,1-6.5,14.5" style="fill:#1d3f59"/>
    <path d="M146.5,140.4c-0.7,4.6-2.9,11-6.5,14.5l-3.9-6.8C137.1,147.9,145.8,141.3,146.5,140.4Z" style="fill:#15011c;opacity:0.2;isolation:isolate"/>
    <path d="M129.7,136.7l16.9,3.6a23,23,0,0,1-6.5,14.5" style="fill:none;stroke:#1d132d;stroke-linecap:round;stroke-linejoin:round;stroke-width:2px"/>
    <path d="M197.9,136.9h0a10.8,10.8,0,0,1,10.8,10.8v18.2a2.4,2.4,0,0,1-2.4,2.4H189.5a2.4,2.4,0,0,1-2.4-2.4V147.7A10.8,10.8,0,0,1,197.9,136.9Z" transform="translate(395.8 305.1) rotate(-180)" style="fill:#d9e3ea"/>
    <path d="M197.9,136.9h0a10.8,10.8,0,0,1,10.8,10.8v18.2a2.4,2.4,0,0,1-2.4,2.4H189.5a2.4,2.4,0,0,1-2.4-2.4V147.7A10.8,10.8,0,0,1,197.9,136.9Z" transform="translate(395.8 305.1) rotate(-180)" style="fill:#15011c;opacity:0.150000005960464;isolation:isolate"/>
    <path d="M173.2,164.7v15.2a2.4,2.4,0,0,0,2.4,2.4h9.8a2.4,2.4,0,0,0,2.4-2.4V167.5" style="fill:#1d3f59"/>
    <path d="M173.2,164.7v15.2a2.4,2.4,0,0,0,2.4,2.4h9.8a2.4,2.4,0,0,0,2.4-2.4V167.5" style="fill:#15011c;opacity:0.2;isolation:isolate"/>
    <path d="M197.9,136.9h0a10.8,10.8,0,0,1,10.8,10.8v18.2a2.4,2.4,0,0,1-2.4,2.4H189.5a2.4,2.4,0,0,1-2.4-2.4V147.7A10.8,10.8,0,0,1,197.9,136.9Z" transform="translate(395.8 305.1) rotate(-180)" style="fill:none;stroke:#1a0b2a;stroke-linecap:round;stroke-linejoin:round;stroke-width:2px"/>
    <path d="M191.7,136.9h-7.8a2.4,2.4,0,0,0-2.4,2.4v18.2a10.8,10.8,0,0,0,10.8,10.8h5.6" style="fill:none;stroke:#1a0b2a;stroke-linecap:round;stroke-linejoin:round;stroke-width:2px"/>
    <path d="M173.2,164.7v15.2a2.4,2.4,0,0,0,2.4,2.4h9.8a2.4,2.4,0,0,0,2.4-2.4V167.5" style="fill:none;stroke:#1a0b2a;stroke-linecap:round;stroke-linejoin:round;stroke-width:2px"/>
    <path d="M189.9,152.1a10.3,10.3,0,0,0,10.8,9.7h0.2a10.7,10.7,0,0,0,9.3-11.6,10.3,10.3,0,0,0-10.8-9.7h-0.2C193.6,140.9,189.5,146.1,189.9,152.1Z" style="fill:#d9e3ea"/>
    <path d="M189.9,152.1a10.3,10.3,0,0,0,10.8,9.7h0.2a10.7,10.7,0,0,0,9.3-11.6,10.3,10.3,0,0,0-10.8-9.7h-0.2C193.6,140.9,189.5,146.1,189.9,152.1Z" style="fill:none;stroke:#1a0b2a;stroke-linecap:round;stroke-linejoin:round;stroke-width:2px"/>
    <path d="M194.2,151.6a5,5,0,0,0,5.2,4.7h0.1a5.2,5.2,0,0,0,4.5-5.6,5,5,0,0,0-5.2-4.7h-0.1A5.1,5.1,0,0,0,194.2,151.6Z" style="fill:#d9e3ea"/>
    <path d="M194.9,151.6a5.3,5.3,0,0,0,5.5,5h0.1a5.5,5.5,0,0,0,4.8-6,5.3,5.3,0,0,0-5.5-5h-0.1A5.5,5.5,0,0,0,194.9,151.6Z" style="fill:#15011c;opacity:0.150000005960464;isolation:isolate"/>
    <path d="M194.6,151.6a5.5,5.5,0,0,0,5.8,5.3h0.1a5.8,5.8,0,0,0,5-6.3,5.5,5.5,0,0,0-5.8-5.3h-0.1A5.7,5.7,0,0,0,194.6,151.6Z" style="fill:none;stroke:#1a0b2a;stroke-linecap:round;stroke-linejoin:round;stroke-width:2px"/>
    <path d="M194.9,151.4a3.1,3.1,0,0,0,3.2,2.9h0.1a3.2,3.2,0,0,0,2.8-3.5,3.1,3.1,0,0,0-3.2-2.9h-0.1A3.2,3.2,0,0,0,194.9,151.4Z" style="fill:#ff3721"/>
    <path d="M194.7,151.4a3.2,3.2,0,0,0,3.4,3.1h0.1a3.4,3.4,0,0,0,2.9-3.7,3.2,3.2,0,0,0-3.4-3.1h-0.1A3.3,3.3,0,0,0,194.7,151.4Z" style="fill:none;stroke:#1a0b2a;stroke-linecap:round;stroke-linejoin:round;stroke-width:2px"/>
    <polygon points="192.3 136.4 202 136.4 201 131.1 193.3 131.1 192.3 136.4" style="fill:none;stroke:#1a0b2a;stroke-linecap:round;stroke-linejoin:round;stroke-width:2px"/>
    <polyline points="193.3 131.1 187.4 131.1 186.4 136.4 192.3 136.4" style="fill:none;stroke:#1a0b2a;stroke-linecap:round;stroke-linejoin:round;stroke-width:2px"/>
    <line x1="188.7" y1="167.7" x2="174.1" y2="163.9" style="fill:none;stroke:#1a0b2a;stroke-linecap:round;stroke-linejoin:round;stroke-width:2px"/>
    <line x1="171" y1="150.4" x2="167.3" y2="149.9" style="fill:none;stroke:#1a0b2a;stroke-linecap:round;stroke-linejoin:round;stroke-width:2px"/>
    <line x1="173.2" y1="155.7" x2="173.2" y2="164.7" style="fill:none;stroke:#1a0b2a;stroke-linecap:round;stroke-linejoin:round;stroke-width:2px"/>
    <path d="M180.9,146.7h-0.1a4.7,4.7,0,0,0-4.2,5.2,4.6,4.6,0,0,0,4.4,4.3" style="fill:#ff3721"/>
    <path d="M180.9,146.7h-6.2A4,4,0,0,0,171,151a4.2,4.2,0,0,0,3.9,4.1l6.2,1.1" style="fill:none;stroke:#1a0b2a;stroke-linecap:round;stroke-linejoin:round;stroke-width:2px"/>
    <path d="M180.9,146.7h-0.1a4.7,4.7,0,0,0-4.2,5.2,4.6,4.6,0,0,0,4.4,4.3" style="fill:none;stroke:#1a0b2a;stroke-linecap:round;stroke-linejoin:round;stroke-width:2px"/>
    <path d="M162.8,153.7c-2.4-3.6-2.6-8.8.6-13.4h0.1a11.2,11.2,0,0,0,4.6,9.5" style="fill:#d9e3ea"/>
    <path d="M164.1,153.3c-2.4-3.6-4-8.3-.8-12.9h0.1a11.2,11.2,0,0,0,3.7,8.7" style="fill:#15011c;opacity:0.150000005960464;isolation:isolate"/>
    <path d="M163.6,153.3c-2.1-2.4-3.6-8.8-.6-13.6h0a11.2,11.2,0,0,0,4.1,8.7" style="fill:none;stroke:#1a0b2a;stroke-linecap:round;stroke-linejoin:round;stroke-width:2px"/>
    <path d="M166.8,139.7a11.1,11.1,0,0,0,2,3.6" style="fill:none;stroke:#1a0b2a;stroke-linecap:round;stroke-linejoin:round;stroke-width:2px"/>
    <path d="M186.8,136.9H176.5c-4.4.1-7,2.9-8,7.5l-0.2,1c-1.3,6.1-5,10.6-9.6,10.8" style="fill:none;stroke:#1a0b2a;stroke-linecap:round;stroke-linejoin:round;stroke-width:2px"/>
    <line x1="166.8" y1="139.6" x2="163.2" y2="139.6" style="fill:none;stroke:#1a0b2a;stroke-linecap:round;stroke-linejoin:round;stroke-width:2px"/>
  </g>
  <g>
    <title>03</title>
    <g style="isolation:isolate">
      <path d="M54.5,76.2H49c-2,0-3.6,4.8-3.6,10.8S47,97.8,49,97.8h5.3" style="fill:#2e4159"/>
      <path d="M72.5,107.4V66.6H60.1c-3.8,0-6.9,9.1-6.9,20.4s3.1,20.4,6.9,20.4Z" style="fill:#dce3ea"/>
      <g style="opacity:0.15;mix-blend-mode:multiply">
        <path d="M55,100h-.2c1.3,4.6,3.2,7.5,5.3,7.5H72.5V91.3A22.9,22.9,0,0,1,55,100Z" style="fill:#180621"/>
      </g>
      <path d="M72.5,107.4V66.4H60.1c-3.8,0-6.9,9.2-6.9,20.5s3.1,20.5,6.9,20.5Z" style="fill:none;stroke:#1d132d;stroke-miterlimit:10;stroke-width:2px"/>
      <path d="M54.5,76.1H49c-2,0-3.6,4.8-3.6,10.8S47,97.7,49,97.7h5.3" style="fill:none;stroke:#1d132d;stroke-miterlimit:10;stroke-width:2px"/>
      <path d="M185.2,76.2h5.5c2,0,3.6,4.8,3.6,10.8s-1.6,10.8-3.6,10.8h-5.3" style="fill:#2e4159"/>
      <path d="M167.2,107.4V66.6h12.4c3.8,0,6.9,9.1,6.9,20.4s-3.1,20.4-6.9,20.4Z" style="fill:#dce3ea"/>
      <g style="opacity:0.15;mix-blend-mode:multiply">
        <path d="M184.7,100h.2c-1.3,4.6-3.2,7.5-5.3,7.5H167.2V91.3A22.9,22.9,0,0,0,184.7,100Z" style="fill:#180621"/>
      </g>
      <path d="M167.2,107.4V66.4h12.4c3.8,0,6.9,9.2,6.9,20.5s-3.1,20.5-6.9,20.5Z" style="fill:none;stroke:#1d132d;stroke-miterlimit:10;stroke-width:2px"/>
      <path d="M185.2,76.1h5.5c2,0,3.6,4.8,3.6,10.8s-1.6,10.8-3.6,10.8h-5.3" style="fill:none;stroke:#1d132d;stroke-miterlimit:10;stroke-width:2px"/>
    </g>
  </g>
  <g>
    <title>06</title>
    <path d="M125.4,136.4c19.6-.5,28.4-3.6,37.2-11.1s12.1-21.8,12.1-37.2c0-27.7-17.6-49.2-43.4-53.7a76.8,76.8,0,0,0-11.1-.9,84.7,84.7,0,0,0-11.6.9C82.9,39,65.3,60.5,65.3,88.1c0,15.4,3.2,29.6,12.1,37.2s18.2,10.8,39.5,11.1Z" style="fill:#703c81;stroke:#1d132d;stroke-miterlimit:10;stroke-width:2px"/>
    <path d="M109.2,136.5c-7,6.6-11.8,18.9-11.8,29.9,0,16,10.1,19.5,22.6,19.5s22.6-3.4,22.6-19.5c0-11.1-4.9-23.5-12-30.1" style="fill:#703c81;stroke:#1d132d;stroke-miterlimit:10;stroke-width:2px"/>
    <path d="M130.9,136.7c-3.4.7-18,.5-21.3-.1h-.4c-7,6.6-11.8,18.9-11.8,29.9,0,16,10.1,19.5,22.6,19.5s22.6-3.4,22.6-19.5C142.6,155.5,137.8,143.3,130.9,136.7Z" style="fill:#703c81"/>
    <path d="M130.8,136.2c0,.2,5,7.1,5,7.4a15.7,15.7,0,1,1-31.4,0c0-.2,5.4-6.9,5.4-7.1" style="fill:#ff9a00"/>
    <path d="M97.8,162.5a45.3,45.3,0,0,0,14.7,8.6h.2a33.3,33.3,0,0,1-15-2.2" style="fill:#ff9a00"/>
    <path d="M142.2,162.5a45.3,45.3,0,0,1-14.7,8.6h-.2a33.3,33.3,0,0,0,15-2.2" style="fill:#ff9a00"/>
    <path d="M135.7,142.8q0,.4,0,.7a15.7,15.7,0,1,1-31.4,0q0-.4,0-.7" style="fill:none;stroke:#1d132d;stroke-linecap:round;stroke-linejoin:round;stroke-width:2px"/>
    <line x1="120" y1="159.3" x2="120" y2="185.6" style="fill:none;stroke:#1d132d;stroke-linecap:round;stroke-linejoin:round;stroke-width:2px"/>
    <path d="M97.8,162.5a45.3,45.3,0,0,0,14.7,8.6h.2a33.3,33.3,0,0,1-15-2.2" style="fill:none;stroke:#1d132d;stroke-linecap:round;stroke-linejoin:round;stroke-width:2px"/>
    <path d="M142.2,162.5a45.3,45.3,0,0,1-14.7,8.6h-.2a33.3,33.3,0,0,0,15-2.2" style="fill:none;stroke:#1d132d;stroke-linecap:round;stroke-linejoin:round;stroke-width:2px"/>
    <path d="M130.5,136.2c-3.1.3-6.1.6-9.4.6a111.1,111.1,0,0,1-12.3-.4L102,146a41,41,0,0,0,17.6,3.6,40.7,40.7,0,0,0,17.8-3.7C137.2,145.6,130.9,136.7,130.5,136.2Z" style="fill:#180621;opacity:0.15"/>
    <path d="M109.5,136.3l-.6.5c-6.9,6.7-11.5,18.8-11.5,29.6,0,16,10.1,19.5,22.6,19.5s22.6-3.4,22.6-19.5c0-11-4.8-23.3-11.8-29.9l-.2-.2" style="fill:none;stroke:#1d132d;stroke-linecap:round;stroke-linejoin:round;stroke-width:2px"/>
    <g style="opacity:0.30000000000000004">
      <path d="M108.7,44.1a84.7,84.7,0,0,1,11.6-.9,76.8,76.8,0,0,1,11.1.9c24.4,4.3,41.5,23.9,43.2,49.5q.1-2.7.1-5.5c0-27.7-17.6-49.2-43.4-53.7a76.8,76.8,0,0,0-11.1-.9,84.7,84.7,0,0,0-11.6.9C82.9,39,65.3,60.5,65.3,88.1q0,2.8.1,5.5C67.1,68,84.3,48.4,108.7,44.1Z" style="fill:#fff"/>
    </g>
    <path d="M125.4,136.4c19.6-.5,28.4-3.6,37.2-11.1s12.1-21.8,12.1-37.2c0-27.7-17.6-49.2-43.4-53.7a76.8,76.8,0,0,0-11.1-.9,84.7,84.7,0,0,0-11.6.9C82.9,39,65.3,60.5,65.3,88.1c0,15.4,3.2,29.6,12.1,37.2s18.2,10.8,39.5,11.1Z" style="fill:none;stroke:#1d132d;stroke-miterlimit:10;stroke-width:2px"/>
    <path d="M109.2,136.5c-7,6.6-11.8,18.9-11.8,29.9,0,16,10.1,19.5,22.6,19.5s22.6-3.4,22.6-19.5c0-11.1-4.9-23.5-12-30.1" style="fill:none;stroke:#1d132d;stroke-miterlimit:10;stroke-width:2px"/>
    <g style="opacity:0.30000000000000004">
      <path d="M108.7,44.1a84.7,84.7,0,0,1,11.6-.9,76.8,76.8,0,0,1,11.1.9c24.4,4.3,41.5,23.9,43.2,49.5q.1-2.7.1-5.5c0-27.7-17.6-49.2-43.4-53.7a76.8,76.8,0,0,0-11.1-.9,84.7,84.7,0,0,0-11.6.9C82.9,39,65.3,60.5,65.3,88.1q0,2.8.1,5.5C67.1,68,84.3,48.4,108.7,44.1Z" style="fill:#fff"/>
    </g>
    <path d="M125.4,136.4c19.6-.5,28.4-3.6,37.2-11.1s12.1-21.8,12.1-37.2c0-27.7-17.6-49.2-43.4-53.7a76.8,76.8,0,0,0-11.1-.9,84.7,84.7,0,0,0-11.6.9C82.9,39,65.3,60.5,65.3,88.1c0,15.4,3.2,29.6,12.1,37.2s18.2,10.8,39.5,11.1Z" style="fill:none;stroke:#1d132d;stroke-miterlimit:10;stroke-width:2px"/>
  </g>
  <g>
    <title>03</title>
    <path d="M105.1,136.2c-13.7-1.1-21.1-4.3-28.4-10.6a15.7,15.7,0,0,1-3.7-4c-2.4-4.2-7.2-18.1-7.2-18.1,14.5,13.8,41.2,11.8,53.6-.4h0c12.4,11.9,37.1,12.9,54,.8,0,0-4.2,13.6-7.6,17.7a31.5,31.5,0,0,1-3.7,4c-7.3,6.3-14.7,9.5-28.4,10.6h.2a20.3,20.3,0,0,0-14.4,7.2h-.1a20.3,20.3,0,0,0-14.4-7.2" style="fill:#2e4159"/>
    <path d="M173.3,103.4c-13.5,13-40.8,11.3-53.1-.5H120v40.2h.2a20.3,20.3,0,0,1,14.4-7.2h-.2c13.7-1.1,21.1-4.3,28.4-10.6,1.4-1.2,2.6-3.2,3.9-4.5C170.3,117.3,173.3,103.4,173.3,103.4Z" style="fill:#fff;opacity:0.2"/>
    <path d="M120.1,107.9h0c12,10.3,34.7,11.6,51.5,1.8,1-3.3,1.7-5.9,1.7-5.9-16.9,12.1-40.8,11-53.1-.9h0C107.7,115,81,117,66.5,103.3c0,0,1.1,3.1,2.5,6.8C83.9,120.3,108.4,118.2,120.1,107.9Z" style="fill:#fff;opacity:0.1"/>
    <g style="opacity:0.2">
      <path d="M106.9,128a1,1,0,0,1-.1-2l7.6-1a1,1,0,1,1,.3,2l-7.6,1Z" style="fill:#fff"/>
      <path d="M107.3,121.9a1,1,0,0,1-.1-2l7.6-1a1,1,0,1,1,.3,2l-7.6,1Z" style="fill:#fff"/>
    </g>
    <line x1="114.6" y1="125.4" x2="106.9" y2="126.5" style="fill:none;stroke:#1d132d;stroke-linecap:round;stroke-linejoin:round;stroke-width:2px"/>
    <line x1="114.9" y1="119.4" x2="107.3" y2="120.4" style="fill:none;stroke:#1d132d;stroke-linecap:round;stroke-linejoin:round;stroke-width:2px"/>
    <g style="opacity:0.2">
      <path d="M133.1,128a1,1,0,0,0,.1-2l-7.6-1a1,1,0,1,0-.3,2l7.6,1Z" style="fill:#fff"/>
      <path d="M132.7,121.9a1,1,0,0,0,.1-2l-7.6-1a1,1,0,0,0-.3,2l7.6,1Z" style="fill:#fff"/>
    </g>
    <line x1="125.4" y1="125.4" x2="133.1" y2="126.5" style="fill:none;stroke:#1d132d;stroke-linecap:round;stroke-linejoin:round;stroke-width:2px"/>
    <line x1="125.1" y1="119.4" x2="132.7" y2="120.4" style="fill:none;stroke:#1d132d;stroke-linecap:round;stroke-linejoin:round;stroke-width:2px"/>
    <path d="M120,143.1h0a20.3,20.3,0,0,1,14.4-7.2h-.2c13.7-1.1,21.1-4.3,28.4-10.6,1.4-1.2,5.2-4.1,8.3-11.7,1.9-4.6,3-13.6,3-13.6-6,16.7-40.7,15.6-54,2.8h.1c-13.4,12.8-48,13.8-54-2.8,0,0,1.2,9,3,13.6,3.1,7.6,7,10.5,8.3,11.7,7.3,6.3,14.7,9.5,28.4,10.6h-.2a20.3,20.3,0,0,1,14.4,7.2h0" style="fill:none;stroke:#1d132d;stroke-linecap:round;stroke-linejoin:round;stroke-width:2px"/>
  </g>
  <g>
    <title>05</title>
    <circle cx="148.2" cy="84.4" r="16.2" style="fill:#36c8e3"/>
    <circle cx="148.2" cy="84.4" r="16.2" style="fill:#dce3ea"/>
    <circle cx="92" cy="84.4" r="16.2" style="fill:#36c8e3"/>
    <circle cx="92" cy="84.4" r="16.2" style="fill:#dce3ea"/>
    <g style="opacity:0.5">
      <path d="M92,68.1a16.2,16.2,0,0,0-14.3,8.6,16.4,16.4,0,0,0,28.2-.7A16.2,16.2,0,0,0,92,68.1Z" style="fill:#fff"/>
    </g>
    <circle cx="92" cy="84.4" r="16.2" style="fill:none;stroke:#1d132d;stroke-linecap:round;stroke-linejoin:round;stroke-width:2px"/>
    <line x1="77" y1="78.1" x2="93.1" y2="78.1" style="fill:none;stroke:#1d132d;stroke-linecap:round;stroke-linejoin:round;stroke-width:2px"/>
    <line x1="77" y1="83.9" x2="107.8" y2="84" style="fill:none;stroke:#1d132d;stroke-linecap:round;stroke-linejoin:round;stroke-width:2px"/>
    <line x1="77" y1="89.7" x2="107" y2="90" style="fill:none;stroke:#1d132d;stroke-linecap:round;stroke-linejoin:round;stroke-width:2px"/>
    <line x1="89.6" y1="95.6" x2="103.2" y2="95.5" style="fill:none;stroke:#1d132d;stroke-linecap:round;stroke-linejoin:round;stroke-width:2px"/>
    <line x1="88" y1="72.6" x2="103.2" y2="72.6" style="fill:none;stroke:#1d132d;stroke-linecap:round;stroke-linejoin:round;stroke-width:2px"/>
    <line x1="80.8" y1="72.6" x2="84.3" y2="72.6" style="fill:none;stroke:#1d132d;stroke-linecap:round;stroke-linejoin:round;stroke-width:2px"/>
    <line x1="97.1" y1="78.1" x2="106.7" y2="78.1" style="fill:none;stroke:#1d132d;stroke-linecap:round;stroke-linejoin:round;stroke-width:2px"/>
    <g style="opacity:0.5">
      <path d="M148.2,68.1a16.2,16.2,0,0,0-14.3,8.6,16.4,16.4,0,0,0,28.2-.7A16.2,16.2,0,0,0,148.2,68.1Z" style="fill:#fff"/>
    </g>
    <circle cx="148.2" cy="84.4" r="16.2" style="fill:none;stroke:#1d132d;stroke-linecap:round;stroke-linejoin:round;stroke-width:2px"/>
    <line x1="133.3" y1="78.1" x2="149.3" y2="78.1" style="fill:none;stroke:#1d132d;stroke-linecap:round;stroke-linejoin:round;stroke-width:2px"/>
    <line x1="133.3" y1="83.9" x2="164.1" y2="84" style="fill:none;stroke:#1d132d;stroke-linecap:round;stroke-linejoin:round;stroke-width:2px"/>
    <line x1="133.3" y1="89.7" x2="163.2" y2="90" style="fill:none;stroke:#1d132d;stroke-linecap:round;stroke-linejoin:round;stroke-width:2px"/>
    <line x1="145.8" y1="95.6" x2="159.5" y2="95.5" style="fill:none;stroke:#1d132d;stroke-linecap:round;stroke-linejoin:round;stroke-width:2px"/>
    <line x1="144.2" y1="72.6" x2="159.5" y2="72.6" style="fill:none;stroke:#1d132d;stroke-linecap:round;stroke-linejoin:round;stroke-width:2px"/>
    <line x1="137" y1="72.6" x2="140.5" y2="72.6" style="fill:none;stroke:#1d132d;stroke-linecap:round;stroke-linejoin:round;stroke-width:2px"/>
    <line x1="153.3" y1="78.1" x2="162.9" y2="78.1" style="fill:none;stroke:#1d132d;stroke-linecap:round;stroke-linejoin:round;stroke-width:2px"/>
  </g>
  <g>
    <title>05</title>
    <path d="M120.1,58.2h0l13.5-13.1,3.6-9A52.4,52.4,0,0,0,120,33.5a58.2,58.2,0,0,0-16.7,2.3l3.4,9.3Z" style="fill:#dce3ea"/>
    <path d="M80.9,48.9a50.6,50.6,0,0,1,20-12l1.4-.8V14.8h-12L79.5,49.8l1.1-.7Z" style="fill:#2e4159"/>
    <polygon points="102.3 20.3 102.3 14.8 90.3 14.8 88.6 20.3 102.3 20.3" style="fill:#dce3ea"/>
    <path d="M159.3,48.9a50.6,50.6,0,0,0-20-12l-1.4-.8V14.8h12l10.8,35.1-1.1-.7Z" style="fill:#2e4159"/>
    <polygon points="137.9 20.3 137.9 14.8 149.9 14.8 151.6 20.3 137.9 20.3" style="fill:#dce3ea"/>
    <line x1="89.2" y1="20" x2="101.8" y2="20" style="fill:none;stroke:#1d132d;stroke-linecap:round;stroke-linejoin:round;stroke-width:2px"/>
    <polyline points="106.6 45.1 120.1 58.2 120.1 58.2 133.6 45.1" style="fill:none;stroke:#1d132d;stroke-linecap:round;stroke-linejoin:round;stroke-width:2px"/>
    <line x1="113.5" y1="51.4" x2="126.6" y2="51.4" style="fill:none;stroke:#1d132d;stroke-linecap:round;stroke-linejoin:round;stroke-width:2px"/>
    <line x1="107.6" y1="45.5" x2="132.5" y2="45.6" style="fill:none;stroke:#1d132d;stroke-linecap:round;stroke-linejoin:round;stroke-width:2px"/>
    <line x1="135.2" y1="39.6" x2="104.8" y2="39.6" style="fill:none;stroke:#1d132d;stroke-linecap:round;stroke-linejoin:round;stroke-width:2px"/>
    <line x1="106.4" y1="44.9" x2="102.3" y2="35.5" style="fill:none;stroke:#1d132d;stroke-linecap:round;stroke-linejoin:round;stroke-width:2px"/>
    <line x1="150.9" y1="20.1" x2="138.3" y2="20.1" style="fill:none;stroke:#1d132d;stroke-linecap:round;stroke-linejoin:round;stroke-width:2px"/>
    <line x1="133.7" y1="45" x2="137.8" y2="35.6" style="fill:none;stroke:#1d132d;stroke-linecap:round;stroke-linejoin:round;stroke-width:2px"/>
    <polyline points="79.5 49.8 90.3 14.8 102.3 14.8 102.3 36" style="fill:none;stroke:#1d132d;stroke-linecap:round;stroke-linejoin:round;stroke-width:2px"/>
    <polyline points="160.6 50 149.9 14.9 137.9 14.9 137.9 36.1" style="fill:none;stroke:#1d132d;stroke-linecap:round;stroke-linejoin:round;stroke-width:2px"/>
    <path d="M160.7,50.3a51.5,51.5,0,0,0-29.4-15.9,76.8,76.8,0,0,0-11.1-.9,84.7,84.7,0,0,0-11.6.9A51.5,51.5,0,0,0,79.6,50" style="fill:none;stroke:#1d132d;stroke-linecap:round;stroke-linejoin:round;stroke-width:2px"/>
  </g>
</svg>