<svg xmlns="http://www.w3.org/2000/svg" xmlns:xlink="http://www.w3.org/1999/xlink" viewBox="0 0 240 240">
  <ellipse cx="120.5" cy="233.4" rx="43.7" ry="4.9" style="fill:#180621;opacity:0.15"/>
  <g>
    <title>06</title>
    <path d="M161.8,221.3c.5-4.1-.9-12.6-.9-12.6s-8.1,3.9-10.4,9.4a6,6,0,0,0-.4,1.3v.2a14.1,14.1,0,0,1-3.7-2.6h-.1c.3-1.2.2-2.1-.4-2.5l-3.4-2.6-.3.2c.5-1.2.6-2.2.1-2.8l-2.4-3.2-1.2.6c.9-1.2,1.3-2.3.9-3.2l-2.1-4.6h-.2a2.9,2.9,0,0,0,1-2.4l-1-5.8h-.2a3.1,3.1,0,0,0,1.3-2.3v-8H101.5v8c0,1.3,1.1,2.4,3,3.4h-.2l1.7,10.2c.2,1.1,1.3,2,3.2,2.5h-.1l4.6,10.5c.5,1.2,2.5,1.7,5.2,1.4l-.8.4,5.4,7.1c1,1.3,4.3.6,8-1.5l-1.9,1.8L135,229c.8.6,2.2.1,3.9-1.2l-.4.6a26.9,26.9,0,0,0,14-.8v.4a5.9,5.9,0,0,0,3.3,3.4c5.5,2.3,14-.6,14-.6S165,223.9,161.8,221.3Z" style="fill:#dce3ea"/>
    <path d="M161.8,221.3c.5-4.1-.9-12.6-.9-12.6s-8.1,3.9-10.4,9.4a6,6,0,0,0-.4,1.3v.2a14.1,14.1,0,0,1-3.7-2.6h-.1c.3-1.2.2-2.1-.4-2.5l-3.4-2.6-.3.2c.5-1.2.6-2.2.1-2.8l-2.4-3.2-1.2.6c.9-1.2,1.3-2.3.9-3.2l-2.1-4.6h-.2a2.9,2.9,0,0,0,1-2.4l-1-5.8h-.2a3.1,3.1,0,0,0,1.3-2.3v-8H101.5v8c0,1.3,1.1,2.4,3,3.4h-.2l1.7,10.2c.2,1.1,1.3,2,3.2,2.5h-.1l4.6,10.5c.5,1.2,2.5,1.7,5.2,1.4l-.8.4,5.4,7.1c1,1.3,4.3.6,8-1.5l-1.9,1.8L135,229c.8.6,2.2.1,3.9-1.2l-.4.6a26.9,26.9,0,0,0,14-.8v.4a5.9,5.9,0,0,0,3.3,3.4c5.5,2.3,14-.6,14-.6S165,223.9,161.8,221.3Z" style="fill:#dce3ea"/>
    <path d="M152.6,228v.2a35.4,35.4,0,0,1,4.6-3.7l1.7-1.1a8.3,8.3,0,0,1,1.2-1.2l.3-.8a11.1,11.1,0,0,1-2.7.3,9.7,9.7,0,0,1-7.5-3.2l-.2.8v.2a14.1,14.1,0,0,1-3.7-2.6h-.1c.3-1.2.2-2.1-.4-2.5l-3.4-2.6-.3.2c.5-1.2.6-2.2.1-2.8l-2.4-3.2-1.2.6c.9-1.2,1.3-2.3.9-3.2l-2.1-4.6h-.2a2.9,2.9,0,0,0,1-2.4l-1-5.8h-.2a3.1,3.1,0,0,0,1.3-2.3v-8H101.5v8c0,1.3,1.1,2.4,3,3.4h-.2l1.7,10.2c.2,1.1,1.3,2,3.2,2.5h-.1l4.6,10.5c.5,1.2,2.5,1.7,5.2,1.4l-.8.4,5.4,7.1c1,1.3,4.3.6,8-1.5l-1.9,1.8L135,229c.8.6,2.2.1,3.9-1.2l-.4.6a26.9,26.9,0,0,0,14-.8Z" style="fill:#dce3ea"/>
    <path d="M101.5,179.8v3.5c0,3.5,8.3,6.2,18.5,6.2s18.4-2.8,18.5-6.2v-3.6Z" style="fill:#180621;opacity:0.15"/>
    <path d="M138.6,180.8H101.5v8c0,3.5,8.3,6.2,18.5,6.2s18.5-2.8,18.5-6.2Z" style="fill:none;stroke:#1d132d;stroke-miterlimit:10;stroke-width:2px"/>
    <path d="M104.3,192.2l1.7,10.2c.5,3,8.2,4.2,17.2,2.7s15.8-5.2,15.3-8.3l-1-5.8" style="fill:none;stroke:#1d132d;stroke-linecap:round;stroke-linejoin:round;stroke-width:2px"/>
    <path d="M109.1,205l4.6,10.5c1.1,2.4,7.8,1.8,15.1-1.4s12.2-7.8,11.1-10.2l-2.1-4.6" style="fill:none;stroke:#1d132d;stroke-linecap:round;stroke-linejoin:round;stroke-width:2px"/>
    <path d="M118,217.3l5.4,7.1c1.4,1.8,6.8-.1,12.1-4.2s8.5-8.8,7.1-10.6l-2.4-3.2" style="fill:none;stroke:#1d132d;stroke-linecap:round;stroke-linejoin:round;stroke-width:2px"/>
    <path d="M129.5,224.7,135,229c1.3,1,4.9-1.3,7.9-5.3s4.4-8,3.1-9l-3.4-2.6" style="fill:none;stroke:#1d132d;stroke-linecap:round;stroke-linejoin:round;stroke-width:2px"/>
    <path d="M146.5,217.1c3.8,3.7,9.4,4.6,14,4.9h.2c-4.4,5-11.3,8.4-22.3,6.5" style="fill:none;stroke:#1d132d;stroke-linecap:round;stroke-linejoin:round;stroke-width:2px"/>
    <path d="M152.6,228a5.9,5.9,0,0,0,3.3,3.4c5.5,2.3,14-.6,14-.6s-4.9-7-8.2-9.6c.5-4.1-.9-12.6-.9-12.6s-8.1,3.9-10.4,9.4a6,6,0,0,0-.4,1.3" style="fill:none;stroke:#1d132d;stroke-linecap:round;stroke-linejoin:round;stroke-width:2px"/>
    <path d="M122.8,194.9l-4-.5a53.1,53.1,0,0,1-10.9-1.2l-2.9-.9h-.7l.7,4.2a43.6,43.6,0,0,0,14.6,2.3c7.7,0,14.5-1.7,18.5-4.2l-.5-2.6A33.6,33.6,0,0,1,122.8,194.9Z" style="fill:#180621;opacity:0.15"/>
    <path d="M137.7,199.8a33.6,33.6,0,0,1-14.3,5.1h-4a53.1,53.1,0,0,1-9.7.5v1a24.9,24.9,0,0,1,1.3,3.3,48.1,48.1,0,0,0,9.8-.6c7.6-1.2,14-3.9,17.6-7Z" style="fill:#180621;opacity:0.15"/>
    <path d="M139.9,206.1a33.6,33.6,0,0,1-12.4,8.8l-3.9,1.2-4.8,1.8a26,26,0,0,1,1.7,3c11.5-3,18.4-9.1,20.8-12.6Z" style="fill:#180621;opacity:0.15"/>
    <path d="M142.9,212.3A33.6,33.6,0,0,1,132,222.9l-2.1,1.1a25,25,0,0,1,2.4,2.6c7-4.3,11-9.3,12.4-12.4Z" style="fill:#180621;opacity:0.15"/>
    <path d="M139.7,228.6a24.5,24.5,0,0,1,3.8.3,27.1,27.1,0,0,0,5.5-9.2l-2.1-1.6a35.6,35.6,0,0,1-7.4,10.6Z" style="fill:#180621;opacity:0.15"/>
    <path d="M152.7,215.2l-2.6,4.5,11,1.7a15.4,15.4,0,0,0,.7-2.2A16.6,16.6,0,0,1,152.7,215.2Z" style="fill:#180621;opacity:0.15"/>
    <path d="M156.5,231.3l-3.8-3.5,8.7-5.8s2,1.3,2.2,1.7A23.7,23.7,0,0,0,156.5,231.3Z" style="fill:#180621;opacity:0.15"/>
  </g>
  <g>
    <title>01</title>
    <path d="M87.6,143.7l21.9-8.2a3.9,3.9,0,0,1,5,2.3h0a3.9,3.9,0,0,1-2.3,5l-23.6,8.8a3.8,3.8,0,0,1-1.9.2" style="fill:#dce3ea"/>
    <path d="M87.6,143.7l21.9-8.2a3.9,3.9,0,0,1,5,2.3h0a3.9,3.9,0,0,1-2.3,5l-23.6,8.8a3.8,3.8,0,0,1-1.9.2" style="fill:#180621;opacity:0.15"/>
    <path d="M48.4,134.4a43,43,0,0,0,37.7,47.7s-13.5-20.6-12.9-50a47.3,47.3,0,0,0-12.4-.9A35.1,35.1,0,0,0,48.4,134.4Z" style="fill:#2e4159"/>
    <path d="M58.5,167.3c-13.8-17.3-9.1-28.7-8.7-28.7a15.8,15.8,0,0,1,8.9,28.8" style="fill:#fff;opacity:0.5"/>
    <path d="M58.5,167.3l-1.4-1.8Z" style="fill:#fff;opacity:0.5"/>
    <path d="M48.7,144a14.3,14.3,0,0,1,9.4,3.6c2.2,2,5.4-.8,3.9-3h0a15.7,15.7,0,0,0-12.3-6c-.2,0-1.2,2.3-1.1,6.3C48.7,144.6,48.7,144.3,48.7,144Z" style="fill:#fff;opacity:0.5"/>
    <path d="M49,148.2v0Z" style="fill:#fff;opacity:0.5"/>
    <path d="M48.8,147v0Z" style="fill:#fff;opacity:0.5"/>
    <path d="M48.7,145.9v0Z" style="fill:#fff;opacity:0.5"/>
    <path d="M65.4,152.4v0Z" style="fill:#fff;opacity:0.5"/>
    <path d="M65.1,150.8v0Z" style="fill:#fff;opacity:0.5"/>
    <path d="M62.1,144.6a15.9,15.9,0,0,1,1.9,3A15.8,15.8,0,0,0,62.1,144.6Z" style="fill:#fff;opacity:0.5"/>
    <path d="M64.7,149.4l.2.7Z" style="fill:#fff;opacity:0.5"/>
    <path d="M64.2,148l.3.8Z" style="fill:#fff;opacity:0.5"/>
    <path d="M53.4,159.9l-.6-1.1Z" style="fill:#fff;opacity:0.5"/>
    <path d="M54.4,161.5l-.6-1Z" style="fill:#fff;opacity:0.5"/>
    <path d="M52.6,158.3l-.7-1.5Z" style="fill:#fff;opacity:0.5"/>
    <path d="M55.5,163.2l-.7-1.1Z" style="fill:#fff;opacity:0.5"/>
    <path d="M56.7,165l-.8-1.2Z" style="fill:#fff;opacity:0.5"/>
    <path d="M50.4,153.4l-.3-.9Z" style="fill:#fff;opacity:0.5"/>
    <path d="M50,152.1l-.3-.9Z" style="fill:#fff;opacity:0.5"/>
    <path d="M51.7,156.5l-.5-1.2Z" style="fill:#fff;opacity:0.5"/>
    <path d="M49.6,150.8q-.3-1.3-.5-2.4C49.2,149.1,49.4,149.9,49.6,150.8Z" style="fill:#fff;opacity:0.5"/>
    <path d="M51,154.9l-.4-.9Z" style="fill:#fff;opacity:0.5"/>
    <path d="M55.3,162.4c-8.6-10.8-6.2-18.3-6-18.3a10.6,10.6,0,0,1,10.3,10.2,9.8,9.8,0,0,1-4.3,8.1" style="fill:#dce3ea"/>
    <path d="M59.3,151.7a10.7,10.7,0,0,0-9.9-7.6c-.2,0-1.3,3.2.5,8.5a10.6,10.6,0,0,0,9.5-1Z" style="fill:#fff;opacity:0.5"/>
    <path d="M73.6,136.4l15.5,8.2a3.8,3.8,0,0,1,1.6,5.2h0a3.8,3.8,0,0,1-5.2,1.6l-11.2-5.9" style="fill:#dce3ea"/>
    <path d="M48.4,134.4a43,43,0,0,0,37.7,47.7s-13.5-20.6-12.9-50a47.3,47.3,0,0,0-12.4-.9A35.1,35.1,0,0,0,48.4,134.4Z" style="fill:none;stroke:#1d132d;stroke-linecap:round;stroke-linejoin:round;stroke-width:2px"/>
    <path d="M48.6,144.1h1.2a10.4,10.4,0,0,1,5.5,19.2" style="fill:none;stroke:#1d132d;stroke-linecap:round;stroke-linejoin:round;stroke-width:2px"/>
    <path d="M48.6,138.7h1.2a15.8,15.8,0,0,1,8.9,28.8" style="fill:none;stroke:#1d132d;stroke-linecap:round;stroke-linejoin:round;stroke-width:2px"/>
    <path d="M73.6,136.4l15.5,8.2a3.8,3.8,0,0,1,1.6,5.2h0a3.8,3.8,0,0,1-5.2,1.6l-11.2-5.9" style="fill:none;stroke:#1d132d;stroke-linecap:round;stroke-linejoin:round;stroke-width:2px"/>
    <path d="M87.6,143.7l21.9-8.2a3.9,3.9,0,0,1,5,2.3h0a3.9,3.9,0,0,1-2.3,5l-23.6,8.8a3.8,3.8,0,0,1-1.9.2" style="fill:none;stroke:#1d132d;stroke-linecap:round;stroke-linejoin:round;stroke-width:2px"/>
    <path d="M152.3,143.7l-21.9-8.2a3.9,3.9,0,0,0-5,2.3h0a3.9,3.9,0,0,0,2.3,5l23.6,8.8a3.8,3.8,0,0,0,1.9.2" style="fill:#dce3ea"/>
    <path d="M152.3,143.7l-21.9-8.2a3.9,3.9,0,0,0-5,2.3h0a3.9,3.9,0,0,0,2.3,5l23.6,8.8a3.8,3.8,0,0,0,1.9.2" style="fill:#180621;opacity:0.15"/>
    <path d="M191.6,134.4a43,43,0,0,1-37.7,47.7s13.5-20.6,12.9-50a47.3,47.3,0,0,1,12.4-.9A35.1,35.1,0,0,1,191.6,134.4Z" style="fill:#2e4159"/>
    <path d="M181.5,167.3c13.8-17.3,9.1-28.7,8.8-28.7a15.8,15.8,0,0,0-8.9,28.8" style="fill:#fff;opacity:0.5"/>
    <path d="M181.5,167.3l1.4-1.8Z" style="fill:#fff;opacity:0.5"/>
    <path d="M191.3,144a14.3,14.3,0,0,0-9.4,3.6c-2.2,2-5.4-.8-3.9-3h0a15.7,15.7,0,0,1,12.3-6c.2,0,1.2,2.3,1.1,6.3C191.3,144.6,191.3,144.3,191.3,144Z" style="fill:#fff;opacity:0.5"/>
    <path d="M191,148.2v0Z" style="fill:#fff;opacity:0.5"/>
    <path d="M191.1,147v0Z" style="fill:#fff;opacity:0.5"/>
    <path d="M191.2,145.9v0Z" style="fill:#fff;opacity:0.5"/>
    <path d="M174.6,152.4v0Z" style="fill:#fff;opacity:0.5"/>
    <path d="M174.9,150.8v0Z" style="fill:#fff;opacity:0.5"/>
    <path d="M177.9,144.6a15.9,15.9,0,0,0-1.9,3A15.8,15.8,0,0,1,177.9,144.6Z" style="fill:#fff;opacity:0.5"/>
    <path d="M175.3,149.4l-.2.7Z" style="fill:#fff;opacity:0.5"/>
    <path d="M175.8,148l-.3.8Z" style="fill:#fff;opacity:0.5"/>
    <path d="M186.6,159.9l.6-1.1Z" style="fill:#fff;opacity:0.5"/>
    <path d="M185.6,161.5l.6-1Z" style="fill:#fff;opacity:0.5"/>
    <path d="M187.4,158.3l.7-1.5Z" style="fill:#fff;opacity:0.5"/>
    <path d="M184.5,163.2l.7-1.1Z" style="fill:#fff;opacity:0.5"/>
    <path d="M183.3,165l.8-1.2Z" style="fill:#fff;opacity:0.5"/>
    <path d="M189.6,153.4l.3-.9Z" style="fill:#fff;opacity:0.5"/>
    <path d="M190,152.1l.3-.9Z" style="fill:#fff;opacity:0.5"/>
    <path d="M188.3,156.5l.5-1.2Z" style="fill:#fff;opacity:0.5"/>
    <path d="M190.4,150.8q.3-1.3.5-2.4C190.8,149.1,190.6,149.9,190.4,150.8Z" style="fill:#fff;opacity:0.5"/>
    <path d="M189,154.9l.4-.9Z" style="fill:#fff;opacity:0.5"/>
    <path d="M184.7,162.4c8.6-10.8,6.2-18.3,6-18.3a10.6,10.6,0,0,0-10.3,10.2,9.8,9.8,0,0,0,4.3,8.1" style="fill:#dce3ea"/>
    <path d="M180.3,151.7a10.7,10.7,0,0,1,9.9-7.6c.2,0,1.3,3.2-.5,8.5a10.6,10.6,0,0,1-9.5-1Z" style="fill:#fff;opacity:0.5"/>
    <path d="M166.4,136.4l-15.5,8.2a3.8,3.8,0,0,0-1.6,5.2h0a3.8,3.8,0,0,0,5.2,1.6l11.2-5.9" style="fill:#dce3ea"/>
    <path d="M191.6,134.4a43,43,0,0,1-37.7,47.7s13.5-20.6,12.9-50a47.3,47.3,0,0,1,12.4-.9A35.1,35.1,0,0,1,191.6,134.4Z" style="fill:none;stroke:#1d132d;stroke-linecap:round;stroke-linejoin:round;stroke-width:2px"/>
    <path d="M191.4,144.1h-1.2a10.4,10.4,0,0,0-5.5,19.2" style="fill:none;stroke:#1d132d;stroke-linecap:round;stroke-linejoin:round;stroke-width:2px"/>
    <path d="M191.4,138.7h-1.2a15.8,15.8,0,0,0-8.9,28.8" style="fill:none;stroke:#1d132d;stroke-linecap:round;stroke-linejoin:round;stroke-width:2px"/>
    <path d="M166.4,136.4l-15.5,8.2a3.8,3.8,0,0,0-1.6,5.2h0a3.8,3.8,0,0,0,5.2,1.6l11.2-5.9" style="fill:none;stroke:#1d132d;stroke-linecap:round;stroke-linejoin:round;stroke-width:2px"/>
    <path d="M152.3,143.7l-21.9-8.2a3.9,3.9,0,0,0-5,2.3h0a3.9,3.9,0,0,0,2.3,5l23.6,8.8a3.8,3.8,0,0,0,1.9.2" style="fill:none;stroke:#1d132d;stroke-linecap:round;stroke-linejoin:round;stroke-width:2px"/>
    <circle cx="87" cy="148" r="1.2" style="fill:#1d132d"/>
    <circle cx="152.8" cy="148" r="1.2" style="fill:#1d132d"/>
  </g>
  <g>
    <title>01</title>
    <path d="M174.4,95.5l-1.6-19.7,22.3-33.5C199.2,87.8,174.4,95.5,174.4,95.5Z" style="fill:#2e4159"/>
    <path d="M193.7,83.6c-3.7,21.9-20.7,21-20.7,21l1.4-9.1,9.6-6.7Z" style="fill:#2e4159"/>
    <g style="opacity:0.5">
      <path d="M176.4,70.3c2.6,1.2,11.6,4.4,8,18.1-.7,2.7-7.3,5.6-9.7,7.4l-1.9-20Z" style="fill:#fff"/>
    </g>
    <g style="opacity:0.5">
      <path d="M179.6,88.3a18.9,18.9,0,0,0-5.7-14.1l2.6-3.9c2.6,1.2,11.6,4.4,8,18.1-.5,1.7-3.1,3.4-5.7,4.9A22.7,22.7,0,0,0,179.6,88.3Z" style="fill:#fff"/>
    </g>
    <path d="M172.8,75.8l22.3-33.5c4.2,45.6-20.7,53.3-20.7,53.3" style="fill:none;stroke:#1d132d;stroke-linecap:round;stroke-linejoin:round;stroke-width:2px"/>
    <path d="M184,88.8l9.7-5.2c-3.7,21.9-20.7,21-20.7,21" style="fill:none;stroke:#1d132d;stroke-linecap:round;stroke-linejoin:round;stroke-width:2px"/>
    <path d="M184.3,88.3c3.8-10.7-3.2-17.3-7.9-17.2" style="fill:none;stroke:#1d132d;stroke-linecap:round;stroke-linejoin:round;stroke-width:2px"/>
    <path d="M65.7,95.5l1.6-19.7L45,42.3C40.8,87.8,65.7,95.5,65.7,95.5Z" style="fill:#2e4159"/>
    <path d="M46.4,83.6c3.7,21.9,20.7,21,20.7,21l-1.4-9.1-9.6-6.7Z" style="fill:#2e4159"/>
    <g style="opacity:0.5">
      <path d="M63.6,70.3c-2.6,1.2-11.6,4.4-8,18.1.7,2.7,7.3,5.6,9.8,7.4l1.9-20Z" style="fill:#fff"/>
    </g>
    <g style="opacity:0.5">
      <path d="M60.5,88.3a18.9,18.9,0,0,1,5.7-14.1l-2.6-3.9c-2.6,1.2-11.6,4.4-8,18.1.5,1.7,3.1,3.4,5.7,4.9A22.7,22.7,0,0,1,60.5,88.3Z" style="fill:#fff"/>
    </g>
    <path d="M67.3,75.8,45,42.3C40.8,87.8,65.7,95.5,65.7,95.5" style="fill:none;stroke:#1d132d;stroke-linecap:round;stroke-linejoin:round;stroke-width:2px"/>
    <path d="M56.1,88.8l-9.7-5.2c3.7,21.9,20.7,21,20.7,21" style="fill:none;stroke:#1d132d;stroke-linecap:round;stroke-linejoin:round;stroke-width:2px"/>
    <path d="M55.8,88.3C51.9,77.6,58.9,70.9,63.7,71" style="fill:none;stroke:#1d132d;stroke-linecap:round;stroke-linejoin:round;stroke-width:2px"/>
  </g>
  <g>
    <title>02</title>
    <path d="M125.4,136.4c19.6-.5,28.4-3.6,37.2-11.1s12.1-21.8,12.1-37.2c0-27.7-17.6-49.2-43.4-53.7a76.8,76.8,0,0,0-11.1-.9,84.7,84.7,0,0,0-11.6.9C82.9,39,65.3,60.5,65.3,88.1c0,15.4,3.2,29.6,12.1,37.2s18.2,10.8,39.5,11.1Z" style="fill:#c6db45;stroke:#1d132d;stroke-miterlimit:10;stroke-width:2px"/>
    <path d="M109.2,136.5c-7,6.6-11.8,18.9-11.8,29.9,0,16,10.1,19.5,22.6,19.5s22.6-3.4,22.6-19.5c0-11.1-4.9-23.5-12-30.1" style="fill:#c6db45;stroke:#1d132d;stroke-miterlimit:10;stroke-width:2px"/>
    <path d="M130.9,136.7c-3.4.7-18,.5-21.3-.1h-.4c-7,6.6-11.8,18.9-11.8,29.9,0,16,10.1,19.5,22.6,19.5s22.6-3.4,22.6-19.5C142.6,155.5,137.8,143.3,130.9,136.7Z" style="fill:#c6db45"/>
    <path d="M130.5,136.2c-3.1.3-6.1.6-9.4.6a111.1,111.1,0,0,1-12.3-.4L102,146a41,41,0,0,0,17.6,3.6,40.7,40.7,0,0,0,17.8-3.7C137.2,145.6,130.9,136.7,130.5,136.2Z" style="fill:#180621;opacity:0.15"/>
    <path d="M109.5,136.3l-.6.5c-6.9,6.7-11.5,18.8-11.5,29.6,0,16,10.1,19.5,22.6,19.5s22.6-3.4,22.6-19.5c0-11-4.8-23.3-11.8-29.9l-.2-.2" style="fill:none;stroke:#1d132d;stroke-linecap:round;stroke-linejoin:round;stroke-width:2px"/>
    <polyline points="111.1 165 98 165 99.5 156.2 106.8 156.2" style="fill:#dce3ea"/>
    <polyline points="128.9 165 142 165 140.5 156.2 133.2 156.2" style="fill:#dce3ea"/>
    <polygon points="120 166.9 112.3 153.6 127.6 153.6 120 166.9" style="fill:#36c8e3"/>
    <polygon points="120 166.9 112.3 153.6 120.1 153.6 120 166.9" style="fill:#180621;opacity:0.15"/>
    <line x1="99.5" y1="156.2" x2="106.8" y2="156.2" style="fill:none;stroke:#1d132d;stroke-linecap:round;stroke-linejoin:round;stroke-width:2px"/>
    <line x1="98" y1="165" x2="111.1" y2="165" style="fill:none;stroke:#1d132d;stroke-linecap:round;stroke-linejoin:round;stroke-width:2px"/>
    <line x1="142.1" y1="165" x2="129" y2="165" style="fill:none;stroke:#1d132d;stroke-linecap:round;stroke-linejoin:round;stroke-width:2px"/>
    <polygon points="120 166.9 112.3 153.6 127.6 153.6 120 166.9" style="fill:none;stroke:#1d132d;stroke-linecap:round;stroke-linejoin:round;stroke-width:2px"/>
    <polyline points="106.8 156.2 120 179 132.9 156.6 133.1 156.2 133.3 156.2 140.6 156.2" style="fill:none;stroke:#1d132d;stroke-linecap:round;stroke-linejoin:round;stroke-width:2px"/>
    <g style="opacity:0.30000000000000004">
      <path d="M108.7,44.1a84.7,84.7,0,0,1,11.6-.9,76.8,76.8,0,0,1,11.1.9c24.4,4.3,41.5,23.9,43.2,49.5q.1-2.7.1-5.5c0-27.7-17.6-49.2-43.4-53.7a76.8,76.8,0,0,0-11.1-.9,84.7,84.7,0,0,0-11.6.9C82.9,39,65.3,60.5,65.3,88.1q0,2.8.1,5.5C67.1,68,84.3,48.4,108.7,44.1Z" style="fill:#fff"/>
    </g>
    <path d="M125.4,136.4c19.6-.5,28.4-3.6,37.2-11.1s12.1-21.8,12.1-37.2c0-27.7-17.6-49.2-43.4-53.7a76.8,76.8,0,0,0-11.1-.9,84.7,84.7,0,0,0-11.6.9C82.9,39,65.3,60.5,65.3,88.1c0,15.4,3.2,29.6,12.1,37.2s18.2,10.8,39.5,11.1Z" style="fill:none;stroke:#1d132d;stroke-miterlimit:10;stroke-width:2px"/>
    <path d="M109.2,136.5c-7,6.6-11.8,18.9-11.8,29.9,0,16,10.1,19.5,22.6,19.5s22.6-3.4,22.6-19.5c0-11.1-4.9-23.5-12-30.1" style="fill:none;stroke:#1d132d;stroke-miterlimit:10;stroke-width:2px"/>
    <g style="opacity:0.30000000000000004">
      <path d="M108.7,44.1a84.7,84.7,0,0,1,11.6-.9,76.8,76.8,0,0,1,11.1.9c24.4,4.3,41.5,23.9,43.2,49.5q.1-2.7.1-5.5c0-27.7-17.6-49.2-43.4-53.7a76.8,76.8,0,0,0-11.1-.9,84.7,84.7,0,0,0-11.6.9C82.9,39,65.3,60.5,65.3,88.1q0,2.8.1,5.5C67.1,68,84.3,48.4,108.7,44.1Z" style="fill:#fff"/>
    </g>
    <path d="M125.4,136.4c19.6-.5,28.4-3.6,37.2-11.1s12.1-21.8,12.1-37.2c0-27.7-17.6-49.2-43.4-53.7a76.8,76.8,0,0,0-11.1-.9,84.7,84.7,0,0,0-11.6.9C82.9,39,65.3,60.5,65.3,88.1c0,15.4,3.2,29.6,12.1,37.2s18.2,10.8,39.5,11.1Z" style="fill:none;stroke:#1d132d;stroke-miterlimit:10;stroke-width:2px"/>
  </g>
  <g>
    <title>03</title>
    <path d="M105.1,136.2c-13.7-1.1-21.1-4.3-28.4-10.6a15.7,15.7,0,0,1-3.7-4c-2.4-4.2-7.2-18.1-7.2-18.1,14.5,13.8,41.2,11.8,53.6-.4h0c12.4,11.9,37.1,12.9,54,.8,0,0-4.2,13.6-7.6,17.7a31.5,31.5,0,0,1-3.7,4c-7.3,6.3-14.7,9.5-28.4,10.6h.2a20.3,20.3,0,0,0-14.4,7.2h-.1a20.3,20.3,0,0,0-14.4-7.2" style="fill:#2e4159"/>
    <path d="M173.3,103.4c-13.5,13-40.8,11.3-53.1-.5H120v40.2h.2a20.3,20.3,0,0,1,14.4-7.2h-.2c13.7-1.1,21.1-4.3,28.4-10.6,1.4-1.2,2.6-3.2,3.9-4.5C170.3,117.3,173.3,103.4,173.3,103.4Z" style="fill:#fff;opacity:0.2"/>
    <path d="M120.1,107.9h0c12,10.3,34.7,11.6,51.5,1.8,1-3.3,1.7-5.9,1.7-5.9-16.9,12.1-40.8,11-53.1-.9h0C107.7,115,81,117,66.5,103.3c0,0,1.1,3.1,2.5,6.8C83.9,120.3,108.4,118.2,120.1,107.9Z" style="fill:#fff;opacity:0.1"/>
    <g style="opacity:0.2">
      <path d="M106.9,128a1,1,0,0,1-.1-2l7.6-1a1,1,0,1,1,.3,2l-7.6,1Z" style="fill:#fff"/>
      <path d="M107.3,121.9a1,1,0,0,1-.1-2l7.6-1a1,1,0,1,1,.3,2l-7.6,1Z" style="fill:#fff"/>
    </g>
    <line x1="114.6" y1="125.4" x2="106.9" y2="126.5" style="fill:none;stroke:#1d132d;stroke-linecap:round;stroke-linejoin:round;stroke-width:2px"/>
    <line x1="114.9" y1="119.4" x2="107.3" y2="120.4" style="fill:none;stroke:#1d132d;stroke-linecap:round;stroke-linejoin:round;stroke-width:2px"/>
    <g style="opacity:0.2">
      <path d="M133.1,128a1,1,0,0,0,.1-2l-7.6-1a1,1,0,1,0-.3,2l7.6,1Z" style="fill:#fff"/>
      <path d="M132.7,121.9a1,1,0,0,0,.1-2l-7.6-1a1,1,0,0,0-.3,2l7.6,1Z" style="fill:#fff"/>
    </g>
    <line x1="125.4" y1="125.4" x2="133.1" y2="126.5" style="fill:none;stroke:#1d132d;stroke-linecap:round;stroke-linejoin:round;stroke-width:2px"/>
    <line x1="125.1" y1="119.4" x2="132.7" y2="120.4" style="fill:none;stroke:#1d132d;stroke-linecap:round;stroke-linejoin:round;stroke-width:2px"/>
    <path d="M120,143.1h0a20.3,20.3,0,0,1,14.4-7.2h-.2c13.7-1.1,21.1-4.3,28.4-10.6,1.4-1.2,5.2-4.1,8.3-11.7,1.9-4.6,3-13.6,3-13.6-6,16.7-40.7,15.6-54,2.8h.1c-13.4,12.8-48,13.8-54-2.8,0,0,1.2,9,3,13.6,3.1,7.6,7,10.5,8.3,11.7,7.3,6.3,14.7,9.5,28.4,10.6h-.2a20.3,20.3,0,0,1,14.4,7.2h0" style="fill:none;stroke:#1d132d;stroke-linecap:round;stroke-linejoin:round;stroke-width:2px"/>
  </g>
  <g>
    <title>03</title>
    <rect x="85" y="67.4" width="15.5" height="33.25" rx="7.7" ry="7.7" style="fill:#c6db45"/>
    <path d="M85.4,75l.3.9c4.3-2.3,6.5,2.3,7.5,3.8s6.3,2.5,6.4-.7C103.3,70.7,90.4,59.4,85.4,75Z" style="fill:#fff;opacity:0.5"/>
    <circle cx="90.2" cy="85.1" r="2.1" style="fill:#fff;opacity:0.5"/>
    <rect x="85" y="67.4" width="15.5" height="33.25" rx="7.7" ry="7.7" style="fill:none;stroke:#1d132d;stroke-linecap:round;stroke-linejoin:round;stroke-width:2px"/>
    <rect x="139.5" y="67.4" width="15.5" height="33.25" rx="7.7" ry="7.7" style="fill:#c6db45"/>
    <path d="M140.1,75l.3.9c4.3-2.3,6.5,2.3,7.5,3.8s6.3,2.5,6.4-.7C158,70.7,145,59.4,140.1,75Z" style="fill:#fff;opacity:0.5"/>
    <circle cx="144.9" cy="85.1" r="2.1" style="fill:#fff;opacity:0.5"/>
    <rect x="139.5" y="67.4" width="15.5" height="33.25" rx="7.7" ry="7.7" style="fill:none;stroke:#1d132d;stroke-linecap:round;stroke-linejoin:round;stroke-width:2px"/>
  </g>
  <g/>
</svg>