<svg xmlns="http://www.w3.org/2000/svg" xmlns:xlink="http://www.w3.org/1999/xlink" viewBox="0 0 240 240">
  <ellipse cx="120.5" cy="233.4" rx="43.7" ry="4.9" style="fill:#180621;opacity:0.15"/>
  <g>
    <title>01</title>
    <rect x="114.3" y="185.8" width="11.4" height="11.83" style="fill:#dce3ea"/>
    <rect x="114.3" y="185.8" width="11.4" height="11.83" style="fill:#180621;opacity:0.15"/>
    <path d="M122.5,198.4l-5.2-.6-16.5,10.8c1.3,14.5,19.7,13.5,19.7,13.5,12.5,0,19.5-12,19.5-12Z" style="fill:#dce3ea"/>
    <path d="M132.8,206.1H105.8l-5.1,3.2c1.3,13.9,19.7,12.9,19.7,12.9,12.5,0,19.5-11.5,19.5-11.5Z" style="fill:#180621;opacity:0.15"/>
    <rect x="79" y="202.1" width="17.5" height="6.9" rx="3.2" ry="3.2" transform="translate(-63.1 40.6) rotate(-19.3)" style="fill:#dce3ea"/>
    <rect x="79" y="202.1" width="17.5" height="6.9" rx="3.2" ry="3.2" transform="translate(-63.1 40.6) rotate(-19.3)" style="fill:#180621;opacity:0.15"/>
    <rect x="68.9" y="202.6" width="16.2" height="6.37" rx="3.2" ry="3.2" transform="translate(104.5 -12.2) rotate(27.7)" style="fill:#dce3ea"/>
    <rect x="143.8" y="201.7" width="17.5" height="6.9" rx="3.2" ry="3.2" transform="translate(216.1 452.7) rotate(-157.8)" style="fill:#dce3ea"/>
    <rect x="143.8" y="201.7" width="17.5" height="6.9" rx="3.2" ry="3.2" transform="translate(216.1 452.7) rotate(-157.8)" style="fill:#180621;opacity:0.15"/>
    <rect x="155.2" y="202.8" width="16.2" height="6.37" rx="3.2" ry="3.2" transform="translate(397.8 324.5) rotate(155.2)" style="fill:#dce3ea"/>
    <path d="M27.9,224a69,69,0,0,0,48.9-22.5h.1s-1.4-3.1-7.4-7.4-9.9-5.2-9.9-5.2-3.6,3-13.5,13.3C32.9,215.9,27.9,224,27.9,224Z" style="fill:#2e4159"/>
    <path d="M87.8,233.9c17.1-7.6,22.3-22.6,28.8-38.7.3-.6-14-5.2-22.9-1-.3.1-2.7,6.3-4.6,11.2C82,223,87.8,233.9,87.8,233.9Z" style="fill:#2e4159"/>
    <path d="M212.1,224a69,69,0,0,1-48.9-22.5h-.1s1.4-3.1,7.4-7.4,9.9-5.2,9.9-5.2,3.6,3,13.5,13.3C207.1,215.9,212.1,224,212.1,224Z" style="fill:#2e4159"/>
    <path d="M152.2,233.9c-17.1-7.6-22.3-22.6-28.8-38.7-.3-.6,14-5.2,22.9-1,.3.1,2.7,6.3,4.6,11.2C158,223,152.2,233.9,152.2,233.9Z" style="fill:#2e4159"/>
    <ellipse cx="100.3" cy="206.2" rx="8.3" ry="7.2" transform="translate(-128.7 195.7) rotate(-61.4)" style="fill:#dce3ea"/>
    <path d="M185.3,194.2a8.9,8.9,0,1,0,12.6,12.7" style="fill:#dce3ea"/>
    <ellipse cx="140.1" cy="206.2" rx="7.2" ry="8.3" transform="translate(-81.5 92.1) rotate(-28.6)" style="fill:#dce3ea"/>
    <path d="M54.9,193a8.9,8.9,0,1,1-12.6,12.7" style="fill:#dce3ea"/>
    <path d="M57.3,201.4a8.9,8.9,0,0,0-2.4-8.4l-6.3,6.4a8.8,8.8,0,0,0,8.7,2Z" style="fill:#fff;opacity:0.5"/>
    <path d="M98,205.3c3.1,1.7,7,.5,9.4-2.5a6.7,6.7,0,0,0-3.2-4c-3.1-1.7-7-.5-9.4,2.5A6.7,6.7,0,0,0,98,205.3Z" style="fill:#fff;opacity:0.5"/>
    <path d="M183,202.4a8.9,8.9,0,0,1,2.4-8.4l6.3,6.4a8.8,8.8,0,0,1-8.7,2Z" style="fill:#fff;opacity:0.5"/>
    <path d="M141.8,205.3c-3.1,1.7-7,.5-9.4-2.5a6.7,6.7,0,0,1,3.2-4c3.1-1.7,7-.5,9.4,2.5A6.7,6.7,0,0,1,141.8,205.3Z" style="fill:#fff;opacity:0.5"/>
    <path d="M76.8,201.4l6.1,3.2a3.8,3.8,0,0,1,1.6,5.2h0a3.8,3.8,0,0,1-5.2,1.6l-8-4.2" style="fill:none;stroke:#1d132d;stroke-linecap:round;stroke-linejoin:round;stroke-width:2px"/>
    <path d="M86.8,210l-4.3,1.6a3.8,3.8,0,0,1-1.9.2" style="fill:none;stroke:#1d132d;stroke-linecap:round;stroke-linejoin:round;stroke-width:2px"/>
    <line x1="81.5" y1="203.7" x2="90.4" y2="200.4" style="fill:none;stroke:#1d132d;stroke-linecap:round;stroke-linejoin:round;stroke-width:2px"/>
    <path d="M27.9,224a69,69,0,0,0,48.9-22.5h.1s-1.4-3.1-7.4-7.4-9.9-5.2-9.9-5.2-3.6,3-13.5,13.3C32.9,215.9,27.9,224,27.9,224Z" style="fill:none;stroke:#1d132d;stroke-linecap:round;stroke-linejoin:round;stroke-width:2px"/>
    <path d="M87.6,233.9c17.1-7.6,22.3-22.6,28.8-38.7.3-.6-14-5.2-22.9-1-.3.1-2.7,6.3-4.6,11.2C81.8,223,87.6,233.9,87.6,233.9Z" style="fill:none;stroke:#1d132d;stroke-linecap:round;stroke-linejoin:round;stroke-width:2px"/>
    <path d="M54.4,193.9A8.9,8.9,0,1,1,42,206.8" style="fill:none;stroke:#1d132d;stroke-linecap:round;stroke-linejoin:round;stroke-width:2px"/>
    <ellipse cx="99.9" cy="206.2" rx="8.3" ry="7.2" transform="translate(-128.9 195.3) rotate(-61.4)" style="fill:none;stroke:#1d132d;stroke-linecap:round;stroke-linejoin:round;stroke-width:2px"/>
    <path d="M163,201.5l-5.9,3.1a3.8,3.8,0,0,0-1.6,5.2h0a3.8,3.8,0,0,0,5.2,1.6l7.9-4.2" style="fill:none;stroke:#1d132d;stroke-linecap:round;stroke-linejoin:round;stroke-width:2px"/>
    <path d="M153.1,209.9l4.3,1.6a3.8,3.8,0,0,0,1.9.2" style="fill:none;stroke:#1d132d;stroke-linecap:round;stroke-linejoin:round;stroke-width:2px"/>
    <line x1="158.5" y1="203.7" x2="149.1" y2="200.2" style="fill:none;stroke:#1d132d;stroke-linecap:round;stroke-linejoin:round;stroke-width:2px"/>
    <path d="M212.1,224a69,69,0,0,1-48.9-22.5h-.1s1.4-3.1,7.4-7.4,9.9-5.2,9.9-5.2,3.6,3,13.5,13.3C207.1,215.9,212.1,224,212.1,224Z" style="fill:none;stroke:#1d132d;stroke-linecap:round;stroke-linejoin:round;stroke-width:2px"/>
    <path d="M152.4,233.9c-17.1-7.6-22.3-22.6-28.8-38.7-.3-.6,14-5.2,22.9-1,.3.1,2.7,6.3,4.6,11.2C158.2,223,152.4,233.9,152.4,233.9Z" style="fill:none;stroke:#1d132d;stroke-linecap:round;stroke-linejoin:round;stroke-width:2px"/>
    <path d="M185.3,194.2a8.9,8.9,0,1,0,12.6,12.7" style="fill:none;stroke:#1d132d;stroke-linecap:round;stroke-linejoin:round;stroke-width:2px"/>
    <ellipse cx="140" cy="206.2" rx="7.2" ry="8.3" transform="translate(-81.5 92.1) rotate(-28.6)" style="fill:none;stroke:#1d132d;stroke-linecap:round;stroke-linejoin:round;stroke-width:2px"/>
    <line x1="115.8" y1="197.8" x2="124.4" y2="197.8" style="fill:none;stroke:#1d132d;stroke-linecap:round;stroke-linejoin:round;stroke-width:2px"/>
    <polyline points="113.9 193.4 113.9 184.3 126.2 184.3 126.2 193.2" style="fill:none;stroke:#1d132d;stroke-linecap:round;stroke-linejoin:round;stroke-width:2px"/>
    <path d="M134.1,219a32.5,32.5,0,0,1-28.3,0" style="fill:none;stroke:#1d132d;stroke-linecap:round;stroke-linejoin:round;stroke-width:2px"/>
    <line x1="112" y1="206.2" x2="127.9" y2="206.1" style="fill:none;stroke:#1d132d;stroke-linecap:round;stroke-linejoin:round;stroke-width:2px"/>
    <circle cx="159" cy="207.9" r="1.2" style="fill:#1d132d"/>
    <circle cx="81" cy="207.9" r="1.2" style="fill:#1d132d"/>
  </g>
  <g>
    <title>06</title>
    <path d="M94,160.1a144.8,144.8,0,0,1,13.8-23c-44.1,15.3-44.4,43-24.4,52.6A140.2,140.2,0,0,1,94,160.1Z" style="fill:#2e4159"/>
    <path d="M86.8,158.2a12.1,12.1,0,0,0-3.4-8.4l-2.3,1.9a9.2,9.2,0,0,1-9.9,15,20.2,20.2,0,0,0-.5,3,12.1,12.1,0,0,0,16.1-11.5Z" style="fill:#dce3ea"/>
    <path d="M94,160.1a144.8,144.8,0,0,1,13.8-23c-44.1,15.3-44.4,43-24.4,52.6A140.2,140.2,0,0,1,94,160.1Z" style="fill:none;stroke:#1d132d;stroke-linecap:round;stroke-linejoin:round;stroke-width:2px"/>
    <path d="M145.7,160.1a144.8,144.8,0,0,0-13.8-23c44.1,15.3,44.4,43,24.4,52.6A140.2,140.2,0,0,0,145.7,160.1Z" style="fill:#2e4159"/>
    <path d="M152.9,158.2a12.1,12.1,0,0,1,3.4-8.4l2.3,1.9a9.2,9.2,0,0,0,9.9,15,20.2,20.2,0,0,1,.5,3,12.1,12.1,0,0,1-16.1-11.5Z" style="fill:#dce3ea"/>
    <path d="M145.7,160.1a144.8,144.8,0,0,0-13.8-23c44.1,15.3,44.4,43,24.4,52.6A140.2,140.2,0,0,0,145.7,160.1Z" style="fill:none;stroke:#1d132d;stroke-linecap:round;stroke-linejoin:round;stroke-width:2px"/>
  </g>
  <g>
    <title>01</title>
    <path d="M174.4,95.5l-1.6-19.7,22.3-33.5C199.2,87.8,174.4,95.5,174.4,95.5Z" style="fill:#2e4159"/>
    <path d="M193.7,83.6c-3.7,21.9-20.7,21-20.7,21l1.4-9.1,9.6-6.7Z" style="fill:#2e4159"/>
    <g style="opacity:0.5">
      <path d="M176.4,70.3c2.6,1.2,11.6,4.4,8,18.1-.7,2.7-7.3,5.6-9.7,7.4l-1.9-20Z" style="fill:#fff"/>
    </g>
    <g style="opacity:0.5">
      <path d="M179.6,88.3a18.9,18.9,0,0,0-5.7-14.1l2.6-3.9c2.6,1.2,11.6,4.4,8,18.1-.5,1.7-3.1,3.4-5.7,4.9A22.7,22.7,0,0,0,179.6,88.3Z" style="fill:#fff"/>
    </g>
    <path d="M172.8,75.8l22.3-33.5c4.2,45.6-20.7,53.3-20.7,53.3" style="fill:none;stroke:#1d132d;stroke-linecap:round;stroke-linejoin:round;stroke-width:2px"/>
    <path d="M184,88.8l9.7-5.2c-3.7,21.9-20.7,21-20.7,21" style="fill:none;stroke:#1d132d;stroke-linecap:round;stroke-linejoin:round;stroke-width:2px"/>
    <path d="M184.3,88.3c3.8-10.7-3.2-17.3-7.9-17.2" style="fill:none;stroke:#1d132d;stroke-linecap:round;stroke-linejoin:round;stroke-width:2px"/>
    <path d="M65.7,95.5l1.6-19.7L45,42.3C40.8,87.8,65.7,95.5,65.7,95.5Z" style="fill:#2e4159"/>
    <path d="M46.4,83.6c3.7,21.9,20.7,21,20.7,21l-1.4-9.1-9.6-6.7Z" style="fill:#2e4159"/>
    <g style="opacity:0.5">
      <path d="M63.6,70.3c-2.6,1.2-11.6,4.4-8,18.1.7,2.7,7.3,5.6,9.8,7.4l1.9-20Z" style="fill:#fff"/>
    </g>
    <g style="opacity:0.5">
      <path d="M60.5,88.3a18.9,18.9,0,0,1,5.7-14.1l-2.6-3.9c-2.6,1.2-11.6,4.4-8,18.1.5,1.7,3.1,3.4,5.7,4.9A22.7,22.7,0,0,1,60.5,88.3Z" style="fill:#fff"/>
    </g>
    <path d="M67.3,75.8,45,42.3C40.8,87.8,65.7,95.5,65.7,95.5" style="fill:none;stroke:#1d132d;stroke-linecap:round;stroke-linejoin:round;stroke-width:2px"/>
    <path d="M56.1,88.8l-9.7-5.2c3.7,21.9,20.7,21,20.7,21" style="fill:none;stroke:#1d132d;stroke-linecap:round;stroke-linejoin:round;stroke-width:2px"/>
    <path d="M55.8,88.3C51.9,77.6,58.9,70.9,63.7,71" style="fill:none;stroke:#1d132d;stroke-linecap:round;stroke-linejoin:round;stroke-width:2px"/>
  </g>
  <g>
    <path d="M131.3,34.3a76.8,76.8,0,0,0-11.1-.9,84.7,84.7,0,0,0-11.6.9C82.9,38.8,65.3,60.4,65.3,88c0,15.4,3.2,29.6,12.1,37.2s18.2,10.8,39.5,11.1h-7.7c-7,6.6-11.8,18.9-11.8,29.9,0,16,10.1,19.5,22.6,19.5s22.6-3.4,22.6-19.5c0-11.1-4.9-23.5-12-30.1h-5.2c19.6-.5,28.4-3.6,37.2-11.1s12.1-21.8,12.1-37.2C174.7,60.4,157.1,38.8,131.3,34.3Z" style="fill:#ffd3f5"/>
    <path d="M111.2,185a36.3,36.3,0,0,0,5.7.7" style="fill:none;stroke:#1d132d;stroke-linecap:round;stroke-linejoin:round;stroke-width:2px"/>
    <path d="M108.9,136.7a30.2,30.2,0,0,0-3.8,4.5" style="fill:none;stroke:#1d132d;stroke-miterlimit:10;stroke-width:2px"/>
    <path d="M129,185a36.3,36.3,0,0,1-5.7.7" style="fill:none;stroke:#1d132d;stroke-linecap:round;stroke-linejoin:round;stroke-width:2px"/>
    <path d="M131.3,136.7a30.2,30.2,0,0,1,3.8,4.5" style="fill:none;stroke:#1d132d;stroke-miterlimit:10;stroke-width:2px"/>
    <path d="M130.5,136.1c-3.1.3-6.1,0.6-9.4,0.6a111.1,111.1,0,0,1-12.3-.4l-6.8,9.6a41,41,0,0,0,17.6,3.6,40.7,40.7,0,0,0,17.8-3.7C137.2,145.4,130.9,136.5,130.5,136.1Z" style="fill:#180621;opacity:0.15"/>
    <circle cx="120" cy="160.8" r="12.4" style="fill:#2e4159"/>
    <path d="M120,151.3a12.4,12.4,0,0,1,12.4,11.1,12.4,12.4,0,1,0-24.7,0A12.4,12.4,0,0,1,120,151.3Z" style="fill:#36c8e3;opacity:0.2"/>
    <circle cx="120" cy="160.8" r="12.4" style="fill:none;stroke:#1d132d;stroke-linecap:round;stroke-linejoin:round;stroke-width:2px"/>
    <path d="M123.3,155a4.1,4.1,0,0,0-3.3,1.7,4.1,4.1,0,0,0-7.5,2.4c0,4.1,5.2,7.8,7.5,9.4,2-1.5,7.5-5.5,7.5-9.4A4.1,4.1,0,0,0,123.3,155Z" style="fill:#36c8e3"/>
    <g style="opacity:0.30000000000000004">
      <path d="M108.7,44.1a84.7,84.7,0,0,1,11.6-.9,76.8,76.8,0,0,1,11.1.9c24.4,4.3,41.5,23.9,43.2,49.5q0.1-2.7.1-5.5c0-27.7-17.6-49.2-43.4-53.7a76.8,76.8,0,0,0-11.1-.9,84.7,84.7,0,0,0-11.6.9C82.9,39,65.3,60.5,65.3,88.1q0,2.8.1,5.5C67.1,68,84.3,48.4,108.7,44.1Z" style="fill:#fff"/>
    </g>
    <path d="M125.4,136.4c19.6-.5,28.4-3.6,37.2-11.1s12.1-21.8,12.1-37.2c0-27.7-17.6-49.2-43.4-53.7a76.8,76.8,0,0,0-11.1-.9,84.7,84.7,0,0,0-11.6.9C82.9,39,65.3,60.5,65.3,88.1c0,15.4,3.2,29.6,12.1,37.2s18.2,10.8,39.5,11.1h8.5Z" style="fill:none;stroke:#1d132d;stroke-miterlimit:10;stroke-width:2px"/>
    <path d="M109.2,136.5c-7,6.6-11.8,18.9-11.8,29.9,0,16,10.1,19.5,22.6,19.5s22.6-3.4,22.6-19.5c0-11.1-4.9-23.5-12-30.1" style="fill:none;stroke:#1d132d;stroke-miterlimit:10;stroke-width:2px"/>
    <g style="opacity:0.30000000000000004">
      <path d="M108.7,44.1a84.7,84.7,0,0,1,11.6-.9,76.8,76.8,0,0,1,11.1.9c24.4,4.3,41.5,23.9,43.2,49.5q0.1-2.7.1-5.5c0-27.7-17.6-49.2-43.4-53.7a76.8,76.8,0,0,0-11.1-.9,84.7,84.7,0,0,0-11.6.9C82.9,39,65.3,60.5,65.3,88.1q0,2.8.1,5.5C67.1,68,84.3,48.4,108.7,44.1Z" style="fill:#fff"/>
    </g>
    <path d="M125.4,136.4c19.6-.5,28.4-3.6,37.2-11.1s12.1-21.8,12.1-37.2c0-27.7-17.6-49.2-43.4-53.7a76.8,76.8,0,0,0-11.1-.9,84.7,84.7,0,0,0-11.6.9C82.9,39,65.3,60.5,65.3,88.1c0,15.4,3.2,29.6,12.1,37.2s18.2,10.8,39.5,11.1h8.5Z" style="fill:none;stroke:#1d132d;stroke-miterlimit:10;stroke-width:2px"/>
  </g>
  <g>
    <title>03</title>
    <path d="M105.1,136.2c-13.7-1.1-21.1-4.3-28.4-10.6a15.7,15.7,0,0,1-3.7-4c-2.4-4.2-7.2-18.1-7.2-18.1,14.5,13.8,41.2,11.8,53.6-.4h0c12.4,11.9,37.1,12.9,54,.8,0,0-4.2,13.6-7.6,17.7a31.5,31.5,0,0,1-3.7,4c-7.3,6.3-14.7,9.5-28.4,10.6h.2a20.3,20.3,0,0,0-14.4,7.2h-.1a20.3,20.3,0,0,0-14.4-7.2" style="fill:#2e4159"/>
    <path d="M173.3,103.4c-13.5,13-40.8,11.3-53.1-.5H120v40.2h.2a20.3,20.3,0,0,1,14.4-7.2h-.2c13.7-1.1,21.1-4.3,28.4-10.6,1.4-1.2,2.6-3.2,3.9-4.5C170.3,117.3,173.3,103.4,173.3,103.4Z" style="fill:#fff;opacity:0.2"/>
    <path d="M120.1,107.9h0c12,10.3,34.7,11.6,51.5,1.8,1-3.3,1.7-5.9,1.7-5.9-16.9,12.1-40.8,11-53.1-.9h0C107.7,115,81,117,66.5,103.3c0,0,1.1,3.1,2.5,6.8C83.9,120.3,108.4,118.2,120.1,107.9Z" style="fill:#fff;opacity:0.1"/>
    <g style="opacity:0.2">
      <path d="M106.9,128a1,1,0,0,1-.1-2l7.6-1a1,1,0,1,1,.3,2l-7.6,1Z" style="fill:#fff"/>
      <path d="M107.3,121.9a1,1,0,0,1-.1-2l7.6-1a1,1,0,1,1,.3,2l-7.6,1Z" style="fill:#fff"/>
    </g>
    <line x1="114.6" y1="125.4" x2="106.9" y2="126.5" style="fill:none;stroke:#1d132d;stroke-linecap:round;stroke-linejoin:round;stroke-width:2px"/>
    <line x1="114.9" y1="119.4" x2="107.3" y2="120.4" style="fill:none;stroke:#1d132d;stroke-linecap:round;stroke-linejoin:round;stroke-width:2px"/>
    <g style="opacity:0.2">
      <path d="M133.1,128a1,1,0,0,0,.1-2l-7.6-1a1,1,0,1,0-.3,2l7.6,1Z" style="fill:#fff"/>
      <path d="M132.7,121.9a1,1,0,0,0,.1-2l-7.6-1a1,1,0,0,0-.3,2l7.6,1Z" style="fill:#fff"/>
    </g>
    <line x1="125.4" y1="125.4" x2="133.1" y2="126.5" style="fill:none;stroke:#1d132d;stroke-linecap:round;stroke-linejoin:round;stroke-width:2px"/>
    <line x1="125.1" y1="119.4" x2="132.7" y2="120.4" style="fill:none;stroke:#1d132d;stroke-linecap:round;stroke-linejoin:round;stroke-width:2px"/>
    <path d="M120,143.1h0a20.3,20.3,0,0,1,14.4-7.2h-.2c13.7-1.1,21.1-4.3,28.4-10.6,1.4-1.2,5.2-4.1,8.3-11.7,1.9-4.6,3-13.6,3-13.6-6,16.7-40.7,15.6-54,2.8h.1c-13.4,12.8-48,13.8-54-2.8,0,0,1.2,9,3,13.6,3.1,7.6,7,10.5,8.3,11.7,7.3,6.3,14.7,9.5,28.4,10.6h-.2a20.3,20.3,0,0,1,14.4,7.2h0" style="fill:none;stroke:#1d132d;stroke-linecap:round;stroke-linejoin:round;stroke-width:2px"/>
  </g>
  <g>
    <title>02</title>
    <g style="opacity:0.5">
      <path d="M108.6,81.5c.8,4.6.9,15.5.9,15.5s-32.2,12.7-35.4-9.6c-1.6-11.2,7.5-20.7,16.7-20.7S107,72.4,108.6,81.5Z" style="fill:#fff"/>
      <path d="M99.9,99.7c-7.6,1.2-15.1-1.6-16.3-10.2s6.1-16.8,13.5-16.8c3.7,0,9.1,2.4,11,7" style="fill:#fff"/>
    </g>
    <g style="opacity:0.5">
      <path d="M131.1,81.5c-.8,4.6-.9,15.5-.9,15.5s32.3,12.7,35.4-9.6c1.6-11.2-7.5-20.7-16.7-20.7S132.7,72.4,131.1,81.5Z" style="fill:#fff"/>
      <path d="M139.8,99.7c7.6,1.2,15.1-1.6,16.3-10.2s-6.1-16.8-13.5-16.8c-3.7,0-9.1,2.4-11,7" style="fill:#fff"/>
    </g>
    <path d="M84,83.3a18.6,18.6,0,0,0,.3,9.1c2.3,6.3,11,9.7,25.2,4.5l-1.4-17.2c-1.6-3.8-5.6-6.1-9-6.8L97,72.7C91.4,72.7,85.8,77.2,84,83.3Z" style="fill:#36c8e3"/>
    <path d="M155.7,83.3a18.6,18.6,0,0,1-.3,9.1c-2.3,6.3-11,9.7-25.2,4.5l1.4-17.2c1.6-3.8,5.6-6.1,9-6.8l2.1-.2C148.3,72.7,153.9,77.2,155.7,83.3Z" style="fill:#36c8e3"/>
    <path d="M99.8,95.1a8.6,8.6,0,1,1-4.1-16.7" style="fill:none;stroke:#fff;stroke-linecap:round;stroke-linejoin:round;stroke-width:2px"/>
    <circle cx="99.8" cy="77.9" r="1" style="fill:#fff"/>
    <path d="M139.8,95.1a8.6,8.6,0,0,0,4.1-16.7" style="fill:none;stroke:#fff;stroke-linecap:round;stroke-linejoin:round;stroke-width:2px"/>
    <circle cx="139.9" cy="77.9" r="1" style="fill:#fff"/>
    <g style="opacity:0.15">
      <path d="M163,75.2c-3.2-5.1-8.6-8.5-14.1-8.5-9.2,0-16.1,5.7-17.8,14.8-.8,4.6-.9,15.5-.9,15.5h.4c0-.3-.1-.7-.1-1a20.3,20.3,0,0,1,3.1-11.6,24.2,24.2,0,0,1,6.1-6.7h0l1.9-1.3h0l2-1.1h0l2.1-.9h0l2.2-.7h0a21.6,21.6,0,0,1,5.7-.8A22.3,22.3,0,0,1,163,75.2Z" style="fill:#180621"/>
      <path d="M91,66.8c-5.5,0-10.9,3.4-14.1,8.5a22.3,22.3,0,0,1,9.5-2.1,21.6,21.6,0,0,1,5.7.8h0l2.2.7h0l2.1.9h0l2,1.1h0l1.9,1.3h0a24.2,24.2,0,0,1,6.1,6.7,20.3,20.3,0,0,1,3.1,11.6c0,.3,0,.7-.1,1h.4s-.1-10.9-.9-15.5C107.2,72.4,100.3,66.8,91,66.8Z" style="fill:#180621"/>
    </g>
    <path d="M108.6,81.5c.8,4.6.9,15.5.9,15.5s-32.2,12.7-35.4-9.6c-1.6-11.2,7.5-20.7,16.7-20.7S107,72.4,108.6,81.5Z" style="fill:none;stroke:#1d132d;stroke-linecap:round;stroke-linejoin:round;stroke-width:2px"/>
    <path d="M99.9,99.7c-7.6,1.2-15.1-1.6-16.3-10.2s6.1-16.8,13.5-16.8c3.7,0,9.1,2.4,11,7" style="fill:none;stroke:#1d132d;stroke-linecap:round;stroke-linejoin:round;stroke-width:2px"/>
    <path d="M131.1,81.5c-.8,4.6-.9,15.5-.9,15.5s32.3,12.7,35.4-9.6c1.6-11.2-7.5-20.7-16.7-20.7S132.7,72.4,131.1,81.5Z" style="fill:none;stroke:#1d132d;stroke-linecap:round;stroke-linejoin:round;stroke-width:2px"/>
    <path d="M139.8,99.7c7.6,1.2,15.1-1.6,16.3-10.2s-6.1-16.8-13.5-16.8c-3.7,0-9.1,2.4-11,7" style="fill:none;stroke:#1d132d;stroke-linecap:round;stroke-linejoin:round;stroke-width:2px"/>
  </g>
  <g/>
</svg>