<svg xmlns="http://www.w3.org/2000/svg" xmlns:xlink="http://www.w3.org/1999/xlink" viewBox="0 0 240 240">
  <ellipse cx="120.5" cy="233.4" rx="43.7" ry="4.9" style="fill:#180621;opacity:0.15"/>
  <g>
    <title>05</title>
    <path d="M98.8,221.4c-.9-12.3-.7-49.2-.7-49.2l18,8.2.2,52.7s-11.9,1.5-17.4-11.7Z" style="fill:#dce3ea"/>
    <path d="M97.7,196.8c4.1,0,7.9,3.4,7.9,7.5s-4,7.2-7.8,7.5" style="fill:#2e4159"/>
    <g style="opacity:0.5">
      <path d="M97.3,196.8l.3,6.9h.7a5.6,5.6,0,0,0,5.2-3.5A7.4,7.4,0,0,0,97.3,196.8Z" style="fill:#fff"/>
    </g>
    <path d="M115.9,232.6c.1.5-7.1,2.5-14.2,2.4a53.2,53.2,0,0,1-13.7-2.4,16.5,16.5,0,0,1,3.9-8.8c3.3-3.9,12.4-3.6,12.4-3.6S113,222.3,115.9,232.6Z" style="fill:#2e4159"/>
    <polyline points="98.2 219.8 98 172.2 116 180.4 116 232.5" style="fill:none;stroke:#1d132d;stroke-linecap:round;stroke-linejoin:round;stroke-width:2px"/>
    <path d="M98.4,196.8a7.4,7.4,0,0,1,.6,14.8" style="fill:none;stroke:#1d132d;stroke-linecap:round;stroke-linejoin:round;stroke-width:2px"/>
    <path d="M98,172.2s-.6,4.9-.8,12.9c3.6,3.9,12.5,7,18.8,6.7V180.4Z" style="fill:#180621;opacity:0.15"/>
    <ellipse cx="99" cy="222.7" rx="4.7" ry="3" style="fill:#fff;opacity:0.5"/>
    <line x1="106" y1="204.3" x2="115.6" y2="204.2" style="fill:none;stroke:#1d132d;stroke-linecap:round;stroke-linejoin:round;stroke-width:2px"/>
    <path d="M116,232.9a14.4,14.4,0,0,0-28.4-1.6,1.9,1.9,0,0,0,1.3,2.2,44.7,44.7,0,0,0,12.6,1.4C111,234.9,116,232.9,116,232.9Z" style="fill:none;stroke:#1d132d;stroke-linecap:round;stroke-linejoin:round;stroke-width:2px"/>
    <path d="M141.3,221.4c.9-12.3.8-49.2.8-49.2l-18,8.2-.2,52.7s11.9,1.5,17.4-11.7Z" style="fill:#dce3ea"/>
    <path d="M142.4,196.8c-4.1,0-7.9,3.4-7.9,7.5s4,7.2,7.8,7.5" style="fill:#2e4159"/>
    <g style="opacity:0.5">
      <path d="M142.8,196.8l-.3,6.9h-.7a5.6,5.6,0,0,1-5.2-3.5A7.4,7.4,0,0,1,142.8,196.8Z" style="fill:#fff"/>
    </g>
    <path d="M124.1,232.6c-.1.5,7.1,2.5,14.2,2.4a53.2,53.2,0,0,0,13.7-2.4,16.5,16.5,0,0,0-3.9-8.8c-3.3-3.9-12.4-3.6-12.4-3.6S127.1,222.3,124.1,232.6Z" style="fill:#2e4159"/>
    <polyline points="141.9 219.8 142.1 172.2 124.1 180.4 124.1 232.5" style="fill:none;stroke:#1d132d;stroke-linecap:round;stroke-linejoin:round;stroke-width:2px"/>
    <path d="M141.7,196.8a7.4,7.4,0,0,0-.6,14.8" style="fill:none;stroke:#1d132d;stroke-linecap:round;stroke-linejoin:round;stroke-width:2px"/>
    <path d="M142.1,172.2s.6,4.9.8,12.9c-3.6,3.9-12.5,7-18.8,6.7V180.4Z" style="fill:#180621;opacity:0.15"/>
    <ellipse cx="141" cy="222.7" rx="4.7" ry="3" style="fill:#fff;opacity:0.5"/>
    <line x1="134.1" y1="204.3" x2="124.5" y2="204.2" style="fill:none;stroke:#1d132d;stroke-linecap:round;stroke-linejoin:round;stroke-width:2px"/>
    <path d="M124.1,232.9a14.4,14.4,0,0,1,28.4-1.6,1.9,1.9,0,0,1-1.3,2.2,44.7,44.7,0,0,1-12.6,1.4C129.1,234.9,124.1,232.9,124.1,232.9Z" style="fill:none;stroke:#1d132d;stroke-linecap:round;stroke-linejoin:round;stroke-width:2px"/>
    <path d="M101.5,230.2a44.7,44.7,0,0,1-12.6-1.4l-.4-.2a14.3,14.3,0,0,0-.9,2.7,1.9,1.9,0,0,0,1.3,2.2,44.7,44.7,0,0,0,12.6,1.4c9.5,0,14.5-2,14.5-2a14.3,14.3,0,0,0-1.2-4.4A48.8,48.8,0,0,1,101.5,230.2Z" style="fill:#180621;opacity:0.15"/>
    <path d="M138.1,230.2a44.7,44.7,0,0,1-12.6-1.4l-.4-.2a14.3,14.3,0,0,0-.9,2.7,1.9,1.9,0,0,0,1.3,2.2,44.7,44.7,0,0,0,12.6,1.4c9.5,0,14.5-2,14.5-2a14.3,14.3,0,0,0-1.2-4.4A48.8,48.8,0,0,1,138.1,230.2Z" style="fill:#180621;opacity:0.15"/>
  </g>
  <g>
    <title>01</title>
    <path d="M87.6,143.7l21.9-8.2a3.9,3.9,0,0,1,5,2.3h0a3.9,3.9,0,0,1-2.3,5l-23.6,8.8a3.8,3.8,0,0,1-1.9.2" style="fill:#dce3ea"/>
    <path d="M87.6,143.7l21.9-8.2a3.9,3.9,0,0,1,5,2.3h0a3.9,3.9,0,0,1-2.3,5l-23.6,8.8a3.8,3.8,0,0,1-1.9.2" style="fill:#180621;opacity:0.15"/>
    <path d="M48.4,134.4a43,43,0,0,0,37.7,47.7s-13.5-20.6-12.9-50a47.3,47.3,0,0,0-12.4-.9A35.1,35.1,0,0,0,48.4,134.4Z" style="fill:#2e4159"/>
    <path d="M58.5,167.3c-13.8-17.3-9.1-28.7-8.7-28.7a15.8,15.8,0,0,1,8.9,28.8" style="fill:#fff;opacity:0.5"/>
    <path d="M58.5,167.3l-1.4-1.8Z" style="fill:#fff;opacity:0.5"/>
    <path d="M48.7,144a14.3,14.3,0,0,1,9.4,3.6c2.2,2,5.4-.8,3.9-3h0a15.7,15.7,0,0,0-12.3-6c-.2,0-1.2,2.3-1.1,6.3C48.7,144.6,48.7,144.3,48.7,144Z" style="fill:#fff;opacity:0.5"/>
    <path d="M49,148.2v0Z" style="fill:#fff;opacity:0.5"/>
    <path d="M48.8,147v0Z" style="fill:#fff;opacity:0.5"/>
    <path d="M48.7,145.9v0Z" style="fill:#fff;opacity:0.5"/>
    <path d="M65.4,152.4v0Z" style="fill:#fff;opacity:0.5"/>
    <path d="M65.1,150.8v0Z" style="fill:#fff;opacity:0.5"/>
    <path d="M62.1,144.6a15.9,15.9,0,0,1,1.9,3A15.8,15.8,0,0,0,62.1,144.6Z" style="fill:#fff;opacity:0.5"/>
    <path d="M64.7,149.4l.2.7Z" style="fill:#fff;opacity:0.5"/>
    <path d="M64.2,148l.3.8Z" style="fill:#fff;opacity:0.5"/>
    <path d="M53.4,159.9l-.6-1.1Z" style="fill:#fff;opacity:0.5"/>
    <path d="M54.4,161.5l-.6-1Z" style="fill:#fff;opacity:0.5"/>
    <path d="M52.6,158.3l-.7-1.5Z" style="fill:#fff;opacity:0.5"/>
    <path d="M55.5,163.2l-.7-1.1Z" style="fill:#fff;opacity:0.5"/>
    <path d="M56.7,165l-.8-1.2Z" style="fill:#fff;opacity:0.5"/>
    <path d="M50.4,153.4l-.3-.9Z" style="fill:#fff;opacity:0.5"/>
    <path d="M50,152.1l-.3-.9Z" style="fill:#fff;opacity:0.5"/>
    <path d="M51.7,156.5l-.5-1.2Z" style="fill:#fff;opacity:0.5"/>
    <path d="M49.6,150.8q-.3-1.3-.5-2.4C49.2,149.1,49.4,149.9,49.6,150.8Z" style="fill:#fff;opacity:0.5"/>
    <path d="M51,154.9l-.4-.9Z" style="fill:#fff;opacity:0.5"/>
    <path d="M55.3,162.4c-8.6-10.8-6.2-18.3-6-18.3a10.6,10.6,0,0,1,10.3,10.2,9.8,9.8,0,0,1-4.3,8.1" style="fill:#dce3ea"/>
    <path d="M59.3,151.7a10.7,10.7,0,0,0-9.9-7.6c-.2,0-1.3,3.2.5,8.5a10.6,10.6,0,0,0,9.5-1Z" style="fill:#fff;opacity:0.5"/>
    <path d="M73.6,136.4l15.5,8.2a3.8,3.8,0,0,1,1.6,5.2h0a3.8,3.8,0,0,1-5.2,1.6l-11.2-5.9" style="fill:#dce3ea"/>
    <path d="M48.4,134.4a43,43,0,0,0,37.7,47.7s-13.5-20.6-12.9-50a47.3,47.3,0,0,0-12.4-.9A35.1,35.1,0,0,0,48.4,134.4Z" style="fill:none;stroke:#1d132d;stroke-linecap:round;stroke-linejoin:round;stroke-width:2px"/>
    <path d="M48.6,144.1h1.2a10.4,10.4,0,0,1,5.5,19.2" style="fill:none;stroke:#1d132d;stroke-linecap:round;stroke-linejoin:round;stroke-width:2px"/>
    <path d="M48.6,138.7h1.2a15.8,15.8,0,0,1,8.9,28.8" style="fill:none;stroke:#1d132d;stroke-linecap:round;stroke-linejoin:round;stroke-width:2px"/>
    <path d="M73.6,136.4l15.5,8.2a3.8,3.8,0,0,1,1.6,5.2h0a3.8,3.8,0,0,1-5.2,1.6l-11.2-5.9" style="fill:none;stroke:#1d132d;stroke-linecap:round;stroke-linejoin:round;stroke-width:2px"/>
    <path d="M87.6,143.7l21.9-8.2a3.9,3.9,0,0,1,5,2.3h0a3.9,3.9,0,0,1-2.3,5l-23.6,8.8a3.8,3.8,0,0,1-1.9.2" style="fill:none;stroke:#1d132d;stroke-linecap:round;stroke-linejoin:round;stroke-width:2px"/>
    <path d="M152.3,143.7l-21.9-8.2a3.9,3.9,0,0,0-5,2.3h0a3.9,3.9,0,0,0,2.3,5l23.6,8.8a3.8,3.8,0,0,0,1.9.2" style="fill:#dce3ea"/>
    <path d="M152.3,143.7l-21.9-8.2a3.9,3.9,0,0,0-5,2.3h0a3.9,3.9,0,0,0,2.3,5l23.6,8.8a3.8,3.8,0,0,0,1.9.2" style="fill:#180621;opacity:0.15"/>
    <path d="M191.6,134.4a43,43,0,0,1-37.7,47.7s13.5-20.6,12.9-50a47.3,47.3,0,0,1,12.4-.9A35.1,35.1,0,0,1,191.6,134.4Z" style="fill:#2e4159"/>
    <path d="M181.5,167.3c13.8-17.3,9.1-28.7,8.8-28.7a15.8,15.8,0,0,0-8.9,28.8" style="fill:#fff;opacity:0.5"/>
    <path d="M181.5,167.3l1.4-1.8Z" style="fill:#fff;opacity:0.5"/>
    <path d="M191.3,144a14.3,14.3,0,0,0-9.4,3.6c-2.2,2-5.4-.8-3.9-3h0a15.7,15.7,0,0,1,12.3-6c.2,0,1.2,2.3,1.1,6.3C191.3,144.6,191.3,144.3,191.3,144Z" style="fill:#fff;opacity:0.5"/>
    <path d="M191,148.2v0Z" style="fill:#fff;opacity:0.5"/>
    <path d="M191.1,147v0Z" style="fill:#fff;opacity:0.5"/>
    <path d="M191.2,145.9v0Z" style="fill:#fff;opacity:0.5"/>
    <path d="M174.6,152.4v0Z" style="fill:#fff;opacity:0.5"/>
    <path d="M174.9,150.8v0Z" style="fill:#fff;opacity:0.5"/>
    <path d="M177.9,144.6a15.9,15.9,0,0,0-1.9,3A15.8,15.8,0,0,1,177.9,144.6Z" style="fill:#fff;opacity:0.5"/>
    <path d="M175.3,149.4l-.2.7Z" style="fill:#fff;opacity:0.5"/>
    <path d="M175.8,148l-.3.8Z" style="fill:#fff;opacity:0.5"/>
    <path d="M186.6,159.9l.6-1.1Z" style="fill:#fff;opacity:0.5"/>
    <path d="M185.6,161.5l.6-1Z" style="fill:#fff;opacity:0.5"/>
    <path d="M187.4,158.3l.7-1.5Z" style="fill:#fff;opacity:0.5"/>
    <path d="M184.5,163.2l.7-1.1Z" style="fill:#fff;opacity:0.5"/>
    <path d="M183.3,165l.8-1.2Z" style="fill:#fff;opacity:0.5"/>
    <path d="M189.6,153.4l.3-.9Z" style="fill:#fff;opacity:0.5"/>
    <path d="M190,152.1l.3-.9Z" style="fill:#fff;opacity:0.5"/>
    <path d="M188.3,156.5l.5-1.2Z" style="fill:#fff;opacity:0.5"/>
    <path d="M190.4,150.8q.3-1.3.5-2.4C190.8,149.1,190.6,149.9,190.4,150.8Z" style="fill:#fff;opacity:0.5"/>
    <path d="M189,154.9l.4-.9Z" style="fill:#fff;opacity:0.5"/>
    <path d="M184.7,162.4c8.6-10.8,6.2-18.3,6-18.3a10.6,10.6,0,0,0-10.3,10.2,9.8,9.8,0,0,0,4.3,8.1" style="fill:#dce3ea"/>
    <path d="M180.3,151.7a10.7,10.7,0,0,1,9.9-7.6c.2,0,1.3,3.2-.5,8.5a10.6,10.6,0,0,1-9.5-1Z" style="fill:#fff;opacity:0.5"/>
    <path d="M166.4,136.4l-15.5,8.2a3.8,3.8,0,0,0-1.6,5.2h0a3.8,3.8,0,0,0,5.2,1.6l11.2-5.9" style="fill:#dce3ea"/>
    <path d="M191.6,134.4a43,43,0,0,1-37.7,47.7s13.5-20.6,12.9-50a47.3,47.3,0,0,1,12.4-.9A35.1,35.1,0,0,1,191.6,134.4Z" style="fill:none;stroke:#1d132d;stroke-linecap:round;stroke-linejoin:round;stroke-width:2px"/>
    <path d="M191.4,144.1h-1.2a10.4,10.4,0,0,0-5.5,19.2" style="fill:none;stroke:#1d132d;stroke-linecap:round;stroke-linejoin:round;stroke-width:2px"/>
    <path d="M191.4,138.7h-1.2a15.8,15.8,0,0,0-8.9,28.8" style="fill:none;stroke:#1d132d;stroke-linecap:round;stroke-linejoin:round;stroke-width:2px"/>
    <path d="M166.4,136.4l-15.5,8.2a3.8,3.8,0,0,0-1.6,5.2h0a3.8,3.8,0,0,0,5.2,1.6l11.2-5.9" style="fill:none;stroke:#1d132d;stroke-linecap:round;stroke-linejoin:round;stroke-width:2px"/>
    <path d="M152.3,143.7l-21.9-8.2a3.9,3.9,0,0,0-5,2.3h0a3.9,3.9,0,0,0,2.3,5l23.6,8.8a3.8,3.8,0,0,0,1.9.2" style="fill:none;stroke:#1d132d;stroke-linecap:round;stroke-linejoin:round;stroke-width:2px"/>
    <circle cx="87" cy="148" r="1.2" style="fill:#1d132d"/>
    <circle cx="152.8" cy="148" r="1.2" style="fill:#1d132d"/>
  </g>
  <g>
    <title>03</title>
    <g style="isolation:isolate">
      <path d="M54.5,76.2H49c-2,0-3.6,4.8-3.6,10.8S47,97.8,49,97.8h5.3" style="fill:#2e4159"/>
      <path d="M72.5,107.4V66.6H60.1c-3.8,0-6.9,9.1-6.9,20.4s3.1,20.4,6.9,20.4Z" style="fill:#dce3ea"/>
      <g style="opacity:0.15;mix-blend-mode:multiply">
        <path d="M55,100h-.2c1.3,4.6,3.2,7.5,5.3,7.5H72.5V91.3A22.9,22.9,0,0,1,55,100Z" style="fill:#180621"/>
      </g>
      <path d="M72.5,107.4V66.4H60.1c-3.8,0-6.9,9.2-6.9,20.5s3.1,20.5,6.9,20.5Z" style="fill:none;stroke:#1d132d;stroke-miterlimit:10;stroke-width:2px"/>
      <path d="M54.5,76.1H49c-2,0-3.6,4.8-3.6,10.8S47,97.7,49,97.7h5.3" style="fill:none;stroke:#1d132d;stroke-miterlimit:10;stroke-width:2px"/>
      <path d="M185.2,76.2h5.5c2,0,3.6,4.8,3.6,10.8s-1.6,10.8-3.6,10.8h-5.3" style="fill:#2e4159"/>
      <path d="M167.2,107.4V66.6h12.4c3.8,0,6.9,9.1,6.9,20.4s-3.1,20.4-6.9,20.4Z" style="fill:#dce3ea"/>
      <g style="opacity:0.15;mix-blend-mode:multiply">
        <path d="M184.7,100h.2c-1.3,4.6-3.2,7.5-5.3,7.5H167.2V91.3A22.9,22.9,0,0,0,184.7,100Z" style="fill:#180621"/>
      </g>
      <path d="M167.2,107.4V66.4h12.4c3.8,0,6.9,9.2,6.9,20.5s-3.1,20.5-6.9,20.5Z" style="fill:none;stroke:#1d132d;stroke-miterlimit:10;stroke-width:2px"/>
      <path d="M185.2,76.1h5.5c2,0,3.6,4.8,3.6,10.8s-1.6,10.8-3.6,10.8h-5.3" style="fill:none;stroke:#1d132d;stroke-miterlimit:10;stroke-width:2px"/>
    </g>
  </g>
  <g>
    <title>01</title>
    <path d="M131.3,34.4a76.8,76.8,0,0,0-11.1-.9,84.7,84.7,0,0,0-11.6.9C82.9,39,65.3,60.5,65.3,88.1c0,15.4,3.2,29.6,12.1,37.2s18.2,10.8,39.5,11.1h-7.7c-7,6.6-11.8,18.9-11.8,29.9,0,16,10.1,19.5,22.6,19.5s22.6-3.4,22.6-19.5c0-11.1-4.9-23.5-12-30.1h-5.2c19.6-.5,28.4-3.6,37.2-11.1s12.1-21.8,12.1-37.2C174.7,60.5,157.1,39,131.3,34.4Z" style="fill:#36c8e3"/>
    <path d="M131.3,34.4a76.8,76.8,0,0,0-11.1-.9,84.7,84.7,0,0,0-11.6.9C82.9,39,65.3,60.5,65.3,88.1c0,15.4,3.2,29.6,12.1,37.2s18.2,10.8,39.5,11.1h-7.7c-7,6.6-11.8,18.9-11.8,29.9,0,16,10.1,19.5,22.6,19.5s22.6-3.4,22.6-19.5c0-11.1-4.9-23.5-12-30.1h-5.2c19.6-.5,28.4-3.6,37.2-11.1s12.1-21.8,12.1-37.2C174.7,60.5,157.1,39,131.3,34.4Z" style="fill:#36c8e3"/>
    <path d="M131.3,34.4a76.8,76.8,0,0,0-11.1-.9,84.7,84.7,0,0,0-11.6.9C82.9,39,65.3,60.5,65.3,88.1c0,15.4,3.2,29.6,12.1,37.2s18.2,10.8,39.5,11.1h-7.7c-7,6.6-11.8,18.9-11.8,29.9,0,16,10.1,19.5,22.6,19.5s22.6-3.4,22.6-19.5c0-11.1-4.9-23.5-12-30.1h-5.2c19.6-.5,28.4-3.6,37.2-11.1s12.1-21.8,12.1-37.2C174.7,60.5,157.1,39,131.3,34.4Z" style="fill:#36c8e3"/>
    <path d="M131.3,34.4a76.8,76.8,0,0,0-11.1-.9,84.7,84.7,0,0,0-11.6.9C82.9,39,65.3,60.5,65.3,88.1c0,15.4,3.2,29.6,12.1,37.2s18.2,10.8,39.5,11.1h-7.7c-7,6.6-11.8,18.9-11.8,29.9,0,16,10.1,19.5,22.6,19.5s22.6-3.4,22.6-19.5c0-11.1-4.9-23.5-12-30.1h-5.2c19.6-.5,28.4-3.6,37.2-11.1s12.1-21.8,12.1-37.2C174.7,60.5,157.1,39,131.3,34.4Z" style="fill:#36c8e3"/>
    <path d="M131.3,34.4a76.8,76.8,0,0,0-11.1-.9,84.7,84.7,0,0,0-11.6.9C82.9,39,65.3,60.5,65.3,88.1c0,15.4,3.2,29.6,12.1,37.2s18.2,10.8,39.5,11.1h-7.7c-7,6.6-11.8,18.9-11.8,29.9,0,16,10.1,19.5,22.6,19.5s22.6-3.4,22.6-19.5c0-11.1-4.9-23.5-12-30.1h-5.2c19.6-.5,28.4-3.6,37.2-11.1s12.1-21.8,12.1-37.2C174.7,60.5,157.1,39,131.3,34.4Z" style="fill:#36c8e3"/>
    <path d="M131.3,34.4a76.8,76.8,0,0,0-11.1-.9,84.7,84.7,0,0,0-11.6.9C82.9,39,65.3,60.5,65.3,88.1c0,15.4,3.2,29.6,12.1,37.2s18.2,10.8,39.5,11.1h-7.7c-7,6.6-11.8,18.9-11.8,29.9,0,16,10.1,19.5,22.6,19.5s22.6-3.4,22.6-19.5c0-11.1-4.9-23.5-12-30.1h-5.2c19.6-.5,28.4-3.6,37.2-11.1s12.1-21.8,12.1-37.2C174.7,60.5,157.1,39,131.3,34.4Z" style="fill:#36c8e3"/>
    <path d="M131.3,34.4a76.8,76.8,0,0,0-11.1-.9,84.7,84.7,0,0,0-11.6.9C82.9,39,65.3,60.5,65.3,88.1c0,15.4,3.2,29.6,12.1,37.2s18.2,10.8,39.5,11.1h-7.7c-7,6.6-11.8,18.9-11.8,29.9,0,16,10.1,19.5,22.6,19.5s22.6-3.4,22.6-19.5c0-11.1-4.9-23.5-12-30.1h-5.2c19.6-.5,28.4-3.6,37.2-11.1s12.1-21.8,12.1-37.2C174.7,60.5,157.1,39,131.3,34.4Z" style="fill:#36c8e3"/>
    <path d="M131.3,34.4a76.8,76.8,0,0,0-11.1-.9,84.7,84.7,0,0,0-11.6.9C82.9,39,65.3,60.5,65.3,88.1c0,15.4,3.2,29.6,12.1,37.2s18.2,10.8,39.5,11.1h-7.7c-7,6.6-11.8,18.9-11.8,29.9,0,16,10.1,19.5,22.6,19.5s22.6-3.4,22.6-19.5c0-11.1-4.9-23.5-12-30.1h-5.2c19.6-.5,28.4-3.6,37.2-11.1s12.1-21.8,12.1-37.2C174.7,60.5,157.1,39,131.3,34.4Z" style="fill:#36c8e3"/>
    <path d="M125.4,136.4c19.6-.5,28.4-3.6,37.2-11.1s12.1-21.8,12.1-37.2c0-27.7-17.6-49.2-43.4-53.7a76.8,76.8,0,0,0-11.1-.9,84.7,84.7,0,0,0-11.6.9C82.9,39,65.3,60.5,65.3,88.1c0,15.4,3.2,29.6,12.1,37.2s18.2,10.8,39.5,11.1Z" style="fill:none;stroke:#1d132d;stroke-miterlimit:10;stroke-width:2px"/>
    <path d="M109.2,136.5c-7,6.6-11.8,18.9-11.8,29.9,0,16,10.1,19.5,22.6,19.5s22.6-3.4,22.6-19.5c0-11.1-4.9-23.5-12-30.1" style="fill:none;stroke:#1d132d;stroke-miterlimit:10;stroke-width:2px"/>
    <path d="M130.9,136.7c-3.4.7-18,.5-21.3-.1h-.4c-7,6.6-11.8,18.9-11.8,29.9,0,16,10.1,19.5,22.6,19.5s22.6-3.4,22.6-19.5C142.6,155.5,137.8,143.3,130.9,136.7Z" style="fill:#36c8e3"/>
    <path d="M130.5,136.2c-3.1.3-6.1.6-9.4.6a111.1,111.1,0,0,1-12.3-.4L102,146a41,41,0,0,0,17.6,3.6,40.7,40.7,0,0,0,17.8-3.7C137.2,145.6,130.9,136.7,130.5,136.2Z" style="fill:#180621;opacity:0.15"/>
    <path d="M109.5,136.3l-.6.5c-6.9,6.7-11.5,18.8-11.5,29.6,0,16,10.1,19.5,22.6,19.5s22.6-3.4,22.6-19.5c0-11-4.8-23.3-11.8-29.9l-.2-.2" style="fill:none;stroke:#1d132d;stroke-linecap:round;stroke-linejoin:round;stroke-width:2px"/>
    <path d="M97.9,168h44.2C129.9,151.6,110.1,151.6,97.9,168Z" style="fill:#ffde00"/>
    <path d="M97.9,168h44.2C129.9,151.6,110.1,151.6,97.9,168Z" style="fill:none;stroke:#1d132d;stroke-linecap:round;stroke-linejoin:round;stroke-width:2px"/>
    <line x1="103.8" y1="161.9" x2="136.4" y2="161.9" style="fill:none;stroke:#1d132d;stroke-linecap:round;stroke-linejoin:round;stroke-width:2px"/>
    <path d="M132.4,159.2a24.1,24.1,0,0,0-24.9,0Z" style="fill:#180621;opacity:0.15"/>
    <path d="M134.7,160.6v.9H105v-.7a32.5,32.5,0,0,0-4.9,4.5h39.9A32.4,32.4,0,0,0,134.7,160.6Z" style="fill:#180621;opacity:0.15"/>
    <g style="opacity:0.30000000000000004">
      <path d="M108.7,44.1a84.7,84.7,0,0,1,11.6-.9,76.8,76.8,0,0,1,11.1.9c24.4,4.3,41.5,23.9,43.2,49.5q.1-2.7.1-5.5c0-27.7-17.6-49.2-43.4-53.7a76.8,76.8,0,0,0-11.1-.9,84.7,84.7,0,0,0-11.6.9C82.9,39,65.3,60.5,65.3,88.1q0,2.8.1,5.5C67.1,68,84.3,48.4,108.7,44.1Z" style="fill:#fff"/>
    </g>
    <path d="M125.4,136.4c19.6-.5,28.4-3.6,37.2-11.1s12.1-21.8,12.1-37.2c0-27.7-17.6-49.2-43.4-53.7a76.8,76.8,0,0,0-11.1-.9,84.7,84.7,0,0,0-11.6.9C82.9,39,65.3,60.5,65.3,88.1c0,15.4,3.2,29.6,12.1,37.2s18.2,10.8,39.5,11.1Z" style="fill:none;stroke:#1d132d;stroke-miterlimit:10;stroke-width:2px"/>
    <path d="M109.2,136.5c-7,6.6-11.8,18.9-11.8,29.9,0,16,10.1,19.5,22.6,19.5s22.6-3.4,22.6-19.5c0-11.1-4.9-23.5-12-30.1" style="fill:none;stroke:#1d132d;stroke-miterlimit:10;stroke-width:2px"/>
    <g style="opacity:0.30000000000000004">
      <path d="M108.7,44.1a84.7,84.7,0,0,1,11.6-.9,76.8,76.8,0,0,1,11.1.9c24.4,4.3,41.5,23.9,43.2,49.5q.1-2.7.1-5.5c0-27.7-17.6-49.2-43.4-53.7a76.8,76.8,0,0,0-11.1-.9,84.7,84.7,0,0,0-11.6.9C82.9,39,65.3,60.5,65.3,88.1q0,2.8.1,5.5C67.1,68,84.3,48.4,108.7,44.1Z" style="fill:#fff"/>
    </g>
    <path d="M125.4,136.4c19.6-.5,28.4-3.6,37.2-11.1s12.1-21.8,12.1-37.2c0-27.7-17.6-49.2-43.4-53.7a76.8,76.8,0,0,0-11.1-.9,84.7,84.7,0,0,0-11.6.9C82.9,39,65.3,60.5,65.3,88.1c0,15.4,3.2,29.6,12.1,37.2s18.2,10.8,39.5,11.1Z" style="fill:none;stroke:#1d132d;stroke-miterlimit:10;stroke-width:2px"/>
  </g>
  <g>
    <title>01</title>
    <path d="M106.1,135.8V115.4h.1a22,22,0,0,1,14.1-5.1s.8,19.5.8,26.5" style="fill:#dce3ea"/>
    <path d="M106.6,121.3l-.2-2c-.7-1.6-.8-3.1-.2-4.1H106a135.3,135.3,0,0,1-21.5-2.7c-6.9-1.5-14.1-5-17.9-11.2h-.4c1.5,10,4.9,18.6,11.2,23.9s14.9,9.6,29,10.7C106.4,130.9,106.5,126.1,106.6,121.3Z" style="fill:#2e4159"/>
    <path d="M133.7,136.1V115.7h-.1a22,22,0,0,0-14.1-5.1s-.8,19.5-.8,26.5" style="fill:#dce3ea"/>
    <path d="M133.2,121.6l.2-2c.7-1.6.8-3.1.2-4.1h.2a135.3,135.3,0,0,0,21.5-2.7c6.9-1.5,14.1-5,17.9-11.2h.4c-1.5,10-4.9,18.6-11.2,23.9s-14.9,9.6-29,10.7C133.4,131.2,133.3,126.4,133.2,121.6Z" style="fill:#2e4159"/>
    <circle cx="93.1" cy="123" r="2.5" style="fill:#1d132d"/>
    <circle cx="84.9" cy="120.5" r="2.5" style="fill:#1d132d"/>
    <path d="M66.2,101.4c6.9,8,17.3,13.1,40,14.1" style="fill:none;stroke:#1d132d;stroke-linecap:round;stroke-linejoin:round;stroke-width:2px"/>
    <path d="M66.2,101.4c1.5,10,4.9,18.6,11.2,23.9,9.1,7.8,18.2,10.8,39.5,11.1H120" style="fill:none;stroke:#1d132d;stroke-miterlimit:10;stroke-width:2px"/>
    <path d="M106.1,135.8V115.4h.1a22,22,0,0,1,14.1-5.1" style="fill:none;stroke:#1d132d;stroke-linecap:round;stroke-linejoin:round;stroke-width:2px"/>
    <circle cx="146.7" cy="123" r="2.5" style="fill:#1d132d"/>
    <circle cx="154.9" cy="120.5" r="2.5" style="fill:#1d132d"/>
    <path d="M173.5,101.4c-6.9,8-17.3,13.1-40,14.1" style="fill:none;stroke:#1d132d;stroke-linecap:round;stroke-linejoin:round;stroke-width:2px"/>
    <path d="M173.5,101.4c-1.5,10-4.9,18.6-11.2,23.9-9.1,7.8-18.2,10.8-39.5,11.1h-3.1" style="fill:none;stroke:#1d132d;stroke-miterlimit:10;stroke-width:2px"/>
    <path d="M133.7,135.8V115.4h-.1a22,22,0,0,0-14.1-5.1" style="fill:none;stroke:#1d132d;stroke-linecap:round;stroke-linejoin:round;stroke-width:2px"/>
    <line x1="113.6" y1="136" x2="113.6" y2="123" style="fill:none;stroke:#1d132d;stroke-linecap:round;stroke-linejoin:round;stroke-width:2px"/>
    <line x1="120" y1="136" x2="120" y2="120.5" style="fill:none;stroke:#1d132d;stroke-linecap:round;stroke-linejoin:round;stroke-width:2px"/>
    <line x1="126.6" y1="136" x2="126.6" y2="123" style="fill:none;stroke:#1d132d;stroke-linecap:round;stroke-linejoin:round;stroke-width:2px"/>
  </g>
  <g>
    <title>06</title>
    <path d="M78.4,76.9a16.2,16.2,0,1,0,30.5,6.3Z" style="fill:#1d132d"/>
    <path d="M78.4,76.9a16.2,16.2,0,1,0,30.5,6.3Z" style="fill:none;stroke:#1d132d;stroke-linecap:round;stroke-linejoin:round;stroke-width:2px"/>
    <path d="M88.2,83a6.1,6.1,0,1,0,10.4,2Z" style="fill:#ff9a00"/>
    <path d="M162.9,76.9a16.2,16.2,0,1,1-30.5,6.3Z" style="fill:#1d132d"/>
    <path d="M162.9,76.9a16.2,16.2,0,1,1-30.5,6.3Z" style="fill:none;stroke:#1d132d;stroke-linecap:round;stroke-linejoin:round;stroke-width:2px"/>
    <path d="M153.1,82.9a6.1,6.1,0,1,1-10.4,2Z" style="fill:#ff9a00"/>
  </g>
  <g>
    <title>05</title>
    <path d="M120.1,58.2h0l13.5-13.1,3.6-9A52.4,52.4,0,0,0,120,33.5a58.2,58.2,0,0,0-16.7,2.3l3.4,9.3Z" style="fill:#dce3ea"/>
    <path d="M80.9,48.9a50.6,50.6,0,0,1,20-12l1.4-.8V14.8h-12L79.5,49.8l1.1-.7Z" style="fill:#2e4159"/>
    <polygon points="102.3 20.3 102.3 14.8 90.3 14.8 88.6 20.3 102.3 20.3" style="fill:#dce3ea"/>
    <path d="M159.3,48.9a50.6,50.6,0,0,0-20-12l-1.4-.8V14.8h12l10.8,35.1-1.1-.7Z" style="fill:#2e4159"/>
    <polygon points="137.9 20.3 137.9 14.8 149.9 14.8 151.6 20.3 137.9 20.3" style="fill:#dce3ea"/>
    <line x1="89.2" y1="20" x2="101.8" y2="20" style="fill:none;stroke:#1d132d;stroke-linecap:round;stroke-linejoin:round;stroke-width:2px"/>
    <polyline points="106.6 45.1 120.1 58.2 120.1 58.2 133.6 45.1" style="fill:none;stroke:#1d132d;stroke-linecap:round;stroke-linejoin:round;stroke-width:2px"/>
    <line x1="113.5" y1="51.4" x2="126.6" y2="51.4" style="fill:none;stroke:#1d132d;stroke-linecap:round;stroke-linejoin:round;stroke-width:2px"/>
    <line x1="107.6" y1="45.5" x2="132.5" y2="45.6" style="fill:none;stroke:#1d132d;stroke-linecap:round;stroke-linejoin:round;stroke-width:2px"/>
    <line x1="135.2" y1="39.6" x2="104.8" y2="39.6" style="fill:none;stroke:#1d132d;stroke-linecap:round;stroke-linejoin:round;stroke-width:2px"/>
    <line x1="106.4" y1="44.9" x2="102.3" y2="35.5" style="fill:none;stroke:#1d132d;stroke-linecap:round;stroke-linejoin:round;stroke-width:2px"/>
    <line x1="150.9" y1="20.1" x2="138.3" y2="20.1" style="fill:none;stroke:#1d132d;stroke-linecap:round;stroke-linejoin:round;stroke-width:2px"/>
    <line x1="133.7" y1="45" x2="137.8" y2="35.6" style="fill:none;stroke:#1d132d;stroke-linecap:round;stroke-linejoin:round;stroke-width:2px"/>
    <polyline points="79.5 49.8 90.3 14.8 102.3 14.8 102.3 36" style="fill:none;stroke:#1d132d;stroke-linecap:round;stroke-linejoin:round;stroke-width:2px"/>
    <polyline points="160.6 50 149.9 14.9 137.9 14.9 137.9 36.1" style="fill:none;stroke:#1d132d;stroke-linecap:round;stroke-linejoin:round;stroke-width:2px"/>
    <path d="M160.7,50.3a51.5,51.5,0,0,0-29.4-15.9,76.8,76.8,0,0,0-11.1-.9,84.7,84.7,0,0,0-11.6.9A51.5,51.5,0,0,0,79.6,50" style="fill:none;stroke:#1d132d;stroke-linecap:round;stroke-linejoin:round;stroke-width:2px"/>
  </g>
</svg>