<svg xmlns="http://www.w3.org/2000/svg" xmlns:xlink="http://www.w3.org/1999/xlink" viewBox="0 0 240 240">
  <ellipse cx="120.5" cy="233.4" rx="43.7" ry="4.9" style="fill:#180621;opacity:0.15"/>
  <g>
    <title>03</title>
    <path d="M129.9,192.6c3.9,1.1,6.4,2.9,6.4,4.8s-7.3,6.1-16.3,6.1-16.3-2.7-16.3-6.1,2.5-3.7,6.5-4.8" style="fill:#36c8e3"/>
    <ellipse cx="120" cy="229.8" rx="4.1" ry="2.6" style="fill:#36c8e3"/>
    <ellipse cx="120" cy="221.2" rx="7.2" ry="3.2" style="fill:#36c8e3"/>
    <path d="M118.9,206.3H120c6.2,0,11.3,2,11.3,4.5s-5.1,4.5-11.3,4.5-11.3-2-11.3-4.5,4.5-4.3,10.2-4.5" style="fill:#36c8e3"/>
    <path d="M125.8,192.5c2.3.7,3.7,1.7,3.7,2.8s-4.3,3.6-9.6,3.6-9.6-1.6-9.6-3.6,1.5-2.2,3.8-2.8" style="fill:#180621;opacity:0.25"/>
    <path d="M124.5,206.2c1.8.5,2.9,1.4,2.9,2.3s-3.3,2.9-7.4,2.9-7.4-1.3-7.4-2.9,1.1-1.8,2.9-2.3" style="fill:#180621;opacity:0.25"/>
    <path d="M122.9,217.8c1.1.4,1.8.9,1.8,1.5s-2.1,1.9-4.7,1.9-4.7-.9-4.7-1.9.7-1.2,1.9-1.5" style="fill:#180621;opacity:0.25"/>
    <path d="M121.3,227.1a1.3,1.3,0,0,1,.8,1.1c0,.7-1,1.3-2.2,1.3s-2.2-.6-2.2-1.3a1.3,1.3,0,0,1,.9-1.1" style="fill:#180621;opacity:0.25"/>
    <path d="M137.2,180.3H102.8v7.4c0,3.2,7.7,5.8,17.2,5.8s17.2-2.6,17.2-5.8Z" style="fill:#2e4159"/>
    <path d="M129.9,192.6c3.9,1.1,6.4,2.9,6.4,4.8s-7.3,6.1-16.3,6.1-16.3-2.7-16.3-6.1,2.5-3.7,6.5-4.8" style="fill:none;stroke:#1d132d;stroke-linecap:round;stroke-linejoin:round;stroke-width:2px"/>
    <path d="M118.9,206.3H120c6.2,0,11.3,2,11.3,4.5s-5.1,4.5-11.3,4.5-11.3-2-11.3-4.5,4.5-4.3,10.2-4.5" style="fill:none;stroke:#1d132d;stroke-linecap:round;stroke-linejoin:round;stroke-width:2px"/>
    <ellipse cx="120" cy="221.2" rx="7.2" ry="3.2" style="fill:none;stroke:#1d132d;stroke-linecap:round;stroke-linejoin:round;stroke-width:2px"/>
    <ellipse cx="120" cy="229.8" rx="4.1" ry="2.6" style="fill:none;stroke:#1d132d;stroke-linecap:round;stroke-linejoin:round;stroke-width:2px"/>
    <path d="M137.2,180.3H102.8v7.4c0,3.2,7.7,5.8,17.2,5.8s17.2-2.6,17.2-5.8Z" style="fill:none;stroke:#1d132d;stroke-miterlimit:10;stroke-width:2px"/>
  </g>
  <g>
    <title>06</title>
    <path d="M94,160.1a144.8,144.8,0,0,1,13.8-23c-44.1,15.3-44.4,43-24.4,52.6A140.2,140.2,0,0,1,94,160.1Z" style="fill:#2e4159"/>
    <path d="M86.8,158.2a12.1,12.1,0,0,0-3.4-8.4l-2.3,1.9a9.2,9.2,0,0,1-9.9,15,20.2,20.2,0,0,0-.5,3,12.1,12.1,0,0,0,16.1-11.5Z" style="fill:#dce3ea"/>
    <path d="M94,160.1a144.8,144.8,0,0,1,13.8-23c-44.1,15.3-44.4,43-24.4,52.6A140.2,140.2,0,0,1,94,160.1Z" style="fill:none;stroke:#1d132d;stroke-linecap:round;stroke-linejoin:round;stroke-width:2px"/>
    <path d="M145.7,160.1a144.8,144.8,0,0,0-13.8-23c44.1,15.3,44.4,43,24.4,52.6A140.2,140.2,0,0,0,145.7,160.1Z" style="fill:#2e4159"/>
    <path d="M152.9,158.2a12.1,12.1,0,0,1,3.4-8.4l2.3,1.9a9.2,9.2,0,0,0,9.9,15,20.2,20.2,0,0,1,.5,3,12.1,12.1,0,0,1-16.1-11.5Z" style="fill:#dce3ea"/>
    <path d="M145.7,160.1a144.8,144.8,0,0,0-13.8-23c44.1,15.3,44.4,43,24.4,52.6A140.2,140.2,0,0,0,145.7,160.1Z" style="fill:none;stroke:#1d132d;stroke-linecap:round;stroke-linejoin:round;stroke-width:2px"/>
  </g>
  <g>
    <title>01</title>
    <path d="M174.4,95.5l-1.6-19.7,22.3-33.5C199.2,87.8,174.4,95.5,174.4,95.5Z" style="fill:#2e4159"/>
    <path d="M193.7,83.6c-3.7,21.9-20.7,21-20.7,21l1.4-9.1,9.6-6.7Z" style="fill:#2e4159"/>
    <g style="opacity:0.5">
      <path d="M176.4,70.3c2.6,1.2,11.6,4.4,8,18.1-.7,2.7-7.3,5.6-9.7,7.4l-1.9-20Z" style="fill:#fff"/>
    </g>
    <g style="opacity:0.5">
      <path d="M179.6,88.3a18.9,18.9,0,0,0-5.7-14.1l2.6-3.9c2.6,1.2,11.6,4.4,8,18.1-.5,1.7-3.1,3.4-5.7,4.9A22.7,22.7,0,0,0,179.6,88.3Z" style="fill:#fff"/>
    </g>
    <path d="M172.8,75.8l22.3-33.5c4.2,45.6-20.7,53.3-20.7,53.3" style="fill:none;stroke:#1d132d;stroke-linecap:round;stroke-linejoin:round;stroke-width:2px"/>
    <path d="M184,88.8l9.7-5.2c-3.7,21.9-20.7,21-20.7,21" style="fill:none;stroke:#1d132d;stroke-linecap:round;stroke-linejoin:round;stroke-width:2px"/>
    <path d="M184.3,88.3c3.8-10.7-3.2-17.3-7.9-17.2" style="fill:none;stroke:#1d132d;stroke-linecap:round;stroke-linejoin:round;stroke-width:2px"/>
    <path d="M65.7,95.5l1.6-19.7L45,42.3C40.8,87.8,65.7,95.5,65.7,95.5Z" style="fill:#2e4159"/>
    <path d="M46.4,83.6c3.7,21.9,20.7,21,20.7,21l-1.4-9.1-9.6-6.7Z" style="fill:#2e4159"/>
    <g style="opacity:0.5">
      <path d="M63.6,70.3c-2.6,1.2-11.6,4.4-8,18.1.7,2.7,7.3,5.6,9.8,7.4l1.9-20Z" style="fill:#fff"/>
    </g>
    <g style="opacity:0.5">
      <path d="M60.5,88.3a18.9,18.9,0,0,1,5.7-14.1l-2.6-3.9c-2.6,1.2-11.6,4.4-8,18.1.5,1.7,3.1,3.4,5.7,4.9A22.7,22.7,0,0,1,60.5,88.3Z" style="fill:#fff"/>
    </g>
    <path d="M67.3,75.8,45,42.3C40.8,87.8,65.7,95.5,65.7,95.5" style="fill:none;stroke:#1d132d;stroke-linecap:round;stroke-linejoin:round;stroke-width:2px"/>
    <path d="M56.1,88.8l-9.7-5.2c3.7,21.9,20.7,21,20.7,21" style="fill:none;stroke:#1d132d;stroke-linecap:round;stroke-linejoin:round;stroke-width:2px"/>
    <path d="M55.8,88.3C51.9,77.6,58.9,70.9,63.7,71" style="fill:none;stroke:#1d132d;stroke-linecap:round;stroke-linejoin:round;stroke-width:2px"/>
  </g>
  <g>
    <title>02</title>
    <path d="M125.4,136.4c19.6-.5,28.4-3.6,37.2-11.1s12.1-21.8,12.1-37.2c0-27.7-17.6-49.2-43.4-53.7a76.8,76.8,0,0,0-11.1-.9,84.7,84.7,0,0,0-11.6.9C82.9,39,65.3,60.5,65.3,88.1c0,15.4,3.2,29.6,12.1,37.2s18.2,10.8,39.5,11.1Z" style="fill:#ff81a2;stroke:#1d132d;stroke-miterlimit:10;stroke-width:2px"/>
    <path d="M109.2,136.5c-7,6.6-11.8,18.9-11.8,29.9,0,16,10.1,19.5,22.6,19.5s22.6-3.4,22.6-19.5c0-11.1-4.9-23.5-12-30.1" style="fill:#ff81a2;stroke:#1d132d;stroke-miterlimit:10;stroke-width:2px"/>
    <path d="M130.9,136.7c-3.4.7-18,.5-21.3-.1h-.4c-7,6.6-11.8,18.9-11.8,29.9,0,16,10.1,19.5,22.6,19.5s22.6-3.4,22.6-19.5C142.6,155.5,137.8,143.3,130.9,136.7Z" style="fill:#ff81a2"/>
    <path d="M130.5,136.2c-3.1.3-6.1.6-9.4.6a111.1,111.1,0,0,1-12.3-.4L102,146a41,41,0,0,0,17.6,3.6,40.7,40.7,0,0,0,17.8-3.7C137.2,145.6,130.9,136.7,130.5,136.2Z" style="fill:#180621;opacity:0.15"/>
    <polyline points="136.4 144.4 108.9 184.4 101.7 179.9 131 137.6" style="fill:#36c8e3"/>
    <polyline points="103.2 145.2 130.4 184.2 138 180.4 108.3 137.7" style="fill:#36c8e3"/>
    <line x1="108.5" y1="137.7" x2="137.8" y2="180.2" style="fill:none;stroke:#1d132d;stroke-linecap:round;stroke-linejoin:round;stroke-width:2px"/>
    <line x1="103.1" y1="144.7" x2="130.5" y2="184.3" style="fill:none;stroke:#1d132d;stroke-linecap:round;stroke-linejoin:round;stroke-width:2px"/>
    <line x1="114.5" y1="161.4" x2="101.7" y2="179.9" style="fill:none;stroke:#1d132d;stroke-linecap:round;stroke-linejoin:round;stroke-width:2px"/>
    <line x1="130.7" y1="138" x2="119.9" y2="153.7" style="fill:none;stroke:#1d132d;stroke-linecap:round;stroke-linejoin:round;stroke-width:2px"/>
    <line x1="119.5" y1="168.9" x2="108.9" y2="184.4" style="fill:none;stroke:#1d132d;stroke-linecap:round;stroke-linejoin:round;stroke-width:2px"/>
    <line x1="136.4" y1="144.4" x2="124.9" y2="161.1" style="fill:none;stroke:#1d132d;stroke-linecap:round;stroke-linejoin:round;stroke-width:2px"/>
    <path d="M109.5,136.3l-.6.5c-6.9,6.7-11.5,18.8-11.5,29.6,0,16,10.1,19.5,22.6,19.5s22.6-3.4,22.6-19.5c0-11-4.8-23.3-11.8-29.9l-.2-.2" style="fill:none;stroke:#1d132d;stroke-linecap:round;stroke-linejoin:round;stroke-width:2px"/>
    <g style="opacity:0.30000000000000004">
      <path d="M108.7,44.1a84.7,84.7,0,0,1,11.6-.9,76.8,76.8,0,0,1,11.1.9c24.4,4.3,41.5,23.9,43.2,49.5q.1-2.7.1-5.5c0-27.7-17.6-49.2-43.4-53.7a76.8,76.8,0,0,0-11.1-.9,84.7,84.7,0,0,0-11.6.9C82.9,39,65.3,60.5,65.3,88.1q0,2.8.1,5.5C67.1,68,84.3,48.4,108.7,44.1Z" style="fill:#fff"/>
    </g>
    <path d="M125.4,136.4c19.6-.5,28.4-3.6,37.2-11.1s12.1-21.8,12.1-37.2c0-27.7-17.6-49.2-43.4-53.7a76.8,76.8,0,0,0-11.1-.9,84.7,84.7,0,0,0-11.6.9C82.9,39,65.3,60.5,65.3,88.1c0,15.4,3.2,29.6,12.1,37.2s18.2,10.8,39.5,11.1Z" style="fill:none;stroke:#1d132d;stroke-miterlimit:10;stroke-width:2px"/>
    <path d="M109.2,136.5c-7,6.6-11.8,18.9-11.8,29.9,0,16,10.1,19.5,22.6,19.5s22.6-3.4,22.6-19.5c0-11.1-4.9-23.5-12-30.1" style="fill:none;stroke:#1d132d;stroke-miterlimit:10;stroke-width:2px"/>
    <g style="opacity:0.30000000000000004">
      <path d="M108.7,44.1a84.7,84.7,0,0,1,11.6-.9,76.8,76.8,0,0,1,11.1.9c24.4,4.3,41.5,23.9,43.2,49.5q.1-2.7.1-5.5c0-27.7-17.6-49.2-43.4-53.7a76.8,76.8,0,0,0-11.1-.9,84.7,84.7,0,0,0-11.6.9C82.9,39,65.3,60.5,65.3,88.1q0,2.8.1,5.5C67.1,68,84.3,48.4,108.7,44.1Z" style="fill:#fff"/>
    </g>
    <path d="M125.4,136.4c19.6-.5,28.4-3.6,37.2-11.1s12.1-21.8,12.1-37.2c0-27.7-17.6-49.2-43.4-53.7a76.8,76.8,0,0,0-11.1-.9,84.7,84.7,0,0,0-11.6.9C82.9,39,65.3,60.5,65.3,88.1c0,15.4,3.2,29.6,12.1,37.2s18.2,10.8,39.5,11.1Z" style="fill:none;stroke:#1d132d;stroke-miterlimit:10;stroke-width:2px"/>
  </g>
  <g>
    <title>04</title>
    <g style="isolation:isolate">
      <path d="M120.2,136.4c26.6,0,36.1-3.6,44.2-9.9l1.7-1.5c11-10.8,8.2-26.2,8.2-26.2l-12.7,15-12.4-9.3-14.6,13.3-14.5-11.3h-.2l-14.5,11.3L90.8,104.5l-12.4,9.3-12.7-15S63,114.3,74,125l1.7,1.5c8.1,6.3,17.6,10.1,44.2,10.1" style="fill:#dce3ea"/>
      <path d="M65.8,103.5l12.7,15,12.4-9.3,14.6,13.3,14.5-11.3h.2l14.5,11.3,14.6-13.3,12.4,9.3,12.7-15s.1.8.2,2.2a31.3,31.3,0,0,0-.2-6.9l-12.7,15-12.4-9.3-14.6,13.3-14.5-11.3h-.2l-14.5,11.3L90.8,104.5l-12.4,9.3-12.7-15a31.3,31.3,0,0,0-.2,6.9C65.7,104.3,65.8,103.5,65.8,103.5Z" style="fill:#fff;opacity:0.5"/>
      <path d="M166.1,119.1l-1.7,1.5c-8.1,6.3-17.6,9.4-44.2,9.4h-.4c-26.6,0-36.1-3.1-44.2-9.4L74,119.1a29.2,29.2,0,0,1-8.4-18.7c-.4,4.2-.5,15.9,8.4,24.6l1.7,1.5c8.1,6.3,17.6,9.4,44.2,9.4h.4c26.6,0,36.1-3.1,44.2-9.4l1.7-1.5c8.9-8.7,8.7-20.4,8.4-24.6A29.2,29.2,0,0,1,166.1,119.1Z" style="fill:#180621;opacity:0.15;mix-blend-mode:multiply"/>
      <path d="M120.2,136.6c26.6,0,36.1-4,44.2-10.3l1.7-1.4c11-10.7,8.2-26,8.2-26l-12.7,14.9-12.4-9.3-14.6,13.2-14.5-11.2h-.2l-14.5,11.2L90.8,104.4l-12.4,9.3L65.8,98.8s-2.8,15.4,8.2,26l1.7,1.4c8.1,6.3,17.6,10.3,44.2,10.3" style="fill:none;stroke:#1d132d;stroke-linecap:round;stroke-linejoin:round;stroke-width:2px"/>
    </g>
  </g>
  <g>
    <title>!0_gen_02</title>
    <circle cx="120" cy="81.9" r="16.7" style="fill:none;stroke:#1d132d;stroke-miterlimit:10;stroke-width:2px"/>
    <circle cx="120" cy="81.9" r="16.7" style="fill:#ffde00;stroke:#1d132d;stroke-miterlimit:10;stroke-width:2px"/>
    <circle cx="120" cy="81.9" r="7.5" style="fill:#1d132d"/>
    <ellipse cx="127.2" cy="76.1" rx="6.1" ry="4.5" transform="matrix(0.78, -0.62, 0.62, 0.78, -19.64, 96.14)" style="fill:#fff;opacity:0.5"/>
  </g>
  <g/>
</svg>