<svg xmlns="http://www.w3.org/2000/svg" xmlns:xlink="http://www.w3.org/1999/xlink" viewBox="0 0 240 240">
  <ellipse cx="120.5" cy="233.4" rx="43.7" ry="4.9" style="fill:#180621;opacity:0.15"/>
  <g>
    <title>05</title>
    <path d="M98.8,221.4c-.9-12.3-.7-49.2-.7-49.2l18,8.2.2,52.7s-11.9,1.5-17.4-11.7Z" style="fill:#dce3ea"/>
    <path d="M97.7,196.8c4.1,0,7.9,3.4,7.9,7.5s-4,7.2-7.8,7.5" style="fill:#2e4159"/>
    <g style="opacity:0.5">
      <path d="M97.3,196.8l.3,6.9h.7a5.6,5.6,0,0,0,5.2-3.5A7.4,7.4,0,0,0,97.3,196.8Z" style="fill:#fff"/>
    </g>
    <path d="M115.9,232.6c.1.5-7.1,2.5-14.2,2.4a53.2,53.2,0,0,1-13.7-2.4,16.5,16.5,0,0,1,3.9-8.8c3.3-3.9,12.4-3.6,12.4-3.6S113,222.3,115.9,232.6Z" style="fill:#2e4159"/>
    <polyline points="98.2 219.8 98 172.2 116 180.4 116 232.5" style="fill:none;stroke:#1d132d;stroke-linecap:round;stroke-linejoin:round;stroke-width:2px"/>
    <path d="M98.4,196.8a7.4,7.4,0,0,1,.6,14.8" style="fill:none;stroke:#1d132d;stroke-linecap:round;stroke-linejoin:round;stroke-width:2px"/>
    <path d="M98,172.2s-.6,4.9-.8,12.9c3.6,3.9,12.5,7,18.8,6.7V180.4Z" style="fill:#180621;opacity:0.15"/>
    <ellipse cx="99" cy="222.7" rx="4.7" ry="3" style="fill:#fff;opacity:0.5"/>
    <line x1="106" y1="204.3" x2="115.6" y2="204.2" style="fill:none;stroke:#1d132d;stroke-linecap:round;stroke-linejoin:round;stroke-width:2px"/>
    <path d="M116,232.9a14.4,14.4,0,0,0-28.4-1.6,1.9,1.9,0,0,0,1.3,2.2,44.7,44.7,0,0,0,12.6,1.4C111,234.9,116,232.9,116,232.9Z" style="fill:none;stroke:#1d132d;stroke-linecap:round;stroke-linejoin:round;stroke-width:2px"/>
    <path d="M141.3,221.4c.9-12.3.8-49.2.8-49.2l-18,8.2-.2,52.7s11.9,1.5,17.4-11.7Z" style="fill:#dce3ea"/>
    <path d="M142.4,196.8c-4.1,0-7.9,3.4-7.9,7.5s4,7.2,7.8,7.5" style="fill:#2e4159"/>
    <g style="opacity:0.5">
      <path d="M142.8,196.8l-.3,6.9h-.7a5.6,5.6,0,0,1-5.2-3.5A7.4,7.4,0,0,1,142.8,196.8Z" style="fill:#fff"/>
    </g>
    <path d="M124.1,232.6c-.1.5,7.1,2.5,14.2,2.4a53.2,53.2,0,0,0,13.7-2.4,16.5,16.5,0,0,0-3.9-8.8c-3.3-3.9-12.4-3.6-12.4-3.6S127.1,222.3,124.1,232.6Z" style="fill:#2e4159"/>
    <polyline points="141.9 219.8 142.1 172.2 124.1 180.4 124.1 232.5" style="fill:none;stroke:#1d132d;stroke-linecap:round;stroke-linejoin:round;stroke-width:2px"/>
    <path d="M141.7,196.8a7.4,7.4,0,0,0-.6,14.8" style="fill:none;stroke:#1d132d;stroke-linecap:round;stroke-linejoin:round;stroke-width:2px"/>
    <path d="M142.1,172.2s.6,4.9.8,12.9c-3.6,3.9-12.5,7-18.8,6.7V180.4Z" style="fill:#180621;opacity:0.15"/>
    <ellipse cx="141" cy="222.7" rx="4.7" ry="3" style="fill:#fff;opacity:0.5"/>
    <line x1="134.1" y1="204.3" x2="124.5" y2="204.2" style="fill:none;stroke:#1d132d;stroke-linecap:round;stroke-linejoin:round;stroke-width:2px"/>
    <path d="M124.1,232.9a14.4,14.4,0,0,1,28.4-1.6,1.9,1.9,0,0,1-1.3,2.2,44.7,44.7,0,0,1-12.6,1.4C129.1,234.9,124.1,232.9,124.1,232.9Z" style="fill:none;stroke:#1d132d;stroke-linecap:round;stroke-linejoin:round;stroke-width:2px"/>
    <path d="M101.5,230.2a44.7,44.7,0,0,1-12.6-1.4l-.4-.2a14.3,14.3,0,0,0-.9,2.7,1.9,1.9,0,0,0,1.3,2.2,44.7,44.7,0,0,0,12.6,1.4c9.5,0,14.5-2,14.5-2a14.3,14.3,0,0,0-1.2-4.4A48.8,48.8,0,0,1,101.5,230.2Z" style="fill:#180621;opacity:0.15"/>
    <path d="M138.1,230.2a44.7,44.7,0,0,1-12.6-1.4l-.4-.2a14.3,14.3,0,0,0-.9,2.7,1.9,1.9,0,0,0,1.3,2.2,44.7,44.7,0,0,0,12.6,1.4c9.5,0,14.5-2,14.5-2a14.3,14.3,0,0,0-1.2-4.4A48.8,48.8,0,0,1,138.1,230.2Z" style="fill:#180621;opacity:0.15"/>
  </g>
  <g>
    <title>02</title>
    <path d="M74.3,169.3c-5.7-2.6-9.8-6.4-10.6-9.4a32.3,32.3,0,0,0-3,5.1h0c-1.4,3.1,3.3,8.3,10.5,11.7s14.3,3.6,15.7.5h0a32.6,32.6,0,0,0,2.1-6.2C86.5,172.7,80.5,172.1,74.3,169.3Z" style="fill:#dce3ea"/>
    <ellipse cx="81.7" cy="154" rx="3.5" ry="8.3" transform="translate(-92.4 163) rotate(-65)" style="fill:#dce3ea"/>
    <path d="M165.8,169.5c5.7-2.6,9.8-6.4,10.6-9.4a32.3,32.3,0,0,1,3,5.1h0c1.4,3.1-3.3,8.3-10.5,11.7s-14.3,3.6-15.7.5h0a32.6,32.6,0,0,1-2.1-6.2C153.7,173,159.7,172.4,165.8,169.5Z" style="fill:#dce3ea"/>
    <ellipse cx="158.4" cy="154.3" rx="8.3" ry="3.5" transform="translate(-50.4 81.4) rotate(-25)" style="fill:#dce3ea"/>
    <g style="opacity:0.15">
      <path d="M74.3,169.3c-5.7-2.6-9.8-6.4-10.6-9.4a32.3,32.3,0,0,0-3,5.1h0c-1.4,3.1,3.3,8.3,10.5,11.7s14.3,3.6,15.7.5h0a32.6,32.6,0,0,0,2.1-6.2C86.5,172.7,80.5,172.1,74.3,169.3Z" style="fill:#180621"/>
      <ellipse cx="81.7" cy="154" rx="3.5" ry="8.3" transform="translate(-92.4 163) rotate(-65)" style="fill:#180621"/>
      <path d="M165.8,169.5c5.7-2.6,9.8-6.4,10.6-9.4a32.3,32.3,0,0,1,3,5.1h0c1.4,3.1-3.3,8.3-10.5,11.7s-14.3,3.6-15.7.5h0a32.6,32.6,0,0,1-2.1-6.2C153.7,173,159.7,172.4,165.8,169.5Z" style="fill:#180621"/>
      <ellipse cx="158.4" cy="154.3" rx="8.3" ry="3.5" transform="translate(-50.4 81.4) rotate(-25)" style="fill:#180621"/>
    </g>
    <path d="M74.3,152.5a7.1,7.1,0,0,1-1.1-1.7A35.3,35.3,0,0,0,62.3,162a34.1,34.1,0,0,0,26.4,10.2,34.9,34.9,0,0,0,1-13.8C84,159.7,78.1,157,74.3,152.5Z" style="fill:#dce3ea"/>
    <path d="M88.7,172.2a33.4,33.4,0,0,0,.7-15.8l-.3-.2a15.6,15.6,0,0,1-14,9.5,14.6,14.6,0,0,1-11.5-5.6L62.3,162C69.4,169,78.8,173,88.7,172.2Z" style="fill:#180621;opacity:0.15"/>
    <path d="M100.2,155.3a11,11,0,0,1,8.1-18.3h1.8" style="fill:#2e4159"/>
    <path d="M75.7,178.9c-1.2,2.5-5.6,6.8-8.1,5.6s-2.1-7.2-1-9.8" style="fill:#2e4159"/>
    <path d="M63.1,172.4c-2.7.7-8.8.5-9.3-1.6s4.3-5.1,6.6-5.9" style="fill:#2e4159"/>
    <path d="M79.6,180.1c1.2,2.5,5.3,7,7.2,6.1s1.2-6.6.2-8.8" style="fill:#2e4159"/>
    <path d="M164.7,179c1.2,2.5,5.6,6.8,8.1,5.6s2.1-7.2,1-9.8" style="fill:#2e4159"/>
    <path d="M177.2,172.5c2.7.7,8.8.5,9.3-1.6s-4.3-5.1-6.6-5.9" style="fill:#2e4159"/>
    <path d="M160.7,180.1c-1.2,2.5-5.3,7-7.2,6.1s-1.2-6.6-.2-8.8" style="fill:#2e4159"/>
    <path d="M160.6,171.9l2.5-.8,4.4-2.1a24.1,24.1,0,0,0,9.3-8.2,35,35,0,0,0-10.2-10.2c-3.1,5.7-10,8.9-16.2,6.7a33.9,33.9,0,0,0,.9,14.7C154.7,173.1,157.6,172.4,160.6,171.9Z" style="fill:#dce3ea"/>
    <path d="M160.6,171.9l2.5-.8,4.4-2.1a24.1,24.1,0,0,0,9.3-8.2l-.4-.7a14.6,14.6,0,0,1-11.5,5.6,15.7,15.7,0,0,1-13.3-8l-1.3-.4a33.9,33.9,0,0,0,.9,14.7C154.7,173.2,156.2,172.8,160.6,171.9Z" style="fill:#180621;opacity:0.15"/>
    <path d="M139.8,155.3a11,11,0,0,0-8.1-18.3h-1.8" style="fill:#2e4159"/>
    <path d="M86.4,177.3c-1.4,3.1-8.5,2.8-15.7-.5s-11.9-8.6-10.5-11.7h0" style="fill:none;stroke:#1d132d;stroke-linecap:round;stroke-linejoin:round;stroke-width:2px"/>
    <path d="M88.5,171.1c-2.3,2-8.3,1.5-14.5-1.4s-10.3-7-10.4-10" style="fill:none;stroke:#1d132d;stroke-linecap:round;stroke-linejoin:round;stroke-width:2px"/>
    <ellipse cx="81.3" cy="154" rx="3.5" ry="8.3" transform="translate(-92.7 162.6) rotate(-65)" style="fill:none;stroke:#1d132d;stroke-linecap:round;stroke-linejoin:round;stroke-width:2px"/>
    <path d="M60.3,165c2.9-6.1,8.6-12.4,14.3-15.2" style="fill:none;stroke:#1d132d;stroke-linecap:round;stroke-linejoin:round;stroke-width:2px"/>
    <path d="M86.5,177.2c2.9-6.1,3.9-14.6,2.5-20.8" style="fill:none;stroke:#1d132d;stroke-linecap:round;stroke-linejoin:round;stroke-width:2px"/>
    <path d="M75.2,178.9c-1.2,2.5-5.6,6.8-8.1,5.6s-2.1-7.2-1-9.8" style="fill:none;stroke:#1d132d;stroke-linecap:round;stroke-linejoin:round;stroke-width:2px"/>
    <path d="M62.7,172.4c-2.7.7-8.8.5-9.3-1.6s4.3-5.1,6.6-5.9" style="fill:none;stroke:#1d132d;stroke-linecap:round;stroke-linejoin:round;stroke-width:2px"/>
    <path d="M79.2,180.1c1.2,2.5,5.3,7,7.2,6.1s1.2-6.6.2-8.8" style="fill:none;stroke:#1d132d;stroke-linecap:round;stroke-linejoin:round;stroke-width:2px"/>
    <line x1="67.6" y1="166.8" x2="65" y2="172.6" style="fill:none;stroke:#1d132d;stroke-linecap:round;stroke-linejoin:round;stroke-width:2px"/>
    <line x1="80" y1="172.6" x2="77.3" y2="178.3" style="fill:none;stroke:#1d132d;stroke-linecap:round;stroke-linejoin:round;stroke-width:2px"/>
    <path d="M100.2,155.3a11,11,0,0,1,8.1-18.3h1.8" style="fill:none;stroke:#1d132d;stroke-linecap:round;stroke-linejoin:round;stroke-width:2px"/>
    <path d="M153.6,177.3c1.4,3.1,8.5,2.8,15.7-.5s11.9-8.6,10.5-11.7h0" style="fill:none;stroke:#1d132d;stroke-linecap:round;stroke-linejoin:round;stroke-width:2px"/>
    <path d="M151.5,171.1c2.3,2,8.3,1.5,14.5-1.4s10.3-7,10.4-10" style="fill:none;stroke:#1d132d;stroke-linecap:round;stroke-linejoin:round;stroke-width:2px"/>
    <ellipse cx="158.7" cy="154" rx="8.3" ry="3.5" transform="translate(-50.2 81.5) rotate(-25)" style="fill:none;stroke:#1d132d;stroke-linecap:round;stroke-linejoin:round;stroke-width:2px"/>
    <path d="M179.7,165c-2.9-6.1-8.6-12.4-14.3-15.2" style="fill:none;stroke:#1d132d;stroke-linecap:round;stroke-linejoin:round;stroke-width:2px"/>
    <path d="M153.5,177.2c-2.9-6.1-3.9-14.6-2.5-20.8" style="fill:none;stroke:#1d132d;stroke-linecap:round;stroke-linejoin:round;stroke-width:2px"/>
    <path d="M164.7,178.9c1.2,2.5,5.6,6.8,8.1,5.6s2.1-7.2,1-9.8" style="fill:none;stroke:#1d132d;stroke-linecap:round;stroke-linejoin:round;stroke-width:2px"/>
    <path d="M177.3,172.4c2.7.7,8.8.5,9.3-1.6s-4.3-5.1-6.6-5.9" style="fill:none;stroke:#1d132d;stroke-linecap:round;stroke-linejoin:round;stroke-width:2px"/>
    <path d="M160.8,180.1c-1.2,2.5-5.3,7-7.2,6.1s-1.2-6.6-.2-8.8" style="fill:none;stroke:#1d132d;stroke-linecap:round;stroke-linejoin:round;stroke-width:2px"/>
    <line x1="172.3" y1="166.8" x2="175" y2="172.6" style="fill:none;stroke:#1d132d;stroke-linecap:round;stroke-linejoin:round;stroke-width:2px"/>
    <line x1="160" y1="172.6" x2="162.6" y2="178.3" style="fill:none;stroke:#1d132d;stroke-linecap:round;stroke-linejoin:round;stroke-width:2px"/>
    <path d="M139.8,155.3a11,11,0,0,0-8.1-18.3h-1.8" style="fill:none;stroke:#1d132d;stroke-linecap:round;stroke-linejoin:round;stroke-width:2px"/>
  </g>
  <g>
    <title>05</title>
    <path d="M72.5,107.4V66.4H69.6c-10.7,0-19.4,9.2-19.4,20.5s8.7,20.5,19.4,20.5Z" style="fill:#dce3ea"/>
    <g style="opacity:0.15">
      <path d="M71,95.5h-.2a24.4,24.4,0,0,1-12.4-3.3l-5-3.8a25.1,25.1,0,0,1-3-3.7,21.7,21.7,0,0,0-.1,2.3c0,11.3,8.7,20.5,19.4,20.5h2.9V95.5Z" style="fill:#180621"/>
    </g>
    <path d="M166.5,107.4V66.4h2.9c10.7,0,19.4,9.2,19.4,20.5s-8.7,20.5-19.4,20.5Z" style="fill:#dce3ea"/>
    <g style="opacity:0.15">
      <path d="M168,95.5h.3a24.4,24.4,0,0,0,12.4-3.3l5-3.8a25.1,25.1,0,0,0,3-3.7,21.7,21.7,0,0,1,.1,2.3c0,11.3-8.7,20.5-19.4,20.5h-2.9V95.5Z" style="fill:#180621"/>
    </g>
    <path d="M72.5,107.4V66.4H69.6c-10.7,0-19.4,9.2-19.4,20.5s8.7,20.5,19.4,20.5Z" style="fill:none;stroke:#1d132d;stroke-miterlimit:10;stroke-width:2px"/>
    <path d="M166.5,107.4V66.4h2.9c10.7,0,19.4,9.2,19.4,20.5s-8.7,20.5-19.4,20.5Z" style="fill:none;stroke:#1d132d;stroke-miterlimit:10;stroke-width:2px"/>
  </g>
  <g>
    <title>body_eferium</title>
    <path d="M131.3,34.4a76.8,76.8,0,0,0-11.1-.9,84.7,84.7,0,0,0-11.6.9C82.9,39,65.3,60.5,65.3,88.1c0,15.4,3.2,29.6,12.1,37.2s18.2,10.8,39.5,11.1h-7.7c-7,6.6-11.8,18.9-11.8,29.9,0,16,10.1,19.5,22.6,19.5s22.6-3.4,22.6-19.5c0-11.1-4.9-23.5-12-30.1h-5.2c19.6-.5,28.4-3.6,37.2-11.1s12.1-21.8,12.1-37.2C174.7,60.5,157.1,39,131.3,34.4Z" style="fill:#c6db45"/>
    <path d="M131.3,34.4a76.8,76.8,0,0,0-11.1-.9,84.7,84.7,0,0,0-11.6.9C82.9,39,65.3,60.5,65.3,88.1c0,15.4,3.2,29.6,12.1,37.2s18.2,10.8,39.5,11.1h-7.7c-7,6.6-11.8,18.9-11.8,29.9,0,16,10.1,19.5,22.6,19.5s22.6-3.4,22.6-19.5c0-11.1-4.9-23.5-12-30.1h-5.2c19.6-.5,28.4-3.6,37.2-11.1s12.1-21.8,12.1-37.2C174.7,60.5,157.1,39,131.3,34.4Z" style="fill:#703c81"/>
    <path d="M131.3,34.4a76.8,76.8,0,0,0-11.1-.9,84.7,84.7,0,0,0-11.6.9C82.9,39,65.3,60.5,65.3,88.1c0,15.4,3.2,29.6,12.1,37.2s18.2,10.8,39.5,11.1h-7.7c-7,6.6-11.8,18.9-11.8,29.9,0,16,10.1,19.5,22.6,19.5s22.6-3.4,22.6-19.5c0-11.1-4.9-23.5-12-30.1h-5.2c19.6-.5,28.4-3.6,37.2-11.1s12.1-21.8,12.1-37.2C174.7,60.5,157.1,39,131.3,34.4Z" style="fill:#ff81a2"/>
    <path d="M131.3,34.4a76.8,76.8,0,0,0-11.1-.9,84.7,84.7,0,0,0-11.6.9C82.9,39,65.3,60.5,65.3,88.1c0,15.4,3.2,29.6,12.1,37.2s18.2,10.8,39.5,11.1h-7.7c-7,6.6-11.8,18.9-11.8,29.9,0,16,10.1,19.5,22.6,19.5s22.6-3.4,22.6-19.5c0-11.1-4.9-23.5-12-30.1h-5.2c19.6-.5,28.4-3.6,37.2-11.1s12.1-21.8,12.1-37.2C174.7,60.5,157.1,39,131.3,34.4Z" style="fill:#e83a27"/>
    <path d="M131.3,34.4a76.8,76.8,0,0,0-11.1-.9,84.7,84.7,0,0,0-11.6.9C82.9,39,65.3,60.5,65.3,88.1c0,15.4,3.2,29.6,12.1,37.2s18.2,10.8,39.5,11.1h-7.7c-7,6.6-11.8,18.9-11.8,29.9,0,16,10.1,19.5,22.6,19.5s22.6-3.4,22.6-19.5c0-11.1-4.9-23.5-12-30.1h-5.2c19.6-.5,28.4-3.6,37.2-11.1s12.1-21.8,12.1-37.2C174.7,60.5,157.1,39,131.3,34.4Z" style="fill:#5f3535"/>
    <path d="M131.3,34.4a76.8,76.8,0,0,0-11.1-.9,84.7,84.7,0,0,0-11.6.9C82.9,39,65.3,60.5,65.3,88.1c0,15.4,3.2,29.6,12.1,37.2s18.2,10.8,39.5,11.1h-7.7c-7,6.6-11.8,18.9-11.8,29.9,0,16,10.1,19.5,22.6,19.5s22.6-3.4,22.6-19.5c0-11.1-4.9-23.5-12-30.1h-5.2c19.6-.5,28.4-3.6,37.2-11.1s12.1-21.8,12.1-37.2C174.7,60.5,157.1,39,131.3,34.4Z" style="fill:#f557c7"/>
    <path d="M131.3,34.4a76.8,76.8,0,0,0-11.1-.9,84.7,84.7,0,0,0-11.6.9C82.9,39,65.3,60.5,65.3,88.1c0,15.4,3.2,29.6,12.1,37.2s18.2,10.8,39.5,11.1h-7.7c-7,6.6-11.8,18.9-11.8,29.9,0,16,10.1,19.5,22.6,19.5s22.6-3.4,22.6-19.5c0-11.1-4.9-23.5-12-30.1h-5.2c19.6-.5,28.4-3.6,37.2-11.1s12.1-21.8,12.1-37.2C174.7,60.5,157.1,39,131.3,34.4Z" style="fill:#36c8e3"/>
    <path d="M131.3,34.4a76.8,76.8,0,0,0-11.1-.9,84.7,84.7,0,0,0-11.6.9C82.9,39,65.3,60.5,65.3,88.1c0,15.4,3.2,29.6,12.1,37.2s18.2,10.8,39.5,11.1h-7.7c-7,6.6-11.8,18.9-11.8,29.9,0,16,10.1,19.5,22.6,19.5s22.6-3.4,22.6-19.5c0-11.1-4.9-23.5-12-30.1h-5.2c19.6-.5,28.4-3.6,37.2-11.1s12.1-21.8,12.1-37.2C174.7,60.5,157.1,39,131.3,34.4Z" style="fill:#ffde00"/>
    <path d="M130.5,136.5s8.4,10.7,7.9,12.9-10.5,6-10.5,6l-6,29.5-3.5.3-5.7-29.5s-10.8-3.5-11.1-6.1c-.6-4.6,8.2-13,8.2-13Z" style="fill:#ffde00"/>
    <path d="M130.6,137c-3.1.3-6.3.4-9.5.4a114.7,114.7,0,0,1-12.6-.7L102,146a41,41,0,0,0,17.6,3.6,40.7,40.7,0,0,0,17.8-3.7C137.2,145.6,131,137.4,130.6,137Z" style="fill:#180621;opacity:0.15"/>
    <g style="opacity:0.30000000000000004">
      <path d="M108.7,44.1a84.7,84.7,0,0,1,11.6-.9,76.8,76.8,0,0,1,11.1.9c24.4,4.3,41.5,23.9,43.2,49.5q.1-2.7.1-5.5c0-27.7-17.6-49.2-43.4-53.7a76.8,76.8,0,0,0-11.1-.9,84.7,84.7,0,0,0-11.6.9C82.9,39,65.3,60.5,65.3,88.1q0,2.8.1,5.5C67.1,68,84.3,48.4,108.7,44.1Z" style="fill:#fff"/>
    </g>
    <rect x="98.4" y="158" width="17.8" height="4.73" transform="translate(83.5 -31.1) rotate(26.7)" style="fill:#d9e3ea"/>
    <rect x="124" y="158" width="17.8" height="4.73" transform="translate(323.7 243.8) rotate(153.3)" style="fill:#d9e3ea"/>
    <line x1="100.4" y1="153.7" x2="112.2" y2="160.2" style="fill:none;stroke:#1d132d;stroke-linecap:round;stroke-linejoin:round;stroke-width:2px"/>
    <line x1="139.8" y1="153.7" x2="127.9" y2="160.2" style="fill:none;stroke:#1d132d;stroke-linecap:round;stroke-linejoin:round;stroke-width:2px"/>
    <line x1="98.6" y1="159.1" x2="111.8" y2="166.4" style="fill:none;stroke:#1d132d;stroke-linecap:round;stroke-linejoin:round;stroke-width:2px"/>
    <line x1="141.7" y1="159" x2="128.4" y2="166.4" style="fill:none;stroke:#1d132d;stroke-linecap:round;stroke-linejoin:round;stroke-width:2px"/>
    <polygon points="119.9 180 108.7 163.9 120.1 147.9 131.3 163.9 119.9 180" style="fill:#ff56ca"/>
    <polygon points="119.9 180 120.1 147.9 131.3 163.9 119.9 180" style="fill:#ff99e7"/>
    <polygon points="120 180.5 109.5 163.8 120 168.1 120 180.5" style="fill:#e528a1"/>
    <polygon points="119.9 180 130.1 163.6 120 168.1 119.9 180" style="fill:#ff56ca"/>
    <polyline points="130.1 163.6 120 168.1 120 148.9 121.1 166.1" style="fill:#fff"/>
    <path d="M118.8,179.3l-9.6-14.7a1.4,1.4,0,0,1,0-1.5l9.6-14.6a1.4,1.4,0,0,1,2.3,0l9.7,14.6a1.4,1.4,0,0,1,0,1.5l-9.7,14.7A1.4,1.4,0,0,1,118.8,179.3Z" style="fill:none;stroke:#1a0b2a;stroke-linecap:round;stroke-linejoin:round;stroke-width:2px"/>
    <path d="M125.4,136.4c19.6-.5,28.4-3.6,37.2-11.1s12.1-21.8,12.1-37.2c0-27.7-17.6-49.2-43.4-53.7a76.8,76.8,0,0,0-11.1-.9,84.7,84.7,0,0,0-11.6.9C82.9,39,65.3,60.5,65.3,88.1c0,15.4,3.2,29.6,12.1,37.2s18.2,10.8,39.5,11.1Z" style="fill:none;stroke:#1d132d;stroke-miterlimit:10;stroke-width:2px"/>
    <path d="M109.2,136.5c-7,6.6-11.8,18.9-11.8,29.9,0,16,10.1,19.5,22.6,19.5s22.6-3.4,22.6-19.5c0-11.1-4.9-23.5-12-30.1" style="fill:none;stroke:#1d132d;stroke-miterlimit:10;stroke-width:2px"/>
  </g>
  <g>
    <title>04</title>
    <g style="isolation:isolate">
      <path d="M120.2,136.4c26.6,0,36.1-3.6,44.2-9.9l1.7-1.5c11-10.8,8.2-26.2,8.2-26.2l-12.7,15-12.4-9.3-14.6,13.3-14.5-11.3h-.2l-14.5,11.3L90.8,104.5l-12.4,9.3-12.7-15S63,114.3,74,125l1.7,1.5c8.1,6.3,17.6,10.1,44.2,10.1" style="fill:#dce3ea"/>
      <path d="M65.8,103.5l12.7,15,12.4-9.3,14.6,13.3,14.5-11.3h.2l14.5,11.3,14.6-13.3,12.4,9.3,12.7-15s.1.8.2,2.2a31.3,31.3,0,0,0-.2-6.9l-12.7,15-12.4-9.3-14.6,13.3-14.5-11.3h-.2l-14.5,11.3L90.8,104.5l-12.4,9.3-12.7-15a31.3,31.3,0,0,0-.2,6.9C65.7,104.3,65.8,103.5,65.8,103.5Z" style="fill:#fff;opacity:0.5"/>
      <path d="M166.1,119.1l-1.7,1.5c-8.1,6.3-17.6,9.4-44.2,9.4h-.4c-26.6,0-36.1-3.1-44.2-9.4L74,119.1a29.2,29.2,0,0,1-8.4-18.7c-.4,4.2-.5,15.9,8.4,24.6l1.7,1.5c8.1,6.3,17.6,9.4,44.2,9.4h.4c26.6,0,36.1-3.1,44.2-9.4l1.7-1.5c8.9-8.7,8.7-20.4,8.4-24.6A29.2,29.2,0,0,1,166.1,119.1Z" style="fill:#180621;opacity:0.15;mix-blend-mode:multiply"/>
      <path d="M120.2,136.6c26.6,0,36.1-4,44.2-10.3l1.7-1.4c11-10.7,8.2-26,8.2-26l-12.7,14.9-12.4-9.3-14.6,13.2-14.5-11.2h-.2l-14.5,11.2L90.8,104.4l-12.4,9.3L65.8,98.8s-2.8,15.4,8.2,26l1.7,1.4c8.1,6.3,17.6,10.3,44.2,10.3" style="fill:none;stroke:#1d132d;stroke-linecap:round;stroke-linejoin:round;stroke-width:2px"/>
    </g>
  </g>
  <g>
    <title>04</title>
    <circle cx="147.9" cy="86.7" r="13.7" style="fill:#ff81a2"/>
    <path d="M148.6,72.6c-7.5,0-13.1,4.6-14.4,11.9a26.2,26.2,0,0,0,.2,6.4,17.4,17.4,0,0,1,1.8-3.9,19.6,19.6,0,0,1,4.9-5.4h0l1.5-1h0l1.6-.9h0l1.7-.7h0l1.7-.6a17.5,17.5,0,0,1,4.6-.6,18,18,0,0,1,7.7,1.7C157.4,75.4,153,72.6,148.6,72.6Z" style="fill:#180621;opacity:0.15"/>
    <path d="M147.5,72.2c8,.4,13.9,7.1,14.3,15a13.9,13.9,0,0,1-4.4,10.5c9.2-7.4,11-25,11-25S156.9,70.2,147.5,72.2Z" style="fill:#1d132d"/>
    <circle cx="147.9" cy="86.7" r="13.7" style="fill:none;stroke:#1d132d;stroke-linecap:round;stroke-linejoin:round;stroke-width:2px"/>
    <path d="M143,73.8c9.5-4.2,25.1-1,25.1-1s-2.9,27.7-19.5,27.7" style="fill:none;stroke:#1d132d;stroke-linecap:round;stroke-linejoin:round;stroke-width:2px"/>
    <circle cx="92.1" cy="86.7" r="13.7" style="fill:#ff81a2"/>
    <path d="M91.4,72.6c7.5,0,13.1,4.6,14.4,11.9a26.2,26.2,0,0,1-.2,6.4,17.4,17.4,0,0,0-1.8-3.9,19.6,19.6,0,0,0-4.9-5.4h0l-1.5-1h0l-1.6-.9h0L94,79h0l-1.7-.6a17.5,17.5,0,0,0-4.6-.6A18,18,0,0,0,80,79.5C82.5,75.4,86.9,72.6,91.4,72.6Z" style="fill:#180621;opacity:0.15"/>
    <path d="M92.4,72.2c-8,.4-13.9,7.1-14.3,15a13.9,13.9,0,0,0,4.4,10.5c-9.2-7.4-11-25-11-25S83.1,70.2,92.4,72.2Z" style="fill:#1d132d"/>
    <circle cx="92.1" cy="86.7" r="13.7" style="fill:none;stroke:#1d132d;stroke-linecap:round;stroke-linejoin:round;stroke-width:2px"/>
    <path d="M96.9,73.8c-9.5-4.2-25.1-1-25.1-1s2.9,27.7,19.5,27.7" style="fill:none;stroke:#1d132d;stroke-linecap:round;stroke-linejoin:round;stroke-width:2px"/>
  </g>
  <g/>
</svg>