<svg xmlns="http://www.w3.org/2000/svg" xmlns:xlink="http://www.w3.org/1999/xlink" viewBox="0 0 240 240">
  <ellipse cx="120.5" cy="233.4" rx="43.7" ry="4.9" style="fill:#180621;opacity:0.15"/>
  <g>
    <title>02</title>
    <path d="M105.8,191.7a19.1,19.1,0,0,0-4,15.7h0a19.1,19.1,0,0,0,8.3,12.4,22.1,22.1,0,0,1,1.3-3.7,9,9,0,0,1,2.5-3.2,19.2,19.2,0,0,0,8.6,19.2l.3.2a50.8,50.8,0,0,1,9.7-15.2l.4-.4a17.3,17.3,0,0,0,0-24.5" style="fill:#e83a27"/>
    <path d="M128.8,199.2c0,8.3-8.9,14.4-8.9,14.4s-8.9-5.3-8.9-14.4a8.9,8.9,0,1,1,17.8,0Z" style="fill:#fff;opacity:0.5"/>
    <path d="M137.2,180.3H102.8v7.4c0,3.2,7.7,5.8,17.2,5.8s17.2-2.6,17.2-5.8Z" style="fill:#2e4159"/>
    <path d="M137.2,180.3H102.8v7.4c0,3.2,7.7,5.8,17.2,5.8s17.2-2.6,17.2-5.8Z" style="fill:none;stroke:#1d132d;stroke-miterlimit:10;stroke-width:2px"/>
    <path d="M105.8,191.7a19.1,19.1,0,0,0-4,15.7h0a19.1,19.1,0,0,0,8.3,12.4,22.1,22.1,0,0,1,1.3-3.7,9,9,0,0,1,2.5-3.2,19.2,19.2,0,0,0,8.6,19.2l.3.2a50.8,50.8,0,0,1,9.7-15.2l.4-.4a17.3,17.3,0,0,0,0-24.5" style="fill:none;stroke:#1d132d;stroke-linecap:round;stroke-linejoin:round;stroke-width:2px"/>
    <path d="M129,208.3a12.7,12.7,0,0,0-2.6-14.4" style="fill:none;stroke:#1d132d;stroke-linecap:round;stroke-linejoin:round;stroke-width:2px"/>
    <line x1="126.7" y1="212.3" x2="126.1" y2="213.3" style="fill:none;stroke:#1d132d;stroke-linecap:round;stroke-linejoin:round;stroke-width:2px"/>
    <path d="M105.8,191.7a19.1,19.1,0,0,0-4,15.7h0a19.1,19.1,0,0,0,8.3,12.4,22.1,22.1,0,0,1,1.3-3.7,9,9,0,0,1,2.5-3.2,19.2,19.2,0,0,0,8.6,19.2l.3.2a50.8,50.8,0,0,1,9.7-15.2l.4-.4a17.3,17.3,0,0,0,0-24.5" style="fill:#ff81a2"/>
    <path d="M128.8,199.2c0,8.3-8.9,14.4-8.9,14.4s-8.9-5.3-8.9-14.4a8.9,8.9,0,1,1,17.8,0Z" style="fill:#fff;opacity:0.5"/>
    <path d="M137.2,180.3H102.8v7.4c0,3.2,7.7,5.8,17.2,5.8s17.2-2.6,17.2-5.8Z" style="fill:#2e4159"/>
    <path d="M137.2,180.3H102.8v7.4c0,3.2,7.7,5.8,17.2,5.8s17.2-2.6,17.2-5.8Z" style="fill:none;stroke:#1d132d;stroke-miterlimit:10;stroke-width:2px"/>
    <path d="M105.8,191.7a19.1,19.1,0,0,0-4,15.7h0a19.1,19.1,0,0,0,8.3,12.4,22.1,22.1,0,0,1,1.3-3.7,9,9,0,0,1,2.5-3.2,19.2,19.2,0,0,0,8.6,19.2l.3.2a50.8,50.8,0,0,1,9.7-15.2l.4-.4a17.3,17.3,0,0,0,0-24.5" style="fill:none;stroke:#1d132d;stroke-linecap:round;stroke-linejoin:round;stroke-width:2px"/>
    <path d="M129,208.3a12.7,12.7,0,0,0-2.6-14.4" style="fill:none;stroke:#1d132d;stroke-linecap:round;stroke-linejoin:round;stroke-width:2px"/>
    <line x1="126.7" y1="212.3" x2="126.1" y2="213.3" style="fill:none;stroke:#1d132d;stroke-linecap:round;stroke-linejoin:round;stroke-width:2px"/>
  </g>
  <g>
    <title>03</title>
    <path d="M160.8,182.9l1,1.9h0c1.3,2.2,6.4,1.5,11.4-1.5s8.1-7.1,6.8-9.3h0l-1.1-1.8" style="fill:#2e4159"/>
    <path d="M161.7,149a9.2,9.2,0,0,0-13.5,7.4h0c-.8,6,4.5,19.3,7.7,24.8h.1c1.6,2.8,8.2,1.9,14.7-1.9s10.4-9.2,8.7-11.9h-.1c-3.2-5.5-12.7-16.4-18.3-18.6" style="fill:#dce3ea"/>
    <path d="M156.8,170.8c6.6-2.3,15.4-6.3,15.2-13a65.7,65.7,0,0,1,7.4,9.5h.1c1.6,2.8-2.3,8.1-8.7,11.9s-13,4.7-14.7,1.9H156a70.3,70.3,0,0,1-4.9-10.8C152.8,171.7,154.9,171.4,156.8,170.8Z" style="fill:#dce3ea"/>
    <path d="M78.2,182.9l-1,1.9h0c-1.3,2.2-6.4,1.5-11.4-1.5s-8.1-7.1-6.8-9.3h0l1.1-1.8" style="fill:#2e4159"/>
    <path d="M77.2,149a9.2,9.2,0,0,1,13.5,7.4h0c.8,6-4.5,19.3-7.7,24.8h-.1c-1.6,2.8-8.2,1.9-14.7-1.9s-10.4-9.2-8.7-11.9h.1c3.2-5.5,12.7-16.4,18.3-18.6" style="fill:#dce3ea"/>
    <path d="M82.2,170.8c-6.6-2.3-15.4-6.3-15.2-13a65.7,65.7,0,0,0-7.4,9.5h-.1c-1.6,2.8,2.3,8.1,8.7,11.9s13,4.7,14.7,1.9H83a70.3,70.3,0,0,0,4.9-10.8C86.2,171.7,84.1,171.4,82.2,170.8Z" style="fill:#dce3ea"/>
    <path d="M90.8,156.3h0a9.2,9.2,0,0,0-2.9-6,22.4,22.4,0,0,1-3.6,16.9c-4.7,7.1-12.1,10.9-18.7,10.2l2.6,1.8c6.5,3.8,13,4.7,14.7,1.9H83C86.3,175.6,91.6,162.2,90.8,156.3Z" style="fill:#180621;opacity:0.15"/>
    <path d="M148.2,156.3h0a9.2,9.2,0,0,1,2.9-6,22.4,22.4,0,0,0,3.6,16.9c4.7,7.1,12.1,10.9,18.7,10.2l-2.6,1.8c-6.5,3.8-13,4.7-14.7,1.9H156C152.7,175.6,147.4,162.2,148.2,156.3Z" style="fill:#180621;opacity:0.15"/>
    <path d="M86.6,152.4a2.5,2.5,0,0,1-1.9-4.1c4.1-4.9,12.6-10.3,22.4-11.1a2.5,2.5,0,0,1,.4,5c-8.3.7-15.6,5.3-19,9.3A2.5,2.5,0,0,1,86.6,152.4Z" style="fill:#2e4159"/>
    <path d="M86.6,152.4a2.5,2.5,0,0,1-1.9-4.1c4.1-4.9,12.6-10.3,22.4-11.1a2.5,2.5,0,0,1,.4,5c-8.3.7-15.6,5.3-19,9.3A2.5,2.5,0,0,1,86.6,152.4Z" style="fill:none;stroke:#1d132d;stroke-miterlimit:10;stroke-width:2px"/>
    <path d="M83,181.1c-1.6,2.8-8.2,1.9-14.7-1.9S58,170,59.6,167.3h0" style="fill:none;stroke:#1d132d;stroke-linecap:round;stroke-linejoin:round;stroke-width:2px"/>
    <path d="M87.5,171.2c-2.7.9-7.6-.2-12.4-3.1s-8.5-6.9-8.8-9.7" style="fill:none;stroke:#1d132d;stroke-linecap:round;stroke-linejoin:round;stroke-width:2px"/>
    <path d="M59.7,167.1c3.2-5.5,12.7-16.4,18.3-18.6" style="fill:none;stroke:#1d132d;stroke-linecap:round;stroke-linejoin:round;stroke-width:2px"/>
    <path d="M83.1,181c3.2-5.5,8.6-18.9,7.7-24.8" style="fill:none;stroke:#1d132d;stroke-linecap:round;stroke-linejoin:round;stroke-width:2px"/>
    <path d="M88.8,151.2a9.2,9.2,0,0,1,2,5.1" style="fill:none;stroke:#1d132d;stroke-linecap:round;stroke-linejoin:round;stroke-width:2px"/>
    <path d="M84.3,148.2h.3" style="fill:none;stroke:#1d132d;stroke-linecap:round;stroke-linejoin:round;stroke-width:2px"/>
    <path d="M77.3,148.9a9.2,9.2,0,0,1,7-.7" style="fill:none;stroke:#1d132d;stroke-linecap:round;stroke-linejoin:round;stroke-width:2px"/>
    <path d="M77.2,184.7c-1.3,2.2-6.4,1.5-11.4-1.5s-8.1-7.1-6.8-9.3h0" style="fill:none;stroke:#1d132d;stroke-linecap:round;stroke-linejoin:round;stroke-width:2px"/>
    <path d="M59.1,173.8l1.1-1.8" style="fill:none;stroke:#1d132d;stroke-linecap:round;stroke-linejoin:round;stroke-width:2px"/>
    <path d="M77.3,184.6l1-1.9" style="fill:none;stroke:#1d132d;stroke-linecap:round;stroke-linejoin:round;stroke-width:2px"/>
    <path d="M152.4,152.4a2.5,2.5,0,0,0,1.9-4.1c-4.1-4.9-12.6-10.3-22.4-11.1a2.5,2.5,0,0,0-.4,5c8.3.7,15.6,5.3,19,9.3A2.5,2.5,0,0,0,152.4,152.4Z" style="fill:#2e4159"/>
    <path d="M152.4,152.4a2.5,2.5,0,0,0,1.9-4.1c-4.1-4.9-12.6-10.3-22.4-11.1a2.5,2.5,0,0,0-.4,5c8.3.7,15.6,5.3,19,9.3A2.5,2.5,0,0,0,152.4,152.4Z" style="fill:none;stroke:#1d132d;stroke-miterlimit:10;stroke-width:2px"/>
    <path d="M155.9,181.1c1.6,2.8,8.2,1.9,14.7-1.9s10.4-9.2,8.7-11.9h0" style="fill:none;stroke:#1d132d;stroke-linecap:round;stroke-linejoin:round;stroke-width:2px"/>
    <path d="M151.4,171.2c2.7.9,7.6-.2,12.4-3.1s8.5-6.9,8.8-9.7" style="fill:none;stroke:#1d132d;stroke-linecap:round;stroke-linejoin:round;stroke-width:2px"/>
    <path d="M179.3,167.1c-3.2-5.5-12.7-16.4-18.3-18.6" style="fill:none;stroke:#1d132d;stroke-linecap:round;stroke-linejoin:round;stroke-width:2px"/>
    <path d="M155.9,181c-3.2-5.5-8.6-18.9-7.7-24.8" style="fill:none;stroke:#1d132d;stroke-linecap:round;stroke-linejoin:round;stroke-width:2px"/>
    <path d="M150.2,151.2a9.2,9.2,0,0,0-2,5.1" style="fill:none;stroke:#1d132d;stroke-linecap:round;stroke-linejoin:round;stroke-width:2px"/>
    <path d="M154.7,148.2h-.3" style="fill:none;stroke:#1d132d;stroke-linecap:round;stroke-linejoin:round;stroke-width:2px"/>
    <path d="M161.6,148.9a9.2,9.2,0,0,0-7-.7" style="fill:none;stroke:#1d132d;stroke-linecap:round;stroke-linejoin:round;stroke-width:2px"/>
    <path d="M161.7,184.7c1.3,2.2,6.4,1.5,11.4-1.5s8.1-7.1,6.8-9.3h0" style="fill:none;stroke:#1d132d;stroke-linecap:round;stroke-linejoin:round;stroke-width:2px"/>
    <path d="M179.9,173.8l-1.1-1.8" style="fill:none;stroke:#1d132d;stroke-linecap:round;stroke-linejoin:round;stroke-width:2px"/>
    <path d="M161.7,184.6l-1-1.9" style="fill:none;stroke:#1d132d;stroke-linecap:round;stroke-linejoin:round;stroke-width:2px"/>
  </g>
  <g>
    <title>02</title>
    <path d="M66.3,79.8C62.2,67,42.2,62.8,42.2,62.8c3.1,6.6,3.9,12.4,4.7,17.7s2,20.5,19.1,22.6" style="fill:#2e4159"/>
    <path d="M49.2,65.4a1.7,1.7,0,0,1,.7.5,1.9,1.9,0,0,1,.3.8C50.7,69,53,76,53.1,77.4a26.8,26.8,0,0,0,3.1,11.8,14.5,14.5,0,0,0,9.4,7.3,16.7,16.7,0,0,0-.1,6.6,29.1,29.1,0,0,1-6.9-2.1,29,29,0,0,1-4-2.6c-1-.7-6-2.4-8.7-22.1-.5-3.3-1.6-6.4-2.3-9.6-.3-1.2-1.1-3.3.9-2.9A32.3,32.3,0,0,1,49.2,65.4Z" style="fill:#dce3ea"/>
    <path d="M66.3,79.8C62.2,67,42.2,62.8,42.2,62.8c3.1,6.6,3.9,12.4,4.7,17.7s2,20.5,19.1,22.6" style="fill:none;stroke:#1d132d;stroke-linecap:round;stroke-linejoin:round;stroke-width:2px"/>
    <path d="M50,65.6a60.8,60.8,0,0,1,2.5,11.8c.7,5.2,1.6,15.8,12.6,19.4" style="fill:none;stroke:#1d132d;stroke-linecap:round;stroke-linejoin:round;stroke-width:2px"/>
    <line x1="59.9" y1="94.5" x2="57.2" y2="99.1" style="fill:none;stroke:#1d132d;stroke-linecap:round;stroke-linejoin:round;stroke-width:2px"/>
    <line x1="55.3" y1="90.2" x2="50.7" y2="92.9" style="fill:none;stroke:#1d132d;stroke-linecap:round;stroke-linejoin:round;stroke-width:2px"/>
    <path d="M173.6,79.8c4.1-12.7,24.1-16.9,24.1-16.9-3.1,6.6-3.9,12.4-4.7,17.7s-2,20.5-19.1,22.6" style="fill:#2e4159"/>
    <path d="M190.7,65.4a1.7,1.7,0,0,0-.7.5,1.9,1.9,0,0,0-.3.8c-.5,2.3-2.8,9.3-2.9,10.7a26.8,26.8,0,0,1-3.1,11.8,14.5,14.5,0,0,1-9.4,7.3,16.7,16.7,0,0,1,.1,6.6,29.1,29.1,0,0,0,6.9-2.1,29,29,0,0,0,4-2.6c1-.7,6-2.4,8.7-22.1.5-3.3,1.6-6.4,2.3-9.6.3-1.2,1.1-3.3-.9-2.9A32.3,32.3,0,0,0,190.7,65.4Z" style="fill:#dce3ea"/>
    <path d="M173.6,79.8c4.1-12.7,24.1-16.9,24.1-16.9-3.1,6.6-3.9,12.4-4.7,17.7s-2,20.5-19.1,22.6" style="fill:none;stroke:#1d132d;stroke-linecap:round;stroke-linejoin:round;stroke-width:2px"/>
    <path d="M189.9,65.6a60.8,60.8,0,0,0-2.5,11.8c-.7,5.2-1.6,15.8-12.6,19.4" style="fill:none;stroke:#1d132d;stroke-linecap:round;stroke-linejoin:round;stroke-width:2px"/>
    <line x1="180" y1="94.5" x2="182.7" y2="99.1" style="fill:none;stroke:#1d132d;stroke-linecap:round;stroke-linejoin:round;stroke-width:2px"/>
    <line x1="184.6" y1="90.2" x2="189.2" y2="92.9" style="fill:none;stroke:#1d132d;stroke-linecap:round;stroke-linejoin:round;stroke-width:2px"/>
  </g>
  <g>
    <title>06</title>
    <path d="M125.4,136.4c19.6-.5,28.4-3.6,37.2-11.1s12.1-21.8,12.1-37.2c0-27.7-17.6-49.2-43.4-53.7a76.8,76.8,0,0,0-11.1-.9,84.7,84.7,0,0,0-11.6.9C82.9,39,65.3,60.5,65.3,88.1c0,15.4,3.2,29.6,12.1,37.2s18.2,10.8,39.5,11.1Z" style="fill:#703c81;stroke:#1d132d;stroke-miterlimit:10;stroke-width:2px"/>
    <path d="M109.2,136.5c-7,6.6-11.8,18.9-11.8,29.9,0,16,10.1,19.5,22.6,19.5s22.6-3.4,22.6-19.5c0-11.1-4.9-23.5-12-30.1" style="fill:#703c81;stroke:#1d132d;stroke-miterlimit:10;stroke-width:2px"/>
    <path d="M130.9,136.7c-3.4.7-18,.5-21.3-.1h-.4c-7,6.6-11.8,18.9-11.8,29.9,0,16,10.1,19.5,22.6,19.5s22.6-3.4,22.6-19.5C142.6,155.5,137.8,143.3,130.9,136.7Z" style="fill:#703c81"/>
    <path d="M130.8,136.2c0,.2,5,7.1,5,7.4a15.7,15.7,0,1,1-31.4,0c0-.2,5.4-6.9,5.4-7.1" style="fill:#ff9a00"/>
    <path d="M97.8,162.5a45.3,45.3,0,0,0,14.7,8.6h.2a33.3,33.3,0,0,1-15-2.2" style="fill:#ff9a00"/>
    <path d="M142.2,162.5a45.3,45.3,0,0,1-14.7,8.6h-.2a33.3,33.3,0,0,0,15-2.2" style="fill:#ff9a00"/>
    <path d="M135.7,142.8q0,.4,0,.7a15.7,15.7,0,1,1-31.4,0q0-.4,0-.7" style="fill:none;stroke:#1d132d;stroke-linecap:round;stroke-linejoin:round;stroke-width:2px"/>
    <line x1="120" y1="159.3" x2="120" y2="185.6" style="fill:none;stroke:#1d132d;stroke-linecap:round;stroke-linejoin:round;stroke-width:2px"/>
    <path d="M97.8,162.5a45.3,45.3,0,0,0,14.7,8.6h.2a33.3,33.3,0,0,1-15-2.2" style="fill:none;stroke:#1d132d;stroke-linecap:round;stroke-linejoin:round;stroke-width:2px"/>
    <path d="M142.2,162.5a45.3,45.3,0,0,1-14.7,8.6h-.2a33.3,33.3,0,0,0,15-2.2" style="fill:none;stroke:#1d132d;stroke-linecap:round;stroke-linejoin:round;stroke-width:2px"/>
    <path d="M130.5,136.2c-3.1.3-6.1.6-9.4.6a111.1,111.1,0,0,1-12.3-.4L102,146a41,41,0,0,0,17.6,3.6,40.7,40.7,0,0,0,17.8-3.7C137.2,145.6,130.9,136.7,130.5,136.2Z" style="fill:#180621;opacity:0.15"/>
    <path d="M109.5,136.3l-.6.5c-6.9,6.7-11.5,18.8-11.5,29.6,0,16,10.1,19.5,22.6,19.5s22.6-3.4,22.6-19.5c0-11-4.8-23.3-11.8-29.9l-.2-.2" style="fill:none;stroke:#1d132d;stroke-linecap:round;stroke-linejoin:round;stroke-width:2px"/>
    <g style="opacity:0.30000000000000004">
      <path d="M108.7,44.1a84.7,84.7,0,0,1,11.6-.9,76.8,76.8,0,0,1,11.1.9c24.4,4.3,41.5,23.9,43.2,49.5q.1-2.7.1-5.5c0-27.7-17.6-49.2-43.4-53.7a76.8,76.8,0,0,0-11.1-.9,84.7,84.7,0,0,0-11.6.9C82.9,39,65.3,60.5,65.3,88.1q0,2.8.1,5.5C67.1,68,84.3,48.4,108.7,44.1Z" style="fill:#fff"/>
    </g>
    <path d="M125.4,136.4c19.6-.5,28.4-3.6,37.2-11.1s12.1-21.8,12.1-37.2c0-27.7-17.6-49.2-43.4-53.7a76.8,76.8,0,0,0-11.1-.9,84.7,84.7,0,0,0-11.6.9C82.9,39,65.3,60.5,65.3,88.1c0,15.4,3.2,29.6,12.1,37.2s18.2,10.8,39.5,11.1Z" style="fill:none;stroke:#1d132d;stroke-miterlimit:10;stroke-width:2px"/>
    <path d="M109.2,136.5c-7,6.6-11.8,18.9-11.8,29.9,0,16,10.1,19.5,22.6,19.5s22.6-3.4,22.6-19.5c0-11.1-4.9-23.5-12-30.1" style="fill:none;stroke:#1d132d;stroke-miterlimit:10;stroke-width:2px"/>
    <g style="opacity:0.30000000000000004">
      <path d="M108.7,44.1a84.7,84.7,0,0,1,11.6-.9,76.8,76.8,0,0,1,11.1.9c24.4,4.3,41.5,23.9,43.2,49.5q.1-2.7.1-5.5c0-27.7-17.6-49.2-43.4-53.7a76.8,76.8,0,0,0-11.1-.9,84.7,84.7,0,0,0-11.6.9C82.9,39,65.3,60.5,65.3,88.1q0,2.8.1,5.5C67.1,68,84.3,48.4,108.7,44.1Z" style="fill:#fff"/>
    </g>
    <path d="M125.4,136.4c19.6-.5,28.4-3.6,37.2-11.1s12.1-21.8,12.1-37.2c0-27.7-17.6-49.2-43.4-53.7a76.8,76.8,0,0,0-11.1-.9,84.7,84.7,0,0,0-11.6.9C82.9,39,65.3,60.5,65.3,88.1c0,15.4,3.2,29.6,12.1,37.2s18.2,10.8,39.5,11.1Z" style="fill:none;stroke:#1d132d;stroke-miterlimit:10;stroke-width:2px"/>
  </g>
  <g>
    <title>05</title>
    <path d="M120.2,136.6c26.6,0,36.1-4,44.2-10.3l1.7-1.4c11-10.7,8.2-26,8.2-26s-18.9,9.4-54.2,9.4-54.2-9.4-54.2-9.4-2.8,15.4,8.2,26l1.7,1.4c8.1,6.3,17.6,10.3,44.2,10.3" style="fill:#dce3ea"/>
    <path d="M148.4,133.9a18.5,18.5,0,0,1-18.5-18.5v-.2h-20v.3a18.5,18.5,0,0,1-18.5,18.5,167.7,167.7,0,0,0,28.4,3A167.4,167.4,0,0,0,148.4,133.9Z" style="fill:#2e4159"/>
    <path d="M166.1,119.1l-1.7,1.5c-8.1,6.3-17.6,9.4-44.2,9.4h-.4c-26.6,0-36.1-3.1-44.2-9.4L74,119.1a29.2,29.2,0,0,1-8.4-18.7c-.4,4.2-.5,15.9,8.4,24.6l1.7,1.5c8.1,6.3,17.6,9.4,44.2,9.4h.4c26.6,0,36.1-3.1,44.2-9.4l1.7-1.5c8.9-8.7,8.7-20.4,8.4-24.6A29.2,29.2,0,0,1,166.1,119.1Z" style="fill:#180621;opacity:0.15"/>
    <path d="M120.2,136.6c26.6,0,36.1-4,44.2-10.3l1.7-1.4c11-10.7,8.2-26,8.2-26s-18.9,9.4-54.2,9.4-54.2-9.4-54.2-9.4-2.8,15.4,8.2,26l1.7,1.4c8.1,6.3,17.6,10.3,44.2,10.3" style="fill:none;stroke:#1d132d;stroke-linecap:round;stroke-linejoin:round;stroke-width:2px"/>
    <path d="M148.4,133.9a18.5,18.5,0,0,1-18.5-18.5v-.2h-20v.3a18.5,18.5,0,0,1-18.5,18.5" style="fill:none;stroke:#1d132d;stroke-linecap:round;stroke-linejoin:round;stroke-width:2px"/>
  </g>
  <g>
    <title>atribute11-01</title>
    <polygon points="130.6 97.1 163.6 81.9 167.9 75.8 137.5 75.8 129.7 81.3 110.5 81.3 102.7 75.8 72.4 75.8 76.6 81.9 109.6 97.1 130.6 97.1" style="fill:#2e4159"/>
    <line x1="172.1" y1="75.8" x2="160.9" y2="75.8" style="fill:none;stroke:#1d132d;stroke-linecap:round;stroke-linejoin:round;stroke-width:2px"/>
    <polygon points="130.6 97.1 163.6 81.9 167.9 75.8 137.5 75.8 129.7 81.3 110.5 81.3 102.7 75.8 72.4 75.8 76.6 81.9 109.6 97.1 130.6 97.1" style="fill:none;stroke:#1d132d;stroke-linecap:round;stroke-linejoin:round;stroke-width:2px"/>
    <line x1="67.9" y1="75.8" x2="79.1" y2="75.8" style="fill:none;stroke:#1d132d;stroke-linecap:round;stroke-linejoin:round;stroke-width:2px"/>
    <path d="M112.9,82.4a7.3,7.3,0,1,0,14.4,0H112.9Z" style="fill:#e83a27"/>
  </g>
  <g/>
</svg>