<svg xmlns="http://www.w3.org/2000/svg" xmlns:xlink="http://www.w3.org/1999/xlink" viewBox="0 0 240 240">
  <ellipse cx="120.5" cy="233.4" rx="43.7" ry="4.9" style="fill:#180621;opacity:0.15"/>
  <g>
    <title>01</title>
    <rect x="114.3" y="185.8" width="11.4" height="11.83" style="fill:#dce3ea"/>
    <rect x="114.3" y="185.8" width="11.4" height="11.83" style="fill:#180621;opacity:0.15"/>
    <path d="M122.5,198.4l-5.2-.6-16.5,10.8c1.3,14.5,19.7,13.5,19.7,13.5,12.5,0,19.5-12,19.5-12Z" style="fill:#dce3ea"/>
    <path d="M132.8,206.1H105.8l-5.1,3.2c1.3,13.9,19.7,12.9,19.7,12.9,12.5,0,19.5-11.5,19.5-11.5Z" style="fill:#180621;opacity:0.15"/>
    <rect x="79" y="202.1" width="17.5" height="6.9" rx="3.2" ry="3.2" transform="translate(-63.1 40.6) rotate(-19.3)" style="fill:#dce3ea"/>
    <rect x="79" y="202.1" width="17.5" height="6.9" rx="3.2" ry="3.2" transform="translate(-63.1 40.6) rotate(-19.3)" style="fill:#180621;opacity:0.15"/>
    <rect x="68.9" y="202.6" width="16.2" height="6.37" rx="3.2" ry="3.2" transform="translate(104.5 -12.2) rotate(27.7)" style="fill:#dce3ea"/>
    <rect x="143.8" y="201.7" width="17.5" height="6.9" rx="3.2" ry="3.2" transform="translate(216.1 452.7) rotate(-157.8)" style="fill:#dce3ea"/>
    <rect x="143.8" y="201.7" width="17.5" height="6.9" rx="3.2" ry="3.2" transform="translate(216.1 452.7) rotate(-157.8)" style="fill:#180621;opacity:0.15"/>
    <rect x="155.2" y="202.8" width="16.2" height="6.37" rx="3.2" ry="3.2" transform="translate(397.8 324.5) rotate(155.2)" style="fill:#dce3ea"/>
    <path d="M27.9,224a69,69,0,0,0,48.9-22.5h.1s-1.4-3.1-7.4-7.4-9.9-5.2-9.9-5.2-3.6,3-13.5,13.3C32.9,215.9,27.9,224,27.9,224Z" style="fill:#2e4159"/>
    <path d="M87.8,233.9c17.1-7.6,22.3-22.6,28.8-38.7.3-.6-14-5.2-22.9-1-.3.1-2.7,6.3-4.6,11.2C82,223,87.8,233.9,87.8,233.9Z" style="fill:#2e4159"/>
    <path d="M212.1,224a69,69,0,0,1-48.9-22.5h-.1s1.4-3.1,7.4-7.4,9.9-5.2,9.9-5.2,3.6,3,13.5,13.3C207.1,215.9,212.1,224,212.1,224Z" style="fill:#2e4159"/>
    <path d="M152.2,233.9c-17.1-7.6-22.3-22.6-28.8-38.7-.3-.6,14-5.2,22.9-1,.3.1,2.7,6.3,4.6,11.2C158,223,152.2,233.9,152.2,233.9Z" style="fill:#2e4159"/>
    <ellipse cx="100.3" cy="206.2" rx="8.3" ry="7.2" transform="translate(-128.7 195.7) rotate(-61.4)" style="fill:#dce3ea"/>
    <path d="M185.3,194.2a8.9,8.9,0,1,0,12.6,12.7" style="fill:#dce3ea"/>
    <ellipse cx="140.1" cy="206.2" rx="7.2" ry="8.3" transform="translate(-81.5 92.1) rotate(-28.6)" style="fill:#dce3ea"/>
    <path d="M54.9,193a8.9,8.9,0,1,1-12.6,12.7" style="fill:#dce3ea"/>
    <path d="M57.3,201.4a8.9,8.9,0,0,0-2.4-8.4l-6.3,6.4a8.8,8.8,0,0,0,8.7,2Z" style="fill:#fff;opacity:0.5"/>
    <path d="M98,205.3c3.1,1.7,7,.5,9.4-2.5a6.7,6.7,0,0,0-3.2-4c-3.1-1.7-7-.5-9.4,2.5A6.7,6.7,0,0,0,98,205.3Z" style="fill:#fff;opacity:0.5"/>
    <path d="M183,202.4a8.9,8.9,0,0,1,2.4-8.4l6.3,6.4a8.8,8.8,0,0,1-8.7,2Z" style="fill:#fff;opacity:0.5"/>
    <path d="M141.8,205.3c-3.1,1.7-7,.5-9.4-2.5a6.7,6.7,0,0,1,3.2-4c3.1-1.7,7-.5,9.4,2.5A6.7,6.7,0,0,1,141.8,205.3Z" style="fill:#fff;opacity:0.5"/>
    <path d="M76.8,201.4l6.1,3.2a3.8,3.8,0,0,1,1.6,5.2h0a3.8,3.8,0,0,1-5.2,1.6l-8-4.2" style="fill:none;stroke:#1d132d;stroke-linecap:round;stroke-linejoin:round;stroke-width:2px"/>
    <path d="M86.8,210l-4.3,1.6a3.8,3.8,0,0,1-1.9.2" style="fill:none;stroke:#1d132d;stroke-linecap:round;stroke-linejoin:round;stroke-width:2px"/>
    <line x1="81.5" y1="203.7" x2="90.4" y2="200.4" style="fill:none;stroke:#1d132d;stroke-linecap:round;stroke-linejoin:round;stroke-width:2px"/>
    <path d="M27.9,224a69,69,0,0,0,48.9-22.5h.1s-1.4-3.1-7.4-7.4-9.9-5.2-9.9-5.2-3.6,3-13.5,13.3C32.9,215.9,27.9,224,27.9,224Z" style="fill:none;stroke:#1d132d;stroke-linecap:round;stroke-linejoin:round;stroke-width:2px"/>
    <path d="M87.6,233.9c17.1-7.6,22.3-22.6,28.8-38.7.3-.6-14-5.2-22.9-1-.3.1-2.7,6.3-4.6,11.2C81.8,223,87.6,233.9,87.6,233.9Z" style="fill:none;stroke:#1d132d;stroke-linecap:round;stroke-linejoin:round;stroke-width:2px"/>
    <path d="M54.4,193.9A8.9,8.9,0,1,1,42,206.8" style="fill:none;stroke:#1d132d;stroke-linecap:round;stroke-linejoin:round;stroke-width:2px"/>
    <ellipse cx="99.9" cy="206.2" rx="8.3" ry="7.2" transform="translate(-128.9 195.3) rotate(-61.4)" style="fill:none;stroke:#1d132d;stroke-linecap:round;stroke-linejoin:round;stroke-width:2px"/>
    <path d="M163,201.5l-5.9,3.1a3.8,3.8,0,0,0-1.6,5.2h0a3.8,3.8,0,0,0,5.2,1.6l7.9-4.2" style="fill:none;stroke:#1d132d;stroke-linecap:round;stroke-linejoin:round;stroke-width:2px"/>
    <path d="M153.1,209.9l4.3,1.6a3.8,3.8,0,0,0,1.9.2" style="fill:none;stroke:#1d132d;stroke-linecap:round;stroke-linejoin:round;stroke-width:2px"/>
    <line x1="158.5" y1="203.7" x2="149.1" y2="200.2" style="fill:none;stroke:#1d132d;stroke-linecap:round;stroke-linejoin:round;stroke-width:2px"/>
    <path d="M212.1,224a69,69,0,0,1-48.9-22.5h-.1s1.4-3.1,7.4-7.4,9.9-5.2,9.9-5.2,3.6,3,13.5,13.3C207.1,215.9,212.1,224,212.1,224Z" style="fill:none;stroke:#1d132d;stroke-linecap:round;stroke-linejoin:round;stroke-width:2px"/>
    <path d="M152.4,233.9c-17.1-7.6-22.3-22.6-28.8-38.7-.3-.6,14-5.2,22.9-1,.3.1,2.7,6.3,4.6,11.2C158.2,223,152.4,233.9,152.4,233.9Z" style="fill:none;stroke:#1d132d;stroke-linecap:round;stroke-linejoin:round;stroke-width:2px"/>
    <path d="M185.3,194.2a8.9,8.9,0,1,0,12.6,12.7" style="fill:none;stroke:#1d132d;stroke-linecap:round;stroke-linejoin:round;stroke-width:2px"/>
    <ellipse cx="140" cy="206.2" rx="7.2" ry="8.3" transform="translate(-81.5 92.1) rotate(-28.6)" style="fill:none;stroke:#1d132d;stroke-linecap:round;stroke-linejoin:round;stroke-width:2px"/>
    <line x1="115.8" y1="197.8" x2="124.4" y2="197.8" style="fill:none;stroke:#1d132d;stroke-linecap:round;stroke-linejoin:round;stroke-width:2px"/>
    <polyline points="113.9 193.4 113.9 184.3 126.2 184.3 126.2 193.2" style="fill:none;stroke:#1d132d;stroke-linecap:round;stroke-linejoin:round;stroke-width:2px"/>
    <path d="M134.1,219a32.5,32.5,0,0,1-28.3,0" style="fill:none;stroke:#1d132d;stroke-linecap:round;stroke-linejoin:round;stroke-width:2px"/>
    <line x1="112" y1="206.2" x2="127.9" y2="206.1" style="fill:none;stroke:#1d132d;stroke-linecap:round;stroke-linejoin:round;stroke-width:2px"/>
    <circle cx="159" cy="207.9" r="1.2" style="fill:#1d132d"/>
    <circle cx="81" cy="207.9" r="1.2" style="fill:#1d132d"/>
  </g>
  <g>
    <title>02</title>
    <path d="M74.3,169.3c-5.7-2.6-9.8-6.4-10.6-9.4a32.3,32.3,0,0,0-3,5.1h0c-1.4,3.1,3.3,8.3,10.5,11.7s14.3,3.6,15.7.5h0a32.6,32.6,0,0,0,2.1-6.2C86.5,172.7,80.5,172.1,74.3,169.3Z" style="fill:#dce3ea"/>
    <ellipse cx="81.7" cy="154" rx="3.5" ry="8.3" transform="translate(-92.4 163) rotate(-65)" style="fill:#dce3ea"/>
    <path d="M165.8,169.5c5.7-2.6,9.8-6.4,10.6-9.4a32.3,32.3,0,0,1,3,5.1h0c1.4,3.1-3.3,8.3-10.5,11.7s-14.3,3.6-15.7.5h0a32.6,32.6,0,0,1-2.1-6.2C153.7,173,159.7,172.4,165.8,169.5Z" style="fill:#dce3ea"/>
    <ellipse cx="158.4" cy="154.3" rx="8.3" ry="3.5" transform="translate(-50.4 81.4) rotate(-25)" style="fill:#dce3ea"/>
    <g style="opacity:0.15">
      <path d="M74.3,169.3c-5.7-2.6-9.8-6.4-10.6-9.4a32.3,32.3,0,0,0-3,5.1h0c-1.4,3.1,3.3,8.3,10.5,11.7s14.3,3.6,15.7.5h0a32.6,32.6,0,0,0,2.1-6.2C86.5,172.7,80.5,172.1,74.3,169.3Z" style="fill:#180621"/>
      <ellipse cx="81.7" cy="154" rx="3.5" ry="8.3" transform="translate(-92.4 163) rotate(-65)" style="fill:#180621"/>
      <path d="M165.8,169.5c5.7-2.6,9.8-6.4,10.6-9.4a32.3,32.3,0,0,1,3,5.1h0c1.4,3.1-3.3,8.3-10.5,11.7s-14.3,3.6-15.7.5h0a32.6,32.6,0,0,1-2.1-6.2C153.7,173,159.7,172.4,165.8,169.5Z" style="fill:#180621"/>
      <ellipse cx="158.4" cy="154.3" rx="8.3" ry="3.5" transform="translate(-50.4 81.4) rotate(-25)" style="fill:#180621"/>
    </g>
    <path d="M74.3,152.5a7.1,7.1,0,0,1-1.1-1.7A35.3,35.3,0,0,0,62.3,162a34.1,34.1,0,0,0,26.4,10.2,34.9,34.9,0,0,0,1-13.8C84,159.7,78.1,157,74.3,152.5Z" style="fill:#dce3ea"/>
    <path d="M88.7,172.2a33.4,33.4,0,0,0,.7-15.8l-.3-.2a15.6,15.6,0,0,1-14,9.5,14.6,14.6,0,0,1-11.5-5.6L62.3,162C69.4,169,78.8,173,88.7,172.2Z" style="fill:#180621;opacity:0.15"/>
    <path d="M100.2,155.3a11,11,0,0,1,8.1-18.3h1.8" style="fill:#2e4159"/>
    <path d="M75.7,178.9c-1.2,2.5-5.6,6.8-8.1,5.6s-2.1-7.2-1-9.8" style="fill:#2e4159"/>
    <path d="M63.1,172.4c-2.7.7-8.8.5-9.3-1.6s4.3-5.1,6.6-5.9" style="fill:#2e4159"/>
    <path d="M79.6,180.1c1.2,2.5,5.3,7,7.2,6.1s1.2-6.6.2-8.8" style="fill:#2e4159"/>
    <path d="M164.7,179c1.2,2.5,5.6,6.8,8.1,5.6s2.1-7.2,1-9.8" style="fill:#2e4159"/>
    <path d="M177.2,172.5c2.7.7,8.8.5,9.3-1.6s-4.3-5.1-6.6-5.9" style="fill:#2e4159"/>
    <path d="M160.7,180.1c-1.2,2.5-5.3,7-7.2,6.1s-1.2-6.6-.2-8.8" style="fill:#2e4159"/>
    <path d="M160.6,171.9l2.5-.8,4.4-2.1a24.1,24.1,0,0,0,9.3-8.2,35,35,0,0,0-10.2-10.2c-3.1,5.7-10,8.9-16.2,6.7a33.9,33.9,0,0,0,.9,14.7C154.7,173.1,157.6,172.4,160.6,171.9Z" style="fill:#dce3ea"/>
    <path d="M160.6,171.9l2.5-.8,4.4-2.1a24.1,24.1,0,0,0,9.3-8.2l-.4-.7a14.6,14.6,0,0,1-11.5,5.6,15.7,15.7,0,0,1-13.3-8l-1.3-.4a33.9,33.9,0,0,0,.9,14.7C154.7,173.2,156.2,172.8,160.6,171.9Z" style="fill:#180621;opacity:0.15"/>
    <path d="M139.8,155.3a11,11,0,0,0-8.1-18.3h-1.8" style="fill:#2e4159"/>
    <path d="M86.4,177.3c-1.4,3.1-8.5,2.8-15.7-.5s-11.9-8.6-10.5-11.7h0" style="fill:none;stroke:#1d132d;stroke-linecap:round;stroke-linejoin:round;stroke-width:2px"/>
    <path d="M88.5,171.1c-2.3,2-8.3,1.5-14.5-1.4s-10.3-7-10.4-10" style="fill:none;stroke:#1d132d;stroke-linecap:round;stroke-linejoin:round;stroke-width:2px"/>
    <ellipse cx="81.3" cy="154" rx="3.5" ry="8.3" transform="translate(-92.7 162.6) rotate(-65)" style="fill:none;stroke:#1d132d;stroke-linecap:round;stroke-linejoin:round;stroke-width:2px"/>
    <path d="M60.3,165c2.9-6.1,8.6-12.4,14.3-15.2" style="fill:none;stroke:#1d132d;stroke-linecap:round;stroke-linejoin:round;stroke-width:2px"/>
    <path d="M86.5,177.2c2.9-6.1,3.9-14.6,2.5-20.8" style="fill:none;stroke:#1d132d;stroke-linecap:round;stroke-linejoin:round;stroke-width:2px"/>
    <path d="M75.2,178.9c-1.2,2.5-5.6,6.8-8.1,5.6s-2.1-7.2-1-9.8" style="fill:none;stroke:#1d132d;stroke-linecap:round;stroke-linejoin:round;stroke-width:2px"/>
    <path d="M62.7,172.4c-2.7.7-8.8.5-9.3-1.6s4.3-5.1,6.6-5.9" style="fill:none;stroke:#1d132d;stroke-linecap:round;stroke-linejoin:round;stroke-width:2px"/>
    <path d="M79.2,180.1c1.2,2.5,5.3,7,7.2,6.1s1.2-6.6.2-8.8" style="fill:none;stroke:#1d132d;stroke-linecap:round;stroke-linejoin:round;stroke-width:2px"/>
    <line x1="67.6" y1="166.8" x2="65" y2="172.6" style="fill:none;stroke:#1d132d;stroke-linecap:round;stroke-linejoin:round;stroke-width:2px"/>
    <line x1="80" y1="172.6" x2="77.3" y2="178.3" style="fill:none;stroke:#1d132d;stroke-linecap:round;stroke-linejoin:round;stroke-width:2px"/>
    <path d="M100.2,155.3a11,11,0,0,1,8.1-18.3h1.8" style="fill:none;stroke:#1d132d;stroke-linecap:round;stroke-linejoin:round;stroke-width:2px"/>
    <path d="M153.6,177.3c1.4,3.1,8.5,2.8,15.7-.5s11.9-8.6,10.5-11.7h0" style="fill:none;stroke:#1d132d;stroke-linecap:round;stroke-linejoin:round;stroke-width:2px"/>
    <path d="M151.5,171.1c2.3,2,8.3,1.5,14.5-1.4s10.3-7,10.4-10" style="fill:none;stroke:#1d132d;stroke-linecap:round;stroke-linejoin:round;stroke-width:2px"/>
    <ellipse cx="158.7" cy="154" rx="8.3" ry="3.5" transform="translate(-50.2 81.5) rotate(-25)" style="fill:none;stroke:#1d132d;stroke-linecap:round;stroke-linejoin:round;stroke-width:2px"/>
    <path d="M179.7,165c-2.9-6.1-8.6-12.4-14.3-15.2" style="fill:none;stroke:#1d132d;stroke-linecap:round;stroke-linejoin:round;stroke-width:2px"/>
    <path d="M153.5,177.2c-2.9-6.1-3.9-14.6-2.5-20.8" style="fill:none;stroke:#1d132d;stroke-linecap:round;stroke-linejoin:round;stroke-width:2px"/>
    <path d="M164.7,178.9c1.2,2.5,5.6,6.8,8.1,5.6s2.1-7.2,1-9.8" style="fill:none;stroke:#1d132d;stroke-linecap:round;stroke-linejoin:round;stroke-width:2px"/>
    <path d="M177.3,172.4c2.7.7,8.8.5,9.3-1.6s-4.3-5.1-6.6-5.9" style="fill:none;stroke:#1d132d;stroke-linecap:round;stroke-linejoin:round;stroke-width:2px"/>
    <path d="M160.8,180.1c-1.2,2.5-5.3,7-7.2,6.1s-1.2-6.6-.2-8.8" style="fill:none;stroke:#1d132d;stroke-linecap:round;stroke-linejoin:round;stroke-width:2px"/>
    <line x1="172.3" y1="166.8" x2="175" y2="172.6" style="fill:none;stroke:#1d132d;stroke-linecap:round;stroke-linejoin:round;stroke-width:2px"/>
    <line x1="160" y1="172.6" x2="162.6" y2="178.3" style="fill:none;stroke:#1d132d;stroke-linecap:round;stroke-linejoin:round;stroke-width:2px"/>
    <path d="M139.8,155.3a11,11,0,0,0-8.1-18.3h-1.8" style="fill:none;stroke:#1d132d;stroke-linecap:round;stroke-linejoin:round;stroke-width:2px"/>
  </g>
  <g>
    <title>02</title>
    <path d="M66.3,79.8C62.2,67,42.2,62.8,42.2,62.8c3.1,6.6,3.9,12.4,4.7,17.7s2,20.5,19.1,22.6" style="fill:#2e4159"/>
    <path d="M49.2,65.4a1.7,1.7,0,0,1,.7.5,1.9,1.9,0,0,1,.3.8C50.7,69,53,76,53.1,77.4a26.8,26.8,0,0,0,3.1,11.8,14.5,14.5,0,0,0,9.4,7.3,16.7,16.7,0,0,0-.1,6.6,29.1,29.1,0,0,1-6.9-2.1,29,29,0,0,1-4-2.6c-1-.7-6-2.4-8.7-22.1-.5-3.3-1.6-6.4-2.3-9.6-.3-1.2-1.1-3.3.9-2.9A32.3,32.3,0,0,1,49.2,65.4Z" style="fill:#dce3ea"/>
    <path d="M66.3,79.8C62.2,67,42.2,62.8,42.2,62.8c3.1,6.6,3.9,12.4,4.7,17.7s2,20.5,19.1,22.6" style="fill:none;stroke:#1d132d;stroke-linecap:round;stroke-linejoin:round;stroke-width:2px"/>
    <path d="M50,65.6a60.8,60.8,0,0,1,2.5,11.8c.7,5.2,1.6,15.8,12.6,19.4" style="fill:none;stroke:#1d132d;stroke-linecap:round;stroke-linejoin:round;stroke-width:2px"/>
    <line x1="59.9" y1="94.5" x2="57.2" y2="99.1" style="fill:none;stroke:#1d132d;stroke-linecap:round;stroke-linejoin:round;stroke-width:2px"/>
    <line x1="55.3" y1="90.2" x2="50.7" y2="92.9" style="fill:none;stroke:#1d132d;stroke-linecap:round;stroke-linejoin:round;stroke-width:2px"/>
    <path d="M173.6,79.8c4.1-12.7,24.1-16.9,24.1-16.9-3.1,6.6-3.9,12.4-4.7,17.7s-2,20.5-19.1,22.6" style="fill:#2e4159"/>
    <path d="M190.7,65.4a1.7,1.7,0,0,0-.7.5,1.9,1.9,0,0,0-.3.8c-.5,2.3-2.8,9.3-2.9,10.7a26.8,26.8,0,0,1-3.1,11.8,14.5,14.5,0,0,1-9.4,7.3,16.7,16.7,0,0,1,.1,6.6,29.1,29.1,0,0,0,6.9-2.1,29,29,0,0,0,4-2.6c1-.7,6-2.4,8.7-22.1.5-3.3,1.6-6.4,2.3-9.6.3-1.2,1.1-3.3-.9-2.9A32.3,32.3,0,0,0,190.7,65.4Z" style="fill:#dce3ea"/>
    <path d="M173.6,79.8c4.1-12.7,24.1-16.9,24.1-16.9-3.1,6.6-3.9,12.4-4.7,17.7s-2,20.5-19.1,22.6" style="fill:none;stroke:#1d132d;stroke-linecap:round;stroke-linejoin:round;stroke-width:2px"/>
    <path d="M189.9,65.6a60.8,60.8,0,0,0-2.5,11.8c-.7,5.2-1.6,15.8-12.6,19.4" style="fill:none;stroke:#1d132d;stroke-linecap:round;stroke-linejoin:round;stroke-width:2px"/>
    <line x1="180" y1="94.5" x2="182.7" y2="99.1" style="fill:none;stroke:#1d132d;stroke-linecap:round;stroke-linejoin:round;stroke-width:2px"/>
    <line x1="184.6" y1="90.2" x2="189.2" y2="92.9" style="fill:none;stroke:#1d132d;stroke-linecap:round;stroke-linejoin:round;stroke-width:2px"/>
  </g>
  <g>
    <title>atribute14</title>
    <path d="M131.3,34.3a76.8,76.8,0,0,0-11.1-.9,84.7,84.7,0,0,0-11.6.9C82.9,38.8,65.3,60.4,65.3,88c0,15.4,3.2,29.6,12.1,37.2s18.2,10.8,39.5,11.1h-7.7c-7,6.6-11.8,18.9-11.8,29.9,0,16,10.1,19.5,22.6,19.5s22.6-3.4,22.6-19.5c0-11.1-4.9-23.5-12-30.1h-5.2c19.6-.5,28.4-3.6,37.2-11.1s12.1-21.8,12.1-37.2C174.7,60.4,157.1,38.8,131.3,34.3Z" style="fill:#5858f4"/>
    <path d="M111.2,185a36.3,36.3,0,0,0,5.7.7" style="fill:none;stroke:#1d132d;stroke-linecap:round;stroke-linejoin:round;stroke-width:2px"/>
    <path d="M108.9,136.7a30.2,30.2,0,0,0-3.8,4.5" style="fill:none;stroke:#1d132d;stroke-miterlimit:10;stroke-width:2px"/>
    <path d="M129,185a36.3,36.3,0,0,1-5.7.7" style="fill:none;stroke:#1d132d;stroke-linecap:round;stroke-linejoin:round;stroke-width:2px"/>
    <path d="M131.3,136.7a30.2,30.2,0,0,1,3.8,4.5" style="fill:none;stroke:#1d132d;stroke-miterlimit:10;stroke-width:2px"/>
    <path d="M135.8,144L119.6,153l-15.8-8.7a38.6,38.6,0,0,0-5.8,25,23.3,23.3,0,0,0,2.4,8.4c0.7,1.3,4.7,7.1,6.5,5.4s0.3-4.9.4-6,0.5-4.3.8-6.5l3.6,2.1,0.9-11.8A43.6,43.6,0,0,0,119,164v-0.3c2.2-.9,6-1.8,8.1-3.1l0.9,11.8,3.6-2.1q0.5,3.2.8,6.5c0.1,1.1-.2,5.3.4,6s6.4-3.7,7.1-5a22.2,22.2,0,0,0,2.1-8.2A40.1,40.1,0,0,0,135.8,144Z" style="fill:#dce3ea"/>
    <path d="M130.5,136.1c-3.1.3-6.1,0.6-9.4,0.6a111.1,111.1,0,0,1-12.3-.4l-6.8,9.6a41,41,0,0,0,17.6,3.6,40.7,40.7,0,0,0,17.8-3.7C137.2,145.4,130.9,136.5,130.5,136.1Z" style="fill:#180621;opacity:0.15"/>
    <polyline points="136.6 144.7 119.4 152.7 103.3 145.2" style="fill:none;stroke:#1d132d;stroke-miterlimit:10;stroke-width:2px"/>
    <polyline points="139.9 154 119.3 163.7 100 154.7" style="fill:none;stroke:#1d132d;stroke-miterlimit:10;stroke-width:2px"/>
    <polyline points="112.1 160.6 111.9 172.1 97.4 165.4" style="fill:none;stroke:#1d132d;stroke-miterlimit:10;stroke-width:2px"/>
    <line x1="107.2" y1="170.2" x2="107.2" y2="184.5" style="fill:none;stroke:#1d132d;stroke-miterlimit:10;stroke-width:2px"/>
    <polyline points="127.6 160.4 127.8 171.9 142.3 165.1" style="fill:none;stroke:#1d132d;stroke-miterlimit:10;stroke-width:2px"/>
    <line x1="132.4" y1="170" x2="132.4" y2="184.2" style="fill:none;stroke:#1d132d;stroke-miterlimit:10;stroke-width:2px"/>
    <g style="opacity:0.30000000000000004">
      <path d="M108.7,44.1a84.7,84.7,0,0,1,11.6-.9,76.8,76.8,0,0,1,11.1.9c24.4,4.3,41.5,23.9,43.2,49.5q0.1-2.7.1-5.5c0-27.7-17.6-49.2-43.4-53.7a76.8,76.8,0,0,0-11.1-.9,84.7,84.7,0,0,0-11.6.9C82.9,39,65.3,60.5,65.3,88.1q0,2.8.1,5.5C67.1,68,84.3,48.4,108.7,44.1Z" style="fill:#fff"/>
    </g>
    <path d="M125.4,136.4c19.6-.5,28.4-3.6,37.2-11.1s12.1-21.8,12.1-37.2c0-27.7-17.6-49.2-43.4-53.7a76.8,76.8,0,0,0-11.1-.9,84.7,84.7,0,0,0-11.6.9C82.9,39,65.3,60.5,65.3,88.1c0,15.4,3.2,29.6,12.1,37.2s18.2,10.8,39.5,11.1h8.5Z" style="fill:none;stroke:#1d132d;stroke-miterlimit:10;stroke-width:2px"/>
    <path d="M109.2,136.5c-7,6.6-11.8,18.9-11.8,29.9,0,16,10.1,19.5,22.6,19.5s22.6-3.4,22.6-19.5c0-11.1-4.9-23.5-12-30.1" style="fill:none;stroke:#1d132d;stroke-miterlimit:10;stroke-width:2px"/>
    <g style="opacity:0.30000000000000004">
      <path d="M108.7,44.1a84.7,84.7,0,0,1,11.6-.9,76.8,76.8,0,0,1,11.1.9c24.4,4.3,41.5,23.9,43.2,49.5q0.1-2.7.1-5.5c0-27.7-17.6-49.2-43.4-53.7a76.8,76.8,0,0,0-11.1-.9,84.7,84.7,0,0,0-11.6.9C82.9,39,65.3,60.5,65.3,88.1q0,2.8.1,5.5C67.1,68,84.3,48.4,108.7,44.1Z" style="fill:#fff"/>
    </g>
    <path d="M125.4,136.4c19.6-.5,28.4-3.6,37.2-11.1s12.1-21.8,12.1-37.2c0-27.7-17.6-49.2-43.4-53.7a76.8,76.8,0,0,0-11.1-.9,84.7,84.7,0,0,0-11.6.9C82.9,39,65.3,60.5,65.3,88.1c0,15.4,3.2,29.6,12.1,37.2s18.2,10.8,39.5,11.1h8.5Z" style="fill:none;stroke:#1d132d;stroke-miterlimit:10;stroke-width:2px"/>
  </g>
  <g>
    <title>01</title>
    <path d="M106.1,135.8V115.4h.1a22,22,0,0,1,14.1-5.1s.8,19.5.8,26.5" style="fill:#dce3ea"/>
    <path d="M106.6,121.3l-.2-2c-.7-1.6-.8-3.1-.2-4.1H106a135.3,135.3,0,0,1-21.5-2.7c-6.9-1.5-14.1-5-17.9-11.2h-.4c1.5,10,4.9,18.6,11.2,23.9s14.9,9.6,29,10.7C106.4,130.9,106.5,126.1,106.6,121.3Z" style="fill:#2e4159"/>
    <path d="M133.7,136.1V115.7h-.1a22,22,0,0,0-14.1-5.1s-.8,19.5-.8,26.5" style="fill:#dce3ea"/>
    <path d="M133.2,121.6l.2-2c.7-1.6.8-3.1.2-4.1h.2a135.3,135.3,0,0,0,21.5-2.7c6.9-1.5,14.1-5,17.9-11.2h.4c-1.5,10-4.9,18.6-11.2,23.9s-14.9,9.6-29,10.7C133.4,131.2,133.3,126.4,133.2,121.6Z" style="fill:#2e4159"/>
    <circle cx="93.1" cy="123" r="2.5" style="fill:#1d132d"/>
    <circle cx="84.9" cy="120.5" r="2.5" style="fill:#1d132d"/>
    <path d="M66.2,101.4c6.9,8,17.3,13.1,40,14.1" style="fill:none;stroke:#1d132d;stroke-linecap:round;stroke-linejoin:round;stroke-width:2px"/>
    <path d="M66.2,101.4c1.5,10,4.9,18.6,11.2,23.9,9.1,7.8,18.2,10.8,39.5,11.1H120" style="fill:none;stroke:#1d132d;stroke-miterlimit:10;stroke-width:2px"/>
    <path d="M106.1,135.8V115.4h.1a22,22,0,0,1,14.1-5.1" style="fill:none;stroke:#1d132d;stroke-linecap:round;stroke-linejoin:round;stroke-width:2px"/>
    <circle cx="146.7" cy="123" r="2.5" style="fill:#1d132d"/>
    <circle cx="154.9" cy="120.5" r="2.5" style="fill:#1d132d"/>
    <path d="M173.5,101.4c-6.9,8-17.3,13.1-40,14.1" style="fill:none;stroke:#1d132d;stroke-linecap:round;stroke-linejoin:round;stroke-width:2px"/>
    <path d="M173.5,101.4c-1.5,10-4.9,18.6-11.2,23.9-9.1,7.8-18.2,10.8-39.5,11.1h-3.1" style="fill:none;stroke:#1d132d;stroke-miterlimit:10;stroke-width:2px"/>
    <path d="M133.7,135.8V115.4h-.1a22,22,0,0,0-14.1-5.1" style="fill:none;stroke:#1d132d;stroke-linecap:round;stroke-linejoin:round;stroke-width:2px"/>
    <line x1="113.6" y1="136" x2="113.6" y2="123" style="fill:none;stroke:#1d132d;stroke-linecap:round;stroke-linejoin:round;stroke-width:2px"/>
    <line x1="120" y1="136" x2="120" y2="120.5" style="fill:none;stroke:#1d132d;stroke-linecap:round;stroke-linejoin:round;stroke-width:2px"/>
    <line x1="126.6" y1="136" x2="126.6" y2="123" style="fill:none;stroke:#1d132d;stroke-linecap:round;stroke-linejoin:round;stroke-width:2px"/>
  </g>
  <g>
    <title>04</title>
    <circle cx="147.9" cy="86.7" r="13.7" style="fill:#ff81a2"/>
    <path d="M148.6,72.6c-7.5,0-13.1,4.6-14.4,11.9a26.2,26.2,0,0,0,.2,6.4,17.4,17.4,0,0,1,1.8-3.9,19.6,19.6,0,0,1,4.9-5.4h0l1.5-1h0l1.6-.9h0l1.7-.7h0l1.7-.6a17.5,17.5,0,0,1,4.6-.6,18,18,0,0,1,7.7,1.7C157.4,75.4,153,72.6,148.6,72.6Z" style="fill:#180621;opacity:0.15"/>
    <path d="M147.5,72.2c8,.4,13.9,7.1,14.3,15a13.9,13.9,0,0,1-4.4,10.5c9.2-7.4,11-25,11-25S156.9,70.2,147.5,72.2Z" style="fill:#1d132d"/>
    <circle cx="147.9" cy="86.7" r="13.7" style="fill:none;stroke:#1d132d;stroke-linecap:round;stroke-linejoin:round;stroke-width:2px"/>
    <path d="M143,73.8c9.5-4.2,25.1-1,25.1-1s-2.9,27.7-19.5,27.7" style="fill:none;stroke:#1d132d;stroke-linecap:round;stroke-linejoin:round;stroke-width:2px"/>
    <circle cx="92.1" cy="86.7" r="13.7" style="fill:#ff81a2"/>
    <path d="M91.4,72.6c7.5,0,13.1,4.6,14.4,11.9a26.2,26.2,0,0,1-.2,6.4,17.4,17.4,0,0,0-1.8-3.9,19.6,19.6,0,0,0-4.9-5.4h0l-1.5-1h0l-1.6-.9h0L94,79h0l-1.7-.6a17.5,17.5,0,0,0-4.6-.6A18,18,0,0,0,80,79.5C82.5,75.4,86.9,72.6,91.4,72.6Z" style="fill:#180621;opacity:0.15"/>
    <path d="M92.4,72.2c-8,.4-13.9,7.1-14.3,15a13.9,13.9,0,0,0,4.4,10.5c-9.2-7.4-11-25-11-25S83.1,70.2,92.4,72.2Z" style="fill:#1d132d"/>
    <circle cx="92.1" cy="86.7" r="13.7" style="fill:none;stroke:#1d132d;stroke-linecap:round;stroke-linejoin:round;stroke-width:2px"/>
    <path d="M96.9,73.8c-9.5-4.2-25.1-1-25.1-1s2.9,27.7,19.5,27.7" style="fill:none;stroke:#1d132d;stroke-linecap:round;stroke-linejoin:round;stroke-width:2px"/>
  </g>
  <g>
    <title>05</title>
    <circle cx="120" cy="12.4" r="5.5" style="fill:#dce3ea"/>
    <circle cx="120" cy="12.4" r="5.5" style="fill:#dce3ea"/>
    <g style="opacity:0.5">
      <path d="M121.2,12.3a5.5,5.5,0,0,0,3.6-2.6,5.5,5.5,0,0,0-9.5,0A5.5,5.5,0,0,0,121.2,12.3Z" style="fill:#fff"/>
    </g>
    <path d="M126.4,33.7a6.5,6.5,0,0,0-11.8-1l-.4,1" style="fill:#2e4159"/>
    <path d="M126.4,33.7a6.5,6.5,0,0,0-11.8-1l-.4,1Z" style="fill:none;stroke:#1d132d;stroke-linecap:round;stroke-linejoin:round;stroke-width:2px"/>
    <circle cx="120" cy="12.4" r="5.5" style="fill:none;stroke:#1d132d;stroke-linecap:round;stroke-linejoin:round;stroke-width:2px"/>
    <line x1="120.1" y1="17.9" x2="120.1" y2="28.9" style="fill:none;stroke:#1d132d;stroke-linecap:round;stroke-linejoin:round;stroke-width:2px"/>
  </g>
</svg>