<svg xmlns="http://www.w3.org/2000/svg" xmlns:xlink="http://www.w3.org/1999/xlink" viewBox="0 0 240 240">
  <ellipse cx="120.5" cy="233.4" rx="43.7" ry="4.9" style="fill:#180621;opacity:0.15"/>
  <g>
    <title>03</title>
    <path d="M129.9,192.6c3.9,1.1,6.4,2.9,6.4,4.8s-7.3,6.1-16.3,6.1-16.3-2.7-16.3-6.1,2.5-3.7,6.5-4.8" style="fill:#36c8e3"/>
    <ellipse cx="120" cy="229.8" rx="4.1" ry="2.6" style="fill:#36c8e3"/>
    <ellipse cx="120" cy="221.2" rx="7.2" ry="3.2" style="fill:#36c8e3"/>
    <path d="M118.9,206.3H120c6.2,0,11.3,2,11.3,4.5s-5.1,4.5-11.3,4.5-11.3-2-11.3-4.5,4.5-4.3,10.2-4.5" style="fill:#36c8e3"/>
    <path d="M125.8,192.5c2.3.7,3.7,1.7,3.7,2.8s-4.3,3.6-9.6,3.6-9.6-1.6-9.6-3.6,1.5-2.2,3.8-2.8" style="fill:#180621;opacity:0.25"/>
    <path d="M124.5,206.2c1.8.5,2.9,1.4,2.9,2.3s-3.3,2.9-7.4,2.9-7.4-1.3-7.4-2.9,1.1-1.8,2.9-2.3" style="fill:#180621;opacity:0.25"/>
    <path d="M122.9,217.8c1.1.4,1.8.9,1.8,1.5s-2.1,1.9-4.7,1.9-4.7-.9-4.7-1.9.7-1.2,1.9-1.5" style="fill:#180621;opacity:0.25"/>
    <path d="M121.3,227.1a1.3,1.3,0,0,1,.8,1.1c0,.7-1,1.3-2.2,1.3s-2.2-.6-2.2-1.3a1.3,1.3,0,0,1,.9-1.1" style="fill:#180621;opacity:0.25"/>
    <path d="M137.2,180.3H102.8v7.4c0,3.2,7.7,5.8,17.2,5.8s17.2-2.6,17.2-5.8Z" style="fill:#2e4159"/>
    <path d="M129.9,192.6c3.9,1.1,6.4,2.9,6.4,4.8s-7.3,6.1-16.3,6.1-16.3-2.7-16.3-6.1,2.5-3.7,6.5-4.8" style="fill:none;stroke:#1d132d;stroke-linecap:round;stroke-linejoin:round;stroke-width:2px"/>
    <path d="M118.9,206.3H120c6.2,0,11.3,2,11.3,4.5s-5.1,4.5-11.3,4.5-11.3-2-11.3-4.5,4.5-4.3,10.2-4.5" style="fill:none;stroke:#1d132d;stroke-linecap:round;stroke-linejoin:round;stroke-width:2px"/>
    <ellipse cx="120" cy="221.2" rx="7.2" ry="3.2" style="fill:none;stroke:#1d132d;stroke-linecap:round;stroke-linejoin:round;stroke-width:2px"/>
    <ellipse cx="120" cy="229.8" rx="4.1" ry="2.6" style="fill:none;stroke:#1d132d;stroke-linecap:round;stroke-linejoin:round;stroke-width:2px"/>
    <path d="M137.2,180.3H102.8v7.4c0,3.2,7.7,5.8,17.2,5.8s17.2-2.6,17.2-5.8Z" style="fill:none;stroke:#1d132d;stroke-miterlimit:10;stroke-width:2px"/>
  </g>
  <g>
    <title>05</title>
    <path d="M162.8,187.8l23.1-9.5.2-.4a13.2,13.2,0,0,0-.8-8.2c-2.7-6.3-9.6-9.5-15.4-7l-9,3.7Z" style="fill:#dce3ea"/>
    <g style="opacity:0.15">
      <path d="M171.4,178.2c-.5-1.1-.8-3.5-1.8-4.3a4.8,4.8,0,0,0-5.4-.3c-4.2,3.1-.2,8.3.6,12.1a2.8,2.8,0,0,1,0,1.3l11.1-4.5A7.8,7.8,0,0,1,171.4,178.2Z" style="fill:#180621"/>
    </g>
    <path d="M170,162.8l-7.3,2.9c5.8-2.3,12.5.9,15.1,7.2a13.2,13.2,0,0,1,.7,8.3l-.2.4,7.4-2.9.2-.4a13.2,13.2,0,0,0-.7-8.3C182.6,163.5,175.8,160.3,170,162.8Z" style="fill:#fff;opacity:0.5"/>
    <path d="M163.2,187.5a3.7,3.7,0,0,1-3.8-.7,13.3,13.3,0,0,1-3.4-4.9c-2.5-6.4.3-13.5,6.2-15.9s12.9.9,15.4,7.3a13.3,13.3,0,0,1,.9,5.7,3.7,3.7,0,1,1-7.4-.5,5.9,5.9,0,0,0-.4-2.5c-1-2.6-3.6-4-5.8-3.2s-3.1,3.7-2.1,6.3a5.8,5.8,0,0,0,1.5,2.2,3.7,3.7,0,0,1-1.1,6.2Z" style="fill:#dce3ea"/>
    <path d="M103.4,153.3c-6.9.7-17.1,7.3-20.7,13.3a8.3,8.3,0,0,1-2.6,2.7l-12.9-7a8.3,8.3,0,0,1,1.2-4.2c5.8-9.8,19-18.7,30.6-20.9a70.2,70.2,0,0,1,11.7-1Z" style="fill:#dce3ea"/>
    <path d="M109.2,136.2l-5.8,12.8c-11,1.8-21.2,9.9-25.6,17.4l-.9,1.2,3.3,1.8a8.3,8.3,0,0,0,2.6-2.7c3.6-6,13.8-12.6,20.7-13.3l7.2-17.1Z" style="fill:#180621;opacity:0.15"/>
    <path d="M88.9,140.8a7.4,7.4,0,0,1-12.1,8.5" style="fill:#2e4159"/>
    <path d="M86.1,146.6a4.2,4.2,0,0,0,3.9-2.7,6.4,6.4,0,0,0-1-3.1l-6.1,4.3A4.2,4.2,0,0,0,86.1,146.6Z" style="fill:#fff;opacity:0.5"/>
    <path d="M67.2,162.3a8.3,8.3,0,0,1,1.2-4.2c5.8-9.8,19-18.7,30.6-20.9a70.2,70.2,0,0,1,11.7-1" style="fill:none;stroke:#1d132d;stroke-miterlimit:10;stroke-width:2px"/>
    <path d="M103.4,153.3c-6.9.7-15.9,7.5-20.7,13.3a12.7,12.7,0,0,1-2.6,2.7" style="fill:none;stroke:#1d132d;stroke-miterlimit:10;stroke-width:2px"/>
    <path d="M88.9,140.8a7.4,7.4,0,0,1-12.1,8.5" style="fill:none;stroke:#1d132d;stroke-linecap:round;stroke-linejoin:round;stroke-width:2px"/>
    <line x1="87" y1="151.6" x2="90.9" y2="157.8" style="fill:none;stroke:#1d132d;stroke-linecap:round;stroke-linejoin:round;stroke-width:2px"/>
    <path d="M135.7,153.3c6.9.7,17.1,7.3,20.7,13.3a8.3,8.3,0,0,0,2.6,2.7l12.9-7a8.3,8.3,0,0,0-1.2-4.2c-5.8-9.8-19-18.7-30.6-20.9a70.2,70.2,0,0,0-11.7-1Z" style="fill:#dce3ea"/>
    <path d="M158,168.5a15.1,15.1,0,0,1,3.3-2.5c-4.6-7.4-14.6-15.2-25.4-17L130,136.2h-1.5l7.2,17.1c6.9.7,17.1,7.3,20.7,13.3A8.3,8.3,0,0,0,158,168.5Z" style="fill:#180621;opacity:0.15"/>
    <path d="M150.2,140.8a7.4,7.4,0,0,0,12.1,8.5" style="fill:#2e4159"/>
    <path d="M153,146.6a4.2,4.2,0,0,1-3.9-2.7,6.4,6.4,0,0,1,1-3.1l6.1,4.3A4.2,4.2,0,0,1,153,146.6Z" style="fill:#fff;opacity:0.5"/>
    <path d="M171.9,162.3a8.3,8.3,0,0,0-1.2-4.2c-5.8-9.8-19-18.7-30.6-20.9a70.2,70.2,0,0,0-11.7-1" style="fill:none;stroke:#1d132d;stroke-miterlimit:10;stroke-width:2px"/>
    <path d="M135.7,153.3c6.9.7,15.9,7.5,20.7,13.3a7.1,7.1,0,0,0,2,2" style="fill:none;stroke:#1d132d;stroke-miterlimit:10;stroke-width:2px"/>
    <path d="M150.2,140.8a7.4,7.4,0,0,0,12.1,8.5" style="fill:none;stroke:#1d132d;stroke-linecap:round;stroke-linejoin:round;stroke-width:2px"/>
    <line x1="152.2" y1="151.6" x2="148.3" y2="157.8" style="fill:none;stroke:#1d132d;stroke-linecap:round;stroke-linejoin:round;stroke-width:2px"/>
    <line x1="170.4" y1="162.6" x2="162.4" y2="165.9" style="fill:none;stroke:#1d132d;stroke-linecap:round;stroke-linejoin:round;stroke-width:2px"/>
    <line x1="163.1" y1="187.5" x2="183.6" y2="179.4" style="fill:none;stroke:#1d132d;stroke-linecap:round;stroke-linejoin:round;stroke-width:2px"/>
    <line x1="165.8" y1="182.5" x2="168" y2="181.6" style="fill:none;stroke:#1d132d;stroke-linecap:round;stroke-linejoin:round;stroke-width:2px"/>
    <path d="M163.2,187.5a3.7,3.7,0,0,1-3.8-.7,13.3,13.3,0,0,1-3.4-4.9c-2.5-6.4.3-13.5,6.2-15.9s12.9.9,15.4,7.3a13.3,13.3,0,0,1,.9,5.7,3.7,3.7,0,1,1-7.4-.5,5.9,5.9,0,0,0-.4-2.5c-1-2.6-3.6-4-5.8-3.2s-3.1,3.7-2.1,6.3a5.8,5.8,0,0,0,1.5,2.2,3.7,3.7,0,0,1-1.1,6.2Z" style="fill:none;stroke:#1d132d;stroke-linecap:round;stroke-linejoin:round;stroke-width:2px"/>
    <path d="M170.4,162.7c6-2.3,12.8,1.1,15.4,7.5a13.4,13.4,0,0,1,.9,5.7,4.1,4.1,0,0,1-2.8,3.5" style="fill:none;stroke:#1d132d;stroke-linecap:round;stroke-linejoin:round;stroke-width:2px"/>
    <path d="M75.1,187.8l-23.1-9.5-.2-.4a13.2,13.2,0,0,1,.8-8.2c2.7-6.3,9.6-9.5,15.4-7l9,3.7Z" style="fill:#dce3ea"/>
    <g style="opacity:0.15">
      <path d="M66.5,178.2c.5-1.1.8-3.5,1.8-4.3a4.8,4.8,0,0,1,5.4-.3c4.2,3.1.2,8.3-.6,12.1a2.8,2.8,0,0,0,0,1.3l-11.1-4.5A7.8,7.8,0,0,0,66.5,178.2Z" style="fill:#180621"/>
    </g>
    <path d="M67.9,162.8l7.3,2.9c-5.8-2.3-12.5.9-15.1,7.2a13.2,13.2,0,0,0-.7,8.3l.2.4L52,178.5l-.2-.4a13.2,13.2,0,0,1,.7-8.3C55.2,163.5,62.1,160.3,67.9,162.8Z" style="fill:#fff;opacity:0.5"/>
    <path d="M74.7,187.5a3.7,3.7,0,0,0,3.8-.7,13.3,13.3,0,0,0,3.4-4.9c2.5-6.4-.3-13.5-6.2-15.9s-12.9.9-15.4,7.3a13.3,13.3,0,0,0-.9,5.7,3.7,3.7,0,1,0,7.4-.5,5.9,5.9,0,0,1,.4-2.5c1-2.6,3.6-4,5.8-3.2s3.1,3.7,2.1,6.3a5.8,5.8,0,0,1-1.5,2.2,3.7,3.7,0,0,0,1.1,6.2Z" style="fill:#dce3ea"/>
    <line x1="67.5" y1="162.6" x2="75.4" y2="165.9" style="fill:none;stroke:#1d132d;stroke-linecap:round;stroke-linejoin:round;stroke-width:2px"/>
    <line x1="74.8" y1="187.5" x2="54.3" y2="179.4" style="fill:none;stroke:#1d132d;stroke-linecap:round;stroke-linejoin:round;stroke-width:2px"/>
    <line x1="72.1" y1="182.5" x2="69.8" y2="181.6" style="fill:none;stroke:#1d132d;stroke-linecap:round;stroke-linejoin:round;stroke-width:2px"/>
    <path d="M74.7,187.5a3.7,3.7,0,0,0,3.8-.7,13.3,13.3,0,0,0,3.4-4.9c2.5-6.4-.3-13.5-6.2-15.9s-12.9.9-15.4,7.3a13.3,13.3,0,0,0-.9,5.7,3.7,3.7,0,1,0,7.4-.5,5.9,5.9,0,0,1,.4-2.5c1-2.6,3.6-4,5.8-3.2s3.1,3.7,2.1,6.3a5.8,5.8,0,0,1-1.5,2.2,3.7,3.7,0,0,0,1.1,6.2Z" style="fill:none;stroke:#1d132d;stroke-linecap:round;stroke-linejoin:round;stroke-width:2px"/>
    <path d="M67.5,162.7c-6-2.3-12.8,1.1-15.4,7.5a13.4,13.4,0,0,0-.9,5.7,4.1,4.1,0,0,0,2.8,3.5" style="fill:none;stroke:#1d132d;stroke-linecap:round;stroke-linejoin:round;stroke-width:2px"/>
  </g>
  <g>
    <title>atribute05</title>
    <path d="M70.1,66.9s0.6-2.1.2-1.9c-21.7,13.2-46,35.4-46,35.4S46,111,66,105.1l0.2-1.5C64.3,91.5,65.3,78.1,70.1,66.9Z" style="fill:#dce3ea"/>
    <path d="M65.4,87.4l-0.9,1.5c-1.8,2.7-6.1,7.4-9.7,4.7a4.9,4.9,0,0,1-1.6-4.7c-4.9,2.5-10.2,3.9-15.4,5.9s-7.7,4.1-11.7,5.2l-1.3.7c3.3,1.5,22.9,9.8,41.2,4.4l0.2-1.5A75.5,75.5,0,0,1,65.4,87.4Z" style="fill:#180621;opacity:0.15"/>
    <path d="M65.4,87.4l-0.9,1.5c-1.8,2.7-6.1,7.4-9.7,4.7a4.9,4.9,0,0,1-1.6-4.7c-4.9,2.5-10.2,3.9-15.4,5.9a44.7,44.7,0,0,0-4.2,2,41.3,41.3,0,0,1,19.8,1.8,24.9,24.9,0,0,1,10.2,7.1l2.4-.6,0.2-1.5A75.5,75.5,0,0,1,65.4,87.4Z" style="fill:#180621;opacity:0.15"/>
    <path d="M70.3,65c-19.5,11.8-46,35.4-46,35.4s19,10.4,41.7,4.7" style="fill:none;stroke:#1d132d;stroke-linecap:round;stroke-linejoin:round;stroke-width:2px"/>
    <path d="M65.3,89c-1.7,2.5-5.2,6.6-8.6,6.4s-5-4.9-3.6-7.9,5.6-6,7.3-3.4-1,5.9-3.4,6.4" style="fill:none;stroke:#1d132d;stroke-linecap:round;stroke-linejoin:round;stroke-width:2px"/>
    <line x1="25.1" y1="100.5" x2="51.9" y2="90.1" style="fill:none;stroke:#1d132d;stroke-linecap:round;stroke-linejoin:round;stroke-width:2px"/>
    <path d="M170,66.9s-0.6-2.1-.2-1.9c21.7,13.2,46,35.4,46,35.4s-21.7,10.5-41.7,4.7l-0.2-1.5C175.9,91.5,174.9,78.1,170,66.9Z" style="fill:#dce3ea"/>
    <path d="M174.7,87.4l0.9,1.5c1.8,2.7,6.1,7.4,9.7,4.7a4.9,4.9,0,0,0,1.6-4.7c4.9,2.5,10.2,3.9,15.4,5.9s7.7,4.1,11.7,5.2l1.3,0.7c-3.3,1.5-22.9,9.8-41.2,4.4l-0.2-1.5A75.5,75.5,0,0,0,174.7,87.4Z" style="fill:#180621;opacity:0.15"/>
    <path d="M174.7,87.4l0.9,1.5c1.8,2.7,6.1,7.4,9.7,4.7a4.9,4.9,0,0,0,1.6-4.7c4.9,2.5,10.2,3.9,15.4,5.9a44.7,44.7,0,0,1,4.2,2,41.3,41.3,0,0,0-19.8,1.8,24.9,24.9,0,0,0-10.2,7.1l-2.4-.6-0.2-1.5A75.5,75.5,0,0,0,174.7,87.4Z" style="fill:#180621;opacity:0.15"/>
    <path d="M169.8,65c19.5,11.8,46,35.4,46,35.4s-19,10.4-41.7,4.7" style="fill:none;stroke:#1d132d;stroke-linecap:round;stroke-linejoin:round;stroke-width:2px"/>
    <path d="M174.8,89c1.7,2.5,5.2,6.6,8.6,6.4s5-4.9,3.6-7.9-5.6-6-7.3-3.4,1,5.9,3.4,6.4" style="fill:none;stroke:#1d132d;stroke-linecap:round;stroke-linejoin:round;stroke-width:2px"/>
    <line x1="215.1" y1="100.5" x2="188.2" y2="90.1" style="fill:none;stroke:#1d132d;stroke-linecap:round;stroke-linejoin:round;stroke-width:2px"/>
  </g>
  <g>
    <title>02</title>
    <path d="M125.4,136.4c19.6-.5,28.4-3.6,37.2-11.1s12.1-21.8,12.1-37.2c0-27.7-17.6-49.2-43.4-53.7a76.8,76.8,0,0,0-11.1-.9,84.7,84.7,0,0,0-11.6.9C82.9,39,65.3,60.5,65.3,88.1c0,15.4,3.2,29.6,12.1,37.2s18.2,10.8,39.5,11.1Z" style="fill:#c6db45;stroke:#1d132d;stroke-miterlimit:10;stroke-width:2px"/>
    <path d="M109.2,136.5c-7,6.6-11.8,18.9-11.8,29.9,0,16,10.1,19.5,22.6,19.5s22.6-3.4,22.6-19.5c0-11.1-4.9-23.5-12-30.1" style="fill:#c6db45;stroke:#1d132d;stroke-miterlimit:10;stroke-width:2px"/>
    <path d="M130.9,136.7c-3.4.7-18,.5-21.3-.1h-.4c-7,6.6-11.8,18.9-11.8,29.9,0,16,10.1,19.5,22.6,19.5s22.6-3.4,22.6-19.5C142.6,155.5,137.8,143.3,130.9,136.7Z" style="fill:#c6db45"/>
    <path d="M130.5,136.2c-3.1.3-6.1.6-9.4.6a111.1,111.1,0,0,1-12.3-.4L102,146a41,41,0,0,0,17.6,3.6,40.7,40.7,0,0,0,17.8-3.7C137.2,145.6,130.9,136.7,130.5,136.2Z" style="fill:#180621;opacity:0.15"/>
    <path d="M109.5,136.3l-.6.5c-6.9,6.7-11.5,18.8-11.5,29.6,0,16,10.1,19.5,22.6,19.5s22.6-3.4,22.6-19.5c0-11-4.8-23.3-11.8-29.9l-.2-.2" style="fill:none;stroke:#1d132d;stroke-linecap:round;stroke-linejoin:round;stroke-width:2px"/>
    <polyline points="111.1 165 98 165 99.5 156.2 106.8 156.2" style="fill:#dce3ea"/>
    <polyline points="128.9 165 142 165 140.5 156.2 133.2 156.2" style="fill:#dce3ea"/>
    <polygon points="120 166.9 112.3 153.6 127.6 153.6 120 166.9" style="fill:#36c8e3"/>
    <polygon points="120 166.9 112.3 153.6 120.1 153.6 120 166.9" style="fill:#180621;opacity:0.15"/>
    <line x1="99.5" y1="156.2" x2="106.8" y2="156.2" style="fill:none;stroke:#1d132d;stroke-linecap:round;stroke-linejoin:round;stroke-width:2px"/>
    <line x1="98" y1="165" x2="111.1" y2="165" style="fill:none;stroke:#1d132d;stroke-linecap:round;stroke-linejoin:round;stroke-width:2px"/>
    <line x1="142.1" y1="165" x2="129" y2="165" style="fill:none;stroke:#1d132d;stroke-linecap:round;stroke-linejoin:round;stroke-width:2px"/>
    <polygon points="120 166.9 112.3 153.6 127.6 153.6 120 166.9" style="fill:none;stroke:#1d132d;stroke-linecap:round;stroke-linejoin:round;stroke-width:2px"/>
    <polyline points="106.8 156.2 120 179 132.9 156.6 133.1 156.2 133.3 156.2 140.6 156.2" style="fill:none;stroke:#1d132d;stroke-linecap:round;stroke-linejoin:round;stroke-width:2px"/>
    <g style="opacity:0.30000000000000004">
      <path d="M108.7,44.1a84.7,84.7,0,0,1,11.6-.9,76.8,76.8,0,0,1,11.1.9c24.4,4.3,41.5,23.9,43.2,49.5q.1-2.7.1-5.5c0-27.7-17.6-49.2-43.4-53.7a76.8,76.8,0,0,0-11.1-.9,84.7,84.7,0,0,0-11.6.9C82.9,39,65.3,60.5,65.3,88.1q0,2.8.1,5.5C67.1,68,84.3,48.4,108.7,44.1Z" style="fill:#fff"/>
    </g>
    <path d="M125.4,136.4c19.6-.5,28.4-3.6,37.2-11.1s12.1-21.8,12.1-37.2c0-27.7-17.6-49.2-43.4-53.7a76.8,76.8,0,0,0-11.1-.9,84.7,84.7,0,0,0-11.6.9C82.9,39,65.3,60.5,65.3,88.1c0,15.4,3.2,29.6,12.1,37.2s18.2,10.8,39.5,11.1Z" style="fill:none;stroke:#1d132d;stroke-miterlimit:10;stroke-width:2px"/>
    <path d="M109.2,136.5c-7,6.6-11.8,18.9-11.8,29.9,0,16,10.1,19.5,22.6,19.5s22.6-3.4,22.6-19.5c0-11.1-4.9-23.5-12-30.1" style="fill:none;stroke:#1d132d;stroke-miterlimit:10;stroke-width:2px"/>
    <g style="opacity:0.30000000000000004">
      <path d="M108.7,44.1a84.7,84.7,0,0,1,11.6-.9,76.8,76.8,0,0,1,11.1.9c24.4,4.3,41.5,23.9,43.2,49.5q.1-2.7.1-5.5c0-27.7-17.6-49.2-43.4-53.7a76.8,76.8,0,0,0-11.1-.9,84.7,84.7,0,0,0-11.6.9C82.9,39,65.3,60.5,65.3,88.1q0,2.8.1,5.5C67.1,68,84.3,48.4,108.7,44.1Z" style="fill:#fff"/>
    </g>
    <path d="M125.4,136.4c19.6-.5,28.4-3.6,37.2-11.1s12.1-21.8,12.1-37.2c0-27.7-17.6-49.2-43.4-53.7a76.8,76.8,0,0,0-11.1-.9,84.7,84.7,0,0,0-11.6.9C82.9,39,65.3,60.5,65.3,88.1c0,15.4,3.2,29.6,12.1,37.2s18.2,10.8,39.5,11.1Z" style="fill:none;stroke:#1d132d;stroke-miterlimit:10;stroke-width:2px"/>
  </g>
  <g>
    <title>02</title>
    <rect x="109.4" y="128.1" width="21.3" height="7.53" style="fill:#2e4159"/>
    <path d="M109.4,134.3a36.8,36.8,0,0,0-.1-3.7s-.2-.9-.3-1.5l-.3-.2c-2-8.2-8.1-12.7-18.4-14.5l-3.9-.7-.4-.3a25.4,25.4,0,0,1-6.7-1.2c-5.9-2-9.8-6-13.2-10.9l.3,1.8c1.6,9.3,5,17.3,10.9,22.3,8,6.8,15.9,10,32,10.9C109.4,135.6,109.4,134.9,109.4,134.3Z" style="fill:#dce3ea"/>
    <path d="M109.3,130.6s-.2-.9-.3-1.5l-.3-.2c-2-8.2-8.1-12.7-18.4-14.5l-3.9-.7-.4-.3H84.5c5.6,2.8,11,6.2,12.7,12.8a28,28,0,0,1,.7,9.1,92,92,0,0,0,11.5,1.3c0-.7.1-1.4.1-2A36.8,36.8,0,0,0,109.3,130.6Z" style="fill:#2e4159"/>
    <path d="M97.9,133.8c0-12-6.4-18.7-17.5-21.6" style="fill:none;stroke:#1d132d;stroke-linecap:round;stroke-linejoin:round;stroke-width:2px"/>
    <line x1="108.6" y1="128.1" x2="120" y2="128.1" style="fill:none;stroke:#1d132d;stroke-linecap:round;stroke-linejoin:round;stroke-width:2px"/>
    <line x1="78.8" y1="112.3" x2="78.8" y2="126.5" style="fill:none;stroke:#1d132d;stroke-linecap:round;stroke-linejoin:round;stroke-width:2px"/>
    <path d="M109.5,135.6c0-12.6-6.4-18.9-19.1-21.2-9.8-1.8-22.8-4.5-24.5-14.9" style="fill:none;stroke:#1d132d;stroke-linecap:round;stroke-linejoin:round;stroke-width:2px"/>
    <path d="M65.9,99.5l.5,3.6c1.6,9.3,5,17.3,10.9,22.3,9.1,7.8,18.2,10.8,39.5,11.1h3.1" style="fill:none;stroke:#1d132d;stroke-miterlimit:10;stroke-width:2px"/>
    <path d="M130.6,134.3a36.8,36.8,0,0,1,.1-3.7s.2-.9.3-1.5l.3-.2c2-8.2,8.1-12.7,18.4-14.5l3.9-.7.4-.3a25.4,25.4,0,0,0,6.7-1.2c5.9-2,9.8-6,13.2-10.9l-.3,1.8c-1.6,9.3-5,17.3-10.9,22.3-8,6.8-15.9,10-32,10.9C130.6,135.6,130.6,134.9,130.6,134.3Z" style="fill:#dce3ea"/>
    <path d="M130.7,130.6s.2-.9.3-1.5l.3-.2c2-8.2,8.1-12.7,18.4-14.5l3.9-.7.4-.3h1.5c-5.6,2.8-11,6.2-12.7,12.8a28,28,0,0,0-.7,9.1,92,92,0,0,1-11.5,1.3c0-.7-.1-1.4-.1-2A36.8,36.8,0,0,1,130.7,130.6Z" style="fill:#2e4159"/>
    <path d="M142.1,133.8c0-12,6.4-18.7,17.5-21.6" style="fill:none;stroke:#1d132d;stroke-linecap:round;stroke-linejoin:round;stroke-width:2px"/>
    <line x1="131.3" y1="128.1" x2="120" y2="128.1" style="fill:none;stroke:#1d132d;stroke-linecap:round;stroke-linejoin:round;stroke-width:2px"/>
    <line x1="161.2" y1="112.3" x2="161.2" y2="126.5" style="fill:none;stroke:#1d132d;stroke-linecap:round;stroke-linejoin:round;stroke-width:2px"/>
    <path d="M130.5,135.6c0-12.6,6.4-18.9,19.1-21.2,9.8-1.8,22.8-4.5,24.5-14.9" style="fill:none;stroke:#1d132d;stroke-linecap:round;stroke-linejoin:round;stroke-width:2px"/>
    <path d="M174.1,99.5l-.5,3.6c-1.6,9.3-5,17.3-10.9,22.3-9.1,7.8-18.2,10.8-39.5,11.1h-3.1" style="fill:none;stroke:#1d132d;stroke-miterlimit:10;stroke-width:2px"/>
    <line x1="120" y1="128.1" x2="120" y2="136.5" style="fill:none;stroke:#1d132d;stroke-miterlimit:10;stroke-width:2px"/>
    <line x1="114.7" y1="128.4" x2="114.7" y2="136.4" style="fill:none;stroke:#1d132d;stroke-miterlimit:10;stroke-width:2px"/>
    <line x1="125.2" y1="128.4" x2="125.2" y2="136.4" style="fill:none;stroke:#1d132d;stroke-miterlimit:10;stroke-width:2px"/>
  </g>
  <g>
    <title>05</title>
    <circle cx="148.2" cy="84.4" r="16.2" style="fill:#36c8e3"/>
    <circle cx="148.2" cy="84.4" r="16.2" style="fill:#dce3ea"/>
    <circle cx="92" cy="84.4" r="16.2" style="fill:#36c8e3"/>
    <circle cx="92" cy="84.4" r="16.2" style="fill:#dce3ea"/>
    <g style="opacity:0.5">
      <path d="M92,68.1a16.2,16.2,0,0,0-14.3,8.6,16.4,16.4,0,0,0,28.2-.7A16.2,16.2,0,0,0,92,68.1Z" style="fill:#fff"/>
    </g>
    <circle cx="92" cy="84.4" r="16.2" style="fill:none;stroke:#1d132d;stroke-linecap:round;stroke-linejoin:round;stroke-width:2px"/>
    <line x1="77" y1="78.1" x2="93.1" y2="78.1" style="fill:none;stroke:#1d132d;stroke-linecap:round;stroke-linejoin:round;stroke-width:2px"/>
    <line x1="77" y1="83.9" x2="107.8" y2="84" style="fill:none;stroke:#1d132d;stroke-linecap:round;stroke-linejoin:round;stroke-width:2px"/>
    <line x1="77" y1="89.7" x2="107" y2="90" style="fill:none;stroke:#1d132d;stroke-linecap:round;stroke-linejoin:round;stroke-width:2px"/>
    <line x1="89.6" y1="95.6" x2="103.2" y2="95.5" style="fill:none;stroke:#1d132d;stroke-linecap:round;stroke-linejoin:round;stroke-width:2px"/>
    <line x1="88" y1="72.6" x2="103.2" y2="72.6" style="fill:none;stroke:#1d132d;stroke-linecap:round;stroke-linejoin:round;stroke-width:2px"/>
    <line x1="80.8" y1="72.6" x2="84.3" y2="72.6" style="fill:none;stroke:#1d132d;stroke-linecap:round;stroke-linejoin:round;stroke-width:2px"/>
    <line x1="97.1" y1="78.1" x2="106.7" y2="78.1" style="fill:none;stroke:#1d132d;stroke-linecap:round;stroke-linejoin:round;stroke-width:2px"/>
    <g style="opacity:0.5">
      <path d="M148.2,68.1a16.2,16.2,0,0,0-14.3,8.6,16.4,16.4,0,0,0,28.2-.7A16.2,16.2,0,0,0,148.2,68.1Z" style="fill:#fff"/>
    </g>
    <circle cx="148.2" cy="84.4" r="16.2" style="fill:none;stroke:#1d132d;stroke-linecap:round;stroke-linejoin:round;stroke-width:2px"/>
    <line x1="133.3" y1="78.1" x2="149.3" y2="78.1" style="fill:none;stroke:#1d132d;stroke-linecap:round;stroke-linejoin:round;stroke-width:2px"/>
    <line x1="133.3" y1="83.9" x2="164.1" y2="84" style="fill:none;stroke:#1d132d;stroke-linecap:round;stroke-linejoin:round;stroke-width:2px"/>
    <line x1="133.3" y1="89.7" x2="163.2" y2="90" style="fill:none;stroke:#1d132d;stroke-linecap:round;stroke-linejoin:round;stroke-width:2px"/>
    <line x1="145.8" y1="95.6" x2="159.5" y2="95.5" style="fill:none;stroke:#1d132d;stroke-linecap:round;stroke-linejoin:round;stroke-width:2px"/>
    <line x1="144.2" y1="72.6" x2="159.5" y2="72.6" style="fill:none;stroke:#1d132d;stroke-linecap:round;stroke-linejoin:round;stroke-width:2px"/>
    <line x1="137" y1="72.6" x2="140.5" y2="72.6" style="fill:none;stroke:#1d132d;stroke-linecap:round;stroke-linejoin:round;stroke-width:2px"/>
    <line x1="153.3" y1="78.1" x2="162.9" y2="78.1" style="fill:none;stroke:#1d132d;stroke-linecap:round;stroke-linejoin:round;stroke-width:2px"/>
  </g>
  <g>
    <title>05</title>
    <circle cx="120" cy="12.4" r="5.5" style="fill:#dce3ea"/>
    <circle cx="120" cy="12.4" r="5.5" style="fill:#dce3ea"/>
    <g style="opacity:0.5">
      <path d="M121.2,12.3a5.5,5.5,0,0,0,3.6-2.6,5.5,5.5,0,0,0-9.5,0A5.5,5.5,0,0,0,121.2,12.3Z" style="fill:#fff"/>
    </g>
    <path d="M126.4,33.7a6.5,6.5,0,0,0-11.8-1l-.4,1" style="fill:#2e4159"/>
    <path d="M126.4,33.7a6.5,6.5,0,0,0-11.8-1l-.4,1Z" style="fill:none;stroke:#1d132d;stroke-linecap:round;stroke-linejoin:round;stroke-width:2px"/>
    <circle cx="120" cy="12.4" r="5.5" style="fill:none;stroke:#1d132d;stroke-linecap:round;stroke-linejoin:round;stroke-width:2px"/>
    <line x1="120.1" y1="17.9" x2="120.1" y2="28.9" style="fill:none;stroke:#1d132d;stroke-linecap:round;stroke-linejoin:round;stroke-width:2px"/>
  </g>
</svg>