<svg xmlns="http://www.w3.org/2000/svg" xmlns:xlink="http://www.w3.org/1999/xlink" viewBox="0 0 240 240">
  <ellipse cx="120.5" cy="233.4" rx="43.7" ry="4.9" style="fill:#180621;opacity:0.15"/>
  <g>
    <title>04</title>
    <g style="isolation:isolate">
      <path d="M91.7,195.2h0l.6,25.8h-.1c-.4.3-.7,1.8-.2,2.7a14.4,14.4,0,0,0-4.6,7.6,1.9,1.9,0,0,0,1.3,2.2,44.7,44.7,0,0,0,12.6,1.4c9.5,0,14.5-2,14.5-2v-.6l.2-.4V208.3h0A19.5,19.5,0,0,0,91.7,195.2Z" style="fill:#dce3ea"/>
      <path d="M115.2,204V182.2l-13.7-1.8v14.3l.7.5C106.4,196.8,112,201,115.2,204Z" style="fill:#dce3ea"/>
      <path d="M89,227.6c8.2-9.2,23.2-10.1,27,4.1V208.3h0a19.5,19.5,0,0,0-24.2-13.1h0l.6,25.8h-.1c-.4.3-.7,1.8-.2,2.7A14.6,14.6,0,0,0,89,227.6Z" style="fill:#2e4159"/>
      <polyline points="101.6 194.4 101.6 180.4 116 180.4 116 209.3" style="fill:none;stroke:#1d132d;stroke-linecap:round;stroke-linejoin:round;stroke-width:2px"/>
      <path d="M115.9,232.7V208.3h0a19.5,19.5,0,0,0-24.2-13.1h0l.7,27.7" style="fill:none;stroke:#1d132d;stroke-linecap:round;stroke-linejoin:round;stroke-width:2px"/>
      <ellipse cx="99" cy="222.7" rx="4.7" ry="3" style="fill:#fff;opacity:0.5"/>
      <path d="M115.5,205.2v-7.4a25.6,25.6,0,0,0-13.2-8.3v5.4C106.9,197,111.9,201.5,115.5,205.2Z" style="fill:#180621;opacity:0.15;mix-blend-mode:multiply"/>
      <path d="M115.9,232.9a14.4,14.4,0,0,0-28.4-1.6,1.9,1.9,0,0,0,1.3,2.2,44.7,44.7,0,0,0,12.6,1.4C110.8,234.9,115.9,232.9,115.9,232.9Z" style="fill:none;stroke:#1d132d;stroke-linecap:round;stroke-linejoin:round;stroke-width:2px"/>
      <path d="M103.6,213.3h-.8A15.2,15.2,0,0,0,92.4,217" style="fill:none;stroke:#1d132d;stroke-linecap:round;stroke-linejoin:round;stroke-width:2px"/>
      <path d="M103.6,206.4h-.8a15.2,15.2,0,0,0-10.4,3.7" style="fill:none;stroke:#1d132d;stroke-linecap:round;stroke-linejoin:round;stroke-width:2px"/>
      <path d="M101.5,230.2a44.7,44.7,0,0,1-12.6-1.4l-.4-.2a14.3,14.3,0,0,0-.9,2.7,1.9,1.9,0,0,0,1.3,2.2,44.7,44.7,0,0,0,12.6,1.4c9.5,0,14.5-2,14.5-2a14.3,14.3,0,0,0-1.2-4.4A48.8,48.8,0,0,1,101.5,230.2Z" style="fill:#180621;opacity:0.15"/>
      <path d="M152.8,231.3a14.4,14.4,0,0,0-4.6-7.6c.5-.9.2-2.4-.2-2.7h-.1l.6-25.8h0a19.5,19.5,0,0,0-24.2,13.1h0V232l.2.4v.6s5.1,2,14.5,2a44.7,44.7,0,0,0,12.6-1.4A1.9,1.9,0,0,0,152.8,231.3Z" style="fill:#dce3ea"/>
      <path d="M124.3,232h.1a3.2,3.2,0,0,1,.3-.9c2.7-5.5,6.4-10.6,13.1-11a18.1,18.1,0,0,1,10.7,2.7,2.3,2.3,0,0,0-.4-1.9h-.1l.6-25.8h0a19.5,19.5,0,0,0-24.2,13.1h0Z" style="fill:#2e4159"/>
      <ellipse cx="141" cy="222.7" rx="4.7" ry="3" style="fill:#fff;opacity:0.5"/>
      <path d="M125.1,204V182.2l13.7-1.8v14.3l-.7.5C133.8,196.8,128.3,201,125.1,204Z" style="fill:#dce3ea"/>
      <polyline points="138.7 194.4 138.7 180.4 124.3 180.4 124.3 209.3" style="fill:none;stroke:#1d132d;stroke-linecap:round;stroke-linejoin:round;stroke-width:2px"/>
      <path d="M124.3,232.7V208.3h0a19.5,19.5,0,0,1,24.2-13.1h0l-.7,27.7" style="fill:none;stroke:#1d132d;stroke-linecap:round;stroke-linejoin:round;stroke-width:2px"/>
      <path d="M124.8,205.2v-7.4a25.6,25.6,0,0,1,13.2-8.3v5.4C133.4,197,128.3,201.5,124.8,205.2Z" style="fill:#180621;opacity:0.15;mix-blend-mode:multiply"/>
      <path d="M124.4,232.9a14.4,14.4,0,0,1,28.4-1.6,1.9,1.9,0,0,1-1.3,2.2,44.7,44.7,0,0,1-12.6,1.4C129.5,234.9,124.4,232.9,124.4,232.9Z" style="fill:none;stroke:#1d132d;stroke-linecap:round;stroke-linejoin:round;stroke-width:2px"/>
      <path d="M136.7,213.3h.8a15.2,15.2,0,0,1,10.4,3.7" style="fill:none;stroke:#1d132d;stroke-linecap:round;stroke-linejoin:round;stroke-width:2px"/>
      <path d="M136.7,206.4h.8a15.2,15.2,0,0,1,10.4,3.7" style="fill:none;stroke:#1d132d;stroke-linecap:round;stroke-linejoin:round;stroke-width:2px"/>
      <path d="M138.8,230.2a44.7,44.7,0,0,0,12.6-1.4l.4-.2a14.3,14.3,0,0,1,.9,2.7,1.9,1.9,0,0,1-1.3,2.2,44.7,44.7,0,0,1-12.6,1.4c-9.5,0-14.5-2-14.5-2a14.3,14.3,0,0,1,1.2-4.4A48.8,48.8,0,0,0,138.8,230.2Z" style="fill:#180621;opacity:0.15"/>
    </g>
  </g>
  <g>
    <title>04</title>
    <g style="isolation:isolate">
      <path d="M109.1,137.6a38.2,38.2,0,0,0-20.3,8.2l.6,1.6,2.9,2.5a32.9,32.9,0,0,1,17.3-7,2.7,2.7,0,1,0-.4-5.4Z" style="fill:#dce3ea"/>
      <path d="M88.3,145.7a41.7,41.7,0,0,1,19.3-8.2,3.3,3.3,0,0,1,1,6.4,39.1,39.1,0,0,0-15.8,6.4" style="fill:none;stroke:#1d132d;stroke-miterlimit:10;stroke-width:2px"/>
      <path d="M92.3,150a31.3,31.3,0,0,1,3.6-2.5,22,22,0,0,0-2.2-5,37.1,37.1,0,0,0-4.8,3.3l.6,1.6Z" style="fill:#180621;opacity:0.15;mix-blend-mode:multiply"/>
      <path d="M67,174a15.6,15.6,0,0,1-2.8-2.5l-.9-1.2-3.4-2.1-4.7,6.3,4.6,5,7.7-5.1Z" style="fill:#2e4159"/>
      <path d="M58.3,161.4a12.8,12.8,0,0,1,0-6.1l-9,.8-.3,5.7,9.9,1.7Z" style="fill:#2e4159"/>
      <path d="M79.1,178.9a18.3,18.3,0,0,1-7.9-1.9l1.3,9.2h5.7Z" style="fill:#2e4159"/>
      <path d="M61.3,153.2a32.1,32.1,0,0,0-2.9,2.5h-.1c-2.7,2.5-.1,9.6,5.8,15.9s12.8,9.3,15.5,6.8h.1a45.6,45.6,0,0,0,5.3-6.1l6-9.2a30.8,30.8,0,0,0,2.6-7.5h0c.3-1.9-1.2-5.1-3.9-8s-5.9-4.6-7.8-4.4h0c-3,.2-6.8,1.7-10.5,3.6" style="fill:#2e4159"/>
      <path d="M81.8,155.8c-4-.4-20.5-2.6-20.5-2.6a32.1,32.1,0,0,0-2.9,2.5h-.1c-2.7,2.5-.1,9.6,5.8,15.9s12.8,9.3,15.5,6.8h.1a14.8,14.8,0,0,0,2.5-2.5C82,174.7,81.6,158.1,81.8,155.8Z" style="fill:#dce3ea"/>
      <polyline points="66.3 175.2 59.8 179.6 55.2 174.6 60.3 167.7" style="fill:none;stroke:#1d132d;stroke-linecap:round;stroke-linejoin:round;stroke-width:2px"/>
      <polyline points="57.9 163.4 49.1 161.9 49.4 156.2 59.1 155.3" style="fill:none;stroke:#1d132d;stroke-linecap:round;stroke-linejoin:round;stroke-width:2px"/>
      <polyline points="71.4 178.4 72.5 186.1 78.2 186 79.1 179" style="fill:none;stroke:#1d132d;stroke-linecap:round;stroke-linejoin:round;stroke-width:2px"/>
      <path d="M79.3,178.8c-2.7,2.5-9.6-.6-15.4-7s-8.3-13.4-5.6-15.9h.1" style="fill:none;stroke:#1d132d;stroke-linecap:round;stroke-linejoin:round;stroke-width:2px"/>
      <path d="M58.4,155.8c5.4-4.9,17.6-12.4,24.5-12.9h0c2.1-.1,4.8,1.3,7.7,4.5s4.2,6.4,3.8,8.2" style="fill:none;stroke:#1d132d;stroke-linecap:round;stroke-linejoin:round;stroke-width:2px"/>
      <path d="M79.4,178.7c5.4-4.9,13.9-16.4,15-23.2" style="fill:none;stroke:#1d132d;stroke-linecap:round;stroke-linejoin:round;stroke-width:2px"/>
      <path d="M91.2,158.5a24.5,24.5,0,0,1-10.8,6.3l-6.5.9a18.5,18.5,0,0,1-8.2-1.5l-3-1.3a18.3,18.3,0,0,1-5.3-3.6c.3,3.3,2.8,8.1,6.9,12.4,5.9,6.3,12.8,9.3,15.5,6.8h.1a45.6,45.6,0,0,0,5.3-6.1l6-9.2a30.8,30.8,0,0,0,2.6-7.5h0a3.4,3.4,0,0,0,0-.4Z" style="fill:#180621;opacity:0.15"/>
      <path d="M131,137.6a38.2,38.2,0,0,1,20.3,8.2l-.6,1.6-2.9,2.5a32.9,32.9,0,0,0-17.3-7,2.7,2.7,0,1,1,.4-5.4Z" style="fill:#dce3ea"/>
      <path d="M151.9,145.7a41.7,41.7,0,0,0-19.3-8.2,3.3,3.3,0,0,0-1,6.4,39.1,39.1,0,0,1,15.8,6.4" style="fill:none;stroke:#1d132d;stroke-miterlimit:10;stroke-width:2px"/>
      <path d="M147.9,150a31.3,31.3,0,0,0-3.6-2.5,22,22,0,0,1,2.2-5,37.1,37.1,0,0,1,4.8,3.3l-.6,1.6Z" style="fill:#180621;opacity:0.15;mix-blend-mode:multiply"/>
      <path d="M173.1,174a15.6,15.6,0,0,0,2.8-2.5l.9-1.2,3.4-2.1,4.7,6.3-4.6,5-7.7-5.1Z" style="fill:#2e4159"/>
      <path d="M181.8,161.4a12.8,12.8,0,0,0,0-6.1l9,.8.3,5.7-9.9,1.7Z" style="fill:#2e4159"/>
      <path d="M161,178.9a18.3,18.3,0,0,0,7.9-1.9l-1.3,9.2h-5.7Z" style="fill:#2e4159"/>
      <path d="M178.8,153.2a32.1,32.1,0,0,1,2.9,2.5h.1c2.7,2.5.1,9.6-5.8,15.9s-12.8,9.3-15.5,6.8h-.1a45.6,45.6,0,0,1-5.3-6.1l-6-9.2a30.8,30.8,0,0,1-2.6-7.5h0c-.3-1.9,1.2-5.1,3.9-8s5.9-4.6,7.8-4.4h0c3,.2,6.8,1.7,10.5,3.6" style="fill:#2e4159"/>
      <path d="M158.3,155.8c4-.4,20.5-2.6,20.5-2.6a32.1,32.1,0,0,1,2.9,2.5h.1c2.7,2.5.1,9.6-5.8,15.9s-12.8,9.3-15.5,6.8h-.1a14.8,14.8,0,0,1-2.5-2.5C158.1,174.7,158.5,158.1,158.3,155.8Z" style="fill:#dce3ea"/>
      <polyline points="173.8 175.2 180.3 179.6 184.9 174.6 179.8 167.7" style="fill:none;stroke:#1d132d;stroke-linecap:round;stroke-linejoin:round;stroke-width:2px"/>
      <polyline points="182.2 163.4 191 161.9 190.7 156.2 181 155.3" style="fill:none;stroke:#1d132d;stroke-linecap:round;stroke-linejoin:round;stroke-width:2px"/>
      <polyline points="168.7 178.4 167.6 186.1 161.9 186 161 179" style="fill:none;stroke:#1d132d;stroke-linecap:round;stroke-linejoin:round;stroke-width:2px"/>
      <path d="M160.8,178.8c2.7,2.5,9.6-.6,15.4-7s8.3-13.4,5.6-15.9h-.1" style="fill:none;stroke:#1d132d;stroke-linecap:round;stroke-linejoin:round;stroke-width:2px"/>
      <path d="M181.7,155.8c-5.4-4.9-17.6-12.4-24.5-12.9h0c-2.1-.1-4.8,1.3-7.7,4.5s-4.2,6.4-3.8,8.2" style="fill:none;stroke:#1d132d;stroke-linecap:round;stroke-linejoin:round;stroke-width:2px"/>
      <path d="M160.7,178.7c-5.4-4.9-13.9-16.4-15-23.2" style="fill:none;stroke:#1d132d;stroke-linecap:round;stroke-linejoin:round;stroke-width:2px"/>
      <path d="M149,158.5a24.5,24.5,0,0,0,10.8,6.3l6.5.9a18.5,18.5,0,0,0,8.2-1.5l3-1.3a18.3,18.3,0,0,0,5.3-3.6c-.3,3.3-2.8,8.1-6.9,12.4-5.9,6.3-12.8,9.3-15.5,6.8h-.1a45.6,45.6,0,0,1-5.3-6.1l-6-9.2a30.8,30.8,0,0,1-2.6-7.5h0a3.4,3.4,0,0,1,0-.4Z" style="fill:#180621;opacity:0.15"/>
      <polyline points="62 153.4 81.7 155.9 82 175.9" style="fill:none;stroke:#1d132d;stroke-linecap:round;stroke-linejoin:round;stroke-width:2px"/>
      <polyline points="178.2 153.4 158.4 155.9 158.1 175.9" style="fill:none;stroke:#1d132d;stroke-linecap:round;stroke-linejoin:round;stroke-width:2px"/>
    </g>
  </g>
  <g>
    <title>06</title>
    <path d="M49.3,45.6c0,.3,0,.6,0,.9,0,10.6,9.2,19.3,20.9,20C69.4,63.9,65.1,52.5,49.3,45.6Z" style="fill:#fff;opacity:0.5"/>
    <path d="M169.9,67s3.2-14,21.7-21.6h0c1.7,5.6.2,15.1.2,15.1,1.5,5.3.1,14.2.1,14.2a25.3,25.3,0,0,1-17.1,30.7Z" style="fill:#dce3ea"/>
    <path d="M192.5,67h0a59.2,59.2,0,0,1-.6,7.7,25.3,25.3,0,0,1-17.1,30.7L172.9,91C184.1,88.7,191.9,78.6,192.5,67Z" style="fill:#180621;opacity:0.15"/>
    <path d="M190.9,45.6c0,.3,0,.6,0,.9,0,10.6-9.2,19.3-20.9,20C170.8,63.9,175.2,52.5,190.9,45.6Z" style="fill:#fff;opacity:0.5"/>
    <path d="M70.3,67S67.1,53,48.6,45.4h0c-1.7,5.6-.2,15.1-.2,15.1-1.5,5.3-.1,14.2-.1,14.2a25.3,25.3,0,0,0,17.1,30.7Z" style="fill:#dce3ea"/>
    <path d="M47.8,67h0a59.2,59.2,0,0,0,.6,7.7,25.3,25.3,0,0,0,17.1,30.7L67.3,91C56.1,88.7,48.3,78.6,47.8,67Z" style="fill:#180621;opacity:0.15"/>
    <path d="M48.3,74.6a25.3,25.3,0,0,0,17.1,30.7" style="fill:none;stroke:#1d132d;stroke-linecap:round;stroke-linejoin:round;stroke-width:2px"/>
    <path d="M48.4,60.4a25.3,25.3,0,0,0,17,31" style="fill:none;stroke:#1d132d;stroke-linecap:round;stroke-linejoin:round;stroke-width:2px"/>
    <path d="M70.3,67S67.1,53,48.6,45.4h0A25.3,25.3,0,0,0,65.4,77" style="fill:none;stroke:#1d132d;stroke-linecap:round;stroke-linejoin:round;stroke-width:2px"/>
    <path d="M191.9,74.6a25.3,25.3,0,0,1-17.1,30.7" style="fill:none;stroke:#1d132d;stroke-linecap:round;stroke-linejoin:round;stroke-width:2px"/>
    <path d="M191.8,60.4a25.3,25.3,0,0,1-17,31" style="fill:none;stroke:#1d132d;stroke-linecap:round;stroke-linejoin:round;stroke-width:2px"/>
    <path d="M169.9,67s3.2-14,21.7-21.6h0A25.3,25.3,0,0,1,174.8,77" style="fill:none;stroke:#1d132d;stroke-linecap:round;stroke-linejoin:round;stroke-width:2px"/>
  </g>
  <g>
    <title>06</title>
    <path d="M125.4,136.4c19.6-.5,28.4-3.6,37.2-11.1s12.1-21.8,12.1-37.2c0-27.7-17.6-49.2-43.4-53.7a76.8,76.8,0,0,0-11.1-.9,84.7,84.7,0,0,0-11.6.9C82.9,39,65.3,60.5,65.3,88.1c0,15.4,3.2,29.6,12.1,37.2s18.2,10.8,39.5,11.1Z" style="fill:none;stroke:#1d132d;stroke-miterlimit:10;stroke-width:2px"/>
    <path d="M109.2,136.5c-7,6.6-11.8,18.9-11.8,29.9,0,16,10.1,19.5,22.6,19.5s22.6-3.4,22.6-19.5c0-11.1-4.9-23.5-12-30.1" style="fill:none;stroke:#1d132d;stroke-miterlimit:10;stroke-width:2px"/>
    <path d="M131.3,34.4a76.8,76.8,0,0,0-11.1-.9,84.7,84.7,0,0,0-11.6.9C82.9,39,65.3,60.5,65.3,88.1c0,15.4,3.2,29.6,12.1,37.2s18.2,10.8,39.5,11.1h-7.7c-7,6.6-11.8,18.9-11.8,29.9,0,16,10.1,19.5,22.6,19.5s22.6-3.4,22.6-19.5c0-11.1-4.9-23.5-12-30.1h-5.2c19.6-.5,28.4-3.6,37.2-11.1s12.1-21.8,12.1-37.2C174.7,60.5,157.1,39,131.3,34.4Z" style="fill:#5f3535"/>
    <path d="M130.9,136.7c-3.4.7-18,.5-21.3-.1h-.4c-7,6.6-11.8,18.9-11.8,29.9,0,16,10.1,19.5,22.6,19.5s22.6-3.4,22.6-19.5C142.6,155.5,137.8,143.3,130.9,136.7Z" style="fill:#5f3535"/>
    <path d="M140.6,154.1l-9.3,7.9L120,152.3l-11.3,9.8-9.3-8.3a46,46,0,0,0-1.9,10.9l11.2,9.5,11.3-9.8,11.4,9.8,11.2-9.5a45.9,45.9,0,0,0-1.8-10.7" style="fill:#ff9a00"/>
    <path d="M140.6,154.1l-9.3,7.9L120,152.3l-11.3,9.8-9.3-8.3a46,46,0,0,0-1.9,10.9l11.2,9.5,11.3-9.8,11.4,9.8,11.2-9.5a45.9,45.9,0,0,0-1.8-10.7" style="fill:none;stroke:#1d132d;stroke-linecap:round;stroke-linejoin:round;stroke-width:2px"/>
    <path d="M130.5,136.2c-3.1.3-6.1.6-9.4.6a111.1,111.1,0,0,1-12.3-.4L102,146a41,41,0,0,0,17.6,3.6,40.7,40.7,0,0,0,17.8-3.7C137.2,145.6,130.9,136.7,130.5,136.2Z" style="fill:#180621;opacity:0.15"/>
    <path d="M109.5,136.3l-.6.5c-6.9,6.7-11.5,18.8-11.5,29.6,0,16,10.1,19.5,22.6,19.5s22.6-3.4,22.6-19.5c0-11-4.8-23.3-11.8-29.9l-.2-.2" style="fill:none;stroke:#1d132d;stroke-linecap:round;stroke-linejoin:round;stroke-width:2px"/>
    <g style="opacity:0.30000000000000004">
      <path d="M108.7,44.1a84.7,84.7,0,0,1,11.6-.9,76.8,76.8,0,0,1,11.1.9c24.4,4.3,41.5,23.9,43.2,49.5q.1-2.7.1-5.5c0-27.7-17.6-49.2-43.4-53.7a76.8,76.8,0,0,0-11.1-.9,84.7,84.7,0,0,0-11.6.9C82.9,39,65.3,60.5,65.3,88.1q0,2.8.1,5.5C67.1,68,84.3,48.4,108.7,44.1Z" style="fill:#fff"/>
    </g>
    <path d="M125.4,136.4c19.6-.5,28.4-3.6,37.2-11.1s12.1-21.8,12.1-37.2c0-27.7-17.6-49.2-43.4-53.7a76.8,76.8,0,0,0-11.1-.9,84.7,84.7,0,0,0-11.6.9C82.9,39,65.3,60.5,65.3,88.1c0,15.4,3.2,29.6,12.1,37.2s18.2,10.8,39.5,11.1Z" style="fill:none;stroke:#1d132d;stroke-miterlimit:10;stroke-width:2px"/>
    <path d="M109.2,136.5c-7,6.6-11.8,18.9-11.8,29.9,0,16,10.1,19.5,22.6,19.5s22.6-3.4,22.6-19.5c0-11.1-4.9-23.5-12-30.1" style="fill:none;stroke:#1d132d;stroke-miterlimit:10;stroke-width:2px"/>
    <g style="opacity:0.30000000000000004">
      <path d="M108.7,44.1a84.7,84.7,0,0,1,11.6-.9,76.8,76.8,0,0,1,11.1.9c24.4,4.3,41.5,23.9,43.2,49.5q.1-2.7.1-5.5c0-27.7-17.6-49.2-43.4-53.7a76.8,76.8,0,0,0-11.1-.9,84.7,84.7,0,0,0-11.6.9C82.9,39,65.3,60.5,65.3,88.1q0,2.8.1,5.5C67.1,68,84.3,48.4,108.7,44.1Z" style="fill:#fff"/>
    </g>
    <path d="M125.4,136.4c19.6-.5,28.4-3.6,37.2-11.1s12.1-21.8,12.1-37.2c0-27.7-17.6-49.2-43.4-53.7a76.8,76.8,0,0,0-11.1-.9,84.7,84.7,0,0,0-11.6.9C82.9,39,65.3,60.5,65.3,88.1c0,15.4,3.2,29.6,12.1,37.2s18.2,10.8,39.5,11.1Z" style="fill:none;stroke:#1d132d;stroke-miterlimit:10;stroke-width:2px"/>
  </g>
  <g>
    <title>01</title>
    <path d="M106.1,135.8V115.4h.1a22,22,0,0,1,14.1-5.1s.8,19.5.8,26.5" style="fill:#dce3ea"/>
    <path d="M106.6,121.3l-.2-2c-.7-1.6-.8-3.1-.2-4.1H106a135.3,135.3,0,0,1-21.5-2.7c-6.9-1.5-14.1-5-17.9-11.2h-.4c1.5,10,4.9,18.6,11.2,23.9s14.9,9.6,29,10.7C106.4,130.9,106.5,126.1,106.6,121.3Z" style="fill:#2e4159"/>
    <path d="M133.7,136.1V115.7h-.1a22,22,0,0,0-14.1-5.1s-.8,19.5-.8,26.5" style="fill:#dce3ea"/>
    <path d="M133.2,121.6l.2-2c.7-1.6.8-3.1.2-4.1h.2a135.3,135.3,0,0,0,21.5-2.7c6.9-1.5,14.1-5,17.9-11.2h.4c-1.5,10-4.9,18.6-11.2,23.9s-14.9,9.6-29,10.7C133.4,131.2,133.3,126.4,133.2,121.6Z" style="fill:#2e4159"/>
    <circle cx="93.1" cy="123" r="2.5" style="fill:#1d132d"/>
    <circle cx="84.9" cy="120.5" r="2.5" style="fill:#1d132d"/>
    <path d="M66.2,101.4c6.9,8,17.3,13.1,40,14.1" style="fill:none;stroke:#1d132d;stroke-linecap:round;stroke-linejoin:round;stroke-width:2px"/>
    <path d="M66.2,101.4c1.5,10,4.9,18.6,11.2,23.9,9.1,7.8,18.2,10.8,39.5,11.1H120" style="fill:none;stroke:#1d132d;stroke-miterlimit:10;stroke-width:2px"/>
    <path d="M106.1,135.8V115.4h.1a22,22,0,0,1,14.1-5.1" style="fill:none;stroke:#1d132d;stroke-linecap:round;stroke-linejoin:round;stroke-width:2px"/>
    <circle cx="146.7" cy="123" r="2.5" style="fill:#1d132d"/>
    <circle cx="154.9" cy="120.5" r="2.5" style="fill:#1d132d"/>
    <path d="M173.5,101.4c-6.9,8-17.3,13.1-40,14.1" style="fill:none;stroke:#1d132d;stroke-linecap:round;stroke-linejoin:round;stroke-width:2px"/>
    <path d="M173.5,101.4c-1.5,10-4.9,18.6-11.2,23.9-9.1,7.8-18.2,10.8-39.5,11.1h-3.1" style="fill:none;stroke:#1d132d;stroke-miterlimit:10;stroke-width:2px"/>
    <path d="M133.7,135.8V115.4h-.1a22,22,0,0,0-14.1-5.1" style="fill:none;stroke:#1d132d;stroke-linecap:round;stroke-linejoin:round;stroke-width:2px"/>
    <line x1="113.6" y1="136" x2="113.6" y2="123" style="fill:none;stroke:#1d132d;stroke-linecap:round;stroke-linejoin:round;stroke-width:2px"/>
    <line x1="120" y1="136" x2="120" y2="120.5" style="fill:none;stroke:#1d132d;stroke-linecap:round;stroke-linejoin:round;stroke-width:2px"/>
    <line x1="126.6" y1="136" x2="126.6" y2="123" style="fill:none;stroke:#1d132d;stroke-linecap:round;stroke-linejoin:round;stroke-width:2px"/>
  </g>
  <g>
    <title>!0_gen_02</title>
    <circle cx="120" cy="81.9" r="16.7" style="fill:none;stroke:#1d132d;stroke-miterlimit:10;stroke-width:2px"/>
    <circle cx="120" cy="81.9" r="16.7" style="fill:#ffde00;stroke:#1d132d;stroke-miterlimit:10;stroke-width:2px"/>
    <circle cx="120" cy="81.9" r="7.5" style="fill:#1d132d"/>
    <ellipse cx="127.2" cy="76.1" rx="6.1" ry="4.5" transform="matrix(0.78, -0.62, 0.62, 0.78, -19.64, 96.14)" style="fill:#fff;opacity:0.5"/>
  </g>
  <g/>
</svg>