<svg xmlns="http://www.w3.org/2000/svg" xmlns:xlink="http://www.w3.org/1999/xlink" viewBox="0 0 240 240">
  <ellipse cx="120.5" cy="233.4" rx="43.7" ry="4.9" style="fill:#180621;opacity:0.15"/>
  <g>
    <title>02</title>
    <path d="M105.8,191.7a19.1,19.1,0,0,0-4,15.7h0a19.1,19.1,0,0,0,8.3,12.4,22.1,22.1,0,0,1,1.3-3.7,9,9,0,0,1,2.5-3.2,19.2,19.2,0,0,0,8.6,19.2l.3.2a50.8,50.8,0,0,1,9.7-15.2l.4-.4a17.3,17.3,0,0,0,0-24.5" style="fill:#e83a27"/>
    <path d="M128.8,199.2c0,8.3-8.9,14.4-8.9,14.4s-8.9-5.3-8.9-14.4a8.9,8.9,0,1,1,17.8,0Z" style="fill:#fff;opacity:0.5"/>
    <path d="M137.2,180.3H102.8v7.4c0,3.2,7.7,5.8,17.2,5.8s17.2-2.6,17.2-5.8Z" style="fill:#2e4159"/>
    <path d="M137.2,180.3H102.8v7.4c0,3.2,7.7,5.8,17.2,5.8s17.2-2.6,17.2-5.8Z" style="fill:none;stroke:#1d132d;stroke-miterlimit:10;stroke-width:2px"/>
    <path d="M105.8,191.7a19.1,19.1,0,0,0-4,15.7h0a19.1,19.1,0,0,0,8.3,12.4,22.1,22.1,0,0,1,1.3-3.7,9,9,0,0,1,2.5-3.2,19.2,19.2,0,0,0,8.6,19.2l.3.2a50.8,50.8,0,0,1,9.7-15.2l.4-.4a17.3,17.3,0,0,0,0-24.5" style="fill:none;stroke:#1d132d;stroke-linecap:round;stroke-linejoin:round;stroke-width:2px"/>
    <path d="M129,208.3a12.7,12.7,0,0,0-2.6-14.4" style="fill:none;stroke:#1d132d;stroke-linecap:round;stroke-linejoin:round;stroke-width:2px"/>
    <line x1="126.7" y1="212.3" x2="126.1" y2="213.3" style="fill:none;stroke:#1d132d;stroke-linecap:round;stroke-linejoin:round;stroke-width:2px"/>
    <path d="M105.8,191.7a19.1,19.1,0,0,0-4,15.7h0a19.1,19.1,0,0,0,8.3,12.4,22.1,22.1,0,0,1,1.3-3.7,9,9,0,0,1,2.5-3.2,19.2,19.2,0,0,0,8.6,19.2l.3.2a50.8,50.8,0,0,1,9.7-15.2l.4-.4a17.3,17.3,0,0,0,0-24.5" style="fill:#ff81a2"/>
    <path d="M128.8,199.2c0,8.3-8.9,14.4-8.9,14.4s-8.9-5.3-8.9-14.4a8.9,8.9,0,1,1,17.8,0Z" style="fill:#fff;opacity:0.5"/>
    <path d="M137.2,180.3H102.8v7.4c0,3.2,7.7,5.8,17.2,5.8s17.2-2.6,17.2-5.8Z" style="fill:#2e4159"/>
    <path d="M137.2,180.3H102.8v7.4c0,3.2,7.7,5.8,17.2,5.8s17.2-2.6,17.2-5.8Z" style="fill:none;stroke:#1d132d;stroke-miterlimit:10;stroke-width:2px"/>
    <path d="M105.8,191.7a19.1,19.1,0,0,0-4,15.7h0a19.1,19.1,0,0,0,8.3,12.4,22.1,22.1,0,0,1,1.3-3.7,9,9,0,0,1,2.5-3.2,19.2,19.2,0,0,0,8.6,19.2l.3.2a50.8,50.8,0,0,1,9.7-15.2l.4-.4a17.3,17.3,0,0,0,0-24.5" style="fill:none;stroke:#1d132d;stroke-linecap:round;stroke-linejoin:round;stroke-width:2px"/>
    <path d="M129,208.3a12.7,12.7,0,0,0-2.6-14.4" style="fill:none;stroke:#1d132d;stroke-linecap:round;stroke-linejoin:round;stroke-width:2px"/>
    <line x1="126.7" y1="212.3" x2="126.1" y2="213.3" style="fill:none;stroke:#1d132d;stroke-linecap:round;stroke-linejoin:round;stroke-width:2px"/>
  </g>
  <g>
    <title>atribute01</title>
    <path d="M104.9,145.6a82.9,82.9,0,0,1,5.5-9.5c-18.7,9.6-43.8,20.5-58.4,13.8-6.6-3-10.9-9.6-13.3-20a6,6,0,1,0-11.7,2.6c3.2,14.1,9.9,23.6,19.9,28.3A37.5,37.5,0,0,0,63,164c11.7,0,24.8-4.2,37.8-9.9C101.6,151.1,103.5,148.4,104.9,145.6Z" style="fill:#dce3ea"/>
    <path d="M39.5,129.4l7.5-2.7s-2.6-9.2-11.1-11.2c0,0,1.9,3.1,2.4,4.3a17.7,17.7,0,0,1,1.5,4l-16,3.7a17.7,17.7,0,0,1-.3-4.3c0-1.3.4-4.9,0.4-4.9-6.8,5.5-5.4,14.9-5.4,14.9l7.9-.7" style="fill:#dce3ea"/>
    <path d="M39.5,129.4l7.5-2.7s-2.6-9.2-11.1-11.2c0,0,1.9,3.1,2.4,4.3a17.7,17.7,0,0,1,1.5,4l-16,3.7a17.7,17.7,0,0,1-.3-4.3c0-1.3.4-4.9,0.4-4.9-6.8,5.5-5.4,14.9-5.4,14.9l7.9-.7" style="fill:#180621;opacity:0.15"/>
    <path d="M109.9,136.7c-18.7,9.6-43.4,20.2-57.8,13.5-6.6-3-10.9-9.6-13.3-20a6,6,0,0,0-11.5-.8h0.3c3.6-.7,7.1,1.3,8,4.5,2.6,10.4,7.4,17,14.7,20,13.7,5.7,35.8-1.3,54.9-9.4A79.3,79.3,0,0,0,109.9,136.7Z" style="fill:#fff;opacity:0.5"/>
    <path d="M30.3,142.9a37.4,37.4,0,0,1,11.5-3.5,44.5,44.5,0,0,1-3-9.2,6,6,0,1,0-11.7,2.6A58.1,58.1,0,0,0,30.3,142.9Z" style="fill:#2e4159"/>
    <path d="M39.5,129.4l7.5-2.7s-2.6-9.2-11.1-11.2c0,0,1.9,3.1,2.4,4.3a17.7,17.7,0,0,1,1.5,4l-16,3.7a17.7,17.7,0,0,1-.3-4.3c0-1.3.4-4.9,0.4-4.9-6.8,5.5-5.4,14.9-5.4,14.9l7.9-.7" style="fill:none;stroke:#1d132d;stroke-linecap:round;stroke-linejoin:round;stroke-width:2px"/>
    <path d="M109.9,136.7c-18.7,9.6-43.4,20.2-57.8,13.5-6.6-3-10.9-9.6-13.3-20a6,6,0,0,0-11.5-.8h0.3c3.6-.7,7.1,1.3,8,4.5,2.6,10.4,7.4,17,14.7,20,13.7,5.7,35.8-1.3,54.9-9.4A79.3,79.3,0,0,0,109.9,136.7Z" style="fill:#fff;opacity:0.2"/>
    <path d="M103.3,147.6c2-3.8,4.7-7.1,6.6-11-18.7,9.6-43.4,20.2-57.8,13.5-6.6-3-10.9-9.6-13.3-20a6,6,0,1,0-11.7,2.6c3.2,14.1,9.9,23.6,19.9,28.3A37.5,37.5,0,0,0,63,164.3c11.7,0,24-4,36.9-9.7C100.6,152.3,102.2,149.8,103.3,147.6Z" style="fill:none;stroke:#1d132d;stroke-linecap:round;stroke-linejoin:round;stroke-width:2px"/>
    <line x1="30.7" y1="142.5" x2="41.5" y2="138.9" style="fill:none;stroke:#1d132d;stroke-linecap:round;stroke-linejoin:round;stroke-width:2px"/>
    <line x1="36.3" y1="152" x2="45.2" y2="145.5" style="fill:none;stroke:#1d132d;stroke-linecap:round;stroke-linejoin:round;stroke-width:2px"/>
    <line x1="50.8" y1="149.7" x2="45.3" y2="159.6" style="fill:none;stroke:#1d132d;stroke-linecap:round;stroke-linejoin:round;stroke-width:2px"/>
    <line x1="57.7" y1="151.9" x2="56.6" y2="163.5" style="fill:none;stroke:#1d132d;stroke-linecap:round;stroke-linejoin:round;stroke-width:2px"/>
    <line x1="66.6" y1="152.1" x2="68.2" y2="163.2" style="fill:none;stroke:#1d132d;stroke-linecap:round;stroke-linejoin:round;stroke-width:2px"/>
    <line x1="76.3" y1="150.7" x2="79.3" y2="161.5" style="fill:none;stroke:#1d132d;stroke-linecap:round;stroke-linejoin:round;stroke-width:2px"/>
    <line x1="86.1" y1="147.7" x2="89.1" y2="158.4" style="fill:none;stroke:#1d132d;stroke-linecap:round;stroke-linejoin:round;stroke-width:2px"/>
    <line x1="95.3" y1="144.2" x2="99" y2="154.7" style="fill:none;stroke:#1d132d;stroke-linecap:round;stroke-linejoin:round;stroke-width:2px"/>
    <path d="M26.8,167.1l2.4-7.6s-8.9-3.5-15.7,2l4.9,0.7a17.7,17.7,0,0,1,4.1,1.2l-6.8,14.9a17.7,17.7,0,0,1-3.6-2.3l-3.7-3.3c0.2,8.7,8.6,13.3,8.6,13.3l4.2-6.7" style="fill:#dce3ea"/>
    <path d="M26.8,167.1l2.4-7.6s-8.9-3.5-15.7,2l4.9,0.7a17.7,17.7,0,0,1,4.1,1.2l-6.8,14.9a17.7,17.7,0,0,1-3.6-2.3l-3.7-3.3c0.2,8.7,8.6,13.3,8.6,13.3l4.2-6.7" style="fill:#180621;opacity:0.15"/>
    <path d="M26.8,167.1l2.4-7.6s-8.9-3.5-15.7,2l4.9,0.7a17.7,17.7,0,0,1,4.1,1.2l-6.8,14.9a17.7,17.7,0,0,1-3.6-2.3l-3.7-3.3c0.2,8.7,8.6,13.3,8.6,13.3l4.2-6.7" style="fill:none;stroke:#1d132d;stroke-linecap:round;stroke-linejoin:round;stroke-width:2px"/>
    <path d="M97.9,167.1a26.8,26.8,0,0,1,1-9.5,19.8,19.8,0,0,1,1-3.1c-2.3,1.6-42.6,28.7-72.2,13.1A6,6,0,0,0,22,178.2a54.8,54.8,0,0,0,22.5,6c10.6,0.6,22.2-1.3,34.4-5.8a134.8,134.8,0,0,0,19-8.8C97.9,168.8,97.9,167.9,97.9,167.1Z" style="fill:#dce3ea"/>
    <path d="M98.9,157.6a19.8,19.8,0,0,1,1-3.1c-2.3,1.6-42.6,28.7-72.2,13.1a6,6,0,0,0-8.2,7.8,6,6,0,0,1,8.6-3.8c26.6,13.9,61.6-6.3,70.3-11.9C98.5,159,98.6,158.3,98.9,157.6Z" style="fill:#fff;opacity:0.5"/>
    <path d="M34.6,170.5a40.1,40.1,0,0,1-7-2.9A6,6,0,0,0,22,178.2a51.7,51.7,0,0,0,10.5,4.1C33.2,178.4,33.6,174.4,34.6,170.5Z" style="fill:#2e4159"/>
    <path d="M98.9,157.6a19.8,19.8,0,0,1,1-3.1c-2.3,1.6-42.6,28.7-72.2,13.1a6,6,0,0,0-8.2,7.8,6,6,0,0,1,8.6-3.8c26.6,13.9,61.6-6.3,70.3-11.9C98.5,159,98.6,158.3,98.9,157.6Z" style="fill:#fff;opacity:0.2"/>
    <path d="M97.9,167.1a26.8,26.8,0,0,1,1-9.5,19.8,19.8,0,0,1,1-3.1c-2.3,1.6-42.6,28.7-72.2,13.1A6,6,0,0,0,22,178.2a54.8,54.8,0,0,0,22.5,6c10.6,0.6,22.2-1.3,34.4-5.8a134.8,134.8,0,0,0,19-8.8C97.9,168.8,97.9,167.9,97.9,167.1Z" style="fill:none;stroke:#1d132d;stroke-miterlimit:10;stroke-width:2px"/>
    <line x1="35" y1="170.8" x2="32" y2="181.6" style="fill:none;stroke:#1d132d;stroke-linecap:round;stroke-linejoin:round;stroke-width:2px"/>
    <line x1="43.9" y1="172.9" x2="43.1" y2="183.6" style="fill:none;stroke:#1d132d;stroke-linecap:round;stroke-linejoin:round;stroke-width:2px"/>
    <line x1="52.4" y1="172.4" x2="53.4" y2="183.9" style="fill:none;stroke:#1d132d;stroke-linecap:round;stroke-linejoin:round;stroke-width:2px"/>
    <line x1="61" y1="171.1" x2="63.8" y2="182.4" style="fill:none;stroke:#1d132d;stroke-linecap:round;stroke-linejoin:round;stroke-width:2px"/>
    <line x1="70.4" y1="168.8" x2="74.1" y2="179.7" style="fill:none;stroke:#1d132d;stroke-linecap:round;stroke-linejoin:round;stroke-width:2px"/>
    <line x1="79.3" y1="165.9" x2="83.7" y2="176.6" style="fill:none;stroke:#1d132d;stroke-linecap:round;stroke-linejoin:round;stroke-width:2px"/>
    <line x1="87.9" y1="161.7" x2="92.3" y2="172.3" style="fill:none;stroke:#1d132d;stroke-linecap:round;stroke-linejoin:round;stroke-width:2px"/>
    <path d="M208.8,125.3a6,6,0,0,0-7.2,4.5c-2.4,10.4-6.7,17-13.3,20-14.4,6.7-39.2-4-57.9-13.6a49.9,49.9,0,0,1,6.3,11.5v0.3c1,1.8,2.5,4.1,3,6.1,13.1,5.9,25.6,9.8,37.6,9.8a37.5,37.5,0,0,0,15.9-3.2c10-4.6,16.7-14.2,19.9-28.3A6,6,0,0,0,208.8,125.3Z" style="fill:#dce3ea"/>
    <path d="M200.9,129.4l-7.5-2.7s2.6-9.2,11.1-11.2c0,0-1.9,3.1-2.4,4.3a17.7,17.7,0,0,0-1.5,4l16,3.7a17.7,17.7,0,0,0,.3-4.3c0-1.3-.4-4.9-0.4-4.9,6.8,5.5,5.4,14.9,5.4,14.9l-7.9-.7" style="fill:#dce3ea"/>
    <path d="M200.9,129.4l-7.5-2.7s2.6-9.2,11.1-11.2c0,0-1.9,3.1-2.4,4.3a17.7,17.7,0,0,0-1.5,4l16,3.7a17.7,17.7,0,0,0,.3-4.3c0-1.3-.4-4.9-0.4-4.9,6.8,5.5,5.4,14.9,5.4,14.9l-7.9-.7" style="fill:#180621;opacity:0.15"/>
    <path d="M130.6,136.7c18.7,9.6,43.4,20.2,57.8,13.5,6.6-3,10.9-9.6,13.3-20a6,6,0,0,1,11.5-.8h-0.3c-3.6-.7-7.1,1.3-8,4.5-2.6,10.4-7.4,17-14.7,20-13.7,5.7-35.8-1.3-54.9-9.4A79.3,79.3,0,0,1,130.6,136.7Z" style="fill:#fff;opacity:0.5"/>
    <path d="M210.1,142.9a37.4,37.4,0,0,0-11.5-3.5,44.5,44.5,0,0,0,3-9.2,6,6,0,1,1,11.7,2.6A58.1,58.1,0,0,1,210.1,142.9Z" style="fill:#2e4159"/>
    <path d="M200.9,129.4l-7.5-2.7s2.6-9.2,11.1-11.2c0,0-1.9,3.1-2.4,4.3a17.7,17.7,0,0,0-1.5,4l16,3.7a17.7,17.7,0,0,0,.3-4.3c0-1.3-.4-4.9-0.4-4.9,6.8,5.5,5.4,14.9,5.4,14.9l-7.9-.7" style="fill:none;stroke:#1d132d;stroke-linecap:round;stroke-linejoin:round;stroke-width:2px"/>
    <path d="M130.6,136.7c18.7,9.6,43.4,20.2,57.8,13.5,6.6-3,10.9-9.6,13.3-20a6,6,0,0,1,11.5-.8h-0.3c-3.6-.7-7.1,1.3-8,4.5-2.6,10.4-7.4,17-14.7,20-13.7,5.7-35.8-1.3-54.9-9.4A79.3,79.3,0,0,1,130.6,136.7Z" style="fill:#fff;opacity:0.2"/>
    <path d="M137.1,147.6c-2-3.8-4.7-7.1-6.6-11,18.7,9.6,43.4,20.2,57.8,13.5,6.6-3,10.9-9.6,13.3-20a6,6,0,1,1,11.7,2.6c-3.2,14.1-9.9,23.6-19.9,28.3a37.5,37.5,0,0,1-15.9,3.2c-11.7,0-24-4.1-36.9-9.8C139.8,152.2,138.3,149.8,137.1,147.6Z" style="fill:none;stroke:#1d132d;stroke-linecap:round;stroke-linejoin:round;stroke-width:2px"/>
    <line x1="209.8" y1="142.5" x2="199" y2="138.9" style="fill:none;stroke:#1d132d;stroke-linecap:round;stroke-linejoin:round;stroke-width:2px"/>
    <line x1="204.2" y1="152" x2="195.2" y2="145.5" style="fill:none;stroke:#1d132d;stroke-linecap:round;stroke-linejoin:round;stroke-width:2px"/>
    <line x1="189.7" y1="149.7" x2="195.2" y2="159.6" style="fill:none;stroke:#1d132d;stroke-linecap:round;stroke-linejoin:round;stroke-width:2px"/>
    <line x1="182.8" y1="151.9" x2="183.8" y2="163.5" style="fill:none;stroke:#1d132d;stroke-linecap:round;stroke-linejoin:round;stroke-width:2px"/>
    <line x1="173.9" y1="152.1" x2="172.2" y2="163.2" style="fill:none;stroke:#1d132d;stroke-linecap:round;stroke-linejoin:round;stroke-width:2px"/>
    <line x1="164.2" y1="150.7" x2="161.1" y2="161.5" style="fill:none;stroke:#1d132d;stroke-linecap:round;stroke-linejoin:round;stroke-width:2px"/>
    <line x1="154.3" y1="147.7" x2="151.3" y2="158.4" style="fill:none;stroke:#1d132d;stroke-linecap:round;stroke-linejoin:round;stroke-width:2px"/>
    <line x1="145.2" y1="144.2" x2="141.5" y2="154.7" style="fill:none;stroke:#1d132d;stroke-linecap:round;stroke-linejoin:round;stroke-width:2px"/>
    <path d="M213.7,167.1l-2.4-7.6s8.9-3.5,15.7,2l-4.9.7a17.7,17.7,0,0,0-4.1,1.2l6.8,14.9a17.7,17.7,0,0,0,3.6-2.3l3.7-3.3c-0.2,8.7-8.6,13.3-8.6,13.3l-4.2-6.7" style="fill:#dce3ea"/>
    <path d="M213.7,167.1l-2.4-7.6s8.9-3.5,15.7,2l-4.9.7a17.7,17.7,0,0,0-4.1,1.2l6.8,14.9a17.7,17.7,0,0,0,3.6-2.3l3.7-3.3c-0.2,8.7-8.6,13.3-8.6,13.3l-4.2-6.7" style="fill:#180621;opacity:0.15"/>
    <path d="M213.7,167.1l-2.4-7.6s8.9-3.5,15.7,2l-4.9.7a17.7,17.7,0,0,0-4.1,1.2l6.8,14.9a17.7,17.7,0,0,0,3.6-2.3l3.7-3.3c-0.2,8.7-8.6,13.3-8.6,13.3l-4.2-6.7" style="fill:none;stroke:#1d132d;stroke-linecap:round;stroke-linejoin:round;stroke-width:2px"/>
    <path d="M142.6,167.1a26.8,26.8,0,0,0-1-9.5,19.8,19.8,0,0,0-1-3.1c2.3,1.6,42.6,28.7,72.2,13.1a6,6,0,0,1,5.6,10.6,54.8,54.8,0,0,1-22.5,6c-10.6.6-22.2-1.3-34.4-5.8a134.8,134.8,0,0,1-19-8.8C142.5,168.8,142.6,167.9,142.6,167.1Z" style="fill:#dce3ea"/>
    <path d="M141.6,157.6a19.8,19.8,0,0,0-1-3.1c2.3,1.6,42.6,28.7,72.2,13.1a6,6,0,0,1,8.2,7.8,6,6,0,0,0-8.6-3.8c-26.6,13.9-61.6-6.3-70.3-11.9C142,159,141.8,158.3,141.6,157.6Z" style="fill:#fff;opacity:0.5"/>
    <path d="M205.9,170.5a40.1,40.1,0,0,0,7-2.9,6,6,0,0,1,5.6,10.6,51.7,51.7,0,0,1-10.5,4.1C207.2,178.4,206.8,174.4,205.9,170.5Z" style="fill:#2e4159"/>
    <path d="M141.6,157.6a19.8,19.8,0,0,0-1-3.1c2.3,1.6,42.6,28.7,72.2,13.1a6,6,0,0,1,8.2,7.8,6,6,0,0,0-8.6-3.8c-26.6,13.9-61.6-6.3-70.3-11.9C142,159,141.8,158.3,141.6,157.6Z" style="fill:#fff;opacity:0.2"/>
    <path d="M142.6,167.1a26.8,26.8,0,0,0-1-9.5,19.8,19.8,0,0,0-1-3.1c2.3,1.6,42.6,28.7,72.2,13.1a6,6,0,0,1,5.6,10.6,54.8,54.8,0,0,1-22.5,6c-10.6.6-22.2-1.3-34.4-5.8a134.8,134.8,0,0,1-19-8.8C142.5,168.8,142.6,167.9,142.6,167.1Z" style="fill:none;stroke:#1d132d;stroke-miterlimit:10;stroke-width:2px"/>
    <line x1="205.5" y1="170.8" x2="208.5" y2="181.6" style="fill:none;stroke:#1d132d;stroke-linecap:round;stroke-linejoin:round;stroke-width:2px"/>
    <line x1="196.6" y1="172.9" x2="197.3" y2="183.6" style="fill:none;stroke:#1d132d;stroke-linecap:round;stroke-linejoin:round;stroke-width:2px"/>
    <line x1="188.1" y1="172.4" x2="187.1" y2="183.9" style="fill:none;stroke:#1d132d;stroke-linecap:round;stroke-linejoin:round;stroke-width:2px"/>
    <line x1="179.5" y1="171.1" x2="176.7" y2="182.4" style="fill:none;stroke:#1d132d;stroke-linecap:round;stroke-linejoin:round;stroke-width:2px"/>
    <line x1="170" y1="168.8" x2="166.4" y2="179.7" style="fill:none;stroke:#1d132d;stroke-linecap:round;stroke-linejoin:round;stroke-width:2px"/>
    <line x1="161.1" y1="165.9" x2="156.8" y2="176.6" style="fill:none;stroke:#1d132d;stroke-linecap:round;stroke-linejoin:round;stroke-width:2px"/>
    <line x1="152.5" y1="161.7" x2="148.1" y2="172.3" style="fill:none;stroke:#1d132d;stroke-linecap:round;stroke-linejoin:round;stroke-width:2px"/>
  </g>
  <g>
    <title>04</title>
    <g style="isolation:isolate">
      <polygon points="68.3 100.3 32.3 66.3 71 66.1 68.3 100.3" style="fill:#dce3ea"/>
      <path d="M65.5,78A47.7,47.7,0,0,1,34,66.3H32.3l36,33.9L70,77.8Z" style="fill:#180621;opacity:0.15;mix-blend-mode:multiply"/>
      <polygon points="68.3 100.3 32.3 66.3 71 66.1 68.3 100.3" style="fill:none;stroke:#1d132d;stroke-linecap:round;stroke-linejoin:round;stroke-width:2px"/>
      <path d="M52.4,85.3A27.5,27.5,0,0,1,68.2,67" style="fill:none;stroke:#1d132d;stroke-linecap:round;stroke-linejoin:round;stroke-width:2px"/>
      <path d="M43.9,77.1A27.5,27.5,0,0,1,53,66.4" style="fill:none;stroke:#1d132d;stroke-linecap:round;stroke-linejoin:round;stroke-width:2px"/>
      <polygon points="171.3 100.3 207.2 66.3 168.5 66.1 171.3 100.3" style="fill:#dce3ea"/>
      <path d="M174,78a47.7,47.7,0,0,0,31.5-11.7h1.7l-36,33.9-1.8-22.5Z" style="fill:#180621;opacity:0.15;mix-blend-mode:multiply"/>
      <polygon points="171.3 100.3 207.2 66.3 168.5 66.1 171.3 100.3" style="fill:none;stroke:#1d132d;stroke-linecap:round;stroke-linejoin:round;stroke-width:2px"/>
      <path d="M187.1,85.3A27.5,27.5,0,0,0,171.3,67" style="fill:none;stroke:#1d132d;stroke-linecap:round;stroke-linejoin:round;stroke-width:2px"/>
      <path d="M195.6,77.1a27.5,27.5,0,0,0-9.1-10.6" style="fill:none;stroke:#1d132d;stroke-linecap:round;stroke-linejoin:round;stroke-width:2px"/>
    </g>
  </g>
  <g>
    <title>body_eferium</title>
    <path d="M131.3,34.4a76.8,76.8,0,0,0-11.1-.9,84.7,84.7,0,0,0-11.6.9C82.9,39,65.3,60.5,65.3,88.1c0,15.4,3.2,29.6,12.1,37.2s18.2,10.8,39.5,11.1h-7.7c-7,6.6-11.8,18.9-11.8,29.9,0,16,10.1,19.5,22.6,19.5s22.6-3.4,22.6-19.5c0-11.1-4.9-23.5-12-30.1h-5.2c19.6-.5,28.4-3.6,37.2-11.1s12.1-21.8,12.1-37.2C174.7,60.5,157.1,39,131.3,34.4Z" style="fill:#c6db45"/>
    <path d="M131.3,34.4a76.8,76.8,0,0,0-11.1-.9,84.7,84.7,0,0,0-11.6.9C82.9,39,65.3,60.5,65.3,88.1c0,15.4,3.2,29.6,12.1,37.2s18.2,10.8,39.5,11.1h-7.7c-7,6.6-11.8,18.9-11.8,29.9,0,16,10.1,19.5,22.6,19.5s22.6-3.4,22.6-19.5c0-11.1-4.9-23.5-12-30.1h-5.2c19.6-.5,28.4-3.6,37.2-11.1s12.1-21.8,12.1-37.2C174.7,60.5,157.1,39,131.3,34.4Z" style="fill:#703c81"/>
    <path d="M131.3,34.4a76.8,76.8,0,0,0-11.1-.9,84.7,84.7,0,0,0-11.6.9C82.9,39,65.3,60.5,65.3,88.1c0,15.4,3.2,29.6,12.1,37.2s18.2,10.8,39.5,11.1h-7.7c-7,6.6-11.8,18.9-11.8,29.9,0,16,10.1,19.5,22.6,19.5s22.6-3.4,22.6-19.5c0-11.1-4.9-23.5-12-30.1h-5.2c19.6-.5,28.4-3.6,37.2-11.1s12.1-21.8,12.1-37.2C174.7,60.5,157.1,39,131.3,34.4Z" style="fill:#ff81a2"/>
    <path d="M131.3,34.4a76.8,76.8,0,0,0-11.1-.9,84.7,84.7,0,0,0-11.6.9C82.9,39,65.3,60.5,65.3,88.1c0,15.4,3.2,29.6,12.1,37.2s18.2,10.8,39.5,11.1h-7.7c-7,6.6-11.8,18.9-11.8,29.9,0,16,10.1,19.5,22.6,19.5s22.6-3.4,22.6-19.5c0-11.1-4.9-23.5-12-30.1h-5.2c19.6-.5,28.4-3.6,37.2-11.1s12.1-21.8,12.1-37.2C174.7,60.5,157.1,39,131.3,34.4Z" style="fill:#e83a27"/>
    <path d="M131.3,34.4a76.8,76.8,0,0,0-11.1-.9,84.7,84.7,0,0,0-11.6.9C82.9,39,65.3,60.5,65.3,88.1c0,15.4,3.2,29.6,12.1,37.2s18.2,10.8,39.5,11.1h-7.7c-7,6.6-11.8,18.9-11.8,29.9,0,16,10.1,19.5,22.6,19.5s22.6-3.4,22.6-19.5c0-11.1-4.9-23.5-12-30.1h-5.2c19.6-.5,28.4-3.6,37.2-11.1s12.1-21.8,12.1-37.2C174.7,60.5,157.1,39,131.3,34.4Z" style="fill:#5f3535"/>
    <path d="M131.3,34.4a76.8,76.8,0,0,0-11.1-.9,84.7,84.7,0,0,0-11.6.9C82.9,39,65.3,60.5,65.3,88.1c0,15.4,3.2,29.6,12.1,37.2s18.2,10.8,39.5,11.1h-7.7c-7,6.6-11.8,18.9-11.8,29.9,0,16,10.1,19.5,22.6,19.5s22.6-3.4,22.6-19.5c0-11.1-4.9-23.5-12-30.1h-5.2c19.6-.5,28.4-3.6,37.2-11.1s12.1-21.8,12.1-37.2C174.7,60.5,157.1,39,131.3,34.4Z" style="fill:#f557c7"/>
    <path d="M131.3,34.4a76.8,76.8,0,0,0-11.1-.9,84.7,84.7,0,0,0-11.6.9C82.9,39,65.3,60.5,65.3,88.1c0,15.4,3.2,29.6,12.1,37.2s18.2,10.8,39.5,11.1h-7.7c-7,6.6-11.8,18.9-11.8,29.9,0,16,10.1,19.5,22.6,19.5s22.6-3.4,22.6-19.5c0-11.1-4.9-23.5-12-30.1h-5.2c19.6-.5,28.4-3.6,37.2-11.1s12.1-21.8,12.1-37.2C174.7,60.5,157.1,39,131.3,34.4Z" style="fill:#36c8e3"/>
    <path d="M131.3,34.4a76.8,76.8,0,0,0-11.1-.9,84.7,84.7,0,0,0-11.6.9C82.9,39,65.3,60.5,65.3,88.1c0,15.4,3.2,29.6,12.1,37.2s18.2,10.8,39.5,11.1h-7.7c-7,6.6-11.8,18.9-11.8,29.9,0,16,10.1,19.5,22.6,19.5s22.6-3.4,22.6-19.5c0-11.1-4.9-23.5-12-30.1h-5.2c19.6-.5,28.4-3.6,37.2-11.1s12.1-21.8,12.1-37.2C174.7,60.5,157.1,39,131.3,34.4Z" style="fill:#ffde00"/>
    <path d="M130.5,136.5s8.4,10.7,7.9,12.9-10.5,6-10.5,6l-6,29.5-3.5.3-5.7-29.5s-10.8-3.5-11.1-6.1c-.6-4.6,8.2-13,8.2-13Z" style="fill:#ffde00"/>
    <path d="M130.6,137c-3.1.3-6.3.4-9.5.4a114.7,114.7,0,0,1-12.6-.7L102,146a41,41,0,0,0,17.6,3.6,40.7,40.7,0,0,0,17.8-3.7C137.2,145.6,131,137.4,130.6,137Z" style="fill:#180621;opacity:0.15"/>
    <g style="opacity:0.30000000000000004">
      <path d="M108.7,44.1a84.7,84.7,0,0,1,11.6-.9,76.8,76.8,0,0,1,11.1.9c24.4,4.3,41.5,23.9,43.2,49.5q.1-2.7.1-5.5c0-27.7-17.6-49.2-43.4-53.7a76.8,76.8,0,0,0-11.1-.9,84.7,84.7,0,0,0-11.6.9C82.9,39,65.3,60.5,65.3,88.1q0,2.8.1,5.5C67.1,68,84.3,48.4,108.7,44.1Z" style="fill:#fff"/>
    </g>
    <rect x="98.4" y="158" width="17.8" height="4.73" transform="translate(83.5 -31.1) rotate(26.7)" style="fill:#d9e3ea"/>
    <rect x="124" y="158" width="17.8" height="4.73" transform="translate(323.7 243.8) rotate(153.3)" style="fill:#d9e3ea"/>
    <line x1="100.4" y1="153.7" x2="112.2" y2="160.2" style="fill:none;stroke:#1d132d;stroke-linecap:round;stroke-linejoin:round;stroke-width:2px"/>
    <line x1="139.8" y1="153.7" x2="127.9" y2="160.2" style="fill:none;stroke:#1d132d;stroke-linecap:round;stroke-linejoin:round;stroke-width:2px"/>
    <line x1="98.6" y1="159.1" x2="111.8" y2="166.4" style="fill:none;stroke:#1d132d;stroke-linecap:round;stroke-linejoin:round;stroke-width:2px"/>
    <line x1="141.7" y1="159" x2="128.4" y2="166.4" style="fill:none;stroke:#1d132d;stroke-linecap:round;stroke-linejoin:round;stroke-width:2px"/>
    <polygon points="119.9 180 108.7 163.9 120.1 147.9 131.3 163.9 119.9 180" style="fill:#ff56ca"/>
    <polygon points="119.9 180 120.1 147.9 131.3 163.9 119.9 180" style="fill:#ff99e7"/>
    <polygon points="120 180.5 109.5 163.8 120 168.1 120 180.5" style="fill:#e528a1"/>
    <polygon points="119.9 180 130.1 163.6 120 168.1 119.9 180" style="fill:#ff56ca"/>
    <polyline points="130.1 163.6 120 168.1 120 148.9 121.1 166.1" style="fill:#fff"/>
    <path d="M118.8,179.3l-9.6-14.7a1.4,1.4,0,0,1,0-1.5l9.6-14.6a1.4,1.4,0,0,1,2.3,0l9.7,14.6a1.4,1.4,0,0,1,0,1.5l-9.7,14.7A1.4,1.4,0,0,1,118.8,179.3Z" style="fill:none;stroke:#1a0b2a;stroke-linecap:round;stroke-linejoin:round;stroke-width:2px"/>
    <path d="M125.4,136.4c19.6-.5,28.4-3.6,37.2-11.1s12.1-21.8,12.1-37.2c0-27.7-17.6-49.2-43.4-53.7a76.8,76.8,0,0,0-11.1-.9,84.7,84.7,0,0,0-11.6.9C82.9,39,65.3,60.5,65.3,88.1c0,15.4,3.2,29.6,12.1,37.2s18.2,10.8,39.5,11.1Z" style="fill:none;stroke:#1d132d;stroke-miterlimit:10;stroke-width:2px"/>
    <path d="M109.2,136.5c-7,6.6-11.8,18.9-11.8,29.9,0,16,10.1,19.5,22.6,19.5s22.6-3.4,22.6-19.5c0-11.1-4.9-23.5-12-30.1" style="fill:none;stroke:#1d132d;stroke-miterlimit:10;stroke-width:2px"/>
  </g>
  <g>
    <title>01</title>
    <path d="M106.1,135.8V115.4h.1a22,22,0,0,1,14.1-5.1s.8,19.5.8,26.5" style="fill:#dce3ea"/>
    <path d="M106.6,121.3l-.2-2c-.7-1.6-.8-3.1-.2-4.1H106a135.3,135.3,0,0,1-21.5-2.7c-6.9-1.5-14.1-5-17.9-11.2h-.4c1.5,10,4.9,18.6,11.2,23.9s14.9,9.6,29,10.7C106.4,130.9,106.5,126.1,106.6,121.3Z" style="fill:#2e4159"/>
    <path d="M133.7,136.1V115.7h-.1a22,22,0,0,0-14.1-5.1s-.8,19.5-.8,26.5" style="fill:#dce3ea"/>
    <path d="M133.2,121.6l.2-2c.7-1.6.8-3.1.2-4.1h.2a135.3,135.3,0,0,0,21.5-2.7c6.9-1.5,14.1-5,17.9-11.2h.4c-1.5,10-4.9,18.6-11.2,23.9s-14.9,9.6-29,10.7C133.4,131.2,133.3,126.4,133.2,121.6Z" style="fill:#2e4159"/>
    <circle cx="93.1" cy="123" r="2.5" style="fill:#1d132d"/>
    <circle cx="84.9" cy="120.5" r="2.5" style="fill:#1d132d"/>
    <path d="M66.2,101.4c6.9,8,17.3,13.1,40,14.1" style="fill:none;stroke:#1d132d;stroke-linecap:round;stroke-linejoin:round;stroke-width:2px"/>
    <path d="M66.2,101.4c1.5,10,4.9,18.6,11.2,23.9,9.1,7.8,18.2,10.8,39.5,11.1H120" style="fill:none;stroke:#1d132d;stroke-miterlimit:10;stroke-width:2px"/>
    <path d="M106.1,135.8V115.4h.1a22,22,0,0,1,14.1-5.1" style="fill:none;stroke:#1d132d;stroke-linecap:round;stroke-linejoin:round;stroke-width:2px"/>
    <circle cx="146.7" cy="123" r="2.5" style="fill:#1d132d"/>
    <circle cx="154.9" cy="120.5" r="2.5" style="fill:#1d132d"/>
    <path d="M173.5,101.4c-6.9,8-17.3,13.1-40,14.1" style="fill:none;stroke:#1d132d;stroke-linecap:round;stroke-linejoin:round;stroke-width:2px"/>
    <path d="M173.5,101.4c-1.5,10-4.9,18.6-11.2,23.9-9.1,7.8-18.2,10.8-39.5,11.1h-3.1" style="fill:none;stroke:#1d132d;stroke-miterlimit:10;stroke-width:2px"/>
    <path d="M133.7,135.8V115.4h-.1a22,22,0,0,0-14.1-5.1" style="fill:none;stroke:#1d132d;stroke-linecap:round;stroke-linejoin:round;stroke-width:2px"/>
    <line x1="113.6" y1="136" x2="113.6" y2="123" style="fill:none;stroke:#1d132d;stroke-linecap:round;stroke-linejoin:round;stroke-width:2px"/>
    <line x1="120" y1="136" x2="120" y2="120.5" style="fill:none;stroke:#1d132d;stroke-linecap:round;stroke-linejoin:round;stroke-width:2px"/>
    <line x1="126.6" y1="136" x2="126.6" y2="123" style="fill:none;stroke:#1d132d;stroke-linecap:round;stroke-linejoin:round;stroke-width:2px"/>
  </g>
  <g>
    <title>06</title>
    <path d="M78.4,76.9a16.2,16.2,0,1,0,30.5,6.3Z" style="fill:#1d132d"/>
    <path d="M78.4,76.9a16.2,16.2,0,1,0,30.5,6.3Z" style="fill:none;stroke:#1d132d;stroke-linecap:round;stroke-linejoin:round;stroke-width:2px"/>
    <path d="M88.2,83a6.1,6.1,0,1,0,10.4,2Z" style="fill:#ff9a00"/>
    <path d="M162.9,76.9a16.2,16.2,0,1,1-30.5,6.3Z" style="fill:#1d132d"/>
    <path d="M162.9,76.9a16.2,16.2,0,1,1-30.5,6.3Z" style="fill:none;stroke:#1d132d;stroke-linecap:round;stroke-linejoin:round;stroke-width:2px"/>
    <path d="M153.1,82.9a6.1,6.1,0,1,1-10.4,2Z" style="fill:#ff9a00"/>
  </g>
  <g/>
</svg>