<svg xmlns="http://www.w3.org/2000/svg" viewBox="0 0 240 240"><title>ops</title><path d="M131.3,34.4a76.8,76.8,0,0,0-11.1-.9,84.7,84.7,0,0,0-11.6.9C82.9,39,65.3,60.5,65.3,88.1c0,15.4,3.2,29.6,12.1,37.2s18.2,10.8,39.5,11.1h-7.7c-7,6.6-11.8,18.9-11.8,29.9,0,16,10.1,19.5,22.6,19.5s22.6-3.4,22.6-19.5c0-11.1-4.9-23.5-12-30.1h-5.2c19.6-.5,28.4-3.6,37.2-11.1s12.1-21.8,12.1-37.2C174.7,60.5,157.1,39,131.3,34.4Z" style="fill:#00baac"/><path d="M122.2,176.6a7,7,0,0,1-4.2-.6,37,37,0,0,1-11.3-5.5c-2.2-1.6-4.2-2.5-5.7-4.6s-2-3.2-3.1-4.3a41.4,41.4,0,0,0-.3,5c0,16,10.1,19.5,22.6,19.5s22.6-3.4,22.6-19.5a41.7,41.7,0,0,0-.4-5.4C138.5,169,130.2,175.5,122.2,176.6Z" style="fill:#d9e0e7"/><path d="M120.7,181.7c-10.4,0-19.1-2.4-21.7-12.4l-0.7-.2c1.1,13.8,10.7,16.9,22.5,16.9s21.8-3.2,22.5-17.8l-0.5.2C140.3,179.1,131.4,181.7,120.7,181.7Z" style="fill:#180621;opacity:0.15"/><path d="M128.3,160a4.9,4.9,0,0,1-1.3,3,15.4,15.4,0,0,1-3.1,2.8,30.7,30.7,0,0,1-4.2,2.4,30.8,30.8,0,0,1-4.2-2.4,15.4,15.4,0,0,1-3.1-2.8,4.9,4.9,0,0,1-1.3-3v-12s7.7-7.4,17.1,0v12h0Zm-18-12.7v13.3a5.4,5.4,0,0,0,1.4,3.3,17.1,17.1,0,0,0,3.5,3.1,34.2,34.2,0,0,0,4.6,2.7,34.1,34.1,0,0,0,4.6-2.7,17.1,17.1,0,0,0,3.5-3.1,5.4,5.4,0,0,0,1.4-3.3V147.3c-10.3-8.3-18.9,0-18.9,0h0Z" style="fill:#fff"/><path d="M120.3,156.4v1.7a0.9,0.9,0,0,0,.9-0.8,0.6,0.6,0,0,0-.2-0.5l-0.7-.4h0Z" style="fill:#fff"/><path d="M122.4,158.9a3.8,3.8,0,0,1-2.1.8V161h-0.9v-1.3a7.4,7.4,0,0,1-2.8-.6v-1.8l1.4,0.5,1.5,0.3v-2.1l-0.4-.2a5,5,0,0,1-1.9-1.1,2.2,2.2,0,0,1-.5-1.5,2,2,0,0,1,.8-1.6,3.8,3.8,0,0,1,2.1-.8v-1h0.9v1a7.5,7.5,0,0,1,2.8.6l-0.6,1.6a7.2,7.2,0,0,0-2.1-.5v2l1.8,0.9a2.5,2.5,0,0,1,.8.8,2,2,0,0,1,.3,1,2.1,2.1,0,0,1-.8,1.7h0Zm-9.5-9.4v9.9a4.1,4.1,0,0,0,1,2.5,12.6,12.6,0,0,0,2.5,2.3,24.8,24.8,0,0,0,3.4,2,24.7,24.7,0,0,0,3.4-2,12.6,12.6,0,0,0,2.5-2.3,4.1,4.1,0,0,0,1-2.5v-9.9c-7.6-6.2-13.8,0-13.8,0h0Z" style="fill:#fff"/><path d="M118.5,153.3a0.6,0.6,0,0,0,.2.5l0.7,0.4v-1.6a0.8,0.8,0,0,0-.9.7h0Z" style="fill:#fff"/><path d="M142,160.9c-1.8,6.8-11.5,13.6-21.9,16.1h-0.3c-10.3-2.6-20.3-9.4-22.1-16.1" style="fill:none;stroke:#1d132d;stroke-linecap:round;stroke-linejoin:round;stroke-width:2px"/><path d="M130.5,136.2c-3.1.3-6.1,0.6-9.4,0.6a111.1,111.1,0,0,1-12.3-.4L102,146a41,41,0,0,0,17.6,3.6,40.7,40.7,0,0,0,17.8-3.7C137.2,145.6,130.9,136.7,130.5,136.2Z" style="fill:#180621;opacity:0.15"/><g style="opacity:0.30000000000000004"><path d="M108.7,44.1a84.7,84.7,0,0,1,11.6-.9,76.8,76.8,0,0,1,11.1.9c24.4,4.3,41.5,23.9,43.2,49.5q0.1-2.7.1-5.5c0-27.7-17.6-49.2-43.4-53.7a76.8,76.8,0,0,0-11.1-.9,84.7,84.7,0,0,0-11.6.9C82.9,39,65.3,60.5,65.3,88.1q0,2.8.1,5.5C67.1,68,84.3,48.4,108.7,44.1Z" style="fill:#fff"/></g><g style="opacity:0.30000000000000004"><path d="M108.7,44.1a84.7,84.7,0,0,1,11.6-.9,76.8,76.8,0,0,1,11.1.9c24.4,4.3,41.5,23.9,43.2,49.5q0.1-2.7.1-5.5c0-27.7-17.6-49.2-43.4-53.7a76.8,76.8,0,0,0-11.1-.9,84.7,84.7,0,0,0-11.6.9C82.9,39,65.3,60.5,65.3,88.1q0,2.8.1,5.5C67.1,68,84.3,48.4,108.7,44.1Z" style="fill:#fff"/></g><path d="M125.4,136.4c19.6-.5,28.4-3.6,37.2-11.1s12.1-21.8,12.1-37.2c0-27.7-17.6-49.2-43.4-53.7a76.8,76.8,0,0,0-11.1-.9,84.7,84.7,0,0,0-11.6.9C82.9,39,65.3,60.5,65.3,88.1c0,15.4,3.2,29.6,12.1,37.2s18.2,10.8,39.5,11.1h8.5Z" style="fill:none;stroke:#1d132d;stroke-miterlimit:10;stroke-width:2px"/><path d="M125.4,136.4c19.6-.5,28.4-3.6,37.2-11.1s12.1-21.8,12.1-37.2c0-27.7-17.6-49.2-43.4-53.7a76.8,76.8,0,0,0-11.1-.9,84.7,84.7,0,0,0-11.6.9C82.9,39,65.3,60.5,65.3,88.1c0,15.4,3.2,29.6,12.1,37.2s18.2,10.8,39.5,11.1h8.5Z" style="fill:none;stroke:#1d132d;stroke-miterlimit:10;stroke-width:2px"/><path d="M109.2,136.5c-7,6.6-11.8,18.9-11.8,29.9,0,16,10.1,19.5,22.6,19.5s22.6-3.4,22.6-19.5c0-11.1-4.9-23.5-12-30.1" style="fill:none;stroke:#1d132d;stroke-miterlimit:10;stroke-width:2px"/></svg>