<svg xmlns="http://www.w3.org/2000/svg" viewBox="0 0 240 240"><title>atribute</title><path d="M131.3,34.4a76.8,76.8,0,0,0-11.1-.9,84.7,84.7,0,0,0-11.6.9C82.9,39,65.3,60.5,65.3,88.1c0,15.4,3.2,29.6,12.1,37.2s18.2,10.8,39.5,11.1h-7.7c-7,6.6-11.8,18.9-11.8,29.9,0,16,10.1,19.5,22.6,19.5s22.6-3.4,22.6-19.5c0-11.1-4.9-23.5-12-30.1h-5.2c19.6-.5,28.4-3.6,37.2-11.1s12.1-21.8,12.1-37.2C174.7,60.5,157.1,39,131.3,34.4Z" style="fill:#f28e04"/><rect x="103.7" y="171.6" width="32.2" height="2.42" style="fill:#fff;opacity:0.3"/><polygon points="132 181 109.4 181 107.2 178.6 132 178.6 132 181" style="fill:#fff;opacity:0.3"/><path d="M112.2,164.7l0.3-.4,0.3-.3,0.3-.4,0.3-.3,0.3-.3,0.3-.4h-3l-0.4-1.1-1-2.8v0.1l-1.4,3.8c-0.1.2-.1,0.2-0.2,0.2h-2.7c-0.2,0-.2,0-0.2-0.2l-1.2-3.4-1.1-3v-0.2h2.1c0.2,0,.2,0,0.2.2l1.6,4.3h0l0.2-.5,1.4-3.8c0.1-.2.1-0.2,0.2-0.2h2.5c0.2,0,.2,0,0.2.2l1,2.6,0.6,1.6h0.1l1-2.8,0.5-1.4c0.1-.1.1-0.1,0.2-0.1h2.1l-1.3,3.7-0.9,2.6h0.1l2.3-2.7,2.9-3.5c0.2-.3.1-0.2,0.5-0.2h2.6l4.1,4.8h0.1l2-1.7-6.5-5.5h3.5l2.8,2.3,2.9,2.4,3.1,2.6,1.5,1.2h-3.3l-2.1-1.8h-0.1l-0.5.4-1.7,1.4h-3l-1.1-1.3h-4.6l1-1.2h2.3l-1.7-2h0l-4.7,5.5-1.2,1.4h-2.9Z" style="fill:#fff"/><path d="M131.2,157.1h0.1l1.4-1.2H136l-1.3,1.1-1.7,1.4h-0.3l-1.2-1-0.3-.2h-0.1Z" style="fill:#fff"/><g style="opacity:0.30000000000000004"><path d="M108.7,44.1a84.7,84.7,0,0,1,11.6-.9,76.8,76.8,0,0,1,11.1.9c24.4,4.3,41.5,23.9,43.2,49.5q0.1-2.7.1-5.5c0-27.7-17.6-49.2-43.4-53.7a76.8,76.8,0,0,0-11.1-.9,84.7,84.7,0,0,0-11.6.9C82.9,39,65.3,60.5,65.3,88.1q0,2.8.1,5.5C67.1,68,84.3,48.4,108.7,44.1Z" style="fill:#fff"/></g><path d="M97,171.3a20.1,20.1,0,0,0,2.4,6,13.5,13.5,0,0,0,3.1,4.1,12.1,12.1,0,0,0,3.2,1.8,30.4,30.4,0,0,0,6,1.7,1.2,1.2,0,0,0-.8-1,12.7,12.7,0,0,1-5.1-6c-0.4-1.1-.7-2.3-1.3-3.4s-3.4-4.1-5-6.3-1.2-2.9-2.1-1.5S96.8,170,97,171.3Z" style="fill:#2e4159"/><path d="M142.7,171.3a20.1,20.1,0,0,1-2.4,6,13.5,13.5,0,0,1-3.1,4.1,12.1,12.1,0,0,1-3.2,1.8,30.4,30.4,0,0,1-6,1.7,1.2,1.2,0,0,1,.8-1,12.7,12.7,0,0,0,5.1-6c0.4-1.1.7-2.3,1.3-3.4s3.4-4.1,5-6.3,1.2-2.9,2.1-1.5S142.9,170,142.7,171.3Z" style="fill:#2e4159"/><line x1="97.7" y1="164" x2="111.4" y2="185" style="fill:none;stroke:#1d132d;stroke-linecap:round;stroke-linejoin:round;stroke-width:2px"/><g style="opacity:0.30000000000000004"><path d="M108.7,44.1a84.7,84.7,0,0,1,11.6-.9,76.8,76.8,0,0,1,11.1.9c24.4,4.3,41.5,23.9,43.2,49.5q0.1-2.7.1-5.5c0-27.7-17.6-49.2-43.4-53.7a76.8,76.8,0,0,0-11.1-.9,84.7,84.7,0,0,0-11.6.9C82.9,39,65.3,60.5,65.3,88.1q0,2.8.1,5.5C67.1,68,84.3,48.4,108.7,44.1Z" style="fill:#fff"/></g><path d="M132,136.8c-7.4,0-14.8-.3-22.2-0.2-3.5.6-2,1.6-2,1.6l4.5,6.6h15.6l4.5-6.7h0.1a7.5,7.5,0,0,1,.1-1Z" style="fill:#d9e0e7"/><path d="M130.5,136.2c-3.1.3-6.1,0.6-9.4,0.6a111.1,111.1,0,0,1-12.3-.4L102,146a41,41,0,0,0,17.6,3.6,40.7,40.7,0,0,0,17.8-3.7C137.2,145.6,130.9,136.7,130.5,136.2Z" style="fill:#180621;opacity:0.15"/><path d="M125.4,136.4c19.6-.5,28.4-3.6,37.2-11.1s12.1-21.8,12.1-37.2c0-27.7-17.6-49.2-43.4-53.7a76.8,76.8,0,0,0-11.1-.9,84.7,84.7,0,0,0-11.6.9C82.9,39,65.3,60.5,65.3,88.1c0,15.4,3.2,29.6,12.1,37.2s18.2,10.8,39.5,11.1h8.5Z" style="fill:none;stroke:#1d132d;stroke-miterlimit:10;stroke-width:2px"/><path d="M125.4,136.4c19.6-.5,28.4-3.6,37.2-11.1s12.1-21.8,12.1-37.2c0-27.7-17.6-49.2-43.4-53.7a76.8,76.8,0,0,0-11.1-.9,84.7,84.7,0,0,0-11.6.9C82.9,39,65.3,60.5,65.3,88.1c0,15.4,3.2,29.6,12.1,37.2s18.2,10.8,39.5,11.1h8.5Z" style="fill:none;stroke:#1d132d;stroke-miterlimit:10;stroke-width:2px"/><path d="M109.2,136.5c-7,6.6-11.8,18.9-11.8,29.9,0,16,10.1,19.5,22.6,19.5s22.6-3.4,22.6-19.5c0-11.1-4.9-23.5-12-30.1" style="fill:none;stroke:#1d132d;stroke-miterlimit:10;stroke-width:2px"/><polyline points="132.3 138.2 127.8 144.9 112.2 144.9 107.7 138.3" style="fill:none;stroke:#1d132d;stroke-linecap:round;stroke-linejoin:round;stroke-width:2px"/><line x1="103" y1="171.3" x2="137.2" y2="171.4" style="fill:none;stroke:#1d132d;stroke-linecap:round;stroke-linejoin:round;stroke-width:2px"/><line x1="142.2" y1="164" x2="128.5" y2="184.9" style="fill:none;stroke:#1d132d;stroke-linecap:round;stroke-linejoin:round;stroke-width:2px"/><line x1="107.4" y1="178.2" x2="132.2" y2="178.2" style="fill:none;stroke:#1d132d;stroke-linecap:round;stroke-linejoin:round;stroke-width:2px"/></svg>