<svg xmlns="http://www.w3.org/2000/svg" viewBox="0 0 240 240"><title>09</title><path d="M125.4,136.4c19.6-.5,28.4-3.6,37.2-11.1s12.1-21.8,12.1-37.2c0-27.7-17.6-49.2-43.4-53.7a76.8,76.8,0,0,0-11.1-.9,84.7,84.7,0,0,0-11.6.9C82.9,39,65.3,60.5,65.3,88.1c0,15.4,3.2,29.6,12.1,37.2s18.2,10.8,39.5,11.1h8.5Z" style="fill:#ff3a44"/><path d="M109.2,136.5c-7,6.6-11.8,18.9-11.8,29.9,0,16,10.1,19.5,22.6,19.5s22.6-3.4,22.6-19.5c0-11.1-4.9-23.5-12-30.1" style="fill:#ff3a44"/><polyline points="140.4 153.2 120.2 161.9 99.7 153.1 97.6 162.1 120.2 171.8 142 162.4" style="fill:#dce3ea"/><g style="opacity:0.30000000000000004"><path d="M108.7,45a84.7,84.7,0,0,1,11.6-.9,76.8,76.8,0,0,1,11.1.9c24.4,4.3,41.5,23.9,43.2,49.5q0.1-2.7.1-5.5c0-27.7-17.6-49.2-43.4-53.7a76.8,76.8,0,0,0-11.1-.9,84.7,84.7,0,0,0-11.6.9c-25.7,4.5-43.4,26-43.4,53.7q0,2.8.1,5.5C67.1,68.9,84.3,49.3,108.7,45Z" style="fill:#fff"/></g><path d="M125.4,136.4c19.6-.5,28.4-3.6,37.2-11.1s12.1-21.8,12.1-37.2c0-27.7-17.6-49.2-43.4-53.7a76.8,76.8,0,0,0-11.1-.9,84.7,84.7,0,0,0-11.6.9C82.9,39,65.3,60.5,65.3,88.1c0,15.4,3.2,29.6,12.1,37.2s18.2,10.8,39.5,11.1h8.5Z" style="fill:none;stroke:#1d132d;stroke-miterlimit:10;stroke-width:2px"/><path d="M109.2,136.5c-7,6.6-11.8,18.9-11.8,29.9,0,16,10.1,19.5,22.6,19.5s22.6-3.4,22.6-19.5c0-11.1-4.9-23.5-12-30.1" style="fill:none;stroke:#1d132d;stroke-miterlimit:10;stroke-width:2px"/><polygon points="120 154.8 110 147.9 116.7 142.5 123.3 142.5 130 147.9 120 154.8" style="fill:#ffe315"/><path d="M116.7,143a1.8,1.8,0,0,0-.2.8c0,1.3,1.6,2.4,3.6,2.4s3.6-1.1,3.6-2.4a1.8,1.8,0,0,0-.3-1h-6.6Z" style="fill:#fff;opacity:0.5"/><polygon points="120 150.5 112.8 145.5 110 147.9 120 154.8 130 147.9 127.1 145.5 120 150.5" style="fill:#ffc817"/><polygon points="120 154.8 110 147.9 116.7 142.5 123.3 142.5 130 147.9 120 154.8" style="fill:none;stroke:#1d132d;stroke-linecap:round;stroke-linejoin:round;stroke-width:2px"/><polyline points="142 162.4 120.2 171.8 97.6 162.1" style="fill:none;stroke:#1d132d;stroke-linecap:round;stroke-linejoin:round;stroke-width:2px"/><polyline points="140.4 153.2 120.2 161.9 99.7 153.1" style="fill:none;stroke:#1d132d;stroke-linecap:round;stroke-linejoin:round;stroke-width:2px"/></svg>