<svg xmlns="http://www.w3.org/2000/svg" viewBox="0 0 240 240"><title>02</title><g style="opacity:0.5"><path d="M108.6,81.5c.8,4.6.9,15.5.9,15.5s-32.2,12.7-35.4-9.6c-1.6-11.2,7.5-20.7,16.7-20.7S107,72.4,108.6,81.5Z" style="fill:#fff"/><path d="M99.9,99.7c-7.6,1.2-15.1-1.6-16.3-10.2s6.1-16.8,13.5-16.8c3.7,0,9.1,2.4,11,7" style="fill:#fff"/></g><g style="opacity:0.5"><path d="M131.1,81.5c-.8,4.6-.9,15.5-.9,15.5s32.3,12.7,35.4-9.6c1.6-11.2-7.5-20.7-16.7-20.7S132.7,72.4,131.1,81.5Z" style="fill:#fff"/><path d="M139.8,99.7c7.6,1.2,15.1-1.6,16.3-10.2s-6.1-16.8-13.5-16.8c-3.7,0-9.1,2.4-11,7" style="fill:#fff"/></g><path d="M84,83.3a18.6,18.6,0,0,0,.3,9.1c2.3,6.3,11,9.7,25.2,4.5l-1.4-17.2c-1.6-3.8-5.6-6.1-9-6.8L97,72.7C91.4,72.7,85.8,77.2,84,83.3Z" style="fill:#36c8e3"/><path d="M155.7,83.3a18.6,18.6,0,0,1-.3,9.1c-2.3,6.3-11,9.7-25.2,4.5l1.4-17.2c1.6-3.8,5.6-6.1,9-6.8l2.1-.2C148.3,72.7,153.9,77.2,155.7,83.3Z" style="fill:#36c8e3"/><path d="M99.8,95.1a8.6,8.6,0,1,1-4.1-16.7" style="fill:none;stroke:#fff;stroke-linecap:round;stroke-linejoin:round;stroke-width:2px"/><circle cx="99.8" cy="77.9" r="1" style="fill:#fff"/><path d="M139.8,95.1a8.6,8.6,0,0,0,4.1-16.7" style="fill:none;stroke:#fff;stroke-linecap:round;stroke-linejoin:round;stroke-width:2px"/><circle cx="139.9" cy="77.9" r="1" style="fill:#fff"/><g style="opacity:0.15"><path d="M163,75.2c-3.2-5.1-8.6-8.5-14.1-8.5-9.2,0-16.1,5.7-17.8,14.8-.8,4.6-.9,15.5-.9,15.5h.4c0-.3-.1-.7-.1-1a20.3,20.3,0,0,1,3.1-11.6,24.2,24.2,0,0,1,6.1-6.7h0l1.9-1.3h0l2-1.1h0l2.1-.9h0l2.2-.7h0a21.6,21.6,0,0,1,5.7-.8A22.3,22.3,0,0,1,163,75.2Z" style="fill:#180621"/><path d="M91,66.8c-5.5,0-10.9,3.4-14.1,8.5a22.3,22.3,0,0,1,9.5-2.1,21.6,21.6,0,0,1,5.7.8h0l2.2.7h0l2.1.9h0l2,1.1h0l1.9,1.3h0a24.2,24.2,0,0,1,6.1,6.7,20.3,20.3,0,0,1,3.1,11.6c0,.3,0,.7-.1,1h.4s-.1-10.9-.9-15.5C107.2,72.4,100.3,66.8,91,66.8Z" style="fill:#180621"/></g><path d="M108.6,81.5c.8,4.6.9,15.5.9,15.5s-32.2,12.7-35.4-9.6c-1.6-11.2,7.5-20.7,16.7-20.7S107,72.4,108.6,81.5Z" style="fill:none;stroke:#1d132d;stroke-linecap:round;stroke-linejoin:round;stroke-width:2px"/><path d="M99.9,99.7c-7.6,1.2-15.1-1.6-16.3-10.2s6.1-16.8,13.5-16.8c3.7,0,9.1,2.4,11,7" style="fill:none;stroke:#1d132d;stroke-linecap:round;stroke-linejoin:round;stroke-width:2px"/><path d="M131.1,81.5c-.8,4.6-.9,15.5-.9,15.5s32.3,12.7,35.4-9.6c1.6-11.2-7.5-20.7-16.7-20.7S132.7,72.4,131.1,81.5Z" style="fill:none;stroke:#1d132d;stroke-linecap:round;stroke-linejoin:round;stroke-width:2px"/><path d="M139.8,99.7c7.6,1.2,15.1-1.6,16.3-10.2s-6.1-16.8-13.5-16.8c-3.7,0-9.1,2.4-11,7" style="fill:none;stroke:#1d132d;stroke-linecap:round;stroke-linejoin:round;stroke-width:2px"/></svg>