<svg xmlns="http://www.w3.org/2000/svg" viewBox="0 0 240 240"><title>05</title><circle cx="148.2" cy="84.4" r="16.2" style="fill:#36c8e3"/><circle cx="148.2" cy="84.4" r="16.2" style="fill:#dce3ea"/><circle cx="92" cy="84.4" r="16.2" style="fill:#36c8e3"/><circle cx="92" cy="84.4" r="16.2" style="fill:#dce3ea"/><g style="opacity:0.5"><path d="M92,68.1a16.2,16.2,0,0,0-14.3,8.6,16.4,16.4,0,0,0,28.2-.7A16.2,16.2,0,0,0,92,68.1Z" style="fill:#fff"/></g><circle cx="92" cy="84.4" r="16.2" style="fill:none;stroke:#1d132d;stroke-linecap:round;stroke-linejoin:round;stroke-width:2px"/><line x1="77" y1="78.1" x2="93.1" y2="78.1" style="fill:none;stroke:#1d132d;stroke-linecap:round;stroke-linejoin:round;stroke-width:2px"/><line x1="77" y1="83.9" x2="107.8" y2="84" style="fill:none;stroke:#1d132d;stroke-linecap:round;stroke-linejoin:round;stroke-width:2px"/><line x1="77" y1="89.7" x2="107" y2="90" style="fill:none;stroke:#1d132d;stroke-linecap:round;stroke-linejoin:round;stroke-width:2px"/><line x1="89.6" y1="95.6" x2="103.2" y2="95.5" style="fill:none;stroke:#1d132d;stroke-linecap:round;stroke-linejoin:round;stroke-width:2px"/><line x1="88" y1="72.6" x2="103.2" y2="72.6" style="fill:none;stroke:#1d132d;stroke-linecap:round;stroke-linejoin:round;stroke-width:2px"/><line x1="80.8" y1="72.6" x2="84.3" y2="72.6" style="fill:none;stroke:#1d132d;stroke-linecap:round;stroke-linejoin:round;stroke-width:2px"/><line x1="97.1" y1="78.1" x2="106.7" y2="78.1" style="fill:none;stroke:#1d132d;stroke-linecap:round;stroke-linejoin:round;stroke-width:2px"/><g style="opacity:0.5"><path d="M148.2,68.1a16.2,16.2,0,0,0-14.3,8.6,16.4,16.4,0,0,0,28.2-.7A16.2,16.2,0,0,0,148.2,68.1Z" style="fill:#fff"/></g><circle cx="148.2" cy="84.4" r="16.2" style="fill:none;stroke:#1d132d;stroke-linecap:round;stroke-linejoin:round;stroke-width:2px"/><line x1="133.3" y1="78.1" x2="149.3" y2="78.1" style="fill:none;stroke:#1d132d;stroke-linecap:round;stroke-linejoin:round;stroke-width:2px"/><line x1="133.3" y1="83.9" x2="164.1" y2="84" style="fill:none;stroke:#1d132d;stroke-linecap:round;stroke-linejoin:round;stroke-width:2px"/><line x1="133.3" y1="89.7" x2="163.2" y2="90" style="fill:none;stroke:#1d132d;stroke-linecap:round;stroke-linejoin:round;stroke-width:2px"/><line x1="145.8" y1="95.6" x2="159.5" y2="95.5" style="fill:none;stroke:#1d132d;stroke-linecap:round;stroke-linejoin:round;stroke-width:2px"/><line x1="144.2" y1="72.6" x2="159.5" y2="72.6" style="fill:none;stroke:#1d132d;stroke-linecap:round;stroke-linejoin:round;stroke-width:2px"/><line x1="137" y1="72.6" x2="140.5" y2="72.6" style="fill:none;stroke:#1d132d;stroke-linecap:round;stroke-linejoin:round;stroke-width:2px"/><line x1="153.3" y1="78.1" x2="162.9" y2="78.1" style="fill:none;stroke:#1d132d;stroke-linecap:round;stroke-linejoin:round;stroke-width:2px"/></svg>