<svg xmlns="http://www.w3.org/2000/svg" width="240" height="240" viewBox="0 0 240 240"><defs><style>.cls-1{fill:#7c00cc;}.cls-1,.cls-12,.cls-13,.cls-17,.cls-18,.cls-19,.cls-35,.cls-36,.cls-41{isolation:isolate;}.cls-1,.cls-12,.cls-14,.cls-36{opacity:0.2;}.cls-2,.cls-44,.cls-48{fill:#5e25cc;}.cls-2,.cls-50,.cls-58{opacity:0.8;}.cls-3{fill:#9842e2;}.cls-4{fill:#8638d5;}.cls-5{fill:#503237;}.cls-10,.cls-20,.cls-31,.cls-33,.cls-55,.cls-56,.cls-59,.cls-6,.cls-62,.cls-64{fill:none;}.cls-10,.cls-20,.cls-21,.cls-26,.cls-28,.cls-31,.cls-38,.cls-55,.cls-6,.cls-64{stroke:#1d132d;}.cls-31,.cls-33,.cls-55,.cls-56,.cls-59,.cls-6,.cls-62,.cls-64{stroke-linecap:round;stroke-linejoin:round;}.cls-10,.cls-21,.cls-26,.cls-28,.cls-33,.cls-38,.cls-59,.cls-6{stroke-width:2px;}.cls-7{fill:#ffd3f5;}.cls-8{opacity:0.3;}.cls-12,.cls-13,.cls-18,.cls-40,.cls-9{fill:#fff;}.cls-10,.cls-20,.cls-21,.cls-26,.cls-28,.cls-38{stroke-miterlimit:10;}.cls-11{fill:#273a56;}.cls-13{opacity:0.1;}.cls-15{fill:#e83a27;}.cls-16{fill:#dce3ea;}.cls-17,.cls-19,.cls-25,.cls-41{fill:#180621;}.cls-17,.cls-24,.cls-35{opacity:0.15;}.cls-18,.cls-30{opacity:0.5;}.cls-19,.cls-54{opacity:0.3;}.cls-21{fill:#963ab5;}.cls-22{fill:#ff81a2;}.cls-23{fill:#1d132d;}.cls-26{fill:#60c2e8;}.cls-27,.cls-38{fill:#c6db45;}.cls-28{fill:#805eea;}.cls-29{fill:#36c8e3;}.cls-31{stroke-width:1.5px;}.cls-32{fill:#d9e3ea;}.cls-33{stroke:#1a0b2a;}.cls-34{fill:#1d3f59;}.cls-35,.cls-36{fill:#15011c;}.cls-37{fill:#ff3721;}.cls-39{fill:#ff9a00;}.cls-40{opacity:0.7;}.cls-41,.cls-44{opacity:0.2;}.cls-42,.cls-43{fill:#ed68fc;}.cls-42{opacity:0.35;}.cls-45{fill:#ffa1f2;}.cls-46{fill:#efb600;}.cls-47{fill:#ffeb36;}.cls-49{fill:#dd8300;}.cls-50,.cls-57{fill:#9e4700;}.cls-51{fill:#181e44;}.cls-52{fill:#273254;}.cls-53,.cls-54{fill:#4ddb36;}.cls-56{stroke:#934b03;}.cls-57{opacity:0.37;}.cls-58{fill:#491cb7;}.cls-59{stroke:#a85f0f;}.cls-60{fill:#182a47;}.cls-61{fill:aqua;opacity:0.4;}.cls-62{stroke:aqua;stroke-width:4px;}.cls-63{fill:#2e4159;}.cls-64{stroke-width:2px;}</style></defs><g id="Слой_2" data-name="Слой 2"><rect class="cls-1" x="-3.21" y="-3.21" width="246.41" height="246.41"/><polygon class="cls-2" points="204.3 108.22 35.82 108.22 64.94 63.56 175.18 63.56 204.3 108.22"/><polygon class="cls-3" points="204.3 108.22 35.82 108.22 64.94 63.56 175.18 63.56 204.3 108.22"/><polygon class="cls-4" points="204.3 108.22 35.82 108.22 64.94 63.56 175.18 63.56 204.3 108.22"/><polygon class="cls-3" points="186.32 100.23 53.03 100.23 71.73 71.55 167.61 71.55 186.32 100.23"/><polygon class="cls-5" points="186.27 99.6 52.68 99.6 71.43 70.92 167.53 70.92 186.27 99.6"/><polygon class="cls-2" points="186.27 99.6 52.68 99.6 71.43 70.92 167.53 70.92 186.27 99.6"/><polygon class="cls-6" points="204.3 108.22 35.82 108.22 64.94 63.56 175.18 63.56 204.3 108.22"/><polygon class="cls-6" points="186.32 100.23 53.03 100.23 71.73 71.55 167.61 71.55 186.32 100.23"/><path class="cls-7" d="M88.24,24.45a43.81,43.81,0,0,0-6-2.31,49.74,49.74,0,0,0-6.61-1.38c-15.06-1.67-28.39,7.51-32.87,22.9-2.5,8.59-3,17,.7,22.71,3.61,5.51,8.11,8.77,19.14,12.27,3.44.79,6.88,1.61,10.25,2.66C81,83,85.7,82.46,91,80.1c6.13-2.75,10.29-10.19,12.79-18.77C108.19,46.05,101.89,31.15,88.24,24.45Z"/><path class="cls-7" d="M59.34,77.73l-.22.12c.48.11,1,.21,1.43.33l1.64.38Z"/><g class="cls-8"><path class="cls-9" d="M74,26.24a49.55,49.55,0,0,1,6.62,1.38,44.18,44.18,0,0,1,6,2.31C99.61,36.29,106,50,102.74,64.55c.33-1,.65-2,1-3.06,4.5-15.44-1.82-30.29-15.47-37a45.47,45.47,0,0,0-6-2.3,48.06,48.06,0,0,0-6.62-1.39C60.49,19.2,47.18,28.33,42.69,43.72c-.3,1-.58,2.07-.83,3.08C47,32.8,59.74,24.67,74,26.24Z"/></g><path class="cls-10" d="M68.36,80.42c11,2.9,16.42,2.6,22.54-.15s10.29-10.19,12.79-18.78c4.5-15.44-1.82-30.29-15.47-37a45.47,45.47,0,0,0-6-2.3,48.06,48.06,0,0,0-6.62-1.39C60.49,19.2,47.18,28.33,42.69,43.72c-2.5,8.59-3,17,.71,22.71s8.39,9,20.22,12.6l4.74,1.39Z"/><g class="cls-8"><path class="cls-9" d="M74,26.24a49.55,49.55,0,0,1,6.62,1.38,44.18,44.18,0,0,1,6,2.31C99.61,36.29,106,50,102.74,64.55c.33-1,.65-2,1-3.06,4.5-15.44-1.82-30.29-15.47-37a45.47,45.47,0,0,0-6-2.3,48.06,48.06,0,0,0-6.62-1.39C60.49,19.2,47.18,28.33,42.69,43.72c-.3,1-.58,2.07-.83,3.08C47,32.8,59.74,24.67,74,26.24Z"/></g><path class="cls-10" d="M68.36,80.42c11,2.9,16.42,2.6,22.54-.15s10.29-10.19,12.79-18.78c4.5-15.44-1.82-30.29-15.47-37a45.47,45.47,0,0,0-6-2.3,48.06,48.06,0,0,0-6.62-1.39C60.49,19.2,47.18,28.33,42.69,43.72c-2.5,8.59-3,17,.71,22.71s8.39,9,20.22,12.6l4.74,1.39Z"/><path class="cls-11" d="M57.07,77C49.61,74.17,46,71.18,43,66.48a9.29,9.29,0,0,1-1.42-2.83c-.65-2.73-1.07-11.26-1.07-11.26,5.84,10,21.06,13.27,30,8.48h0c5,8.65,18.59,13.22,30,9.22,0,0-4.55,6.9-7.11,8.64a19.19,19.19,0,0,1-2.72,1.63c-5.09,2.32-9.74,2.91-17.55,1.29l.11,0a11.81,11.81,0,0,0-9.2,1.68l-.06,0A11.76,11.76,0,0,0,57,77"/><path class="cls-12" d="M100.43,69.8c-9.64,5-24.59-.33-29.53-8.91l-.11,0L64.26,83.27l.11,0a11.77,11.77,0,0,1,9.2-1.68l-.11,0c7.81,1.61,12.46,1,17.55-1.3,1-.44,2-1.36,2.91-1.87C96.5,77.06,100.43,69.8,100.43,69.8Z"/><path class="cls-13" d="M70,63.66h0c5,7.7,17.47,12.11,28.42,9.37,1.1-1.67,1.91-3,1.91-3C89,74,75.83,69.53,70.9,60.89h0c-8.94,4.72-24.15,1.49-30-8.5,0,0,.11,1.91.29,4.2C47.83,64.7,61.83,67.51,70,63.66Z"/><g class="cls-14"><path class="cls-9" d="M59.41,72.73a.59.59,0,0,1,.27-1.14l4.4.68a.59.59,0,0,1-.16,1.17l-4.4-.68Z"/><path class="cls-9" d="M60.62,69.39a.58.58,0,0,1-.43-.7.58.58,0,0,1,.7-.43l4.4.68a.57.57,0,0,1,.5.66.59.59,0,0,1-.66.5l-4.4-.68Z"/></g><line class="cls-6" x1="64.12" y1="72.53" x2="59.65" y2="71.89"/><line class="cls-6" x1="65.26" y1="69.23" x2="60.86" y2="68.55"/><g class="cls-14"><path class="cls-9" d="M74,77a.57.57,0,0,0,.74-.36.58.58,0,0,0-.35-.74l-4.08-1.79a.59.59,0,1,0-.49,1.07L73.9,77Z"/><path class="cls-9" d="M74.78,73.52a.58.58,0,0,0,.74-.36.57.57,0,0,0-.36-.74l-4.07-1.79a.59.59,0,0,0-.78.28.58.58,0,0,0,.29.78l4.07,1.79Z"/></g><line class="cls-6" x1="70.14" y1="74.28" x2="74.26" y2="76.15"/><line class="cls-6" x1="70.95" y1="70.89" x2="75.03" y2="72.68"/><path class="cls-6" d="M64.26,83.27h0a11.81,11.81,0,0,1,9.2-1.67l-.12,0c7.82,1.61,12.47,1,17.56-1.3a15.64,15.64,0,0,0,6.53-5.17,40.34,40.34,0,0,0,3.88-7.1c-6.06,8.34-25.22,2.09-30.56-7.21h.06c-9.56,5-29-.1-29.66-10.33a46.18,46.18,0,0,0-.54,8.07,16.27,16.27,0,0,0,2.73,7.87c3,4.7,6.65,7.69,14.11,10.53l-.11,0a11.78,11.78,0,0,1,6.86,6.36h0"/><polygon class="cls-11" points="77.64 59.35 98.51 56.23 101.9 53.53 84.95 48.59 79.71 50.39 69 47.27 65.55 42.94 48.65 38.02 50 42.1 65.93 55.94 77.64 59.35"/><path class="cls-15" d="M68.7,46.72a6.1,6.1,0,0,0,11,5.3,6.2,6.2,0,0,0,.56-1.93Z"/><line class="cls-6" x1="104.24" y1="54.21" x2="98" y2="52.39"/><polygon class="cls-6" points="77.64 59.35 98.51 56.23 101.9 53.53 84.95 48.59 79.71 50.39 69 47.27 65.55 42.94 48.65 38.02 50 42.1 65.93 55.94 77.64 59.35"/><line class="cls-6" x1="46.14" y1="37.28" x2="52.39" y2="39.1"/><path class="cls-16" d="M40.19,42.5,65.92,67.94A9.23,9.23,0,0,1,66,81h0A9.22,9.22,0,0,1,53,81L27.25,55.58"/><path class="cls-17" d="M40.19,42.5,65.92,67.94A9.23,9.23,0,0,1,66,81h0A9.22,9.22,0,0,1,53,81L27.25,55.58"/><path class="cls-11" d="M47,49.2l-6.78-6.7L27.25,55.58l7.28,7.2C40.75,61,44.59,55.06,47,49.2Z"/><path class="cls-17" d="M58,76,32.27,50.51l-5,5.07L53,81A9.22,9.22,0,0,0,66,81h0a9.1,9.1,0,0,0,2-3A9.24,9.24,0,0,1,58,76Z"/><path class="cls-10" d="M40.19,42.5,65.92,67.94A9.23,9.23,0,0,1,66,81h0A9.22,9.22,0,0,1,53,81L27.25,55.58"/><path class="cls-10" d="M47.59,49.54a21.38,21.38,0,0,1-5.15,8.13h0a21.33,21.33,0,0,1-7.94,5.19"/><path class="cls-16" d="M35.17,50.47a18.15,18.15,0,0,1-25.65.15,17.82,17.82,0,0,1-3.56-5,6.33,6.33,0,1,1,11.38-5.54,5.48,5.48,0,1,0,8.78-6.28,5.38,5.38,0,0,0-2-1.27A6.33,6.33,0,1,1,28.4,20.64a18.14,18.14,0,0,1,6.77,29.83Z"/><path class="cls-18" d="M35.17,50.47a18.15,18.15,0,0,1-25.65.15,17.82,17.82,0,0,1-3.56-5,6.33,6.33,0,1,1,11.38-5.54,5.48,5.48,0,1,0,8.78-6.28,5.38,5.38,0,0,0-2-1.27A6.33,6.33,0,1,1,28.4,20.64a18.14,18.14,0,0,1,6.77,29.83Z"/><path class="cls-17" d="M35.17,50.47a18.15,18.15,0,0,1-25.65.15,17.82,17.82,0,0,1-3.56-5,6.33,6.33,0,1,1,11.38-5.54,5.48,5.48,0,1,0,8.78-6.28,5.38,5.38,0,0,0-2-1.27A6.33,6.33,0,1,1,28.4,20.64a18.14,18.14,0,0,1,6.77,29.83Z"/><path class="cls-16" d="M27,35.19A5.49,5.49,0,0,1,21.61,43c2.89,2.87,4.48,7.79,5.1,12.2,1.92-.48,3.05-1.12,3.64-1.92a22.15,22.15,0,0,1-3-8.93A35.91,35.91,0,0,1,28,35.55C27.66,35.41,27.3,35.31,27,35.19Z"/><path class="cls-16" d="M19,42.57c-.26-.55-1.58-.94-2-1.37A5.47,5.47,0,0,0,9.27,49,5.24,5.24,0,0,0,10.79,50a5.47,5.47,0,0,1,1.08-6.18c1.67-1.69,3.86-2.81,6.84-.92C18.71,42.92,19,42.58,19,42.57Z"/><path class="cls-16" d="M34.11,25.05a4.9,4.9,0,0,0-1-1.48,5.59,5.59,0,0,0-7.87.36,5.58,5.58,0,0,0-.26,7.87,5,5,0,0,0,1.52,1,5.95,5.95,0,0,1,7.67-7.74A.05.05,0,0,1,34.11,25.05Z"/><path class="cls-19" d="M22.87,27a6.37,6.37,0,0,1,8.06-3.86A17.07,17.07,0,0,1,36.12,26a15.61,15.61,0,0,0-1.23-1.35,17.36,17.36,0,0,0-6.53-4.09,6.39,6.39,0,0,0-8.07,3.86c-1.09,3,1.11,7,4.74,8.38C24.22,31.34,22.23,28.76,22.87,27Z"/><path class="cls-19" d="M8.47,48.14a6.36,6.36,0,0,1,3-8.42c1.87-.93,4.73.12,6.43,1-1.57-2.93-6-5.06-9-3.56a6.36,6.36,0,0,0-3,8.42,17.63,17.63,0,0,0,3.5,4.9,17.83,17.83,0,0,0,1.38,1.23A17.32,17.32,0,0,1,8.47,48.14Z"/><ellipse class="cls-9" cx="27.69" cy="24.3" rx="1.78" ry="1.23" transform="translate(-6.27 10.02) rotate(-18.46)"/><ellipse class="cls-9" cx="12.28" cy="41.45" rx="1.78" ry="1.23" transform="translate(-12.5 6.02) rotate(-18.46)"/><path class="cls-10" d="M35.17,50.47a18.15,18.15,0,0,1-25.65.15,17.82,17.82,0,0,1-3.56-5,6.33,6.33,0,1,1,11.38-5.54,5.48,5.48,0,1,0,8.78-6.28,5.38,5.38,0,0,0-2-1.27A6.33,6.33,0,1,1,28.4,20.64a18.14,18.14,0,0,1,6.77,29.83Z"/><path class="cls-20" d="M8.89,49.46a6.11,6.11,0,0,1,.83-8.6A6.11,6.11,0,0,1,18.28,42"/><path class="cls-20" d="M25.88,33c-3.19-2.91-3.47-6.5-1.18-8.89s5.79-2.48,9.22.18"/><path class="cls-21" d="M114.05,65.08c11.48-.37,16.63-2.22,21.75-6.64s7-12.82,6.95-21.84c-.1-16.23-10.49-28.76-25.62-31.3a44.23,44.23,0,0,0-6.5-.48,48.36,48.36,0,0,0-6.8.57C88.79,8.18,78.56,20.84,78.67,37c0,9,2,17.32,7.22,21.74s10.7,6.26,23.18,6.36Z"/><g class="cls-8"><path class="cls-9" d="M103.93,11.07a48.34,48.34,0,0,1,6.79-.57,44.37,44.37,0,0,1,6.51.49c14.31,2.42,24.4,13.84,25.49,28.83,0-1,0-2.13,0-3.22-.1-16.23-10.49-28.76-25.62-31.3a44.23,44.23,0,0,0-6.5-.48,48.36,48.36,0,0,0-6.8.57C88.79,8.18,78.56,20.84,78.67,37c0,1.09,0,2.16.08,3.22C79.65,25.22,89.65,13.68,103.93,11.07Z"/></g><path class="cls-10" d="M114.05,65.08c11.48-.37,16.63-2.22,21.75-6.64s7-12.82,6.95-21.84c-.1-16.23-10.49-28.76-25.62-31.3a44.23,44.23,0,0,0-6.5-.48,48.36,48.36,0,0,0-6.8.57C88.79,8.18,78.56,20.84,78.67,37c0,9,2,17.32,7.22,21.74s10.7,6.26,23.18,6.36Z"/><g class="cls-8"><path class="cls-9" d="M103.93,11.07a48.34,48.34,0,0,1,6.79-.57,44.37,44.37,0,0,1,6.51.49c14.31,2.42,24.4,13.84,25.49,28.83,0-1,0-2.13,0-3.22-.1-16.23-10.49-28.76-25.62-31.3a44.23,44.23,0,0,0-6.5-.48,48.36,48.36,0,0,0-6.8.57C88.79,8.18,78.56,20.84,78.67,37c0,1.09,0,2.16.08,3.22C79.65,25.22,89.65,13.68,103.93,11.07Z"/></g><path class="cls-10" d="M114.05,65.08c11.48-.37,16.63-2.22,21.75-6.64s7-12.82,6.95-21.84c-.1-16.23-10.49-28.76-25.62-31.3a44.23,44.23,0,0,0-6.5-.48,48.36,48.36,0,0,0-6.8.57C88.79,8.18,78.56,20.84,78.67,37c0,9,2,17.32,7.22,21.74s10.7,6.26,23.18,6.36Z"/><path class="cls-16" d="M111.37,65.49c-15.63.49-21.28-1.68-26.16-5.23l-1-.85c-6.66-6.08-5.3-15.12-5.3-15.12S86.63,51.1,101.5,53h.06l8.92-6.28a1.16,1.16,0,0,1,1.29,0l9.12,5.59H121c14.25-2.86,21.67-10,21.67-10s1.93,9-4.33,15.43l-1,.85c-4.64,3.86-10.15,6.38-25.78,6.88"/><path class="cls-11" d="M99.74,58.51c0,1.7-1.8,2.46-4,2.07-11-2-10-8.51-10-8.51A59.37,59.37,0,0,0,96.29,55.5C98.36,55.84,99.75,57,99.74,58.51Z"/><path class="cls-6" d="M111.37,65.49c-15.63.49-21.28-1.68-26.16-5.23l-1-.85c-6.66-6.08-5.3-15.12-5.3-15.12S86.63,51.1,101.5,53h.06l8.92-6.28a1.16,1.16,0,0,1,1.29,0l9.12,5.59H121c14.25-2.86,21.67-10,21.67-10s1.93,9-4.33,15.43l-1,.85c-4.64,3.86-10.15,6.38-25.78,6.88"/><path class="cls-6" d="M99.74,58.51c0,1.7-1.8,2.46-4,2.07-11-2-10-8.51-10-8.51A59.37,59.37,0,0,0,96.29,55.5C98.36,55.84,99.75,57,99.74,58.51Z"/><path class="cls-11" d="M122.77,57.77c.11,1.71,2,2.35,4.17,1.81,10.86-2.7,9.47-9.12,9.47-9.12A59,59,0,0,1,126,54.55C124,55,122.66,56.31,122.77,57.77Z"/><path class="cls-6" d="M122.77,57.77c.11,1.71,2,2.35,4.17,1.81,10.86-2.7,9.47-9.12,9.47-9.12A59,59,0,0,1,126,54.55C124,55,122.66,56.31,122.77,57.77Z"/><path class="cls-17" d="M96.29,55.5a59.37,59.37,0,0,1-10.63-3.43,5.12,5.12,0,0,0,.24,2.17,58.25,58.25,0,0,0,10.46,3.32,4.25,4.25,0,0,1,3.17,1.89,1.93,1.93,0,0,0,.21-.94C99.75,57,98.36,55.84,96.29,55.5Z"/><polyline class="cls-11" points="118.53 64.91 118.22 55.33 118.22 55.21 111.26 50.91 104.36 55.77 104.36 55.89 104.66 65.41"/><path class="cls-17" d="M138.23,54l-1,.85c-4.64,3.85-10.15,6.38-25.77,6.88h-.24C95.62,62.22,90,60.05,85.09,56.5l-1-.79a16.89,16.89,0,0,1-5.22-10.6c-.16,2.36-.12,9.36,5.34,14.36l1,.79c4.88,3.55,10.53,5.72,26.16,5.23h.23c15.63-.5,21.14-3,25.78-6.88l1-.85c5.12-5.34,4.73-12.33,4.42-14.67A16.93,16.93,0,0,1,138.23,54Z"/><path class="cls-17" d="M126.08,54.55a59,59,0,0,0,10.39-4.09,5.18,5.18,0,0,1-.1,2.18,58.62,58.62,0,0,1-10.23,4,4.26,4.26,0,0,0-3,2.09,2,2,0,0,1-.26-.93C122.66,56.31,124,55,126.08,54.55Z"/><polyline class="cls-6" points="118.53 64.91 118.22 55.33 118.22 55.21 111.26 50.91 104.36 55.77 104.36 55.89 104.66 65.41"/><circle class="cls-22" cx="127.56" cy="36.35" r="8.32"/><path class="cls-17" d="M127.71,27.78a8.46,8.46,0,0,0-8.52,7.5,16.25,16.25,0,0,0,.25,3.88,10.57,10.57,0,0,1,1-2.4,11.75,11.75,0,0,1,2.87-3.37h0l.89-.64h0l1-.58h0l1-.45h0l1-.4a10.56,10.56,0,0,1,2.78-.45,10.85,10.85,0,0,1,4.71.88A8.39,8.39,0,0,0,127.71,27.78Z"/><path class="cls-23" d="M127,27.56a9.37,9.37,0,0,1,9,8.83,8.49,8.49,0,0,1-2.47,6.46c5.44-4.67,6.19-15.39,6.19-15.39S132.7,26.16,127,27.56Z"/><circle class="cls-6" cx="127.56" cy="36.35" r="8.32"/><path class="cls-6" d="M124.33,28.62c5.69-2.74,15.22-1.1,15.22-1.1s-1.22,16.88-11.3,17.2"/><circle class="cls-22" cx="93.67" cy="37.43" r="8.32"/><path class="cls-17" d="M93,28.88a8.47,8.47,0,0,1,9,7,15.82,15.82,0,0,1,0,3.89,10.18,10.18,0,0,0-1.17-2.33,11.8,11.8,0,0,0-3.07-3.19h0l-.94-.57h0l-1-.52h0l-1.11-.39h0l-1-.33a10.65,10.65,0,0,0-2.81-.28,11,11,0,0,0-4.64,1.18A8.45,8.45,0,0,1,93,28.88Z"/><path class="cls-23" d="M93.58,28.62A9.37,9.37,0,0,0,85.18,38a8.47,8.47,0,0,0,2.88,6.29c-5.73-4.32-7.16-15-7.16-15S87.89,27.59,93.58,28.62Z"/><circle class="cls-6" cx="93.67" cy="37.43" r="8.32"/><path class="cls-6" d="M96.34,29.51c-5.85-2.37-15.26-.13-15.26-.13s2.3,16.77,12.38,16.45"/><path class="cls-16" d="M149.31,72.72,138.86,49.3,132,52.38c-2.12.94-1.51,6.93,1.38,13.42s7,10.93,9.08,10Z"/><g class="cls-24"><path class="cls-25" d="M137.67,72.81l-.11,0c1.9,2.32,3.7,3.51,4.87,3l6.91-3.08-4.15-9.29A13.84,13.84,0,0,1,137.67,72.81Z"/></g><path class="cls-10" d="M149.31,72.72l-10.5-23.53-6.91,3.08c-2.12.94-1.49,7,1.41,13.47s7,11,9.1,10.05Z"/><path class="cls-16" d="M202.08,49.22,191.62,25.81l6.91-3.08c2.12-.94,6.17,3.51,9.07,10S211.1,45.2,209,46.15Z"/><g class="cls-24"><path class="cls-25" d="M209.93,40.64l.11,0c.46,3,.14,5.09-1,5.61l-6.91,3.08L198,40A13.86,13.86,0,0,0,209.93,40.64Z"/></g><path class="cls-10" d="M202.08,49.22,191.57,25.7l6.91-3.08c2.11-.94,6.2,3.57,9.1,10.05S211.1,45.2,209,46.15Z"/><path class="cls-26" d="M186.12,75.59c10.8-5.14,14.93-9,18-15.38s1.35-15.07-2.46-23.6c-6.85-15.34-22-22.88-37.46-19a46.83,46.83,0,0,0-6.41,2.25,52.13,52.13,0,0,0-6.24,3.38c-13.19,8.92-17.67,25.2-10.85,40.48,3.81,8.53,9.11,15.6,15.95,17.6s12.81,1.46,24.75-3.66Z"/><g class="cls-8"><path class="cls-9" d="M154,28.62a51.49,51.49,0,0,1,6.24-3.38A46.87,46.87,0,0,1,166.63,23c14.66-3.67,29,2.94,36.32,16.7-.41-1-.85-2-1.31-3.07-6.85-15.34-22-22.88-37.46-19a46.83,46.83,0,0,0-6.41,2.25,52.13,52.13,0,0,0-6.24,3.38c-13.19,8.92-17.67,25.2-10.85,40.48.46,1,.94,2,1.42,3C136.71,52.17,141.45,37.05,154,28.62Z"/></g><path class="cls-10" d="M186.12,75.59c10.8-5.14,14.93-9,18-15.38s1.35-15.07-2.46-23.6c-6.85-15.34-22-22.88-37.46-19a46.83,46.83,0,0,0-6.41,2.25,52.13,52.13,0,0,0-6.24,3.38c-13.19,8.92-17.67,25.2-10.85,40.48,3.81,8.53,9.11,15.6,15.95,17.6s12.81,1.46,24.75-3.66Z"/><g class="cls-8"><path class="cls-9" d="M154,28.62a51.49,51.49,0,0,1,6.24-3.38A46.87,46.87,0,0,1,166.63,23c14.66-3.67,29,2.94,36.32,16.7-.41-1-.85-2-1.31-3.07-6.85-15.34-22-22.88-37.46-19a46.83,46.83,0,0,0-6.41,2.25,52.13,52.13,0,0,0-6.24,3.38c-13.19,8.92-17.67,25.2-10.85,40.48.46,1,.94,2,1.42,3C136.71,52.17,141.45,37.05,154,28.62Z"/></g><path class="cls-10" d="M186.12,75.59c10.8-5.14,14.93-9,18-15.38s1.35-15.07-2.46-23.6c-6.85-15.34-22-22.88-37.46-19a46.83,46.83,0,0,0-6.41,2.25,52.13,52.13,0,0,0-6.24,3.38c-13.19,8.92-17.67,25.2-10.85,40.48,3.81,8.53,9.11,15.6,15.95,17.6s12.81,1.46,24.75-3.66Z"/><path class="cls-27" d="M150.62,45.12l.06,0a4.59,4.59,0,0,1,6.13,2.15l4.57,9.57a4.59,4.59,0,0,1-2.18,6.11l-.06,0A4.6,4.6,0,0,1,153,60.8l-4.58-9.57A4.59,4.59,0,0,1,150.62,45.12Z"/><path class="cls-18" d="M148.63,51.07l.39.41c1.74-2.34,4.1-.44,5,.11s4-.28,3.27-2C157.19,44.17,147.33,41.42,148.63,51.07Z"/><ellipse class="cls-18" cx="153.81" cy="55.26" rx="1.26" ry="1.25" transform="translate(-9.56 50.66) rotate(-18.15)"/><path class="cls-6" d="M150.62,45.12l.06,0a4.59,4.59,0,0,1,6.13,2.15l4.57,9.57a4.59,4.59,0,0,1-2.18,6.11l-.06,0A4.6,4.6,0,0,1,153,60.8l-4.58-9.57A4.59,4.59,0,0,1,150.62,45.12Z"/><path class="cls-27" d="M180,31.12l.05,0a4.59,4.59,0,0,1,6.13,2.15l4.57,9.57a4.58,4.58,0,0,1-2.18,6.11l-.05,0a4.59,4.59,0,0,1-6.13-2.15l-4.57-9.57A4.58,4.58,0,0,1,180,31.12Z"/><path class="cls-18" d="M178.15,37l.4.41c1.73-2.34,4.09-.44,5,.11s4-.28,3.27-2C186.71,30.12,176.8,27.4,178.15,37Z"/><ellipse class="cls-18" cx="183.33" cy="41.21" rx="1.26" ry="1.25" transform="translate(-3.71 59.18) rotate(-18.15)"/><path class="cls-6" d="M180,31.12l.05,0a4.59,4.59,0,0,1,6.13,2.15l4.57,9.57a4.58,4.58,0,0,1-2.18,6.11l-.05,0a4.59,4.59,0,0,1-6.13-2.15l-4.57-9.57A4.58,4.58,0,0,1,180,31.12Z"/><path class="cls-16" d="M183.78,76.54C198.34,69.61,202.5,65,205.3,59.42l.56-1.2c3.24-8.69-2.27-16.28-2.27-16.28s-7.9,10-27.22,19.23-32.12,9-32.12,9,2.47,9.11,11.25,12l1.29.32c6.07,1.32,12.31,1,26.88-5.92"/><path class="cls-18" d="M145.21,72.33s12.41.37,32.11-9,27.23-19.24,27.23-19.24a13.37,13.37,0,0,1,.82,1.29,18.58,18.58,0,0,0-1.86-3.46s-7.9,10-27.23,19.23-32.11,9-32.11,9a18.29,18.29,0,0,0,1.53,3.62A14.35,14.35,0,0,1,145.21,72.33Z"/><path class="cls-17" d="M204.35,55.06l-.54,1.26C201,61.86,196.62,66,182.06,73l-.22.11c-14.56,6.93-20.57,7.72-26.64,6.4l-1.26-.4a17.55,17.55,0,0,1-9.46-8c.87,2.39,3.86,8.78,11,11.19l1.32.37c6.07,1.32,12.08.53,26.64-6.4l.22-.1c14.56-6.94,19-11.1,21.75-16.64l.54-1.25c2.61-7.06-.54-13.37-1.79-15.58A17.51,17.51,0,0,1,204.35,55.06Z"/><path class="cls-6" d="M183.78,76.54C198.34,69.61,202.5,65,205.3,59.42l.56-1.2c3.24-8.69-2.27-16.28-2.27-16.28s-7.9,10-27.22,19.23-32.12,9-32.12,9,2.47,9.11,11.25,12l1.29.32c6.07,1.32,12.31,1,26.88-5.92"/><path class="cls-9" d="M179.17,67.05a1.84,1.84,0,0,1-2.16-.44,1.82,1.82,0,1,0,3.12-1.49A1.82,1.82,0,0,1,179.17,67.05Z"/><path class="cls-9" d="M173.42,69.78a1.81,1.81,0,0,1-2.16-.44,1.82,1.82,0,1,0,3.13-1.48A1.82,1.82,0,0,1,173.42,69.78Z"/><path class="cls-9" d="M184.59,64.47a1.84,1.84,0,0,1-2.16-.44,1.82,1.82,0,1,0,3.12-1.49A1.82,1.82,0,0,1,184.59,64.47Z"/><ellipse class="cls-6" cx="172.83" cy="68.53" rx="1.21" ry="1.21" transform="translate(-12.75 57.25) rotate(-18.15)"/><ellipse class="cls-6" cx="183.94" cy="63.24" rx="1.21" ry="1.21" transform="matrix(0.95, -0.31, 0.31, 0.95, -10.55, 60.45)"/><ellipse class="cls-6" cx="178.57" cy="65.8" rx="1.21" ry="1.21" transform="translate(-11.61 58.9) rotate(-18.15)"/><path class="cls-16" d="M144,31l13.16,6.59-8.64-19.14C142,24.55,144,31,144,31Z"/><path class="cls-16" d="M161.87,12.19,171,31.12l3.43-14.32S170.73,11.17,161.87,12.19Z"/><g class="cls-24"><path class="cls-25" d="M144.2,25.34A11.05,11.05,0,0,0,144,31l13.16,6.59L154.11,31A15.35,15.35,0,0,1,144.2,25.34Z"/><path class="cls-25" d="M170.27,13.46a14.93,14.93,0,0,1-2.46,11.18l3.07,6.59,3.42-14.32A10.92,10.92,0,0,0,170.27,13.46Z"/></g><path class="cls-6" d="M144,31l13.16,6.59-8.64-19.14C142,24.55,144,31,144,31Z"/><path class="cls-6" d="M161.87,12.19,171,31.12l3.43-14.32S170.73,11.17,161.87,12.19Z"/><path class="cls-16" d="M37,76.87,71.48,83a8.93,8.93,0,0,1,7.23,10.32h0a8.93,8.93,0,0,1-10.32,7.23L33.86,94.43"/><path class="cls-17" d="M37,76.87,71.48,83a8.93,8.93,0,0,1,7.23,10.32h0a8.93,8.93,0,0,1-10.32,7.23L33.86,94.43"/><path class="cls-11" d="M46.05,78.47,37,76.87,33.86,94.43l9.77,1.72C47.62,91.32,47.38,84.46,46.05,78.47Z"/><path class="cls-17" d="M69.59,93.71,35.06,87.62l-1.2,6.81,34.53,6.08a8.93,8.93,0,0,0,10.32-7.23h0a8.66,8.66,0,0,0-.09-3.52A9,9,0,0,1,69.59,93.71Z"/><path class="cls-10" d="M37,76.87,71.48,83a8.93,8.93,0,0,1,7.23,10.32h0a8.93,8.93,0,0,1-10.32,7.23L33.86,94.43"/><path class="cls-10" d="M46.73,78.4a20.62,20.62,0,0,1,.38,9.31h0a20.75,20.75,0,0,1-3.46,8.52"/><path class="cls-16" d="M37.35,86A17.59,17.59,0,0,1,11.42,98.26a6.13,6.13,0,0,1,6-10.69,5.5,5.5,0,0,0,1.69.6,5.31,5.31,0,1,0-.45-10.36A6.13,6.13,0,0,1,15.51,66,17.59,17.59,0,0,1,37.35,86Z"/><path class="cls-18" d="M37.35,86A17.59,17.59,0,0,1,11.42,98.26a6.13,6.13,0,0,1,6-10.69,5.5,5.5,0,0,0,1.69.6,5.31,5.31,0,1,0-.45-10.36A6.13,6.13,0,0,1,15.51,66,17.59,17.59,0,0,1,37.35,86Z"/><path class="cls-17" d="M37.35,86A17.59,17.59,0,0,1,11.42,98.26a6.13,6.13,0,0,1,6-10.69,5.5,5.5,0,0,0,1.69.6,5.31,5.31,0,1,0-.45-10.36A6.13,6.13,0,0,1,15.51,66,17.59,17.59,0,0,1,37.35,86Z"/><path class="cls-16" d="M22.45,78.3a5.32,5.32,0,0,1,0,9.2c3.88.7,7.87,3.74,10.79,6.91a6.09,6.09,0,0,0,1.84-3.54,21.45,21.45,0,0,1-7.3-5.47,34.12,34.12,0,0,1-4.36-7.33C23.07,78.13,22.72,78.25,22.45,78.3Z"/><path class="cls-16" d="M20.11,88.61c-.51-.29-1.78.13-2.37,0A5.31,5.31,0,0,0,15.9,99.08a5.13,5.13,0,0,0,1.79,0,5.3,5.3,0,0,1-2.55-5.52c.4-2.27,1.53-4.37,4.94-4.5C20.07,89.05,20.12,88.62,20.11,88.61Z"/><path class="cls-16" d="M22.49,66.33a4.7,4.7,0,0,0-1.64-.61,5.62,5.62,0,0,0-1.94,11,5.07,5.07,0,0,0,1.78,0,5.76,5.76,0,0,1,1.84-10.39Z"/><path class="cls-19" d="M14.61,74.08a6.18,6.18,0,0,1,4.3-7.52A16.82,16.82,0,0,1,24.64,66a16.49,16.49,0,0,0-1.72-.39,16.83,16.83,0,0,0-7.47.34,6.18,6.18,0,0,0-4.29,7.52c.78,3,4.73,5,8.39,4.07C18.08,76.78,15.07,75.83,14.61,74.08Z"/><path class="cls-19" d="M14.79,98.85a6.15,6.15,0,0,1-2.27-8.34c1-1.77,3.84-2.51,5.68-2.75C15.34,86.3,10.66,87,9.06,89.9a6.16,6.16,0,0,0,2.28,8.34,16.92,16.92,0,0,0,5.48,2c.59.1,1.19.17,1.78.22A17,17,0,0,1,14.79,98.85Z"/><ellipse class="cls-9" cx="16.97" cy="69.26" rx="1.72" ry="1.19" transform="translate(-48.63 41.3) rotate(-53.15)"/><ellipse class="cls-9" cx="14.14" cy="91.42" rx="1.72" ry="1.19" transform="translate(-67.49 47.91) rotate(-53.15)"/><path class="cls-10" d="M37.35,86A17.59,17.59,0,0,1,11.42,98.26a6.13,6.13,0,0,1,6-10.69,5.5,5.5,0,0,0,1.69.6,5.31,5.31,0,1,0-.45-10.36A6.13,6.13,0,0,1,15.51,66,17.59,17.59,0,0,1,37.35,86Z"/><path class="cls-20" d="M15.86,99.67a5.8,5.8,0,1,1,3.38-11.08"/><path class="cls-20" d="M20.34,77.22C16.19,76.66,14,74,14.5,70.8s3.24-5.18,7.44-4.94"/><path class="cls-28" d="M96.71,115.13c12.13-3.13,17.16-6.32,21.56-12.26s4.41-15.31,2.19-24.9c-4-17.25-18-28.1-34.74-27.2a49.19,49.19,0,0,0-7,1A54.94,54.94,0,0,0,71.59,54C56.25,60.59,48.38,76.51,52.34,93.69c2.22,9.59,6.25,18,12.88,21.43s12.89,4.11,26.19,1.23Z"/><g class="cls-8"><path class="cls-9" d="M73,60.06a53.14,53.14,0,0,1,7.1-2.23,49.17,49.17,0,0,1,7-1c15.81-.83,29.27,8.91,34,24.61-.22-1.13-.46-2.28-.73-3.44-4-17.25-18-28.1-34.74-27.2a49.19,49.19,0,0,0-7,1A54.94,54.94,0,0,0,71.59,54C56.25,60.59,48.38,76.51,52.34,93.69c.27,1.16.56,2.3.86,3.41C50.58,80.92,58.47,66.24,73,60.06Z"/></g><path class="cls-10" d="M96.71,115.13c12.13-3.13,17.16-6.32,21.56-12.26s4.41-15.31,2.19-24.9c-4-17.25-18-28.1-34.74-27.2a49.19,49.19,0,0,0-7,1A54.94,54.94,0,0,0,71.59,54C56.25,60.59,48.38,76.51,52.34,93.69c2.22,9.59,6.25,18,12.88,21.43s12.89,4.11,26.19,1.23Z"/><g class="cls-8"><path class="cls-9" d="M73,60.06a53.14,53.14,0,0,1,7.1-2.23,49.17,49.17,0,0,1,7-1c15.81-.83,29.27,8.91,34,24.61-.22-1.13-.46-2.28-.73-3.44-4-17.25-18-28.1-34.74-27.2a49.19,49.19,0,0,0-7,1A54.94,54.94,0,0,0,71.59,54C56.25,60.59,48.38,76.51,52.34,93.69c.27,1.16.56,2.3.86,3.41C50.58,80.92,58.47,66.24,73,60.06Z"/></g><path class="cls-10" d="M96.71,115.13c12.13-3.13,17.16-6.32,21.56-12.26s4.41-15.31,2.19-24.9c-4-17.25-18-28.1-34.74-27.2a49.19,49.19,0,0,0-7,1A54.94,54.94,0,0,0,71.59,54C56.25,60.59,48.38,76.51,52.34,93.69c2.22,9.59,6.25,18,12.88,21.43s12.89,4.11,26.19,1.23Z"/><path class="cls-16" d="M93.5,116c16.56-3.82,21.9-7.68,26-12.76l.86-1.12c5.31-8.24,1.37-17.37,1.37-17.37s-10.42,8.57-32.4,13.64-35.1,1.94-35.1,1.94.47,10,8.84,15l1.26.63c5.95,2.76,12.44,3.88,29,.06"/><path class="cls-11" d="M110.67,110.27a11.83,11.83,0,0,1-14.18-8.86h0l0-.13L84,104.16l0,.18a11.82,11.82,0,0,1-8.86,14.18h0a107.31,107.31,0,0,0,18.12-2.21A106.82,106.82,0,0,0,110.67,110.27Z"/><path class="cls-17" d="M117.07,91l-22.16,9.24c-.8.27-8,1-8.88,1.17-21.43,5.34-31.73,1.21-33-3,.36,2.67,3.24,13,10,17.09l1.28.69c6,2.76,12.31,3.32,28.87-.5l.25-.06c16.56-3.82,22-7.12,26.17-12.2l.84-1.18c4.29-6.7,2.49-14,1.7-16.53C122.89,90.11,119.47,87.11,117.07,91Z"/><path class="cls-6" d="M93.5,116c16.56-3.82,21.9-7.68,26-12.76l.86-1.12c5.31-8.24,1.37-17.37,1.37-17.37s-10.42,8.57-32.4,13.64-35.1,1.94-35.1,1.94.47,10,8.84,15l1.26.63c5.95,2.76,12.44,3.88,29,.06"/><path class="cls-6" d="M110.67,110.27a11.83,11.83,0,0,1-14.18-8.86h0l0-.13L84,104.16l0,.18a11.82,11.82,0,0,1-8.86,14.18h0"/><circle class="cls-29" cx="103.43" cy="79.48" r="10.35"/><circle class="cls-16" cx="103.43" cy="79.48" r="10.35"/><circle class="cls-29" cx="68.44" cy="87.55" r="10.35"/><circle class="cls-16" cx="68.44" cy="87.55" r="10.35"/><g class="cls-30"><path class="cls-9" d="M66.09,77.4a10.35,10.35,0,0,0-7.66,7.41,10.46,10.46,0,0,0,17.45-4.49A10.39,10.39,0,0,0,66.09,77.4Z"/></g><circle class="cls-6" cx="68.44" cy="87.55" r="10.35"/><g class="cls-30"><path class="cls-9" d="M101.09,69.33a10.35,10.35,0,0,0-7.67,7.41,10.49,10.49,0,0,0,17.46-4.49A10.34,10.34,0,0,0,101.09,69.33Z"/></g><circle class="cls-6" cx="103.43" cy="79.48" r="10.35"/><line class="cls-31" x1="58.19" y1="85.78" x2="68.22" y2="83.47"/><line class="cls-31" x1="59.03" y1="89.4" x2="78.22" y2="85.03"/><line class="cls-31" x1="59.86" y1="93.01" x2="78.58" y2="88.88"/><line class="cls-31" x1="68.55" y1="94.87" x2="77.01" y2="92.85"/><line class="cls-31" x1="64.25" y1="80.78" x2="73.72" y2="78.59"/><line class="cls-31" x1="59.77" y1="81.81" x2="61.95" y2="81.31"/><line class="cls-31" x1="70.71" y1="82.9" x2="76.68" y2="81.52"/><line class="cls-31" x1="93.25" y1="77.69" x2="103.21" y2="75.39"/><line class="cls-31" x1="94.08" y1="81.31" x2="113.27" y2="76.94"/><line class="cls-31" x1="94.91" y1="84.92" x2="113.57" y2="80.81"/><line class="cls-31" x1="103.55" y1="86.79" x2="112.06" y2="84.76"/><line class="cls-31" x1="99.24" y1="72.7" x2="108.77" y2="70.5"/><line class="cls-31" x1="94.76" y1="73.74" x2="96.94" y2="73.23"/><line class="cls-31" x1="105.7" y1="74.82" x2="111.68" y2="73.44"/><path class="cls-32" d="M193.13,61.35a11.66,11.66,0,0,1,0-3l2.11.7h.19l.17.29a15.42,15.42,0,0,0,.78,2.5,2.44,2.44,0,0,0,1.23,1.48.59.59,0,0,1,.45.31.67.67,0,0,1-.13.46c-.32.64-.7,2.21-1.28,2.55s-1.1-.44-1.46-.75A8.21,8.21,0,0,1,193.13,61.35Z"/><polyline class="cls-32" points="192.14 90.29 167.54 107.44 161.2 96.99 193.13 74.49"/><polyline class="cls-17" points="192.14 90.29 167.54 107.44 161.2 96.99 193.13 74.49"/><path class="cls-17" d="M191.74,81c-9.5,6.49-18.77,13.31-28,20.21l3.78,6.23,24.6-17.15.63-10Z"/><line class="cls-33" x1="161.2" y1="96.99" x2="193.13" y2="74.49"/><line class="cls-33" x1="167.54" y1="107.44" x2="192.14" y2="90.29"/><path class="cls-34" d="M188.64,95.36a12.43,12.43,0,0,1-2.8-4.78l1.07-17c4.4.27,8.32-3.8,9.91-9.62l.24-.92c1.11-4.26,3.8-6.72,7.93-6.55l9.64.6L201,98.77l-10.37-2.53Z"/><path class="cls-12" d="M189,95.48l-.37,0a12.23,12.23,0,0,1-2.8-4.78l1.07-17.12c4.4.27,8.32-3.8,9.91-9.62l.24-.92c1.11-4.26,3.8-6.72,7.93-6.55l9.64.6-.95,3-5.33-.33c-4.12-.17-6.72,2.3-7.93,6.55l-.24.92c-1.59,5.82-5.67,9.42-9.91,9.62L189.1,95.48Z"/><path class="cls-32" d="M201.12,82.14l-.27-.2a.63.63,0,0,1-.07-.38l-.15-8.09a40.84,40.84,0,0,0,7.42,1.5,7.46,7.46,0,0,0,.84,4.66l1.31,3.08a25.41,25.41,0,0,0,1.63,2.45C208.27,84.94,204.52,83.39,201.12,82.14Z"/><path class="cls-32" d="M206.6,71.21l-3.79-1a40.86,40.86,0,0,0-7.87-1.9,17.75,17.75,0,0,0,1.78-4.3l.24-.93c1.11-4.25,3.81-6.71,7.93-6.55l9.64.61-4.67,14.46Z"/><path class="cls-32" d="M219.11,57.44l-7.3-.46a2.23,2.23,0,0,0-2.38,2.1l-1.07,17a10.13,10.13,0,0,0,9.47,10.74h0l5.24.33"/><path class="cls-32" d="M208.43,66l-5.8-.36a3.75,3.75,0,0,0-3.72,3.79v0a3.94,3.94,0,0,0,3.41,4.06l5.74,1.4"/><path class="cls-35" d="M208.16,71.78,208,74.87l-5.74-1.39a4,4,0,0,1-3.32-4.06,5,5,0,0,1,.28-1.49C199.76,71,202.49,70.77,208.16,71.78Z"/><path class="cls-33" d="M187.09,73.75l-1,15.81c-.15,2.44.31,4.06,2.31,5.22l12.15,4"/><polygon class="cls-32" points="215.03 56.71 228.78 57.57 228.16 52.56 216.27 51.81 215.03 56.71"/><path class="cls-35" d="M220.76,52.09l7.4.47.62,5L219.61,57A29.43,29.43,0,0,0,220.76,52.09Z"/><path class="cls-32" d="M223.08,87.09h0a10.13,10.13,0,0,1-9.48-10.74h0l1.07-17a2.26,2.26,0,0,1,2.39-2.11l15.72,1a2.26,2.26,0,0,1,2.11,2.39l-1.07,17A10.13,10.13,0,0,1,223.08,87.09Z"/><path class="cls-35" d="M223.08,87.09h0a10.13,10.13,0,0,1-9.48-10.74h0l1.07-17a2.26,2.26,0,0,1,2.39-2.11l15.72,1a2.26,2.26,0,0,1,2.11,2.39l-1.07,17A10.13,10.13,0,0,1,223.08,87.09Z"/><path class="cls-34" d="M200.17,82.37l-.89,14.22a2.25,2.25,0,0,0,2.1,2.39l9.17.57a2.25,2.25,0,0,0,2.39-2.1l.73-11.61"/><path class="cls-36" d="M200.17,82.37l-.89,14.22a2.25,2.25,0,0,0,2.1,2.39l9.17.57a2.25,2.25,0,0,0,2.39-2.1l.73-11.61"/><path class="cls-33" d="M223.08,87.09h0a10.13,10.13,0,0,1-9.48-10.74h0l1.07-17a2.26,2.26,0,0,1,2.39-2.11l15.72,1a2.26,2.26,0,0,1,2.11,2.39l-1.07,17A10.13,10.13,0,0,1,223.08,87.09Z"/><path class="cls-33" d="M219.11,57.44l-7.3-.46a2.23,2.23,0,0,0-2.38,2.1l-1.07,17a10.13,10.13,0,0,0,9.47,10.74h0l5.24.33"/><path class="cls-33" d="M200.17,82.37l-.89,14.22a2.25,2.25,0,0,0,2.1,2.39l9.17.57a2.25,2.25,0,0,0,2.39-2.1l.73-11.61"/><path class="cls-32" d="M216.54,71.56a9.66,9.66,0,0,0,9.53,9.71h.19A10,10,0,0,0,235.64,71a9.65,9.65,0,0,0-9.53-9.71h-.19C220.66,61.29,216.51,65.92,216.54,71.56Z"/><path class="cls-33" d="M216.54,71.56a9.66,9.66,0,0,0,9.53,9.71h.19A10,10,0,0,0,235.64,71a9.65,9.65,0,0,0-9.53-9.71h-.19C220.66,61.29,216.51,65.92,216.54,71.56Z"/><path class="cls-32" d="M220.59,71.34a4.68,4.68,0,0,0,4.59,4.7h.09a4.88,4.88,0,0,0,4.54-5,4.68,4.68,0,0,0-4.59-4.7h-.09A4.79,4.79,0,0,0,220.59,71.34Z"/><path class="cls-35" d="M221.24,71.38a5,5,0,0,0,4.86,5h.09A5.16,5.16,0,0,0,231,71.06a5,5,0,0,0-4.86-5h-.09A5.16,5.16,0,0,0,221.24,71.38Z"/><path class="cls-33" d="M221,71.36a5.16,5.16,0,0,0,5,5.3h.19a5.43,5.43,0,0,0,5.05-5.6,5.15,5.15,0,0,0-5-5.3H226A5.35,5.35,0,0,0,221,71.36Z"/><path class="cls-37" d="M221.26,71.19a2.91,2.91,0,0,0,2.82,2.91h.09A3,3,0,0,0,227,71a2.9,2.9,0,0,0-2.82-2.9h-.1A3,3,0,0,0,221.26,71.19Z"/><path class="cls-33" d="M221.07,71.18a3,3,0,0,0,2.9,3.1h.19A3.19,3.19,0,0,0,227.09,71a3,3,0,0,0-2.9-3.1H224a3.09,3.09,0,0,0-2.93,3.25Z"/><polygon class="cls-33" points="219.7 57 228.78 57.57 228.16 52.56 220.95 52.1 219.7 57"/><polyline class="cls-33" points="220.95 52.1 215.43 51.76 214.18 56.66 219.7 57"/><line class="cls-33" x1="214.5" y1="86.08" x2="201.06" y2="81.67"/><line class="cls-33" x1="198.95" y1="68.85" x2="195.52" y2="68.17"/><line class="cls-33" x1="200.7" y1="73.94" x2="200.17" y2="82.37"/><path class="cls-37" d="M208.43,66h-.09a4.41,4.41,0,0,0-4.24,4.57v0A4.32,4.32,0,0,0,208,74.87"/><path class="cls-33" d="M208.43,66l-5.8-.36a3.75,3.75,0,0,0-3.72,3.79v0a3.94,3.94,0,0,0,3.41,4.06l5.74,1.4"/><path class="cls-33" d="M208.43,66h-.09a4.41,4.41,0,0,0-4.24,4.57v0A4.32,4.32,0,0,0,208,74.87"/><path class="cls-32" d="M191.08,71.46c-2-3.51-1.91-8.39,1.35-12.5h.09a10.51,10.51,0,0,0,3.75,9.16"/><path class="cls-35" d="M192.32,71.16c-2-3.51-3.25-8,0-12.12h.09a10.52,10.52,0,0,0,3,8.36"/><path class="cls-33" d="M191.85,71.13c-1.82-2.36-2.85-8.44.24-12.76h0a10.47,10.47,0,0,0,3.33,8.38"/><path class="cls-33" d="M195.65,58.6a10.34,10.34,0,0,0,1.66,3.48"/><path class="cls-33" d="M214.53,57.15l-9.64-.61c-4.12-.16-6.72,2.31-7.93,6.55l-.24.93c-1.58,5.63-5.31,9.62-9.62,9.54"/><line class="cls-33" x1="195.65" y1="58.5" x2="192.28" y2="58.29"/><path class="cls-11" d="M95.57,73.53l-3.8-.22c-1.39-.07-2.68,3.18-2.92,7.33s.68,7.54,2.06,7.62l3.67.21"/><path class="cls-16" d="M106.79,95.83l1.62-28.22-8.58-.5c-2.63-.15-5.14,6-5.59,13.84s1.34,14.24,4,14.39Z"/><g class="cls-24"><path class="cls-25" d="M95,90h-.14c.72,3.24,1.92,5.32,3.37,5.4l8.58.49.65-11.2A15.92,15.92,0,0,1,95,90Z"/></g><path class="cls-10" d="M106.79,95.83l1.63-28.36L99.84,67c-2.63-.16-5.14,6.09-5.59,13.9s1.33,14.31,4,14.46Z"/><path class="cls-10" d="M95.58,73.46l-3.81-.21c-1.38-.08-2.68,3.17-2.92,7.32s.68,7.54,2.06,7.62l3.67.21"/><path class="cls-11" d="M186,78.73l3.8.22c1.39.08,2.3,3.46,2.06,7.61s-1.53,7.41-2.92,7.33l-3.66-.21"/><path class="cls-16" d="M172.3,99.6l1.63-28.23,8.57.49c2.63.16,4.42,6.57,4,14.39s-3,14-5.59,13.84Z"/><g class="cls-24"><path class="cls-25" d="M184.71,95.17h.13c-1.08,3.13-2.51,5.06-4,5l-8.58-.49.64-11.21A15.85,15.85,0,0,0,184.71,95.17Z"/></g><path class="cls-10" d="M172.3,99.6l1.63-28.37,8.58.5c2.63.15,4.41,6.64,4,14.45s-3,14.06-5.59,13.91Z"/><path class="cls-10" d="M186,78.66l3.81.22c1.38.08,2.3,3.46,2.06,7.61s-1.54,7.41-2.92,7.33l-3.67-.21"/><path class="cls-38" d="M141.28,113.82c12.67.58,18.49-1,24.52-5.45s8.81-13.51,9.52-23.45c1.27-17.88-9.09-32.56-25.54-36.65a50.19,50.19,0,0,0-7.12-1.1,55.51,55.51,0,0,0-7.52,0C118.34,49,106,62.07,104.72,79.88c-.71,9.94.7,19.25,6.09,24.56s11.25,7.81,25,9Z"/><g class="cls-8"><path class="cls-9" d="M134.75,53.48a55.66,55.66,0,0,1,7.53,0,48.78,48.78,0,0,1,7.12,1.09C165,58.43,175.08,71.87,175,88.46c.13-1.15.23-2.34.32-3.54,1.27-17.88-9.09-32.56-25.54-36.65a50.19,50.19,0,0,0-7.12-1.1,55.51,55.51,0,0,0-7.52,0C118.34,49,106,62.07,104.72,79.88c-.09,1.2-.15,2.39-.19,3.55C106.81,67,118.81,55.14,134.75,53.48Z"/></g><path class="cls-10" d="M141.28,113.82c12.67.58,18.49-1,24.52-5.45s8.81-13.51,9.52-23.45c1.27-17.88-9.09-32.56-25.54-36.65a50.19,50.19,0,0,0-7.12-1.1,55.51,55.51,0,0,0-7.52,0C118.34,49,106,62.07,104.72,79.88c-.71,9.94.7,19.25,6.09,24.56s11.25,7.81,25,9Z"/><g class="cls-8"><path class="cls-9" d="M134.75,53.48a55.66,55.66,0,0,1,7.53,0,48.78,48.78,0,0,1,7.12,1.09C165,58.43,175.08,71.87,175,88.46c.13-1.15.23-2.34.32-3.54,1.27-17.88-9.09-32.56-25.54-36.65a50.19,50.19,0,0,0-7.12-1.1,55.51,55.51,0,0,0-7.52,0C118.34,49,106,62.07,104.72,79.88c-.09,1.2-.15,2.39-.19,3.55C106.81,67,118.81,55.14,134.75,53.48Z"/></g><path class="cls-10" d="M141.28,113.82c12.67.58,18.49-1,24.52-5.45s8.81-13.51,9.52-23.45c1.27-17.88-9.09-32.56-25.54-36.65a50.19,50.19,0,0,0-7.12-1.1,55.51,55.51,0,0,0-7.52,0C118.34,49,106,62.07,104.72,79.88c-.71,9.94.7,19.25,6.09,24.56s11.25,7.81,25,9Z"/><path class="cls-16" d="M128.85,112.54l.94-13.16h.07a14.24,14.24,0,0,1,9.33-2.64s-.38,12.62-.71,17.14"/><path class="cls-11" d="M129.84,103.21l0-1.3a3,3,0,0,1,.06-2.66h-.12A86.9,86.9,0,0,1,116,96.51c-4.39-1.29-8.87-3.88-11-8.05l-.26,0c.51,6.52,2.31,12.23,6.13,15.94s9.17,6.88,18.22,8.24C129.27,109.39,129.56,106.3,129.84,103.21Z"/><path class="cls-16" d="M146.65,114l.94-13.17h-.07a14.21,14.21,0,0,0-8.86-3.94s-1.42,12.54-1.74,17.06"/><path class="cls-11" d="M147,104.63l.22-1.29a3,3,0,0,0,.32-2.63h.13a88.55,88.55,0,0,0,14-.75c4.52-.65,9.33-2.58,12.07-6.41l.26,0c-1.43,6.39-4,11.78-8.33,14.91s-10.06,5.51-19.21,5.57C146.68,110.83,146.84,107.73,147,104.63Z"/><path class="cls-6" d="M104.69,88.5c4.08,5.48,10.56,9.25,25.16,11"/><path class="cls-10" d="M104.69,88.5c.5,6.53,2.3,12.23,6.12,15.94,5.52,5.46,11.25,7.81,25,9l2,.14"/><path class="cls-6" d="M128.85,112.54l.94-13.16h.07a14.24,14.24,0,0,1,9.33-2.64"/><path class="cls-6" d="M173.93,93.45c-4.82,4.84-11.77,7.65-26.46,7.25"/><path class="cls-10" d="M173.93,93.45c-1.43,6.38-4,11.77-8.33,14.9-6.23,4.62-12.24,6.14-26,5.35l-2-.14"/><path class="cls-6" d="M146.66,113.81l.94-13.16h-.06a14.26,14.26,0,0,0-8.87-3.94"/><line class="cls-6" x1="133.68" y1="113.02" x2="134.28" y2="104.63"/><line class="cls-6" x1="137.81" y1="113.31" x2="138.53" y2="103.31"/><line class="cls-6" x1="142.07" y1="113.61" x2="142.67" y2="105.23"/><path class="cls-23" d="M113.69,73.26a10.48,10.48,0,1,0,19.39,5.47Z"/><path class="cls-6" d="M113.69,73.26a10.48,10.48,0,1,0,19.39,5.47Z"/><path class="cls-39" d="M119.73,77.64a3.95,3.95,0,1,0,6.62,1.77Z"/><path class="cls-23" d="M168.22,77.15a10.48,10.48,0,1,1-20,2.66Z"/><path class="cls-6" d="M168.22,77.15a10.48,10.48,0,1,1-20,2.66Z"/><path class="cls-39" d="M161.62,80.57a3.95,3.95,0,1,1-6.81.81Z"/><ellipse class="cls-40" cx="130.64" cy="51.76" rx="2.94" ry="1.86" transform="translate(-7.43 25.64) rotate(-10.9)"/><polyline class="cls-4" points="180.96 100.19 58.87 100.19 45.17 107.29 197.2 107.15"/><polyline class="cls-3" points="180.96 100.19 54.56 100.19 43.14 107.84 197.2 107.69"/><line class="cls-6" x1="186.03" y1="100.28" x2="53.42" y2="100.28"/><line class="cls-6" x1="202.99" y1="108.22" x2="39.57" y2="108.22"/><path class="cls-41" d="M194.13,113.34H46.1c-.21,0-.77-.43-.77-.23l0,98.21a2.21,2.21,0,0,0,.8,1.71l17.32,15.61a2.25,2.25,0,0,0,1.45.53H175.26a2.25,2.25,0,0,0,1.45-.53l16.92-15a2.25,2.25,0,0,0,.8-1.72l0-98.31A.27.27,0,0,0,194.13,113.34Z"/><path class="cls-4" d="M204.2,124.44l0-15.89a.37.37,0,0,0-.36-.38s-64.72.12-64.72.28c0,0-103.51-.11-103.51.1l0,15.89L46.25,132v74.71a2,2,0,0,0,.68,1.53l16.15,14.29a1.91,1.91,0,0,0,1.24.47H175.66a1.87,1.87,0,0,0,1.24-.47l16.16-14.29a2,2,0,0,0,.68-1.53l0-74.53Z"/><path class="cls-42" d="M64.16,150.09l10-9.4c2.45-2.18,2.72-6.81,2.72-6.81l-.16,23.25c-1.12-6.9-5.7-1.59-5.7-1.59l-6.4,6.81"/><path class="cls-42" d="M162.51,150.5l12.71-12.4-.16,13.9c-1.12-6.9-5.7-1.59-5.7-1.59l-6.4,6.81"/><polyline class="cls-42" points="162.51 137.42 175.22 125.03 174.68 132.93 162.96 144.14"/><polyline class="cls-42" points="63.69 210.09 90.56 182.29 90.81 190.21 64.81 216.74"/><polygon class="cls-43" points="162.15 181.83 175.22 197.09 175.22 177.86 162.15 162.6 162.15 181.83"/><polygon class="cls-44" points="175.22 179.13 175.22 184.58 162.15 169.32 162.15 163.88 175.22 179.13"/><polygon class="cls-6" points="162.15 181.83 175.22 197.09 175.22 177.86 162.15 162.6 162.15 181.83"/><ellipse class="cls-45" cx="168.51" cy="182.19" rx="0.59" ry="0.7" transform="translate(-79.47 172.52) rotate(-45)"/><ellipse class="cls-45" cx="166.78" cy="177.52" rx="1.7" ry="2.03" transform="translate(-76.68 169.92) rotate(-45)"/><path class="cls-46" d="M176.52,124.32c-.21-5.26-.32-10.53-.14-15.79,0-.31-83.2.48-113.86.51.39,5.07,1.44,9,1.31,14l0,1.32a4.34,4.34,0,0,1,1-.2l1.21-.06a39.5,39.5,0,0,1,6.71,0l.54,0,1.08.07.28,0,.78.1c1.11.16,12.86,1.19,11.11,1s.22.39.34.63A20,20,0,0,1,89,128.42l2.25,2.43a58.63,58.63,0,0,1,6.37,6.53c13.21,3.23,27.28.9,40.72,2.77a3.86,3.86,0,0,1,.92.24c4.93-5,10-9.89,15.08-14.74a3.78,3.78,0,0,1,3-1.12,4.26,4.26,0,0,1,1.28-.35C159.21,123.61,171.41,124.44,176.52,124.32Z"/><path class="cls-46" d="M183.46,179.6v27.69a2.09,2.09,0,0,0,.29-1V179.39Z"/><ellipse class="cls-47" cx="84.65" cy="123.88" rx="2.62" ry="2.33"/><ellipse class="cls-47" cx="155.07" cy="123.88" rx="2.62" ry="2.33"/><path class="cls-47" d="M90.13,128.48l15.62-13.63c1.82-1.54-.82-1.9-.82-1.9l21.34-.18c-4.54.36-6.17,2.45-6.17,2.45L98.57,134.74,95,134.47"/><path class="cls-47" d="M120.26,135.2l22.4-20.39c1.82-1.54-.81-1.91-.81-1.91l12.85-.18c-4.54.36-6.18,2.45-6.18,2.45L127,134.7l-3.54-.28"/><path class="cls-47" d="M72.41,109.6a3,3,0,0,0-.59,1.78,3.47,3.47,0,0,0,6.91,0,3.1,3.1,0,0,0-.89-2.13C76,109.45,74.22,109.56,72.41,109.6Z"/><path class="cls-48" d="M163,198l-21.33.2c-.08,1.42-.14,2.84-.18,4.25h18a3.63,3.63,0,0,0,3.56-3.86Z"/><path class="cls-48" d="M77.14,198l21.34.2c.07,1.42.13,2.84.18,4.25h-18a3.64,3.64,0,0,1-3.57-3.86Z"/><rect class="cls-48" x="64.7" y="217.93" width="33.78" height="5.09"/><rect class="cls-48" x="141.71" y="217.93" width="33.78" height="5.09"/><path class="cls-4" d="M46.43,132.93c5.48,5,11.44,9.24,18.28,11.84,1-12.12-.65-24.37-1.14-36.53l-27.44-.07a.37.37,0,0,0-.36.38l0,16,10.68,7.63Z"/><path class="cls-2" d="M46.43,132.93c5.48,5,11.44,9.24,18.28,11.84,1-12.12-.65-24.37-1.14-36.53l-27.44-.07a.37.37,0,0,0-.36.38l0,16,10.68,7.63Z"/><rect class="cls-49" x="99.38" y="199.04" width="41.23" height="23.97"/><rect class="cls-49" x="99.38" y="199.04" width="41.23" height="23.97"/><rect class="cls-50" x="99.38" y="199.04" width="41.23" height="23.97"/><rect class="cls-46" x="99.38" y="216.48" width="41.23" height="6.53"/><rect class="cls-46" x="99.42" y="208.21" width="41.23" height="6.08"/><rect class="cls-46" x="99.38" y="199.87" width="41.23" height="6.53"/><rect class="cls-49" x="99.38" y="216.48" width="41.23" height="6.53"/><rect class="cls-49" x="99.38" y="208.31" width="41.23" height="6.13"/><rect class="cls-46" x="109.74" y="208.94" width="19.16" height="4.99"/><rect class="cls-49" x="99.38" y="199.87" width="41.23" height="6.53"/><rect class="cls-46" x="109.74" y="200.01" width="19.16" height="5.65"/><path class="cls-46" d="M119.65,216.41c-2.22-.07-5.69.26-9,.09a6.53,6.53,0,0,0,5.5,3h6.55a6.51,6.51,0,0,0,5.4-2.87Z"/><path class="cls-2" d="M175.44,145.28h0A203.13,203.13,0,0,1,193.9,133v-.65l10.48-7.81,0-16a.37.37,0,0,0-.36-.38l-28.6.07c-.43,10.89-.33,21.78-.14,32.67C175.31,142.37,175.37,143.83,175.44,145.28Z"/><path class="cls-51" d="M64.5,145a4.34,4.34,0,0,1-.73-.43c-5.61-4.15-11.45-7.94-17.34-11.64v74.62a2.08,2.08,0,0,0,.68,1.54l16.15,14.4a1.88,1.88,0,0,0,1.25.48S64.56,160.22,64.5,145Z"/><path class="cls-52" d="M64.21,201.89c-.14-6.18.32-12.28.67-18.45.72-12.69-.28-25.4-.43-38.1-3.47-4.09-8.17-6.92-12.57-10.07v66.81a2.08,2.08,0,0,0,.68,1.54l12.34,11C64.93,210.37,64.31,206,64.21,201.89Z"/><polyline class="cls-53" points="63.54 190.59 50.95 190.6 51.04 198.4 46.04 198.31 35.7 187.14 35.7 153.27 63.8 153.36"/><path class="cls-51" d="M176,145a4.34,4.34,0,0,0,.73-.43c5.61-4.15,11.45-7.94,17.34-11.64v74.62a2.08,2.08,0,0,1-.68,1.54l-16.15,14.4A1.88,1.88,0,0,1,176,224S175.92,160.22,176,145Z"/><path class="cls-52" d="M176.67,201.89c.14-6.18-.31-12.28-.66-18.45-.73-12.69.28-25.4.43-38.1,3.47-4.09,8.16-6.92,12.56-10.07v66.81a2.08,2.08,0,0,1-.68,1.54l-12.34,11C176,210.37,176.58,206,176.67,201.89Z"/><polyline class="cls-53" points="176.08 190.59 188.66 190.6 188.58 198.4 193.57 198.31 203.91 187.14 203.91 153.27 175.82 153.36"/><polyline class="cls-4" points="63.54 190.59 50.95 190.6 51.04 198.4 46.04 198.31 35.7 187.14 35.7 153.27 63.8 153.36"/><polyline class="cls-4" points="176.08 190.59 188.66 190.6 188.58 198.4 193.57 198.31 203.91 187.14 203.91 153.27 175.82 153.36"/><polyline class="cls-2" points="63.54 190.59 50.95 190.6 51.04 198.4 46.04 198.31 35.7 187.14 35.7 153.27 63.8 153.36"/><polyline class="cls-2" points="176.08 190.59 188.66 190.6 188.58 198.4 193.57 198.31 203.91 187.14 203.91 153.27 175.82 153.36"/><path class="cls-51" d="M176.31,168.24h18.25a3.42,3.42,0,0,0,3.33-3.51h0a3.42,3.42,0,0,0-3.33-3.51H176.31"/><path class="cls-4" d="M176.56,165.49c5.08-.59,10.16-.17,15.26-.13a4,4,0,0,0,1.12-.17l1.2,0a3.37,3.37,0,0,0,3.31-2.2,3.54,3.54,0,0,1,.44,1.71,3.42,3.42,0,0,1-3.33,3.51H176.31V165.5A2.18,2.18,0,0,0,176.56,165.49Z"/><path class="cls-51" d="M176.24,183.37H194.5a3.43,3.43,0,0,0,3.33-3.52h0a3.42,3.42,0,0,0-3.33-3.51H176.24"/><path class="cls-4" d="M176.5,180.61c5.08-.59,10.16-.17,15.25-.13a3.87,3.87,0,0,0,1.12-.17l1.21,0a3.38,3.38,0,0,0,3.31-2.2,3.65,3.65,0,0,1,.44,1.71,3.43,3.43,0,0,1-3.33,3.52H176.24v-2.75A2.26,2.26,0,0,0,176.5,180.61Z"/><path class="cls-49" d="M64.14,168.15H45.88a3.43,3.43,0,0,1-3.33-3.51h0a3.43,3.43,0,0,1,3.33-3.52H64.14"/><path class="cls-54" d="M63.88,165.4c-5.08-.6-10.16-.18-15.25-.14a3.93,3.93,0,0,1-1.12-.17l-1.21,0A3.38,3.38,0,0,1,43,162.93a3.59,3.59,0,0,0-.44,1.71,3.43,3.43,0,0,0,3.33,3.51H64.14V165.4C64.05,165.39,64,165.41,63.88,165.4Z"/><path class="cls-49" d="M64.14,182.86H45.88a3.42,3.42,0,0,1-3.33-3.51h0a3.42,3.42,0,0,1,3.33-3.51H64.14"/><path class="cls-4" d="M64.14,168.15H45.88a3.43,3.43,0,0,1-3.33-3.51h0a3.43,3.43,0,0,1,3.33-3.52H64.14"/><path class="cls-51" d="M64.14,168.15H45.88a3.43,3.43,0,0,1-3.33-3.51h0a3.43,3.43,0,0,1,3.33-3.52H64.14"/><path class="cls-51" d="M64.14,182.86H45.88a3.42,3.42,0,0,1-3.33-3.51h0a3.42,3.42,0,0,1,3.33-3.51H64.14"/><path class="cls-4" d="M63.88,180.11c-5.08-.6-10.16-.18-15.25-.14a3.93,3.93,0,0,1-1.12-.17l-1.21,0a3.4,3.4,0,0,1-3.31-2.2,3.59,3.59,0,0,0-.44,1.71,3.42,3.42,0,0,0,3.33,3.51H64.14v-2.75Z"/><path class="cls-4" d="M63.7,165.4c-5.08-.6-10.16-.18-15.25-.14a3.87,3.87,0,0,1-1.12-.17l-1.21,0a3.38,3.38,0,0,1-3.31-2.19,3.59,3.59,0,0,0-.44,1.71,3.43,3.43,0,0,0,3.33,3.51H64V165.4C63.87,165.39,63.79,165.41,63.7,165.4Z"/><path class="cls-6" d="M64.14,168.15H45.88a3.43,3.43,0,0,1-3.33-3.51h0a3.43,3.43,0,0,1,3.33-3.52H64.14"/><path class="cls-55" d="M63.75,165.48H46.37a3.15,3.15,0,0,1-3.17-3.13"/><path class="cls-6" d="M64.14,182.72H45.88a3.42,3.42,0,0,1-3.33-3.51h0a3.42,3.42,0,0,1,3.33-3.51H64.14"/><path class="cls-55" d="M63.75,180.06H46.37a3.15,3.15,0,0,1-3.17-3.13"/><line class="cls-6" x1="64.14" y1="161.12" x2="64.14" y2="167.39"/><path class="cls-6" d="M176,168.15h18.26a3.43,3.43,0,0,0,3.33-3.51h0a3.43,3.43,0,0,0-3.33-3.52H176"/><path class="cls-55" d="M176.38,165.48h17.38a3.15,3.15,0,0,0,3.17-3.13"/><path class="cls-6" d="M176,182.72h18.26a3.42,3.42,0,0,0,3.33-3.51h0a3.42,3.42,0,0,0-3.33-3.51H176"/><path class="cls-55" d="M176.38,180.06h17.38a3.15,3.15,0,0,0,3.17-3.13"/><line class="cls-6" x1="175.99" y1="161.12" x2="175.99" y2="167.39"/><line class="cls-56" x1="98.78" y1="206.3" x2="141.35" y2="206.3"/><line class="cls-56" x1="98.78" y1="208.48" x2="141.35" y2="208.48"/><line class="cls-56" x1="98.78" y1="214.29" x2="141.35" y2="214.29"/><line class="cls-56" x1="98.78" y1="216.47" x2="141.35" y2="216.47"/><polygon class="cls-53" points="204.3 152.98 194.52 139.36 193.76 152.71 204.3 152.98"/><polygon class="cls-4" points="204.3 152.98 194.52 139.36 193.76 152.71 204.3 152.98"/><polygon class="cls-2" points="204.3 152.98 194.52 139.36 193.76 152.71 204.3 152.98"/><line class="cls-6" x1="204.3" y1="152.98" x2="193.76" y2="138.3"/><polygon class="cls-53" points="35.79 152.81 45.57 139.2 46.33 152.54 35.79 152.81"/><polyline class="cls-4" points="45.57 139.2 46.33 152.54 35.79 152.81"/><polyline class="cls-2" points="45.57 139.2 46.33 152.54 35.79 152.81"/><path class="cls-46" d="M155.77,125.12q-3.56,3.18-7.28,6.14l-1.73,1.53a80,80,0,0,1-6.85,6.42,5.34,5.34,0,0,1-1.31.78l-.35.31a4.18,4.18,0,0,1-6.15-.71,4.67,4.67,0,0,1-2.87-.55,19.47,19.47,0,0,1-7,.16c-3.91-.35-7.82-.73-11.74-.8a21.49,21.49,0,0,1-8.32-.71,4.59,4.59,0,0,1-.78-.34,4.53,4.53,0,0,1-1.42,0c-3.4-.61-5.45-3.23-7.88-5.38-2.74-2.44-4.87-4.57-7.64-7l-5.87.16v74h82.7v-74Z"/><path class="cls-47" d="M162.26,148.14c0-1.42.06-2.85.13-4.27l-1.13-1.32L119.6,178.06a3.54,3.54,0,0,1,.68,2.45c-.07,1.25-.22,2.5-.38,3.74Z"/><path class="cls-47" d="M162.31,169.15c0-1.57.23-9,.25-10.52l-1.12-1.43L135.8,181.53c.47.67,2.42,3.81,2.39,4.93,0,1.38,2.44.37,2.32,1.74Z"/><path class="cls-47" d="M118.59,187.14l-13.27,12.58a69.58,69.58,0,0,1,11.09-.11c.59-.05,1.19-.1,1.78-.18l11.43-10c0-.46,0-1.45,0-2.65C126,186.94,122.28,187.07,118.59,187.14Z"/><path class="cls-47" d="M78,153.74a57.77,57.77,0,0,1-.16,6.58l7.84-6.68a45.91,45.91,0,0,1,.56-6.92Z"/><path class="cls-57" d="M97.41,137.12a143.66,143.66,0,0,0-13-11.94s-2.09.34-2.55-.06h-3.3v4.26H80.4a7.06,7.06,0,0,1,4.79,1.87L96.83,142l1.84-3.76-.43-.43A4.53,4.53,0,0,1,97.41,137.12Z"/><path class="cls-57" d="M142.93,137a142.32,142.32,0,0,1,13-11.94s2.09.35,2.55-.06h3.3v4.27h-1.81a7.05,7.05,0,0,0-4.79,1.86l-11.64,10.72-1.84-3.76.43-.43A3.82,3.82,0,0,0,142.93,137Z"/><path class="cls-47" d="M83.38,108.81h88.34a0,0,0,0,1,0,0v1.29A4.93,4.93,0,0,1,166.8,115H88.31a4.93,4.93,0,0,1-4.93-4.93v-1.29A0,0,0,0,1,83.38,108.81Z"/><path class="cls-47" d="M87.18,189.94h65.77a0,0,0,0,1,0,0v0a3.2,3.2,0,0,1-3.2,3.2H90.37a3.2,3.2,0,0,1-3.2-3.2v0A0,0,0,0,1,87.18,189.94Z"/><path class="cls-3" d="M63.73,108.93l-27-.54-.14,1.24c-.52,4.23,3.36,8.14,7.49,8.14H64C63.82,114.82,63.76,111.87,63.73,108.93Z"/><path class="cls-3" d="M63.62,153.8l-26.71-.26-.07.59A3.65,3.65,0,0,0,40.4,158H63.72C63.66,156.6,63.64,155.2,63.62,153.8Z"/><path class="cls-3" d="M176.65,153.8l26.71-.26.07.59a3.64,3.64,0,0,1-3.56,3.87H176.55C176.61,156.6,176.64,155.2,176.65,153.8Z"/><path class="cls-3" d="M175.86,108.93l27-.54.15,1.24c.51,4.23-3.36,8.14-7.5,8.14H175.65C175.77,114.82,175.83,111.87,175.86,108.93Z"/><line class="cls-6" x1="193.9" y1="152.54" x2="193.9" y2="132.2"/><line class="cls-6" x1="46.45" y1="132.65" x2="46.44" y2="152.91"/><line class="cls-6" x1="35.96" y1="125.3" x2="63.88" y2="143.82"/><polyline class="cls-6" points="63.54 190.59 50.95 190.6 51.04 198.4 46.04 198.31 35.7 187.14 35.7 153.27 63.8 153.36"/><line class="cls-6" x1="193.68" y1="132.65" x2="193.69" y2="152.54"/><line class="cls-6" x1="204.17" y1="125.3" x2="176.25" y2="143.82"/><polyline class="cls-6" points="176.6 190.59 189.18 190.6 189.09 198.4 194.09 198.31 204.43 187.14 204.43 153.27 176.34 153.36"/><line class="cls-6" x1="35.79" y1="152.81" x2="46.33" y2="138.13"/><circle class="cls-4" cx="51.3" cy="120.53" r="2.68"/><circle class="cls-58" cx="51.3" cy="122.44" r="2.68"/><circle class="cls-4" cx="188.67" cy="120.46" r="2.68"/><circle class="cls-55" cx="51.46" cy="120.39" r="2.68"/><circle class="cls-58" cx="188.81" cy="121.82" r="2.68"/><ellipse class="cls-4" cx="87.87" cy="211.49" rx="2.68" ry="2.62"/><circle class="cls-55" cx="188.95" cy="120.39" r="2.68"/><ellipse class="cls-4" cx="153.44" cy="210.95" rx="2.68" ry="2.62"/><ellipse class="cls-48" cx="87.87" cy="213.13" rx="2.68" ry="2.62"/><ellipse class="cls-48" cx="153.44" cy="213.13" rx="2.68" ry="2.62"/><circle class="cls-55" cx="153.58" cy="211.43" r="2.68"/><circle class="cls-55" cx="87.87" cy="211.43" r="2.68"/><rect class="cls-50" x="99.37" y="219.51" width="41.39" height="3.5"/><line class="cls-6" x1="64.22" y1="222.79" x2="64.22" y2="108.67"/><line class="cls-6" x1="175.87" y1="221.74" x2="175.87" y2="108.4"/><polyline class="cls-6" points="65 124.57 84.82 124.57 96.91 136.01"/><polyline class="cls-6" points="175.13 124.57 155.31 124.57 142.5 136.2"/><line class="cls-6" x1="35.77" y1="108.55" x2="35.75" y2="125.03"/><path class="cls-6" d="M35.87,108.45,204,108.17a.37.37,0,0,1,.36.38l0,16.34"/><line class="cls-6" x1="141.35" y1="199.58" x2="141.35" y2="222.69"/><line class="cls-6" x1="98.78" y1="222.69" x2="98.78" y2="199.58"/><polyline class="cls-6" points="162.29 125.12 162.29 199.13 77.61 199.13 77.61 125.12"/><polygon class="cls-43" points="77.69 181.15 64.62 196.4 64.62 177.18 77.69 161.92 77.69 181.15"/><polygon class="cls-44" points="64.62 178.45 64.62 183.9 77.69 168.64 77.69 163.19 64.62 178.45"/><path class="cls-6" d="M46.43,198.72v7.81a2.08,2.08,0,0,0,.68,1.54l16.15,14.4a1.88,1.88,0,0,0,1.25.48H175.84a1.88,1.88,0,0,0,1.25-.48l16.15-14.4a2.08,2.08,0,0,0,.68-1.54v-8.08"/><polygon class="cls-6" points="77.69 181.15 64.62 196.4 64.62 177.18 77.69 161.92 77.69 181.15"/><ellipse class="cls-45" cx="71.33" cy="181.51" rx="0.7" ry="0.59" transform="translate(-107.46 103.6) rotate(-45)"/><ellipse class="cls-45" cx="73.06" cy="176.84" rx="2.03" ry="1.7" transform="translate(-103.64 103.46) rotate(-45)"/><polygon class="cls-43" points="118.83 129.38 105.2 116.03 132.45 116.03 118.83 129.38"/><path class="cls-47" d="M118.78,128.57a3.26,3.26,0,0,1-.53-.26v0l0,0a2.94,2.94,0,0,1-.5-.37l0,0a2.68,2.68,0,0,1-.48-.35l-.67-.51a2.81,2.81,0,0,1-.66-1,2.66,2.66,0,0,0-1.75,2.42,2.85,2.85,0,0,0,3,2.67,2.91,2.91,0,0,0,3-2.31A2.85,2.85,0,0,1,118.78,128.57Z"/><ellipse class="cls-45" cx="119.42" cy="122.72" rx="1.4" ry="1.17"/><polygon class="cls-44" points="128.03 119.62 132.45 116.03 105.2 116.03 109.62 119.62 128.03 119.62"/><polygon class="cls-59" points="118.83 129.38 105.2 116.03 132.45 116.03 118.83 129.38"/><circle class="cls-45" cx="116.55" cy="122.94" r="0.52"/><ellipse class="cls-47" cx="165" cy="121.48" rx="1.23" ry="1.09"/><ellipse class="cls-47" cx="83" cy="194.22" rx="1.23" ry="1.09"/><ellipse class="cls-47" cx="83.57" cy="141.83" rx="1.23" ry="1.09"/><ellipse class="cls-9" cx="117.14" cy="191.64" rx="2.57" ry="1.7"/><ellipse class="cls-9" cx="146.45" cy="111.92" rx="2.84" ry="1.84"/><rect class="cls-11" x="85.17" y="134.76" width="69.08" height="55.18"/><rect class="cls-60" x="85.17" y="134.76" width="69.08" height="5.43"/><rect class="cls-61" x="85.17" y="187.31" width="69.08" height="2.63"/><polygon class="cls-62" points="125.69 145.46 125.69 161.66 125.69 177.86 142.49 177.86 142.49 161.66 142.49 145.46 125.69 145.46"/><line class="cls-62" x1="114.56" y1="161.66" x2="97.76" y2="161.66"/><polyline class="cls-62" points="97.76 161.66 114.56 161.66 114.56 145.46 97.76 145.46"/><polyline class="cls-62" points="114.56 161.66 97.76 161.66 97.76 145.46 114.56 145.46"/><polyline class="cls-62" points="97.76 177.86 114.56 177.86 114.56 161.66 97.76 161.66"/><rect class="cls-6" x="85.17" y="134.76" width="69.08" height="55.18"/><polyline class="cls-55" points="154.25 177.39 154.25 187.14 85.17 187.14 85.17 180.78"/><path class="cls-16" d="M33.5,212.48c2.51-6.95,6.58-12.14,10-13.37a37.82,37.82,0,0,0-6.28-3h0c-3.78-1.35-9.44,4.68-12.75,13.47s-2.85,17.15.93,18.5h0a38.73,38.73,0,0,0,7.49,1.87C30.68,227.14,30.81,220,33.5,212.48Z"/><ellipse class="cls-16" cx="52.15" cy="219.7" rx="9.79" ry="4.13" transform="translate(-171.99 192.33) rotate(-69.68)"/><g class="cls-24"><path class="cls-25" d="M33.5,212.48c2.51-6.95,6.58-12.14,10-13.37a37.82,37.82,0,0,0-6.28-3h0c-3.78-1.35-9.44,4.68-12.75,13.47s-2.85,17.15.93,18.5h0a38.73,38.73,0,0,0,7.49,1.87C30.68,227.14,30.81,220,33.5,212.48Z"/><ellipse class="cls-25" cx="52.15" cy="219.7" rx="9.79" ry="4.13" transform="translate(-171.99 192.33) rotate(-69.68)"/></g><path class="cls-16" d="M53.25,210.86a8.16,8.16,0,0,1,1.89-1.46,41.68,41.68,0,0,0-14.21-11.73,40.2,40.2,0,0,0-9.45,32,41.14,41.14,0,0,0,16.32-.15C45.72,223,48.32,215.76,53.25,210.86Z"/><path class="cls-17" d="M31.48,229.68a39.45,39.45,0,0,0,18.64-.7l.2-.37a18.4,18.4,0,0,1-12.51-15.54A17.24,17.24,0,0,1,43.28,199l-2.35-1.34C33.38,206.69,29.59,218.12,31.48,229.68Z"/><path class="cls-63" d="M22.35,215.05c-3.05-1.17-8.53-5.93-7.36-9s8.26-3.16,11.42-2.11"/><path class="cls-63" d="M28.78,199.61c-1.08-3.11-1.44-10.29,1-11.08s6.41,4.56,7.57,7.19"/><path class="cls-63" d="M21.32,219.75c-2.83,1.65-7.72,6.9-6.48,9.05s7.87.77,10.36-.62"/><path class="cls-6" d="M25.26,227.47c-3.78-1.35-4.11-9.72-.92-18.5s9-14.82,12.74-13.47h0"/><path class="cls-6" d="M32.75,229.34c-2.57-2.51-2.56-9.61.25-17.18S40.24,199.38,43.75,199"/><ellipse class="cls-64" cx="52.15" cy="219.15" rx="9.79" ry="4.13" transform="translate(-171.47 191.97) rotate(-69.68)"/><path class="cls-6" d="M37.21,195.61c7.45,2.82,15.4,8.91,19.24,15.34"/><path class="cls-6" d="M25.39,227.58c7.45,2.82,17.54,3.17,24.69.93"/><path class="cls-6" d="M22.3,214.46c-3.05-1.17-8.53-5.93-7.36-9s8.26-3.16,11.42-2.12"/><path class="cls-6" d="M28.74,199.14c-1.08-3.11-1.43-10.29,1-11.08s6.4,4.56,7.57,7.19"/><path class="cls-6" d="M21.28,219.28c-2.82,1.65-7.72,6.9-6.48,9.05s7.88.77,10.36-.62"/><line class="cls-6" x1="35.79" y1="204.36" x2="28.73" y2="201.86"/><line class="cls-6" x1="30.17" y1="219.49" x2="23.21" y2="216.87"/></g></svg>